<?xml version="1.0" encoding="UTF-8" standalone="no"?>
<!DOCTYPE svg PUBLIC "-//W3C//DTD SVG 1.1//EN"
 "http://www.w3.org/Graphics/SVG/1.1/DTD/svg11.dtd">
<!-- Generated by graphviz version 2.38.0 (20140413.2041)
 -->
<!-- Title: ReligionGraph Pages: 1 -->
<svg width="1583pt" height="548pt"
 viewBox="0.00 0.00 1582.93 548.00" xmlns="http://www.w3.org/2000/svg" xmlns:xlink="http://www.w3.org/1999/xlink">
<g id="graph0" class="graph" transform="scale(1 1) rotate(0) translate(4 544)">
<title>ReligionGraph</title>
<polygon fill="white" stroke="none" points="-4,4 -4,-544 1578.93,-544 1578.93,4 -4,4"/>
<!-- X253de -->
<g id="node1" class="node"><title>X253de</title>
<g id="a_node1"><a xlink:href="http://sparql.cwrc.ca/ontologies/cwrc#quakerism" xlink:title="Quakerism" target="_parent">
<ellipse fill="none" stroke="black" cx="1159.44" cy="-234" rx="50.0912" ry="18"/>
<text text-anchor="middle" x="1159.44" y="-230.3" font-family="Times,serif" font-size="14.00">Quakerism</text>
</a>
</g>
</g>
<!-- X156db -->
<g id="node2" class="node"><title>X156db</title>
<g id="a_node2"><a xlink:href="http://sparql.cwrc.ca/ontologies/cwrc#dissentProtestant" xlink:title="Dissent (Protestant)" target="_parent">
<ellipse fill="none" stroke="black" cx="607.443" cy="-162" rx="80.6858" ry="18"/>
<text text-anchor="middle" x="607.443" y="-158.3" font-family="Times,serif" font-size="14.00">Dissent (Protestant)</text>
</a>
</g>
</g>
<!-- X253de&#45;&gt;X156db -->
<g id="edge1" class="edge"><title>X253de&#45;&gt;X156db</title>
<path fill="none" stroke="black" d="M1123.51,-221.464C1115.96,-219.372 1107.99,-217.41 1100.44,-216 923.682,-182.955 875.561,-204.718 697.443,-180 690.106,-178.982 682.459,-177.771 674.857,-176.472"/>
<polygon fill="black" stroke="black" points="675.376,-173.01 664.921,-174.722 674.162,-179.903 675.376,-173.01"/>
</g>
<!-- X4e4b1 -->
<g id="node3" class="node"><title>X4e4b1</title>
<g id="a_node3"><a xlink:href="http://sparql.cwrc.ca/ontologies/cwrc#protestantism" xlink:title="Protestantism" target="_parent">
<ellipse fill="none" stroke="black" cx="1209.44" cy="-162" rx="59.2899" ry="18"/>
<text text-anchor="middle" x="1209.44" y="-158.3" font-family="Times,serif" font-size="14.00">Protestantism</text>
</a>
</g>
</g>
<!-- X253de&#45;&gt;X4e4b1 -->
<g id="edge2" class="edge"><title>X253de&#45;&gt;X4e4b1</title>
<path fill="none" stroke="black" d="M1171.29,-216.411C1177.31,-207.992 1184.74,-197.585 1191.44,-188.201"/>
<polygon fill="black" stroke="black" points="1194.37,-190.128 1197.33,-179.956 1188.67,-186.059 1194.37,-190.128"/>
</g>
<!-- Xf6f10 -->
<g id="node4" class="node"><title>Xf6f10</title>
<ellipse fill="none" stroke="black" cx="174.443" cy="-90" rx="36.2938" ry="18"/>
<text text-anchor="middle" x="174.443" y="-86.3" font-family="Times,serif" font-size="14.00">Xf6f10</text>
</g>
<!-- X156db&#45;&gt;Xf6f10 -->
<g id="edge3" class="edge"><title>X156db&#45;&gt;Xf6f10</title>
<path fill="none" stroke="black" d="M544.018,-150.746C455.175,-136.384 295.923,-110.639 218.761,-98.1646"/>
<polygon fill="black" stroke="black" points="218.865,-94.6359 208.434,-96.4951 217.748,-101.546 218.865,-94.6359"/>
</g>
<!-- Xadf16 -->
<g id="node5" class="node"><title>Xadf16</title>
<g id="a_node5"><a xlink:href="http://sparql.cwrc.ca/ontologies/cwrc#christianity" xlink:title="Christianity" target="_parent">
<ellipse fill="none" stroke="black" cx="963.443" cy="-90" rx="51.9908" ry="18"/>
<text text-anchor="middle" x="963.443" y="-86.3" font-family="Times,serif" font-size="14.00">Christianity</text>
</a>
</g>
</g>
<!-- X4e4b1&#45;&gt;Xadf16 -->
<g id="edge4" class="edge"><title>X4e4b1&#45;&gt;Xadf16</title>
<path fill="none" stroke="black" d="M1167.71,-149.125C1124.67,-136.879 1057.61,-117.795 1012.17,-104.864"/>
<polygon fill="black" stroke="black" points="1013.11,-101.493 1002.53,-102.123 1011.19,-108.226 1013.11,-101.493"/>
</g>
<!-- Xb2336 -->
<g id="node10" class="node"><title>Xb2336</title>
<g id="a_node10"><a xlink:href="http://sparql.cwrc.ca/ontologies/cwrc#abrahamicReligions" xlink:title="Abrahamic religions" target="_parent">
<ellipse fill="none" stroke="black" cx="963.443" cy="-18" rx="83.3857" ry="18"/>
<text text-anchor="middle" x="963.443" y="-14.3" font-family="Times,serif" font-size="14.00">Abrahamic religions</text>
</a>
</g>
</g>
<!-- Xadf16&#45;&gt;Xb2336 -->
<g id="edge12" class="edge"><title>Xadf16&#45;&gt;Xb2336</title>
<path fill="none" stroke="black" d="M963.443,-71.6966C963.443,-63.9827 963.443,-54.7125 963.443,-46.1124"/>
<polygon fill="black" stroke="black" points="966.944,-46.1043 963.443,-36.1043 959.944,-46.1044 966.944,-46.1043"/>
</g>
<!-- X37200 -->
<g id="node6" class="node"><title>X37200</title>
<g id="a_node6"><a xlink:href="http://sparql.cwrc.ca/ontologies/cwrc#paganism" xlink:title="Paganism" target="_parent">
<ellipse fill="none" stroke="black" cx="1477.44" cy="-522" rx="45.4919" ry="18"/>
<text text-anchor="middle" x="1477.44" y="-518.3" font-family="Times,serif" font-size="14.00">Paganism</text>
</a>
</g>
</g>
<!-- X36b94 -->
<g id="node7" class="node"><title>X36b94</title>
<g id="a_node7"><a xlink:href="http://sparql.cwrc.ca/ontologies/cwrc#agnosticism" xlink:title="Agnosticism" target="_parent">
<ellipse fill="none" stroke="black" cx="1477.44" cy="-450" rx="55.7903" ry="18"/>
<text text-anchor="middle" x="1477.44" y="-446.3" font-family="Times,serif" font-size="14.00">Agnosticism</text>
</a>
</g>
</g>
<!-- X37200&#45;&gt;X36b94 -->
<!-- X43c0c -->
<g id="node11" class="node"><title>X43c0c</title>
<g id="a_node11"><a xlink:href="http://sparql.cwrc.ca/ontologies/cwrc#occultism" xlink:title="Occultism/Theosophism" target="_parent">
<ellipse fill="none" stroke="black" cx="1477.44" cy="-378" rx="97.4827" ry="18"/>
<text text-anchor="middle" x="1477.44" y="-374.3" font-family="Times,serif" font-size="14.00">Occultism/Theosophism</text>
</a>
</g>
</g>
<!-- X36b94&#45;&gt;X43c0c -->
<!-- X043aa -->
<g id="node8" class="node"><title>X043aa</title>
<g id="a_node8"><a xlink:href="http://sparql.cwrc.ca/ontologies/cwrc#unitarianism" xlink:title="Unitarianism" target="_parent">
<ellipse fill="none" stroke="black" cx="503.443" cy="-234" rx="57.3905" ry="18"/>
<text text-anchor="middle" x="503.443" y="-230.3" font-family="Times,serif" font-size="14.00">Unitarianism</text>
</a>
</g>
</g>
<!-- X043aa&#45;&gt;X156db -->
<g id="edge6" class="edge"><title>X043aa&#45;&gt;X156db</title>
<path fill="none" stroke="black" d="M526.524,-217.465C540.763,-207.881 559.244,-195.442 574.948,-184.872"/>
<polygon fill="black" stroke="black" points="577.001,-187.709 583.343,-179.222 573.093,-181.902 577.001,-187.709"/>
</g>
<!-- X0e2fa -->
<g id="node9" class="node"><title>X0e2fa</title>
<g id="a_node9"><a xlink:href="http://sparql.cwrc.ca/ontologies/cwrc#presbyterianism" xlink:title="Presbyterianism" target="_parent">
<ellipse fill="none" stroke="black" cx="530.443" cy="-306" rx="67.6881" ry="18"/>
<text text-anchor="middle" x="530.443" y="-302.3" font-family="Times,serif" font-size="14.00">Presbyterianism</text>
</a>
</g>
</g>
<!-- X0e2fa&#45;&gt;X156db -->
<g id="edge7" class="edge"><title>X0e2fa&#45;&gt;X156db</title>
<path fill="none" stroke="black" d="M544.504,-288.023C552.441,-277.948 562.191,-264.698 569.443,-252 580.851,-232.029 590.924,-207.967 597.828,-189.9"/>
<polygon fill="black" stroke="black" points="601.198,-190.881 601.42,-180.288 594.641,-188.431 601.198,-190.881"/>
</g>
<!-- Xc7ed9 -->
<g id="node15" class="node"><title>Xc7ed9</title>
<g id="a_node15"><a xlink:href="http://sparql.cwrc.ca/ontologies/cwrc#hinduism" xlink:title="Hinduism" target="_parent">
<ellipse fill="none" stroke="black" cx="1477.44" cy="-306" rx="46.2923" ry="18"/>
<text text-anchor="middle" x="1477.44" y="-302.3" font-family="Times,serif" font-size="14.00">Hinduism</text>
</a>
</g>
</g>
<!-- X43c0c&#45;&gt;Xc7ed9 -->
<!-- X8fa8b -->
<g id="node12" class="node"><title>X8fa8b</title>
<g id="a_node12"><a xlink:href="http://sparql.cwrc.ca/ontologies/cwrc#plymouthBrethren" xlink:title="Plymouth Brethren" target="_parent">
<ellipse fill="none" stroke="black" cx="557.443" cy="-378" rx="78.7863" ry="18"/>
<text text-anchor="middle" x="557.443" y="-374.3" font-family="Times,serif" font-size="14.00">Plymouth Brethren</text>
</a>
</g>
</g>
<!-- X8fa8b&#45;&gt;X156db -->
<g id="edge9" class="edge"><title>X8fa8b&#45;&gt;X156db</title>
<path fill="none" stroke="black" d="M579.256,-360.657C589.932,-351.26 601.699,-338.46 607.443,-324 624.966,-279.89 619.243,-223.462 613.403,-190.464"/>
<polygon fill="black" stroke="black" points="616.762,-189.391 611.451,-180.223 609.885,-190.701 616.762,-189.391"/>
</g>
<!-- X9deb8 -->
<g id="node13" class="node"><title>X9deb8</title>
<g id="a_node13"><a xlink:href="http://sparql.cwrc.ca/ontologies/cwrc#dissentingChristianity" xlink:title="Dissenting Christianity" target="_parent">
<ellipse fill="none" stroke="black" cx="1319.44" cy="-234" rx="92.0841" ry="18"/>
<text text-anchor="middle" x="1319.44" y="-230.3" font-family="Times,serif" font-size="14.00">Dissenting Christianity</text>
</a>
</g>
</g>
<!-- X9deb8&#45;&gt;X4e4b1 -->
<g id="edge10" class="edge"><title>X9deb8&#45;&gt;X4e4b1</title>
<path fill="none" stroke="black" d="M1293.65,-216.588C1278.44,-206.905 1259.02,-194.548 1242.66,-184.14"/>
<polygon fill="black" stroke="black" points="1244.26,-181.004 1233.94,-178.588 1240.5,-186.91 1244.26,-181.004"/>
</g>
<!-- X6f203 -->
<g id="node14" class="node"><title>X6f203</title>
<g id="a_node14"><a xlink:href="http://sparql.cwrc.ca/ontologies/cwrc#christianScience" xlink:title="Christian Science" target="_parent">
<ellipse fill="none" stroke="black" cx="877.443" cy="-162" rx="72.5877" ry="18"/>
<text text-anchor="middle" x="877.443" y="-158.3" font-family="Times,serif" font-size="14.00">Christian Science</text>
</a>
</g>
</g>
<!-- X6f203&#45;&gt;Xadf16 -->
<g id="edge11" class="edge"><title>X6f203&#45;&gt;Xadf16</title>
<path fill="none" stroke="black" d="M897.824,-144.411C909.314,-135.058 923.817,-123.254 936.264,-113.123"/>
<polygon fill="black" stroke="black" points="938.549,-115.776 944.095,-106.749 934.13,-110.347 938.549,-115.776"/>
</g>
<!-- X3b80a -->
<g id="node16" class="node"><title>X3b80a</title>
<g id="a_node16"><a xlink:href="http://sparql.cwrc.ca/ontologies/cwrc#buddhism" xlink:title="Buddhism" target="_parent">
<ellipse fill="none" stroke="black" cx="1477.44" cy="-234" rx="47.3916" ry="18"/>
<text text-anchor="middle" x="1477.44" y="-230.3" font-family="Times,serif" font-size="14.00">Buddhism</text>
</a>
</g>
</g>
<!-- Xc7ed9&#45;&gt;X3b80a -->
<!-- X7152e -->
<g id="node19" class="node"><title>X7152e</title>
<g id="a_node19"><a xlink:href="http://sparql.cwrc.ca/ontologies/cwrc#atheism" xlink:title="Atheism" target="_parent">
<ellipse fill="none" stroke="black" cx="1477.44" cy="-162" rx="40.8928" ry="18"/>
<text text-anchor="middle" x="1477.44" y="-158.3" font-family="Times,serif" font-size="14.00">Atheism</text>
</a>
</g>
</g>
<!-- X3b80a&#45;&gt;X7152e -->
<!-- Xe1e3e -->
<g id="node17" class="node"><title>Xe1e3e</title>
<g id="a_node17"><a xlink:href="http://sparql.cwrc.ca/ontologies/cwrc#methodism" xlink:title="Methodism" target="_parent">
<ellipse fill="none" stroke="black" cx="643.443" cy="-450" rx="51.9908" ry="18"/>
<text text-anchor="middle" x="643.443" y="-446.3" font-family="Times,serif" font-size="14.00">Methodism</text>
</a>
</g>
</g>
<!-- Xe1e3e&#45;&gt;X156db -->
<g id="edge15" class="edge"><title>Xe1e3e&#45;&gt;X156db</title>
<path fill="none" stroke="black" d="M645.119,-431.943C648.425,-392.897 653.74,-294.353 632.443,-216 629.962,-206.87 625.984,-197.379 621.924,-188.994"/>
<polygon fill="black" stroke="black" points="625.039,-187.397 617.382,-180.075 618.802,-190.574 625.039,-187.397"/>
</g>
<!-- X2a5d0 -->
<g id="node18" class="node"><title>X2a5d0</title>
<g id="a_node18"><a xlink:href="http://sparql.cwrc.ca/ontologies/cwrc#churchOfIreland" xlink:title="Church of Ireland" target="_parent">
<ellipse fill="none" stroke="black" cx="73.4435" cy="-162" rx="73.387" ry="18"/>
<text text-anchor="middle" x="73.4435" y="-158.3" font-family="Times,serif" font-size="14.00">Church of Ireland</text>
</a>
</g>
</g>
<!-- X2a5d0&#45;&gt;Xf6f10 -->
<g id="edge16" class="edge"><title>X2a5d0&#45;&gt;Xf6f10</title>
<path fill="none" stroke="black" d="M96.8688,-144.765C111.385,-134.704 130.14,-121.705 145.572,-111.01"/>
<polygon fill="black" stroke="black" points="147.992,-113.591 154.217,-105.018 144.004,-107.838 147.992,-113.591"/>
</g>
<!-- Xd35c6 -->
<g id="node20" class="node"><title>Xd35c6</title>
<g id="a_node20"><a xlink:href="http://sparql.cwrc.ca/ontologies/cwrc#spiritualism" xlink:title="Spiritualism" target="_parent">
<ellipse fill="none" stroke="black" cx="1477.44" cy="-90" rx="53.8905" ry="18"/>
<text text-anchor="middle" x="1477.44" y="-86.3" font-family="Times,serif" font-size="14.00">Spiritualism</text>
</a>
</g>
</g>
<!-- X7152e&#45;&gt;Xd35c6 -->
<!-- X52798 -->
<g id="node22" class="node"><title>X52798</title>
<g id="a_node22"><a xlink:href="http://sparql.cwrc.ca/ontologies/cwrc#pantheism" xlink:title="Pantheism" target="_parent">
<ellipse fill="none" stroke="black" cx="1477.44" cy="-18" rx="48.1917" ry="18"/>
<text text-anchor="middle" x="1477.44" y="-14.3" font-family="Times,serif" font-size="14.00">Pantheism</text>
</a>
</g>
</g>
<!-- Xd35c6&#45;&gt;X52798 -->
<!-- Xc1422 -->
<g id="node21" class="node"><title>Xc1422</title>
<g id="a_node21"><a xlink:href="http://sparql.cwrc.ca/ontologies/cwrc#islam" xlink:title="Islamism" target="_parent">
<ellipse fill="none" stroke="black" cx="1077.44" cy="-90" rx="44.393" ry="18"/>
<text text-anchor="middle" x="1077.44" y="-86.3" font-family="Times,serif" font-size="14.00">Islamism</text>
</a>
</g>
</g>
<!-- Xc1422&#45;&gt;Xb2336 -->
<g id="edge19" class="edge"><title>Xc1422&#45;&gt;Xb2336</title>
<path fill="none" stroke="black" d="M1054.1,-74.6655C1038.09,-64.8346 1016.56,-51.6146 998.498,-40.5248"/>
<polygon fill="black" stroke="black" points="1000.3,-37.5261 989.95,-35.276 996.64,-43.4913 1000.3,-37.5261"/>
</g>
<!-- Xd2614 -->
<g id="node23" class="node"><title>Xd2614</title>
<g id="a_node23"><a xlink:href="http://sparql.cwrc.ca/ontologies/cwrc#fifthMonarchists" xlink:title="Fifth Monarchists" target="_parent">
<ellipse fill="none" stroke="black" cx="354.443" cy="-234" rx="74.187" ry="18"/>
<text text-anchor="middle" x="354.443" y="-230.3" font-family="Times,serif" font-size="14.00">Fifth Monarchists</text>
</a>
</g>
</g>
<!-- Xd2614&#45;&gt;X156db -->
<g id="edge21" class="edge"><title>Xd2614&#45;&gt;X156db</title>
<path fill="none" stroke="black" d="M401.438,-219.998C443.154,-208.456 504.269,-191.546 549.101,-179.142"/>
<polygon fill="black" stroke="black" points="550.274,-182.449 558.978,-176.409 548.407,-175.703 550.274,-182.449"/>
</g>
<!-- Xb45be -->
<g id="node24" class="node"><title>Xb45be</title>
<g id="a_node24"><a xlink:href="http://sparql.cwrc.ca/ontologies/cwrc#millenarianism" xlink:title="Millenarianism" target="_parent">
<ellipse fill="none" stroke="black" cx="354.443" cy="-162" rx="65.7887" ry="18"/>
<text text-anchor="middle" x="354.443" y="-158.3" font-family="Times,serif" font-size="14.00">Millenarianism</text>
</a>
</g>
</g>
<!-- Xd2614&#45;&gt;Xb45be -->
<g id="edge22" class="edge"><title>Xd2614&#45;&gt;Xb45be</title>
<path fill="none" stroke="black" d="M354.443,-215.697C354.443,-207.983 354.443,-198.712 354.443,-190.112"/>
<polygon fill="black" stroke="black" points="357.944,-190.104 354.443,-180.104 350.944,-190.104 357.944,-190.104"/>
</g>
<!-- X1cc79 -->
<g id="node25" class="node"><title>X1cc79</title>
<g id="a_node25"><a xlink:href="http://sparql.cwrc.ca/ontologies/cwrc#lollardy" xlink:title="Lollardy" target="_parent">
<ellipse fill="none" stroke="black" cx="1050.44" cy="-234" rx="40.8928" ry="18"/>
<text text-anchor="middle" x="1050.44" y="-230.3" font-family="Times,serif" font-size="14.00">Lollardy</text>
</a>
</g>
</g>
<!-- X32f53 -->
<g id="node26" class="node"><title>X32f53</title>
<g id="a_node26"><a xlink:href="http://sparql.cwrc.ca/ontologies/cwrc#catholicism" xlink:title="Roman Catholicism" target="_parent">
<ellipse fill="none" stroke="black" cx="1050.44" cy="-162" rx="81.7856" ry="18"/>
<text text-anchor="middle" x="1050.44" y="-158.3" font-family="Times,serif" font-size="14.00">Roman Catholicism</text>
</a>
</g>
</g>
<!-- X1cc79&#45;&gt;X32f53 -->
<g id="edge23" class="edge"><title>X1cc79&#45;&gt;X32f53</title>
<path fill="none" stroke="black" d="M1050.44,-215.697C1050.44,-207.983 1050.44,-198.712 1050.44,-190.112"/>
<polygon fill="black" stroke="black" points="1053.94,-190.104 1050.44,-180.104 1046.94,-190.104 1053.94,-190.104"/>
</g>
<!-- X32f53&#45;&gt;Xadf16 -->
<g id="edge24" class="edge"><title>X32f53&#45;&gt;Xadf16</title>
<path fill="none" stroke="black" d="M1029.83,-144.411C1018.2,-135.058 1003.53,-123.254 990.939,-113.123"/>
<polygon fill="black" stroke="black" points="993.002,-110.291 983.017,-106.749 988.614,-115.745 993.002,-110.291"/>
</g>
<!-- X7477d -->
<g id="node27" class="node"><title>X7477d</title>
<g id="a_node27"><a xlink:href="http://sparql.cwrc.ca/ontologies/cwrc#congregationalism" xlink:title="Congregationalism" target="_parent">
<ellipse fill="none" stroke="black" cx="723.443" cy="-522" rx="77.9862" ry="18"/>
<text text-anchor="middle" x="723.443" y="-518.3" font-family="Times,serif" font-size="14.00">Congregationalism</text>
</a>
</g>
</g>
<!-- X7477d&#45;&gt;X156db -->
<g id="edge25" class="edge"><title>X7477d&#45;&gt;X156db</title>
<path fill="none" stroke="black" d="M723.443,-503.951C723.443,-477.292 723.443,-424.115 723.443,-379 723.443,-379 723.443,-379 723.443,-305 723.443,-253.058 676.317,-209.641 642.139,-184.983"/>
<polygon fill="black" stroke="black" points="643.966,-181.99 633.766,-179.125 639.953,-187.725 643.966,-181.99"/>
</g>
<!-- Xd53bc -->
<g id="node28" class="node"><title>Xd53bc</title>
<g id="a_node28"><a xlink:href="http://sparql.cwrc.ca/ontologies/cwrc#baptistChristianity" xlink:title="Baptist Christianity" target="_parent">
<ellipse fill="none" stroke="black" cx="830.443" cy="-234" rx="79.0865" ry="18"/>
<text text-anchor="middle" x="830.443" y="-230.3" font-family="Times,serif" font-size="14.00">Baptist Christianity</text>
</a>
</g>
</g>
<!-- Xd53bc&#45;&gt;X156db -->
<g id="edge26" class="edge"><title>Xd53bc&#45;&gt;X156db</title>
<path fill="none" stroke="black" d="M785.852,-219.003C750.266,-207.832 700.249,-192.132 662.226,-180.196"/>
<polygon fill="black" stroke="black" points="662.928,-176.748 652.339,-177.093 660.832,-183.427 662.928,-176.748"/>
</g>
<!-- Xd32ac -->
<g id="node29" class="node"><title>Xd32ac</title>
<g id="a_node29"><a xlink:href="http://sparql.cwrc.ca/ontologies/cwrc#judaism" xlink:title="Judaism" target="_parent">
<ellipse fill="none" stroke="black" cx="746.443" cy="-162" rx="40.0939" ry="18"/>
<text text-anchor="middle" x="746.443" y="-158.3" font-family="Times,serif" font-size="14.00">Judaism</text>
</a>
</g>
</g>
<!-- Xd32ac&#45;&gt;Xb2336 -->
<g id="edge27" class="edge"><title>Xd32ac&#45;&gt;Xb2336</title>
<path fill="none" stroke="black" d="M768.445,-146.603C806.527,-121.682 884.954,-70.3616 929.878,-40.9644"/>
<polygon fill="black" stroke="black" points="931.943,-43.7959 938.394,-35.3916 928.11,-37.9385 931.943,-43.7959"/>
</g>
<!-- Xb800b -->
<g id="node30" class="node"><title>Xb800b</title>
<g id="a_node30"><a xlink:href="http://sparql.cwrc.ca/ontologies/cwrc#tractarianMovement" xlink:title="Tractarian Movement" target="_parent">
<ellipse fill="none" stroke="black" cx="174.443" cy="-234" rx="88.2844" ry="18"/>
<text text-anchor="middle" x="174.443" y="-230.3" font-family="Times,serif" font-size="14.00">Tractarian Movement</text>
</a>
</g>
</g>
<!-- Xb800b&#45;&gt;Xf6f10 -->
<g id="edge28" class="edge"><title>Xb800b&#45;&gt;Xf6f10</title>
<path fill="none" stroke="black" d="M174.443,-215.871C174.443,-191.67 174.443,-147.211 174.443,-118.393"/>
<polygon fill="black" stroke="black" points="177.944,-118.189 174.443,-108.189 170.944,-118.189 177.944,-118.189"/>
</g>
<!-- Xe7b0a -->
<g id="node31" class="node"><title>Xe7b0a</title>
<g id="a_node31"><a xlink:href="http://sparql.cwrc.ca/ontologies/cwrc#neo-thomism" xlink:title="Neo&#45;thomism" target="_parent">
<ellipse fill="none" stroke="black" cx="981.443" cy="-306" rx="59.5901" ry="18"/>
<text text-anchor="middle" x="981.443" y="-302.3" font-family="Times,serif" font-size="14.00">Neo&#45;thomism</text>
</a>
</g>
</g>
<!-- Xe7b0a&#45;&gt;X32f53 -->
<g id="edge29" class="edge"><title>Xe7b0a&#45;&gt;X32f53</title>
<path fill="none" stroke="black" d="M982.376,-287.668C983.991,-269.016 988.402,-238.944 1000.44,-216 1006.08,-205.258 1014.51,-195.126 1022.85,-186.654"/>
<polygon fill="black" stroke="black" points="1025.33,-189.13 1030.09,-179.664 1020.46,-184.096 1025.33,-189.13"/>
</g>
</g>
</svg>
