<?xml version="1.0" encoding="UTF-8" standalone="no"?>
<!DOCTYPE svg PUBLIC "-//W3C//DTD SVG 1.1//EN"
 "http://www.w3.org/Graphics/SVG/1.1/DTD/svg11.dtd">
<!-- Generated by graphviz version 2.38.0 (20140413.2041)
 -->
<!-- Title: ReligionGraph Pages: 1 -->
<svg width="1714pt" height="548pt"
 viewBox="0.00 0.00 1714.43 548.00" xmlns="http://www.w3.org/2000/svg" xmlns:xlink="http://www.w3.org/1999/xlink">
<g id="graph0" class="graph" transform="scale(1 1) rotate(0) translate(4 544)">
<title>ReligionGraph</title>
<polygon fill="white" stroke="none" points="-4,4 -4,-544 1710.43,-544 1710.43,4 -4,4"/>
<!-- Xd35c6 -->
<g id="node1" class="node"><title>Xd35c6</title>
<g id="a_node1"><a xlink:href="http://sparql.cwrc.ca/ontologies/cwrc#spiritualism" xlink:title="Spiritualism" target="_parent">
<ellipse fill="none" stroke="black" cx="122.189" cy="-522" rx="67.6881" ry="18"/>
<text text-anchor="middle" x="122.189" y="-518.3" font-family="Times,serif" font-size="14.00">Spiritualism</text>
</a>
</g>
</g>
<!-- X930a7 -->
<g id="node2" class="node"><title>X930a7</title>
<g id="a_node2"><a xlink:href="http://sparql.cwrc.ca/ontologies/cwrc#Pantheism" xlink:title="Pantheism" target="_parent">
<ellipse fill="none" stroke="black" cx="122.189" cy="-450" rx="59.5901" ry="18"/>
<text text-anchor="middle" x="122.189" y="-446.3" font-family="Times,serif" font-size="14.00">Pantheism</text>
</a>
</g>
</g>
<!-- Xd35c6&#45;&gt;X930a7 -->
<!-- X43c0c -->
<g id="node7" class="node"><title>X43c0c</title>
<g id="a_node7"><a xlink:href="http://sparql.cwrc.ca/ontologies/cwrc#occultism" xlink:title="Occultism/Theosophism" target="_parent">
<ellipse fill="none" stroke="black" cx="122.189" cy="-378" rx="122.379" ry="18"/>
<text text-anchor="middle" x="122.189" y="-374.3" font-family="Times,serif" font-size="14.00">Occultism/Theosophism</text>
</a>
</g>
</g>
<!-- X930a7&#45;&gt;X43c0c -->
<!-- X253de -->
<g id="node3" class="node"><title>X253de</title>
<g id="a_node3"><a xlink:href="http://sparql.cwrc.ca/ontologies/cwrc#quakerism" xlink:title="Quakerism" target="_parent">
<ellipse fill="none" stroke="black" cx="1405.19" cy="-234" rx="61.99" ry="18"/>
<text text-anchor="middle" x="1405.19" y="-230.3" font-family="Times,serif" font-size="14.00">Quakerism</text>
</a>
</g>
</g>
<!-- X4e4b1 -->
<g id="node4" class="node"><title>X4e4b1</title>
<g id="a_node4"><a xlink:href="http://sparql.cwrc.ca/ontologies/cwrc#protestantism" xlink:title="Protestantism" target="_parent">
<ellipse fill="none" stroke="black" cx="1021.19" cy="-162" rx="76.8869" ry="18"/>
<text text-anchor="middle" x="1021.19" y="-158.3" font-family="Times,serif" font-size="14.00">Protestantism</text>
</a>
</g>
</g>
<!-- X253de&#45;&gt;X4e4b1 -->
<g id="edge2" class="edge"><title>X253de&#45;&gt;X4e4b1</title>
<path fill="none" stroke="black" d="M1359.85,-221.59C1351.35,-219.608 1342.52,-217.655 1334.19,-216 1234,-196.092 1207.76,-197.908 1107.19,-180 1100.65,-178.835 1093.83,-177.572 1087.03,-176.28"/>
<polygon fill="black" stroke="black" points="1087.59,-172.823 1077.11,-174.372 1086.27,-179.697 1087.59,-172.823"/>
</g>
<!-- X991c3 -->
<g id="node5" class="node"><title>X991c3</title>
<ellipse fill="none" stroke="black" cx="1162.19" cy="-162" rx="46.2923" ry="18"/>
<text text-anchor="middle" x="1162.19" y="-158.3" font-family="Times,serif" font-size="14.00">X991c3</text>
</g>
<!-- X253de&#45;&gt;X991c3 -->
<g id="edge3" class="edge"><title>X253de&#45;&gt;X991c3</title>
<path fill="none" stroke="black" d="M1361.79,-221.097C1323.63,-210.551 1266.62,-194.605 1217.19,-180 1213.83,-179.007 1210.36,-177.967 1206.87,-176.912"/>
<polygon fill="black" stroke="black" points="1207.65,-173.492 1197.06,-173.923 1205.61,-180.187 1207.65,-173.492"/>
</g>
<!-- Xadf16 -->
<g id="node6" class="node"><title>Xadf16</title>
<g id="a_node6"><a xlink:href="http://sparql.cwrc.ca/ontologies/cwrc#christianity" xlink:title="Christianity" target="_parent">
<ellipse fill="none" stroke="black" cx="1021.19" cy="-90" rx="66.0889" ry="18"/>
<text text-anchor="middle" x="1021.19" y="-86.3" font-family="Times,serif" font-size="14.00">Christianity</text>
</a>
</g>
</g>
<!-- X4e4b1&#45;&gt;Xadf16 -->
<g id="edge4" class="edge"><title>X4e4b1&#45;&gt;Xadf16</title>
<path fill="none" stroke="black" d="M1021.19,-143.697C1021.19,-135.983 1021.19,-126.712 1021.19,-118.112"/>
<polygon fill="black" stroke="black" points="1024.69,-118.104 1021.19,-108.104 1017.69,-118.104 1024.69,-118.104"/>
</g>
<!-- Xb2336 -->
<g id="node11" class="node"><title>Xb2336</title>
<g id="a_node11"><a xlink:href="http://sparql.cwrc.ca/ontologies/cwrc#abrahamicReligions" xlink:title="Abrahamic religions" target="_parent">
<ellipse fill="none" stroke="black" cx="1278.19" cy="-18" rx="104.782" ry="18"/>
<text text-anchor="middle" x="1278.19" y="-14.3" font-family="Times,serif" font-size="14.00">Abrahamic religions</text>
</a>
</g>
</g>
<!-- Xadf16&#45;&gt;Xb2336 -->
<g id="edge9" class="edge"><title>Xadf16&#45;&gt;Xb2336</title>
<path fill="none" stroke="black" d="M1066.25,-76.7268C1107.42,-65.5121 1168.73,-48.8129 1214.83,-36.2563"/>
<polygon fill="black" stroke="black" points="1215.99,-39.568 1224.72,-33.563 1214.15,-32.8141 1215.99,-39.568"/>
</g>
<!-- Xc7ed9 -->
<g id="node17" class="node"><title>Xc7ed9</title>
<g id="a_node17"><a xlink:href="http://sparql.cwrc.ca/ontologies/cwrc#hinduism" xlink:title="Hinduism" target="_parent">
<ellipse fill="none" stroke="black" cx="122.189" cy="-306" rx="55.7903" ry="18"/>
<text text-anchor="middle" x="122.189" y="-302.3" font-family="Times,serif" font-size="14.00">Hinduism</text>
</a>
</g>
</g>
<!-- X43c0c&#45;&gt;Xc7ed9 -->
<!-- Xb800b -->
<g id="node8" class="node"><title>Xb800b</title>
<g id="a_node8"><a xlink:href="http://sparql.cwrc.ca/ontologies/cwrc#tractarianMovement" xlink:title="Tractarian Movement" target="_parent">
<ellipse fill="none" stroke="black" cx="645.189" cy="-234" rx="112.38" ry="18"/>
<text text-anchor="middle" x="645.189" y="-230.3" font-family="Times,serif" font-size="14.00">Tractarian Movement</text>
</a>
</g>
</g>
<!-- Xf6f10 -->
<g id="node9" class="node"><title>Xf6f10</title>
<g id="a_node9"><a xlink:href="http://sparql.cwrc.ca/ontologies/cwrc#anglicanism" xlink:title="Anglicanism" target="_parent">
<ellipse fill="none" stroke="black" cx="575.189" cy="-162" rx="68.4888" ry="18"/>
<text text-anchor="middle" x="575.189" y="-158.3" font-family="Times,serif" font-size="14.00">Anglicanism</text>
</a>
</g>
</g>
<!-- Xb800b&#45;&gt;Xf6f10 -->
<g id="edge6" class="edge"><title>Xb800b&#45;&gt;Xf6f10</title>
<path fill="none" stroke="black" d="M628.244,-216.055C619.56,-207.371 608.834,-196.644 599.303,-187.114"/>
<polygon fill="black" stroke="black" points="601.524,-184.385 591.978,-179.789 596.574,-189.335 601.524,-184.385"/>
</g>
<!-- Xf6f10&#45;&gt;Xadf16 -->
<g id="edge7" class="edge"><title>Xf6f10&#45;&gt;Xadf16</title>
<path fill="none" stroke="black" d="M632.128,-152.063C714.805,-139.087 867.737,-115.084 955.216,-101.355"/>
<polygon fill="black" stroke="black" points="955.954,-104.782 965.29,-99.7734 954.868,-97.8663 955.954,-104.782"/>
</g>
<!-- X156db -->
<g id="node10" class="node"><title>X156db</title>
<g id="a_node10"><a xlink:href="http://sparql.cwrc.ca/ontologies/cwrc#dissentProtestant" xlink:title="Dissent (Protestant)" target="_parent">
<ellipse fill="none" stroke="black" cx="372.189" cy="-306" rx="104.782" ry="18"/>
<text text-anchor="middle" x="372.189" y="-302.3" font-family="Times,serif" font-size="14.00">Dissent (Protestant)</text>
</a>
</g>
</g>
<!-- X156db&#45;&gt;Xf6f10 -->
<g id="edge8" class="edge"><title>X156db&#45;&gt;Xf6f10</title>
<path fill="none" stroke="black" d="M393.743,-288.069C417.296,-269.759 456.33,-239.978 491.189,-216 507.103,-205.054 525.173,-193.539 540.466,-184.05"/>
<polygon fill="black" stroke="black" points="542.438,-186.946 549.111,-178.716 538.763,-180.988 542.438,-186.946"/>
</g>
<!-- X043aa -->
<g id="node12" class="node"><title>X043aa</title>
<g id="a_node12"><a xlink:href="http://sparql.cwrc.ca/ontologies/cwrc#unitarianism" xlink:title="Unitarianism" target="_parent">
<ellipse fill="none" stroke="black" cx="884.189" cy="-234" rx="71.4873" ry="18"/>
<text text-anchor="middle" x="884.189" y="-230.3" font-family="Times,serif" font-size="14.00">Unitarianism</text>
</a>
</g>
</g>
<!-- X043aa&#45;&gt;X4e4b1 -->
<g id="edge10" class="edge"><title>X043aa&#45;&gt;X4e4b1</title>
<path fill="none" stroke="black" d="M914.254,-217.638C934.015,-207.542 960.084,-194.221 981.536,-183.261"/>
<polygon fill="black" stroke="black" points="983.408,-186.235 990.721,-178.568 980.223,-180.001 983.408,-186.235"/>
</g>
<!-- X0e2fa -->
<g id="node13" class="node"><title>X0e2fa</title>
<g id="a_node13"><a xlink:href="http://sparql.cwrc.ca/ontologies/cwrc#presbyterianism" xlink:title="Presbyterianism" target="_parent">
<ellipse fill="none" stroke="black" cx="906.189" cy="-306" rx="87.1846" ry="18"/>
<text text-anchor="middle" x="906.189" y="-302.3" font-family="Times,serif" font-size="14.00">Presbyterianism</text>
</a>
</g>
</g>
<!-- X0e2fa&#45;&gt;X4e4b1 -->
<g id="edge11" class="edge"><title>X0e2fa&#45;&gt;X4e4b1</title>
<path fill="none" stroke="black" d="M927.028,-288.282C938.667,-278.397 953.029,-265.249 964.189,-252 980.875,-232.191 996.489,-207.169 1007.14,-188.705"/>
<polygon fill="black" stroke="black" points="1010.21,-190.39 1012.1,-179.965 1004.12,-186.938 1010.21,-190.39"/>
</g>
<!-- Xe7b0a -->
<g id="node14" class="node"><title>Xe7b0a</title>
<g id="a_node14"><a xlink:href="http://sparql.cwrc.ca/ontologies/cwrc#neo-thomism" xlink:title="Neo&#45;thomism" target="_parent">
<ellipse fill="none" stroke="black" cx="1198.19" cy="-450" rx="73.387" ry="18"/>
<text text-anchor="middle" x="1198.19" y="-446.3" font-family="Times,serif" font-size="14.00">Neo&#45;thomism</text>
</a>
</g>
</g>
<!-- X752f2 -->
<g id="node15" class="node"><title>X752f2</title>
<ellipse fill="none" stroke="black" cx="1248.19" cy="-378" rx="44.393" ry="18"/>
<text text-anchor="middle" x="1248.19" y="-374.3" font-family="Times,serif" font-size="14.00">X752f2</text>
</g>
<!-- Xe7b0a&#45;&gt;X752f2 -->
<g id="edge12" class="edge"><title>Xe7b0a&#45;&gt;X752f2</title>
<path fill="none" stroke="black" d="M1210.29,-432.055C1216.31,-423.629 1223.7,-413.28 1230.36,-403.966"/>
<polygon fill="black" stroke="black" points="1233.23,-405.961 1236.2,-395.789 1227.54,-401.892 1233.23,-405.961"/>
</g>
<!-- Xd53bc -->
<g id="node16" class="node"><title>Xd53bc</title>
<g id="a_node16"><a xlink:href="http://sparql.cwrc.ca/ontologies/cwrc#baptistChristianity" xlink:title="Baptist Christianity" target="_parent">
<ellipse fill="none" stroke="black" cx="928.189" cy="-378" rx="102.882" ry="18"/>
<text text-anchor="middle" x="928.189" y="-374.3" font-family="Times,serif" font-size="14.00">Baptist Christianity</text>
</a>
</g>
</g>
<!-- Xd53bc&#45;&gt;X4e4b1 -->
<g id="edge13" class="edge"><title>Xd53bc&#45;&gt;X4e4b1</title>
<path fill="none" stroke="black" d="M962.015,-360.947C976.801,-352.147 992.869,-339.785 1002.19,-324 1026.72,-282.449 1026.92,-224.342 1024.37,-190.49"/>
<polygon fill="black" stroke="black" points="1027.84,-190.055 1023.47,-180.404 1020.87,-190.674 1027.84,-190.055"/>
</g>
<!-- X7152e -->
<g id="node18" class="node"><title>X7152e</title>
<g id="a_node18"><a xlink:href="http://sparql.cwrc.ca/ontologies/cwrc#atheism" xlink:title="Atheism" target="_parent">
<ellipse fill="none" stroke="black" cx="122.189" cy="-234" rx="49.2915" ry="18"/>
<text text-anchor="middle" x="122.189" y="-230.3" font-family="Times,serif" font-size="14.00">Atheism</text>
</a>
</g>
</g>
<!-- Xc7ed9&#45;&gt;X7152e -->
<!-- X36b94 -->
<g id="node19" class="node"><title>X36b94</title>
<g id="a_node19"><a xlink:href="http://sparql.cwrc.ca/ontologies/cwrc#agnosticism" xlink:title="Agnosticism" target="_parent">
<ellipse fill="none" stroke="black" cx="122.189" cy="-162" rx="68.4888" ry="18"/>
<text text-anchor="middle" x="122.189" y="-158.3" font-family="Times,serif" font-size="14.00">Agnosticism</text>
</a>
</g>
</g>
<!-- X7152e&#45;&gt;X36b94 -->
<!-- X3b80a -->
<g id="node23" class="node"><title>X3b80a</title>
<g id="a_node23"><a xlink:href="http://sparql.cwrc.ca/ontologies/cwrc#buddhism" xlink:title="Buddhism" target="_parent">
<ellipse fill="none" stroke="black" cx="122.189" cy="-90" rx="57.6901" ry="18"/>
<text text-anchor="middle" x="122.189" y="-86.3" font-family="Times,serif" font-size="14.00">Buddhism</text>
</a>
</g>
</g>
<!-- X36b94&#45;&gt;X3b80a -->
<!-- Xe1e3e -->
<g id="node20" class="node"><title>Xe1e3e</title>
<g id="a_node20"><a xlink:href="http://sparql.cwrc.ca/ontologies/cwrc#methodism" xlink:title="Methodism" target="_parent">
<ellipse fill="none" stroke="black" cx="1005.19" cy="-450" rx="63.8893" ry="18"/>
<text text-anchor="middle" x="1005.19" y="-446.3" font-family="Times,serif" font-size="14.00">Methodism</text>
</a>
</g>
</g>
<!-- Xe1e3e&#45;&gt;X4e4b1 -->
<g id="edge17" class="edge"><title>Xe1e3e&#45;&gt;X4e4b1</title>
<path fill="none" stroke="black" d="M1020.01,-432.173C1027.65,-422.353 1036.19,-409.306 1040.19,-396 1046.9,-373.648 1064.6,-366.606 1039.19,-216 1037.72,-207.28 1035.02,-198.063 1032.15,-189.803"/>
<polygon fill="black" stroke="black" points="1035.39,-188.467 1028.64,-180.301 1028.82,-190.894 1035.39,-188.467"/>
</g>
<!-- X6f203 -->
<g id="node21" class="node"><title>X6f203</title>
<g id="a_node21"><a xlink:href="http://sparql.cwrc.ca/ontologies/cwrc#christianScience" xlink:title="Christian Science" target="_parent">
<ellipse fill="none" stroke="black" cx="1319.19" cy="-162" rx="92.8835" ry="18"/>
<text text-anchor="middle" x="1319.19" y="-158.3" font-family="Times,serif" font-size="14.00">Christian Science</text>
</a>
</g>
</g>
<!-- X6f203&#45;&gt;Xadf16 -->
<g id="edge18" class="edge"><title>X6f203&#45;&gt;Xadf16</title>
<path fill="none" stroke="black" d="M1262.44,-147.669C1210.08,-135.371 1132.68,-117.189 1079.76,-104.758"/>
<polygon fill="black" stroke="black" points="1080.38,-101.308 1069.84,-102.429 1078.78,-108.123 1080.38,-101.308"/>
</g>
<!-- X1cc79 -->
<g id="node22" class="node"><title>X1cc79</title>
<g id="a_node22"><a xlink:href="http://sparql.cwrc.ca/ontologies/cwrc#lollardy" xlink:title="Lollardy" target="_parent">
<ellipse fill="none" stroke="black" cx="1299.19" cy="-522" rx="49.2915" ry="18"/>
<text text-anchor="middle" x="1299.19" y="-518.3" font-family="Times,serif" font-size="14.00">Lollardy</text>
</a>
</g>
</g>
<!-- X1cc79&#45;&gt;X752f2 -->
<g id="edge19" class="edge"><title>X1cc79&#45;&gt;X752f2</title>
<path fill="none" stroke="black" d="M1297.24,-503.778C1294.78,-485.481 1289.66,-455.947 1280.19,-432 1276.37,-422.357 1270.89,-412.454 1265.53,-403.857"/>
<polygon fill="black" stroke="black" points="1268.45,-401.925 1260.08,-395.436 1262.58,-405.732 1268.45,-401.925"/>
</g>
<!-- X37200 -->
<g id="node32" class="node"><title>X37200</title>
<g id="a_node32"><a xlink:href="http://sparql.cwrc.ca/ontologies/cwrc#paganism" xlink:title="Paganism" target="_parent">
<ellipse fill="none" stroke="black" cx="122.189" cy="-18" rx="55.7903" ry="18"/>
<text text-anchor="middle" x="122.189" y="-14.3" font-family="Times,serif" font-size="14.00">Paganism</text>
</a>
</g>
</g>
<!-- X3b80a&#45;&gt;X37200 -->
<!-- X7477d -->
<g id="node24" class="node"><title>X7477d</title>
<g id="a_node24"><a xlink:href="http://sparql.cwrc.ca/ontologies/cwrc#congregationalism" xlink:title="Congregationalism" target="_parent">
<ellipse fill="none" stroke="black" cx="1097.19" cy="-522" rx="98.5829" ry="18"/>
<text text-anchor="middle" x="1097.19" y="-518.3" font-family="Times,serif" font-size="14.00">Congregationalism</text>
</a>
</g>
</g>
<!-- X7477d&#45;&gt;X4e4b1 -->
<g id="edge21" class="edge"><title>X7477d&#45;&gt;X4e4b1</title>
<path fill="none" stroke="black" d="M1097.19,-503.951C1097.19,-477.292 1097.19,-424.115 1097.19,-379 1097.19,-379 1097.19,-379 1097.19,-305 1097.19,-259.388 1066.33,-214.248 1043.94,-187.498"/>
<polygon fill="black" stroke="black" points="1046.49,-185.094 1037.31,-179.807 1041.19,-189.665 1046.49,-185.094"/>
</g>
<!-- Xc1422 -->
<g id="node25" class="node"><title>Xc1422</title>
<g id="a_node25"><a xlink:href="http://sparql.cwrc.ca/ontologies/cwrc#islam" xlink:title="Islamism" target="_parent">
<ellipse fill="none" stroke="black" cx="1278.19" cy="-90" rx="53.0913" ry="18"/>
<text text-anchor="middle" x="1278.19" y="-86.3" font-family="Times,serif" font-size="14.00">Islamism</text>
</a>
</g>
</g>
<!-- Xc1422&#45;&gt;Xb2336 -->
<g id="edge22" class="edge"><title>Xc1422&#45;&gt;Xb2336</title>
<path fill="none" stroke="black" d="M1278.19,-71.6966C1278.19,-63.9827 1278.19,-54.7125 1278.19,-46.1124"/>
<polygon fill="black" stroke="black" points="1281.69,-46.1043 1278.19,-36.1043 1274.69,-46.1044 1281.69,-46.1043"/>
</g>
<!-- Xd32ac -->
<g id="node26" class="node"><title>Xd32ac</title>
<g id="a_node26"><a xlink:href="http://sparql.cwrc.ca/ontologies/cwrc#judaism" xlink:title="Judaism" target="_parent">
<ellipse fill="none" stroke="black" cx="1478.19" cy="-162" rx="48.1917" ry="18"/>
<text text-anchor="middle" x="1478.19" y="-158.3" font-family="Times,serif" font-size="14.00">Judaism</text>
</a>
</g>
</g>
<!-- Xd32ac&#45;&gt;Xb2336 -->
<g id="edge23" class="edge"><title>Xd32ac&#45;&gt;Xb2336</title>
<path fill="none" stroke="black" d="M1456.79,-145.804C1421.51,-120.755 1350.97,-70.6737 1309.89,-41.5053"/>
<polygon fill="black" stroke="black" points="1311.77,-38.5505 1301.59,-35.6151 1307.72,-44.2582 1311.77,-38.5505"/>
</g>
<!-- X2a5d0 -->
<g id="node27" class="node"><title>X2a5d0</title>
<g id="a_node27"><a xlink:href="http://sparql.cwrc.ca/ontologies/cwrc#churchOfIreland" xlink:title="Church of Ireland" target="_parent">
<ellipse fill="none" stroke="black" cx="505.189" cy="-378" rx="93.6835" ry="18"/>
<text text-anchor="middle" x="505.189" y="-374.3" font-family="Times,serif" font-size="14.00">Church of Ireland</text>
</a>
</g>
</g>
<!-- X2a5d0&#45;&gt;Xf6f10 -->
<g id="edge24" class="edge"><title>X2a5d0&#45;&gt;Xf6f10</title>
<path fill="none" stroke="black" d="M503.738,-359.57C501.927,-328.925 501.444,-264.087 524.189,-216 529.426,-204.929 537.897,-194.715 546.443,-186.269"/>
<polygon fill="black" stroke="black" points="548.965,-188.703 553.894,-179.325 544.193,-183.582 548.965,-188.703"/>
</g>
<!-- X8fa8b -->
<g id="node28" class="node"><title>X8fa8b</title>
<g id="a_node28"><a xlink:href="http://sparql.cwrc.ca/ontologies/cwrc#plymouthBrethren" xlink:title="Plymouth Brethren" target="_parent">
<ellipse fill="none" stroke="black" cx="1225.19" cy="-234" rx="100.182" ry="18"/>
<text text-anchor="middle" x="1225.19" y="-230.3" font-family="Times,serif" font-size="14.00">Plymouth Brethren</text>
</a>
</g>
</g>
<!-- X8fa8b&#45;&gt;X4e4b1 -->
<g id="edge25" class="edge"><title>X8fa8b&#45;&gt;X4e4b1</title>
<path fill="none" stroke="black" d="M1180.92,-217.811C1148.93,-206.832 1105.63,-191.974 1072.18,-180.498"/>
<polygon fill="black" stroke="black" points="1073.18,-177.14 1062.59,-177.205 1070.91,-183.761 1073.18,-177.14"/>
</g>
<!-- Xb45be -->
<g id="node29" class="node"><title>Xb45be</title>
<g id="a_node29"><a xlink:href="http://sparql.cwrc.ca/ontologies/cwrc#millenarianism" xlink:title="Millenarianism" target="_parent">
<ellipse fill="none" stroke="black" cx="1625.19" cy="-162" rx="81.4863" ry="18"/>
<text text-anchor="middle" x="1625.19" y="-158.3" font-family="Times,serif" font-size="14.00">Millenarianism</text>
</a>
</g>
</g>
<!-- Xd2614 -->
<g id="node30" class="node"><title>Xd2614</title>
<g id="a_node30"><a xlink:href="http://sparql.cwrc.ca/ontologies/cwrc#fifthMonarchists" xlink:title="Fifth Monarchists" target="_parent">
<ellipse fill="none" stroke="black" cx="1603.19" cy="-234" rx="94.7833" ry="18"/>
<text text-anchor="middle" x="1603.19" y="-230.3" font-family="Times,serif" font-size="14.00">Fifth Monarchists</text>
</a>
</g>
</g>
<!-- Xd2614&#45;&gt;X991c3 -->
<g id="edge26" class="edge"><title>Xd2614&#45;&gt;X991c3</title>
<path fill="none" stroke="black" d="M1528.32,-222.876C1418.21,-207.966 1224.73,-181.672 1217.19,-180 1213.51,-179.184 1209.72,-178.24 1205.93,-177.222"/>
<polygon fill="black" stroke="black" points="1206.57,-173.764 1195.99,-174.397 1204.65,-180.497 1206.57,-173.764"/>
</g>
<!-- Xd2614&#45;&gt;Xb45be -->
<g id="edge27" class="edge"><title>Xd2614&#45;&gt;Xb45be</title>
<path fill="none" stroke="black" d="M1608.63,-215.697C1611.08,-207.898 1614.03,-198.509 1616.76,-189.829"/>
<polygon fill="black" stroke="black" points="1620.15,-190.694 1619.81,-180.104 1613.48,-188.595 1620.15,-190.694"/>
</g>
<!-- X32f53 -->
<g id="node31" class="node"><title>X32f53</title>
<g id="a_node31"><a xlink:href="http://sparql.cwrc.ca/ontologies/cwrc#catholicism" xlink:title="Roman Catholicism" target="_parent">
<ellipse fill="none" stroke="black" cx="291.189" cy="-234" rx="101.282" ry="18"/>
<text text-anchor="middle" x="291.189" y="-230.3" font-family="Times,serif" font-size="14.00">Roman Catholicism</text>
</a>
</g>
</g>
<!-- X32f53&#45;&gt;Xadf16 -->
<g id="edge28" class="edge"><title>X32f53&#45;&gt;Xadf16</title>
<path fill="none" stroke="black" d="M321.017,-216.71C360.349,-196.053 432.299,-161.072 498.189,-144 653.37,-103.792 841.82,-93.8091 944.828,-91.5032"/>
<polygon fill="black" stroke="black" points="944.904,-95.0025 954.83,-91.2975 944.76,-88.0039 944.904,-95.0025"/>
</g>
<!-- X9deb8 -->
<g id="node33" class="node"><title>X9deb8</title>
<g id="a_node33"><a xlink:href="http://sparql.cwrc.ca/ontologies/cwrc#dissentingChristianity" xlink:title="Dissenting Christianity" target="_parent">
<ellipse fill="none" stroke="black" cx="682.189" cy="-306" rx="118.879" ry="18"/>
<text text-anchor="middle" x="682.189" y="-302.3" font-family="Times,serif" font-size="14.00">Dissenting Christianity</text>
</a>
</g>
</g>
<!-- X9deb8&#45;&gt;X4e4b1 -->
<g id="edge30" class="edge"><title>X9deb8&#45;&gt;X4e4b1</title>
<path fill="none" stroke="black" d="M711.509,-288.426C728.089,-278.586 748.897,-265.438 766.189,-252 784.559,-237.725 783.761,-227.132 804.189,-216 846.906,-192.721 899.864,-179.53 942.769,-172.13"/>
<polygon fill="black" stroke="black" points="943.588,-175.543 952.884,-170.46 942.447,-168.636 943.588,-175.543"/>
</g>
</g>
</svg>
