<?xml version="1.0" encoding="UTF-8" standalone="no"?>
<!DOCTYPE svg PUBLIC "-//W3C//DTD SVG 1.1//EN"
 "http://www.w3.org/Graphics/SVG/1.1/DTD/svg11.dtd">
<!-- Generated by graphviz version 2.38.0 (20140413.2041)
 -->
<!-- Title: ReligionGraph Pages: 1 -->
<svg width="1965pt" height="548pt"
 viewBox="0.00 0.00 1964.79 548.00" xmlns="http://www.w3.org/2000/svg" xmlns:xlink="http://www.w3.org/1999/xlink">
<g id="graph0" class="graph" transform="scale(1 1) rotate(0) translate(4 544)">
<title>ReligionGraph</title>
<polygon fill="white" stroke="none" points="-4,4 -4,-544 1960.79,-544 1960.79,4 -4,4"/>
<!-- X9deb8 -->
<g id="node1" class="node"><title>X9deb8</title>
<g id="a_node1"><a xlink:href="http://sparql.cwrc.ca/ontologies/cwrc#dissentingChristianity" xlink:title="Dissenting Christianity" target="_parent">
<ellipse fill="none" stroke="black" cx="732.391" cy="-234" rx="118.879" ry="18"/>
<text text-anchor="middle" x="732.391" y="-230.3" font-family="Times,serif" font-size="14.00">Dissenting Christianity</text>
</a>
</g>
</g>
<!-- X4e4b1 -->
<g id="node2" class="node"><title>X4e4b1</title>
<g id="a_node2"><a xlink:href="http://sparql.cwrc.ca/ontologies/cwrc#protestantism" xlink:title="Protestantism" target="_parent">
<ellipse fill="none" stroke="black" cx="898.391" cy="-162" rx="76.8869" ry="18"/>
<text text-anchor="middle" x="898.391" y="-158.3" font-family="Times,serif" font-size="14.00">Protestantism</text>
</a>
</g>
</g>
<!-- X9deb8&#45;&gt;X4e4b1 -->
<g id="edge1" class="edge"><title>X9deb8&#45;&gt;X4e4b1</title>
<path fill="none" stroke="black" d="M770.475,-216.941C795.198,-206.515 827.529,-192.882 853.501,-181.93"/>
<polygon fill="black" stroke="black" points="854.902,-185.137 862.756,-178.027 852.182,-178.687 854.902,-185.137"/>
</g>
<!-- Xadf16 -->
<g id="node3" class="node"><title>Xadf16</title>
<g id="a_node3"><a xlink:href="http://sparql.cwrc.ca/ontologies/cwrc#christianity" xlink:title="Christianity" target="_parent">
<ellipse fill="none" stroke="black" cx="661.391" cy="-90" rx="66.0889" ry="18"/>
<text text-anchor="middle" x="661.391" y="-86.3" font-family="Times,serif" font-size="14.00">Christianity</text>
</a>
</g>
</g>
<!-- X4e4b1&#45;&gt;Xadf16 -->
<g id="edge2" class="edge"><title>X4e4b1&#45;&gt;Xadf16</title>
<path fill="none" stroke="black" d="M852.695,-147.503C813.095,-135.807 755.786,-118.88 714.225,-106.605"/>
<polygon fill="black" stroke="black" points="715.132,-103.224 704.55,-103.748 713.149,-109.937 715.132,-103.224"/>
</g>
<!-- Xb2336 -->
<g id="node7" class="node"><title>Xb2336</title>
<g id="a_node7"><a xlink:href="http://sparql.cwrc.ca/ontologies/cwrc#abrahamicReligions" xlink:title="Abrahamic religions" target="_parent">
<ellipse fill="none" stroke="black" cx="882.391" cy="-18" rx="104.782" ry="18"/>
<text text-anchor="middle" x="882.391" y="-14.3" font-family="Times,serif" font-size="14.00">Abrahamic religions</text>
</a>
</g>
</g>
<!-- Xadf16&#45;&gt;Xb2336 -->
<g id="edge5" class="edge"><title>Xadf16&#45;&gt;Xb2336</title>
<path fill="none" stroke="black" d="M702.7,-75.9157C737.105,-65.0181 786.485,-49.3774 824.777,-37.2488"/>
<polygon fill="black" stroke="black" points="826.282,-40.4436 834.758,-34.0873 824.168,-33.7703 826.282,-40.4436"/>
</g>
<!-- X43c0c -->
<g id="node4" class="node"><title>X43c0c</title>
<g id="a_node4"><a xlink:href="http://sparql.cwrc.ca/ontologies/cwrc#occultism" xlink:title="Occultism/Theosophism" target="_parent">
<ellipse fill="none" stroke="black" cx="1647.39" cy="-522" rx="122.379" ry="18"/>
<text text-anchor="middle" x="1647.39" y="-518.3" font-family="Times,serif" font-size="14.00">Occultism/Theosophism</text>
</a>
</g>
</g>
<!-- Xd35c6 -->
<g id="node5" class="node"><title>Xd35c6</title>
<g id="a_node5"><a xlink:href="http://sparql.cwrc.ca/ontologies/cwrc#spiritualism" xlink:title="Spiritualism" target="_parent">
<ellipse fill="none" stroke="black" cx="1647.39" cy="-450" rx="67.6881" ry="18"/>
<text text-anchor="middle" x="1647.39" y="-446.3" font-family="Times,serif" font-size="14.00">Spiritualism</text>
</a>
</g>
</g>
<!-- X43c0c&#45;&gt;Xd35c6 -->
<!-- X36b94 -->
<g id="node9" class="node"><title>X36b94</title>
<g id="a_node9"><a xlink:href="http://sparql.cwrc.ca/ontologies/cwrc#agnosticism" xlink:title="Agnosticism" target="_parent">
<ellipse fill="none" stroke="black" cx="1647.39" cy="-378" rx="68.4888" ry="18"/>
<text text-anchor="middle" x="1647.39" y="-374.3" font-family="Times,serif" font-size="14.00">Agnosticism</text>
</a>
</g>
</g>
<!-- Xd35c6&#45;&gt;X36b94 -->
<!-- X6f203 -->
<g id="node6" class="node"><title>X6f203</title>
<g id="a_node6"><a xlink:href="http://sparql.cwrc.ca/ontologies/cwrc#christianScience" xlink:title="Christian Science" target="_parent">
<ellipse fill="none" stroke="black" cx="661.391" cy="-162" rx="92.8835" ry="18"/>
<text text-anchor="middle" x="661.391" y="-158.3" font-family="Times,serif" font-size="14.00">Christian Science</text>
</a>
</g>
</g>
<!-- X6f203&#45;&gt;Xadf16 -->
<g id="edge4" class="edge"><title>X6f203&#45;&gt;Xadf16</title>
<path fill="none" stroke="black" d="M661.391,-143.697C661.391,-135.983 661.391,-126.712 661.391,-118.112"/>
<polygon fill="black" stroke="black" points="664.891,-118.104 661.391,-108.104 657.891,-118.104 664.891,-118.104"/>
</g>
<!-- X8fa8b -->
<g id="node8" class="node"><title>X8fa8b</title>
<g id="a_node8"><a xlink:href="http://sparql.cwrc.ca/ontologies/cwrc#plymouthBrethren" xlink:title="Plymouth Brethren" target="_parent">
<ellipse fill="none" stroke="black" cx="789.391" cy="-306" rx="100.182" ry="18"/>
<text text-anchor="middle" x="789.391" y="-302.3" font-family="Times,serif" font-size="14.00">Plymouth Brethren</text>
</a>
</g>
</g>
<!-- X8fa8b&#45;&gt;X4e4b1 -->
<g id="edge6" class="edge"><title>X8fa8b&#45;&gt;X4e4b1</title>
<path fill="none" stroke="black" d="M818.2,-288.533C832.393,-279.269 848.884,-266.629 860.391,-252 874.94,-233.505 884.944,-208.607 891.021,-189.848"/>
<polygon fill="black" stroke="black" points="894.413,-190.725 893.997,-180.138 887.72,-188.673 894.413,-190.725"/>
</g>
<!-- Xc7ed9 -->
<g id="node13" class="node"><title>Xc7ed9</title>
<g id="a_node13"><a xlink:href="http://sparql.cwrc.ca/ontologies/cwrc#hinduism" xlink:title="Hinduism" target="_parent">
<ellipse fill="none" stroke="black" cx="1647.39" cy="-306" rx="55.7903" ry="18"/>
<text text-anchor="middle" x="1647.39" y="-302.3" font-family="Times,serif" font-size="14.00">Hinduism</text>
</a>
</g>
</g>
<!-- X36b94&#45;&gt;Xc7ed9 -->
<!-- Xe1e3e -->
<g id="node10" class="node"><title>Xe1e3e</title>
<g id="a_node10"><a xlink:href="http://sparql.cwrc.ca/ontologies/cwrc#methodism" xlink:title="Methodism" target="_parent">
<ellipse fill="none" stroke="black" cx="863.391" cy="-378" rx="63.8893" ry="18"/>
<text text-anchor="middle" x="863.391" y="-374.3" font-family="Times,serif" font-size="14.00">Methodism</text>
</a>
</g>
</g>
<!-- Xe1e3e&#45;&gt;X4e4b1 -->
<g id="edge8" class="edge"><title>Xe1e3e&#45;&gt;X4e4b1</title>
<path fill="none" stroke="black" d="M878.209,-360.173C885.853,-350.353 894.394,-337.306 898.391,-324 911.973,-278.784 907.633,-223.147 903.107,-190.524"/>
<polygon fill="black" stroke="black" points="906.532,-189.763 901.591,-180.391 899.609,-190.799 906.532,-189.763"/>
</g>
<!-- X253de -->
<g id="node11" class="node"><title>X253de</title>
<g id="a_node11"><a xlink:href="http://sparql.cwrc.ca/ontologies/cwrc#quakerism" xlink:title="Quakerism" target="_parent">
<ellipse fill="none" stroke="black" cx="1299.39" cy="-234" rx="61.99" ry="18"/>
<text text-anchor="middle" x="1299.39" y="-230.3" font-family="Times,serif" font-size="14.00">Quakerism</text>
</a>
</g>
</g>
<!-- X253de&#45;&gt;X4e4b1 -->
<g id="edge9" class="edge"><title>X253de&#45;&gt;X4e4b1</title>
<path fill="none" stroke="black" d="M1254.45,-221.605C1245.83,-219.6 1236.85,-217.634 1228.39,-216 1120.76,-195.217 1092.41,-198.634 984.391,-180 977.841,-178.87 971.023,-177.631 964.219,-176.353"/>
<polygon fill="black" stroke="black" points="964.772,-172.895 954.294,-174.46 963.461,-179.771 964.772,-172.895"/>
</g>
<!-- X991c3 -->
<g id="node12" class="node"><title>X991c3</title>
<ellipse fill="none" stroke="black" cx="1314.39" cy="-162" rx="46.2923" ry="18"/>
<text text-anchor="middle" x="1314.39" y="-158.3" font-family="Times,serif" font-size="14.00">X991c3</text>
</g>
<!-- X253de&#45;&gt;X991c3 -->
<g id="edge10" class="edge"><title>X253de&#45;&gt;X991c3</title>
<path fill="none" stroke="black" d="M1303.1,-215.697C1304.75,-207.983 1306.74,-198.712 1308.58,-190.112"/>
<polygon fill="black" stroke="black" points="1312.05,-190.616 1310.73,-180.104 1305.21,-189.149 1312.05,-190.616"/>
</g>
<!-- X930a7 -->
<g id="node14" class="node"><title>X930a7</title>
<g id="a_node14"><a xlink:href="http://sparql.cwrc.ca/ontologies/cwrc#Pantheism" xlink:title="Pantheism" target="_parent">
<ellipse fill="none" stroke="black" cx="1647.39" cy="-234" rx="59.5901" ry="18"/>
<text text-anchor="middle" x="1647.39" y="-230.3" font-family="Times,serif" font-size="14.00">Pantheism</text>
</a>
</g>
</g>
<!-- Xc7ed9&#45;&gt;X930a7 -->
<!-- X37200 -->
<g id="node16" class="node"><title>X37200</title>
<g id="a_node16"><a xlink:href="http://sparql.cwrc.ca/ontologies/cwrc#paganism" xlink:title="Paganism" target="_parent">
<ellipse fill="none" stroke="black" cx="1647.39" cy="-162" rx="55.7903" ry="18"/>
<text text-anchor="middle" x="1647.39" y="-158.3" font-family="Times,serif" font-size="14.00">Paganism</text>
</a>
</g>
</g>
<!-- X930a7&#45;&gt;X37200 -->
<!-- X0e2fa -->
<g id="node15" class="node"><title>X0e2fa</title>
<g id="a_node15"><a xlink:href="http://sparql.cwrc.ca/ontologies/cwrc#presbyterianism" xlink:title="Presbyterianism" target="_parent">
<ellipse fill="none" stroke="black" cx="878.391" cy="-450" rx="87.1846" ry="18"/>
<text text-anchor="middle" x="878.391" y="-446.3" font-family="Times,serif" font-size="14.00">Presbyterianism</text>
</a>
</g>
</g>
<!-- X0e2fa&#45;&gt;X4e4b1 -->
<g id="edge13" class="edge"><title>X0e2fa&#45;&gt;X4e4b1</title>
<path fill="none" stroke="black" d="M904.516,-432.7C916.632,-423.559 929.788,-410.978 936.391,-396 967.362,-325.744 932.658,-233.543 911.812,-189.135"/>
<polygon fill="black" stroke="black" points="914.856,-187.39 907.354,-179.909 908.553,-190.436 914.856,-187.39"/>
</g>
<!-- X3b80a -->
<g id="node20" class="node"><title>X3b80a</title>
<g id="a_node20"><a xlink:href="http://sparql.cwrc.ca/ontologies/cwrc#buddhism" xlink:title="Buddhism" target="_parent">
<ellipse fill="none" stroke="black" cx="1647.39" cy="-90" rx="57.6901" ry="18"/>
<text text-anchor="middle" x="1647.39" y="-86.3" font-family="Times,serif" font-size="14.00">Buddhism</text>
</a>
</g>
</g>
<!-- X37200&#45;&gt;X3b80a -->
<!-- Xf6f10 -->
<g id="node17" class="node"><title>Xf6f10</title>
<g id="a_node17"><a xlink:href="http://sparql.cwrc.ca/ontologies/cwrc#anglicanism" xlink:title="Anglicanism" target="_parent">
<ellipse fill="none" stroke="black" cx="386.391" cy="-162" rx="68.4888" ry="18"/>
<text text-anchor="middle" x="386.391" y="-158.3" font-family="Times,serif" font-size="14.00">Anglicanism</text>
</a>
</g>
</g>
<!-- Xf6f10&#45;&gt;Xadf16 -->
<g id="edge15" class="edge"><title>Xf6f10&#45;&gt;Xadf16</title>
<path fill="none" stroke="black" d="M433.665,-148.967C481.175,-136.873 554.416,-118.23 604.945,-105.368"/>
<polygon fill="black" stroke="black" points="605.906,-108.735 614.734,-102.876 604.179,-101.951 605.906,-108.735"/>
</g>
<!-- Xe7b0a -->
<g id="node18" class="node"><title>Xe7b0a</title>
<g id="a_node18"><a xlink:href="http://sparql.cwrc.ca/ontologies/cwrc#neo-thomism" xlink:title="Neo&#45;thomism" target="_parent">
<ellipse fill="none" stroke="black" cx="1806.39" cy="-450" rx="73.387" ry="18"/>
<text text-anchor="middle" x="1806.39" y="-446.3" font-family="Times,serif" font-size="14.00">Neo&#45;thomism</text>
</a>
</g>
</g>
<!-- X752f2 -->
<g id="node19" class="node"><title>X752f2</title>
<ellipse fill="none" stroke="black" cx="1856.39" cy="-378" rx="44.393" ry="18"/>
<text text-anchor="middle" x="1856.39" y="-374.3" font-family="Times,serif" font-size="14.00">X752f2</text>
</g>
<!-- Xe7b0a&#45;&gt;X752f2 -->
<g id="edge16" class="edge"><title>Xe7b0a&#45;&gt;X752f2</title>
<path fill="none" stroke="black" d="M1818.49,-432.055C1824.51,-423.629 1831.91,-413.28 1838.56,-403.966"/>
<polygon fill="black" stroke="black" points="1841.43,-405.961 1844.4,-395.789 1835.74,-401.892 1841.43,-405.961"/>
</g>
<!-- X7152e -->
<g id="node21" class="node"><title>X7152e</title>
<g id="a_node21"><a xlink:href="http://sparql.cwrc.ca/ontologies/cwrc#atheism" xlink:title="Atheism" target="_parent">
<ellipse fill="none" stroke="black" cx="1647.39" cy="-18" rx="49.2915" ry="18"/>
<text text-anchor="middle" x="1647.39" y="-14.3" font-family="Times,serif" font-size="14.00">Atheism</text>
</a>
</g>
</g>
<!-- X3b80a&#45;&gt;X7152e -->
<!-- X156db -->
<g id="node22" class="node"><title>X156db</title>
<g id="a_node22"><a xlink:href="http://sparql.cwrc.ca/ontologies/cwrc#dissentProtestant" xlink:title="Dissent (Protestant)" target="_parent">
<ellipse fill="none" stroke="black" cx="452.391" cy="-234" rx="104.782" ry="18"/>
<text text-anchor="middle" x="452.391" y="-230.3" font-family="Times,serif" font-size="14.00">Dissent (Protestant)</text>
</a>
</g>
</g>
<!-- X156db&#45;&gt;Xf6f10 -->
<g id="edge19" class="edge"><title>X156db&#45;&gt;Xf6f10</title>
<path fill="none" stroke="black" d="M436.414,-216.055C428.226,-207.371 418.113,-196.644 409.127,-187.114"/>
<polygon fill="black" stroke="black" points="411.627,-184.664 402.221,-179.789 406.534,-189.466 411.627,-184.664"/>
</g>
<!-- Xb800b -->
<g id="node23" class="node"><title>Xb800b</title>
<g id="a_node23"><a xlink:href="http://sparql.cwrc.ca/ontologies/cwrc#tractarianMovement" xlink:title="Tractarian Movement" target="_parent">
<ellipse fill="none" stroke="black" cx="179.391" cy="-306" rx="112.38" ry="18"/>
<text text-anchor="middle" x="179.391" y="-302.3" font-family="Times,serif" font-size="14.00">Tractarian Movement</text>
</a>
</g>
</g>
<!-- Xb800b&#45;&gt;Xf6f10 -->
<g id="edge20" class="edge"><title>Xb800b&#45;&gt;Xf6f10</title>
<path fill="none" stroke="black" d="M202.441,-288.348C227.576,-270.278 269.071,-240.698 305.391,-216 320.812,-205.513 338.084,-194.16 352.704,-184.661"/>
<polygon fill="black" stroke="black" points="354.935,-187.385 361.424,-179.01 351.129,-181.511 354.935,-187.385"/>
</g>
<!-- Xb45be -->
<g id="node24" class="node"><title>Xb45be</title>
<g id="a_node24"><a xlink:href="http://sparql.cwrc.ca/ontologies/cwrc#millenarianism" xlink:title="Millenarianism" target="_parent">
<ellipse fill="none" stroke="black" cx="1474.39" cy="-162" rx="81.4863" ry="18"/>
<text text-anchor="middle" x="1474.39" y="-158.3" font-family="Times,serif" font-size="14.00">Millenarianism</text>
</a>
</g>
</g>
<!-- X2a5d0 -->
<g id="node25" class="node"><title>X2a5d0</title>
<g id="a_node25"><a xlink:href="http://sparql.cwrc.ca/ontologies/cwrc#churchOfIreland" xlink:title="Church of Ireland" target="_parent">
<ellipse fill="none" stroke="black" cx="319.391" cy="-378" rx="93.6835" ry="18"/>
<text text-anchor="middle" x="319.391" y="-374.3" font-family="Times,serif" font-size="14.00">Church of Ireland</text>
</a>
</g>
</g>
<!-- X2a5d0&#45;&gt;Xf6f10 -->
<g id="edge21" class="edge"><title>X2a5d0&#45;&gt;Xf6f10</title>
<path fill="none" stroke="black" d="M318.09,-359.639C316.511,-329.102 316.375,-264.425 338.391,-216 343.269,-205.271 351.13,-195.211 359.091,-186.799"/>
<polygon fill="black" stroke="black" points="361.737,-189.103 366.348,-179.565 356.795,-184.146 361.737,-189.103"/>
</g>
<!-- Xd32ac -->
<g id="node26" class="node"><title>Xd32ac</title>
<g id="a_node26"><a xlink:href="http://sparql.cwrc.ca/ontologies/cwrc#judaism" xlink:title="Judaism" target="_parent">
<ellipse fill="none" stroke="black" cx="882.391" cy="-90" rx="48.1917" ry="18"/>
<text text-anchor="middle" x="882.391" y="-86.3" font-family="Times,serif" font-size="14.00">Judaism</text>
</a>
</g>
</g>
<!-- Xd32ac&#45;&gt;Xb2336 -->
<g id="edge22" class="edge"><title>Xd32ac&#45;&gt;Xb2336</title>
<path fill="none" stroke="black" d="M882.391,-71.6966C882.391,-63.9827 882.391,-54.7125 882.391,-46.1124"/>
<polygon fill="black" stroke="black" points="885.891,-46.1043 882.391,-36.1043 878.891,-46.1044 885.891,-46.1043"/>
</g>
<!-- X043aa -->
<g id="node27" class="node"><title>X043aa</title>
<g id="a_node27"><a xlink:href="http://sparql.cwrc.ca/ontologies/cwrc#unitarianism" xlink:title="Unitarianism" target="_parent">
<ellipse fill="none" stroke="black" cx="993.391" cy="-522" rx="71.4873" ry="18"/>
<text text-anchor="middle" x="993.391" y="-518.3" font-family="Times,serif" font-size="14.00">Unitarianism</text>
</a>
</g>
</g>
<!-- X043aa&#45;&gt;X4e4b1 -->
<g id="edge23" class="edge"><title>X043aa&#45;&gt;X4e4b1</title>
<path fill="none" stroke="black" d="M993.391,-503.951C993.391,-477.292 993.391,-424.115 993.391,-379 993.391,-379 993.391,-379 993.391,-305 993.391,-256.469 954.585,-211.968 926.577,-186.17"/>
<polygon fill="black" stroke="black" points="928.793,-183.457 919.005,-179.402 924.128,-188.676 928.793,-183.457"/>
</g>
<!-- Xd2614 -->
<g id="node28" class="node"><title>Xd2614</title>
<g id="a_node28"><a xlink:href="http://sparql.cwrc.ca/ontologies/cwrc#fifthMonarchists" xlink:title="Fifth Monarchists" target="_parent">
<ellipse fill="none" stroke="black" cx="1474.39" cy="-234" rx="94.7833" ry="18"/>
<text text-anchor="middle" x="1474.39" y="-230.3" font-family="Times,serif" font-size="14.00">Fifth Monarchists</text>
</a>
</g>
</g>
<!-- Xd2614&#45;&gt;X991c3 -->
<g id="edge24" class="edge"><title>Xd2614&#45;&gt;X991c3</title>
<path fill="none" stroke="black" d="M1438.48,-217.291C1413.13,-206.197 1379.18,-191.344 1353.2,-179.978"/>
<polygon fill="black" stroke="black" points="1354.58,-176.764 1344.02,-175.962 1351.78,-183.177 1354.58,-176.764"/>
</g>
<!-- Xd2614&#45;&gt;Xb45be -->
<g id="edge25" class="edge"><title>Xd2614&#45;&gt;Xb45be</title>
<path fill="none" stroke="black" d="M1474.39,-215.697C1474.39,-207.983 1474.39,-198.712 1474.39,-190.112"/>
<polygon fill="black" stroke="black" points="1477.89,-190.104 1474.39,-180.104 1470.89,-190.104 1477.89,-190.104"/>
</g>
<!-- X32f53 -->
<g id="node29" class="node"><title>X32f53</title>
<g id="a_node29"><a xlink:href="http://sparql.cwrc.ca/ontologies/cwrc#catholicism" xlink:title="Roman Catholicism" target="_parent">
<ellipse fill="none" stroke="black" cx="101.391" cy="-234" rx="101.282" ry="18"/>
<text text-anchor="middle" x="101.391" y="-230.3" font-family="Times,serif" font-size="14.00">Roman Catholicism</text>
</a>
</g>
</g>
<!-- X32f53&#45;&gt;Xadf16 -->
<g id="edge26" class="edge"><title>X32f53&#45;&gt;Xadf16</title>
<path fill="none" stroke="black" d="M132.54,-216.682C172.434,-196.492 244.217,-162.521 309.391,-144 403.588,-117.231 516.035,-103.295 588.05,-96.5612"/>
<polygon fill="black" stroke="black" points="588.734,-100.013 598.375,-95.6193 588.098,-93.0424 588.734,-100.013"/>
</g>
<!-- X7477d -->
<g id="node30" class="node"><title>X7477d</title>
<g id="a_node30"><a xlink:href="http://sparql.cwrc.ca/ontologies/cwrc#congregationalism" xlink:title="Congregationalism" target="_parent">
<ellipse fill="none" stroke="black" cx="1120.39" cy="-234" rx="98.5829" ry="18"/>
<text text-anchor="middle" x="1120.39" y="-230.3" font-family="Times,serif" font-size="14.00">Congregationalism</text>
</a>
</g>
</g>
<!-- X7477d&#45;&gt;X4e4b1 -->
<g id="edge27" class="edge"><title>X7477d&#45;&gt;X4e4b1</title>
<path fill="none" stroke="black" d="M1073.31,-218.155C1037.79,-206.955 989.028,-191.579 952.009,-179.907"/>
<polygon fill="black" stroke="black" points="952.973,-176.541 942.384,-176.872 950.868,-183.217 952.973,-176.541"/>
</g>
<!-- Xd53bc -->
<g id="node31" class="node"><title>Xd53bc</title>
<g id="a_node31"><a xlink:href="http://sparql.cwrc.ca/ontologies/cwrc#baptistChristianity" xlink:title="Baptist Christianity" target="_parent">
<ellipse fill="none" stroke="black" cx="568.391" cy="-306" rx="102.882" ry="18"/>
<text text-anchor="middle" x="568.391" y="-302.3" font-family="Times,serif" font-size="14.00">Baptist Christianity</text>
</a>
</g>
</g>
<!-- Xd53bc&#45;&gt;X4e4b1 -->
<g id="edge28" class="edge"><title>Xd53bc&#45;&gt;X4e4b1</title>
<path fill="none" stroke="black" d="M570.405,-287.666C573.741,-267.253 582.401,-233.869 604.391,-216 621.206,-202.336 741.336,-183.928 822.739,-172.791"/>
<polygon fill="black" stroke="black" points="823.523,-176.217 832.961,-171.403 822.581,-169.281 823.523,-176.217"/>
</g>
<!-- X1cc79 -->
<g id="node32" class="node"><title>X1cc79</title>
<g id="a_node32"><a xlink:href="http://sparql.cwrc.ca/ontologies/cwrc#lollardy" xlink:title="Lollardy" target="_parent">
<ellipse fill="none" stroke="black" cx="1907.39" cy="-522" rx="49.2915" ry="18"/>
<text text-anchor="middle" x="1907.39" y="-518.3" font-family="Times,serif" font-size="14.00">Lollardy</text>
</a>
</g>
</g>
<!-- X1cc79&#45;&gt;X752f2 -->
<g id="edge29" class="edge"><title>X1cc79&#45;&gt;X752f2</title>
<path fill="none" stroke="black" d="M1905.44,-503.778C1902.98,-485.481 1897.87,-455.947 1888.39,-432 1884.58,-422.357 1879.09,-412.454 1873.74,-403.857"/>
<polygon fill="black" stroke="black" points="1876.66,-401.925 1868.28,-395.436 1870.78,-405.732 1876.66,-401.925"/>
</g>
<!-- Xc1422 -->
<g id="node33" class="node"><title>Xc1422</title>
<g id="a_node33"><a xlink:href="http://sparql.cwrc.ca/ontologies/cwrc#islam" xlink:title="Islamism" target="_parent">
<ellipse fill="none" stroke="black" cx="1046.39" cy="-162" rx="53.0913" ry="18"/>
<text text-anchor="middle" x="1046.39" y="-158.3" font-family="Times,serif" font-size="14.00">Islamism</text>
</a>
</g>
</g>
<!-- Xc1422&#45;&gt;Xb2336 -->
<g id="edge30" class="edge"><title>Xc1422&#45;&gt;Xb2336</title>
<path fill="none" stroke="black" d="M1027.9,-144.987C998.97,-119.94 942.875,-71.3702 909.417,-42.4005"/>
<polygon fill="black" stroke="black" points="911.683,-39.733 901.832,-35.8332 907.101,-45.025 911.683,-39.733"/>
</g>
</g>
</svg>
