<?xml version="1.0" encoding="UTF-8" standalone="no"?>
<!DOCTYPE svg PUBLIC "-//W3C//DTD SVG 1.1//EN"
 "http://www.w3.org/Graphics/SVG/1.1/DTD/svg11.dtd">
<!-- Generated by graphviz version 2.38.0 (20140413.2041)
 -->
<!-- Title: ReligionGraph Pages: 1 -->
<svg width="2032pt" height="548pt"
 viewBox="0.00 0.00 2031.79 548.00" xmlns="http://www.w3.org/2000/svg" xmlns:xlink="http://www.w3.org/1999/xlink">
<g id="graph0" class="graph" transform="scale(1 1) rotate(0) translate(4 544)">
<title>ReligionGraph</title>
<polygon fill="white" stroke="none" points="-4,4 -4,-544 2027.79,-544 2027.79,4 -4,4"/>
<!-- X32f53 -->
<g id="node1" class="node"><title>X32f53</title>
<g id="a_node1"><a xlink:href="http://sparql.cwrc.ca/ontologies/cwrc#catholicism" xlink:title="Roman Catholicism" target="_parent">
<ellipse fill="none" stroke="black" cx="101.391" cy="-162" rx="101.282" ry="18"/>
<text text-anchor="middle" x="101.391" y="-158.3" font-family="Times,serif" font-size="14.00">Roman Catholicism</text>
</a>
</g>
</g>
<!-- Xadf16 -->
<g id="node2" class="node"><title>Xadf16</title>
<g id="a_node2"><a xlink:href="http://sparql.cwrc.ca/ontologies/cwrc#christianity" xlink:title="Christianity" target="_parent">
<ellipse fill="none" stroke="black" cx="357.391" cy="-90" rx="66.0889" ry="18"/>
<text text-anchor="middle" x="357.391" y="-86.3" font-family="Times,serif" font-size="14.00">Christianity</text>
</a>
</g>
</g>
<!-- X32f53&#45;&gt;Xadf16 -->
<g id="edge1" class="edge"><title>X32f53&#45;&gt;Xadf16</title>
<path fill="none" stroke="black" d="M154.124,-146.581C197.532,-134.711 258.853,-117.944 302.77,-105.935"/>
<polygon fill="black" stroke="black" points="303.698,-109.31 312.421,-103.297 301.852,-102.558 303.698,-109.31"/>
</g>
<!-- Xb2336 -->
<g id="node3" class="node"><title>Xb2336</title>
<g id="a_node3"><a xlink:href="http://sparql.cwrc.ca/ontologies/cwrc#abrahamicReligions" xlink:title="Abrahamic religions" target="_parent">
<ellipse fill="none" stroke="black" cx="1003.39" cy="-18" rx="104.782" ry="18"/>
<text text-anchor="middle" x="1003.39" y="-14.3" font-family="Times,serif" font-size="14.00">Abrahamic religions</text>
</a>
</g>
</g>
<!-- Xadf16&#45;&gt;Xb2336 -->
<g id="edge2" class="edge"><title>Xadf16&#45;&gt;Xb2336</title>
<path fill="none" stroke="black" d="M417.875,-82.446C530.216,-70.2728 771.914,-44.0826 907.01,-29.4438"/>
<polygon fill="black" stroke="black" points="907.783,-32.8806 917.347,-28.3236 907.028,-25.9214 907.783,-32.8806"/>
</g>
<!-- X36b94 -->
<g id="node4" class="node"><title>X36b94</title>
<g id="a_node4"><a xlink:href="http://sparql.cwrc.ca/ontologies/cwrc#agnosticism" xlink:title="Agnosticism" target="_parent">
<ellipse fill="none" stroke="black" cx="1714.39" cy="-522" rx="68.4888" ry="18"/>
<text text-anchor="middle" x="1714.39" y="-518.3" font-family="Times,serif" font-size="14.00">Agnosticism</text>
</a>
</g>
</g>
<!-- Xd35c6 -->
<g id="node5" class="node"><title>Xd35c6</title>
<g id="a_node5"><a xlink:href="http://sparql.cwrc.ca/ontologies/cwrc#spiritualism" xlink:title="Spiritualism" target="_parent">
<ellipse fill="none" stroke="black" cx="1714.39" cy="-450" rx="67.6881" ry="18"/>
<text text-anchor="middle" x="1714.39" y="-446.3" font-family="Times,serif" font-size="14.00">Spiritualism</text>
</a>
</g>
</g>
<!-- X36b94&#45;&gt;Xd35c6 -->
<!-- X3b80a -->
<g id="node14" class="node"><title>X3b80a</title>
<g id="a_node14"><a xlink:href="http://sparql.cwrc.ca/ontologies/cwrc#buddhism" xlink:title="Buddhism" target="_parent">
<ellipse fill="none" stroke="black" cx="1714.39" cy="-378" rx="57.6901" ry="18"/>
<text text-anchor="middle" x="1714.39" y="-374.3" font-family="Times,serif" font-size="14.00">Buddhism</text>
</a>
</g>
</g>
<!-- Xd35c6&#45;&gt;X3b80a -->
<!-- X156db -->
<g id="node6" class="node"><title>X156db</title>
<g id="a_node6"><a xlink:href="http://sparql.cwrc.ca/ontologies/cwrc#dissentProtestant" xlink:title="Dissent (Protestant)" target="_parent">
<ellipse fill="none" stroke="black" cx="490.391" cy="-234" rx="104.782" ry="18"/>
<text text-anchor="middle" x="490.391" y="-230.3" font-family="Times,serif" font-size="14.00">Dissent (Protestant)</text>
</a>
</g>
</g>
<!-- Xf6f10 -->
<g id="node7" class="node"><title>Xf6f10</title>
<g id="a_node7"><a xlink:href="http://sparql.cwrc.ca/ontologies/cwrc#anglicanism" xlink:title="Anglicanism" target="_parent">
<ellipse fill="none" stroke="black" cx="357.391" cy="-162" rx="68.4888" ry="18"/>
<text text-anchor="middle" x="357.391" y="-158.3" font-family="Times,serif" font-size="14.00">Anglicanism</text>
</a>
</g>
</g>
<!-- X156db&#45;&gt;Xf6f10 -->
<g id="edge4" class="edge"><title>X156db&#45;&gt;Xf6f10</title>
<path fill="none" stroke="black" d="M459.544,-216.765C440.512,-206.748 415.948,-193.82 395.678,-183.151"/>
<polygon fill="black" stroke="black" points="397.181,-179.987 386.702,-178.427 393.921,-186.182 397.181,-179.987"/>
</g>
<!-- Xf6f10&#45;&gt;Xadf16 -->
<g id="edge5" class="edge"><title>Xf6f10&#45;&gt;Xadf16</title>
<path fill="none" stroke="black" d="M357.391,-143.697C357.391,-135.983 357.391,-126.712 357.391,-118.112"/>
<polygon fill="black" stroke="black" points="360.891,-118.104 357.391,-108.104 353.891,-118.104 360.891,-118.104"/>
</g>
<!-- Xb45be -->
<g id="node8" class="node"><title>Xb45be</title>
<g id="a_node8"><a xlink:href="http://sparql.cwrc.ca/ontologies/cwrc#millenarianism" xlink:title="Millenarianism" target="_parent">
<ellipse fill="none" stroke="black" cx="1440.39" cy="-162" rx="81.4863" ry="18"/>
<text text-anchor="middle" x="1440.39" y="-158.3" font-family="Times,serif" font-size="14.00">Millenarianism</text>
</a>
</g>
</g>
<!-- X7477d -->
<g id="node9" class="node"><title>X7477d</title>
<g id="a_node9"><a xlink:href="http://sparql.cwrc.ca/ontologies/cwrc#congregationalism" xlink:title="Congregationalism" target="_parent">
<ellipse fill="none" stroke="black" cx="750.391" cy="-234" rx="98.5829" ry="18"/>
<text text-anchor="middle" x="750.391" y="-230.3" font-family="Times,serif" font-size="14.00">Congregationalism</text>
</a>
</g>
</g>
<!-- X4e4b1 -->
<g id="node10" class="node"><title>X4e4b1</title>
<g id="a_node10"><a xlink:href="http://sparql.cwrc.ca/ontologies/cwrc#protestantism" xlink:title="Protestantism" target="_parent">
<ellipse fill="none" stroke="black" cx="915.391" cy="-162" rx="76.8869" ry="18"/>
<text text-anchor="middle" x="915.391" y="-158.3" font-family="Times,serif" font-size="14.00">Protestantism</text>
</a>
</g>
</g>
<!-- X7477d&#45;&gt;X4e4b1 -->
<g id="edge6" class="edge"><title>X7477d&#45;&gt;X4e4b1</title>
<path fill="none" stroke="black" d="M787.42,-217.291C812.045,-206.844 844.531,-193.062 870.609,-181.999"/>
<polygon fill="black" stroke="black" points="872.061,-185.184 879.9,-178.057 869.327,-178.74 872.061,-185.184"/>
</g>
<!-- X4e4b1&#45;&gt;Xadf16 -->
<g id="edge7" class="edge"><title>X4e4b1&#45;&gt;Xadf16</title>
<path fill="none" stroke="black" d="M849.465,-152.73C743.162,-139.394 534.874,-113.265 426.545,-99.6753"/>
<polygon fill="black" stroke="black" points="426.739,-96.1722 416.381,-98.4001 425.867,-103.118 426.739,-96.1722"/>
</g>
<!-- Xe7b0a -->
<g id="node11" class="node"><title>Xe7b0a</title>
<g id="a_node11"><a xlink:href="http://sparql.cwrc.ca/ontologies/cwrc#neo-thomism" xlink:title="Neo&#45;thomism" target="_parent">
<ellipse fill="none" stroke="black" cx="1873.39" cy="-450" rx="73.387" ry="18"/>
<text text-anchor="middle" x="1873.39" y="-446.3" font-family="Times,serif" font-size="14.00">Neo&#45;thomism</text>
</a>
</g>
</g>
<!-- X752f2 -->
<g id="node12" class="node"><title>X752f2</title>
<ellipse fill="none" stroke="black" cx="1923.39" cy="-378" rx="44.393" ry="18"/>
<text text-anchor="middle" x="1923.39" y="-374.3" font-family="Times,serif" font-size="14.00">X752f2</text>
</g>
<!-- Xe7b0a&#45;&gt;X752f2 -->
<g id="edge8" class="edge"><title>Xe7b0a&#45;&gt;X752f2</title>
<path fill="none" stroke="black" d="M1885.49,-432.055C1891.51,-423.629 1898.91,-413.28 1905.56,-403.966"/>
<polygon fill="black" stroke="black" points="1908.43,-405.961 1911.4,-395.789 1902.74,-401.892 1908.43,-405.961"/>
</g>
<!-- X9deb8 -->
<g id="node13" class="node"><title>X9deb8</title>
<g id="a_node13"><a xlink:href="http://sparql.cwrc.ca/ontologies/cwrc#dissentingChristianity" xlink:title="Dissenting Christianity" target="_parent">
<ellipse fill="none" stroke="black" cx="768.391" cy="-306" rx="118.879" ry="18"/>
<text text-anchor="middle" x="768.391" y="-302.3" font-family="Times,serif" font-size="14.00">Dissenting Christianity</text>
</a>
</g>
</g>
<!-- X9deb8&#45;&gt;X4e4b1 -->
<g id="edge9" class="edge"><title>X9deb8&#45;&gt;X4e4b1</title>
<path fill="none" stroke="black" d="M804.335,-288.8C821.965,-279.685 842.719,-267.096 858.391,-252 877.27,-233.814 892.83,-208.209 902.895,-189.128"/>
<polygon fill="black" stroke="black" points="906.083,-190.581 907.515,-180.083 899.849,-187.396 906.083,-190.581"/>
</g>
<!-- X43c0c -->
<g id="node15" class="node"><title>X43c0c</title>
<g id="a_node15"><a xlink:href="http://sparql.cwrc.ca/ontologies/cwrc#occultism" xlink:title="Occultism/Theosophism" target="_parent">
<ellipse fill="none" stroke="black" cx="1714.39" cy="-306" rx="122.379" ry="18"/>
<text text-anchor="middle" x="1714.39" y="-302.3" font-family="Times,serif" font-size="14.00">Occultism/Theosophism</text>
</a>
</g>
</g>
<!-- X3b80a&#45;&gt;X43c0c -->
<!-- X37200 -->
<g id="node19" class="node"><title>X37200</title>
<g id="a_node19"><a xlink:href="http://sparql.cwrc.ca/ontologies/cwrc#paganism" xlink:title="Paganism" target="_parent">
<ellipse fill="none" stroke="black" cx="1714.39" cy="-234" rx="55.7903" ry="18"/>
<text text-anchor="middle" x="1714.39" y="-230.3" font-family="Times,serif" font-size="14.00">Paganism</text>
</a>
</g>
</g>
<!-- X43c0c&#45;&gt;X37200 -->
<!-- X043aa -->
<g id="node16" class="node"><title>X043aa</title>
<g id="a_node16"><a xlink:href="http://sparql.cwrc.ca/ontologies/cwrc#unitarianism" xlink:title="Unitarianism" target="_parent">
<ellipse fill="none" stroke="black" cx="854.391" cy="-378" rx="71.4873" ry="18"/>
<text text-anchor="middle" x="854.391" y="-374.3" font-family="Times,serif" font-size="14.00">Unitarianism</text>
</a>
</g>
</g>
<!-- X043aa&#45;&gt;X4e4b1 -->
<g id="edge12" class="edge"><title>X043aa&#45;&gt;X4e4b1</title>
<path fill="none" stroke="black" d="M871.492,-360.447C880.452,-350.713 890.715,-337.66 896.391,-324 914.729,-279.866 917.099,-223.445 916.616,-190.455"/>
<polygon fill="black" stroke="black" points="920.109,-190.127 916.362,-180.217 913.111,-190.301 920.109,-190.127"/>
</g>
<!-- Xd32ac -->
<g id="node17" class="node"><title>Xd32ac</title>
<g id="a_node17"><a xlink:href="http://sparql.cwrc.ca/ontologies/cwrc#judaism" xlink:title="Judaism" target="_parent">
<ellipse fill="none" stroke="black" cx="1003.39" cy="-90" rx="48.1917" ry="18"/>
<text text-anchor="middle" x="1003.39" y="-86.3" font-family="Times,serif" font-size="14.00">Judaism</text>
</a>
</g>
</g>
<!-- Xd32ac&#45;&gt;Xb2336 -->
<g id="edge13" class="edge"><title>Xd32ac&#45;&gt;Xb2336</title>
<path fill="none" stroke="black" d="M1003.39,-71.6966C1003.39,-63.9827 1003.39,-54.7125 1003.39,-46.1124"/>
<polygon fill="black" stroke="black" points="1006.89,-46.1043 1003.39,-36.1043 999.891,-46.1044 1006.89,-46.1043"/>
</g>
<!-- Xc1422 -->
<g id="node18" class="node"><title>Xc1422</title>
<g id="a_node18"><a xlink:href="http://sparql.cwrc.ca/ontologies/cwrc#islam" xlink:title="Islamism" target="_parent">
<ellipse fill="none" stroke="black" cx="1593.39" cy="-162" rx="53.0913" ry="18"/>
<text text-anchor="middle" x="1593.39" y="-158.3" font-family="Times,serif" font-size="14.00">Islamism</text>
</a>
</g>
</g>
<!-- Xc1422&#45;&gt;Xb2336 -->
<g id="edge14" class="edge"><title>Xc1422&#45;&gt;Xb2336</title>
<path fill="none" stroke="black" d="M1553.45,-150.023C1545.8,-147.979 1537.86,-145.893 1530.39,-144 1367.42,-102.694 1175.03,-58.112 1073.81,-34.9787"/>
<polygon fill="black" stroke="black" points="1074.53,-31.554 1064,-32.74 1072.97,-38.3784 1074.53,-31.554"/>
</g>
<!-- X7152e -->
<g id="node21" class="node"><title>X7152e</title>
<g id="a_node21"><a xlink:href="http://sparql.cwrc.ca/ontologies/cwrc#atheism" xlink:title="Atheism" target="_parent">
<ellipse fill="none" stroke="black" cx="1714.39" cy="-162" rx="49.2915" ry="18"/>
<text text-anchor="middle" x="1714.39" y="-158.3" font-family="Times,serif" font-size="14.00">Atheism</text>
</a>
</g>
</g>
<!-- X37200&#45;&gt;X7152e -->
<!-- Xb800b -->
<g id="node20" class="node"><title>Xb800b</title>
<g id="a_node20"><a xlink:href="http://sparql.cwrc.ca/ontologies/cwrc#tractarianMovement" xlink:title="Tractarian Movement" target="_parent">
<ellipse fill="none" stroke="black" cx="217.391" cy="-306" rx="112.38" ry="18"/>
<text text-anchor="middle" x="217.391" y="-302.3" font-family="Times,serif" font-size="14.00">Tractarian Movement</text>
</a>
</g>
</g>
<!-- Xb800b&#45;&gt;Xf6f10 -->
<g id="edge16" class="edge"><title>Xb800b&#45;&gt;Xf6f10</title>
<path fill="none" stroke="black" d="M249.676,-288.753C266.09,-279.467 285.632,-266.739 300.391,-252 318.939,-233.477 334.537,-207.91 344.701,-188.93"/>
<polygon fill="black" stroke="black" points="347.867,-190.427 349.375,-179.94 341.657,-187.198 347.867,-190.427"/>
</g>
<!-- X930a7 -->
<g id="node23" class="node"><title>X930a7</title>
<g id="a_node23"><a xlink:href="http://sparql.cwrc.ca/ontologies/cwrc#Pantheism" xlink:title="Pantheism" target="_parent">
<ellipse fill="none" stroke="black" cx="1714.39" cy="-90" rx="59.5901" ry="18"/>
<text text-anchor="middle" x="1714.39" y="-86.3" font-family="Times,serif" font-size="14.00">Pantheism</text>
</a>
</g>
</g>
<!-- X7152e&#45;&gt;X930a7 -->
<!-- Xe1e3e -->
<g id="node22" class="node"><title>Xe1e3e</title>
<g id="a_node22"><a xlink:href="http://sparql.cwrc.ca/ontologies/cwrc#methodism" xlink:title="Methodism" target="_parent">
<ellipse fill="none" stroke="black" cx="899.391" cy="-450" rx="63.8893" ry="18"/>
<text text-anchor="middle" x="899.391" y="-446.3" font-family="Times,serif" font-size="14.00">Methodism</text>
</a>
</g>
</g>
<!-- Xe1e3e&#45;&gt;X4e4b1 -->
<g id="edge18" class="edge"><title>Xe1e3e&#45;&gt;X4e4b1</title>
<path fill="none" stroke="black" d="M914.209,-432.173C921.853,-422.353 930.394,-409.306 934.391,-396 956.064,-323.85 936.319,-233.833 923.824,-189.79"/>
<polygon fill="black" stroke="black" points="927.159,-188.725 920.984,-180.116 920.443,-190.697 927.159,-188.725"/>
</g>
<!-- Xc7ed9 -->
<g id="node28" class="node"><title>Xc7ed9</title>
<g id="a_node28"><a xlink:href="http://sparql.cwrc.ca/ontologies/cwrc#hinduism" xlink:title="Hinduism" target="_parent">
<ellipse fill="none" stroke="black" cx="1714.39" cy="-18" rx="55.7903" ry="18"/>
<text text-anchor="middle" x="1714.39" y="-14.3" font-family="Times,serif" font-size="14.00">Hinduism</text>
</a>
</g>
</g>
<!-- X930a7&#45;&gt;Xc7ed9 -->
<!-- X1cc79 -->
<g id="node24" class="node"><title>X1cc79</title>
<g id="a_node24"><a xlink:href="http://sparql.cwrc.ca/ontologies/cwrc#lollardy" xlink:title="Lollardy" target="_parent">
<ellipse fill="none" stroke="black" cx="1974.39" cy="-522" rx="49.2915" ry="18"/>
<text text-anchor="middle" x="1974.39" y="-518.3" font-family="Times,serif" font-size="14.00">Lollardy</text>
</a>
</g>
</g>
<!-- X1cc79&#45;&gt;X752f2 -->
<g id="edge20" class="edge"><title>X1cc79&#45;&gt;X752f2</title>
<path fill="none" stroke="black" d="M1972.44,-503.778C1969.98,-485.481 1964.87,-455.947 1955.39,-432 1951.58,-422.357 1946.09,-412.454 1940.74,-403.857"/>
<polygon fill="black" stroke="black" points="1943.66,-401.925 1935.28,-395.436 1937.78,-405.732 1943.66,-401.925"/>
</g>
<!-- X253de -->
<g id="node25" class="node"><title>X253de</title>
<g id="a_node25"><a xlink:href="http://sparql.cwrc.ca/ontologies/cwrc#quakerism" xlink:title="Quakerism" target="_parent">
<ellipse fill="none" stroke="black" cx="1273.39" cy="-234" rx="61.99" ry="18"/>
<text text-anchor="middle" x="1273.39" y="-230.3" font-family="Times,serif" font-size="14.00">Quakerism</text>
</a>
</g>
</g>
<!-- X253de&#45;&gt;X4e4b1 -->
<g id="edge21" class="edge"><title>X253de&#45;&gt;X4e4b1</title>
<path fill="none" stroke="black" d="M1228.02,-221.762C1219.52,-219.764 1210.7,-217.76 1202.39,-216 1128.86,-200.419 1044.18,-185.099 985.957,-174.969"/>
<polygon fill="black" stroke="black" points="986.216,-171.462 975.765,-173.202 985.02,-178.359 986.216,-171.462"/>
</g>
<!-- X991c3 -->
<g id="node26" class="node"><title>X991c3</title>
<ellipse fill="none" stroke="black" cx="1288.39" cy="-162" rx="46.2923" ry="18"/>
<text text-anchor="middle" x="1288.39" y="-158.3" font-family="Times,serif" font-size="14.00">X991c3</text>
</g>
<!-- X253de&#45;&gt;X991c3 -->
<g id="edge22" class="edge"><title>X253de&#45;&gt;X991c3</title>
<path fill="none" stroke="black" d="M1277.1,-215.697C1278.75,-207.983 1280.74,-198.712 1282.58,-190.112"/>
<polygon fill="black" stroke="black" points="1286.05,-190.616 1284.73,-180.104 1279.21,-189.149 1286.05,-190.616"/>
</g>
<!-- Xd2614 -->
<g id="node27" class="node"><title>Xd2614</title>
<g id="a_node27"><a xlink:href="http://sparql.cwrc.ca/ontologies/cwrc#fifthMonarchists" xlink:title="Fifth Monarchists" target="_parent">
<ellipse fill="none" stroke="black" cx="1448.39" cy="-234" rx="94.7833" ry="18"/>
<text text-anchor="middle" x="1448.39" y="-230.3" font-family="Times,serif" font-size="14.00">Fifth Monarchists</text>
</a>
</g>
</g>
<!-- Xd2614&#45;&gt;Xb45be -->
<g id="edge23" class="edge"><title>Xd2614&#45;&gt;Xb45be</title>
<path fill="none" stroke="black" d="M1446.41,-215.697C1445.53,-207.983 1444.47,-198.712 1443.49,-190.112"/>
<polygon fill="black" stroke="black" points="1446.96,-189.642 1442.35,-180.104 1440,-190.437 1446.96,-189.642"/>
</g>
<!-- Xd2614&#45;&gt;X991c3 -->
<g id="edge24" class="edge"><title>Xd2614&#45;&gt;X991c3</title>
<path fill="none" stroke="black" d="M1412.48,-217.291C1387.13,-206.197 1353.18,-191.344 1327.2,-179.978"/>
<polygon fill="black" stroke="black" points="1328.58,-176.764 1318.02,-175.962 1325.78,-183.177 1328.58,-176.764"/>
</g>
<!-- Xd53bc -->
<g id="node29" class="node"><title>Xd53bc</title>
<g id="a_node29"><a xlink:href="http://sparql.cwrc.ca/ontologies/cwrc#baptistChristianity" xlink:title="Baptist Christianity" target="_parent">
<ellipse fill="none" stroke="black" cx="991.391" cy="-522" rx="102.882" ry="18"/>
<text text-anchor="middle" x="991.391" y="-518.3" font-family="Times,serif" font-size="14.00">Baptist Christianity</text>
</a>
</g>
</g>
<!-- Xd53bc&#45;&gt;X4e4b1 -->
<g id="edge26" class="edge"><title>Xd53bc&#45;&gt;X4e4b1</title>
<path fill="none" stroke="black" d="M991.391,-503.951C991.391,-477.292 991.391,-424.115 991.391,-379 991.391,-379 991.391,-379 991.391,-305 991.391,-259.388 960.533,-214.248 938.142,-187.498"/>
<polygon fill="black" stroke="black" points="940.69,-185.094 931.509,-179.807 935.389,-189.665 940.69,-185.094"/>
</g>
<!-- X0e2fa -->
<g id="node30" class="node"><title>X0e2fa</title>
<g id="a_node30"><a xlink:href="http://sparql.cwrc.ca/ontologies/cwrc#presbyterianism" xlink:title="Presbyterianism" target="_parent">
<ellipse fill="none" stroke="black" cx="1106.39" cy="-234" rx="87.1846" ry="18"/>
<text text-anchor="middle" x="1106.39" y="-230.3" font-family="Times,serif" font-size="14.00">Presbyterianism</text>
</a>
</g>
</g>
<!-- X0e2fa&#45;&gt;X4e4b1 -->
<g id="edge27" class="edge"><title>X0e2fa&#45;&gt;X4e4b1</title>
<path fill="none" stroke="black" d="M1065.42,-217.983C1035.81,-207.134 995.7,-192.433 964.4,-180.961"/>
<polygon fill="black" stroke="black" points="965.584,-177.668 954.99,-177.513 963.175,-184.24 965.584,-177.668"/>
</g>
<!-- X2a5d0 -->
<g id="node31" class="node"><title>X2a5d0</title>
<g id="a_node31"><a xlink:href="http://sparql.cwrc.ca/ontologies/cwrc#churchOfIreland" xlink:title="Church of Ireland" target="_parent">
<ellipse fill="none" stroke="black" cx="357.391" cy="-378" rx="93.6835" ry="18"/>
<text text-anchor="middle" x="357.391" y="-374.3" font-family="Times,serif" font-size="14.00">Church of Ireland</text>
</a>
</g>
</g>
<!-- X2a5d0&#45;&gt;Xf6f10 -->
<g id="edge28" class="edge"><title>X2a5d0&#45;&gt;Xf6f10</title>
<path fill="none" stroke="black" d="M357.391,-359.849C357.391,-322.832 357.391,-235.181 357.391,-190.386"/>
<polygon fill="black" stroke="black" points="360.891,-190.232 357.391,-180.232 353.891,-190.232 360.891,-190.232"/>
</g>
<!-- X8fa8b -->
<g id="node32" class="node"><title>X8fa8b</title>
<g id="a_node32"><a xlink:href="http://sparql.cwrc.ca/ontologies/cwrc#plymouthBrethren" xlink:title="Plymouth Brethren" target="_parent">
<ellipse fill="none" stroke="black" cx="531.391" cy="-306" rx="100.182" ry="18"/>
<text text-anchor="middle" x="531.391" y="-302.3" font-family="Times,serif" font-size="14.00">Plymouth Brethren</text>
</a>
</g>
</g>
<!-- X8fa8b&#45;&gt;X4e4b1 -->
<g id="edge29" class="edge"><title>X8fa8b&#45;&gt;X4e4b1</title>
<path fill="none" stroke="black" d="M555.989,-288.342C570.435,-278.267 588.85,-264.91 604.391,-252 622.286,-237.134 621.703,-226.641 642.391,-216 700.897,-185.907 774.47,-172.834 830.493,-167.188"/>
<polygon fill="black" stroke="black" points="831.116,-170.645 840.741,-166.218 830.456,-163.676 831.116,-170.645"/>
</g>
<!-- X6f203 -->
<g id="node33" class="node"><title>X6f203</title>
<g id="a_node33"><a xlink:href="http://sparql.cwrc.ca/ontologies/cwrc#christianScience" xlink:title="Christian Science" target="_parent">
<ellipse fill="none" stroke="black" cx="198.391" cy="-234" rx="92.8835" ry="18"/>
<text text-anchor="middle" x="198.391" y="-230.3" font-family="Times,serif" font-size="14.00">Christian Science</text>
</a>
</g>
</g>
<!-- X6f203&#45;&gt;Xadf16 -->
<g id="edge30" class="edge"><title>X6f203&#45;&gt;Xadf16</title>
<path fill="none" stroke="black" d="M212.182,-215.869C227.71,-197.123 254.205,-166.717 280.391,-144 293.564,-132.572 309.246,-121.399 323.009,-112.281"/>
<polygon fill="black" stroke="black" points="325.259,-114.993 331.73,-106.604 321.44,-109.126 325.259,-114.993"/>
</g>
</g>
</svg>
