<?xml version="1.0" encoding="UTF-8" standalone="no"?>
<!DOCTYPE svg PUBLIC "-//W3C//DTD SVG 1.1//EN"
 "http://www.w3.org/Graphics/SVG/1.1/DTD/svg11.dtd">
<!-- Generated by graphviz version 2.38.0 (20140413.2041)
 -->
<!-- Title: ReligionGraph Pages: 1 -->
<svg width="2160pt" height="534pt"
 viewBox="0.00 0.00 2160.00 534.25" xmlns="http://www.w3.org/2000/svg" xmlns:xlink="http://www.w3.org/1999/xlink">
<g id="graph0" class="graph" transform="scale(0.974911 0.974911) rotate(0) translate(4 544)">
<title>ReligionGraph</title>
<polygon fill="white" stroke="none" points="-4,4 -4,-544 2211.59,-544 2211.59,4 -4,4"/>
<!-- Xe1e3e -->
<g id="node1" class="node"><title>Xe1e3e</title>
<g id="a_node1"><a xlink:href="http://sparql.cwrc.ca/ontologies/cwrc#methodism" xlink:title="Église méthodiste" target="_parent">
<ellipse fill="none" stroke="black" cx="1484.44" cy="-234" rx="94.7833" ry="18"/>
<text text-anchor="middle" x="1484.44" y="-230.3" font-family="Times,serif" font-size="14.00">Église méthodiste</text>
</a>
</g>
</g>
<!-- X4e4b1 -->
<g id="node2" class="node"><title>X4e4b1</title>
<g id="a_node2"><a xlink:href="http://sparql.cwrc.ca/ontologies/cwrc#protestantism" xlink:title="protestantisme" target="_parent">
<ellipse fill="none" stroke="black" cx="1626.44" cy="-162" rx="81.4863" ry="18"/>
<text text-anchor="middle" x="1626.44" y="-158.3" font-family="Times,serif" font-size="14.00">protestantisme</text>
</a>
</g>
</g>
<!-- Xe1e3e&#45;&gt;X4e4b1 -->
<g id="edge1" class="edge"><title>Xe1e3e&#45;&gt;X4e4b1</title>
<path fill="none" stroke="black" d="M1517.02,-216.941C1537.37,-206.91 1563.74,-193.91 1585.5,-183.185"/>
<polygon fill="black" stroke="black" points="1587.08,-186.304 1594.51,-178.743 1583.99,-180.026 1587.08,-186.304"/>
</g>
<!-- Xadf16 -->
<g id="node3" class="node"><title>Xadf16</title>
<g id="a_node3"><a xlink:href="http://sparql.cwrc.ca/ontologies/cwrc#christianity" xlink:title="Christianisme" target="_parent">
<ellipse fill="none" stroke="black" cx="426.443" cy="-90" rx="76.0865" ry="18"/>
<text text-anchor="middle" x="426.443" y="-86.3" font-family="Times,serif" font-size="14.00">Christianisme</text>
</a>
</g>
</g>
<!-- X4e4b1&#45;&gt;Xadf16 -->
<g id="edge2" class="edge"><title>X4e4b1&#45;&gt;Xadf16</title>
<path fill="none" stroke="black" d="M1544.95,-161.297C1360.29,-161.06 896.131,-155.341 511.443,-108 504.358,-107.128 496.98,-105.996 489.661,-104.729"/>
<polygon fill="black" stroke="black" points="490.214,-101.272 479.75,-102.93 488.964,-108.16 490.214,-101.272"/>
</g>
<!-- Xb2336 -->
<g id="node5" class="node"><title>Xb2336</title>
<g id="a_node5"><a xlink:href="http://sparql.cwrc.ca/ontologies/cwrc#abrahamicReligions" xlink:title="Religions abrahamiques" target="_parent">
<ellipse fill="none" stroke="black" cx="556.443" cy="-18" rx="122.379" ry="18"/>
<text text-anchor="middle" x="556.443" y="-14.3" font-family="Times,serif" font-size="14.00">Religions abrahamiques</text>
</a>
</g>
</g>
<!-- Xadf16&#45;&gt;Xb2336 -->
<g id="edge4" class="edge"><title>Xadf16&#45;&gt;Xb2336</title>
<path fill="none" stroke="black" d="M455.618,-73.2906C473.584,-63.6167 496.86,-51.0835 516.521,-40.4969"/>
<polygon fill="black" stroke="black" points="518.409,-43.4554 525.554,-35.6327 515.09,-37.2921 518.409,-43.4554"/>
</g>
<!-- X6f203 -->
<g id="node4" class="node"><title>X6f203</title>
<g id="a_node4"><a xlink:href="http://sparql.cwrc.ca/ontologies/cwrc#christianScience" xlink:title="Science Chrétienne" target="_parent">
<ellipse fill="none" stroke="black" cx="316.443" cy="-162" rx="102.082" ry="18"/>
<text text-anchor="middle" x="316.443" y="-158.3" font-family="Times,serif" font-size="14.00">Science Chrétienne</text>
</a>
</g>
</g>
<!-- X6f203&#45;&gt;Xadf16 -->
<g id="edge3" class="edge"><title>X6f203&#45;&gt;Xadf16</title>
<path fill="none" stroke="black" d="M342.512,-144.411C357.414,-134.928 376.278,-122.924 392.346,-112.699"/>
<polygon fill="black" stroke="black" points="394.384,-115.55 400.942,-107.228 390.626,-109.644 394.384,-115.55"/>
</g>
<!-- X32f53 -->
<g id="node6" class="node"><title>X32f53</title>
<g id="a_node6"><a xlink:href="http://sparql.cwrc.ca/ontologies/cwrc#catholicism" xlink:title="Catholicisme" target="_parent">
<ellipse fill="none" stroke="black" cx="124.443" cy="-162" rx="71.4873" ry="18"/>
<text text-anchor="middle" x="124.443" y="-158.3" font-family="Times,serif" font-size="14.00">Catholicisme</text>
</a>
</g>
</g>
<!-- X32f53&#45;&gt;Xadf16 -->
<g id="edge5" class="edge"><title>X32f53&#45;&gt;Xadf16</title>
<path fill="none" stroke="black" d="M175.332,-149.205C227.426,-137.13 308.451,-118.349 364.302,-105.404"/>
<polygon fill="black" stroke="black" points="365.126,-108.805 374.078,-103.138 363.546,-101.986 365.126,-108.805"/>
</g>
<!-- X36b94 -->
<g id="node7" class="node"><title>X36b94</title>
<g id="a_node7"><a xlink:href="http://sparql.cwrc.ca/ontologies/cwrc#agnosticism" xlink:title="agnosticisme" target="_parent">
<ellipse fill="none" stroke="black" cx="2135.44" cy="-522" rx="72.2875" ry="18"/>
<text text-anchor="middle" x="2135.44" y="-518.3" font-family="Times,serif" font-size="14.00">agnosticisme</text>
</a>
</g>
</g>
<!-- X52798 -->
<g id="node8" class="node"><title>X52798</title>
<g id="a_node8"><a xlink:href="http://sparql.cwrc.ca/ontologies/cwrc#pantheism" xlink:title="Panthéisme" target="_parent">
<ellipse fill="none" stroke="black" cx="2135.44" cy="-450" rx="64.9885" ry="18"/>
<text text-anchor="middle" x="2135.44" y="-446.3" font-family="Times,serif" font-size="14.00">Panthéisme</text>
</a>
</g>
</g>
<!-- X36b94&#45;&gt;X52798 -->
<!-- X43c0c -->
<g id="node15" class="node"><title>X43c0c</title>
<g id="a_node15"><a xlink:href="http://sparql.cwrc.ca/ontologies/cwrc#occultism" xlink:title="occultisme" target="_parent">
<ellipse fill="none" stroke="black" cx="2135.44" cy="-378" rx="61.99" ry="18"/>
<text text-anchor="middle" x="2135.44" y="-374.3" font-family="Times,serif" font-size="14.00">occultisme</text>
</a>
</g>
</g>
<!-- X52798&#45;&gt;X43c0c -->
<!-- X0e2fa -->
<g id="node9" class="node"><title>X0e2fa</title>
<g id="a_node9"><a xlink:href="http://sparql.cwrc.ca/ontologies/cwrc#presbyterianism" xlink:title="Presbytarianisme" target="_parent">
<ellipse fill="none" stroke="black" cx="1645.44" cy="-306" rx="92.8835" ry="18"/>
<text text-anchor="middle" x="1645.44" y="-302.3" font-family="Times,serif" font-size="14.00">Presbytarianisme</text>
</a>
</g>
</g>
<!-- X0e2fa&#45;&gt;X4e4b1 -->
<g id="edge7" class="edge"><title>X0e2fa&#45;&gt;X4e4b1</title>
<path fill="none" stroke="black" d="M1643.15,-287.871C1639.91,-263.67 1633.96,-219.211 1630.11,-190.393"/>
<polygon fill="black" stroke="black" points="1633.54,-189.637 1628.74,-180.189 1626.6,-190.565 1633.54,-189.637"/>
</g>
<!-- X043aa -->
<g id="node10" class="node"><title>X043aa</title>
<g id="a_node10"><a xlink:href="http://sparql.cwrc.ca/ontologies/cwrc#unitarianism" xlink:title="unitarisme" target="_parent">
<ellipse fill="none" stroke="black" cx="1715.44" cy="-378" rx="61.1893" ry="18"/>
<text text-anchor="middle" x="1715.44" y="-374.3" font-family="Times,serif" font-size="14.00">unitarisme</text>
</a>
</g>
</g>
<!-- X043aa&#45;&gt;X4e4b1 -->
<g id="edge8" class="edge"><title>X043aa&#45;&gt;X4e4b1</title>
<path fill="none" stroke="black" d="M1729.02,-360.12C1741.77,-342.107 1757.48,-312.809 1747.44,-288 1729.76,-244.299 1688.65,-207.418 1659.27,-185.287"/>
<polygon fill="black" stroke="black" points="1661.07,-182.27 1650.94,-179.172 1656.93,-187.912 1661.07,-182.27"/>
</g>
<!-- X7477d -->
<g id="node11" class="node"><title>X7477d</title>
<g id="a_node11"><a xlink:href="http://sparql.cwrc.ca/ontologies/cwrc#congregationalism" xlink:title="Églises congrégationalistes" target="_parent">
<ellipse fill="none" stroke="black" cx="1804.44" cy="-450" rx="139.175" ry="18"/>
<text text-anchor="middle" x="1804.44" y="-446.3" font-family="Times,serif" font-size="14.00">Églises congrégationalistes</text>
</a>
</g>
</g>
<!-- X7477d&#45;&gt;X4e4b1 -->
<g id="edge9" class="edge"><title>X7477d&#45;&gt;X4e4b1</title>
<path fill="none" stroke="black" d="M1803.59,-431.714C1800.57,-389.062 1786.88,-277.796 1725.44,-216 1711.41,-201.884 1692.83,-190.598 1675.55,-182.13"/>
<polygon fill="black" stroke="black" points="1676.67,-178.787 1666.13,-177.715 1673.7,-185.126 1676.67,-178.787"/>
</g>
<!-- Xe7b0a -->
<g id="node12" class="node"><title>Xe7b0a</title>
<g id="a_node12"><a xlink:href="http://sparql.cwrc.ca/ontologies/cwrc#neo-thomism" xlink:title="néothomisme" target="_parent">
<ellipse fill="none" stroke="black" cx="73.4435" cy="-234" rx="73.387" ry="18"/>
<text text-anchor="middle" x="73.4435" y="-230.3" font-family="Times,serif" font-size="14.00">néothomisme</text>
</a>
</g>
</g>
<!-- Xe7b0a&#45;&gt;X32f53 -->
<g id="edge10" class="edge"><title>Xe7b0a&#45;&gt;X32f53</title>
<path fill="none" stroke="black" d="M85.7892,-216.055C91.9283,-207.629 99.4682,-197.28 106.254,-187.966"/>
<polygon fill="black" stroke="black" points="109.152,-189.932 112.211,-179.789 103.494,-185.81 109.152,-189.932"/>
</g>
<!-- X2a5d0 -->
<g id="node13" class="node"><title>X2a5d0</title>
<g id="a_node13"><a xlink:href="http://sparql.cwrc.ca/ontologies/cwrc#churchOfIreland" xlink:title="Église d&#39;Irlande" target="_parent">
<ellipse fill="none" stroke="black" cx="355.443" cy="-234" rx="84.485" ry="18"/>
<text text-anchor="middle" x="355.443" y="-230.3" font-family="Times,serif" font-size="14.00">Église d&#39;Irlande</text>
</a>
</g>
</g>
<!-- Xf6f10 -->
<g id="node14" class="node"><title>Xf6f10</title>
<g id="a_node14"><a xlink:href="http://sparql.cwrc.ca/ontologies/cwrc#anglicanism" xlink:title="Église d&#39;Angleterre" target="_parent">
<ellipse fill="none" stroke="black" cx="537.443" cy="-162" rx="100.983" ry="18"/>
<text text-anchor="middle" x="537.443" y="-158.3" font-family="Times,serif" font-size="14.00">Église d&#39;Angleterre</text>
</a>
</g>
</g>
<!-- X2a5d0&#45;&gt;Xf6f10 -->
<g id="edge11" class="edge"><title>X2a5d0&#45;&gt;Xf6f10</title>
<path fill="none" stroke="black" d="M394.487,-217.983C421.607,-207.553 457.985,-193.561 487.257,-182.302"/>
<polygon fill="black" stroke="black" points="488.811,-185.455 496.888,-178.598 486.299,-178.921 488.811,-185.455"/>
</g>
<!-- Xf6f10&#45;&gt;Xadf16 -->
<g id="edge12" class="edge"><title>Xf6f10&#45;&gt;Xadf16</title>
<path fill="none" stroke="black" d="M511.419,-144.588C496.28,-135.041 477.02,-122.895 460.665,-112.581"/>
<polygon fill="black" stroke="black" points="462.248,-109.441 451.922,-107.068 458.514,-115.362 462.248,-109.441"/>
</g>
<!-- X3b80a -->
<g id="node16" class="node"><title>X3b80a</title>
<g id="a_node16"><a xlink:href="http://sparql.cwrc.ca/ontologies/cwrc#buddhism" xlink:title="Bouddhisme" target="_parent">
<ellipse fill="none" stroke="black" cx="2135.44" cy="-306" rx="68.4888" ry="18"/>
<text text-anchor="middle" x="2135.44" y="-302.3" font-family="Times,serif" font-size="14.00">Bouddhisme</text>
</a>
</g>
</g>
<!-- X43c0c&#45;&gt;X3b80a -->
<!-- Xc7ed9 -->
<g id="node17" class="node"><title>Xc7ed9</title>
<g id="a_node17"><a xlink:href="http://sparql.cwrc.ca/ontologies/cwrc#hinduism" xlink:title="Hindou" target="_parent">
<ellipse fill="none" stroke="black" cx="2135.44" cy="-234" rx="44.6926" ry="18"/>
<text text-anchor="middle" x="2135.44" y="-230.3" font-family="Times,serif" font-size="14.00">Hindou</text>
</a>
</g>
</g>
<!-- X3b80a&#45;&gt;Xc7ed9 -->
<!-- X37200 -->
<g id="node18" class="node"><title>X37200</title>
<g id="a_node18"><a xlink:href="http://sparql.cwrc.ca/ontologies/cwrc#paganism" xlink:title="Paganisme" target="_parent">
<ellipse fill="none" stroke="black" cx="2135.44" cy="-162" rx="61.1893" ry="18"/>
<text text-anchor="middle" x="2135.44" y="-158.3" font-family="Times,serif" font-size="14.00">Paganisme</text>
</a>
</g>
</g>
<!-- Xc7ed9&#45;&gt;X37200 -->
<!-- Xd35c6 -->
<g id="node21" class="node"><title>Xd35c6</title>
<g id="a_node21"><a xlink:href="http://sparql.cwrc.ca/ontologies/cwrc#spiritualism" xlink:title="Spritisme" target="_parent">
<ellipse fill="none" stroke="black" cx="2135.44" cy="-90" rx="55.7903" ry="18"/>
<text text-anchor="middle" x="2135.44" y="-86.3" font-family="Times,serif" font-size="14.00">Spritisme</text>
</a>
</g>
</g>
<!-- X37200&#45;&gt;Xd35c6 -->
<!-- Xc1422 -->
<g id="node19" class="node"><title>Xc1422</title>
<g id="a_node19"><a xlink:href="http://sparql.cwrc.ca/ontologies/cwrc#islam" xlink:title="islam" target="_parent">
<ellipse fill="none" stroke="black" cx="556.443" cy="-90" rx="35.9954" ry="18"/>
<text text-anchor="middle" x="556.443" y="-86.3" font-family="Times,serif" font-size="14.00">islam</text>
</a>
</g>
</g>
<!-- Xc1422&#45;&gt;Xb2336 -->
<g id="edge17" class="edge"><title>Xc1422&#45;&gt;Xb2336</title>
<path fill="none" stroke="black" d="M544.842,-72.7646C543.07,-64.8688 542.538,-55.1639 543.247,-46.1828"/>
<polygon fill="black" stroke="black" points="546.735,-46.5114 544.649,-36.1239 539.802,-45.545 546.735,-46.5114"/>
</g>
<!-- Xc1422&#45;&gt;Xb2336 -->
<g id="edge18" class="edge"><title>Xc1422&#45;&gt;Xb2336</title>
<path fill="none" stroke="black" d="M556.443,-71.6966C556.443,-63.9827 556.443,-54.7125 556.443,-46.1124"/>
<polygon fill="black" stroke="black" points="559.944,-46.1043 556.443,-36.1043 552.944,-46.1044 559.944,-46.1043"/>
</g>
<!-- Xc1422&#45;&gt;Xb2336 -->
<g id="edge19" class="edge"><title>Xc1422&#45;&gt;Xb2336</title>
<path fill="none" stroke="black" d="M568.045,-72.7646C569.817,-64.8688 570.349,-55.1639 569.64,-46.1828"/>
<polygon fill="black" stroke="black" points="573.085,-45.545 568.238,-36.1239 566.152,-46.5114 573.085,-45.545"/>
</g>
<!-- Xb800b -->
<g id="node20" class="node"><title>Xb800b</title>
<g id="a_node20"><a xlink:href="http://sparql.cwrc.ca/ontologies/cwrc#tractarianMovement" xlink:title="tractarianisme" target="_parent">
<ellipse fill="none" stroke="black" cx="467.443" cy="-306" rx="79.0865" ry="18"/>
<text text-anchor="middle" x="467.443" y="-302.3" font-family="Times,serif" font-size="14.00">tractarianisme</text>
</a>
</g>
</g>
<!-- Xb800b&#45;&gt;Xf6f10 -->
<g id="edge20" class="edge"><title>Xb800b&#45;&gt;Xf6f10</title>
<path fill="none" stroke="black" d="M468.304,-287.985C469.857,-269.341 474.215,-239.023 486.443,-216 492.142,-205.271 500.648,-195.197 509.088,-186.773"/>
<polygon fill="black" stroke="black" points="511.571,-189.242 516.416,-179.82 506.753,-184.164 511.571,-189.242"/>
</g>
<!-- X7152e -->
<g id="node28" class="node"><title>X7152e</title>
<g id="a_node28"><a xlink:href="http://sparql.cwrc.ca/ontologies/cwrc#atheism" xlink:title="athéisme" target="_parent">
<ellipse fill="none" stroke="black" cx="2135.44" cy="-18" rx="53.0913" ry="18"/>
<text text-anchor="middle" x="2135.44" y="-14.3" font-family="Times,serif" font-size="14.00">athéisme</text>
</a>
</g>
</g>
<!-- Xd35c6&#45;&gt;X7152e -->
<!-- X8fa8b -->
<g id="node22" class="node"><title>X8fa8b</title>
<g id="a_node22"><a xlink:href="http://sparql.cwrc.ca/ontologies/cwrc#plymouthBrethren" xlink:title="Frères de Schwarzenau" target="_parent">
<ellipse fill="none" stroke="black" cx="1952.44" cy="-234" rx="120.479" ry="18"/>
<text text-anchor="middle" x="1952.44" y="-230.3" font-family="Times,serif" font-size="14.00">Frères de Schwarzenau</text>
</a>
</g>
</g>
<!-- X8fa8b&#45;&gt;X4e4b1 -->
<g id="edge22" class="edge"><title>X8fa8b&#45;&gt;X4e4b1</title>
<path fill="none" stroke="black" d="M1882.93,-219.254C1825.71,-207.315 1745.33,-190.067 1689.84,-177.823"/>
<polygon fill="black" stroke="black" points="1690.3,-174.34 1679.78,-175.597 1688.79,-181.175 1690.3,-174.34"/>
</g>
<!-- X8fa8b&#45;&gt;X4e4b1 -->
<g id="edge23" class="edge"><title>X8fa8b&#45;&gt;X4e4b1</title>
<path fill="none" stroke="black" d="M1890.49,-218.496C1834.72,-206.18 1752.98,-188.638 1695.21,-176.59"/>
<polygon fill="black" stroke="black" points="1695.57,-173.092 1685.07,-174.482 1694.15,-179.945 1695.57,-173.092"/>
</g>
<!-- Xd53bc -->
<g id="node23" class="node"><title>Xd53bc</title>
<g id="a_node23"><a xlink:href="http://sparql.cwrc.ca/ontologies/cwrc#baptistChristianity" xlink:title="Baptisme" target="_parent">
<ellipse fill="none" stroke="black" cx="1524.44" cy="-522" rx="54.6905" ry="18"/>
<text text-anchor="middle" x="1524.44" y="-518.3" font-family="Times,serif" font-size="14.00">Baptisme</text>
</a>
</g>
</g>
<!-- Xd53bc&#45;&gt;X4e4b1 -->
<g id="edge24" class="edge"><title>Xd53bc&#45;&gt;X4e4b1</title>
<path fill="none" stroke="black" d="M1521.49,-503.934C1515.38,-463.608 1504.95,-360.386 1543.44,-288 1555.47,-265.386 1572.95,-272.393 1588.44,-252 1602.68,-233.264 1612.71,-208.388 1618.88,-189.7"/>
<polygon fill="black" stroke="black" points="1622.26,-190.621 1621.91,-180.032 1615.58,-188.527 1622.26,-190.621"/>
</g>
<!-- X9deb8 -->
<g id="node24" class="node"><title>X9deb8</title>
<g id="a_node24"><a xlink:href="http://sparql.cwrc.ca/ontologies/cwrc#dissentingChristianity" xlink:title="Dissidence anglaise" target="_parent">
<ellipse fill="none" stroke="black" cx="1268.44" cy="-234" rx="102.882" ry="18"/>
<text text-anchor="middle" x="1268.44" y="-230.3" font-family="Times,serif" font-size="14.00">Dissidence anglaise</text>
</a>
</g>
</g>
<!-- X9deb8&#45;&gt;X4e4b1 -->
<g id="edge25" class="edge"><title>X9deb8&#45;&gt;X4e4b1</title>
<path fill="none" stroke="black" d="M1334.52,-220.079C1397.91,-207.686 1493.21,-189.051 1557.53,-176.475"/>
<polygon fill="black" stroke="black" points="1558.43,-179.865 1567.57,-174.511 1557.09,-172.995 1558.43,-179.865"/>
</g>
<!-- Xd2614 -->
<g id="node25" class="node"><title>Xd2614</title>
<g id="a_node25"><a xlink:href="http://sparql.cwrc.ca/ontologies/cwrc#fifthMonarchists" xlink:title="Cinquièmes Monarchistes" target="_parent">
<ellipse fill="none" stroke="black" cx="820.443" cy="-306" rx="132.677" ry="18"/>
<text text-anchor="middle" x="820.443" y="-302.3" font-family="Times,serif" font-size="14.00">Cinquièmes Monarchistes</text>
</a>
</g>
</g>
<!-- X156db -->
<g id="node26" class="node"><title>X156db</title>
<g id="a_node26"><a xlink:href="http://sparql.cwrc.ca/ontologies/cwrc#dissentProtestant" xlink:title="dissidents (ou non&#45;conformistes)" target="_parent">
<ellipse fill="none" stroke="black" cx="947.443" cy="-234" rx="162.471" ry="18"/>
<text text-anchor="middle" x="947.443" y="-230.3" font-family="Times,serif" font-size="14.00">dissidents (ou non&#45;conformistes)</text>
</a>
</g>
</g>
<!-- Xd2614&#45;&gt;X156db -->
<g id="edge26" class="edge"><title>Xd2614&#45;&gt;X156db</title>
<path fill="none" stroke="black" d="M850.541,-288.411C867.813,-278.891 889.693,-266.831 908.291,-256.58"/>
<polygon fill="black" stroke="black" points="910.054,-259.605 917.122,-251.713 906.675,-253.474 910.054,-259.605"/>
</g>
<!-- Xb45be -->
<g id="node27" class="node"><title>Xb45be</title>
<g id="a_node27"><a xlink:href="http://sparql.cwrc.ca/ontologies/cwrc#millenarianism" xlink:title="millénarisme, ou chiliasme" target="_parent">
<ellipse fill="none" stroke="black" cx="631.443" cy="-234" rx="135.676" ry="18"/>
<text text-anchor="middle" x="631.443" y="-230.3" font-family="Times,serif" font-size="14.00">millénarisme, ou chiliasme</text>
</a>
</g>
</g>
<!-- Xd2614&#45;&gt;Xb45be -->
<g id="edge27" class="edge"><title>Xd2614&#45;&gt;Xb45be</title>
<path fill="none" stroke="black" d="M777.083,-288.941C749.569,-278.75 713.779,-265.494 684.563,-254.674"/>
<polygon fill="black" stroke="black" points="685.522,-251.297 674.929,-251.106 683.091,-257.861 685.522,-251.297"/>
</g>
<!-- X156db&#45;&gt;Xf6f10 -->
<g id="edge28" class="edge"><title>X156db&#45;&gt;Xf6f10</title>
<path fill="none" stroke="black" d="M862.988,-218.581C791.044,-206.298 688.378,-188.769 617.672,-176.698"/>
<polygon fill="black" stroke="black" points="617.926,-173.19 607.479,-174.957 616.747,-180.09 617.926,-173.19"/>
</g>
<!-- X1cc79 -->
<g id="node29" class="node"><title>X1cc79</title>
<g id="a_node29"><a xlink:href="http://sparql.cwrc.ca/ontologies/cwrc#lollardy" xlink:title="Lollardy" target="_parent">
<ellipse fill="none" stroke="black" cx="174.443" cy="-306" rx="49.2915" ry="18"/>
<text text-anchor="middle" x="174.443" y="-302.3" font-family="Times,serif" font-size="14.00">Lollardy</text>
</a>
</g>
</g>
<!-- X1cc79&#45;&gt;X32f53 -->
<g id="edge30" class="edge"><title>X1cc79&#45;&gt;X32f53</title>
<path fill="none" stroke="black" d="M172.428,-287.804C169.909,-269.528 164.751,-240.012 155.443,-216 151.822,-206.657 146.68,-197.03 141.623,-188.586"/>
<polygon fill="black" stroke="black" points="144.505,-186.593 136.245,-179.958 138.565,-190.296 144.505,-186.593"/>
</g>
<!-- X253de -->
<g id="node30" class="node"><title>X253de</title>
<g id="a_node30"><a xlink:href="http://sparql.cwrc.ca/ontologies/cwrc#quakerism" xlink:title="quaker" target="_parent">
<ellipse fill="none" stroke="black" cx="1042.44" cy="-306" rx="43.5923" ry="18"/>
<text text-anchor="middle" x="1042.44" y="-302.3" font-family="Times,serif" font-size="14.00">quaker</text>
</a>
</g>
</g>
<!-- X253de&#45;&gt;X4e4b1 -->
<g id="edge31" class="edge"><title>X253de&#45;&gt;X4e4b1</title>
<path fill="none" stroke="black" d="M1065.03,-290.536C1080.49,-280.327 1101.23,-266.022 1118.44,-252 1136.48,-237.305 1135.35,-225.811 1156.44,-216 1222.01,-185.506 1419.81,-171.885 1536.86,-166.354"/>
<polygon fill="black" stroke="black" points="1537.06,-169.848 1546.89,-165.89 1536.74,-162.856 1537.06,-169.848"/>
</g>
<!-- X253de&#45;&gt;X156db -->
<g id="edge32" class="edge"><title>X253de&#45;&gt;X156db</title>
<path fill="none" stroke="black" d="M1021.83,-289.811C1009.15,-280.467 992.654,-268.313 978.421,-257.825"/>
<polygon fill="black" stroke="black" points="980.474,-254.991 970.348,-251.877 976.322,-260.626 980.474,-254.991"/>
</g>
</g>
</svg>
