<?xml version="1.0" encoding="UTF-8" standalone="no"?>
<!DOCTYPE svg PUBLIC "-//W3C//DTD SVG 1.1//EN"
 "http://www.w3.org/Graphics/SVG/1.1/DTD/svg11.dtd">
<!-- Generated by graphviz version 2.38.0 (20140413.2041)
 -->
<!-- Title: ReligionGraph Pages: 1 -->
<svg width="1941pt" height="548pt"
 viewBox="0.00 0.00 1941.29 548.00" xmlns="http://www.w3.org/2000/svg" xmlns:xlink="http://www.w3.org/1999/xlink">
<g id="graph0" class="graph" transform="scale(1 1) rotate(0) translate(4 544)">
<title>ReligionGraph</title>
<polygon fill="white" stroke="none" points="-4,4 -4,-544 1937.29,-544 1937.29,4 -4,4"/>
<!-- Xb45be -->
<g id="node1" class="node"><title>Xb45be</title>
<g id="a_node1"><a xlink:href="http://sparql.cwrc.ca/ontologies/cwrc#millenarianism" xlink:title="Millenarianism" target="_parent">
<ellipse fill="none" stroke="black" cx="94.8916" cy="-162" rx="81.4863" ry="18"/>
<text text-anchor="middle" x="94.8916" y="-158.3" font-family="Times,serif" font-size="14.00">Millenarianism</text>
</a>
</g>
</g>
<!-- Xc7ed9 -->
<g id="node2" class="node"><title>Xc7ed9</title>
<g id="a_node2"><a xlink:href="http://sparql.cwrc.ca/ontologies/cwrc#hinduism" xlink:title="Hinduism" target="_parent">
<ellipse fill="none" stroke="black" cx="1641.89" cy="-522" rx="55.7903" ry="18"/>
<text text-anchor="middle" x="1641.89" y="-518.3" font-family="Times,serif" font-size="14.00">Hinduism</text>
</a>
</g>
</g>
<!-- X7152e -->
<g id="node3" class="node"><title>X7152e</title>
<g id="a_node3"><a xlink:href="http://sparql.cwrc.ca/ontologies/cwrc#atheism" xlink:title="Atheism" target="_parent">
<ellipse fill="none" stroke="black" cx="1641.89" cy="-450" rx="49.2915" ry="18"/>
<text text-anchor="middle" x="1641.89" y="-446.3" font-family="Times,serif" font-size="14.00">Atheism</text>
</a>
</g>
</g>
<!-- Xc7ed9&#45;&gt;X7152e -->
<!-- Xd35c6 -->
<g id="node7" class="node"><title>Xd35c6</title>
<g id="a_node7"><a xlink:href="http://sparql.cwrc.ca/ontologies/cwrc#spiritualism" xlink:title="Spiritualism" target="_parent">
<ellipse fill="none" stroke="black" cx="1641.89" cy="-378" rx="67.6881" ry="18"/>
<text text-anchor="middle" x="1641.89" y="-374.3" font-family="Times,serif" font-size="14.00">Spiritualism</text>
</a>
</g>
</g>
<!-- X7152e&#45;&gt;Xd35c6 -->
<!-- X6f203 -->
<g id="node4" class="node"><title>X6f203</title>
<g id="a_node4"><a xlink:href="http://sparql.cwrc.ca/ontologies/cwrc#christianScience" xlink:title="Christian Science" target="_parent">
<ellipse fill="none" stroke="black" cx="1129.89" cy="-162" rx="92.8835" ry="18"/>
<text text-anchor="middle" x="1129.89" y="-158.3" font-family="Times,serif" font-size="14.00">Christian Science</text>
</a>
</g>
</g>
<!-- Xadf16 -->
<g id="node5" class="node"><title>Xadf16</title>
<g id="a_node5"><a xlink:href="http://sparql.cwrc.ca/ontologies/cwrc#christianity" xlink:title="Christianity" target="_parent">
<ellipse fill="none" stroke="black" cx="1129.89" cy="-90" rx="66.0889" ry="18"/>
<text text-anchor="middle" x="1129.89" y="-86.3" font-family="Times,serif" font-size="14.00">Christianity</text>
</a>
</g>
</g>
<!-- X6f203&#45;&gt;Xadf16 -->
<g id="edge2" class="edge"><title>X6f203&#45;&gt;Xadf16</title>
<path fill="none" stroke="black" d="M1129.89,-143.697C1129.89,-135.983 1129.89,-126.712 1129.89,-118.112"/>
<polygon fill="black" stroke="black" points="1133.39,-118.104 1129.89,-108.104 1126.39,-118.104 1133.39,-118.104"/>
</g>
<!-- Xb2336 -->
<g id="node6" class="node"><title>Xb2336</title>
<g id="a_node6"><a xlink:href="http://sparql.cwrc.ca/ontologies/cwrc#abrahamicReligions" xlink:title="Abrahamic religions" target="_parent">
<ellipse fill="none" stroke="black" cx="1317.89" cy="-18" rx="104.782" ry="18"/>
<text text-anchor="middle" x="1317.89" y="-14.3" font-family="Times,serif" font-size="14.00">Abrahamic religions</text>
</a>
</g>
</g>
<!-- Xadf16&#45;&gt;Xb2336 -->
<g id="edge3" class="edge"><title>Xadf16&#45;&gt;Xb2336</title>
<path fill="none" stroke="black" d="M1167.48,-75.0027C1195.94,-64.4085 1235.33,-49.7404 1266.67,-38.0733"/>
<polygon fill="black" stroke="black" points="1267.96,-41.3261 1276.11,-34.5567 1265.52,-34.7661 1267.96,-41.3261"/>
</g>
<!-- X3b80a -->
<g id="node8" class="node"><title>X3b80a</title>
<g id="a_node8"><a xlink:href="http://sparql.cwrc.ca/ontologies/cwrc#buddhism" xlink:title="Buddhism" target="_parent">
<ellipse fill="none" stroke="black" cx="1641.89" cy="-306" rx="57.6901" ry="18"/>
<text text-anchor="middle" x="1641.89" y="-302.3" font-family="Times,serif" font-size="14.00">Buddhism</text>
</a>
</g>
</g>
<!-- Xd35c6&#45;&gt;X3b80a -->
<!-- X36b94 -->
<g id="node13" class="node"><title>X36b94</title>
<g id="a_node13"><a xlink:href="http://sparql.cwrc.ca/ontologies/cwrc#agnosticism" xlink:title="Agnosticism" target="_parent">
<ellipse fill="none" stroke="black" cx="1641.89" cy="-234" rx="68.4888" ry="18"/>
<text text-anchor="middle" x="1641.89" y="-230.3" font-family="Times,serif" font-size="14.00">Agnosticism</text>
</a>
</g>
</g>
<!-- X3b80a&#45;&gt;X36b94 -->
<!-- X2a5d0 -->
<g id="node9" class="node"><title>X2a5d0</title>
<g id="a_node9"><a xlink:href="http://sparql.cwrc.ca/ontologies/cwrc#churchOfIreland" xlink:title="Church of Ireland" target="_parent">
<ellipse fill="none" stroke="black" cx="1308.89" cy="-234" rx="93.6835" ry="18"/>
<text text-anchor="middle" x="1308.89" y="-230.3" font-family="Times,serif" font-size="14.00">Church of Ireland</text>
</a>
</g>
</g>
<!-- Xf6f10 -->
<g id="node10" class="node"><title>Xf6f10</title>
<g id="a_node10"><a xlink:href="http://sparql.cwrc.ca/ontologies/cwrc#anglicanism" xlink:title="Anglicanism" target="_parent">
<ellipse fill="none" stroke="black" cx="1308.89" cy="-162" rx="68.4888" ry="18"/>
<text text-anchor="middle" x="1308.89" y="-158.3" font-family="Times,serif" font-size="14.00">Anglicanism</text>
</a>
</g>
</g>
<!-- X2a5d0&#45;&gt;Xf6f10 -->
<g id="edge6" class="edge"><title>X2a5d0&#45;&gt;Xf6f10</title>
<path fill="none" stroke="black" d="M1308.89,-215.697C1308.89,-207.983 1308.89,-198.712 1308.89,-190.112"/>
<polygon fill="black" stroke="black" points="1312.39,-190.104 1308.89,-180.104 1305.39,-190.104 1312.39,-190.104"/>
</g>
<!-- Xf6f10&#45;&gt;Xadf16 -->
<g id="edge7" class="edge"><title>Xf6f10&#45;&gt;Xadf16</title>
<path fill="none" stroke="black" d="M1272.24,-146.666C1244.27,-135.729 1205.58,-120.6 1175.6,-108.873"/>
<polygon fill="black" stroke="black" points="1176.78,-105.578 1166.19,-105.196 1174.23,-112.097 1176.78,-105.578"/>
</g>
<!-- Xe1e3e -->
<g id="node11" class="node"><title>Xe1e3e</title>
<g id="a_node11"><a xlink:href="http://sparql.cwrc.ca/ontologies/cwrc#methodism" xlink:title="Methodism" target="_parent">
<ellipse fill="none" stroke="black" cx="825.892" cy="-234" rx="63.8893" ry="18"/>
<text text-anchor="middle" x="825.892" y="-230.3" font-family="Times,serif" font-size="14.00">Methodism</text>
</a>
</g>
</g>
<!-- X4e4b1 -->
<g id="node12" class="node"><title>X4e4b1</title>
<g id="a_node12"><a xlink:href="http://sparql.cwrc.ca/ontologies/cwrc#protestantism" xlink:title="Protestantism" target="_parent">
<ellipse fill="none" stroke="black" cx="503.892" cy="-162" rx="76.8869" ry="18"/>
<text text-anchor="middle" x="503.892" y="-158.3" font-family="Times,serif" font-size="14.00">Protestantism</text>
</a>
</g>
</g>
<!-- Xe1e3e&#45;&gt;X4e4b1 -->
<g id="edge8" class="edge"><title>Xe1e3e&#45;&gt;X4e4b1</title>
<path fill="none" stroke="black" d="M777.211,-222.385C767.499,-220.268 757.371,-218.063 747.892,-216 686.865,-202.722 617.246,-187.602 568.035,-176.92"/>
<polygon fill="black" stroke="black" points="568.679,-173.478 558.164,-174.777 567.194,-180.319 568.679,-173.478"/>
</g>
<!-- X4e4b1&#45;&gt;Xadf16 -->
<g id="edge9" class="edge"><title>X4e4b1&#45;&gt;Xadf16</title>
<path fill="none" stroke="black" d="M571.479,-153.442C690.826,-140.097 937.743,-112.486 1059.24,-98.9006"/>
<polygon fill="black" stroke="black" points="1059.99,-102.339 1069.53,-97.7492 1059.21,-95.3822 1059.99,-102.339"/>
</g>
<!-- X43c0c -->
<g id="node21" class="node"><title>X43c0c</title>
<g id="a_node21"><a xlink:href="http://sparql.cwrc.ca/ontologies/cwrc#occultism" xlink:title="Occultism/Theosophism" target="_parent">
<ellipse fill="none" stroke="black" cx="1641.89" cy="-162" rx="122.379" ry="18"/>
<text text-anchor="middle" x="1641.89" y="-158.3" font-family="Times,serif" font-size="14.00">Occultism/Theosophism</text>
</a>
</g>
</g>
<!-- X36b94&#45;&gt;X43c0c -->
<!-- Xe7b0a -->
<g id="node14" class="node"><title>Xe7b0a</title>
<g id="a_node14"><a xlink:href="http://sparql.cwrc.ca/ontologies/cwrc#neo-thomism" xlink:title="Neo&#45;thomism" target="_parent">
<ellipse fill="none" stroke="black" cx="1782.89" cy="-450" rx="73.387" ry="18"/>
<text text-anchor="middle" x="1782.89" y="-446.3" font-family="Times,serif" font-size="14.00">Neo&#45;thomism</text>
</a>
</g>
</g>
<!-- X752f2 -->
<g id="node15" class="node"><title>X752f2</title>
<ellipse fill="none" stroke="black" cx="1832.89" cy="-378" rx="44.393" ry="18"/>
<text text-anchor="middle" x="1832.89" y="-374.3" font-family="Times,serif" font-size="14.00">X752f2</text>
</g>
<!-- Xe7b0a&#45;&gt;X752f2 -->
<g id="edge11" class="edge"><title>Xe7b0a&#45;&gt;X752f2</title>
<path fill="none" stroke="black" d="M1795,-432.055C1801.01,-423.629 1808.41,-413.28 1815.06,-403.966"/>
<polygon fill="black" stroke="black" points="1817.94,-405.961 1820.9,-395.789 1812.24,-401.892 1817.94,-405.961"/>
</g>
<!-- X043aa -->
<g id="node16" class="node"><title>X043aa</title>
<g id="a_node16"><a xlink:href="http://sparql.cwrc.ca/ontologies/cwrc#unitarianism" xlink:title="Unitarianism" target="_parent">
<ellipse fill="none" stroke="black" cx="328.892" cy="-306" rx="71.4873" ry="18"/>
<text text-anchor="middle" x="328.892" y="-302.3" font-family="Times,serif" font-size="14.00">Unitarianism</text>
</a>
</g>
</g>
<!-- X043aa&#45;&gt;X4e4b1 -->
<g id="edge12" class="edge"><title>X043aa&#45;&gt;X4e4b1</title>
<path fill="none" stroke="black" d="M342.43,-288.246C358.278,-269.286 385.93,-238.166 413.892,-216 429.096,-203.947 447.313,-192.71 463.369,-183.714"/>
<polygon fill="black" stroke="black" points="465.449,-186.564 472.533,-178.686 462.082,-180.427 465.449,-186.564"/>
</g>
<!-- X8fa8b -->
<g id="node17" class="node"><title>X8fa8b</title>
<g id="a_node17"><a xlink:href="http://sparql.cwrc.ca/ontologies/cwrc#plymouthBrethren" xlink:title="Plymouth Brethren" target="_parent">
<ellipse fill="none" stroke="black" cx="337.892" cy="-378" rx="100.182" ry="18"/>
<text text-anchor="middle" x="337.892" y="-374.3" font-family="Times,serif" font-size="14.00">Plymouth Brethren</text>
</a>
</g>
</g>
<!-- X8fa8b&#45;&gt;X4e4b1 -->
<g id="edge13" class="edge"><title>X8fa8b&#45;&gt;X4e4b1</title>
<path fill="none" stroke="black" d="M366.851,-360.65C381.084,-351.417 397.565,-338.769 408.892,-324 440.332,-283.003 423.691,-259.289 451.892,-216 458.749,-205.474 467.921,-195.282 476.651,-186.694"/>
<polygon fill="black" stroke="black" points="479.292,-189.013 484.141,-179.593 474.476,-183.934 479.292,-189.013"/>
</g>
<!-- X253de -->
<g id="node18" class="node"><title>X253de</title>
<g id="a_node18"><a xlink:href="http://sparql.cwrc.ca/ontologies/cwrc#quakerism" xlink:title="Quakerism" target="_parent">
<ellipse fill="none" stroke="black" cx="269.892" cy="-234" rx="61.99" ry="18"/>
<text text-anchor="middle" x="269.892" y="-230.3" font-family="Times,serif" font-size="14.00">Quakerism</text>
</a>
</g>
</g>
<!-- X253de&#45;&gt;X4e4b1 -->
<g id="edge14" class="edge"><title>X253de&#45;&gt;X4e4b1</title>
<path fill="none" stroke="black" d="M311.456,-220.566C349.634,-209.145 406.493,-192.136 448.513,-179.566"/>
<polygon fill="black" stroke="black" points="449.738,-182.853 458.315,-176.634 447.732,-176.147 449.738,-182.853"/>
</g>
<!-- X991c3 -->
<g id="node19" class="node"><title>X991c3</title>
<ellipse fill="none" stroke="black" cx="254.892" cy="-162" rx="46.2923" ry="18"/>
<text text-anchor="middle" x="254.892" y="-158.3" font-family="Times,serif" font-size="14.00">X991c3</text>
</g>
<!-- X253de&#45;&gt;X991c3 -->
<g id="edge15" class="edge"><title>X253de&#45;&gt;X991c3</title>
<path fill="none" stroke="black" d="M266.184,-215.697C264.531,-207.983 262.544,-198.712 260.701,-190.112"/>
<polygon fill="black" stroke="black" points="264.074,-189.149 258.557,-180.104 257.23,-190.616 264.074,-189.149"/>
</g>
<!-- Xd53bc -->
<g id="node20" class="node"><title>Xd53bc</title>
<g id="a_node20"><a xlink:href="http://sparql.cwrc.ca/ontologies/cwrc#baptistChristianity" xlink:title="Baptist Christianity" target="_parent">
<ellipse fill="none" stroke="black" cx="372.892" cy="-450" rx="102.882" ry="18"/>
<text text-anchor="middle" x="372.892" y="-446.3" font-family="Times,serif" font-size="14.00">Baptist Christianity</text>
</a>
</g>
</g>
<!-- Xd53bc&#45;&gt;X4e4b1 -->
<g id="edge16" class="edge"><title>Xd53bc&#45;&gt;X4e4b1</title>
<path fill="none" stroke="black" d="M405.149,-432.891C419.953,-423.944 436.488,-411.475 446.892,-396 492.781,-327.74 469.832,-295.767 489.892,-216 492.013,-207.564 494.405,-198.395 496.603,-190.092"/>
<polygon fill="black" stroke="black" points="500.057,-190.723 499.249,-180.159 493.292,-188.921 500.057,-190.723"/>
</g>
<!-- X930a7 -->
<g id="node25" class="node"><title>X930a7</title>
<g id="a_node25"><a xlink:href="http://sparql.cwrc.ca/ontologies/cwrc#Pantheism" xlink:title="Pantheism" target="_parent">
<ellipse fill="none" stroke="black" cx="1641.89" cy="-90" rx="59.5901" ry="18"/>
<text text-anchor="middle" x="1641.89" y="-86.3" font-family="Times,serif" font-size="14.00">Pantheism</text>
</a>
</g>
</g>
<!-- X43c0c&#45;&gt;X930a7 -->
<!-- X32f53 -->
<g id="node22" class="node"><title>X32f53</title>
<g id="a_node22"><a xlink:href="http://sparql.cwrc.ca/ontologies/cwrc#catholicism" xlink:title="Roman Catholicism" target="_parent">
<ellipse fill="none" stroke="black" cx="1008.89" cy="-234" rx="101.282" ry="18"/>
<text text-anchor="middle" x="1008.89" y="-230.3" font-family="Times,serif" font-size="14.00">Roman Catholicism</text>
</a>
</g>
</g>
<!-- X32f53&#45;&gt;Xadf16 -->
<g id="edge18" class="edge"><title>X32f53&#45;&gt;Xadf16</title>
<path fill="none" stroke="black" d="M1008.39,-215.819C1008.69,-196.469 1011.9,-164.99 1027.89,-144 1040.3,-127.71 1059.15,-115.964 1077.28,-107.736"/>
<polygon fill="black" stroke="black" points="1078.83,-110.882 1086.66,-103.749 1076.09,-104.44 1078.83,-110.882"/>
</g>
<!-- Xd32ac -->
<g id="node23" class="node"><title>Xd32ac</title>
<g id="a_node23"><a xlink:href="http://sparql.cwrc.ca/ontologies/cwrc#judaism" xlink:title="Judaism" target="_parent">
<ellipse fill="none" stroke="black" cx="1317.89" cy="-90" rx="48.1917" ry="18"/>
<text text-anchor="middle" x="1317.89" y="-86.3" font-family="Times,serif" font-size="14.00">Judaism</text>
</a>
</g>
</g>
<!-- Xd32ac&#45;&gt;Xb2336 -->
<g id="edge19" class="edge"><title>Xd32ac&#45;&gt;Xb2336</title>
<path fill="none" stroke="black" d="M1317.89,-71.6966C1317.89,-63.9827 1317.89,-54.7125 1317.89,-46.1124"/>
<polygon fill="black" stroke="black" points="1321.39,-46.1043 1317.89,-36.1043 1314.39,-46.1044 1321.39,-46.1043"/>
</g>
<!-- X156db -->
<g id="node24" class="node"><title>X156db</title>
<g id="a_node24"><a xlink:href="http://sparql.cwrc.ca/ontologies/cwrc#dissentProtestant" xlink:title="Dissent (Protestant)" target="_parent">
<ellipse fill="none" stroke="black" cx="1430.89" cy="-306" rx="104.782" ry="18"/>
<text text-anchor="middle" x="1430.89" y="-302.3" font-family="Times,serif" font-size="14.00">Dissent (Protestant)</text>
</a>
</g>
</g>
<!-- X156db&#45;&gt;Xf6f10 -->
<g id="edge20" class="edge"><title>X156db&#45;&gt;Xf6f10</title>
<path fill="none" stroke="black" d="M1431.41,-287.808C1431.12,-268.446 1427.92,-236.958 1411.89,-216 1399.46,-199.745 1380.63,-188.038 1362.47,-179.832"/>
<polygon fill="black" stroke="black" points="1363.63,-176.527 1353.06,-175.855 1360.91,-182.974 1363.63,-176.527"/>
</g>
<!-- X37200 -->
<g id="node30" class="node"><title>X37200</title>
<g id="a_node30"><a xlink:href="http://sparql.cwrc.ca/ontologies/cwrc#paganism" xlink:title="Paganism" target="_parent">
<ellipse fill="none" stroke="black" cx="1641.89" cy="-18" rx="55.7903" ry="18"/>
<text text-anchor="middle" x="1641.89" y="-14.3" font-family="Times,serif" font-size="14.00">Paganism</text>
</a>
</g>
</g>
<!-- X930a7&#45;&gt;X37200 -->
<!-- Xc1422 -->
<g id="node26" class="node"><title>Xc1422</title>
<g id="a_node26"><a xlink:href="http://sparql.cwrc.ca/ontologies/cwrc#islam" xlink:title="Islamism" target="_parent">
<ellipse fill="none" stroke="black" cx="1448.89" cy="-162" rx="53.0913" ry="18"/>
<text text-anchor="middle" x="1448.89" y="-158.3" font-family="Times,serif" font-size="14.00">Islamism</text>
</a>
</g>
</g>
<!-- Xc1422&#45;&gt;Xb2336 -->
<g id="edge22" class="edge"><title>Xc1422&#45;&gt;Xb2336</title>
<path fill="none" stroke="black" d="M1436.13,-144.388C1421.83,-126.096 1397.68,-96.0856 1374.89,-72 1365.44,-62.0084 1354.49,-51.5833 1344.73,-42.649"/>
<polygon fill="black" stroke="black" points="1346.97,-39.9574 1337.21,-35.8403 1342.28,-45.1466 1346.97,-39.9574"/>
</g>
<!-- X1cc79 -->
<g id="node27" class="node"><title>X1cc79</title>
<g id="a_node27"><a xlink:href="http://sparql.cwrc.ca/ontologies/cwrc#lollardy" xlink:title="Lollardy" target="_parent">
<ellipse fill="none" stroke="black" cx="1883.89" cy="-522" rx="49.2915" ry="18"/>
<text text-anchor="middle" x="1883.89" y="-518.3" font-family="Times,serif" font-size="14.00">Lollardy</text>
</a>
</g>
</g>
<!-- X1cc79&#45;&gt;X752f2 -->
<g id="edge23" class="edge"><title>X1cc79&#45;&gt;X752f2</title>
<path fill="none" stroke="black" d="M1881.94,-503.778C1879.48,-485.481 1874.37,-455.947 1864.89,-432 1861.08,-422.357 1855.59,-412.454 1850.24,-403.857"/>
<polygon fill="black" stroke="black" points="1853.16,-401.925 1844.78,-395.436 1847.28,-405.732 1853.16,-401.925"/>
</g>
<!-- X7477d -->
<g id="node28" class="node"><title>X7477d</title>
<g id="a_node28"><a xlink:href="http://sparql.cwrc.ca/ontologies/cwrc#congregationalism" xlink:title="Congregationalism" target="_parent">
<ellipse fill="none" stroke="black" cx="503.892" cy="-522" rx="98.5829" ry="18"/>
<text text-anchor="middle" x="503.892" y="-518.3" font-family="Times,serif" font-size="14.00">Congregationalism</text>
</a>
</g>
</g>
<!-- X7477d&#45;&gt;X4e4b1 -->
<g id="edge24" class="edge"><title>X7477d&#45;&gt;X4e4b1</title>
<path fill="none" stroke="black" d="M503.892,-503.951C503.892,-477.292 503.892,-424.115 503.892,-379 503.892,-379 503.892,-379 503.892,-305 503.892,-264.996 503.892,-218.653 503.892,-190.08"/>
<polygon fill="black" stroke="black" points="507.392,-190.049 503.892,-180.049 500.392,-190.049 507.392,-190.049"/>
</g>
<!-- X0e2fa -->
<g id="node29" class="node"><title>X0e2fa</title>
<g id="a_node29"><a xlink:href="http://sparql.cwrc.ca/ontologies/cwrc#presbyterianism" xlink:title="Presbyterianism" target="_parent">
<ellipse fill="none" stroke="black" cx="618.892" cy="-234" rx="87.1846" ry="18"/>
<text text-anchor="middle" x="618.892" y="-230.3" font-family="Times,serif" font-size="14.00">Presbyterianism</text>
</a>
</g>
</g>
<!-- X0e2fa&#45;&gt;X4e4b1 -->
<g id="edge25" class="edge"><title>X0e2fa&#45;&gt;X4e4b1</title>
<path fill="none" stroke="black" d="M592.219,-216.765C576.398,-207.135 556.157,-194.814 539.043,-184.397"/>
<polygon fill="black" stroke="black" points="540.781,-181.357 530.419,-179.147 537.141,-187.337 540.781,-181.357"/>
</g>
<!-- Xd2614 -->
<g id="node31" class="node"><title>Xd2614</title>
<g id="a_node31"><a xlink:href="http://sparql.cwrc.ca/ontologies/cwrc#fifthMonarchists" xlink:title="Fifth Monarchists" target="_parent">
<ellipse fill="none" stroke="black" cx="94.8916" cy="-234" rx="94.7833" ry="18"/>
<text text-anchor="middle" x="94.8916" y="-230.3" font-family="Times,serif" font-size="14.00">Fifth Monarchists</text>
</a>
</g>
</g>
<!-- Xd2614&#45;&gt;Xb45be -->
<g id="edge27" class="edge"><title>Xd2614&#45;&gt;Xb45be</title>
<path fill="none" stroke="black" d="M94.8916,-215.697C94.8916,-207.983 94.8916,-198.712 94.8916,-190.112"/>
<polygon fill="black" stroke="black" points="98.3917,-190.104 94.8916,-180.104 91.3917,-190.104 98.3917,-190.104"/>
</g>
<!-- Xd2614&#45;&gt;X991c3 -->
<g id="edge28" class="edge"><title>Xd2614&#45;&gt;X991c3</title>
<path fill="none" stroke="black" d="M130.799,-217.291C156.155,-206.197 190.105,-191.344 216.084,-179.978"/>
<polygon fill="black" stroke="black" points="217.506,-183.177 225.265,-175.962 214.7,-176.764 217.506,-183.177"/>
</g>
<!-- Xb800b -->
<g id="node32" class="node"><title>Xb800b</title>
<g id="a_node32"><a xlink:href="http://sparql.cwrc.ca/ontologies/cwrc#tractarianMovement" xlink:title="Tractarian Movement" target="_parent">
<ellipse fill="none" stroke="black" cx="1186.89" cy="-378" rx="112.38" ry="18"/>
<text text-anchor="middle" x="1186.89" y="-374.3" font-family="Times,serif" font-size="14.00">Tractarian Movement</text>
</a>
</g>
</g>
<!-- Xb800b&#45;&gt;Xf6f10 -->
<g id="edge29" class="edge"><title>Xb800b&#45;&gt;Xf6f10</title>
<path fill="none" stroke="black" d="M1184.02,-359.675C1179.75,-328.051 1175.25,-260.169 1205.89,-216 1217.46,-199.326 1235.91,-187.562 1254.02,-179.428"/>
<polygon fill="black" stroke="black" points="1255.55,-182.584 1263.42,-175.499 1252.85,-176.126 1255.55,-182.584"/>
</g>
<!-- X9deb8 -->
<g id="node33" class="node"><title>X9deb8</title>
<g id="a_node33"><a xlink:href="http://sparql.cwrc.ca/ontologies/cwrc#dissentingChristianity" xlink:title="Dissenting Christianity" target="_parent">
<ellipse fill="none" stroke="black" cx="733.892" cy="-306" rx="118.879" ry="18"/>
<text text-anchor="middle" x="733.892" y="-302.3" font-family="Times,serif" font-size="14.00">Dissenting Christianity</text>
</a>
</g>
</g>
<!-- X9deb8&#45;&gt;X4e4b1 -->
<g id="edge30" class="edge"><title>X9deb8&#45;&gt;X4e4b1</title>
<path fill="none" stroke="black" d="M735.224,-287.807C735.773,-267.847 733.432,-235.215 714.892,-216 696.013,-196.434 631.634,-182.112 578.902,-173.325"/>
<polygon fill="black" stroke="black" points="579.299,-169.844 568.867,-171.695 578.177,-176.753 579.299,-169.844"/>
</g>
</g>
</svg>
