<?xml version="1.0" encoding="UTF-8" standalone="no"?>
<!DOCTYPE svg PUBLIC "-//W3C//DTD SVG 1.1//EN"
 "http://www.w3.org/Graphics/SVG/1.1/DTD/svg11.dtd">
<!-- Generated by graphviz version 2.38.0 (20140413.2041)
 -->
<!-- Title: ReligionGraph Pages: 1 -->
<svg width="2160pt" height="508pt"
 viewBox="0.00 0.00 2160.00 508.00" xmlns="http://www.w3.org/2000/svg" xmlns:xlink="http://www.w3.org/1999/xlink">
<g id="graph0" class="graph" transform="scale(0.927005 0.927005) rotate(0) translate(4 544)">
<title>ReligionGraph</title>
<polygon fill="white" stroke="none" points="-4,4 -4,-544 2326.09,-544 2326.09,4 -4,4"/>
<!-- Xc1422 -->
<g id="node1" class="node"><title>Xc1422</title>
<g id="a_node1"><a xlink:href="http://sparql.cwrc.ca/ontologies/cwrc#islam" xlink:title="Religion Mahométane" target="_parent">
<ellipse fill="none" stroke="black" cx="1424.94" cy="-90" rx="112.38" ry="18"/>
<text text-anchor="middle" x="1424.94" y="-86.3" font-family="Times,serif" font-size="14.00">Religion Mahométane</text>
</a>
</g>
</g>
<!-- Xb2336 -->
<g id="node2" class="node"><title>Xb2336</title>
<g id="a_node2"><a xlink:href="http://sparql.cwrc.ca/ontologies/cwrc#abrahamicReligions" xlink:title="Religions abrahamiques" target="_parent">
<ellipse fill="none" stroke="black" cx="1424.94" cy="-18" rx="122.379" ry="18"/>
<text text-anchor="middle" x="1424.94" y="-14.3" font-family="Times,serif" font-size="14.00">Religions abrahamiques</text>
</a>
</g>
</g>
<!-- Xc1422&#45;&gt;Xb2336 -->
<g id="edge1" class="edge"><title>Xc1422&#45;&gt;Xb2336</title>
<path fill="none" stroke="black" d="M1413.19,-72.055C1411.55,-64.3456 1411.06,-55.0269 1411.73,-46.3642"/>
<polygon fill="black" stroke="black" points="1415.22,-46.6584 1413.12,-36.2753 1408.29,-45.7065 1415.22,-46.6584"/>
</g>
<!-- Xc1422&#45;&gt;Xb2336 -->
<g id="edge2" class="edge"><title>Xc1422&#45;&gt;Xb2336</title>
<path fill="none" stroke="black" d="M1424.94,-71.6966C1424.94,-63.9827 1424.94,-54.7125 1424.94,-46.1124"/>
<polygon fill="black" stroke="black" points="1428.44,-46.1043 1424.94,-36.1043 1421.44,-46.1044 1428.44,-46.1043"/>
</g>
<!-- Xc1422&#45;&gt;Xb2336 -->
<g id="edge3" class="edge"><title>Xc1422&#45;&gt;Xb2336</title>
<path fill="none" stroke="black" d="M1436.7,-72.055C1438.33,-64.3456 1438.82,-55.0269 1438.15,-46.3642"/>
<polygon fill="black" stroke="black" points="1441.59,-45.7065 1436.77,-36.2753 1434.66,-46.6584 1441.59,-45.7065"/>
</g>
<!-- X7477d -->
<g id="node3" class="node"><title>X7477d</title>
<g id="a_node3"><a xlink:href="http://sparql.cwrc.ca/ontologies/cwrc#congregationalism" xlink:title="Églises congrégationalistes" target="_parent">
<ellipse fill="none" stroke="black" cx="728.942" cy="-234" rx="139.175" ry="18"/>
<text text-anchor="middle" x="728.942" y="-230.3" font-family="Times,serif" font-size="14.00">Églises congrégationalistes</text>
</a>
</g>
</g>
<!-- X4e4b1 -->
<g id="node4" class="node"><title>X4e4b1</title>
<g id="a_node4"><a xlink:href="http://sparql.cwrc.ca/ontologies/cwrc#protestantism" xlink:title="protestantisme" target="_parent">
<ellipse fill="none" stroke="black" cx="593.942" cy="-162" rx="81.4863" ry="18"/>
<text text-anchor="middle" x="593.942" y="-158.3" font-family="Times,serif" font-size="14.00">protestantisme</text>
</a>
</g>
</g>
<!-- X7477d&#45;&gt;X4e4b1 -->
<g id="edge4" class="edge"><title>X7477d&#45;&gt;X4e4b1</title>
<path fill="none" stroke="black" d="M696.949,-216.411C677.881,-206.524 653.529,-193.897 633.29,-183.403"/>
<polygon fill="black" stroke="black" points="634.803,-180.245 624.315,-178.749 631.581,-186.459 634.803,-180.245"/>
</g>
<!-- Xadf16 -->
<g id="node5" class="node"><title>Xadf16</title>
<g id="a_node5"><a xlink:href="http://sparql.cwrc.ca/ontologies/cwrc#christianity" xlink:title="Christianisme" target="_parent">
<ellipse fill="none" stroke="black" cx="1630.94" cy="-90" rx="76.0865" ry="18"/>
<text text-anchor="middle" x="1630.94" y="-86.3" font-family="Times,serif" font-size="14.00">Christianisme</text>
</a>
</g>
</g>
<!-- X4e4b1&#45;&gt;Xadf16 -->
<g id="edge5" class="edge"><title>X4e4b1&#45;&gt;Xadf16</title>
<path fill="none" stroke="black" d="M674.847,-160.356C839.496,-158.196 1225.11,-148.804 1545.94,-108 1553.02,-107.099 1560.4,-105.949 1567.72,-104.672"/>
<polygon fill="black" stroke="black" points="1568.42,-108.102 1577.63,-102.864 1567.16,-101.215 1568.42,-108.102"/>
</g>
<!-- Xadf16&#45;&gt;Xb2336 -->
<g id="edge11" class="edge"><title>Xadf16&#45;&gt;Xb2336</title>
<path fill="none" stroke="black" d="M1589.25,-74.8345C1558.12,-64.2536 1515.22,-49.6786 1481.07,-38.0731"/>
<polygon fill="black" stroke="black" points="1481.83,-34.6334 1471.23,-34.7298 1479.57,-41.2612 1481.83,-34.6334"/>
</g>
<!-- X7152e -->
<g id="node6" class="node"><title>X7152e</title>
<g id="a_node6"><a xlink:href="http://sparql.cwrc.ca/ontologies/cwrc#atheism" xlink:title="athéisme" target="_parent">
<ellipse fill="none" stroke="black" cx="2249.94" cy="-522" rx="53.0913" ry="18"/>
<text text-anchor="middle" x="2249.94" y="-518.3" font-family="Times,serif" font-size="14.00">athéisme</text>
</a>
</g>
</g>
<!-- X43c0c -->
<g id="node7" class="node"><title>X43c0c</title>
<g id="a_node7"><a xlink:href="http://sparql.cwrc.ca/ontologies/cwrc#occultism" xlink:title="occultisme" target="_parent">
<ellipse fill="none" stroke="black" cx="2249.94" cy="-450" rx="61.99" ry="18"/>
<text text-anchor="middle" x="2249.94" y="-446.3" font-family="Times,serif" font-size="14.00">occultisme</text>
</a>
</g>
</g>
<!-- X7152e&#45;&gt;X43c0c -->
<!-- X52798 -->
<g id="node10" class="node"><title>X52798</title>
<g id="a_node10"><a xlink:href="http://sparql.cwrc.ca/ontologies/cwrc#pantheism" xlink:title="Panthéisme" target="_parent">
<ellipse fill="none" stroke="black" cx="2249.94" cy="-378" rx="64.9885" ry="18"/>
<text text-anchor="middle" x="2249.94" y="-374.3" font-family="Times,serif" font-size="14.00">Panthéisme</text>
</a>
</g>
</g>
<!-- X43c0c&#45;&gt;X52798 -->
<!-- Xd53bc -->
<g id="node8" class="node"><title>Xd53bc</title>
<g id="a_node8"><a xlink:href="http://sparql.cwrc.ca/ontologies/cwrc#baptistChristianity" xlink:title="Baptisme" target="_parent">
<ellipse fill="none" stroke="black" cx="175.942" cy="-306" rx="54.6905" ry="18"/>
<text text-anchor="middle" x="175.942" y="-302.3" font-family="Times,serif" font-size="14.00">Baptisme</text>
</a>
</g>
</g>
<!-- Xd53bc&#45;&gt;X4e4b1 -->
<g id="edge7" class="edge"><title>Xd53bc&#45;&gt;X4e4b1</title>
<path fill="none" stroke="black" d="M174.257,-287.79C173.313,-267.499 175.221,-234.235 194.942,-216 238.327,-175.884 398.52,-165.641 502.257,-163.308"/>
<polygon fill="black" stroke="black" points="502.499,-166.804 512.426,-163.101 502.356,-159.806 502.499,-166.804"/>
</g>
<!-- Xe1e3e -->
<g id="node9" class="node"><title>Xe1e3e</title>
<g id="a_node9"><a xlink:href="http://sparql.cwrc.ca/ontologies/cwrc#methodism" xlink:title="Église méthodiste" target="_parent">
<ellipse fill="none" stroke="black" cx="810.942" cy="-378" rx="94.7833" ry="18"/>
<text text-anchor="middle" x="810.942" y="-374.3" font-family="Times,serif" font-size="14.00">Église méthodiste</text>
</a>
</g>
</g>
<!-- Xe1e3e&#45;&gt;X4e4b1 -->
<g id="edge8" class="edge"><title>Xe1e3e&#45;&gt;X4e4b1</title>
<path fill="none" stroke="black" d="M828.2,-360.212C858.34,-328.877 913.988,-260.628 876.942,-216 852.509,-186.567 756.138,-173.384 682.578,-167.54"/>
<polygon fill="black" stroke="black" points="682.597,-164.032 672.36,-166.763 682.066,-171.011 682.597,-164.032"/>
</g>
<!-- Xc7ed9 -->
<g id="node11" class="node"><title>Xc7ed9</title>
<g id="a_node11"><a xlink:href="http://sparql.cwrc.ca/ontologies/cwrc#hinduism" xlink:title="Hindou" target="_parent">
<ellipse fill="none" stroke="black" cx="2249.94" cy="-306" rx="44.6926" ry="18"/>
<text text-anchor="middle" x="2249.94" y="-302.3" font-family="Times,serif" font-size="14.00">Hindou</text>
</a>
</g>
</g>
<!-- X52798&#45;&gt;Xc7ed9 -->
<!-- Xd35c6 -->
<g id="node16" class="node"><title>Xd35c6</title>
<g id="a_node16"><a xlink:href="http://sparql.cwrc.ca/ontologies/cwrc#spiritualism" xlink:title="Spritisme" target="_parent">
<ellipse fill="none" stroke="black" cx="2249.94" cy="-234" rx="55.7903" ry="18"/>
<text text-anchor="middle" x="2249.94" y="-230.3" font-family="Times,serif" font-size="14.00">Spritisme</text>
</a>
</g>
</g>
<!-- Xc7ed9&#45;&gt;Xd35c6 -->
<!-- Xd2614 -->
<g id="node12" class="node"><title>Xd2614</title>
<g id="a_node12"><a xlink:href="http://sparql.cwrc.ca/ontologies/cwrc#fifthMonarchists" xlink:title="Cinquièmes Monarchistes" target="_parent">
<ellipse fill="none" stroke="black" cx="1430.94" cy="-306" rx="132.677" ry="18"/>
<text text-anchor="middle" x="1430.94" y="-302.3" font-family="Times,serif" font-size="14.00">Cinquièmes Monarchistes</text>
</a>
</g>
</g>
<!-- X156db -->
<g id="node13" class="node"><title>X156db</title>
<g id="a_node13"><a xlink:href="http://sparql.cwrc.ca/ontologies/cwrc#dissentProtestant" xlink:title="dissidents (ou non&#45;conformistes)" target="_parent">
<ellipse fill="none" stroke="black" cx="1161.94" cy="-234" rx="162.471" ry="18"/>
<text text-anchor="middle" x="1161.94" y="-230.3" font-family="Times,serif" font-size="14.00">dissidents (ou non&#45;conformistes)</text>
</a>
</g>
</g>
<!-- Xd2614&#45;&gt;X156db -->
<g id="edge12" class="edge"><title>Xd2614&#45;&gt;X156db</title>
<path fill="none" stroke="black" d="M1372.57,-289.811C1331.34,-279.082 1275.88,-264.65 1232.22,-253.288"/>
<polygon fill="black" stroke="black" points="1233.09,-249.897 1222.53,-250.766 1231.32,-256.672 1233.09,-249.897"/>
</g>
<!-- Xb45be -->
<g id="node14" class="node"><title>Xb45be</title>
<g id="a_node14"><a xlink:href="http://sparql.cwrc.ca/ontologies/cwrc#millenarianism" xlink:title="millénarisme, ou chiliasme" target="_parent">
<ellipse fill="none" stroke="black" cx="1654.94" cy="-234" rx="135.676" ry="18"/>
<text text-anchor="middle" x="1654.94" y="-230.3" font-family="Times,serif" font-size="14.00">millénarisme, ou chiliasme</text>
</a>
</g>
</g>
<!-- Xd2614&#45;&gt;Xb45be -->
<g id="edge13" class="edge"><title>Xd2614&#45;&gt;Xb45be</title>
<path fill="none" stroke="black" d="M1481.21,-289.291C1514.81,-278.79 1559.2,-264.92 1594.69,-253.828"/>
<polygon fill="black" stroke="black" points="1595.95,-257.101 1604.45,-250.778 1593.86,-250.42 1595.95,-257.101"/>
</g>
<!-- Xf6f10 -->
<g id="node15" class="node"><title>Xf6f10</title>
<g id="a_node15"><a xlink:href="http://sparql.cwrc.ca/ontologies/cwrc#anglicanism" xlink:title="Église d&#39;Angleterre" target="_parent">
<ellipse fill="none" stroke="black" cx="1458.94" cy="-162" rx="100.983" ry="18"/>
<text text-anchor="middle" x="1458.94" y="-158.3" font-family="Times,serif" font-size="14.00">Église d&#39;Angleterre</text>
</a>
</g>
</g>
<!-- X156db&#45;&gt;Xf6f10 -->
<g id="edge14" class="edge"><title>X156db&#45;&gt;Xf6f10</title>
<path fill="none" stroke="black" d="M1227.86,-217.465C1276.3,-206.047 1341.94,-190.577 1390.88,-179.042"/>
<polygon fill="black" stroke="black" points="1391.82,-182.417 1400.75,-176.716 1390.21,-175.604 1391.82,-182.417"/>
</g>
<!-- Xf6f10&#45;&gt;Xadf16 -->
<g id="edge19" class="edge"><title>Xf6f10&#45;&gt;Xadf16</title>
<path fill="none" stroke="black" d="M1497.54,-145.291C1523.5,-134.726 1557.84,-120.75 1585.18,-109.625"/>
<polygon fill="black" stroke="black" points="1586.59,-112.83 1594.53,-105.819 1583.95,-106.347 1586.59,-112.83"/>
</g>
<!-- X37200 -->
<g id="node21" class="node"><title>X37200</title>
<g id="a_node21"><a xlink:href="http://sparql.cwrc.ca/ontologies/cwrc#paganism" xlink:title="Paganisme" target="_parent">
<ellipse fill="none" stroke="black" cx="2249.94" cy="-162" rx="61.1893" ry="18"/>
<text text-anchor="middle" x="2249.94" y="-158.3" font-family="Times,serif" font-size="14.00">Paganisme</text>
</a>
</g>
</g>
<!-- Xd35c6&#45;&gt;X37200 -->
<!-- Xe7b0a -->
<g id="node17" class="node"><title>Xe7b0a</title>
<g id="a_node17"><a xlink:href="http://sparql.cwrc.ca/ontologies/cwrc#neo-thomism" xlink:title="néothomisme" target="_parent">
<ellipse fill="none" stroke="black" cx="1919.94" cy="-234" rx="73.387" ry="18"/>
<text text-anchor="middle" x="1919.94" y="-230.3" font-family="Times,serif" font-size="14.00">néothomisme</text>
</a>
</g>
</g>
<!-- X32f53 -->
<g id="node18" class="node"><title>X32f53</title>
<g id="a_node18"><a xlink:href="http://sparql.cwrc.ca/ontologies/cwrc#catholicism" xlink:title="Catholicisme" target="_parent">
<ellipse fill="none" stroke="black" cx="1802.94" cy="-162" rx="71.4873" ry="18"/>
<text text-anchor="middle" x="1802.94" y="-158.3" font-family="Times,serif" font-size="14.00">Catholicisme</text>
</a>
</g>
</g>
<!-- Xe7b0a&#45;&gt;X32f53 -->
<g id="edge16" class="edge"><title>Xe7b0a&#45;&gt;X32f53</title>
<path fill="none" stroke="black" d="M1893.39,-217.116C1877.09,-207.36 1856,-194.747 1838.3,-184.152"/>
<polygon fill="black" stroke="black" points="1839.76,-180.952 1829.39,-178.821 1836.17,-186.959 1839.76,-180.952"/>
</g>
<!-- X32f53&#45;&gt;Xadf16 -->
<g id="edge17" class="edge"><title>X32f53&#45;&gt;Xadf16</title>
<path fill="none" stroke="black" d="M1766.88,-146.326C1740.8,-135.711 1705.34,-121.278 1677.17,-109.816"/>
<polygon fill="black" stroke="black" points="1678.13,-106.424 1667.54,-105.896 1675.49,-112.907 1678.13,-106.424"/>
</g>
<!-- Xb800b -->
<g id="node19" class="node"><title>Xb800b</title>
<g id="a_node19"><a xlink:href="http://sparql.cwrc.ca/ontologies/cwrc#tractarianMovement" xlink:title="tractarianisme" target="_parent">
<ellipse fill="none" stroke="black" cx="1421.94" cy="-234" rx="79.0865" ry="18"/>
<text text-anchor="middle" x="1421.94" y="-230.3" font-family="Times,serif" font-size="14.00">tractarianisme</text>
</a>
</g>
</g>
<!-- Xb800b&#45;&gt;Xf6f10 -->
<g id="edge18" class="edge"><title>Xb800b&#45;&gt;Xf6f10</title>
<path fill="none" stroke="black" d="M1430.9,-216.055C1435.15,-208.007 1440.33,-198.205 1445.08,-189.226"/>
<polygon fill="black" stroke="black" points="1448.23,-190.752 1449.81,-180.275 1442.04,-187.481 1448.23,-190.752"/>
</g>
<!-- X9deb8 -->
<g id="node20" class="node"><title>X9deb8</title>
<g id="a_node20"><a xlink:href="http://sparql.cwrc.ca/ontologies/cwrc#dissentingChristianity" xlink:title="Dissidence anglaise" target="_parent">
<ellipse fill="none" stroke="black" cx="933.942" cy="-450" rx="102.882" ry="18"/>
<text text-anchor="middle" x="933.942" y="-446.3" font-family="Times,serif" font-size="14.00">Dissidence anglaise</text>
</a>
</g>
</g>
<!-- X9deb8&#45;&gt;X4e4b1 -->
<g id="edge20" class="edge"><title>X9deb8&#45;&gt;X4e4b1</title>
<path fill="none" stroke="black" d="M937.273,-431.76C944.497,-388.726 956.556,-275.757 897.942,-216 868.636,-186.123 761.873,-172.973 683.111,-167.261"/>
<polygon fill="black" stroke="black" points="682.9,-163.738 672.681,-166.536 682.415,-170.721 682.9,-163.738"/>
</g>
<!-- X36b94 -->
<g id="node23" class="node"><title>X36b94</title>
<g id="a_node23"><a xlink:href="http://sparql.cwrc.ca/ontologies/cwrc#agnosticism" xlink:title="agnosticisme" target="_parent">
<ellipse fill="none" stroke="black" cx="2249.94" cy="-90" rx="72.2875" ry="18"/>
<text text-anchor="middle" x="2249.94" y="-86.3" font-family="Times,serif" font-size="14.00">agnosticisme</text>
</a>
</g>
</g>
<!-- X37200&#45;&gt;X36b94 -->
<!-- X253de -->
<g id="node22" class="node"><title>X253de</title>
<g id="a_node22"><a xlink:href="http://sparql.cwrc.ca/ontologies/cwrc#quakerism" xlink:title="quaker" target="_parent">
<ellipse fill="none" stroke="black" cx="1083.94" cy="-306" rx="43.5923" ry="18"/>
<text text-anchor="middle" x="1083.94" y="-302.3" font-family="Times,serif" font-size="14.00">quaker</text>
</a>
</g>
</g>
<!-- X253de&#45;&gt;X4e4b1 -->
<g id="edge22" class="edge"><title>X253de&#45;&gt;X4e4b1</title>
<path fill="none" stroke="black" d="M1057.53,-291.578C1038.48,-281.516 1012.46,-266.957 990.942,-252 970.477,-237.773 970.671,-226.227 947.942,-216 864.183,-178.312 759.144,-166.476 685.314,-163.203"/>
<polygon fill="black" stroke="black" points="685.241,-159.697 675.109,-162.796 684.962,-166.692 685.241,-159.697"/>
</g>
<!-- X253de&#45;&gt;X156db -->
<g id="edge23" class="edge"><title>X253de&#45;&gt;X156db</title>
<path fill="none" stroke="black" d="M1101.25,-289.465C1111.32,-280.432 1124.21,-268.864 1135.52,-258.714"/>
<polygon fill="black" stroke="black" points="1137.94,-261.246 1143.04,-251.962 1133.26,-256.036 1137.94,-261.246"/>
</g>
<!-- X1cc79 -->
<g id="node24" class="node"><title>X1cc79</title>
<g id="a_node24"><a xlink:href="http://sparql.cwrc.ca/ontologies/cwrc#lollardy" xlink:title="Lollardy" target="_parent">
<ellipse fill="none" stroke="black" cx="2020.94" cy="-306" rx="49.2915" ry="18"/>
<text text-anchor="middle" x="2020.94" y="-302.3" font-family="Times,serif" font-size="14.00">Lollardy</text>
</a>
</g>
</g>
<!-- X1cc79&#45;&gt;X32f53 -->
<g id="edge25" class="edge"><title>X1cc79&#45;&gt;X32f53</title>
<path fill="none" stroke="black" d="M2022.23,-287.853C2022.73,-267.936 2020.34,-235.346 2001.94,-216 1992.33,-205.895 1920.5,-188.418 1865.87,-176.31"/>
<polygon fill="black" stroke="black" points="1866.41,-172.844 1855.89,-174.114 1864.91,-179.681 1866.41,-172.844"/>
</g>
<!-- X6f203 -->
<g id="node25" class="node"><title>X6f203</title>
<g id="a_node25"><a xlink:href="http://sparql.cwrc.ca/ontologies/cwrc#christianScience" xlink:title="Science Chrétienne" target="_parent">
<ellipse fill="none" stroke="black" cx="1994.94" cy="-162" rx="102.082" ry="18"/>
<text text-anchor="middle" x="1994.94" y="-158.3" font-family="Times,serif" font-size="14.00">Science Chrétienne</text>
</a>
</g>
</g>
<!-- X6f203&#45;&gt;Xadf16 -->
<g id="edge26" class="edge"><title>X6f203&#45;&gt;Xadf16</title>
<path fill="none" stroke="black" d="M1927.82,-148.438C1871.29,-137.812 1788.29,-122.106 1715.94,-108 1709.83,-106.809 1703.48,-105.56 1697.13,-104.302"/>
<polygon fill="black" stroke="black" points="1697.65,-100.838 1687.16,-102.324 1696.29,-107.704 1697.65,-100.838"/>
</g>
<!-- X0e2fa -->
<g id="node26" class="node"><title>X0e2fa</title>
<g id="a_node26"><a xlink:href="http://sparql.cwrc.ca/ontologies/cwrc#presbyterianism" xlink:title="Presbytarianisme" target="_parent">
<ellipse fill="none" stroke="black" cx="92.9418" cy="-522" rx="92.8835" ry="18"/>
<text text-anchor="middle" x="92.9418" y="-518.3" font-family="Times,serif" font-size="14.00">Presbytarianisme</text>
</a>
</g>
</g>
<!-- X0e2fa&#45;&gt;X4e4b1 -->
<g id="edge27" class="edge"><title>X0e2fa&#45;&gt;X4e4b1</title>
<path fill="none" stroke="black" d="M92.9418,-503.951C92.9418,-477.292 92.9418,-424.115 92.9418,-379 92.9418,-379 92.9418,-379 92.9418,-305 92.9418,-251.515 126.476,-240.65 173.942,-216 229.861,-186.96 399.297,-173.045 505.094,-167.021"/>
<polygon fill="black" stroke="black" points="505.338,-170.513 515.128,-166.463 504.949,-163.524 505.338,-170.513"/>
</g>
<!-- X043aa -->
<g id="node27" class="node"><title>X043aa</title>
<g id="a_node27"><a xlink:href="http://sparql.cwrc.ca/ontologies/cwrc#unitarianism" xlink:title="unitarisme" target="_parent">
<ellipse fill="none" stroke="black" cx="264.942" cy="-234" rx="61.1893" ry="18"/>
<text text-anchor="middle" x="264.942" y="-230.3" font-family="Times,serif" font-size="14.00">unitarisme</text>
</a>
</g>
</g>
<!-- X043aa&#45;&gt;X4e4b1 -->
<g id="edge28" class="edge"><title>X043aa&#45;&gt;X4e4b1</title>
<path fill="none" stroke="black" d="M310.072,-221.784C318.332,-219.804 326.887,-217.802 334.942,-216 399.217,-201.624 472.815,-186.711 525.089,-176.381"/>
<polygon fill="black" stroke="black" points="525.788,-179.811 534.921,-174.442 524.433,-172.943 525.788,-179.811"/>
</g>
<!-- X2a5d0 -->
<g id="node28" class="node"><title>X2a5d0</title>
<g id="a_node28"><a xlink:href="http://sparql.cwrc.ca/ontologies/cwrc#churchOfIreland" xlink:title="Église d&#39;Irlande" target="_parent">
<ellipse fill="none" stroke="black" cx="1818.94" cy="-306" rx="84.485" ry="18"/>
<text text-anchor="middle" x="1818.94" y="-302.3" font-family="Times,serif" font-size="14.00">Église d&#39;Irlande</text>
</a>
</g>
</g>
<!-- X2a5d0&#45;&gt;Xf6f10 -->
<g id="edge29" class="edge"><title>X2a5d0&#45;&gt;Xf6f10</title>
<path fill="none" stroke="black" d="M1820.56,-287.863C1821.43,-267.644 1819.46,-234.452 1799.94,-216 1767.07,-184.921 1654.31,-172.066 1567.36,-166.749"/>
<polygon fill="black" stroke="black" points="1567.34,-163.242 1557.16,-166.152 1566.94,-170.231 1567.34,-163.242"/>
</g>
<!-- X8fa8b -->
<g id="node29" class="node"><title>X8fa8b</title>
<g id="a_node29"><a xlink:href="http://sparql.cwrc.ca/ontologies/cwrc#plymouthBrethren" xlink:title="Assemblées de Frères" target="_parent">
<ellipse fill="none" stroke="black" cx="457.942" cy="-234" rx="113.98" ry="18"/>
<text text-anchor="middle" x="457.942" y="-230.3" font-family="Times,serif" font-size="14.00">Assemblées de Frères</text>
</a>
</g>
</g>
<!-- X8fa8b&#45;&gt;X4e4b1 -->
<g id="edge30" class="edge"><title>X8fa8b&#45;&gt;X4e4b1</title>
<path fill="none" stroke="black" d="M484.332,-216.411C502.885,-206.293 528.017,-193.307 549.583,-182.672"/>
<polygon fill="black" stroke="black" points="551.132,-185.811 558.578,-178.274 548.057,-179.523 551.132,-185.811"/>
</g>
<!-- X8fa8b&#45;&gt;X4e4b1 -->
<g id="edge31" class="edge"><title>X8fa8b&#45;&gt;X4e4b1</title>
<path fill="none" stroke="black" d="M494.924,-216.941C514.99,-207.184 539.562,-194.617 559.26,-184.068"/>
<polygon fill="black" stroke="black" points="561.082,-187.062 568.215,-179.227 557.753,-180.904 561.082,-187.062"/>
</g>
<!-- Xd32ac -->
<g id="node30" class="node"><title>Xd32ac</title>
<g id="a_node30"><a xlink:href="http://sparql.cwrc.ca/ontologies/cwrc#judaism" xlink:title="Judaïsme" target="_parent">
<ellipse fill="none" stroke="black" cx="1778.94" cy="-90" rx="53.8905" ry="18"/>
<text text-anchor="middle" x="1778.94" y="-86.3" font-family="Times,serif" font-size="14.00">Judaïsme</text>
</a>
</g>
</g>
<!-- Xd32ac&#45;&gt;Xb2336 -->
<g id="edge32" class="edge"><title>Xd32ac&#45;&gt;Xb2336</title>
<path fill="none" stroke="black" d="M1739.07,-77.7037C1731.42,-75.6892 1723.46,-73.6951 1715.94,-72 1648.96,-56.8899 1572.55,-43.1043 1514.84,-33.3823"/>
<polygon fill="black" stroke="black" points="1515.1,-29.8763 1504.66,-31.6757 1513.94,-36.7801 1515.1,-29.8763"/>
</g>
</g>
</svg>
