<?xml version="1.0" encoding="UTF-8" standalone="no"?>
<!DOCTYPE svg PUBLIC "-//W3C//DTD SVG 1.1//EN"
 "http://www.w3.org/Graphics/SVG/1.1/DTD/svg11.dtd">
<!-- Generated by graphviz version 2.38.0 (20140413.2041)
 -->
<!-- Title: ReligionGraph Pages: 1 -->
<svg width="1938pt" height="548pt"
 viewBox="0.00 0.00 1938.34 548.00" xmlns="http://www.w3.org/2000/svg" xmlns:xlink="http://www.w3.org/1999/xlink">
<g id="graph0" class="graph" transform="scale(1 1) rotate(0) translate(4 544)">
<title>ReligionGraph</title>
<polygon fill="white" stroke="none" points="-4,4 -4,-544 1934.34,-544 1934.34,4 -4,4"/>
<!-- X7477d -->
<g id="node1" class="node"><title>X7477d</title>
<g id="a_node1"><a xlink:href="http://sparql.cwrc.ca/ontologies/cwrc#congregationalism" xlink:title="Congregationalism" target="_parent">
<ellipse fill="none" stroke="black" cx="705.942" cy="-234" rx="98.5829" ry="18"/>
<text text-anchor="middle" x="705.942" y="-230.3" font-family="Times,serif" font-size="14.00">Congregationalism</text>
</a>
</g>
</g>
<!-- X4e4b1 -->
<g id="node2" class="node"><title>X4e4b1</title>
<g id="a_node2"><a xlink:href="http://sparql.cwrc.ca/ontologies/cwrc#protestantism" xlink:title="Protestantism" target="_parent">
<ellipse fill="none" stroke="black" cx="832.942" cy="-162" rx="76.8869" ry="18"/>
<text text-anchor="middle" x="832.942" y="-158.3" font-family="Times,serif" font-size="14.00">Protestantism</text>
</a>
</g>
</g>
<!-- X7477d&#45;&gt;X4e4b1 -->
<g id="edge1" class="edge"><title>X7477d&#45;&gt;X4e4b1</title>
<path fill="none" stroke="black" d="M735.397,-216.765C753.236,-206.932 776.164,-194.295 795.308,-183.743"/>
<polygon fill="black" stroke="black" points="797.015,-186.798 804.084,-178.906 793.636,-180.668 797.015,-186.798"/>
</g>
<!-- Xadf16 -->
<g id="node3" class="node"><title>Xadf16</title>
<g id="a_node3"><a xlink:href="http://sparql.cwrc.ca/ontologies/cwrc#christianity" xlink:title="Christianity" target="_parent">
<ellipse fill="none" stroke="black" cx="832.942" cy="-90" rx="66.0889" ry="18"/>
<text text-anchor="middle" x="832.942" y="-86.3" font-family="Times,serif" font-size="14.00">Christianity</text>
</a>
</g>
</g>
<!-- X4e4b1&#45;&gt;Xadf16 -->
<g id="edge2" class="edge"><title>X4e4b1&#45;&gt;Xadf16</title>
<path fill="none" stroke="black" d="M832.942,-143.697C832.942,-135.983 832.942,-126.712 832.942,-118.112"/>
<polygon fill="black" stroke="black" points="836.442,-118.104 832.942,-108.104 829.442,-118.104 836.442,-118.104"/>
</g>
<!-- Xb2336 -->
<g id="node10" class="node"><title>Xb2336</title>
<g id="a_node10"><a xlink:href="http://sparql.cwrc.ca/ontologies/cwrc#abrahamicReligions" xlink:title="Abrahamic religions" target="_parent">
<ellipse fill="none" stroke="black" cx="1042.94" cy="-18" rx="104.782" ry="18"/>
<text text-anchor="middle" x="1042.94" y="-14.3" font-family="Times,serif" font-size="14.00">Abrahamic religions</text>
</a>
</g>
</g>
<!-- Xadf16&#45;&gt;Xb2336 -->
<g id="edge7" class="edge"><title>Xadf16&#45;&gt;Xb2336</title>
<path fill="none" stroke="black" d="M873.432,-75.5033C905.788,-64.7178 951.488,-49.4845 987.285,-37.5522"/>
<polygon fill="black" stroke="black" points="988.72,-40.7634 997.1,-34.2807 986.506,-34.1226 988.72,-40.7634"/>
</g>
<!-- Xd35c6 -->
<g id="node4" class="node"><title>Xd35c6</title>
<g id="a_node4"><a xlink:href="http://sparql.cwrc.ca/ontologies/cwrc#spiritualism" xlink:title="Spiritualism" target="_parent">
<ellipse fill="none" stroke="black" cx="1630.94" cy="-522" rx="67.6881" ry="18"/>
<text text-anchor="middle" x="1630.94" y="-518.3" font-family="Times,serif" font-size="14.00">Spiritualism</text>
</a>
</g>
</g>
<!-- X3b80a -->
<g id="node5" class="node"><title>X3b80a</title>
<g id="a_node5"><a xlink:href="http://sparql.cwrc.ca/ontologies/cwrc#buddhism" xlink:title="Buddhism" target="_parent">
<ellipse fill="none" stroke="black" cx="1630.94" cy="-450" rx="57.6901" ry="18"/>
<text text-anchor="middle" x="1630.94" y="-446.3" font-family="Times,serif" font-size="14.00">Buddhism</text>
</a>
</g>
</g>
<!-- Xd35c6&#45;&gt;X3b80a -->
<!-- X37200 -->
<g id="node6" class="node"><title>X37200</title>
<g id="a_node6"><a xlink:href="http://sparql.cwrc.ca/ontologies/cwrc#paganism" xlink:title="Paganism" target="_parent">
<ellipse fill="none" stroke="black" cx="1630.94" cy="-378" rx="55.7903" ry="18"/>
<text text-anchor="middle" x="1630.94" y="-374.3" font-family="Times,serif" font-size="14.00">Paganism</text>
</a>
</g>
</g>
<!-- X3b80a&#45;&gt;X37200 -->
<!-- X43c0c -->
<g id="node15" class="node"><title>X43c0c</title>
<g id="a_node15"><a xlink:href="http://sparql.cwrc.ca/ontologies/cwrc#occultism" xlink:title="Occultism/Theosophism" target="_parent">
<ellipse fill="none" stroke="black" cx="1630.94" cy="-306" rx="122.379" ry="18"/>
<text text-anchor="middle" x="1630.94" y="-302.3" font-family="Times,serif" font-size="14.00">Occultism/Theosophism</text>
</a>
</g>
</g>
<!-- X37200&#45;&gt;X43c0c -->
<!-- Xe7b0a -->
<g id="node7" class="node"><title>Xe7b0a</title>
<g id="a_node7"><a xlink:href="http://sparql.cwrc.ca/ontologies/cwrc#neo-thomism" xlink:title="Neo&#45;thomism" target="_parent">
<ellipse fill="none" stroke="black" cx="1779.94" cy="-450" rx="73.387" ry="18"/>
<text text-anchor="middle" x="1779.94" y="-446.3" font-family="Times,serif" font-size="14.00">Neo&#45;thomism</text>
</a>
</g>
</g>
<!-- X752f2 -->
<g id="node8" class="node"><title>X752f2</title>
<ellipse fill="none" stroke="black" cx="1829.94" cy="-378" rx="44.393" ry="18"/>
<text text-anchor="middle" x="1829.94" y="-374.3" font-family="Times,serif" font-size="14.00">X752f2</text>
</g>
<!-- Xe7b0a&#45;&gt;X752f2 -->
<g id="edge5" class="edge"><title>Xe7b0a&#45;&gt;X752f2</title>
<path fill="none" stroke="black" d="M1792.05,-432.055C1798.06,-423.629 1805.46,-413.28 1812.11,-403.966"/>
<polygon fill="black" stroke="black" points="1814.99,-405.961 1817.95,-395.789 1809.29,-401.892 1814.99,-405.961"/>
</g>
<!-- Xf6f10 -->
<g id="node9" class="node"><title>Xf6f10</title>
<g id="a_node9"><a xlink:href="http://sparql.cwrc.ca/ontologies/cwrc#anglicanism" xlink:title="Anglicanism" target="_parent">
<ellipse fill="none" stroke="black" cx="368.942" cy="-162" rx="68.4888" ry="18"/>
<text text-anchor="middle" x="368.942" y="-158.3" font-family="Times,serif" font-size="14.00">Anglicanism</text>
</a>
</g>
</g>
<!-- Xf6f10&#45;&gt;Xadf16 -->
<g id="edge6" class="edge"><title>Xf6f10&#45;&gt;Xadf16</title>
<path fill="none" stroke="black" d="M426.77,-152.276C513.174,-139.241 675.535,-114.747 766.63,-101.004"/>
<polygon fill="black" stroke="black" points="767.2,-104.458 776.566,-99.5049 766.156,-97.5359 767.2,-104.458"/>
</g>
<!-- Xe1e3e -->
<g id="node11" class="node"><title>Xe1e3e</title>
<g id="a_node11"><a xlink:href="http://sparql.cwrc.ca/ontologies/cwrc#methodism" xlink:title="Methodism" target="_parent">
<ellipse fill="none" stroke="black" cx="778.942" cy="-306" rx="63.8893" ry="18"/>
<text text-anchor="middle" x="778.942" y="-302.3" font-family="Times,serif" font-size="14.00">Methodism</text>
</a>
</g>
</g>
<!-- Xe1e3e&#45;&gt;X4e4b1 -->
<g id="edge8" class="edge"><title>Xe1e3e&#45;&gt;X4e4b1</title>
<path fill="none" stroke="black" d="M792.349,-288.262C799.735,-278.267 808.485,-265.017 813.942,-252 822.226,-232.239 827.066,-208.437 829.785,-190.422"/>
<polygon fill="black" stroke="black" points="833.282,-190.685 831.183,-180.3 826.348,-189.726 833.282,-190.685"/>
</g>
<!-- X32f53 -->
<g id="node12" class="node"><title>X32f53</title>
<g id="a_node12"><a xlink:href="http://sparql.cwrc.ca/ontologies/cwrc#catholicism" xlink:title="Roman Catholicism" target="_parent">
<ellipse fill="none" stroke="black" cx="1028.94" cy="-162" rx="101.282" ry="18"/>
<text text-anchor="middle" x="1028.94" y="-158.3" font-family="Times,serif" font-size="14.00">Roman Catholicism</text>
</a>
</g>
</g>
<!-- X32f53&#45;&gt;Xadf16 -->
<g id="edge9" class="edge"><title>X32f53&#45;&gt;Xadf16</title>
<path fill="none" stroke="black" d="M985.929,-145.638C954.986,-134.587 913.229,-119.674 881.157,-108.22"/>
<polygon fill="black" stroke="black" points="882.133,-104.852 871.538,-104.784 879.778,-111.444 882.133,-104.852"/>
</g>
<!-- X0e2fa -->
<g id="node13" class="node"><title>X0e2fa</title>
<g id="a_node13"><a xlink:href="http://sparql.cwrc.ca/ontologies/cwrc#presbyterianism" xlink:title="Presbyterianism" target="_parent">
<ellipse fill="none" stroke="black" cx="793.942" cy="-378" rx="87.1846" ry="18"/>
<text text-anchor="middle" x="793.942" y="-374.3" font-family="Times,serif" font-size="14.00">Presbyterianism</text>
</a>
</g>
</g>
<!-- X0e2fa&#45;&gt;X4e4b1 -->
<g id="edge10" class="edge"><title>X0e2fa&#45;&gt;X4e4b1</title>
<path fill="none" stroke="black" d="M820.067,-360.7C832.182,-351.559 845.339,-338.978 851.942,-324 871.388,-279.888 856.307,-222.732 844.196,-189.733"/>
<polygon fill="black" stroke="black" points="847.429,-188.388 840.574,-180.309 840.894,-190.899 847.429,-188.388"/>
</g>
<!-- Xc1422 -->
<g id="node14" class="node"><title>Xc1422</title>
<g id="a_node14"><a xlink:href="http://sparql.cwrc.ca/ontologies/cwrc#islam" xlink:title="Islamism" target="_parent">
<ellipse fill="none" stroke="black" cx="1042.94" cy="-90" rx="53.0913" ry="18"/>
<text text-anchor="middle" x="1042.94" y="-86.3" font-family="Times,serif" font-size="14.00">Islamism</text>
</a>
</g>
</g>
<!-- Xc1422&#45;&gt;Xb2336 -->
<g id="edge11" class="edge"><title>Xc1422&#45;&gt;Xb2336</title>
<path fill="none" stroke="black" d="M1042.94,-71.6966C1042.94,-63.9827 1042.94,-54.7125 1042.94,-46.1124"/>
<polygon fill="black" stroke="black" points="1046.44,-46.1043 1042.94,-36.1043 1039.44,-46.1044 1046.44,-46.1043"/>
</g>
<!-- X36b94 -->
<g id="node17" class="node"><title>X36b94</title>
<g id="a_node17"><a xlink:href="http://sparql.cwrc.ca/ontologies/cwrc#agnosticism" xlink:title="Agnosticism" target="_parent">
<ellipse fill="none" stroke="black" cx="1630.94" cy="-234" rx="68.4888" ry="18"/>
<text text-anchor="middle" x="1630.94" y="-230.3" font-family="Times,serif" font-size="14.00">Agnosticism</text>
</a>
</g>
</g>
<!-- X43c0c&#45;&gt;X36b94 -->
<!-- Xb800b -->
<g id="node16" class="node"><title>Xb800b</title>
<g id="a_node16"><a xlink:href="http://sparql.cwrc.ca/ontologies/cwrc#tractarianMovement" xlink:title="Tractarian Movement" target="_parent">
<ellipse fill="none" stroke="black" cx="438.942" cy="-234" rx="112.38" ry="18"/>
<text text-anchor="middle" x="438.942" y="-230.3" font-family="Times,serif" font-size="14.00">Tractarian Movement</text>
</a>
</g>
</g>
<!-- Xb800b&#45;&gt;Xf6f10 -->
<g id="edge13" class="edge"><title>Xb800b&#45;&gt;Xf6f10</title>
<path fill="none" stroke="black" d="M421.997,-216.055C413.312,-207.371 402.586,-196.644 393.056,-187.114"/>
<polygon fill="black" stroke="black" points="395.277,-184.385 385.731,-179.789 390.327,-189.335 395.277,-184.385"/>
</g>
<!-- Xc7ed9 -->
<g id="node26" class="node"><title>Xc7ed9</title>
<g id="a_node26"><a xlink:href="http://sparql.cwrc.ca/ontologies/cwrc#hinduism" xlink:title="Hinduism" target="_parent">
<ellipse fill="none" stroke="black" cx="1630.94" cy="-162" rx="55.7903" ry="18"/>
<text text-anchor="middle" x="1630.94" y="-158.3" font-family="Times,serif" font-size="14.00">Hinduism</text>
</a>
</g>
</g>
<!-- X36b94&#45;&gt;Xc7ed9 -->
<!-- X8fa8b -->
<g id="node18" class="node"><title>X8fa8b</title>
<g id="a_node18"><a xlink:href="http://sparql.cwrc.ca/ontologies/cwrc#plymouthBrethren" xlink:title="Plymouth Brethren" target="_parent">
<ellipse fill="none" stroke="black" cx="827.942" cy="-450" rx="100.182" ry="18"/>
<text text-anchor="middle" x="827.942" y="-446.3" font-family="Times,serif" font-size="14.00">Plymouth Brethren</text>
</a>
</g>
</g>
<!-- X8fa8b&#45;&gt;X4e4b1 -->
<g id="edge15" class="edge"><title>X8fa8b&#45;&gt;X4e4b1</title>
<path fill="none" stroke="black" d="M856.471,-432.631C869.23,-423.623 882.949,-411.176 889.942,-396 906.589,-359.869 910.681,-316.481 870.942,-216 867.007,-206.051 860.799,-196.224 854.532,-187.787"/>
<polygon fill="black" stroke="black" points="857.247,-185.577 848.328,-179.858 851.735,-189.891 857.247,-185.577"/>
</g>
<!-- X253de -->
<g id="node19" class="node"><title>X253de</title>
<g id="a_node19"><a xlink:href="http://sparql.cwrc.ca/ontologies/cwrc#quakerism" xlink:title="Quakerism" target="_parent">
<ellipse fill="none" stroke="black" cx="1272.94" cy="-234" rx="61.99" ry="18"/>
<text text-anchor="middle" x="1272.94" y="-230.3" font-family="Times,serif" font-size="14.00">Quakerism</text>
</a>
</g>
</g>
<!-- X253de&#45;&gt;X4e4b1 -->
<g id="edge16" class="edge"><title>X253de&#45;&gt;X4e4b1</title>
<path fill="none" stroke="black" d="M1227.29,-221.777C1217.95,-219.687 1208.15,-217.646 1198.94,-216 1075.43,-193.927 1042.78,-200.177 918.942,-180 912.281,-178.915 905.347,-177.695 898.435,-176.421"/>
<polygon fill="black" stroke="black" points="898.832,-172.934 888.357,-174.523 897.537,-179.813 898.832,-172.934"/>
</g>
<!-- X991c3 -->
<g id="node20" class="node"><title>X991c3</title>
<ellipse fill="none" stroke="black" cx="1307.94" cy="-162" rx="46.2923" ry="18"/>
<text text-anchor="middle" x="1307.94" y="-158.3" font-family="Times,serif" font-size="14.00">X991c3</text>
</g>
<!-- X253de&#45;&gt;X991c3 -->
<g id="edge17" class="edge"><title>X253de&#45;&gt;X991c3</title>
<path fill="none" stroke="black" d="M1281.41,-216.055C1285.5,-207.887 1290.49,-197.912 1295.03,-188.824"/>
<polygon fill="black" stroke="black" points="1298.21,-190.299 1299.55,-179.789 1291.94,-187.168 1298.21,-190.299"/>
</g>
<!-- X9deb8 -->
<g id="node21" class="node"><title>X9deb8</title>
<g id="a_node21"><a xlink:href="http://sparql.cwrc.ca/ontologies/cwrc#dissentingChristianity" xlink:title="Dissenting Christianity" target="_parent">
<ellipse fill="none" stroke="black" cx="955.942" cy="-522" rx="118.879" ry="18"/>
<text text-anchor="middle" x="955.942" y="-518.3" font-family="Times,serif" font-size="14.00">Dissenting Christianity</text>
</a>
</g>
</g>
<!-- X9deb8&#45;&gt;X4e4b1 -->
<g id="edge18" class="edge"><title>X9deb8&#45;&gt;X4e4b1</title>
<path fill="none" stroke="black" d="M955.942,-503.951C955.942,-477.292 955.942,-424.115 955.942,-379 955.942,-379 955.942,-379 955.942,-305 955.942,-251.706 905.831,-208.594 869.579,-184.378"/>
<polygon fill="black" stroke="black" points="871.456,-181.424 861.16,-178.923 867.649,-187.298 871.456,-181.424"/>
</g>
<!-- Xd2614 -->
<g id="node22" class="node"><title>Xd2614</title>
<g id="a_node22"><a xlink:href="http://sparql.cwrc.ca/ontologies/cwrc#fifthMonarchists" xlink:title="Fifth Monarchists" target="_parent">
<ellipse fill="none" stroke="black" cx="1449.94" cy="-234" rx="94.7833" ry="18"/>
<text text-anchor="middle" x="1449.94" y="-230.3" font-family="Times,serif" font-size="14.00">Fifth Monarchists</text>
</a>
</g>
</g>
<!-- Xd2614&#45;&gt;X991c3 -->
<g id="edge19" class="edge"><title>Xd2614&#45;&gt;X991c3</title>
<path fill="none" stroke="black" d="M1417.36,-216.941C1395.73,-206.274 1367.28,-192.25 1344.81,-181.175"/>
<polygon fill="black" stroke="black" points="1346.1,-177.909 1335.59,-176.627 1343.01,-184.188 1346.1,-177.909"/>
</g>
<!-- Xb45be -->
<g id="node23" class="node"><title>Xb45be</title>
<g id="a_node23"><a xlink:href="http://sparql.cwrc.ca/ontologies/cwrc#millenarianism" xlink:title="Millenarianism" target="_parent">
<ellipse fill="none" stroke="black" cx="1452.94" cy="-162" rx="81.4863" ry="18"/>
<text text-anchor="middle" x="1452.94" y="-158.3" font-family="Times,serif" font-size="14.00">Millenarianism</text>
</a>
</g>
</g>
<!-- Xd2614&#45;&gt;Xb45be -->
<g id="edge20" class="edge"><title>Xd2614&#45;&gt;Xb45be</title>
<path fill="none" stroke="black" d="M1450.68,-215.697C1451.01,-207.983 1451.41,-198.712 1451.78,-190.112"/>
<polygon fill="black" stroke="black" points="1455.28,-190.245 1452.21,-180.104 1448.28,-189.945 1455.28,-190.245"/>
</g>
<!-- Xd32ac -->
<g id="node24" class="node"><title>Xd32ac</title>
<g id="a_node24"><a xlink:href="http://sparql.cwrc.ca/ontologies/cwrc#judaism" xlink:title="Judaism" target="_parent">
<ellipse fill="none" stroke="black" cx="1195.94" cy="-162" rx="48.1917" ry="18"/>
<text text-anchor="middle" x="1195.94" y="-158.3" font-family="Times,serif" font-size="14.00">Judaism</text>
</a>
</g>
</g>
<!-- Xd32ac&#45;&gt;Xb2336 -->
<g id="edge21" class="edge"><title>Xd32ac&#45;&gt;Xb2336</title>
<path fill="none" stroke="black" d="M1180.15,-144.914C1162.24,-126.829 1132.01,-96.7566 1104.94,-72 1094.12,-62.0999 1081.9,-51.5333 1071.19,-42.4608"/>
<polygon fill="black" stroke="black" points="1073.25,-39.6159 1063.34,-35.8501 1068.74,-44.9695 1073.25,-39.6159"/>
</g>
<!-- X156db -->
<g id="node25" class="node"><title>X156db</title>
<g id="a_node25"><a xlink:href="http://sparql.cwrc.ca/ontologies/cwrc#dissentProtestant" xlink:title="Dissent (Protestant)" target="_parent">
<ellipse fill="none" stroke="black" cx="165.942" cy="-306" rx="104.782" ry="18"/>
<text text-anchor="middle" x="165.942" y="-302.3" font-family="Times,serif" font-size="14.00">Dissent (Protestant)</text>
</a>
</g>
</g>
<!-- X156db&#45;&gt;Xf6f10 -->
<g id="edge22" class="edge"><title>X156db&#45;&gt;Xf6f10</title>
<path fill="none" stroke="black" d="M187.496,-288.069C211.049,-269.759 250.082,-239.978 284.942,-216 300.856,-205.054 318.926,-193.539 334.218,-184.05"/>
<polygon fill="black" stroke="black" points="336.191,-186.946 342.864,-178.716 332.515,-180.988 336.191,-186.946"/>
</g>
<!-- X7152e -->
<g id="node29" class="node"><title>X7152e</title>
<g id="a_node29"><a xlink:href="http://sparql.cwrc.ca/ontologies/cwrc#atheism" xlink:title="Atheism" target="_parent">
<ellipse fill="none" stroke="black" cx="1630.94" cy="-90" rx="49.2915" ry="18"/>
<text text-anchor="middle" x="1630.94" y="-86.3" font-family="Times,serif" font-size="14.00">Atheism</text>
</a>
</g>
</g>
<!-- Xc7ed9&#45;&gt;X7152e -->
<!-- Xd53bc -->
<g id="node27" class="node"><title>Xd53bc</title>
<g id="a_node27"><a xlink:href="http://sparql.cwrc.ca/ontologies/cwrc#baptistChristianity" xlink:title="Baptist Christianity" target="_parent">
<ellipse fill="none" stroke="black" cx="1086.94" cy="-234" rx="102.882" ry="18"/>
<text text-anchor="middle" x="1086.94" y="-230.3" font-family="Times,serif" font-size="14.00">Baptist Christianity</text>
</a>
</g>
</g>
<!-- Xd53bc&#45;&gt;X4e4b1 -->
<g id="edge24" class="edge"><title>Xd53bc&#45;&gt;X4e4b1</title>
<path fill="none" stroke="black" d="M1034.31,-218.496C992.387,-206.942 933.766,-190.786 890.581,-178.885"/>
<polygon fill="black" stroke="black" points="891.355,-175.468 880.785,-176.185 889.495,-182.216 891.355,-175.468"/>
</g>
<!-- X2a5d0 -->
<g id="node28" class="node"><title>X2a5d0</title>
<g id="a_node28"><a xlink:href="http://sparql.cwrc.ca/ontologies/cwrc#churchOfIreland" xlink:title="Church of Ireland" target="_parent">
<ellipse fill="none" stroke="black" cx="298.942" cy="-378" rx="93.6835" ry="18"/>
<text text-anchor="middle" x="298.942" y="-374.3" font-family="Times,serif" font-size="14.00">Church of Ireland</text>
</a>
</g>
</g>
<!-- X2a5d0&#45;&gt;Xf6f10 -->
<g id="edge25" class="edge"><title>X2a5d0&#45;&gt;Xf6f10</title>
<path fill="none" stroke="black" d="M297.491,-359.57C295.68,-328.925 295.196,-264.087 317.942,-216 323.178,-204.929 331.649,-194.715 340.196,-186.269"/>
<polygon fill="black" stroke="black" points="342.718,-188.703 347.647,-179.325 337.945,-183.582 342.718,-188.703"/>
</g>
<!-- X043aa -->
<g id="node30" class="node"><title>X043aa</title>
<g id="a_node30"><a xlink:href="http://sparql.cwrc.ca/ontologies/cwrc#unitarianism" xlink:title="Unitarianism" target="_parent">
<ellipse fill="none" stroke="black" cx="578.942" cy="-306" rx="71.4873" ry="18"/>
<text text-anchor="middle" x="578.942" y="-302.3" font-family="Times,serif" font-size="14.00">Unitarianism</text>
</a>
</g>
</g>
<!-- X043aa&#45;&gt;X4e4b1 -->
<g id="edge27" class="edge"><title>X043aa&#45;&gt;X4e4b1</title>
<path fill="none" stroke="black" d="M577.529,-287.729C576.902,-267.693 579.17,-234.989 597.942,-216 619.691,-193.999 694.785,-179.726 754.304,-171.597"/>
<polygon fill="black" stroke="black" points="755.011,-175.034 764.464,-170.248 754.09,-168.095 755.011,-175.034"/>
</g>
<!-- X6f203 -->
<g id="node31" class="node"><title>X6f203</title>
<g id="a_node31"><a xlink:href="http://sparql.cwrc.ca/ontologies/cwrc#christianScience" xlink:title="Christian Science" target="_parent">
<ellipse fill="none" stroke="black" cx="92.9418" cy="-234" rx="92.8835" ry="18"/>
<text text-anchor="middle" x="92.9418" y="-230.3" font-family="Times,serif" font-size="14.00">Christian Science</text>
</a>
</g>
</g>
<!-- X6f203&#45;&gt;Xadf16 -->
<g id="edge28" class="edge"><title>X6f203&#45;&gt;Xadf16</title>
<path fill="none" stroke="black" d="M121.197,-216.827C158.833,-196.126 228.104,-160.921 291.942,-144 453.279,-101.235 649.907,-92.2633 756.059,-90.8029"/>
<polygon fill="black" stroke="black" points="756.4,-94.2992 766.357,-90.681 756.317,-87.2997 756.4,-94.2992"/>
</g>
<!-- X1cc79 -->
<g id="node32" class="node"><title>X1cc79</title>
<g id="a_node32"><a xlink:href="http://sparql.cwrc.ca/ontologies/cwrc#lollardy" xlink:title="Lollardy" target="_parent">
<ellipse fill="none" stroke="black" cx="1880.94" cy="-522" rx="49.2915" ry="18"/>
<text text-anchor="middle" x="1880.94" y="-518.3" font-family="Times,serif" font-size="14.00">Lollardy</text>
</a>
</g>
</g>
<!-- X1cc79&#45;&gt;X752f2 -->
<g id="edge29" class="edge"><title>X1cc79&#45;&gt;X752f2</title>
<path fill="none" stroke="black" d="M1878.99,-503.778C1876.53,-485.481 1871.42,-455.947 1861.94,-432 1858.13,-422.357 1852.64,-412.454 1847.29,-403.857"/>
<polygon fill="black" stroke="black" points="1850.21,-401.925 1841.83,-395.436 1844.33,-405.732 1850.21,-401.925"/>
</g>
</g>
</svg>
