<?xml version="1.0" encoding="UTF-8" standalone="no"?>
<!DOCTYPE svg PUBLIC "-//W3C//DTD SVG 1.1//EN"
 "http://www.w3.org/Graphics/SVG/1.1/DTD/svg11.dtd">
<!-- Generated by graphviz version 2.38.0 (20140413.2041)
 -->
<!-- Title: ReligionGraph Pages: 1 -->
<svg width="1800pt" height="548pt"
 viewBox="0.00 0.00 1799.58 548.00" xmlns="http://www.w3.org/2000/svg" xmlns:xlink="http://www.w3.org/1999/xlink">
<g id="graph0" class="graph" transform="scale(1 1) rotate(0) translate(4 544)">
<title>ReligionGraph</title>
<polygon fill="white" stroke="none" points="-4,4 -4,-544 1795.58,-544 1795.58,4 -4,4"/>
<!-- Xb800b -->
<g id="node1" class="node"><title>Xb800b</title>
<g id="a_node1"><a xlink:href="http://sparql.cwrc.ca/ontologies/cwrc#tractarianMovement" xlink:title="Tractarian Movement" target="_parent">
<ellipse fill="none" stroke="black" cx="954.396" cy="-234" rx="112.38" ry="18"/>
<text text-anchor="middle" x="954.396" y="-230.3" font-family="Times,serif" font-size="14.00">Tractarian Movement</text>
</a>
</g>
</g>
<!-- Xf6f10 -->
<g id="node2" class="node"><title>Xf6f10</title>
<g id="a_node2"><a xlink:href="http://sparql.cwrc.ca/ontologies/cwrc#anglicanism" xlink:title="Anglicanism" target="_parent">
<ellipse fill="none" stroke="black" cx="954.396" cy="-162" rx="68.4888" ry="18"/>
<text text-anchor="middle" x="954.396" y="-158.3" font-family="Times,serif" font-size="14.00">Anglicanism</text>
</a>
</g>
</g>
<!-- Xb800b&#45;&gt;Xf6f10 -->
<g id="edge1" class="edge"><title>Xb800b&#45;&gt;Xf6f10</title>
<path fill="none" stroke="black" d="M954.396,-215.697C954.396,-207.983 954.396,-198.712 954.396,-190.112"/>
<polygon fill="black" stroke="black" points="957.896,-190.104 954.396,-180.104 950.896,-190.104 957.896,-190.104"/>
</g>
<!-- Xadf16 -->
<g id="node3" class="node"><title>Xadf16</title>
<g id="a_node3"><a xlink:href="http://sparql.cwrc.ca/ontologies/cwrc#christianity" xlink:title="Christianity" target="_parent">
<ellipse fill="none" stroke="black" cx="954.396" cy="-90" rx="66.0889" ry="18"/>
<text text-anchor="middle" x="954.396" y="-86.3" font-family="Times,serif" font-size="14.00">Christianity</text>
</a>
</g>
</g>
<!-- Xf6f10&#45;&gt;Xadf16 -->
<g id="edge2" class="edge"><title>Xf6f10&#45;&gt;Xadf16</title>
<path fill="none" stroke="black" d="M954.396,-143.697C954.396,-135.983 954.396,-126.712 954.396,-118.112"/>
<polygon fill="black" stroke="black" points="957.896,-118.104 954.396,-108.104 950.896,-118.104 957.896,-118.104"/>
</g>
<!-- Xb2336 -->
<g id="node12" class="node"><title>Xb2336</title>
<g id="a_node12"><a xlink:href="http://sparql.cwrc.ca/ontologies/cwrc#abrahamicReligions" xlink:title="Abrahamic religions" target="_parent">
<ellipse fill="none" stroke="black" cx="1151.4" cy="-18" rx="104.782" ry="18"/>
<text text-anchor="middle" x="1151.4" y="-14.3" font-family="Times,serif" font-size="14.00">Abrahamic religions</text>
</a>
</g>
</g>
<!-- Xadf16&#45;&gt;Xb2336 -->
<g id="edge12" class="edge"><title>Xadf16&#45;&gt;Xb2336</title>
<path fill="none" stroke="black" d="M993.316,-75.1703C1023.32,-64.5086 1065.14,-49.6487 1098.23,-37.891"/>
<polygon fill="black" stroke="black" points="1099.5,-41.153 1107.76,-34.5068 1097.16,-34.5571 1099.5,-41.153"/>
</g>
<!-- X2a5d0 -->
<g id="node4" class="node"><title>X2a5d0</title>
<g id="a_node4"><a xlink:href="http://sparql.cwrc.ca/ontologies/cwrc#churchOfIreland" xlink:title="Church of Ireland" target="_parent">
<ellipse fill="none" stroke="black" cx="1502.4" cy="-306" rx="93.6835" ry="18"/>
<text text-anchor="middle" x="1502.4" y="-302.3" font-family="Times,serif" font-size="14.00">Church of Ireland</text>
</a>
</g>
</g>
<!-- X2a5d0&#45;&gt;Xf6f10 -->
<g id="edge3" class="edge"><title>X2a5d0&#45;&gt;Xf6f10</title>
<path fill="none" stroke="black" d="M1504.22,-287.972C1505.36,-267.54 1503.71,-233.814 1483.4,-216 1445.52,-182.78 1081.22,-187.448 1031.4,-180 1025.26,-179.084 1018.89,-177.959 1012.56,-176.73"/>
<polygon fill="black" stroke="black" points="1013.17,-173.283 1002.67,-174.725 1011.78,-180.143 1013.17,-173.283"/>
</g>
<!-- X156db -->
<g id="node5" class="node"><title>X156db</title>
<g id="a_node5"><a xlink:href="http://sparql.cwrc.ca/ontologies/cwrc#dissentProtestant" xlink:title="Dissent (Protestant)" target="_parent">
<ellipse fill="none" stroke="black" cx="1189.4" cy="-234" rx="104.782" ry="18"/>
<text text-anchor="middle" x="1189.4" y="-230.3" font-family="Times,serif" font-size="14.00">Dissent (Protestant)</text>
</a>
</g>
</g>
<!-- X156db&#45;&gt;Xf6f10 -->
<g id="edge4" class="edge"><title>X156db&#45;&gt;Xf6f10</title>
<path fill="none" stroke="black" d="M1139.56,-218.155C1100.81,-206.612 1047.16,-190.632 1007.58,-178.843"/>
<polygon fill="black" stroke="black" points="1008.42,-175.442 997.841,-175.941 1006.43,-182.15 1008.42,-175.442"/>
</g>
<!-- X43c0c -->
<g id="node6" class="node"><title>X43c0c</title>
<g id="a_node6"><a xlink:href="http://sparql.cwrc.ca/ontologies/cwrc#occultism" xlink:title="Occultism/Theosophism" target="_parent">
<ellipse fill="none" stroke="black" cx="1669.4" cy="-522" rx="122.379" ry="18"/>
<text text-anchor="middle" x="1669.4" y="-518.3" font-family="Times,serif" font-size="14.00">Occultism/Theosophism</text>
</a>
</g>
</g>
<!-- X7152e -->
<g id="node7" class="node"><title>X7152e</title>
<g id="a_node7"><a xlink:href="http://sparql.cwrc.ca/ontologies/cwrc#atheism" xlink:title="Atheism" target="_parent">
<ellipse fill="none" stroke="black" cx="1669.4" cy="-450" rx="49.2915" ry="18"/>
<text text-anchor="middle" x="1669.4" y="-446.3" font-family="Times,serif" font-size="14.00">Atheism</text>
</a>
</g>
</g>
<!-- X43c0c&#45;&gt;X7152e -->
<!-- X930a7 -->
<g id="node10" class="node"><title>X930a7</title>
<g id="a_node10"><a xlink:href="http://sparql.cwrc.ca/ontologies/cwrc#Pantheism" xlink:title="Pantheism" target="_parent">
<ellipse fill="none" stroke="black" cx="1669.4" cy="-378" rx="59.5901" ry="18"/>
<text text-anchor="middle" x="1669.4" y="-374.3" font-family="Times,serif" font-size="14.00">Pantheism</text>
</a>
</g>
</g>
<!-- X7152e&#45;&gt;X930a7 -->
<!-- X1cc79 -->
<g id="node8" class="node"><title>X1cc79</title>
<g id="a_node8"><a xlink:href="http://sparql.cwrc.ca/ontologies/cwrc#lollardy" xlink:title="Lollardy" target="_parent">
<ellipse fill="none" stroke="black" cx="49.3956" cy="-234" rx="49.2915" ry="18"/>
<text text-anchor="middle" x="49.3956" y="-230.3" font-family="Times,serif" font-size="14.00">Lollardy</text>
</a>
</g>
</g>
<!-- X32f53 -->
<g id="node9" class="node"><title>X32f53</title>
<g id="a_node9"><a xlink:href="http://sparql.cwrc.ca/ontologies/cwrc#catholicism" xlink:title="Roman Catholicism" target="_parent">
<ellipse fill="none" stroke="black" cx="126.396" cy="-162" rx="101.282" ry="18"/>
<text text-anchor="middle" x="126.396" y="-158.3" font-family="Times,serif" font-size="14.00">Roman Catholicism</text>
</a>
</g>
</g>
<!-- X1cc79&#45;&gt;X32f53 -->
<g id="edge6" class="edge"><title>X1cc79&#45;&gt;X32f53</title>
<path fill="none" stroke="black" d="M66.8681,-217.116C76.7228,-208.157 89.2288,-196.788 100.232,-186.785"/>
<polygon fill="black" stroke="black" points="102.873,-189.114 107.919,-179.797 98.1647,-183.934 102.873,-189.114"/>
</g>
<!-- X32f53&#45;&gt;Xadf16 -->
<g id="edge7" class="edge"><title>X32f53&#45;&gt;Xadf16</title>
<path fill="none" stroke="black" d="M215.793,-153.442C380.939,-139.481 730.76,-109.906 882.106,-97.1115"/>
<polygon fill="black" stroke="black" points="882.55,-100.587 892.219,-96.2565 881.96,-93.6114 882.55,-100.587"/>
</g>
<!-- X37200 -->
<g id="node15" class="node"><title>X37200</title>
<g id="a_node15"><a xlink:href="http://sparql.cwrc.ca/ontologies/cwrc#paganism" xlink:title="Paganism" target="_parent">
<ellipse fill="none" stroke="black" cx="1669.4" cy="-306" rx="55.7903" ry="18"/>
<text text-anchor="middle" x="1669.4" y="-302.3" font-family="Times,serif" font-size="14.00">Paganism</text>
</a>
</g>
</g>
<!-- X930a7&#45;&gt;X37200 -->
<!-- Xc1422 -->
<g id="node11" class="node"><title>Xc1422</title>
<g id="a_node11"><a xlink:href="http://sparql.cwrc.ca/ontologies/cwrc#islam" xlink:title="Islamism" target="_parent">
<ellipse fill="none" stroke="black" cx="1151.4" cy="-90" rx="53.0913" ry="18"/>
<text text-anchor="middle" x="1151.4" y="-86.3" font-family="Times,serif" font-size="14.00">Islamism</text>
</a>
</g>
</g>
<!-- Xc1422&#45;&gt;Xb2336 -->
<g id="edge9" class="edge"><title>Xc1422&#45;&gt;Xb2336</title>
<path fill="none" stroke="black" d="M1151.4,-71.6966C1151.4,-63.9827 1151.4,-54.7125 1151.4,-46.1124"/>
<polygon fill="black" stroke="black" points="1154.9,-46.1043 1151.4,-36.1043 1147.9,-46.1044 1154.9,-46.1043"/>
</g>
<!-- X043aa -->
<g id="node13" class="node"><title>X043aa</title>
<g id="a_node13"><a xlink:href="http://sparql.cwrc.ca/ontologies/cwrc#unitarianism" xlink:title="Unitarianism" target="_parent">
<ellipse fill="none" stroke="black" cx="267.396" cy="-234" rx="71.4873" ry="18"/>
<text text-anchor="middle" x="267.396" y="-230.3" font-family="Times,serif" font-size="14.00">Unitarianism</text>
</a>
</g>
</g>
<!-- X4e4b1 -->
<g id="node14" class="node"><title>X4e4b1</title>
<g id="a_node14"><a xlink:href="http://sparql.cwrc.ca/ontologies/cwrc#protestantism" xlink:title="Protestantism" target="_parent">
<ellipse fill="none" stroke="black" cx="522.396" cy="-162" rx="76.8869" ry="18"/>
<text text-anchor="middle" x="522.396" y="-158.3" font-family="Times,serif" font-size="14.00">Protestantism</text>
</a>
</g>
</g>
<!-- X043aa&#45;&gt;X4e4b1 -->
<g id="edge10" class="edge"><title>X043aa&#45;&gt;X4e4b1</title>
<path fill="none" stroke="black" d="M313.87,-220.242C356.295,-208.596 419.157,-191.34 464.764,-178.82"/>
<polygon fill="black" stroke="black" points="465.793,-182.168 474.51,-176.145 463.94,-175.417 465.793,-182.168"/>
</g>
<!-- X4e4b1&#45;&gt;Xadf16 -->
<g id="edge11" class="edge"><title>X4e4b1&#45;&gt;Xadf16</title>
<path fill="none" stroke="black" d="M583.832,-151.045C664.67,-137.946 806.16,-115.02 888.948,-101.605"/>
<polygon fill="black" stroke="black" points="889.681,-105.032 898.992,-99.9774 888.561,-98.122 889.681,-105.032"/>
</g>
<!-- Xd35c6 -->
<g id="node16" class="node"><title>Xd35c6</title>
<g id="a_node16"><a xlink:href="http://sparql.cwrc.ca/ontologies/cwrc#spiritualism" xlink:title="Spiritualism" target="_parent">
<ellipse fill="none" stroke="black" cx="1669.4" cy="-234" rx="67.6881" ry="18"/>
<text text-anchor="middle" x="1669.4" y="-230.3" font-family="Times,serif" font-size="14.00">Spiritualism</text>
</a>
</g>
</g>
<!-- X37200&#45;&gt;Xd35c6 -->
<!-- X36b94 -->
<g id="node17" class="node"><title>X36b94</title>
<g id="a_node17"><a xlink:href="http://sparql.cwrc.ca/ontologies/cwrc#agnosticism" xlink:title="Agnosticism" target="_parent">
<ellipse fill="none" stroke="black" cx="1669.4" cy="-162" rx="68.4888" ry="18"/>
<text text-anchor="middle" x="1669.4" y="-158.3" font-family="Times,serif" font-size="14.00">Agnosticism</text>
</a>
</g>
</g>
<!-- Xd35c6&#45;&gt;X36b94 -->
<!-- X3b80a -->
<g id="node20" class="node"><title>X3b80a</title>
<g id="a_node20"><a xlink:href="http://sparql.cwrc.ca/ontologies/cwrc#buddhism" xlink:title="Buddhism" target="_parent">
<ellipse fill="none" stroke="black" cx="1669.4" cy="-90" rx="57.6901" ry="18"/>
<text text-anchor="middle" x="1669.4" y="-86.3" font-family="Times,serif" font-size="14.00">Buddhism</text>
</a>
</g>
</g>
<!-- X36b94&#45;&gt;X3b80a -->
<!-- X6f203 -->
<g id="node18" class="node"><title>X6f203</title>
<g id="a_node18"><a xlink:href="http://sparql.cwrc.ca/ontologies/cwrc#christianScience" xlink:title="Christian Science" target="_parent">
<ellipse fill="none" stroke="black" cx="1133.4" cy="-162" rx="92.8835" ry="18"/>
<text text-anchor="middle" x="1133.4" y="-158.3" font-family="Times,serif" font-size="14.00">Christian Science</text>
</a>
</g>
</g>
<!-- X6f203&#45;&gt;Xadf16 -->
<g id="edge16" class="edge"><title>X6f203&#45;&gt;Xadf16</title>
<path fill="none" stroke="black" d="M1094.11,-145.638C1066.37,-134.791 1029.12,-120.222 1000.06,-108.857"/>
<polygon fill="black" stroke="black" points="1001.13,-105.518 990.542,-105.135 998.58,-112.037 1001.13,-105.518"/>
</g>
<!-- X8fa8b -->
<g id="node19" class="node"><title>X8fa8b</title>
<g id="a_node19"><a xlink:href="http://sparql.cwrc.ca/ontologies/cwrc#plymouthBrethren" xlink:title="Plymouth Brethren" target="_parent">
<ellipse fill="none" stroke="black" cx="318.396" cy="-306" rx="100.182" ry="18"/>
<text text-anchor="middle" x="318.396" y="-302.3" font-family="Times,serif" font-size="14.00">Plymouth Brethren</text>
</a>
</g>
</g>
<!-- X8fa8b&#45;&gt;X4e4b1 -->
<g id="edge17" class="edge"><title>X8fa8b&#45;&gt;X4e4b1</title>
<path fill="none" stroke="black" d="M338.386,-288.093C360.687,-269.543 398.145,-239.309 432.396,-216 449.092,-204.638 468.295,-193.13 484.664,-183.755"/>
<polygon fill="black" stroke="black" points="486.462,-186.759 493.432,-178.78 483.008,-180.671 486.462,-186.759"/>
</g>
<!-- Xc7ed9 -->
<g id="node21" class="node"><title>Xc7ed9</title>
<g id="a_node21"><a xlink:href="http://sparql.cwrc.ca/ontologies/cwrc#hinduism" xlink:title="Hinduism" target="_parent">
<ellipse fill="none" stroke="black" cx="1669.4" cy="-18" rx="55.7903" ry="18"/>
<text text-anchor="middle" x="1669.4" y="-14.3" font-family="Times,serif" font-size="14.00">Hinduism</text>
</a>
</g>
</g>
<!-- X3b80a&#45;&gt;Xc7ed9 -->
<!-- Xb45be -->
<g id="node22" class="node"><title>Xb45be</title>
<g id="a_node22"><a xlink:href="http://sparql.cwrc.ca/ontologies/cwrc#millenarianism" xlink:title="Millenarianism" target="_parent">
<ellipse fill="none" stroke="black" cx="1393.4" cy="-234" rx="81.4863" ry="18"/>
<text text-anchor="middle" x="1393.4" y="-230.3" font-family="Times,serif" font-size="14.00">Millenarianism</text>
</a>
</g>
</g>
<!-- X9deb8 -->
<g id="node23" class="node"><title>X9deb8</title>
<g id="a_node23"><a xlink:href="http://sparql.cwrc.ca/ontologies/cwrc#dissentingChristianity" xlink:title="Dissenting Christianity" target="_parent">
<ellipse fill="none" stroke="black" cx="337.396" cy="-378" rx="118.879" ry="18"/>
<text text-anchor="middle" x="337.396" y="-374.3" font-family="Times,serif" font-size="14.00">Dissenting Christianity</text>
</a>
</g>
</g>
<!-- X9deb8&#45;&gt;X4e4b1 -->
<g id="edge20" class="edge"><title>X9deb8&#45;&gt;X4e4b1</title>
<path fill="none" stroke="black" d="M376.875,-360.884C394.282,-352.134 413.823,-339.831 427.396,-324 461.023,-284.777 442.195,-259.289 470.396,-216 477.253,-205.474 486.425,-195.282 495.155,-186.694"/>
<polygon fill="black" stroke="black" points="497.796,-189.013 502.645,-179.593 492.98,-183.934 497.796,-189.013"/>
</g>
<!-- Xd53bc -->
<g id="node24" class="node"><title>Xd53bc</title>
<g id="a_node24"><a xlink:href="http://sparql.cwrc.ca/ontologies/cwrc#baptistChristianity" xlink:title="Baptist Christianity" target="_parent">
<ellipse fill="none" stroke="black" cx="391.396" cy="-450" rx="102.882" ry="18"/>
<text text-anchor="middle" x="391.396" y="-446.3" font-family="Times,serif" font-size="14.00">Baptist Christianity</text>
</a>
</g>
</g>
<!-- Xd53bc&#45;&gt;X4e4b1 -->
<g id="edge21" class="edge"><title>Xd53bc&#45;&gt;X4e4b1</title>
<path fill="none" stroke="black" d="M423.653,-432.891C438.457,-423.944 454.992,-411.475 465.396,-396 511.285,-327.74 488.336,-295.767 508.396,-216 510.517,-207.564 512.909,-198.395 515.107,-190.092"/>
<polygon fill="black" stroke="black" points="518.561,-190.723 517.753,-180.159 511.796,-188.921 518.561,-190.723"/>
</g>
<!-- Xe1e3e -->
<g id="node25" class="node"><title>Xe1e3e</title>
<g id="a_node25"><a xlink:href="http://sparql.cwrc.ca/ontologies/cwrc#methodism" xlink:title="Methodism" target="_parent">
<ellipse fill="none" stroke="black" cx="522.396" cy="-522" rx="63.8893" ry="18"/>
<text text-anchor="middle" x="522.396" y="-518.3" font-family="Times,serif" font-size="14.00">Methodism</text>
</a>
</g>
</g>
<!-- Xe1e3e&#45;&gt;X4e4b1 -->
<g id="edge22" class="edge"><title>Xe1e3e&#45;&gt;X4e4b1</title>
<path fill="none" stroke="black" d="M522.396,-503.951C522.396,-477.292 522.396,-424.115 522.396,-379 522.396,-379 522.396,-379 522.396,-305 522.396,-264.996 522.396,-218.653 522.396,-190.08"/>
<polygon fill="black" stroke="black" points="525.896,-190.049 522.396,-180.049 518.896,-190.049 525.896,-190.049"/>
</g>
<!-- Xd32ac -->
<g id="node26" class="node"><title>Xd32ac</title>
<g id="a_node26"><a xlink:href="http://sparql.cwrc.ca/ontologies/cwrc#judaism" xlink:title="Judaism" target="_parent">
<ellipse fill="none" stroke="black" cx="1292.4" cy="-162" rx="48.1917" ry="18"/>
<text text-anchor="middle" x="1292.4" y="-158.3" font-family="Times,serif" font-size="14.00">Judaism</text>
</a>
</g>
</g>
<!-- Xd32ac&#45;&gt;Xb2336 -->
<g id="edge23" class="edge"><title>Xd32ac&#45;&gt;Xb2336</title>
<path fill="none" stroke="black" d="M1279.04,-144.642C1263.82,-126.314 1237.87,-96.024 1213.4,-72 1203.01,-61.8032 1190.96,-51.2496 1180.27,-42.2699"/>
<polygon fill="black" stroke="black" points="1182.34,-39.4359 1172.41,-35.7418 1177.87,-44.822 1182.34,-39.4359"/>
</g>
<!-- Xd2614 -->
<g id="node27" class="node"><title>Xd2614</title>
<g id="a_node27"><a xlink:href="http://sparql.cwrc.ca/ontologies/cwrc#fifthMonarchists" xlink:title="Fifth Monarchists" target="_parent">
<ellipse fill="none" stroke="black" cx="1242.4" cy="-306" rx="94.7833" ry="18"/>
<text text-anchor="middle" x="1242.4" y="-302.3" font-family="Times,serif" font-size="14.00">Fifth Monarchists</text>
</a>
</g>
</g>
<!-- Xd2614&#45;&gt;X156db -->
<g id="edge24" class="edge"><title>Xd2614&#45;&gt;X156db</title>
<path fill="none" stroke="black" d="M1229.57,-288.055C1223.28,-279.753 1215.58,-269.584 1208.61,-260.378"/>
<polygon fill="black" stroke="black" points="1211.3,-258.135 1202.48,-252.275 1205.72,-262.361 1211.3,-258.135"/>
</g>
<!-- Xd2614&#45;&gt;Xb45be -->
<g id="edge25" class="edge"><title>Xd2614&#45;&gt;Xb45be</title>
<path fill="none" stroke="black" d="M1276.66,-289.116C1298.61,-278.941 1327.27,-265.657 1350.69,-254.796"/>
<polygon fill="black" stroke="black" points="1352.45,-257.841 1360.05,-250.46 1349.5,-251.49 1352.45,-257.841"/>
</g>
<!-- X7477d -->
<g id="node28" class="node"><title>X7477d</title>
<g id="a_node28"><a xlink:href="http://sparql.cwrc.ca/ontologies/cwrc#congregationalism" xlink:title="Congregationalism" target="_parent">
<ellipse fill="none" stroke="black" cx="649.396" cy="-234" rx="98.5829" ry="18"/>
<text text-anchor="middle" x="649.396" y="-230.3" font-family="Times,serif" font-size="14.00">Congregationalism</text>
</a>
</g>
</g>
<!-- X7477d&#45;&gt;X4e4b1 -->
<g id="edge26" class="edge"><title>X7477d&#45;&gt;X4e4b1</title>
<path fill="none" stroke="black" d="M619.94,-216.765C602.101,-206.932 579.174,-194.295 560.029,-183.743"/>
<polygon fill="black" stroke="black" points="561.701,-180.668 551.254,-178.906 558.322,-186.798 561.701,-180.668"/>
</g>
<!-- X0e2fa -->
<g id="node29" class="node"><title>X0e2fa</title>
<g id="a_node29"><a xlink:href="http://sparql.cwrc.ca/ontologies/cwrc#presbyterianism" xlink:title="Presbyterianism" target="_parent">
<ellipse fill="none" stroke="black" cx="776.396" cy="-306" rx="87.1846" ry="18"/>
<text text-anchor="middle" x="776.396" y="-302.3" font-family="Times,serif" font-size="14.00">Presbyterianism</text>
</a>
</g>
</g>
<!-- X0e2fa&#45;&gt;X4e4b1 -->
<g id="edge27" class="edge"><title>X0e2fa&#45;&gt;X4e4b1</title>
<path fill="none" stroke="black" d="M777.808,-287.729C778.435,-267.693 776.167,-234.989 757.396,-216 735.646,-193.999 660.553,-179.726 601.034,-171.597"/>
<polygon fill="black" stroke="black" points="601.248,-168.095 590.874,-170.248 600.326,-175.034 601.248,-168.095"/>
</g>
<!-- Xe7b0a -->
<g id="node30" class="node"><title>Xe7b0a</title>
<g id="a_node30"><a xlink:href="http://sparql.cwrc.ca/ontologies/cwrc#neo-thomism" xlink:title="Neo&#45;thomism" target="_parent">
<ellipse fill="none" stroke="black" cx="126.396" cy="-306" rx="73.387" ry="18"/>
<text text-anchor="middle" x="126.396" y="-302.3" font-family="Times,serif" font-size="14.00">Neo&#45;thomism</text>
</a>
</g>
</g>
<!-- Xe7b0a&#45;&gt;X32f53 -->
<g id="edge28" class="edge"><title>Xe7b0a&#45;&gt;X32f53</title>
<path fill="none" stroke="black" d="M126.396,-287.871C126.396,-263.67 126.396,-219.211 126.396,-190.393"/>
<polygon fill="black" stroke="black" points="129.896,-190.189 126.396,-180.189 122.896,-190.189 129.896,-190.189"/>
</g>
<!-- X253de -->
<g id="node31" class="node"><title>X253de</title>
<g id="a_node31"><a xlink:href="http://sparql.cwrc.ca/ontologies/cwrc#quakerism" xlink:title="Quakerism" target="_parent">
<ellipse fill="none" stroke="black" cx="1032.4" cy="-306" rx="61.99" ry="18"/>
<text text-anchor="middle" x="1032.4" y="-302.3" font-family="Times,serif" font-size="14.00">Quakerism</text>
</a>
</g>
</g>
<!-- X253de&#45;&gt;X156db -->
<g id="edge29" class="edge"><title>X253de&#45;&gt;X156db</title>
<path fill="none" stroke="black" d="M1064.93,-290.496C1087.86,-280.269 1118.88,-266.438 1144.22,-255.142"/>
<polygon fill="black" stroke="black" points="1145.91,-258.219 1153.62,-250.95 1143.06,-251.825 1145.91,-258.219"/>
</g>
<!-- X253de&#45;&gt;X4e4b1 -->
<g id="edge30" class="edge"><title>X253de&#45;&gt;X4e4b1</title>
<path fill="none" stroke="black" d="M980.467,-296.15C939.323,-287.974 881.039,-273.762 833.396,-252 807.494,-240.169 806.628,-227.079 780.396,-216 723.232,-191.856 654.175,-178.417 601.897,-171.117"/>
<polygon fill="black" stroke="black" points="602.052,-167.606 591.674,-169.737 601.116,-174.543 602.052,-167.606"/>
</g>
</g>
</svg>
