<?xml version="1.0" encoding="UTF-8" standalone="no"?>
<!DOCTYPE svg PUBLIC "-//W3C//DTD SVG 1.1//EN"
 "http://www.w3.org/Graphics/SVG/1.1/DTD/svg11.dtd">
<!-- Generated by graphviz version 2.38.0 (20140413.2041)
 -->
<!-- Title: ReligionGraph Pages: 1 -->
<svg width="1400pt" height="620pt"
 viewBox="0.00 0.00 1399.79 620.00" xmlns="http://www.w3.org/2000/svg" xmlns:xlink="http://www.w3.org/1999/xlink">
<g id="graph0" class="graph" transform="scale(1 1) rotate(0) translate(4 616)">
<title>ReligionGraph</title>
<polygon fill="white" stroke="none" points="-4,4 -4,-616 1395.79,-616 1395.79,4 -4,4"/>
<!-- X4e4b1 -->
<g id="node1" class="node"><title>X4e4b1</title>
<g id="a_node1"><a xlink:href="http://sparql.cwrc.ca/ontologies/cwrc#protestantism" xlink:title="protestantisme" target="_parent">
<ellipse fill="none" stroke="black" cx="213.593" cy="-234" rx="62.2891" ry="18"/>
<text text-anchor="middle" x="213.593" y="-230.3" font-family="Times,serif" font-size="14.00">protestantisme</text>
</a>
</g>
</g>
<!-- Xadf16 -->
<g id="node2" class="node"><title>Xadf16</title>
<g id="a_node2"><a xlink:href="http://sparql.cwrc.ca/ontologies/cwrc#christianity" xlink:title="Christianisme" target="_parent">
<ellipse fill="none" stroke="black" cx="806.593" cy="-90" rx="59.5901" ry="18"/>
<text text-anchor="middle" x="806.593" y="-86.3" font-family="Times,serif" font-size="14.00">Christianisme</text>
</a>
</g>
</g>
<!-- X4e4b1&#45;&gt;Xadf16 -->
<g id="edge1" class="edge"><title>X4e4b1&#45;&gt;Xadf16</title>
<path fill="none" stroke="black" d="M260.125,-221.857C368.103,-196.001 635.306,-132.016 751.339,-104.231"/>
<polygon fill="black" stroke="black" points="752.182,-107.628 761.092,-101.896 750.552,-100.821 752.182,-107.628"/>
</g>
<!-- Xb2336 -->
<g id="node3" class="node"><title>Xb2336</title>
<g id="a_node3"><a xlink:href="http://sparql.cwrc.ca/ontologies/cwrc#abrahamicReligions" xlink:title="Religions abrahamiques" target="_parent">
<ellipse fill="none" stroke="black" cx="974.593" cy="-18" rx="96.3833" ry="18"/>
<text text-anchor="middle" x="974.593" y="-14.3" font-family="Times,serif" font-size="14.00">Religions abrahamiques</text>
</a>
</g>
</g>
<!-- Xadf16&#45;&gt;Xb2336 -->
<g id="edge2" class="edge"><title>Xadf16&#45;&gt;Xb2336</title>
<path fill="none" stroke="black" d="M840.186,-75.0027C865.198,-64.5812 899.671,-50.2174 927.442,-38.6462"/>
<polygon fill="black" stroke="black" points="929.074,-41.7577 936.959,-34.6808 926.382,-35.2962 929.074,-41.7577"/>
</g>
<!-- X0e2fa -->
<g id="node4" class="node"><title>X0e2fa</title>
<g id="a_node4"><a xlink:href="http://sparql.cwrc.ca/ontologies/cwrc#presbyterianism" xlink:title="Presbytarianisme" target="_parent">
<ellipse fill="none" stroke="black" cx="337.593" cy="-306" rx="71.4873" ry="18"/>
<text text-anchor="middle" x="337.593" y="-302.3" font-family="Times,serif" font-size="14.00">Presbytarianisme</text>
</a>
</g>
</g>
<!-- X156db -->
<g id="node5" class="node"><title>X156db</title>
<g id="a_node5"><a xlink:href="http://sparql.cwrc.ca/ontologies/cwrc#dissentProtestant" xlink:title="dissidents (ou non&#45;conformistes)" target="_parent">
<ellipse fill="none" stroke="black" cx="512.593" cy="-234" rx="126.978" ry="18"/>
<text text-anchor="middle" x="512.593" y="-230.3" font-family="Times,serif" font-size="14.00">dissidents (ou non&#45;conformistes)</text>
</a>
</g>
</g>
<!-- X0e2fa&#45;&gt;X156db -->
<g id="edge3" class="edge"><title>X0e2fa&#45;&gt;X156db</title>
<path fill="none" stroke="black" d="M374.279,-290.326C400.032,-280.024 434.773,-266.128 462.993,-254.84"/>
<polygon fill="black" stroke="black" points="464.307,-258.084 472.292,-251.121 461.707,-251.585 464.307,-258.084"/>
</g>
<!-- Xf6f10 -->
<g id="node6" class="node"><title>Xf6f10</title>
<g id="a_node6"><a xlink:href="http://sparql.cwrc.ca/ontologies/cwrc#anglicanism" xlink:title="Église d&#39;Angleterre" target="_parent">
<ellipse fill="none" stroke="black" cx="718.593" cy="-162" rx="78.7863" ry="18"/>
<text text-anchor="middle" x="718.593" y="-158.3" font-family="Times,serif" font-size="14.00">Église d&#39;Angleterre</text>
</a>
</g>
</g>
<!-- X156db&#45;&gt;Xf6f10 -->
<g id="edge4" class="edge"><title>X156db&#45;&gt;Xf6f10</title>
<path fill="none" stroke="black" d="M559.08,-217.203C591.158,-206.303 633.827,-191.804 666.963,-180.544"/>
<polygon fill="black" stroke="black" points="668.135,-183.843 676.477,-177.311 665.883,-177.215 668.135,-183.843"/>
</g>
<!-- Xf6f10&#45;&gt;Xadf16 -->
<g id="edge19" class="edge"><title>Xf6f10&#45;&gt;Xadf16</title>
<path fill="none" stroke="black" d="M739.448,-144.411C751.122,-135.125 765.835,-123.421 778.51,-113.338"/>
<polygon fill="black" stroke="black" points="780.846,-115.952 786.494,-106.988 776.489,-110.474 780.846,-115.952"/>
</g>
<!-- Xe1e3e -->
<g id="node7" class="node"><title>Xe1e3e</title>
<g id="a_node7"><a xlink:href="http://sparql.cwrc.ca/ontologies/cwrc#methodism" xlink:title="Église méthodiste" target="_parent">
<ellipse fill="none" stroke="black" cx="372.593" cy="-378" rx="74.187" ry="18"/>
<text text-anchor="middle" x="372.593" y="-374.3" font-family="Times,serif" font-size="14.00">Église méthodiste</text>
</a>
</g>
</g>
<!-- Xe1e3e&#45;&gt;X156db -->
<g id="edge5" class="edge"><title>Xe1e3e&#45;&gt;X156db</title>
<path fill="none" stroke="black" d="M388.927,-360.433C413.558,-335.45 460.344,-287.995 488.776,-259.157"/>
<polygon fill="black" stroke="black" points="491.401,-261.48 495.929,-251.902 486.416,-256.566 491.401,-261.48"/>
</g>
<!-- X6f203 -->
<g id="node8" class="node"><title>X6f203</title>
<g id="a_node8"><a xlink:href="http://sparql.cwrc.ca/ontologies/cwrc#christianScience" xlink:title="Science Chrétienne" target="_parent">
<ellipse fill="none" stroke="black" cx="894.593" cy="-162" rx="79.0865" ry="18"/>
<text text-anchor="middle" x="894.593" y="-158.3" font-family="Times,serif" font-size="14.00">Science Chrétienne</text>
</a>
</g>
</g>
<!-- X6f203&#45;&gt;Xadf16 -->
<g id="edge6" class="edge"><title>X6f203&#45;&gt;Xadf16</title>
<path fill="none" stroke="black" d="M873.738,-144.411C862.064,-135.125 847.351,-123.421 834.675,-113.338"/>
<polygon fill="black" stroke="black" points="836.697,-110.474 826.692,-106.988 832.339,-115.952 836.697,-110.474"/>
</g>
<!-- X043aa -->
<g id="node9" class="node"><title>X043aa</title>
<g id="a_node9"><a xlink:href="http://sparql.cwrc.ca/ontologies/cwrc#unitarianism" xlink:title="unitarisme" target="_parent">
<ellipse fill="none" stroke="black" cx="436.593" cy="-450" rx="48.1917" ry="18"/>
<text text-anchor="middle" x="436.593" y="-446.3" font-family="Times,serif" font-size="14.00">unitarisme</text>
</a>
</g>
</g>
<!-- X043aa&#45;&gt;X156db -->
<g id="edge7" class="edge"><title>X043aa&#45;&gt;X156db</title>
<path fill="none" stroke="black" d="M442.771,-431.82C446.495,-421.451 451.328,-407.97 455.593,-396 472.384,-348.868 491.804,-293.921 503.092,-261.938"/>
<polygon fill="black" stroke="black" points="506.431,-262.995 506.458,-252.4 499.83,-260.665 506.431,-262.995"/>
</g>
<!-- Xc1422 -->
<g id="node10" class="node"><title>Xc1422</title>
<g id="a_node10"><a xlink:href="http://sparql.cwrc.ca/ontologies/cwrc#islam" xlink:title="Religion Mahométane" target="_parent">
<ellipse fill="none" stroke="black" cx="974.593" cy="-90" rx="90.1842" ry="18"/>
<text text-anchor="middle" x="974.593" y="-86.3" font-family="Times,serif" font-size="14.00">Religion Mahométane</text>
</a>
</g>
</g>
<!-- Xc1422&#45;&gt;Xb2336 -->
<g id="edge8" class="edge"><title>Xc1422&#45;&gt;Xb2336</title>
<path fill="none" stroke="black" d="M962.836,-72.055C961.2,-64.3456 960.716,-55.0269 961.383,-46.3642"/>
<polygon fill="black" stroke="black" points="964.875,-46.6584 962.767,-36.2753 957.94,-45.7065 964.875,-46.6584"/>
</g>
<!-- Xc1422&#45;&gt;Xb2336 -->
<g id="edge9" class="edge"><title>Xc1422&#45;&gt;Xb2336</title>
<path fill="none" stroke="black" d="M974.593,-71.6966C974.593,-63.9827 974.593,-54.7125 974.593,-46.1124"/>
<polygon fill="black" stroke="black" points="978.093,-46.1043 974.593,-36.1043 971.093,-46.1044 978.093,-46.1043"/>
</g>
<!-- Xc1422&#45;&gt;Xb2336 -->
<g id="edge10" class="edge"><title>Xc1422&#45;&gt;Xb2336</title>
<path fill="none" stroke="black" d="M986.349,-72.055C987.985,-64.3456 988.47,-55.0269 987.803,-46.3642"/>
<polygon fill="black" stroke="black" points="991.246,-45.7065 986.419,-36.2753 984.311,-46.6584 991.246,-45.7065"/>
</g>
<!-- Xc7ed9 -->
<g id="node11" class="node"><title>Xc7ed9</title>
<g id="a_node11"><a xlink:href="http://sparql.cwrc.ca/ontologies/cwrc#hinduism" xlink:title="hindouisme" target="_parent">
<ellipse fill="none" stroke="black" cx="1334.59" cy="-594" rx="51.9908" ry="18"/>
<text text-anchor="middle" x="1334.59" y="-590.3" font-family="Times,serif" font-size="14.00">hindouisme</text>
</a>
</g>
</g>
<!-- X43c0c -->
<g id="node12" class="node"><title>X43c0c</title>
<g id="a_node12"><a xlink:href="http://sparql.cwrc.ca/ontologies/cwrc#occultism" xlink:title="occultisme" target="_parent">
<ellipse fill="none" stroke="black" cx="1334.59" cy="-522" rx="49.2915" ry="18"/>
<text text-anchor="middle" x="1334.59" y="-518.3" font-family="Times,serif" font-size="14.00">occultisme</text>
</a>
</g>
</g>
<!-- Xc7ed9&#45;&gt;X43c0c -->
<!-- X36b94 -->
<g id="node19" class="node"><title>X36b94</title>
<g id="a_node19"><a xlink:href="http://sparql.cwrc.ca/ontologies/cwrc#agnosticism" xlink:title="agnosticisme" target="_parent">
<ellipse fill="none" stroke="black" cx="1334.59" cy="-450" rx="57.3905" ry="18"/>
<text text-anchor="middle" x="1334.59" y="-446.3" font-family="Times,serif" font-size="14.00">agnosticisme</text>
</a>
</g>
</g>
<!-- X43c0c&#45;&gt;X36b94 -->
<!-- Xd2614 -->
<g id="node13" class="node"><title>Xd2614</title>
<g id="a_node13"><a xlink:href="http://sparql.cwrc.ca/ontologies/cwrc#fifthMonarchists" xlink:title="Cinquièmes Monarchistes" target="_parent">
<ellipse fill="none" stroke="black" cx="885.593" cy="-306" rx="103.182" ry="18"/>
<text text-anchor="middle" x="885.593" y="-302.3" font-family="Times,serif" font-size="14.00">Cinquièmes Monarchistes</text>
</a>
</g>
</g>
<!-- Xd2614&#45;&gt;X156db -->
<g id="edge12" class="edge"><title>Xd2614&#45;&gt;X156db</title>
<path fill="none" stroke="black" d="M818.045,-292.324C755.643,-280.613 662.747,-263.179 595.795,-250.614"/>
<polygon fill="black" stroke="black" points="596.171,-247.124 585.697,-248.719 594.88,-254.004 596.171,-247.124"/>
</g>
<!-- Xb45be -->
<g id="node14" class="node"><title>Xb45be</title>
<g id="a_node14"><a xlink:href="http://sparql.cwrc.ca/ontologies/cwrc#millenarianism" xlink:title="millénarisme, ou chiliasme" target="_parent">
<ellipse fill="none" stroke="black" cx="905.593" cy="-234" rx="107.781" ry="18"/>
<text text-anchor="middle" x="905.593" y="-230.3" font-family="Times,serif" font-size="14.00">millénarisme, ou chiliasme</text>
</a>
</g>
</g>
<!-- Xd2614&#45;&gt;Xb45be -->
<g id="edge13" class="edge"><title>Xd2614&#45;&gt;Xb45be</title>
<path fill="none" stroke="black" d="M890.537,-287.697C892.765,-279.898 895.448,-270.509 897.927,-261.829"/>
<polygon fill="black" stroke="black" points="901.324,-262.681 900.706,-252.104 894.593,-260.758 901.324,-262.681"/>
</g>
<!-- X7477d -->
<g id="node15" class="node"><title>X7477d</title>
<g id="a_node15"><a xlink:href="http://sparql.cwrc.ca/ontologies/cwrc#congregationalism" xlink:title="Églises congrégationalistes" target="_parent">
<ellipse fill="none" stroke="black" cx="512.593" cy="-522" rx="106.681" ry="18"/>
<text text-anchor="middle" x="512.593" y="-518.3" font-family="Times,serif" font-size="14.00">Églises congrégationalistes</text>
</a>
</g>
</g>
<!-- X7477d&#45;&gt;X156db -->
<g id="edge14" class="edge"><title>X7477d&#45;&gt;X156db</title>
<path fill="none" stroke="black" d="M512.593,-503.966C512.593,-456.291 512.593,-321.185 512.593,-262.63"/>
<polygon fill="black" stroke="black" points="516.093,-262.306 512.593,-252.306 509.093,-262.306 516.093,-262.306"/>
</g>
<!-- X32f53 -->
<g id="node16" class="node"><title>X32f53</title>
<g id="a_node16"><a xlink:href="http://sparql.cwrc.ca/ontologies/cwrc#catholicism" xlink:title="Catholicisme" target="_parent">
<ellipse fill="none" stroke="black" cx="1143.59" cy="-162" rx="57.6901" ry="18"/>
<text text-anchor="middle" x="1143.59" y="-158.3" font-family="Times,serif" font-size="14.00">Catholicisme</text>
</a>
</g>
</g>
<!-- X32f53&#45;&gt;Xadf16 -->
<g id="edge15" class="edge"><title>X32f53&#45;&gt;Xadf16</title>
<path fill="none" stroke="black" d="M1095.04,-152.098C1041.24,-142.072 951.991,-124.956 875.593,-108 870.675,-106.909 865.571,-105.733 860.465,-104.528"/>
<polygon fill="black" stroke="black" points="861.233,-101.112 850.693,-102.188 859.603,-107.92 861.233,-101.112"/>
</g>
<!-- X253de -->
<g id="node17" class="node"><title>X253de</title>
<g id="a_node17"><a xlink:href="http://sparql.cwrc.ca/ontologies/cwrc#quakerism" xlink:title="quaker" target="_parent">
<ellipse fill="none" stroke="black" cx="213.593" cy="-306" rx="34.394" ry="18"/>
<text text-anchor="middle" x="213.593" y="-302.3" font-family="Times,serif" font-size="14.00">quaker</text>
</a>
</g>
</g>
<!-- X253de&#45;&gt;X4e4b1 -->
<g id="edge16" class="edge"><title>X253de&#45;&gt;X4e4b1</title>
<path fill="none" stroke="black" d="M213.593,-287.697C213.593,-279.983 213.593,-270.712 213.593,-262.112"/>
<polygon fill="black" stroke="black" points="217.093,-262.104 213.593,-252.104 210.093,-262.104 217.093,-262.104"/>
</g>
<!-- X253de&#45;&gt;X156db -->
<g id="edge17" class="edge"><title>X253de&#45;&gt;X156db</title>
<path fill="none" stroke="black" d="M239.875,-294.04C245.652,-291.858 251.78,-289.714 257.593,-288 311.76,-272.024 373.769,-259.021 423.075,-249.893"/>
<polygon fill="black" stroke="black" points="423.872,-253.306 433.078,-248.062 422.611,-246.42 423.872,-253.306"/>
</g>
<!-- Xb800b -->
<g id="node18" class="node"><title>Xb800b</title>
<g id="a_node18"><a xlink:href="http://sparql.cwrc.ca/ontologies/cwrc#tractarianMovement" xlink:title="tractarianisme" target="_parent">
<ellipse fill="none" stroke="black" cx="718.593" cy="-234" rx="61.1893" ry="18"/>
<text text-anchor="middle" x="718.593" y="-230.3" font-family="Times,serif" font-size="14.00">tractarianisme</text>
</a>
</g>
</g>
<!-- Xb800b&#45;&gt;Xf6f10 -->
<g id="edge18" class="edge"><title>Xb800b&#45;&gt;Xf6f10</title>
<path fill="none" stroke="black" d="M718.593,-215.697C718.593,-207.983 718.593,-198.712 718.593,-190.112"/>
<polygon fill="black" stroke="black" points="722.093,-190.104 718.593,-180.104 715.093,-190.104 722.093,-190.104"/>
</g>
<!-- X7152e -->
<g id="node20" class="node"><title>X7152e</title>
<g id="a_node20"><a xlink:href="http://sparql.cwrc.ca/ontologies/cwrc#atheism" xlink:title="athéisme" target="_parent">
<ellipse fill="none" stroke="black" cx="1334.59" cy="-378" rx="42.4939" ry="18"/>
<text text-anchor="middle" x="1334.59" y="-374.3" font-family="Times,serif" font-size="14.00">athéisme</text>
</a>
</g>
</g>
<!-- X36b94&#45;&gt;X7152e -->
<!-- Xd35c6 -->
<g id="node21" class="node"><title>Xd35c6</title>
<g id="a_node21"><a xlink:href="http://sparql.cwrc.ca/ontologies/cwrc#spiritualism" xlink:title="Spritisme" target="_parent">
<ellipse fill="none" stroke="black" cx="1334.59" cy="-306" rx="44.6926" ry="18"/>
<text text-anchor="middle" x="1334.59" y="-302.3" font-family="Times,serif" font-size="14.00">Spritisme</text>
</a>
</g>
</g>
<!-- X7152e&#45;&gt;Xd35c6 -->
<!-- X52798 -->
<g id="node23" class="node"><title>X52798</title>
<g id="a_node23"><a xlink:href="http://sparql.cwrc.ca/ontologies/cwrc#pantheism" xlink:title="Panthéisme" target="_parent">
<ellipse fill="none" stroke="black" cx="1334.59" cy="-234" rx="51.9908" ry="18"/>
<text text-anchor="middle" x="1334.59" y="-230.3" font-family="Times,serif" font-size="14.00">Panthéisme</text>
</a>
</g>
</g>
<!-- Xd35c6&#45;&gt;X52798 -->
<!-- X2a5d0 -->
<g id="node22" class="node"><title>X2a5d0</title>
<g id="a_node22"><a xlink:href="http://sparql.cwrc.ca/ontologies/cwrc#churchOfIreland" xlink:title="Église d&#39;Irlande" target="_parent">
<ellipse fill="none" stroke="black" cx="1072.59" cy="-306" rx="65.7887" ry="18"/>
<text text-anchor="middle" x="1072.59" y="-302.3" font-family="Times,serif" font-size="14.00">Église d&#39;Irlande</text>
</a>
</g>
</g>
<!-- X2a5d0&#45;&gt;Xf6f10 -->
<g id="edge23" class="edge"><title>X2a5d0&#45;&gt;Xf6f10</title>
<path fill="none" stroke="black" d="M1067.92,-287.839C1061.37,-267.273 1047.4,-233.412 1022.59,-216 942.935,-160.083 902.379,-197.231 806.593,-180 800.008,-178.815 793.152,-177.549 786.302,-176.262"/>
<polygon fill="black" stroke="black" points="786.78,-172.79 776.303,-174.368 785.477,-179.668 786.78,-172.79"/>
</g>
<!-- X3b80a -->
<g id="node25" class="node"><title>X3b80a</title>
<g id="a_node25"><a xlink:href="http://sparql.cwrc.ca/ontologies/cwrc#buddhism" xlink:title="Bouddhisme" target="_parent">
<ellipse fill="none" stroke="black" cx="1334.59" cy="-162" rx="55.7903" ry="18"/>
<text text-anchor="middle" x="1334.59" y="-158.3" font-family="Times,serif" font-size="14.00">Bouddhisme</text>
</a>
</g>
</g>
<!-- X52798&#45;&gt;X3b80a -->
<!-- Xe7b0a -->
<g id="node24" class="node"><title>Xe7b0a</title>
<g id="a_node24"><a xlink:href="http://sparql.cwrc.ca/ontologies/cwrc#neo-thomism" xlink:title="néothomisme" target="_parent">
<ellipse fill="none" stroke="black" cx="1143.59" cy="-234" rx="59.2899" ry="18"/>
<text text-anchor="middle" x="1143.59" y="-230.3" font-family="Times,serif" font-size="14.00">néothomisme</text>
</a>
</g>
</g>
<!-- Xe7b0a&#45;&gt;X32f53 -->
<g id="edge25" class="edge"><title>Xe7b0a&#45;&gt;X32f53</title>
<path fill="none" stroke="black" d="M1143.59,-215.697C1143.59,-207.983 1143.59,-198.712 1143.59,-190.112"/>
<polygon fill="black" stroke="black" points="1147.09,-190.104 1143.59,-180.104 1140.09,-190.104 1147.09,-190.104"/>
</g>
<!-- X37200 -->
<g id="node28" class="node"><title>X37200</title>
<g id="a_node28"><a xlink:href="http://sparql.cwrc.ca/ontologies/cwrc#paganism" xlink:title="Paganisme" target="_parent">
<ellipse fill="none" stroke="black" cx="1334.59" cy="-90" rx="49.2915" ry="18"/>
<text text-anchor="middle" x="1334.59" y="-86.3" font-family="Times,serif" font-size="14.00">Paganisme</text>
</a>
</g>
</g>
<!-- X3b80a&#45;&gt;X37200 -->
<!-- X8fa8b -->
<g id="node26" class="node"><title>X8fa8b</title>
<g id="a_node26"><a xlink:href="http://sparql.cwrc.ca/ontologies/cwrc#plymouthBrethren" xlink:title="Frères de Schwarzenau" target="_parent">
<ellipse fill="none" stroke="black" cx="633.593" cy="-306" rx="92.8835" ry="18"/>
<text text-anchor="middle" x="633.593" y="-302.3" font-family="Times,serif" font-size="14.00">Frères de Schwarzenau</text>
</a>
</g>
</g>
<!-- X8fa8b&#45;&gt;X156db -->
<g id="edge27" class="edge"><title>X8fa8b&#45;&gt;X156db</title>
<path fill="none" stroke="black" d="M600.375,-289.116C582.894,-279.635 561.653,-267.455 544.39,-257.052"/>
<polygon fill="black" stroke="black" points="546.127,-254.012 535.766,-251.797 542.484,-259.99 546.127,-254.012"/>
</g>
<!-- X8fa8b&#45;&gt;X156db -->
<g id="edge28" class="edge"><title>X8fa8b&#45;&gt;X156db</title>
<path fill="none" stroke="black" d="M610.757,-288.411C595.228,-278.822 574.34,-266.655 555.78,-256.356"/>
<polygon fill="black" stroke="black" points="557.339,-253.219 546.889,-251.47 553.967,-259.354 557.339,-253.219"/>
</g>
<!-- X9deb8 -->
<g id="node27" class="node"><title>X9deb8</title>
<g id="a_node27"><a xlink:href="http://sparql.cwrc.ca/ontologies/cwrc#dissentingChristianity" xlink:title="Dissidence anglaise" target="_parent">
<ellipse fill="none" stroke="black" cx="80.5928" cy="-306" rx="80.6858" ry="18"/>
<text text-anchor="middle" x="80.5928" y="-302.3" font-family="Times,serif" font-size="14.00">Dissidence anglaise</text>
</a>
</g>
</g>
<!-- X9deb8&#45;&gt;X4e4b1 -->
<g id="edge29" class="edge"><title>X9deb8&#45;&gt;X4e4b1</title>
<path fill="none" stroke="black" d="M110.773,-289.116C130.047,-278.972 155.193,-265.737 175.793,-254.895"/>
<polygon fill="black" stroke="black" points="177.681,-257.856 184.9,-250.101 174.421,-251.662 177.681,-257.856"/>
</g>
<!-- Xd53bc -->
<g id="node29" class="node"><title>Xd53bc</title>
<g id="a_node29"><a xlink:href="http://sparql.cwrc.ca/ontologies/cwrc#baptistChristianity" xlink:title="Baptisme" target="_parent">
<ellipse fill="none" stroke="black" cx="754.593" cy="-594" rx="44.393" ry="18"/>
<text text-anchor="middle" x="754.593" y="-590.3" font-family="Times,serif" font-size="14.00">Baptisme</text>
</a>
</g>
</g>
<!-- Xd53bc&#45;&gt;X156db -->
<g id="edge31" class="edge"><title>Xd53bc&#45;&gt;X156db</title>
<path fill="none" stroke="black" d="M754.593,-575.951C754.593,-549.292 754.593,-496.115 754.593,-451 754.593,-451 754.593,-451 754.593,-377 754.593,-336.553 763.862,-316.927 735.593,-288 718.09,-270.09 663.897,-256.98 613.32,-248.279"/>
<polygon fill="black" stroke="black" points="613.705,-244.795 603.265,-246.598 612.551,-251.699 613.705,-244.795"/>
</g>
<!-- X1cc79 -->
<g id="node30" class="node"><title>X1cc79</title>
<g id="a_node30"><a xlink:href="http://sparql.cwrc.ca/ontologies/cwrc#lollardy" xlink:title="Lollardy" target="_parent">
<ellipse fill="none" stroke="black" cx="1230.59" cy="-306" rx="40.8928" ry="18"/>
<text text-anchor="middle" x="1230.59" y="-302.3" font-family="Times,serif" font-size="14.00">Lollardy</text>
</a>
</g>
</g>
<!-- X1cc79&#45;&gt;X32f53 -->
<g id="edge32" class="edge"><title>X1cc79&#45;&gt;X32f53</title>
<path fill="none" stroke="black" d="M1230.36,-287.976C1229.37,-269.051 1225.51,-238.228 1211.59,-216 1203.6,-203.24 1191.39,-192.325 1179.51,-183.775"/>
<polygon fill="black" stroke="black" points="1181.22,-180.706 1170.99,-177.975 1177.29,-186.494 1181.22,-180.706"/>
</g>
</g>
</svg>
