<?xml version="1.0" encoding="UTF-8" standalone="no"?>
<!DOCTYPE svg PUBLIC "-//W3C//DTD SVG 1.1//EN"
 "http://www.w3.org/Graphics/SVG/1.1/DTD/svg11.dtd">
<!-- Generated by graphviz version 2.38.0 (20140413.2041)
 -->
<!-- Title: ReligionGraph Pages: 1 -->
<svg width="1354pt" height="620pt"
 viewBox="0.00 0.00 1353.79 620.00" xmlns="http://www.w3.org/2000/svg" xmlns:xlink="http://www.w3.org/1999/xlink">
<g id="graph0" class="graph" transform="scale(1 1) rotate(0) translate(4 616)">
<title>ReligionGraph</title>
<polygon fill="white" stroke="none" points="-4,4 -4,-616 1349.79,-616 1349.79,4 -4,4"/>
<!-- X37200 -->
<g id="node1" class="node"><title>X37200</title>
<g id="a_node1"><a xlink:href="http://sparql.cwrc.ca/ontologies/cwrc#paganism" xlink:title="Paganism" target="_parent">
<ellipse fill="none" stroke="black" cx="97.4913" cy="-594" rx="45.4919" ry="18"/>
<text text-anchor="middle" x="97.4913" y="-590.3" font-family="Times,serif" font-size="14.00">Paganism</text>
</a>
</g>
</g>
<!-- X3b80a -->
<g id="node2" class="node"><title>X3b80a</title>
<g id="a_node2"><a xlink:href="http://sparql.cwrc.ca/ontologies/cwrc#buddhism" xlink:title="Buddhism" target="_parent">
<ellipse fill="none" stroke="black" cx="97.4913" cy="-522" rx="47.3916" ry="18"/>
<text text-anchor="middle" x="97.4913" y="-518.3" font-family="Times,serif" font-size="14.00">Buddhism</text>
</a>
</g>
</g>
<!-- X37200&#45;&gt;X3b80a -->
<!-- X36b94 -->
<g id="node3" class="node"><title>X36b94</title>
<g id="a_node3"><a xlink:href="http://sparql.cwrc.ca/ontologies/cwrc#agnosticism" xlink:title="Agnosticism" target="_parent">
<ellipse fill="none" stroke="black" cx="97.4913" cy="-450" rx="55.7903" ry="18"/>
<text text-anchor="middle" x="97.4913" y="-446.3" font-family="Times,serif" font-size="14.00">Agnosticism</text>
</a>
</g>
</g>
<!-- X3b80a&#45;&gt;X36b94 -->
<!-- Xd35c6 -->
<g id="node4" class="node"><title>Xd35c6</title>
<g id="a_node4"><a xlink:href="http://sparql.cwrc.ca/ontologies/cwrc#spiritualism" xlink:title="Spiritualism" target="_parent">
<ellipse fill="none" stroke="black" cx="97.4913" cy="-378" rx="53.8905" ry="18"/>
<text text-anchor="middle" x="97.4913" y="-374.3" font-family="Times,serif" font-size="14.00">Spiritualism</text>
</a>
</g>
</g>
<!-- X36b94&#45;&gt;Xd35c6 -->
<!-- Xc7ed9 -->
<g id="node8" class="node"><title>Xc7ed9</title>
<g id="a_node8"><a xlink:href="http://sparql.cwrc.ca/ontologies/cwrc#hinduism" xlink:title="Hinduism" target="_parent">
<ellipse fill="none" stroke="black" cx="97.4913" cy="-306" rx="46.2923" ry="18"/>
<text text-anchor="middle" x="97.4913" y="-302.3" font-family="Times,serif" font-size="14.00">Hinduism</text>
</a>
</g>
</g>
<!-- Xd35c6&#45;&gt;Xc7ed9 -->
<!-- Xe1e3e -->
<g id="node5" class="node"><title>Xe1e3e</title>
<g id="a_node5"><a xlink:href="http://sparql.cwrc.ca/ontologies/cwrc#methodism" xlink:title="Methodism" target="_parent">
<ellipse fill="none" stroke="black" cx="213.491" cy="-306" rx="51.9908" ry="18"/>
<text text-anchor="middle" x="213.491" y="-302.3" font-family="Times,serif" font-size="14.00">Methodism</text>
</a>
</g>
</g>
<!-- X156db -->
<g id="node6" class="node"><title>X156db</title>
<g id="a_node6"><a xlink:href="http://sparql.cwrc.ca/ontologies/cwrc#dissentProtestant" xlink:title="Dissent (Protestant)" target="_parent">
<ellipse fill="none" stroke="black" cx="430.491" cy="-234" rx="80.6858" ry="18"/>
<text text-anchor="middle" x="430.491" y="-230.3" font-family="Times,serif" font-size="14.00">Dissent (Protestant)</text>
</a>
</g>
</g>
<!-- Xe1e3e&#45;&gt;X156db -->
<g id="edge4" class="edge"><title>Xe1e3e&#45;&gt;X156db</title>
<path fill="none" stroke="black" d="M250.302,-293.125C284.971,-281.942 337.313,-265.057 376.666,-252.363"/>
<polygon fill="black" stroke="black" points="377.929,-255.633 386.372,-249.232 375.78,-248.971 377.929,-255.633"/>
</g>
<!-- X4e4b1 -->
<g id="node7" class="node"><title>X4e4b1</title>
<g id="a_node7"><a xlink:href="http://sparql.cwrc.ca/ontologies/cwrc#protestantism" xlink:title="Protestantism" target="_parent">
<ellipse fill="none" stroke="black" cx="662.491" cy="-162" rx="59.2899" ry="18"/>
<text text-anchor="middle" x="662.491" y="-158.3" font-family="Times,serif" font-size="14.00">Protestantism</text>
</a>
</g>
</g>
<!-- X156db&#45;&gt;X4e4b1 -->
<g id="edge5" class="edge"><title>X156db&#45;&gt;X4e4b1</title>
<path fill="none" stroke="black" d="M476.327,-219.17C515.488,-207.355 571.737,-190.383 612.143,-178.191"/>
<polygon fill="black" stroke="black" points="613.233,-181.518 621.796,-175.279 611.211,-174.817 613.233,-181.518"/>
</g>
<!-- Xadf16 -->
<g id="node18" class="node"><title>Xadf16</title>
<g id="a_node18"><a xlink:href="http://sparql.cwrc.ca/ontologies/cwrc#christianity" xlink:title="Christianity" target="_parent">
<ellipse fill="none" stroke="black" cx="1050.49" cy="-90" rx="51.9908" ry="18"/>
<text text-anchor="middle" x="1050.49" y="-86.3" font-family="Times,serif" font-size="14.00">Christianity</text>
</a>
</g>
</g>
<!-- X4e4b1&#45;&gt;Xadf16 -->
<g id="edge17" class="edge"><title>X4e4b1&#45;&gt;Xadf16</title>
<path fill="none" stroke="black" d="M712.026,-152.063C784.61,-138.968 919.44,-114.643 995.176,-100.979"/>
<polygon fill="black" stroke="black" points="996.239,-104.344 1005.46,-99.1245 994.996,-97.4557 996.239,-104.344"/>
</g>
<!-- X52798 -->
<g id="node14" class="node"><title>X52798</title>
<g id="a_node14"><a xlink:href="http://sparql.cwrc.ca/ontologies/cwrc#pantheism" xlink:title="Pantheism" target="_parent">
<ellipse fill="none" stroke="black" cx="97.4913" cy="-234" rx="48.1917" ry="18"/>
<text text-anchor="middle" x="97.4913" y="-230.3" font-family="Times,serif" font-size="14.00">Pantheism</text>
</a>
</g>
</g>
<!-- Xc7ed9&#45;&gt;X52798 -->
<!-- X043aa -->
<g id="node9" class="node"><title>X043aa</title>
<g id="a_node9"><a xlink:href="http://sparql.cwrc.ca/ontologies/cwrc#unitarianism" xlink:title="Unitarianism" target="_parent">
<ellipse fill="none" stroke="black" cx="269.491" cy="-378" rx="57.3905" ry="18"/>
<text text-anchor="middle" x="269.491" y="-374.3" font-family="Times,serif" font-size="14.00">Unitarianism</text>
</a>
</g>
</g>
<!-- X043aa&#45;&gt;X156db -->
<g id="edge7" class="edge"><title>X043aa&#45;&gt;X156db</title>
<path fill="none" stroke="black" d="M280.23,-360.054C292.944,-340.918 315.563,-309.637 340.491,-288 354.915,-275.481 372.705,-264.292 388.65,-255.457"/>
<polygon fill="black" stroke="black" points="390.642,-258.36 397.785,-250.535 387.322,-252.197 390.642,-258.36"/>
</g>
<!-- Xd2614 -->
<g id="node10" class="node"><title>Xd2614</title>
<g id="a_node10"><a xlink:href="http://sparql.cwrc.ca/ontologies/cwrc#fifthMonarchists" xlink:title="Fifth Monarchists" target="_parent">
<ellipse fill="none" stroke="black" cx="686.491" cy="-306" rx="74.187" ry="18"/>
<text text-anchor="middle" x="686.491" y="-302.3" font-family="Times,serif" font-size="14.00">Fifth Monarchists</text>
</a>
</g>
</g>
<!-- Xd2614&#45;&gt;X156db -->
<g id="edge8" class="edge"><title>Xd2614&#45;&gt;X156db</title>
<path fill="none" stroke="black" d="M639.239,-292.079C596.975,-280.523 534.862,-263.539 489.378,-251.102"/>
<polygon fill="black" stroke="black" points="490.217,-247.703 479.648,-248.441 488.371,-254.455 490.217,-247.703"/>
</g>
<!-- Xb45be -->
<g id="node11" class="node"><title>Xb45be</title>
<g id="a_node11"><a xlink:href="http://sparql.cwrc.ca/ontologies/cwrc#millenarianism" xlink:title="Millenarianism" target="_parent">
<ellipse fill="none" stroke="black" cx="771.491" cy="-234" rx="65.7887" ry="18"/>
<text text-anchor="middle" x="771.491" y="-230.3" font-family="Times,serif" font-size="14.00">Millenarianism</text>
</a>
</g>
</g>
<!-- Xd2614&#45;&gt;Xb45be -->
<g id="edge9" class="edge"><title>Xd2614&#45;&gt;Xb45be</title>
<path fill="none" stroke="black" d="M706.635,-288.411C717.724,-279.279 731.652,-267.809 743.755,-257.842"/>
<polygon fill="black" stroke="black" points="746.291,-260.287 751.785,-251.228 741.841,-254.884 746.291,-260.287"/>
</g>
<!-- Xe7b0a -->
<g id="node12" class="node"><title>Xe7b0a</title>
<g id="a_node12"><a xlink:href="http://sparql.cwrc.ca/ontologies/cwrc#neo-thomism" xlink:title="Neo&#45;thomism" target="_parent">
<ellipse fill="none" stroke="black" cx="518.491" cy="-522" rx="59.5901" ry="18"/>
<text text-anchor="middle" x="518.491" y="-518.3" font-family="Times,serif" font-size="14.00">Neo&#45;thomism</text>
</a>
</g>
</g>
<!-- X32f53 -->
<g id="node13" class="node"><title>X32f53</title>
<ellipse fill="none" stroke="black" cx="562.491" cy="-450" rx="37.8943" ry="18"/>
<text text-anchor="middle" x="562.491" y="-446.3" font-family="Times,serif" font-size="14.00">X32f53</text>
</g>
<!-- Xe7b0a&#45;&gt;X32f53 -->
<g id="edge10" class="edge"><title>Xe7b0a&#45;&gt;X32f53</title>
<path fill="none" stroke="black" d="M529.143,-504.055C534.331,-495.801 540.679,-485.701 546.439,-476.538"/>
<polygon fill="black" stroke="black" points="549.58,-478.118 551.938,-467.789 543.653,-474.393 549.58,-478.118"/>
</g>
<!-- X7152e -->
<g id="node24" class="node"><title>X7152e</title>
<g id="a_node24"><a xlink:href="http://sparql.cwrc.ca/ontologies/cwrc#atheism" xlink:title="Atheism" target="_parent">
<ellipse fill="none" stroke="black" cx="97.4913" cy="-162" rx="40.8928" ry="18"/>
<text text-anchor="middle" x="97.4913" y="-158.3" font-family="Times,serif" font-size="14.00">Atheism</text>
</a>
</g>
</g>
<!-- X52798&#45;&gt;X7152e -->
<!-- X1cc79 -->
<g id="node15" class="node"><title>X1cc79</title>
<g id="a_node15"><a xlink:href="http://sparql.cwrc.ca/ontologies/cwrc#lollardy" xlink:title="Lollardy" target="_parent">
<ellipse fill="none" stroke="black" cx="606.491" cy="-594" rx="40.8928" ry="18"/>
<text text-anchor="middle" x="606.491" y="-590.3" font-family="Times,serif" font-size="14.00">Lollardy</text>
</a>
</g>
</g>
<!-- X1cc79&#45;&gt;X32f53 -->
<g id="edge12" class="edge"><title>X1cc79&#45;&gt;X32f53</title>
<path fill="none" stroke="black" d="M604.052,-575.958C601.178,-557.81 595.728,-528.401 587.491,-504 584.418,-494.895 580.209,-485.294 576.121,-476.803"/>
<polygon fill="black" stroke="black" points="579.215,-475.163 571.624,-467.772 572.949,-478.284 579.215,-475.163"/>
</g>
<!-- X253de -->
<g id="node16" class="node"><title>X253de</title>
<g id="a_node16"><a xlink:href="http://sparql.cwrc.ca/ontologies/cwrc#quakerism" xlink:title="Quakerism" target="_parent">
<ellipse fill="none" stroke="black" cx="314.491" cy="-450" rx="50.0912" ry="18"/>
<text text-anchor="middle" x="314.491" y="-446.3" font-family="Times,serif" font-size="14.00">Quakerism</text>
</a>
</g>
</g>
<!-- X253de&#45;&gt;X156db -->
<g id="edge13" class="edge"><title>X253de&#45;&gt;X156db</title>
<path fill="none" stroke="black" d="M321.276,-431.87C337.638,-390.563 377.968,-288.803 378.491,-288 385.345,-277.472 394.517,-267.279 403.248,-258.692"/>
<polygon fill="black" stroke="black" points="405.889,-261.011 410.738,-251.591 401.073,-255.931 405.889,-261.011"/>
</g>
<!-- Xf6f10 -->
<g id="node17" class="node"><title>Xf6f10</title>
<g id="a_node17"><a xlink:href="http://sparql.cwrc.ca/ontologies/cwrc#anglicanism" xlink:title="Anglicanism" target="_parent">
<ellipse fill="none" stroke="black" cx="1027.49" cy="-162" rx="55.7903" ry="18"/>
<text text-anchor="middle" x="1027.49" y="-158.3" font-family="Times,serif" font-size="14.00">Anglicanism</text>
</a>
</g>
</g>
<!-- Xf6f10&#45;&gt;Xadf16 -->
<g id="edge14" class="edge"><title>Xf6f10&#45;&gt;Xadf16</title>
<path fill="none" stroke="black" d="M1033.06,-144.055C1035.65,-136.176 1038.79,-126.617 1041.69,-117.794"/>
<polygon fill="black" stroke="black" points="1045.02,-118.868 1044.82,-108.275 1038.37,-116.683 1045.02,-118.868"/>
</g>
<!-- Xb2336 -->
<g id="node19" class="node"><title>Xb2336</title>
<g id="a_node19"><a xlink:href="http://sparql.cwrc.ca/ontologies/cwrc#abrahamicReligions" xlink:title="Abrahamic religions" target="_parent">
<ellipse fill="none" stroke="black" cx="1210.49" cy="-18" rx="83.3857" ry="18"/>
<text text-anchor="middle" x="1210.49" y="-14.3" font-family="Times,serif" font-size="14.00">Abrahamic religions</text>
</a>
</g>
</g>
<!-- Xadf16&#45;&gt;Xb2336 -->
<g id="edge15" class="edge"><title>Xadf16&#45;&gt;Xb2336</title>
<path fill="none" stroke="black" d="M1081.34,-75.5033C1105.39,-64.9838 1139.1,-50.2331 1166.05,-38.441"/>
<polygon fill="black" stroke="black" points="1167.52,-41.6199 1175.28,-34.4051 1164.72,-35.2068 1167.52,-41.6199"/>
</g>
<!-- Xb800b -->
<g id="node20" class="node"><title>Xb800b</title>
<g id="a_node20"><a xlink:href="http://sparql.cwrc.ca/ontologies/cwrc#tractarianMovement" xlink:title="Tractarian Movement" target="_parent">
<ellipse fill="none" stroke="black" cx="1143.49" cy="-234" rx="88.2844" ry="18"/>
<text text-anchor="middle" x="1143.49" y="-230.3" font-family="Times,serif" font-size="14.00">Tractarian Movement</text>
</a>
</g>
</g>
<!-- Xb800b&#45;&gt;Xf6f10 -->
<g id="edge16" class="edge"><title>Xb800b&#45;&gt;Xf6f10</title>
<path fill="none" stroke="black" d="M1116.59,-216.765C1100.17,-206.859 1079.04,-194.108 1061.48,-183.509"/>
<polygon fill="black" stroke="black" points="1063.03,-180.359 1052.66,-178.189 1059.42,-186.352 1063.03,-180.359"/>
</g>
<!-- Xc1422 -->
<g id="node21" class="node"><title>Xc1422</title>
<g id="a_node21"><a xlink:href="http://sparql.cwrc.ca/ontologies/cwrc#islam" xlink:title="Islamism" target="_parent">
<ellipse fill="none" stroke="black" cx="1210.49" cy="-90" rx="44.393" ry="18"/>
<text text-anchor="middle" x="1210.49" y="-86.3" font-family="Times,serif" font-size="14.00">Islamism</text>
</a>
</g>
</g>
<!-- Xc1422&#45;&gt;Xb2336 -->
<g id="edge18" class="edge"><title>Xc1422&#45;&gt;Xb2336</title>
<path fill="none" stroke="black" d="M1210.49,-71.6966C1210.49,-63.9827 1210.49,-54.7125 1210.49,-46.1124"/>
<polygon fill="black" stroke="black" points="1213.99,-46.1043 1210.49,-36.1043 1206.99,-46.1044 1213.99,-46.1043"/>
</g>
<!-- X2a5d0 -->
<g id="node22" class="node"><title>X2a5d0</title>
<g id="a_node22"><a xlink:href="http://sparql.cwrc.ca/ontologies/cwrc#churchOfIreland" xlink:title="Church of Ireland" target="_parent">
<ellipse fill="none" stroke="black" cx="1027.49" cy="-306" rx="73.387" ry="18"/>
<text text-anchor="middle" x="1027.49" y="-302.3" font-family="Times,serif" font-size="14.00">Church of Ireland</text>
</a>
</g>
</g>
<!-- X2a5d0&#45;&gt;Xf6f10 -->
<g id="edge19" class="edge"><title>X2a5d0&#45;&gt;Xf6f10</title>
<path fill="none" stroke="black" d="M1027.49,-287.871C1027.49,-263.67 1027.49,-219.211 1027.49,-190.393"/>
<polygon fill="black" stroke="black" points="1030.99,-190.189 1027.49,-180.189 1023.99,-190.189 1030.99,-190.189"/>
</g>
<!-- X7477d -->
<g id="node23" class="node"><title>X7477d</title>
<g id="a_node23"><a xlink:href="http://sparql.cwrc.ca/ontologies/cwrc#congregationalism" xlink:title="Congregationalism" target="_parent">
<ellipse fill="none" stroke="black" cx="324.491" cy="-522" rx="77.9862" ry="18"/>
<text text-anchor="middle" x="324.491" y="-518.3" font-family="Times,serif" font-size="14.00">Congregationalism</text>
</a>
</g>
</g>
<!-- X7477d&#45;&gt;X156db -->
<g id="edge20" class="edge"><title>X7477d&#45;&gt;X156db</title>
<path fill="none" stroke="black" d="M344.303,-504.192C354.449,-494.571 366.174,-481.708 373.491,-468 412.226,-395.441 396.431,-367.767 416.491,-288 418.613,-279.564 421.004,-270.395 423.202,-262.092"/>
<polygon fill="black" stroke="black" points="426.656,-262.723 425.848,-252.159 419.892,-260.921 426.656,-262.723"/>
</g>
<!-- X43c0c -->
<g id="node29" class="node"><title>X43c0c</title>
<g id="a_node29"><a xlink:href="http://sparql.cwrc.ca/ontologies/cwrc#occultism" xlink:title="Occultism/Theosophism" target="_parent">
<ellipse fill="none" stroke="black" cx="97.4913" cy="-90" rx="97.4827" ry="18"/>
<text text-anchor="middle" x="97.4913" y="-86.3" font-family="Times,serif" font-size="14.00">Occultism/Theosophism</text>
</a>
</g>
</g>
<!-- X7152e&#45;&gt;X43c0c -->
<!-- X8fa8b -->
<g id="node25" class="node"><title>X8fa8b</title>
<g id="a_node25"><a xlink:href="http://sparql.cwrc.ca/ontologies/cwrc#plymouthBrethren" xlink:title="Plymouth Brethren" target="_parent">
<ellipse fill="none" stroke="black" cx="857.491" cy="-306" rx="78.7863" ry="18"/>
<text text-anchor="middle" x="857.491" y="-302.3" font-family="Times,serif" font-size="14.00">Plymouth Brethren</text>
</a>
</g>
</g>
<!-- X8fa8b&#45;&gt;X156db -->
<g id="edge22" class="edge"><title>X8fa8b&#45;&gt;X156db</title>
<path fill="none" stroke="black" d="M800.268,-293.638C790.032,-291.693 779.455,-289.741 769.491,-288 679.21,-272.228 575.004,-256.27 506.217,-246.047"/>
<polygon fill="black" stroke="black" points="506.316,-242.524 495.91,-244.519 505.289,-249.448 506.316,-242.524"/>
</g>
<!-- X8fa8b&#45;&gt;Xb45be -->
<g id="edge23" class="edge"><title>X8fa8b&#45;&gt;Xb45be</title>
<path fill="none" stroke="black" d="M837.111,-288.411C825.783,-279.191 811.529,-267.588 799.201,-257.555"/>
<polygon fill="black" stroke="black" points="801.394,-254.827 791.429,-251.228 796.975,-260.256 801.394,-254.827"/>
</g>
<!-- Xd32ac -->
<g id="node26" class="node"><title>Xd32ac</title>
<g id="a_node26"><a xlink:href="http://sparql.cwrc.ca/ontologies/cwrc#judaism" xlink:title="Judaism" target="_parent">
<ellipse fill="none" stroke="black" cx="1305.49" cy="-162" rx="40.0939" ry="18"/>
<text text-anchor="middle" x="1305.49" y="-158.3" font-family="Times,serif" font-size="14.00">Judaism</text>
</a>
</g>
</g>
<!-- Xd32ac&#45;&gt;Xb2336 -->
<g id="edge24" class="edge"><title>Xd32ac&#45;&gt;Xb2336</title>
<path fill="none" stroke="black" d="M1299.49,-143.997C1292.47,-125.363 1279.71,-95.0556 1263.49,-72 1256.06,-61.4409 1246.43,-51.1054 1237.42,-42.4062"/>
<polygon fill="black" stroke="black" points="1239.75,-39.794 1230.06,-35.5148 1234.97,-44.9042 1239.75,-39.794"/>
</g>
<!-- Xd53bc -->
<g id="node27" class="node"><title>Xd53bc</title>
<g id="a_node27"><a xlink:href="http://sparql.cwrc.ca/ontologies/cwrc#baptistChristianity" xlink:title="Baptist Christianity" target="_parent">
<ellipse fill="none" stroke="black" cx="430.491" cy="-594" rx="79.0865" ry="18"/>
<text text-anchor="middle" x="430.491" y="-590.3" font-family="Times,serif" font-size="14.00">Baptist Christianity</text>
</a>
</g>
</g>
<!-- Xd53bc&#45;&gt;X156db -->
<g id="edge25" class="edge"><title>Xd53bc&#45;&gt;X156db</title>
<path fill="none" stroke="black" d="M430.491,-575.951C430.491,-549.292 430.491,-496.115 430.491,-451 430.491,-451 430.491,-451 430.491,-377 430.491,-336.996 430.491,-290.653 430.491,-262.08"/>
<polygon fill="black" stroke="black" points="433.991,-262.049 430.491,-252.049 426.991,-262.049 433.991,-262.049"/>
</g>
<!-- X0e2fa -->
<g id="node28" class="node"><title>X0e2fa</title>
<g id="a_node28"><a xlink:href="http://sparql.cwrc.ca/ontologies/cwrc#presbyterianism" xlink:title="Presbyterianism" target="_parent">
<ellipse fill="none" stroke="black" cx="526.491" cy="-306" rx="67.6881" ry="18"/>
<text text-anchor="middle" x="526.491" y="-302.3" font-family="Times,serif" font-size="14.00">Presbyterianism</text>
</a>
</g>
</g>
<!-- X0e2fa&#45;&gt;X156db -->
<g id="edge26" class="edge"><title>X0e2fa&#45;&gt;X156db</title>
<path fill="none" stroke="black" d="M504.226,-288.765C491.474,-279.467 475.282,-267.66 461.322,-257.481"/>
<polygon fill="black" stroke="black" points="463.111,-254.454 452.969,-251.39 458.987,-260.11 463.111,-254.454"/>
</g>
<!-- X6f203 -->
<g id="node30" class="node"><title>X6f203</title>
<g id="a_node30"><a xlink:href="http://sparql.cwrc.ca/ontologies/cwrc#christianScience" xlink:title="Christian Science" target="_parent">
<ellipse fill="none" stroke="black" cx="1174.49" cy="-162" rx="72.5877" ry="18"/>
<text text-anchor="middle" x="1174.49" y="-158.3" font-family="Times,serif" font-size="14.00">Christian Science</text>
</a>
</g>
</g>
<!-- X6f203&#45;&gt;Xadf16 -->
<g id="edge28" class="edge"><title>X6f203&#45;&gt;Xadf16</title>
<path fill="none" stroke="black" d="M1146.66,-145.291C1128.54,-135.06 1104.75,-121.631 1085.37,-110.689"/>
<polygon fill="black" stroke="black" points="1086.96,-107.568 1076.53,-105.7 1083.52,-113.664 1086.96,-107.568"/>
</g>
</g>
</svg>
