<?xml version="1.0" encoding="UTF-8" standalone="no"?>
<!DOCTYPE svg PUBLIC "-//W3C//DTD SVG 1.1//EN"
 "http://www.w3.org/Graphics/SVG/1.1/DTD/svg11.dtd">
<!-- Generated by graphviz version 2.38.0 (20140413.2041)
 -->
<!-- Title: ReligionGraph Pages: 1 -->
<svg width="1839pt" height="548pt"
 viewBox="0.00 0.00 1839.38 548.00" xmlns="http://www.w3.org/2000/svg" xmlns:xlink="http://www.w3.org/1999/xlink">
<g id="graph0" class="graph" transform="scale(1 1) rotate(0) translate(4 544)">
<title>ReligionGraph</title>
<polygon fill="white" stroke="none" points="-4,4 -4,-544 1835.38,-544 1835.38,4 -4,4"/>
<!-- X36b94 -->
<g id="node1" class="node"><title>X36b94</title>
<g id="a_node1"><a xlink:href="http://sparql.cwrc.ca/ontologies/cwrc#agnosticism" xlink:title="agnosticisme" target="_parent">
<ellipse fill="none" stroke="black" cx="72.1436" cy="-522" rx="72.2875" ry="18"/>
<text text-anchor="middle" x="72.1436" y="-518.3" font-family="Times,serif" font-size="14.00">agnosticisme</text>
</a>
</g>
</g>
<!-- X37200 -->
<g id="node2" class="node"><title>X37200</title>
<g id="a_node2"><a xlink:href="http://sparql.cwrc.ca/ontologies/cwrc#paganism" xlink:title="Paganisme" target="_parent">
<ellipse fill="none" stroke="black" cx="72.1436" cy="-450" rx="61.1893" ry="18"/>
<text text-anchor="middle" x="72.1436" y="-446.3" font-family="Times,serif" font-size="14.00">Paganisme</text>
</a>
</g>
</g>
<!-- X36b94&#45;&gt;X37200 -->
<!-- X3b80a -->
<g id="node14" class="node"><title>X3b80a</title>
<g id="a_node14"><a xlink:href="http://sparql.cwrc.ca/ontologies/cwrc#buddhism" xlink:title="Bouddhisme" target="_parent">
<ellipse fill="none" stroke="black" cx="72.1436" cy="-378" rx="68.4888" ry="18"/>
<text text-anchor="middle" x="72.1436" y="-374.3" font-family="Times,serif" font-size="14.00">Bouddhisme</text>
</a>
</g>
</g>
<!-- X37200&#45;&gt;X3b80a -->
<!-- X1cc79 -->
<g id="node3" class="node"><title>X1cc79</title>
<g id="a_node3"><a xlink:href="http://sparql.cwrc.ca/ontologies/cwrc#lollardy" xlink:title="Lollardy" target="_parent">
<ellipse fill="none" stroke="black" cx="219.144" cy="-450" rx="49.2915" ry="18"/>
<text text-anchor="middle" x="219.144" y="-446.3" font-family="Times,serif" font-size="14.00">Lollardy</text>
</a>
</g>
</g>
<!-- X32f53 -->
<g id="node4" class="node"><title>X32f53</title>
<ellipse fill="none" stroke="black" cx="239.144" cy="-378" rx="44.393" ry="18"/>
<text text-anchor="middle" x="239.144" y="-374.3" font-family="Times,serif" font-size="14.00">X32f53</text>
</g>
<!-- X1cc79&#45;&gt;X32f53 -->
<g id="edge2" class="edge"><title>X1cc79&#45;&gt;X32f53</title>
<path fill="none" stroke="black" d="M223.985,-432.055C226.212,-424.261 228.909,-414.822 231.407,-406.079"/>
<polygon fill="black" stroke="black" points="234.826,-406.852 234.208,-396.275 228.095,-404.929 234.826,-406.852"/>
</g>
<!-- Xd53bc -->
<g id="node5" class="node"><title>Xd53bc</title>
<g id="a_node5"><a xlink:href="http://sparql.cwrc.ca/ontologies/cwrc#baptistChristianity" xlink:title="Baptisme" target="_parent">
<ellipse fill="none" stroke="black" cx="1442.14" cy="-234" rx="54.6905" ry="18"/>
<text text-anchor="middle" x="1442.14" y="-230.3" font-family="Times,serif" font-size="14.00">Baptisme</text>
</a>
</g>
</g>
<!-- X4e4b1 -->
<g id="node6" class="node"><title>X4e4b1</title>
<g id="a_node6"><a xlink:href="http://sparql.cwrc.ca/ontologies/cwrc#protestantism" xlink:title="protestantisme" target="_parent">
<ellipse fill="none" stroke="black" cx="1359.14" cy="-162" rx="81.4863" ry="18"/>
<text text-anchor="middle" x="1359.14" y="-158.3" font-family="Times,serif" font-size="14.00">protestantisme</text>
</a>
</g>
</g>
<!-- Xd53bc&#45;&gt;X4e4b1 -->
<g id="edge3" class="edge"><title>Xd53bc&#45;&gt;X4e4b1</title>
<path fill="none" stroke="black" d="M1422.89,-216.765C1412.15,-207.708 1398.59,-196.27 1386.74,-186.276"/>
<polygon fill="black" stroke="black" points="1388.77,-183.405 1378.87,-179.633 1384.25,-188.756 1388.77,-183.405"/>
</g>
<!-- Xadf16 -->
<g id="node7" class="node"><title>Xadf16</title>
<g id="a_node7"><a xlink:href="http://sparql.cwrc.ca/ontologies/cwrc#christianity" xlink:title="Christianisme" target="_parent">
<ellipse fill="none" stroke="black" cx="1359.14" cy="-90" rx="76.0865" ry="18"/>
<text text-anchor="middle" x="1359.14" y="-86.3" font-family="Times,serif" font-size="14.00">Christianisme</text>
</a>
</g>
</g>
<!-- X4e4b1&#45;&gt;Xadf16 -->
<g id="edge4" class="edge"><title>X4e4b1&#45;&gt;Xadf16</title>
<path fill="none" stroke="black" d="M1359.14,-143.697C1359.14,-135.983 1359.14,-126.712 1359.14,-118.112"/>
<polygon fill="black" stroke="black" points="1362.64,-118.104 1359.14,-108.104 1355.64,-118.104 1362.64,-118.104"/>
</g>
<!-- Xb2336 -->
<g id="node13" class="node"><title>Xb2336</title>
<g id="a_node13"><a xlink:href="http://sparql.cwrc.ca/ontologies/cwrc#abrahamicReligions" xlink:title="Religions abrahamiques" target="_parent">
<ellipse fill="none" stroke="black" cx="1565.14" cy="-18" rx="122.379" ry="18"/>
<text text-anchor="middle" x="1565.14" y="-14.3" font-family="Times,serif" font-size="14.00">Religions abrahamiques</text>
</a>
</g>
</g>
<!-- Xadf16&#45;&gt;Xb2336 -->
<g id="edge15" class="edge"><title>Xadf16&#45;&gt;Xb2336</title>
<path fill="none" stroke="black" d="M1400.83,-74.8345C1431.97,-64.2536 1474.86,-49.6786 1509.01,-38.0731"/>
<polygon fill="black" stroke="black" points="1510.51,-41.2612 1518.85,-34.7298 1508.26,-34.6334 1510.51,-41.2612"/>
</g>
<!-- X2a5d0 -->
<g id="node8" class="node"><title>X2a5d0</title>
<g id="a_node8"><a xlink:href="http://sparql.cwrc.ca/ontologies/cwrc#churchOfIreland" xlink:title="Église d&#39;Irlande" target="_parent">
<ellipse fill="none" stroke="black" cx="335.144" cy="-234" rx="84.485" ry="18"/>
<text text-anchor="middle" x="335.144" y="-230.3" font-family="Times,serif" font-size="14.00">Église d&#39;Irlande</text>
</a>
</g>
</g>
<!-- Xf6f10 -->
<g id="node9" class="node"><title>Xf6f10</title>
<g id="a_node9"><a xlink:href="http://sparql.cwrc.ca/ontologies/cwrc#anglicanism" xlink:title="Église d&#39;Angleterre" target="_parent">
<ellipse fill="none" stroke="black" cx="612.144" cy="-162" rx="100.983" ry="18"/>
<text text-anchor="middle" x="612.144" y="-158.3" font-family="Times,serif" font-size="14.00">Église d&#39;Angleterre</text>
</a>
</g>
</g>
<!-- X2a5d0&#45;&gt;Xf6f10 -->
<g id="edge5" class="edge"><title>X2a5d0&#45;&gt;Xf6f10</title>
<path fill="none" stroke="black" d="M387.571,-219.751C432.766,-208.33 498.22,-191.789 546.815,-179.509"/>
<polygon fill="black" stroke="black" points="547.769,-182.878 556.606,-177.035 546.053,-176.092 547.769,-182.878"/>
</g>
<!-- Xf6f10&#45;&gt;Xadf16 -->
<g id="edge6" class="edge"><title>Xf6f10&#45;&gt;Xadf16</title>
<path fill="none" stroke="black" d="M699.296,-152.833C845.635,-139.12 1138.54,-111.672 1279.61,-98.4533"/>
<polygon fill="black" stroke="black" points="1280.28,-101.906 1289.91,-97.488 1279.62,-94.9363 1280.28,-101.906"/>
</g>
<!-- Xe1e3e -->
<g id="node10" class="node"><title>Xe1e3e</title>
<g id="a_node10"><a xlink:href="http://sparql.cwrc.ca/ontologies/cwrc#methodism" xlink:title="Église méthodiste" target="_parent">
<ellipse fill="none" stroke="black" cx="1648.14" cy="-306" rx="94.7833" ry="18"/>
<text text-anchor="middle" x="1648.14" y="-302.3" font-family="Times,serif" font-size="14.00">Église méthodiste</text>
</a>
</g>
</g>
<!-- Xe1e3e&#45;&gt;X4e4b1 -->
<g id="edge7" class="edge"><title>Xe1e3e&#45;&gt;X4e4b1</title>
<path fill="none" stroke="black" d="M1627.25,-288.399C1614.22,-278.006 1597.14,-264.3 1582.14,-252 1562.87,-236.196 1561.12,-227.767 1539.14,-216 1504.9,-197.663 1463.51,-184.91 1429.06,-176.517"/>
<polygon fill="black" stroke="black" points="1429.61,-173.051 1419.07,-174.158 1428,-179.863 1429.61,-173.051"/>
</g>
<!-- X8fa8b -->
<g id="node11" class="node"><title>X8fa8b</title>
<g id="a_node11"><a xlink:href="http://sparql.cwrc.ca/ontologies/cwrc#plymouthBrethren" xlink:title="Frères de Schwarzenau" target="_parent">
<ellipse fill="none" stroke="black" cx="1711.14" cy="-234" rx="120.479" ry="18"/>
<text text-anchor="middle" x="1711.14" y="-230.3" font-family="Times,serif" font-size="14.00">Frères de Schwarzenau</text>
</a>
</g>
</g>
<!-- X8fa8b&#45;&gt;X4e4b1 -->
<g id="edge8" class="edge"><title>X8fa8b&#45;&gt;X4e4b1</title>
<path fill="none" stroke="black" d="M1638.24,-219.586C1575.37,-207.421 1485.46,-189.547 1424.78,-177.157"/>
<polygon fill="black" stroke="black" points="1425.43,-173.717 1414.93,-175.14 1424.03,-180.574 1425.43,-173.717"/>
</g>
<!-- X8fa8b&#45;&gt;X4e4b1 -->
<g id="edge9" class="edge"><title>X8fa8b&#45;&gt;X4e4b1</title>
<path fill="none" stroke="black" d="M1645.46,-218.834C1584,-206.283 1492.56,-188.11 1429.6,-175.942"/>
<polygon fill="black" stroke="black" points="1430.23,-172.499 1419.75,-174.042 1428.91,-179.372 1430.23,-172.499"/>
</g>
<!-- Xc1422 -->
<g id="node12" class="node"><title>Xc1422</title>
<g id="a_node12"><a xlink:href="http://sparql.cwrc.ca/ontologies/cwrc#islam" xlink:title="Religion Mahométane" target="_parent">
<ellipse fill="none" stroke="black" cx="1565.14" cy="-90" rx="112.38" ry="18"/>
<text text-anchor="middle" x="1565.14" y="-86.3" font-family="Times,serif" font-size="14.00">Religion Mahométane</text>
</a>
</g>
</g>
<!-- Xc1422&#45;&gt;Xb2336 -->
<g id="edge10" class="edge"><title>Xc1422&#45;&gt;Xb2336</title>
<path fill="none" stroke="black" d="M1553.39,-72.055C1551.75,-64.3456 1551.27,-55.0269 1551.93,-46.3642"/>
<polygon fill="black" stroke="black" points="1555.43,-46.6584 1553.32,-36.2753 1548.49,-45.7065 1555.43,-46.6584"/>
</g>
<!-- Xc1422&#45;&gt;Xb2336 -->
<g id="edge11" class="edge"><title>Xc1422&#45;&gt;Xb2336</title>
<path fill="none" stroke="black" d="M1565.14,-71.6966C1565.14,-63.9827 1565.14,-54.7125 1565.14,-46.1124"/>
<polygon fill="black" stroke="black" points="1568.64,-46.1043 1565.14,-36.1043 1561.64,-46.1044 1568.64,-46.1043"/>
</g>
<!-- Xc1422&#45;&gt;Xb2336 -->
<g id="edge12" class="edge"><title>Xc1422&#45;&gt;Xb2336</title>
<path fill="none" stroke="black" d="M1576.9,-72.055C1578.54,-64.3456 1579.02,-55.0269 1578.35,-46.3642"/>
<polygon fill="black" stroke="black" points="1581.8,-45.7065 1576.97,-36.2753 1574.86,-46.6584 1581.8,-45.7065"/>
</g>
<!-- X7152e -->
<g id="node18" class="node"><title>X7152e</title>
<g id="a_node18"><a xlink:href="http://sparql.cwrc.ca/ontologies/cwrc#atheism" xlink:title="athéisme" target="_parent">
<ellipse fill="none" stroke="black" cx="72.1436" cy="-306" rx="53.0913" ry="18"/>
<text text-anchor="middle" x="72.1436" y="-302.3" font-family="Times,serif" font-size="14.00">athéisme</text>
</a>
</g>
</g>
<!-- X3b80a&#45;&gt;X7152e -->
<!-- Xd32ac -->
<g id="node15" class="node"><title>Xd32ac</title>
<g id="a_node15"><a xlink:href="http://sparql.cwrc.ca/ontologies/cwrc#judaism" xlink:title="Judaïsme" target="_parent">
<ellipse fill="none" stroke="black" cx="1749.14" cy="-90" rx="53.8905" ry="18"/>
<text text-anchor="middle" x="1749.14" y="-86.3" font-family="Times,serif" font-size="14.00">Judaïsme</text>
</a>
</g>
</g>
<!-- Xd32ac&#45;&gt;Xb2336 -->
<g id="edge14" class="edge"><title>Xd32ac&#45;&gt;Xb2336</title>
<path fill="none" stroke="black" d="M1714.97,-75.9976C1687.37,-65.499 1648.1,-50.5597 1616.69,-38.6094"/>
<polygon fill="black" stroke="black" points="1617.8,-35.2894 1607.21,-35.0049 1615.32,-41.832 1617.8,-35.2894"/>
</g>
<!-- Xb800b -->
<g id="node16" class="node"><title>Xb800b</title>
<g id="a_node16"><a xlink:href="http://sparql.cwrc.ca/ontologies/cwrc#tractarianMovement" xlink:title="tractarianisme" target="_parent">
<ellipse fill="none" stroke="black" cx="223.144" cy="-306" rx="79.0865" ry="18"/>
<text text-anchor="middle" x="223.144" y="-302.3" font-family="Times,serif" font-size="14.00">tractarianisme</text>
</a>
</g>
</g>
<!-- Xb800b&#45;&gt;Xf6f10 -->
<g id="edge16" class="edge"><title>Xb800b&#45;&gt;Xf6f10</title>
<path fill="none" stroke="black" d="M221.491,-287.824C220.578,-267.566 222.516,-234.335 242.144,-216 278.917,-181.647 406.944,-169.466 502.153,-165.2"/>
<polygon fill="black" stroke="black" points="502.581,-168.685 512.424,-164.765 502.285,-161.692 502.581,-168.685"/>
</g>
<!-- X9deb8 -->
<g id="node17" class="node"><title>X9deb8</title>
<g id="a_node17"><a xlink:href="http://sparql.cwrc.ca/ontologies/cwrc#dissentingChristianity" xlink:title="Dissidence anglaise" target="_parent">
<ellipse fill="none" stroke="black" cx="1024.14" cy="-378" rx="102.882" ry="18"/>
<text text-anchor="middle" x="1024.14" y="-374.3" font-family="Times,serif" font-size="14.00">Dissidence anglaise</text>
</a>
</g>
</g>
<!-- X9deb8&#45;&gt;X4e4b1 -->
<g id="edge17" class="edge"><title>X9deb8&#45;&gt;X4e4b1</title>
<path fill="none" stroke="black" d="M1031.61,-359.811C1046.98,-326.535 1085.46,-253.318 1141.14,-216 1180.01,-189.953 1230.4,-176.681 1272.94,-169.93"/>
<polygon fill="black" stroke="black" points="1273.64,-173.365 1283.01,-168.428 1272.6,-166.441 1273.64,-173.365"/>
</g>
<!-- X52798 -->
<g id="node24" class="node"><title>X52798</title>
<g id="a_node24"><a xlink:href="http://sparql.cwrc.ca/ontologies/cwrc#pantheism" xlink:title="Panthéisme" target="_parent">
<ellipse fill="none" stroke="black" cx="72.1436" cy="-234" rx="64.9885" ry="18"/>
<text text-anchor="middle" x="72.1436" y="-230.3" font-family="Times,serif" font-size="14.00">Panthéisme</text>
</a>
</g>
</g>
<!-- X7152e&#45;&gt;X52798 -->
<!-- X253de -->
<g id="node19" class="node"><title>X253de</title>
<g id="a_node19"><a xlink:href="http://sparql.cwrc.ca/ontologies/cwrc#quakerism" xlink:title="quaker" target="_parent">
<ellipse fill="none" stroke="black" cx="976.144" cy="-306" rx="43.5923" ry="18"/>
<text text-anchor="middle" x="976.144" y="-302.3" font-family="Times,serif" font-size="14.00">quaker</text>
</a>
</g>
</g>
<!-- X253de&#45;&gt;X4e4b1 -->
<g id="edge19" class="edge"><title>X253de&#45;&gt;X4e4b1</title>
<path fill="none" stroke="black" d="M1000.24,-290.976C1017.34,-280.739 1040.64,-266.221 1060.14,-252 1080.28,-237.317 1080.71,-226.854 1103.14,-216 1156.58,-190.15 1222.23,-176.88 1273.67,-170.082"/>
<polygon fill="black" stroke="black" points="1274.28,-173.534 1283.76,-168.808 1273.4,-166.589 1274.28,-173.534"/>
</g>
<!-- X156db -->
<g id="node20" class="node"><title>X156db</title>
<g id="a_node20"><a xlink:href="http://sparql.cwrc.ca/ontologies/cwrc#dissentProtestant" xlink:title="dissidents (ou non&#45;conformistes)" target="_parent">
<ellipse fill="none" stroke="black" cx="889.144" cy="-234" rx="162.471" ry="18"/>
<text text-anchor="middle" x="889.144" y="-230.3" font-family="Times,serif" font-size="14.00">dissidents (ou non&#45;conformistes)</text>
</a>
</g>
</g>
<!-- X253de&#45;&gt;X156db -->
<g id="edge20" class="edge"><title>X253de&#45;&gt;X156db</title>
<path fill="none" stroke="black" d="M956.835,-289.465C945.501,-280.345 930.955,-268.641 918.253,-258.421"/>
<polygon fill="black" stroke="black" points="920.21,-255.504 910.225,-251.962 915.822,-260.958 920.21,-255.504"/>
</g>
<!-- X156db&#45;&gt;Xf6f10 -->
<g id="edge21" class="edge"><title>X156db&#45;&gt;Xf6f10</title>
<path fill="none" stroke="black" d="M826.979,-217.291C782.546,-206.062 722.87,-190.981 677.689,-179.564"/>
<polygon fill="black" stroke="black" points="678.542,-176.169 667.989,-177.113 676.827,-182.956 678.542,-176.169"/>
</g>
<!-- Xd2614 -->
<g id="node21" class="node"><title>Xd2614</title>
<g id="a_node21"><a xlink:href="http://sparql.cwrc.ca/ontologies/cwrc#fifthMonarchists" xlink:title="Cinquièmes Monarchistes" target="_parent">
<ellipse fill="none" stroke="black" cx="643.144" cy="-306" rx="132.677" ry="18"/>
<text text-anchor="middle" x="643.144" y="-302.3" font-family="Times,serif" font-size="14.00">Cinquièmes Monarchistes</text>
</a>
</g>
</g>
<!-- Xd2614&#45;&gt;X156db -->
<g id="edge22" class="edge"><title>Xd2614&#45;&gt;X156db</title>
<path fill="none" stroke="black" d="M697.434,-289.552C734.478,-279.01 783.766,-264.986 823.089,-253.796"/>
<polygon fill="black" stroke="black" points="824.198,-257.12 832.858,-251.016 822.282,-250.387 824.198,-257.12"/>
</g>
<!-- Xb45be -->
<g id="node22" class="node"><title>Xb45be</title>
<g id="a_node22"><a xlink:href="http://sparql.cwrc.ca/ontologies/cwrc#millenarianism" xlink:title="millénarisme, ou chiliasme" target="_parent">
<ellipse fill="none" stroke="black" cx="573.144" cy="-234" rx="135.676" ry="18"/>
<text text-anchor="middle" x="573.144" y="-230.3" font-family="Times,serif" font-size="14.00">millénarisme, ou chiliasme</text>
</a>
</g>
</g>
<!-- Xd2614&#45;&gt;Xb45be -->
<g id="edge23" class="edge"><title>Xd2614&#45;&gt;Xb45be</title>
<path fill="none" stroke="black" d="M626.199,-288.055C617.642,-279.498 607.103,-268.959 597.679,-259.535"/>
<polygon fill="black" stroke="black" points="599.965,-256.872 590.419,-252.275 595.015,-261.821 599.965,-256.872"/>
</g>
<!-- X6f203 -->
<g id="node23" class="node"><title>X6f203</title>
<g id="a_node23"><a xlink:href="http://sparql.cwrc.ca/ontologies/cwrc#christianScience" xlink:title="Science Chrétienne" target="_parent">
<ellipse fill="none" stroke="black" cx="1560.14" cy="-162" rx="102.082" ry="18"/>
<text text-anchor="middle" x="1560.14" y="-158.3" font-family="Times,serif" font-size="14.00">Science Chrétienne</text>
</a>
</g>
</g>
<!-- X6f203&#45;&gt;Xadf16 -->
<g id="edge24" class="edge"><title>X6f203&#45;&gt;Xadf16</title>
<path fill="none" stroke="black" d="M1516.03,-145.638C1484.72,-134.733 1442.61,-120.067 1409.9,-108.675"/>
<polygon fill="black" stroke="black" points="1410.66,-105.237 1400.07,-105.253 1408.36,-111.847 1410.66,-105.237"/>
</g>
<!-- Xc7ed9 -->
<g id="node25" class="node"><title>Xc7ed9</title>
<g id="a_node25"><a xlink:href="http://sparql.cwrc.ca/ontologies/cwrc#hinduism" xlink:title="hindouisme" target="_parent">
<ellipse fill="none" stroke="black" cx="72.1436" cy="-162" rx="64.189" ry="18"/>
<text text-anchor="middle" x="72.1436" y="-158.3" font-family="Times,serif" font-size="14.00">hindouisme</text>
</a>
</g>
</g>
<!-- X52798&#45;&gt;Xc7ed9 -->
<!-- X43c0c -->
<g id="node26" class="node"><title>X43c0c</title>
<g id="a_node26"><a xlink:href="http://sparql.cwrc.ca/ontologies/cwrc#occultism" xlink:title="occultisme" target="_parent">
<ellipse fill="none" stroke="black" cx="72.1436" cy="-90" rx="61.99" ry="18"/>
<text text-anchor="middle" x="72.1436" y="-86.3" font-family="Times,serif" font-size="14.00">occultisme</text>
</a>
</g>
</g>
<!-- Xc7ed9&#45;&gt;X43c0c -->
<!-- Xd35c6 -->
<g id="node29" class="node"><title>Xd35c6</title>
<g id="a_node29"><a xlink:href="http://sparql.cwrc.ca/ontologies/cwrc#spiritualism" xlink:title="Spritisme" target="_parent">
<ellipse fill="none" stroke="black" cx="72.1436" cy="-18" rx="55.7903" ry="18"/>
<text text-anchor="middle" x="72.1436" y="-14.3" font-family="Times,serif" font-size="14.00">Spritisme</text>
</a>
</g>
</g>
<!-- X43c0c&#45;&gt;Xd35c6 -->
<!-- Xe7b0a -->
<g id="node27" class="node"><title>Xe7b0a</title>
<g id="a_node27"><a xlink:href="http://sparql.cwrc.ca/ontologies/cwrc#neo-thomism" xlink:title="néothomisme" target="_parent">
<ellipse fill="none" stroke="black" cx="296.144" cy="-522" rx="73.387" ry="18"/>
<text text-anchor="middle" x="296.144" y="-518.3" font-family="Times,serif" font-size="14.00">néothomisme</text>
</a>
</g>
</g>
<!-- Xe7b0a&#45;&gt;X32f53 -->
<g id="edge28" class="edge"><title>Xe7b0a&#45;&gt;X32f53</title>
<path fill="none" stroke="black" d="M294.604,-503.961C292.47,-485.56 287.619,-455.7 277.144,-432 272.681,-421.903 266.105,-411.81 259.674,-403.181"/>
<polygon fill="black" stroke="black" points="262.281,-400.833 253.374,-395.095 256.759,-405.135 262.281,-400.833"/>
</g>
<!-- X7477d -->
<g id="node28" class="node"><title>X7477d</title>
<g id="a_node28"><a xlink:href="http://sparql.cwrc.ca/ontologies/cwrc#congregationalism" xlink:title="Églises congrégationalistes" target="_parent">
<ellipse fill="none" stroke="black" cx="1155.14" cy="-450" rx="139.175" ry="18"/>
<text text-anchor="middle" x="1155.14" y="-446.3" font-family="Times,serif" font-size="14.00">Églises congrégationalistes</text>
</a>
</g>
</g>
<!-- X7477d&#45;&gt;X4e4b1 -->
<g id="edge29" class="edge"><title>X7477d&#45;&gt;X4e4b1</title>
<path fill="none" stroke="black" d="M1150.68,-431.991C1140.76,-389.972 1121.66,-280.035 1174.14,-216 1188.65,-198.306 1240.58,-184.375 1285.74,-175.245"/>
<polygon fill="black" stroke="black" points="1286.42,-178.679 1295.55,-173.314 1285.07,-171.811 1286.42,-178.679"/>
</g>
<!-- X043aa -->
<g id="node30" class="node"><title>X043aa</title>
<g id="a_node30"><a xlink:href="http://sparql.cwrc.ca/ontologies/cwrc#unitarianism" xlink:title="unitarisme" target="_parent">
<ellipse fill="none" stroke="black" cx="1525.14" cy="-522" rx="61.1893" ry="18"/>
<text text-anchor="middle" x="1525.14" y="-518.3" font-family="Times,serif" font-size="14.00">unitarisme</text>
</a>
</g>
</g>
<!-- X043aa&#45;&gt;X4e4b1 -->
<g id="edge31" class="edge"><title>X043aa&#45;&gt;X4e4b1</title>
<path fill="none" stroke="black" d="M1525.14,-503.951C1525.14,-477.292 1525.14,-424.115 1525.14,-379 1525.14,-379 1525.14,-379 1525.14,-305 1525.14,-264.553 1532.74,-246.474 1506.14,-216 1494.36,-202.501 1455.61,-188.823 1420.85,-178.744"/>
<polygon fill="black" stroke="black" points="1421.75,-175.363 1411.18,-176 1419.84,-182.097 1421.75,-175.363"/>
</g>
<!-- X0e2fa -->
<g id="node31" class="node"><title>X0e2fa</title>
<g id="a_node31"><a xlink:href="http://sparql.cwrc.ca/ontologies/cwrc#presbyterianism" xlink:title="Presbytarianisme" target="_parent">
<ellipse fill="none" stroke="black" cx="1276.14" cy="-234" rx="92.8835" ry="18"/>
<text text-anchor="middle" x="1276.14" y="-230.3" font-family="Times,serif" font-size="14.00">Presbytarianisme</text>
</a>
</g>
</g>
<!-- X0e2fa&#45;&gt;X4e4b1 -->
<g id="edge32" class="edge"><title>X0e2fa&#45;&gt;X4e4b1</title>
<path fill="none" stroke="black" d="M1296.24,-216.055C1306.92,-207.047 1320.2,-195.842 1331.81,-186.053"/>
<polygon fill="black" stroke="black" points="1334.14,-188.67 1339.52,-179.547 1329.62,-183.319 1334.14,-188.67"/>
</g>
</g>
</svg>
