<?xml version="1.0" encoding="UTF-8" standalone="no"?>
<!DOCTYPE svg PUBLIC "-//W3C//DTD SVG 1.1//EN"
 "http://www.w3.org/Graphics/SVG/1.1/DTD/svg11.dtd">
<!-- Generated by graphviz version 2.38.0 (20140413.2041)
 -->
<!-- Title: ReligionGraph Pages: 1 -->
<svg width="2160pt" height="524pt"
 viewBox="0.00 0.00 2160.00 523.76" xmlns="http://www.w3.org/2000/svg" xmlns:xlink="http://www.w3.org/1999/xlink">
<g id="graph0" class="graph" transform="scale(0.95576 0.95576) rotate(0) translate(4 544)">
<title>ReligionGraph</title>
<polygon fill="white" stroke="none" points="-4,4 -4,-544 2255.98,-544 2255.98,4 -4,4"/>
<!-- Xb45be -->
<g id="node1" class="node"><title>Xb45be</title>
<g id="a_node1"><a xlink:href="http://sparql.cwrc.ca/ontologies/cwrc#millenarianism" xlink:title="millénarisme, ou chiliasme" target="_parent">
<ellipse fill="none" stroke="black" cx="135.838" cy="-234" rx="135.676" ry="18"/>
<text text-anchor="middle" x="135.838" y="-230.3" font-family="Times,serif" font-size="14.00">millénarisme, ou chiliasme</text>
</a>
</g>
</g>
<!-- X156db -->
<g id="node2" class="node"><title>X156db</title>
<g id="a_node2"><a xlink:href="http://sparql.cwrc.ca/ontologies/cwrc#dissentProtestant" xlink:title="dissidents (ou non&#45;conformistes)" target="_parent">
<ellipse fill="none" stroke="black" cx="451.838" cy="-234" rx="162.471" ry="18"/>
<text text-anchor="middle" x="451.838" y="-230.3" font-family="Times,serif" font-size="14.00">dissidents (ou non&#45;conformistes)</text>
</a>
</g>
</g>
<!-- Xf6f10 -->
<g id="node3" class="node"><title>Xf6f10</title>
<g id="a_node3"><a xlink:href="http://sparql.cwrc.ca/ontologies/cwrc#anglicanism" xlink:title="Église d&#39;Angleterre" target="_parent">
<ellipse fill="none" stroke="black" cx="697.838" cy="-162" rx="100.983" ry="18"/>
<text text-anchor="middle" x="697.838" y="-158.3" font-family="Times,serif" font-size="14.00">Église d&#39;Angleterre</text>
</a>
</g>
</g>
<!-- X156db&#45;&gt;Xf6f10 -->
<g id="edge1" class="edge"><title>X156db&#45;&gt;Xf6f10</title>
<path fill="none" stroke="black" d="M507.967,-217.028C546.401,-206.092 597.35,-191.594 636.794,-180.37"/>
<polygon fill="black" stroke="black" points="637.899,-183.695 646.56,-177.591 635.983,-176.962 637.899,-183.695"/>
</g>
<!-- Xadf16 -->
<g id="node4" class="node"><title>Xadf16</title>
<g id="a_node4"><a xlink:href="http://sparql.cwrc.ca/ontologies/cwrc#christianity" xlink:title="Christianisme" target="_parent">
<ellipse fill="none" stroke="black" cx="1431.84" cy="-90" rx="76.0865" ry="18"/>
<text text-anchor="middle" x="1431.84" y="-86.3" font-family="Times,serif" font-size="14.00">Christianisme</text>
</a>
</g>
</g>
<!-- Xf6f10&#45;&gt;Xadf16 -->
<g id="edge2" class="edge"><title>Xf6f10&#45;&gt;Xadf16</title>
<path fill="none" stroke="black" d="M784.557,-152.73C928.338,-139.018 1213.95,-111.779 1352.62,-98.5549"/>
<polygon fill="black" stroke="black" points="1353.13,-102.022 1362.75,-97.5888 1352.46,-95.0541 1353.13,-102.022"/>
</g>
<!-- Xb2336 -->
<g id="node6" class="node"><title>Xb2336</title>
<g id="a_node6"><a xlink:href="http://sparql.cwrc.ca/ontologies/cwrc#abrahamicReligions" xlink:title="Religions abrahamiques" target="_parent">
<ellipse fill="none" stroke="black" cx="1763.84" cy="-18" rx="122.379" ry="18"/>
<text text-anchor="middle" x="1763.84" y="-14.3" font-family="Times,serif" font-size="14.00">Religions abrahamiques</text>
</a>
</g>
</g>
<!-- Xadf16&#45;&gt;Xb2336 -->
<g id="edge19" class="edge"><title>Xadf16&#45;&gt;Xb2336</title>
<path fill="none" stroke="black" d="M1486.66,-77.4409C1541.27,-65.9275 1625.58,-48.1508 1686.88,-35.2258"/>
<polygon fill="black" stroke="black" points="1687.83,-38.6021 1696.9,-33.1142 1686.39,-31.7527 1687.83,-38.6021"/>
</g>
<!-- Xd32ac -->
<g id="node5" class="node"><title>Xd32ac</title>
<g id="a_node5"><a xlink:href="http://sparql.cwrc.ca/ontologies/cwrc#judaism" xlink:title="Judaïsme" target="_parent">
<ellipse fill="none" stroke="black" cx="1579.84" cy="-90" rx="53.8905" ry="18"/>
<text text-anchor="middle" x="1579.84" y="-86.3" font-family="Times,serif" font-size="14.00">Judaïsme</text>
</a>
</g>
</g>
<!-- Xd32ac&#45;&gt;Xb2336 -->
<g id="edge3" class="edge"><title>Xd32ac&#45;&gt;Xb2336</title>
<path fill="none" stroke="black" d="M1614.02,-75.9976C1641.61,-65.499 1680.88,-50.5597 1712.29,-38.6094"/>
<polygon fill="black" stroke="black" points="1713.67,-41.832 1721.77,-35.0049 1711.18,-35.2894 1713.67,-41.832"/>
</g>
<!-- Xc7ed9 -->
<g id="node7" class="node"><title>Xc7ed9</title>
<g id="a_node7"><a xlink:href="http://sparql.cwrc.ca/ontologies/cwrc#hinduism" xlink:title="Hindou" target="_parent">
<ellipse fill="none" stroke="black" cx="2179.84" cy="-522" rx="44.6926" ry="18"/>
<text text-anchor="middle" x="2179.84" y="-518.3" font-family="Times,serif" font-size="14.00">Hindou</text>
</a>
</g>
</g>
<!-- X3b80a -->
<g id="node8" class="node"><title>X3b80a</title>
<g id="a_node8"><a xlink:href="http://sparql.cwrc.ca/ontologies/cwrc#buddhism" xlink:title="Bouddhisme" target="_parent">
<ellipse fill="none" stroke="black" cx="2179.84" cy="-450" rx="68.4888" ry="18"/>
<text text-anchor="middle" x="2179.84" y="-446.3" font-family="Times,serif" font-size="14.00">Bouddhisme</text>
</a>
</g>
</g>
<!-- Xc7ed9&#45;&gt;X3b80a -->
<!-- X37200 -->
<g id="node9" class="node"><title>X37200</title>
<g id="a_node9"><a xlink:href="http://sparql.cwrc.ca/ontologies/cwrc#paganism" xlink:title="Paganisme" target="_parent">
<ellipse fill="none" stroke="black" cx="2179.84" cy="-378" rx="61.1893" ry="18"/>
<text text-anchor="middle" x="2179.84" y="-374.3" font-family="Times,serif" font-size="14.00">Paganisme</text>
</a>
</g>
</g>
<!-- X3b80a&#45;&gt;X37200 -->
<!-- X52798 -->
<g id="node11" class="node"><title>X52798</title>
<g id="a_node11"><a xlink:href="http://sparql.cwrc.ca/ontologies/cwrc#pantheism" xlink:title="Panthéisme" target="_parent">
<ellipse fill="none" stroke="black" cx="2179.84" cy="-306" rx="64.9885" ry="18"/>
<text text-anchor="middle" x="2179.84" y="-302.3" font-family="Times,serif" font-size="14.00">Panthéisme</text>
</a>
</g>
</g>
<!-- X37200&#45;&gt;X52798 -->
<!-- X2a5d0 -->
<g id="node10" class="node"><title>X2a5d0</title>
<g id="a_node10"><a xlink:href="http://sparql.cwrc.ca/ontologies/cwrc#churchOfIreland" xlink:title="Église d&#39;Irlande" target="_parent">
<ellipse fill="none" stroke="black" cx="753.838" cy="-234" rx="84.485" ry="18"/>
<text text-anchor="middle" x="753.838" y="-230.3" font-family="Times,serif" font-size="14.00">Église d&#39;Irlande</text>
</a>
</g>
</g>
<!-- X2a5d0&#45;&gt;Xf6f10 -->
<g id="edge6" class="edge"><title>X2a5d0&#45;&gt;Xf6f10</title>
<path fill="none" stroke="black" d="M740.282,-216.055C733.572,-207.668 725.339,-197.376 717.915,-188.096"/>
<polygon fill="black" stroke="black" points="720.638,-185.898 711.658,-180.275 715.172,-190.27 720.638,-185.898"/>
</g>
<!-- X7152e -->
<g id="node16" class="node"><title>X7152e</title>
<g id="a_node16"><a xlink:href="http://sparql.cwrc.ca/ontologies/cwrc#atheism" xlink:title="athéisme" target="_parent">
<ellipse fill="none" stroke="black" cx="2179.84" cy="-234" rx="53.0913" ry="18"/>
<text text-anchor="middle" x="2179.84" y="-230.3" font-family="Times,serif" font-size="14.00">athéisme</text>
</a>
</g>
</g>
<!-- X52798&#45;&gt;X7152e -->
<!-- Xc1422 -->
<g id="node12" class="node"><title>Xc1422</title>
<g id="a_node12"><a xlink:href="http://sparql.cwrc.ca/ontologies/cwrc#islam" xlink:title="Religion Mahométane" target="_parent">
<ellipse fill="none" stroke="black" cx="1763.84" cy="-90" rx="112.38" ry="18"/>
<text text-anchor="middle" x="1763.84" y="-86.3" font-family="Times,serif" font-size="14.00">Religion Mahométane</text>
</a>
</g>
</g>
<!-- Xc1422&#45;&gt;Xb2336 -->
<g id="edge8" class="edge"><title>Xc1422&#45;&gt;Xb2336</title>
<path fill="none" stroke="black" d="M1752.08,-72.055C1750.45,-64.3456 1749.96,-55.0269 1750.63,-46.3642"/>
<polygon fill="black" stroke="black" points="1754.12,-46.6584 1752.01,-36.2753 1747.19,-45.7065 1754.12,-46.6584"/>
</g>
<!-- Xc1422&#45;&gt;Xb2336 -->
<g id="edge9" class="edge"><title>Xc1422&#45;&gt;Xb2336</title>
<path fill="none" stroke="black" d="M1763.84,-71.6966C1763.84,-63.9827 1763.84,-54.7125 1763.84,-46.1124"/>
<polygon fill="black" stroke="black" points="1767.34,-46.1043 1763.84,-36.1043 1760.34,-46.1044 1767.34,-46.1043"/>
</g>
<!-- Xc1422&#45;&gt;Xb2336 -->
<g id="edge10" class="edge"><title>Xc1422&#45;&gt;Xb2336</title>
<path fill="none" stroke="black" d="M1775.59,-72.055C1777.23,-64.3456 1777.72,-55.0269 1777.05,-46.3642"/>
<polygon fill="black" stroke="black" points="1780.49,-45.7065 1775.66,-36.2753 1773.56,-46.6584 1780.49,-45.7065"/>
</g>
<!-- Xd2614 -->
<g id="node13" class="node"><title>Xd2614</title>
<g id="a_node13"><a xlink:href="http://sparql.cwrc.ca/ontologies/cwrc#fifthMonarchists" xlink:title="Cinquièmes Monarchistes" target="_parent">
<ellipse fill="none" stroke="black" cx="220.838" cy="-306" rx="132.677" ry="18"/>
<text text-anchor="middle" x="220.838" y="-302.3" font-family="Times,serif" font-size="14.00">Cinquièmes Monarchistes</text>
</a>
</g>
</g>
<!-- Xd2614&#45;&gt;Xb45be -->
<g id="edge11" class="edge"><title>Xd2614&#45;&gt;Xb45be</title>
<path fill="none" stroke="black" d="M200.262,-288.055C189.483,-279.179 176.114,-268.169 164.353,-258.483"/>
<polygon fill="black" stroke="black" points="166.464,-255.687 156.519,-252.032 162.014,-261.09 166.464,-255.687"/>
</g>
<!-- Xd2614&#45;&gt;X156db -->
<g id="edge12" class="edge"><title>Xd2614&#45;&gt;X156db</title>
<path fill="none" stroke="black" d="M272.391,-289.378C306.935,-278.91 352.622,-265.065 389.252,-253.965"/>
<polygon fill="black" stroke="black" points="390.285,-257.31 398.84,-251.06 388.255,-250.61 390.285,-257.31"/>
</g>
<!-- X9deb8 -->
<g id="node14" class="node"><title>X9deb8</title>
<g id="a_node14"><a xlink:href="http://sparql.cwrc.ca/ontologies/cwrc#dissentingChristianity" xlink:title="Dissidence anglaise" target="_parent">
<ellipse fill="none" stroke="black" cx="1610.84" cy="-234" rx="102.882" ry="18"/>
<text text-anchor="middle" x="1610.84" y="-230.3" font-family="Times,serif" font-size="14.00">Dissidence anglaise</text>
</a>
</g>
</g>
<!-- X4e4b1 -->
<g id="node15" class="node"><title>X4e4b1</title>
<g id="a_node15"><a xlink:href="http://sparql.cwrc.ca/ontologies/cwrc#protestantism" xlink:title="protestantisme" target="_parent">
<ellipse fill="none" stroke="black" cx="1218.84" cy="-162" rx="81.4863" ry="18"/>
<text text-anchor="middle" x="1218.84" y="-158.3" font-family="Times,serif" font-size="14.00">protestantisme</text>
</a>
</g>
</g>
<!-- X9deb8&#45;&gt;X4e4b1 -->
<g id="edge13" class="edge"><title>X9deb8&#45;&gt;X4e4b1</title>
<path fill="none" stroke="black" d="M1541.66,-220.647C1470.95,-208.021 1361.67,-188.505 1290.19,-175.741"/>
<polygon fill="black" stroke="black" points="1290.38,-172.22 1279.92,-173.908 1289.15,-179.111 1290.38,-172.22"/>
</g>
<!-- X4e4b1&#45;&gt;Xadf16 -->
<g id="edge14" class="edge"><title>X4e4b1&#45;&gt;Xadf16</title>
<path fill="none" stroke="black" d="M1262.2,-146.75C1296.11,-135.606 1343.39,-120.068 1379.42,-108.226"/>
<polygon fill="black" stroke="black" points="1380.86,-111.438 1389.27,-104.991 1378.67,-104.788 1380.86,-111.438"/>
</g>
<!-- Xd35c6 -->
<g id="node19" class="node"><title>Xd35c6</title>
<g id="a_node19"><a xlink:href="http://sparql.cwrc.ca/ontologies/cwrc#spiritualism" xlink:title="Spritisme" target="_parent">
<ellipse fill="none" stroke="black" cx="2179.84" cy="-162" rx="55.7903" ry="18"/>
<text text-anchor="middle" x="2179.84" y="-158.3" font-family="Times,serif" font-size="14.00">Spritisme</text>
</a>
</g>
</g>
<!-- X7152e&#45;&gt;Xd35c6 -->
<!-- Xe7b0a -->
<g id="node17" class="node"><title>Xe7b0a</title>
<g id="a_node17"><a xlink:href="http://sparql.cwrc.ca/ontologies/cwrc#neo-thomism" xlink:title="néothomisme" target="_parent">
<ellipse fill="none" stroke="black" cx="1804.84" cy="-234" rx="73.387" ry="18"/>
<text text-anchor="middle" x="1804.84" y="-230.3" font-family="Times,serif" font-size="14.00">néothomisme</text>
</a>
</g>
</g>
<!-- X32f53 -->
<g id="node18" class="node"><title>X32f53</title>
<g id="a_node18"><a xlink:href="http://sparql.cwrc.ca/ontologies/cwrc#catholicism" xlink:title="Catholicisme" target="_parent">
<ellipse fill="none" stroke="black" cx="1662.84" cy="-162" rx="71.4873" ry="18"/>
<text text-anchor="middle" x="1662.84" y="-158.3" font-family="Times,serif" font-size="14.00">Catholicisme</text>
</a>
</g>
</g>
<!-- Xe7b0a&#45;&gt;X32f53 -->
<g id="edge16" class="edge"><title>Xe7b0a&#45;&gt;X32f53</title>
<path fill="none" stroke="black" d="M1773.68,-217.638C1752.96,-207.426 1725.55,-193.916 1703.18,-182.885"/>
<polygon fill="black" stroke="black" points="1704.44,-179.608 1693.93,-178.326 1701.35,-185.887 1704.44,-179.608"/>
</g>
<!-- X32f53&#45;&gt;Xadf16 -->
<g id="edge17" class="edge"><title>X32f53&#45;&gt;Xadf16</title>
<path fill="none" stroke="black" d="M1619.12,-147.751C1581.54,-136.363 1527.16,-119.886 1486.67,-107.616"/>
<polygon fill="black" stroke="black" points="1487.54,-104.223 1476.96,-104.672 1485.51,-110.922 1487.54,-104.223"/>
</g>
<!-- X36b94 -->
<g id="node23" class="node"><title>X36b94</title>
<g id="a_node23"><a xlink:href="http://sparql.cwrc.ca/ontologies/cwrc#agnosticism" xlink:title="agnosticisme" target="_parent">
<ellipse fill="none" stroke="black" cx="2179.84" cy="-90" rx="72.2875" ry="18"/>
<text text-anchor="middle" x="2179.84" y="-86.3" font-family="Times,serif" font-size="14.00">agnosticisme</text>
</a>
</g>
</g>
<!-- Xd35c6&#45;&gt;X36b94 -->
<!-- Xe1e3e -->
<g id="node20" class="node"><title>Xe1e3e</title>
<g id="a_node20"><a xlink:href="http://sparql.cwrc.ca/ontologies/cwrc#methodism" xlink:title="Église méthodiste" target="_parent">
<ellipse fill="none" stroke="black" cx="1076.84" cy="-306" rx="94.7833" ry="18"/>
<text text-anchor="middle" x="1076.84" y="-302.3" font-family="Times,serif" font-size="14.00">Église méthodiste</text>
</a>
</g>
</g>
<!-- Xe1e3e&#45;&gt;X4e4b1 -->
<g id="edge20" class="edge"><title>Xe1e3e&#45;&gt;X4e4b1</title>
<path fill="none" stroke="black" d="M1099.71,-288.324C1112.84,-278.349 1129.34,-265.099 1142.84,-252 1163.7,-231.755 1184.99,-206.337 1199.7,-187.854"/>
<polygon fill="black" stroke="black" points="1202.54,-189.913 1205.98,-179.893 1197.04,-185.58 1202.54,-189.913"/>
</g>
<!-- X6f203 -->
<g id="node21" class="node"><title>X6f203</title>
<g id="a_node21"><a xlink:href="http://sparql.cwrc.ca/ontologies/cwrc#christianScience" xlink:title="Science Chrétienne" target="_parent">
<ellipse fill="none" stroke="black" cx="1854.84" cy="-162" rx="102.082" ry="18"/>
<text text-anchor="middle" x="1854.84" y="-158.3" font-family="Times,serif" font-size="14.00">Science Chrétienne</text>
</a>
</g>
</g>
<!-- X6f203&#45;&gt;Xadf16 -->
<g id="edge21" class="edge"><title>X6f203&#45;&gt;Xadf16</title>
<path fill="none" stroke="black" d="M1780.26,-149.68C1696.56,-136.907 1566.03,-116.772 1516.84,-108 1510.52,-106.873 1503.94,-105.65 1497.38,-104.393"/>
<polygon fill="black" stroke="black" points="1497.58,-100.868 1487.1,-102.401 1496.25,-107.74 1497.58,-100.868"/>
</g>
<!-- X043aa -->
<g id="node22" class="node"><title>X043aa</title>
<g id="a_node22"><a xlink:href="http://sparql.cwrc.ca/ontologies/cwrc#unitarianism" xlink:title="unitarisme" target="_parent">
<ellipse fill="none" stroke="black" cx="1148.84" cy="-378" rx="61.1893" ry="18"/>
<text text-anchor="middle" x="1148.84" y="-374.3" font-family="Times,serif" font-size="14.00">unitarisme</text>
</a>
</g>
</g>
<!-- X043aa&#45;&gt;X4e4b1 -->
<g id="edge22" class="edge"><title>X043aa&#45;&gt;X4e4b1</title>
<path fill="none" stroke="black" d="M1160.94,-360.054C1167.64,-349.988 1175.64,-336.738 1180.84,-324 1199.17,-279.088 1209.85,-223.354 1215,-190.63"/>
<polygon fill="black" stroke="black" points="1218.5,-190.874 1216.54,-180.463 1211.58,-189.827 1218.5,-190.874"/>
</g>
<!-- X8fa8b -->
<g id="node24" class="node"><title>X8fa8b</title>
<g id="a_node24"><a xlink:href="http://sparql.cwrc.ca/ontologies/cwrc#plymouthBrethren" xlink:title="Frères de Schwarzenau" target="_parent">
<ellipse fill="none" stroke="black" cx="1013.84" cy="-234" rx="120.479" ry="18"/>
<text text-anchor="middle" x="1013.84" y="-230.3" font-family="Times,serif" font-size="14.00">Frères de Schwarzenau</text>
</a>
</g>
</g>
<!-- X8fa8b&#45;&gt;X4e4b1 -->
<g id="edge24" class="edge"><title>X8fa8b&#45;&gt;X4e4b1</title>
<path fill="none" stroke="black" d="M1055.09,-216.941C1086.11,-205.919 1128.85,-191.312 1162.93,-180.079"/>
<polygon fill="black" stroke="black" points="1164.34,-183.3 1172.75,-176.857 1162.16,-176.649 1164.34,-183.3"/>
</g>
<!-- X8fa8b&#45;&gt;X4e4b1 -->
<g id="edge25" class="edge"><title>X8fa8b&#45;&gt;X4e4b1</title>
<path fill="none" stroke="black" d="M1064.53,-217.638C1097.11,-206.952 1139.08,-192.654 1171.08,-181.365"/>
<polygon fill="black" stroke="black" points="1172.41,-184.607 1180.66,-177.965 1170.07,-178.009 1172.41,-184.607"/>
</g>
<!-- X1cc79 -->
<g id="node25" class="node"><title>X1cc79</title>
<g id="a_node25"><a xlink:href="http://sparql.cwrc.ca/ontologies/cwrc#lollardy" xlink:title="Lollardy" target="_parent">
<ellipse fill="none" stroke="black" cx="1905.84" cy="-306" rx="49.2915" ry="18"/>
<text text-anchor="middle" x="1905.84" y="-302.3" font-family="Times,serif" font-size="14.00">Lollardy</text>
</a>
</g>
</g>
<!-- X1cc79&#45;&gt;X32f53 -->
<g id="edge26" class="edge"><title>X1cc79&#45;&gt;X32f53</title>
<path fill="none" stroke="black" d="M1907.22,-287.763C1907.81,-267.76 1905.51,-235.087 1886.84,-216 1881.09,-210.128 1790.29,-189.929 1726.08,-176.233"/>
<polygon fill="black" stroke="black" points="1726.53,-172.75 1716.02,-174.094 1725.08,-179.597 1726.53,-172.75"/>
</g>
<!-- X7477d -->
<g id="node26" class="node"><title>X7477d</title>
<g id="a_node26"><a xlink:href="http://sparql.cwrc.ca/ontologies/cwrc#congregationalism" xlink:title="Églises congrégationalistes" target="_parent">
<ellipse fill="none" stroke="black" cx="1237.84" cy="-450" rx="139.175" ry="18"/>
<text text-anchor="middle" x="1237.84" y="-446.3" font-family="Times,serif" font-size="14.00">Églises congrégationalistes</text>
</a>
</g>
</g>
<!-- X7477d&#45;&gt;X4e4b1 -->
<g id="edge27" class="edge"><title>X7477d&#45;&gt;X4e4b1</title>
<path fill="none" stroke="black" d="M1236.71,-431.966C1233.54,-384.291 1224.56,-249.185 1220.67,-190.63"/>
<polygon fill="black" stroke="black" points="1224.14,-190.052 1219.99,-180.306 1217.16,-190.516 1224.14,-190.052"/>
</g>
<!-- Xd53bc -->
<g id="node27" class="node"><title>Xd53bc</title>
<g id="a_node27"><a xlink:href="http://sparql.cwrc.ca/ontologies/cwrc#baptistChristianity" xlink:title="Baptisme" target="_parent">
<ellipse fill="none" stroke="black" cx="1479.84" cy="-522" rx="54.6905" ry="18"/>
<text text-anchor="middle" x="1479.84" y="-518.3" font-family="Times,serif" font-size="14.00">Baptisme</text>
</a>
</g>
</g>
<!-- Xd53bc&#45;&gt;X4e4b1 -->
<g id="edge28" class="edge"><title>Xd53bc&#45;&gt;X4e4b1</title>
<path fill="none" stroke="black" d="M1479.84,-503.951C1479.84,-477.292 1479.84,-424.115 1479.84,-379 1479.84,-379 1479.84,-379 1479.84,-305 1479.84,-264.553 1489.36,-244.676 1460.84,-216 1438.61,-193.651 1362.49,-179.518 1301.48,-171.521"/>
<polygon fill="black" stroke="black" points="1301.81,-168.034 1291.45,-170.242 1300.92,-174.978 1301.81,-168.034"/>
</g>
<!-- X0e2fa -->
<g id="node28" class="node"><title>X0e2fa</title>
<g id="a_node28"><a xlink:href="http://sparql.cwrc.ca/ontologies/cwrc#presbyterianism" xlink:title="Presbytarianisme" target="_parent">
<ellipse fill="none" stroke="black" cx="1358.84" cy="-234" rx="92.8835" ry="18"/>
<text text-anchor="middle" x="1358.84" y="-230.3" font-family="Times,serif" font-size="14.00">Presbytarianisme</text>
</a>
</g>
</g>
<!-- X0e2fa&#45;&gt;X4e4b1 -->
<g id="edge29" class="edge"><title>X0e2fa&#45;&gt;X4e4b1</title>
<path fill="none" stroke="black" d="M1326.72,-216.941C1306.75,-206.955 1280.89,-194.026 1259.5,-183.329"/>
<polygon fill="black" stroke="black" points="1260.83,-180.085 1250.32,-178.743 1257.7,-186.346 1260.83,-180.085"/>
</g>
<!-- Xb800b -->
<g id="node29" class="node"><title>Xb800b</title>
<g id="a_node29"><a xlink:href="http://sparql.cwrc.ca/ontologies/cwrc#tractarianMovement" xlink:title="tractarianisme" target="_parent">
<ellipse fill="none" stroke="black" cx="641.838" cy="-306" rx="79.0865" ry="18"/>
<text text-anchor="middle" x="641.838" y="-302.3" font-family="Times,serif" font-size="14.00">tractarianisme</text>
</a>
</g>
</g>
<!-- Xb800b&#45;&gt;Xf6f10 -->
<g id="edge30" class="edge"><title>Xb800b&#45;&gt;Xf6f10</title>
<path fill="none" stroke="black" d="M643.435,-287.986C645.619,-269.607 650.512,-239.765 660.838,-216 665.02,-206.375 671.084,-196.71 677.097,-188.318"/>
<polygon fill="black" stroke="black" points="680.068,-190.19 683.264,-180.089 674.466,-185.992 680.068,-190.19"/>
</g>
<!-- X253de -->
<g id="node30" class="node"><title>X253de</title>
<g id="a_node30"><a xlink:href="http://sparql.cwrc.ca/ontologies/cwrc#quakerism" xlink:title="quaker" target="_parent">
<ellipse fill="none" stroke="black" cx="475.838" cy="-306" rx="43.5923" ry="18"/>
<text text-anchor="middle" x="475.838" y="-302.3" font-family="Times,serif" font-size="14.00">quaker</text>
</a>
</g>
</g>
<!-- X253de&#45;&gt;X156db -->
<g id="edge31" class="edge"><title>X253de&#45;&gt;X156db</title>
<path fill="none" stroke="black" d="M470.028,-288.055C467.327,-280.176 464.049,-270.617 461.024,-261.794"/>
<polygon fill="black" stroke="black" points="464.315,-260.6 457.761,-252.275 457.693,-262.87 464.315,-260.6"/>
</g>
<!-- X253de&#45;&gt;X4e4b1 -->
<g id="edge32" class="edge"><title>X253de&#45;&gt;X4e4b1</title>
<path fill="none" stroke="black" d="M512.602,-296.256C525.581,-293.363 540.311,-290.3 553.838,-288 683.183,-266.007 728.151,-307.921 846.838,-252 867.883,-242.084 863.97,-226.284 884.838,-216 927.601,-194.926 1050.52,-179.261 1134.69,-170.623"/>
<polygon fill="black" stroke="black" points="1135.15,-174.094 1144.75,-169.605 1134.45,-167.129 1135.15,-174.094"/>
</g>
</g>
</svg>
