<?xml version="1.0" encoding="UTF-8" standalone="no"?>
<!DOCTYPE svg PUBLIC "-//W3C//DTD SVG 1.1//EN"
 "http://www.w3.org/Graphics/SVG/1.1/DTD/svg11.dtd">
<!-- Generated by graphviz version 2.38.0 (20140413.2041)
 -->
<!-- Title: ReligionGraph Pages: 1 -->
<svg width="2096pt" height="548pt"
 viewBox="0.00 0.00 2096.08 548.00" xmlns="http://www.w3.org/2000/svg" xmlns:xlink="http://www.w3.org/1999/xlink">
<g id="graph0" class="graph" transform="scale(1 1) rotate(0) translate(4 544)">
<title>ReligionGraph</title>
<polygon fill="white" stroke="none" points="-4,4 -4,-544 2092.08,-544 2092.08,4 -4,4"/>
<!-- X43c0c -->
<g id="node1" class="node"><title>X43c0c</title>
<g id="a_node1"><a xlink:href="http://sparql.cwrc.ca/ontologies/cwrc#occultism" xlink:title="occultisme" target="_parent">
<ellipse fill="none" stroke="black" cx="72.1436" cy="-522" rx="61.99" ry="18"/>
<text text-anchor="middle" x="72.1436" y="-518.3" font-family="Times,serif" font-size="14.00">occultisme</text>
</a>
</g>
</g>
<!-- X3b80a -->
<g id="node2" class="node"><title>X3b80a</title>
<g id="a_node2"><a xlink:href="http://sparql.cwrc.ca/ontologies/cwrc#buddhism" xlink:title="Bouddhisme" target="_parent">
<ellipse fill="none" stroke="black" cx="72.1436" cy="-450" rx="68.4888" ry="18"/>
<text text-anchor="middle" x="72.1436" y="-446.3" font-family="Times,serif" font-size="14.00">Bouddhisme</text>
</a>
</g>
</g>
<!-- X43c0c&#45;&gt;X3b80a -->
<!-- X52798 -->
<g id="node7" class="node"><title>X52798</title>
<g id="a_node7"><a xlink:href="http://sparql.cwrc.ca/ontologies/cwrc#pantheism" xlink:title="Panthéisme" target="_parent">
<ellipse fill="none" stroke="black" cx="72.1436" cy="-378" rx="64.9885" ry="18"/>
<text text-anchor="middle" x="72.1436" y="-374.3" font-family="Times,serif" font-size="14.00">Panthéisme</text>
</a>
</g>
</g>
<!-- X3b80a&#45;&gt;X52798 -->
<!-- X2a5d0 -->
<g id="node3" class="node"><title>X2a5d0</title>
<g id="a_node3"><a xlink:href="http://sparql.cwrc.ca/ontologies/cwrc#churchOfIreland" xlink:title="Église d&#39;Irlande" target="_parent">
<ellipse fill="none" stroke="black" cx="247.144" cy="-234" rx="84.485" ry="18"/>
<text text-anchor="middle" x="247.144" y="-230.3" font-family="Times,serif" font-size="14.00">Église d&#39;Irlande</text>
</a>
</g>
</g>
<!-- Xf6f10 -->
<g id="node4" class="node"><title>Xf6f10</title>
<g id="a_node4"><a xlink:href="http://sparql.cwrc.ca/ontologies/cwrc#anglicanism" xlink:title="Église d&#39;Angleterre" target="_parent">
<ellipse fill="none" stroke="black" cx="599.144" cy="-162" rx="100.983" ry="18"/>
<text text-anchor="middle" x="599.144" y="-158.3" font-family="Times,serif" font-size="14.00">Église d&#39;Angleterre</text>
</a>
</g>
</g>
<!-- X2a5d0&#45;&gt;Xf6f10 -->
<g id="edge2" class="edge"><title>X2a5d0&#45;&gt;Xf6f10</title>
<path fill="none" stroke="black" d="M306.856,-221.125C366.808,-209.203 459.344,-190.801 524.196,-177.904"/>
<polygon fill="black" stroke="black" points="525.232,-181.267 534.357,-175.884 523.867,-174.401 525.232,-181.267"/>
</g>
<!-- Xadf16 -->
<g id="node5" class="node"><title>Xadf16</title>
<g id="a_node5"><a xlink:href="http://sparql.cwrc.ca/ontologies/cwrc#christianity" xlink:title="Christianisme" target="_parent">
<ellipse fill="none" stroke="black" cx="1642.14" cy="-90" rx="76.0865" ry="18"/>
<text text-anchor="middle" x="1642.14" y="-86.3" font-family="Times,serif" font-size="14.00">Christianisme</text>
</a>
</g>
</g>
<!-- Xf6f10&#45;&gt;Xadf16 -->
<g id="edge3" class="edge"><title>Xf6f10&#45;&gt;Xadf16</title>
<path fill="none" stroke="black" d="M691.703,-154.788C893.13,-141.269 1368.49,-109.366 1560.03,-96.5109"/>
<polygon fill="black" stroke="black" points="1560.29,-100.001 1570.04,-95.8393 1559.83,-93.0169 1560.29,-100.001"/>
</g>
<!-- Xb2336 -->
<g id="node12" class="node"><title>Xb2336</title>
<g id="a_node12"><a xlink:href="http://sparql.cwrc.ca/ontologies/cwrc#abrahamicReligions" xlink:title="Religions abrahamiques" target="_parent">
<ellipse fill="none" stroke="black" cx="1939.14" cy="-18" rx="122.379" ry="18"/>
<text text-anchor="middle" x="1939.14" y="-14.3" font-family="Times,serif" font-size="14.00">Religions abrahamiques</text>
</a>
</g>
</g>
<!-- Xadf16&#45;&gt;Xb2336 -->
<g id="edge10" class="edge"><title>Xadf16&#45;&gt;Xb2336</title>
<path fill="none" stroke="black" d="M1693.88,-76.8069C1741.91,-65.4861 1813.87,-48.5267 1867.43,-35.9017"/>
<polygon fill="black" stroke="black" points="1868.28,-39.2979 1877.21,-33.5971 1866.67,-32.4845 1868.28,-39.2979"/>
</g>
<!-- Xb45be -->
<g id="node6" class="node"><title>Xb45be</title>
<g id="a_node6"><a xlink:href="http://sparql.cwrc.ca/ontologies/cwrc#millenarianism" xlink:title="millénarisme, ou chiliasme" target="_parent">
<ellipse fill="none" stroke="black" cx="523.144" cy="-234" rx="135.676" ry="18"/>
<text text-anchor="middle" x="523.144" y="-230.3" font-family="Times,serif" font-size="14.00">millénarisme, ou chiliasme</text>
</a>
</g>
</g>
<!-- Xc7ed9 -->
<g id="node8" class="node"><title>Xc7ed9</title>
<g id="a_node8"><a xlink:href="http://sparql.cwrc.ca/ontologies/cwrc#hinduism" xlink:title="hindouisme" target="_parent">
<ellipse fill="none" stroke="black" cx="72.1436" cy="-306" rx="64.189" ry="18"/>
<text text-anchor="middle" x="72.1436" y="-302.3" font-family="Times,serif" font-size="14.00">hindouisme</text>
</a>
</g>
</g>
<!-- X52798&#45;&gt;Xc7ed9 -->
<!-- X36b94 -->
<g id="node17" class="node"><title>X36b94</title>
<g id="a_node17"><a xlink:href="http://sparql.cwrc.ca/ontologies/cwrc#agnosticism" xlink:title="agnosticisme" target="_parent">
<ellipse fill="none" stroke="black" cx="72.1436" cy="-234" rx="72.2875" ry="18"/>
<text text-anchor="middle" x="72.1436" y="-230.3" font-family="Times,serif" font-size="14.00">agnosticisme</text>
</a>
</g>
</g>
<!-- Xc7ed9&#45;&gt;X36b94 -->
<!-- X253de -->
<g id="node9" class="node"><title>X253de</title>
<g id="a_node9"><a xlink:href="http://sparql.cwrc.ca/ontologies/cwrc#quakerism" xlink:title="quaker" target="_parent">
<ellipse fill="none" stroke="black" cx="1178.14" cy="-306" rx="43.5923" ry="18"/>
<text text-anchor="middle" x="1178.14" y="-302.3" font-family="Times,serif" font-size="14.00">quaker</text>
</a>
</g>
</g>
<!-- X156db -->
<g id="node10" class="node"><title>X156db</title>
<g id="a_node10"><a xlink:href="http://sparql.cwrc.ca/ontologies/cwrc#dissentProtestant" xlink:title="dissidents (ou non&#45;conformistes)" target="_parent">
<ellipse fill="none" stroke="black" cx="839.144" cy="-234" rx="162.471" ry="18"/>
<text text-anchor="middle" x="839.144" y="-230.3" font-family="Times,serif" font-size="14.00">dissidents (ou non&#45;conformistes)</text>
</a>
</g>
</g>
<!-- X253de&#45;&gt;X156db -->
<g id="edge6" class="edge"><title>X253de&#45;&gt;X156db</title>
<path fill="none" stroke="black" d="M1139.91,-297.106C1087.43,-286.269 991.684,-266.498 922.288,-252.168"/>
<polygon fill="black" stroke="black" points="922.75,-248.69 912.248,-250.095 921.334,-255.545 922.75,-248.69"/>
</g>
<!-- X4e4b1 -->
<g id="node11" class="node"><title>X4e4b1</title>
<g id="a_node11"><a xlink:href="http://sparql.cwrc.ca/ontologies/cwrc#protestantism" xlink:title="protestantisme" target="_parent">
<ellipse fill="none" stroke="black" cx="1524.14" cy="-162" rx="81.4863" ry="18"/>
<text text-anchor="middle" x="1524.14" y="-158.3" font-family="Times,serif" font-size="14.00">protestantisme</text>
</a>
</g>
</g>
<!-- X253de&#45;&gt;X4e4b1 -->
<g id="edge7" class="edge"><title>X253de&#45;&gt;X4e4b1</title>
<path fill="none" stroke="black" d="M1219.69,-300.479C1262.79,-294.409 1331.05,-280.848 1383.14,-252 1403.5,-240.73 1402.17,-229.457 1421.14,-216 1439.11,-203.262 1460.55,-191.725 1479.2,-182.691"/>
<polygon fill="black" stroke="black" points="1480.86,-185.781 1488.39,-178.333 1477.86,-179.456 1480.86,-185.781"/>
</g>
<!-- X156db&#45;&gt;Xf6f10 -->
<g id="edge8" class="edge"><title>X156db&#45;&gt;Xf6f10</title>
<path fill="none" stroke="black" d="M784.384,-217.028C747.173,-206.175 697.938,-191.815 659.581,-180.628"/>
<polygon fill="black" stroke="black" points="660.155,-177.149 649.575,-177.709 658.195,-183.869 660.155,-177.149"/>
</g>
<!-- X4e4b1&#45;&gt;Xadf16 -->
<g id="edge9" class="edge"><title>X4e4b1&#45;&gt;Xadf16</title>
<path fill="none" stroke="black" d="M1551.22,-144.941C1567.55,-135.248 1588.57,-122.781 1606.28,-112.275"/>
<polygon fill="black" stroke="black" points="1608.38,-115.097 1615.2,-106.985 1604.81,-109.077 1608.38,-115.097"/>
</g>
<!-- Xe7b0a -->
<g id="node13" class="node"><title>Xe7b0a</title>
<g id="a_node13"><a xlink:href="http://sparql.cwrc.ca/ontologies/cwrc#neo-thomism" xlink:title="néothomisme" target="_parent">
<ellipse fill="none" stroke="black" cx="1795.14" cy="-234" rx="73.387" ry="18"/>
<text text-anchor="middle" x="1795.14" y="-230.3" font-family="Times,serif" font-size="14.00">néothomisme</text>
</a>
</g>
</g>
<!-- X32f53 -->
<g id="node14" class="node"><title>X32f53</title>
<g id="a_node14"><a xlink:href="http://sparql.cwrc.ca/ontologies/cwrc#catholicism" xlink:title="Catholicisme" target="_parent">
<ellipse fill="none" stroke="black" cx="1761.14" cy="-162" rx="71.4873" ry="18"/>
<text text-anchor="middle" x="1761.14" y="-158.3" font-family="Times,serif" font-size="14.00">Catholicisme</text>
</a>
</g>
</g>
<!-- Xe7b0a&#45;&gt;X32f53 -->
<g id="edge11" class="edge"><title>Xe7b0a&#45;&gt;X32f53</title>
<path fill="none" stroke="black" d="M1786.91,-216.055C1783.05,-208.091 1778.34,-198.411 1774.02,-189.51"/>
<polygon fill="black" stroke="black" points="1777.05,-187.741 1769.53,-180.275 1770.76,-190.8 1777.05,-187.741"/>
</g>
<!-- X32f53&#45;&gt;Xadf16 -->
<g id="edge12" class="edge"><title>X32f53&#45;&gt;Xadf16</title>
<path fill="none" stroke="black" d="M1734.44,-145.291C1717.87,-135.542 1696.36,-122.89 1678.27,-112.252"/>
<polygon fill="black" stroke="black" points="1679.57,-108.953 1669.17,-106.899 1676.02,-114.986 1679.57,-108.953"/>
</g>
<!-- X043aa -->
<g id="node15" class="node"><title>X043aa</title>
<g id="a_node15"><a xlink:href="http://sparql.cwrc.ca/ontologies/cwrc#unitarianism" xlink:title="unitarisme" target="_parent">
<ellipse fill="none" stroke="black" cx="1491.14" cy="-234" rx="61.1893" ry="18"/>
<text text-anchor="middle" x="1491.14" y="-230.3" font-family="Times,serif" font-size="14.00">unitarisme</text>
</a>
</g>
</g>
<!-- X043aa&#45;&gt;X4e4b1 -->
<g id="edge13" class="edge"><title>X043aa&#45;&gt;X4e4b1</title>
<path fill="none" stroke="black" d="M1499.13,-216.055C1502.89,-208.091 1507.45,-198.411 1511.65,-189.51"/>
<polygon fill="black" stroke="black" points="1514.9,-190.813 1516,-180.275 1508.57,-187.828 1514.9,-190.813"/>
</g>
<!-- X9deb8 -->
<g id="node16" class="node"><title>X9deb8</title>
<g id="a_node16"><a xlink:href="http://sparql.cwrc.ca/ontologies/cwrc#dissentingChristianity" xlink:title="Dissidence anglaise" target="_parent">
<ellipse fill="none" stroke="black" cx="1487.14" cy="-306" rx="102.882" ry="18"/>
<text text-anchor="middle" x="1487.14" y="-302.3" font-family="Times,serif" font-size="14.00">Dissidence anglaise</text>
</a>
</g>
</g>
<!-- X9deb8&#45;&gt;X4e4b1 -->
<g id="edge14" class="edge"><title>X9deb8&#45;&gt;X4e4b1</title>
<path fill="none" stroke="black" d="M1522.59,-288.96C1537.34,-280.286 1552.91,-268.023 1561.14,-252 1571.92,-231.023 1559.62,-206.168 1546.38,-188.063"/>
<polygon fill="black" stroke="black" points="1548.82,-185.495 1539.9,-179.764 1543.3,-189.801 1548.82,-185.495"/>
</g>
<!-- Xd35c6 -->
<g id="node18" class="node"><title>Xd35c6</title>
<g id="a_node18"><a xlink:href="http://sparql.cwrc.ca/ontologies/cwrc#spiritualism" xlink:title="Spritisme" target="_parent">
<ellipse fill="none" stroke="black" cx="72.1436" cy="-162" rx="55.7903" ry="18"/>
<text text-anchor="middle" x="72.1436" y="-158.3" font-family="Times,serif" font-size="14.00">Spritisme</text>
</a>
</g>
</g>
<!-- X36b94&#45;&gt;Xd35c6 -->
<!-- X7152e -->
<g id="node21" class="node"><title>X7152e</title>
<g id="a_node21"><a xlink:href="http://sparql.cwrc.ca/ontologies/cwrc#atheism" xlink:title="athéisme" target="_parent">
<ellipse fill="none" stroke="black" cx="72.1436" cy="-90" rx="53.0913" ry="18"/>
<text text-anchor="middle" x="72.1436" y="-86.3" font-family="Times,serif" font-size="14.00">athéisme</text>
</a>
</g>
</g>
<!-- Xd35c6&#45;&gt;X7152e -->
<!-- X6f203 -->
<g id="node19" class="node"><title>X6f203</title>
<g id="a_node19"><a xlink:href="http://sparql.cwrc.ca/ontologies/cwrc#christianScience" xlink:title="Science CHRÉTIENNE" target="_parent">
<ellipse fill="none" stroke="black" cx="1969.14" cy="-162" rx="118.879" ry="18"/>
<text text-anchor="middle" x="1969.14" y="-158.3" font-family="Times,serif" font-size="14.00">Science CHRÉTIENNE</text>
</a>
</g>
</g>
<!-- X6f203&#45;&gt;Xadf16 -->
<g id="edge17" class="edge"><title>X6f203&#45;&gt;Xadf16</title>
<path fill="none" stroke="black" d="M1903.36,-146.919C1846.01,-134.641 1763.31,-116.938 1706.41,-104.756"/>
<polygon fill="black" stroke="black" points="1706.96,-101.295 1696.45,-102.624 1705.49,-108.14 1706.96,-101.295"/>
</g>
<!-- Xd2614 -->
<g id="node20" class="node"><title>Xd2614</title>
<g id="a_node20"><a xlink:href="http://sparql.cwrc.ca/ontologies/cwrc#fifthMonarchists" xlink:title="Cinquièmes Monarchistes" target="_parent">
<ellipse fill="none" stroke="black" cx="714.144" cy="-306" rx="132.677" ry="18"/>
<text text-anchor="middle" x="714.144" y="-302.3" font-family="Times,serif" font-size="14.00">Cinquièmes Monarchistes</text>
</a>
</g>
</g>
<!-- Xd2614&#45;&gt;Xb45be -->
<g id="edge18" class="edge"><title>Xd2614&#45;&gt;Xb45be</title>
<path fill="none" stroke="black" d="M670.324,-288.941C642.519,-278.75 606.35,-265.494 576.826,-254.674"/>
<polygon fill="black" stroke="black" points="577.683,-251.261 567.089,-251.106 575.274,-257.833 577.683,-251.261"/>
</g>
<!-- Xd2614&#45;&gt;X156db -->
<g id="edge19" class="edge"><title>Xd2614&#45;&gt;X156db</title>
<path fill="none" stroke="black" d="M743.767,-288.411C760.689,-278.934 782.107,-266.94 800.358,-256.72"/>
<polygon fill="black" stroke="black" points="802.285,-259.652 809.3,-251.713 798.865,-253.545 802.285,-259.652"/>
</g>
<!-- X0e2fa -->
<g id="node22" class="node"><title>X0e2fa</title>
<g id="a_node22"><a xlink:href="http://sparql.cwrc.ca/ontologies/cwrc#presbyterianism" xlink:title="Presbytarianisme" target="_parent">
<ellipse fill="none" stroke="black" cx="1535.14" cy="-378" rx="92.8835" ry="18"/>
<text text-anchor="middle" x="1535.14" y="-374.3" font-family="Times,serif" font-size="14.00">Presbytarianisme</text>
</a>
</g>
</g>
<!-- X0e2fa&#45;&gt;X4e4b1 -->
<g id="edge21" class="edge"><title>X0e2fa&#45;&gt;X4e4b1</title>
<path fill="none" stroke="black" d="M1564.57,-360.83C1577.74,-351.869 1591.9,-339.405 1599.14,-324 1605.95,-309.521 1601.51,-303.824 1599.14,-288 1594.2,-254.907 1594.37,-244.683 1577.14,-216 1570.6,-205.107 1561.34,-194.812 1552.38,-186.244"/>
<polygon fill="black" stroke="black" points="1554.73,-183.653 1544.99,-179.478 1550,-188.814 1554.73,-183.653"/>
</g>
<!-- Xe1e3e -->
<g id="node23" class="node"><title>Xe1e3e</title>
<g id="a_node23"><a xlink:href="http://sparql.cwrc.ca/ontologies/cwrc#methodism" xlink:title="Église méthodiste" target="_parent">
<ellipse fill="none" stroke="black" cx="1571.14" cy="-450" rx="94.7833" ry="18"/>
<text text-anchor="middle" x="1571.14" y="-446.3" font-family="Times,serif" font-size="14.00">Église méthodiste</text>
</a>
</g>
</g>
<!-- Xe1e3e&#45;&gt;X4e4b1 -->
<g id="edge22" class="edge"><title>Xe1e3e&#45;&gt;X4e4b1</title>
<path fill="none" stroke="black" d="M1601.81,-432.805C1615.28,-423.907 1629.71,-411.504 1637.14,-396 1644.06,-381.573 1639.25,-375.86 1637.14,-360 1628.4,-294.273 1635.96,-270.466 1598.14,-216 1589.36,-203.344 1576.53,-192.64 1564.01,-184.238"/>
<polygon fill="black" stroke="black" points="1565.77,-181.206 1555.45,-178.793 1562.01,-187.113 1565.77,-181.206"/>
</g>
<!-- Xd32ac -->
<g id="node24" class="node"><title>Xd32ac</title>
<g id="a_node24"><a xlink:href="http://sparql.cwrc.ca/ontologies/cwrc#judaism" xlink:title="Judaïsme" target="_parent">
<ellipse fill="none" stroke="black" cx="1790.14" cy="-90" rx="53.8905" ry="18"/>
<text text-anchor="middle" x="1790.14" y="-86.3" font-family="Times,serif" font-size="14.00">Judaïsme</text>
</a>
</g>
</g>
<!-- Xd32ac&#45;&gt;Xb2336 -->
<g id="edge23" class="edge"><title>Xd32ac&#45;&gt;Xb2336</title>
<path fill="none" stroke="black" d="M1820.3,-74.8345C1841.77,-64.7478 1870.96,-51.0314 1895.04,-39.7181"/>
<polygon fill="black" stroke="black" points="1896.77,-42.7739 1904.33,-35.3539 1893.79,-36.4382 1896.77,-42.7739"/>
</g>
<!-- X1cc79 -->
<g id="node25" class="node"><title>X1cc79</title>
<g id="a_node25"><a xlink:href="http://sparql.cwrc.ca/ontologies/cwrc#lollardy" xlink:title="Lollardy" target="_parent">
<ellipse fill="none" stroke="black" cx="1896.14" cy="-306" rx="49.2915" ry="18"/>
<text text-anchor="middle" x="1896.14" y="-302.3" font-family="Times,serif" font-size="14.00">Lollardy</text>
</a>
</g>
</g>
<!-- X1cc79&#45;&gt;X32f53 -->
<g id="edge24" class="edge"><title>X1cc79&#45;&gt;X32f53</title>
<path fill="none" stroke="black" d="M1896.84,-287.67C1896.71,-268.182 1893.66,-236.578 1877.14,-216 1863.03,-198.409 1841.78,-186.426 1821.31,-178.373"/>
<polygon fill="black" stroke="black" points="1822.26,-174.996 1811.67,-174.836 1819.85,-181.567 1822.26,-174.996"/>
</g>
<!-- X7477d -->
<g id="node26" class="node"><title>X7477d</title>
<g id="a_node26"><a xlink:href="http://sparql.cwrc.ca/ontologies/cwrc#congregationalism" xlink:title="Églises congrégationalistes" target="_parent">
<ellipse fill="none" stroke="black" cx="1694.14" cy="-522" rx="139.175" ry="18"/>
<text text-anchor="middle" x="1694.14" y="-518.3" font-family="Times,serif" font-size="14.00">Églises congrégationalistes</text>
</a>
</g>
</g>
<!-- X7477d&#45;&gt;X4e4b1 -->
<g id="edge25" class="edge"><title>X7477d&#45;&gt;X4e4b1</title>
<path fill="none" stroke="black" d="M1694.14,-503.951C1694.14,-477.292 1694.14,-424.115 1694.14,-379 1694.14,-379 1694.14,-379 1694.14,-305 1694.14,-242.861 1626.41,-202.592 1576.46,-181.341"/>
<polygon fill="black" stroke="black" points="1577.62,-178.036 1567.04,-177.468 1574.96,-184.509 1577.62,-178.036"/>
</g>
<!-- Xd53bc -->
<g id="node27" class="node"><title>Xd53bc</title>
<g id="a_node27"><a xlink:href="http://sparql.cwrc.ca/ontologies/cwrc#baptistChristianity" xlink:title="Baptisme" target="_parent">
<ellipse fill="none" stroke="black" cx="1074.14" cy="-234" rx="54.6905" ry="18"/>
<text text-anchor="middle" x="1074.14" y="-230.3" font-family="Times,serif" font-size="14.00">Baptisme</text>
</a>
</g>
</g>
<!-- Xd53bc&#45;&gt;X4e4b1 -->
<g id="edge26" class="edge"><title>Xd53bc&#45;&gt;X4e4b1</title>
<path fill="none" stroke="black" d="M1113.62,-221.523C1121.37,-219.502 1129.48,-217.552 1137.14,-216 1241.14,-194.936 1362.59,-179.821 1441.3,-171.252"/>
<polygon fill="black" stroke="black" points="1442.07,-174.689 1451.64,-170.138 1441.32,-167.73 1442.07,-174.689"/>
</g>
<!-- X8fa8b -->
<g id="node28" class="node"><title>X8fa8b</title>
<g id="a_node28"><a xlink:href="http://sparql.cwrc.ca/ontologies/cwrc#plymouthBrethren" xlink:title="Assemblées de Frères" target="_parent">
<ellipse fill="none" stroke="black" cx="1260.14" cy="-234" rx="113.98" ry="18"/>
<text text-anchor="middle" x="1260.14" y="-230.3" font-family="Times,serif" font-size="14.00">Assemblées de Frères</text>
</a>
</g>
</g>
<!-- X8fa8b&#45;&gt;X4e4b1 -->
<g id="edge27" class="edge"><title>X8fa8b&#45;&gt;X4e4b1</title>
<path fill="none" stroke="black" d="M1311.43,-217.897C1354.2,-206.177 1415.2,-190 1460.97,-178.244"/>
<polygon fill="black" stroke="black" points="1461.96,-181.603 1470.78,-175.731 1460.22,-174.821 1461.96,-181.603"/>
</g>
<!-- X8fa8b&#45;&gt;X4e4b1 -->
<g id="edge28" class="edge"><title>X8fa8b&#45;&gt;X4e4b1</title>
<path fill="none" stroke="black" d="M1319.78,-218.666C1364.08,-207.31 1424.04,-191.434 1467.6,-179.541"/>
<polygon fill="black" stroke="black" points="1468.74,-182.857 1477.46,-176.838 1466.89,-176.105 1468.74,-182.857"/>
</g>
<!-- Xc1422 -->
<g id="node29" class="node"><title>Xc1422</title>
<g id="a_node29"><a xlink:href="http://sparql.cwrc.ca/ontologies/cwrc#islam" xlink:title="Mahométisme" target="_parent">
<ellipse fill="none" stroke="black" cx="1939.14" cy="-90" rx="77.1866" ry="18"/>
<text text-anchor="middle" x="1939.14" y="-86.3" font-family="Times,serif" font-size="14.00">Mahométisme</text>
</a>
</g>
</g>
<!-- Xc1422&#45;&gt;Xb2336 -->
<g id="edge29" class="edge"><title>Xc1422&#45;&gt;Xb2336</title>
<path fill="none" stroke="black" d="M1927.39,-72.055C1925.75,-64.3456 1925.27,-55.0269 1925.93,-46.3642"/>
<polygon fill="black" stroke="black" points="1929.43,-46.6584 1927.32,-36.2753 1922.49,-45.7065 1929.43,-46.6584"/>
</g>
<!-- Xc1422&#45;&gt;Xb2336 -->
<g id="edge30" class="edge"><title>Xc1422&#45;&gt;Xb2336</title>
<path fill="none" stroke="black" d="M1939.14,-71.6966C1939.14,-63.9827 1939.14,-54.7125 1939.14,-46.1124"/>
<polygon fill="black" stroke="black" points="1942.64,-46.1043 1939.14,-36.1043 1935.64,-46.1044 1942.64,-46.1043"/>
</g>
<!-- Xc1422&#45;&gt;Xb2336 -->
<g id="edge31" class="edge"><title>Xc1422&#45;&gt;Xb2336</title>
<path fill="none" stroke="black" d="M1950.9,-72.055C1952.54,-64.3456 1953.02,-55.0269 1952.35,-46.3642"/>
<polygon fill="black" stroke="black" points="1955.8,-45.7065 1950.97,-36.2753 1948.86,-46.6584 1955.8,-45.7065"/>
</g>
<!-- Xb800b -->
<g id="node30" class="node"><title>Xb800b</title>
<g id="a_node30"><a xlink:href="http://sparql.cwrc.ca/ontologies/cwrc#tractarianMovement" xlink:title="tractarianisme" target="_parent">
<ellipse fill="none" stroke="black" cx="359.144" cy="-306" rx="79.0865" ry="18"/>
<text text-anchor="middle" x="359.144" y="-302.3" font-family="Times,serif" font-size="14.00">tractarianisme</text>
</a>
</g>
</g>
<!-- Xb800b&#45;&gt;Xf6f10 -->
<g id="edge32" class="edge"><title>Xb800b&#45;&gt;Xf6f10</title>
<path fill="none" stroke="black" d="M357.776,-287.773C357.192,-267.779 359.501,-235.116 378.144,-216 396.648,-197.026 456.591,-183.371 509.386,-174.677"/>
<polygon fill="black" stroke="black" points="510.171,-178.096 519.492,-173.058 509.064,-171.184 510.171,-178.096"/>
</g>
</g>
</svg>
