<?xml version="1.0" encoding="UTF-8" standalone="no"?>
<!DOCTYPE svg PUBLIC "-//W3C//DTD SVG 1.1//EN"
 "http://www.w3.org/Graphics/SVG/1.1/DTD/svg11.dtd">
<!-- Generated by graphviz version 2.38.0 (20140413.2041)
 -->
<!-- Title: ReligionGraph Pages: 1 -->
<svg width="1645pt" height="548pt"
 viewBox="0.00 0.00 1645.14 548.00" xmlns="http://www.w3.org/2000/svg" xmlns:xlink="http://www.w3.org/1999/xlink">
<g id="graph0" class="graph" transform="scale(1 1) rotate(0) translate(4 544)">
<title>ReligionGraph</title>
<polygon fill="white" stroke="none" points="-4,4 -4,-544 1641.14,-544 1641.14,4 -4,4"/>
<!-- X043aa -->
<g id="node1" class="node"><title>X043aa</title>
<g id="a_node1"><a xlink:href="http://sparql.cwrc.ca/ontologies/cwrc#unitarianism" xlink:title="unitarisme" target="_parent">
<ellipse fill="none" stroke="black" cx="974.946" cy="-234" rx="48.1917" ry="18"/>
<text text-anchor="middle" x="974.946" y="-230.3" font-family="Times,serif" font-size="14.00">unitarisme</text>
</a>
</g>
</g>
<!-- X4e4b1 -->
<g id="node2" class="node"><title>X4e4b1</title>
<g id="a_node2"><a xlink:href="http://sparql.cwrc.ca/ontologies/cwrc#protestantism" xlink:title="protestantisme" target="_parent">
<ellipse fill="none" stroke="black" cx="1069.95" cy="-162" rx="62.2891" ry="18"/>
<text text-anchor="middle" x="1069.95" y="-158.3" font-family="Times,serif" font-size="14.00">protestantisme</text>
</a>
</g>
</g>
<!-- X043aa&#45;&gt;X4e4b1 -->
<g id="edge1" class="edge"><title>X043aa&#45;&gt;X4e4b1</title>
<path fill="none" stroke="black" d="M996.03,-217.465C1009.01,-207.902 1025.84,-195.498 1040.17,-184.943"/>
<polygon fill="black" stroke="black" points="1042.29,-187.727 1048.26,-178.977 1038.14,-182.091 1042.29,-187.727"/>
</g>
<!-- Xadf16 -->
<g id="node3" class="node"><title>Xadf16</title>
<g id="a_node3"><a xlink:href="http://sparql.cwrc.ca/ontologies/cwrc#christianity" xlink:title="Christianisme" target="_parent">
<ellipse fill="none" stroke="black" cx="854.946" cy="-90" rx="59.5901" ry="18"/>
<text text-anchor="middle" x="854.946" y="-86.3" font-family="Times,serif" font-size="14.00">Christianisme</text>
</a>
</g>
</g>
<!-- X4e4b1&#45;&gt;Xadf16 -->
<g id="edge2" class="edge"><title>X4e4b1&#45;&gt;Xadf16</title>
<path fill="none" stroke="black" d="M1030.26,-148.079C994.62,-136.475 942.168,-119.398 903.926,-106.947"/>
<polygon fill="black" stroke="black" points="904.629,-103.495 894.037,-103.727 902.462,-110.151 904.629,-103.495"/>
</g>
<!-- Xb2336 -->
<g id="node11" class="node"><title>Xb2336</title>
<g id="a_node11"><a xlink:href="http://sparql.cwrc.ca/ontologies/cwrc#abrahamicReligions" xlink:title="Religions abrahamiques" target="_parent">
<ellipse fill="none" stroke="black" cx="1022.95" cy="-18" rx="96.3833" ry="18"/>
<text text-anchor="middle" x="1022.95" y="-14.3" font-family="Times,serif" font-size="14.00">Religions abrahamiques</text>
</a>
</g>
</g>
<!-- Xadf16&#45;&gt;Xb2336 -->
<g id="edge8" class="edge"><title>Xadf16&#45;&gt;Xb2336</title>
<path fill="none" stroke="black" d="M888.54,-75.0027C913.551,-64.5812 948.024,-50.2174 975.796,-38.6462"/>
<polygon fill="black" stroke="black" points="977.428,-41.7577 985.313,-34.6808 974.736,-35.2962 977.428,-41.7577"/>
</g>
<!-- Xe1e3e -->
<g id="node4" class="node"><title>Xe1e3e</title>
<g id="a_node4"><a xlink:href="http://sparql.cwrc.ca/ontologies/cwrc#methodism" xlink:title="Église méthodiste" target="_parent">
<ellipse fill="none" stroke="black" cx="1152.95" cy="-306" rx="74.187" ry="18"/>
<text text-anchor="middle" x="1152.95" y="-302.3" font-family="Times,serif" font-size="14.00">Église méthodiste</text>
</a>
</g>
</g>
<!-- Xe1e3e&#45;&gt;X4e4b1 -->
<g id="edge3" class="edge"><title>Xe1e3e&#45;&gt;X4e4b1</title>
<path fill="none" stroke="black" d="M1136.54,-288.356C1127.32,-278.392 1116.07,-265.142 1107.95,-252 1095.72,-232.226 1085.61,-207.826 1078.9,-189.578"/>
<polygon fill="black" stroke="black" points="1082.19,-188.381 1075.53,-180.141 1075.6,-190.736 1082.19,-188.381"/>
</g>
<!-- X3b80a -->
<g id="node5" class="node"><title>X3b80a</title>
<g id="a_node5"><a xlink:href="http://sparql.cwrc.ca/ontologies/cwrc#buddhism" xlink:title="Bouddhisme" target="_parent">
<ellipse fill="none" stroke="black" cx="1579.95" cy="-522" rx="55.7903" ry="18"/>
<text text-anchor="middle" x="1579.95" y="-518.3" font-family="Times,serif" font-size="14.00">Bouddhisme</text>
</a>
</g>
</g>
<!-- X52798 -->
<g id="node6" class="node"><title>X52798</title>
<g id="a_node6"><a xlink:href="http://sparql.cwrc.ca/ontologies/cwrc#pantheism" xlink:title="Panthéisme" target="_parent">
<ellipse fill="none" stroke="black" cx="1579.95" cy="-450" rx="51.9908" ry="18"/>
<text text-anchor="middle" x="1579.95" y="-446.3" font-family="Times,serif" font-size="14.00">Panthéisme</text>
</a>
</g>
</g>
<!-- X3b80a&#45;&gt;X52798 -->
<!-- X7152e -->
<g id="node8" class="node"><title>X7152e</title>
<g id="a_node8"><a xlink:href="http://sparql.cwrc.ca/ontologies/cwrc#atheism" xlink:title="athéisme" target="_parent">
<ellipse fill="none" stroke="black" cx="1579.95" cy="-378" rx="42.4939" ry="18"/>
<text text-anchor="middle" x="1579.95" y="-374.3" font-family="Times,serif" font-size="14.00">athéisme</text>
</a>
</g>
</g>
<!-- X52798&#45;&gt;X7152e -->
<!-- Xb45be -->
<g id="node7" class="node"><title>Xb45be</title>
<g id="a_node7"><a xlink:href="http://sparql.cwrc.ca/ontologies/cwrc#millenarianism" xlink:title="millénarisme, ou chiliasme" target="_parent">
<ellipse fill="none" stroke="black" cx="350.946" cy="-234" rx="107.781" ry="18"/>
<text text-anchor="middle" x="350.946" y="-230.3" font-family="Times,serif" font-size="14.00">millénarisme, ou chiliasme</text>
</a>
</g>
</g>
<!-- X36b94 -->
<g id="node9" class="node"><title>X36b94</title>
<g id="a_node9"><a xlink:href="http://sparql.cwrc.ca/ontologies/cwrc#agnosticism" xlink:title="agnosticisme" target="_parent">
<ellipse fill="none" stroke="black" cx="1579.95" cy="-306" rx="57.3905" ry="18"/>
<text text-anchor="middle" x="1579.95" y="-302.3" font-family="Times,serif" font-size="14.00">agnosticisme</text>
</a>
</g>
</g>
<!-- X7152e&#45;&gt;X36b94 -->
<!-- X43c0c -->
<g id="node15" class="node"><title>X43c0c</title>
<g id="a_node15"><a xlink:href="http://sparql.cwrc.ca/ontologies/cwrc#occultism" xlink:title="occultisme" target="_parent">
<ellipse fill="none" stroke="black" cx="1579.95" cy="-234" rx="49.2915" ry="18"/>
<text text-anchor="middle" x="1579.95" y="-230.3" font-family="Times,serif" font-size="14.00">occultisme</text>
</a>
</g>
</g>
<!-- X36b94&#45;&gt;X43c0c -->
<!-- X32f53 -->
<g id="node10" class="node"><title>X32f53</title>
<g id="a_node10"><a xlink:href="http://sparql.cwrc.ca/ontologies/cwrc#catholicism" xlink:title="Catholicisme" target="_parent">
<ellipse fill="none" stroke="black" cx="127.946" cy="-162" rx="57.6901" ry="18"/>
<text text-anchor="middle" x="127.946" y="-158.3" font-family="Times,serif" font-size="14.00">Catholicisme</text>
</a>
</g>
</g>
<!-- X32f53&#45;&gt;Xadf16 -->
<g id="edge7" class="edge"><title>X32f53&#45;&gt;Xadf16</title>
<path fill="none" stroke="black" d="M182.292,-155.767C313.263,-143.157 646.016,-111.117 788.524,-97.3956"/>
<polygon fill="black" stroke="black" points="789.24,-100.843 798.859,-96.4005 788.569,-93.8751 789.24,-100.843"/>
</g>
<!-- Xd2614 -->
<g id="node12" class="node"><title>Xd2614</title>
<g id="a_node12"><a xlink:href="http://sparql.cwrc.ca/ontologies/cwrc#fifthMonarchists" xlink:title="Cinquièmes Monarchistes" target="_parent">
<ellipse fill="none" stroke="black" cx="571.946" cy="-306" rx="103.182" ry="18"/>
<text text-anchor="middle" x="571.946" y="-302.3" font-family="Times,serif" font-size="14.00">Cinquièmes Monarchistes</text>
</a>
</g>
</g>
<!-- Xd2614&#45;&gt;Xb45be -->
<g id="edge9" class="edge"><title>Xd2614&#45;&gt;Xb45be</title>
<path fill="none" stroke="black" d="M524.536,-289.983C490.685,-279.261 444.953,-264.776 408.927,-253.365"/>
<polygon fill="black" stroke="black" points="409.631,-249.916 399.041,-250.233 407.517,-256.59 409.631,-249.916"/>
</g>
<!-- X156db -->
<g id="node13" class="node"><title>X156db</title>
<g id="a_node13"><a xlink:href="http://sparql.cwrc.ca/ontologies/cwrc#dissentProtestant" xlink:title="dissidents (ou non&#45;conformistes)" target="_parent">
<ellipse fill="none" stroke="black" cx="743.946" cy="-234" rx="126.978" ry="18"/>
<text text-anchor="middle" x="743.946" y="-230.3" font-family="Times,serif" font-size="14.00">dissidents (ou non&#45;conformistes)</text>
</a>
</g>
</g>
<!-- Xd2614&#45;&gt;X156db -->
<g id="edge10" class="edge"><title>Xd2614&#45;&gt;X156db</title>
<path fill="none" stroke="black" d="M610.547,-289.291C635.422,-279.167 667.993,-265.911 694.723,-255.033"/>
<polygon fill="black" stroke="black" points="696.339,-258.154 704.282,-251.142 693.7,-251.67 696.339,-258.154"/>
</g>
<!-- Xf6f10 -->
<g id="node14" class="node"><title>Xf6f10</title>
<g id="a_node14"><a xlink:href="http://sparql.cwrc.ca/ontologies/cwrc#anglicanism" xlink:title="Église d&#39;Angleterre" target="_parent">
<ellipse fill="none" stroke="black" cx="640.946" cy="-162" rx="78.7863" ry="18"/>
<text text-anchor="middle" x="640.946" y="-158.3" font-family="Times,serif" font-size="14.00">Église d&#39;Angleterre</text>
</a>
</g>
</g>
<!-- X156db&#45;&gt;Xf6f10 -->
<g id="edge11" class="edge"><title>X156db&#45;&gt;Xf6f10</title>
<path fill="none" stroke="black" d="M719.275,-216.233C705.544,-206.901 688.283,-195.17 673.461,-185.097"/>
<polygon fill="black" stroke="black" points="675.299,-182.115 665.061,-179.388 671.364,-187.904 675.299,-182.115"/>
</g>
<!-- Xf6f10&#45;&gt;Xadf16 -->
<g id="edge15" class="edge"><title>Xf6f10&#45;&gt;Xadf16</title>
<path fill="none" stroke="black" d="M683.995,-146.919C719.4,-135.338 769.561,-118.93 806.392,-106.882"/>
<polygon fill="black" stroke="black" points="807.511,-110.199 815.927,-103.763 805.334,-103.546 807.511,-110.199"/>
</g>
<!-- Xd35c6 -->
<g id="node17" class="node"><title>Xd35c6</title>
<g id="a_node17"><a xlink:href="http://sparql.cwrc.ca/ontologies/cwrc#spiritualism" xlink:title="Spritisme" target="_parent">
<ellipse fill="none" stroke="black" cx="1579.95" cy="-162" rx="44.6926" ry="18"/>
<text text-anchor="middle" x="1579.95" y="-158.3" font-family="Times,serif" font-size="14.00">Spritisme</text>
</a>
</g>
</g>
<!-- X43c0c&#45;&gt;Xd35c6 -->
<!-- X8fa8b -->
<g id="node16" class="node"><title>X8fa8b</title>
<g id="a_node16"><a xlink:href="http://sparql.cwrc.ca/ontologies/cwrc#plymouthBrethren" xlink:title="Frères de Schwarzenau" target="_parent">
<ellipse fill="none" stroke="black" cx="1209.95" cy="-234" rx="92.8835" ry="18"/>
<text text-anchor="middle" x="1209.95" y="-230.3" font-family="Times,serif" font-size="14.00">Frères de Schwarzenau</text>
</a>
</g>
</g>
<!-- X8fa8b&#45;&gt;X4e4b1 -->
<g id="edge13" class="edge"><title>X8fa8b&#45;&gt;X4e4b1</title>
<path fill="none" stroke="black" d="M1173.16,-217.465C1151.75,-207.36 1125.04,-194.081 1104.1,-183.165"/>
<polygon fill="black" stroke="black" points="1105.69,-180.051 1095.22,-178.492 1102.44,-186.246 1105.69,-180.051"/>
</g>
<!-- X8fa8b&#45;&gt;X4e4b1 -->
<g id="edge14" class="edge"><title>X8fa8b&#45;&gt;X4e4b1</title>
<path fill="none" stroke="black" d="M1182.94,-216.588C1163.08,-206.075 1135.82,-192.41 1113,-181.511"/>
<polygon fill="black" stroke="black" points="1114.39,-178.295 1103.85,-177.179 1111.39,-184.622 1114.39,-178.295"/>
</g>
<!-- X37200 -->
<g id="node18" class="node"><title>X37200</title>
<g id="a_node18"><a xlink:href="http://sparql.cwrc.ca/ontologies/cwrc#paganism" xlink:title="Paganisme" target="_parent">
<ellipse fill="none" stroke="black" cx="1579.95" cy="-90" rx="49.2915" ry="18"/>
<text text-anchor="middle" x="1579.95" y="-86.3" font-family="Times,serif" font-size="14.00">Paganisme</text>
</a>
</g>
</g>
<!-- Xd35c6&#45;&gt;X37200 -->
<!-- Xc7ed9 -->
<g id="node22" class="node"><title>Xc7ed9</title>
<g id="a_node22"><a xlink:href="http://sparql.cwrc.ca/ontologies/cwrc#hinduism" xlink:title="Hindou" target="_parent">
<ellipse fill="none" stroke="black" cx="1579.95" cy="-18" rx="37.0935" ry="18"/>
<text text-anchor="middle" x="1579.95" y="-14.3" font-family="Times,serif" font-size="14.00">Hindou</text>
</a>
</g>
</g>
<!-- X37200&#45;&gt;Xc7ed9 -->
<!-- Xb800b -->
<g id="node19" class="node"><title>Xb800b</title>
<g id="a_node19"><a xlink:href="http://sparql.cwrc.ca/ontologies/cwrc#tractarianMovement" xlink:title="tractarianisme" target="_parent">
<ellipse fill="none" stroke="black" cx="537.946" cy="-234" rx="61.1893" ry="18"/>
<text text-anchor="middle" x="537.946" y="-230.3" font-family="Times,serif" font-size="14.00">tractarianisme</text>
</a>
</g>
</g>
<!-- Xb800b&#45;&gt;Xf6f10 -->
<g id="edge18" class="edge"><title>Xb800b&#45;&gt;Xf6f10</title>
<path fill="none" stroke="black" d="M561.062,-217.291C574.944,-207.856 592.829,-195.701 608.155,-185.285"/>
<polygon fill="black" stroke="black" points="610.531,-187.903 616.834,-179.387 606.596,-182.113 610.531,-187.903"/>
</g>
<!-- Xc1422 -->
<g id="node20" class="node"><title>Xc1422</title>
<g id="a_node20"><a xlink:href="http://sparql.cwrc.ca/ontologies/cwrc#islam" xlink:title="Religion Mahométane" target="_parent">
<ellipse fill="none" stroke="black" cx="1022.95" cy="-90" rx="90.1842" ry="18"/>
<text text-anchor="middle" x="1022.95" y="-86.3" font-family="Times,serif" font-size="14.00">Religion Mahométane</text>
</a>
</g>
</g>
<!-- Xc1422&#45;&gt;Xb2336 -->
<g id="edge19" class="edge"><title>Xc1422&#45;&gt;Xb2336</title>
<path fill="none" stroke="black" d="M1011.19,-72.055C1009.55,-64.3456 1009.07,-55.0269 1009.74,-46.3642"/>
<polygon fill="black" stroke="black" points="1013.23,-46.6584 1011.12,-36.2753 1006.29,-45.7065 1013.23,-46.6584"/>
</g>
<!-- Xc1422&#45;&gt;Xb2336 -->
<g id="edge20" class="edge"><title>Xc1422&#45;&gt;Xb2336</title>
<path fill="none" stroke="black" d="M1022.95,-71.6966C1022.95,-63.9827 1022.95,-54.7125 1022.95,-46.1124"/>
<polygon fill="black" stroke="black" points="1026.45,-46.1043 1022.95,-36.1043 1019.45,-46.1044 1026.45,-46.1043"/>
</g>
<!-- Xc1422&#45;&gt;Xb2336 -->
<g id="edge21" class="edge"><title>Xc1422&#45;&gt;Xb2336</title>
<path fill="none" stroke="black" d="M1034.7,-72.055C1036.34,-64.3456 1036.82,-55.0269 1036.16,-46.3642"/>
<polygon fill="black" stroke="black" points="1039.6,-45.7065 1034.77,-36.2753 1032.66,-46.6584 1039.6,-45.7065"/>
</g>
<!-- X253de -->
<g id="node21" class="node"><title>X253de</title>
<g id="a_node21"><a xlink:href="http://sparql.cwrc.ca/ontologies/cwrc#quakerism" xlink:title="quaker" target="_parent">
<ellipse fill="none" stroke="black" cx="820.946" cy="-306" rx="34.394" ry="18"/>
<text text-anchor="middle" x="820.946" y="-302.3" font-family="Times,serif" font-size="14.00">quaker</text>
</a>
</g>
</g>
<!-- X253de&#45;&gt;X4e4b1 -->
<g id="edge22" class="edge"><title>X253de&#45;&gt;X4e4b1</title>
<path fill="none" stroke="black" d="M837.838,-290.04C849.694,-279.487 865.879,-264.977 879.946,-252 897.046,-236.225 898.076,-228.099 917.946,-216 947.22,-198.175 983.329,-185.265 1013.01,-176.652"/>
<polygon fill="black" stroke="black" points="1014.13,-179.973 1022.8,-173.895 1012.23,-173.235 1014.13,-179.973"/>
</g>
<!-- X253de&#45;&gt;X156db -->
<g id="edge23" class="edge"><title>X253de&#45;&gt;X156db</title>
<path fill="none" stroke="black" d="M804.239,-289.811C794.248,-280.729 781.338,-268.992 770.029,-258.711"/>
<polygon fill="black" stroke="black" points="772.265,-256.014 762.511,-251.877 767.556,-261.193 772.265,-256.014"/>
</g>
<!-- Xd53bc -->
<g id="node23" class="node"><title>Xd53bc</title>
<g id="a_node23"><a xlink:href="http://sparql.cwrc.ca/ontologies/cwrc#baptistChristianity" xlink:title="Baptisme" target="_parent">
<ellipse fill="none" stroke="black" cx="1330.95" cy="-378" rx="44.393" ry="18"/>
<text text-anchor="middle" x="1330.95" y="-374.3" font-family="Times,serif" font-size="14.00">Baptisme</text>
</a>
</g>
</g>
<!-- Xd53bc&#45;&gt;X4e4b1 -->
<g id="edge25" class="edge"><title>Xd53bc&#45;&gt;X4e4b1</title>
<path fill="none" stroke="black" d="M1334.71,-359.837C1340.77,-327.256 1348.57,-256.122 1311.95,-216 1259.88,-158.956 1217.31,-196.875 1141.95,-180 1136.91,-178.871 1131.67,-177.678 1126.43,-176.467"/>
<polygon fill="black" stroke="black" points="1126.92,-172.988 1116.39,-174.132 1125.33,-179.806 1126.92,-172.988"/>
</g>
<!-- X2a5d0 -->
<g id="node24" class="node"><title>X2a5d0</title>
<g id="a_node24"><a xlink:href="http://sparql.cwrc.ca/ontologies/cwrc#churchOfIreland" xlink:title="Église d&#39;Irlande" target="_parent">
<ellipse fill="none" stroke="black" cx="214.946" cy="-306" rx="65.7887" ry="18"/>
<text text-anchor="middle" x="214.946" y="-302.3" font-family="Times,serif" font-size="14.00">Église d&#39;Irlande</text>
</a>
</g>
</g>
<!-- X2a5d0&#45;&gt;Xf6f10 -->
<g id="edge26" class="edge"><title>X2a5d0&#45;&gt;Xf6f10</title>
<path fill="none" stroke="black" d="M213.254,-287.781C212.302,-267.482 214.202,-234.209 233.946,-216 278.918,-174.524 446.67,-164.843 552.261,-162.964"/>
<polygon fill="black" stroke="black" points="552.335,-166.464 562.279,-162.806 552.225,-159.465 552.335,-166.464"/>
</g>
<!-- Xe7b0a -->
<g id="node25" class="node"><title>Xe7b0a</title>
<g id="a_node25"><a xlink:href="http://sparql.cwrc.ca/ontologies/cwrc#neo-thomism" xlink:title="néothomisme" target="_parent">
<ellipse fill="none" stroke="black" cx="127.946" cy="-234" rx="59.2899" ry="18"/>
<text text-anchor="middle" x="127.946" y="-230.3" font-family="Times,serif" font-size="14.00">néothomisme</text>
</a>
</g>
</g>
<!-- Xe7b0a&#45;&gt;X32f53 -->
<g id="edge27" class="edge"><title>Xe7b0a&#45;&gt;X32f53</title>
<path fill="none" stroke="black" d="M127.946,-215.697C127.946,-207.983 127.946,-198.712 127.946,-190.112"/>
<polygon fill="black" stroke="black" points="131.446,-190.104 127.946,-180.104 124.446,-190.104 131.446,-190.104"/>
</g>
<!-- X7477d -->
<g id="node26" class="node"><title>X7477d</title>
<g id="a_node26"><a xlink:href="http://sparql.cwrc.ca/ontologies/cwrc#congregationalism" xlink:title="Églises congrégationalistes" target="_parent">
<ellipse fill="none" stroke="black" cx="1402.95" cy="-450" rx="106.681" ry="18"/>
<text text-anchor="middle" x="1402.95" y="-446.3" font-family="Times,serif" font-size="14.00">Églises congrégationalistes</text>
</a>
</g>
</g>
<!-- X7477d&#45;&gt;X4e4b1 -->
<g id="edge28" class="edge"><title>X7477d&#45;&gt;X4e4b1</title>
<path fill="none" stroke="black" d="M1403.78,-431.688C1404.84,-387.984 1401.03,-272.653 1335.95,-216 1269.8,-158.423 1227.76,-198.081 1141.95,-180 1136.68,-178.891 1131.22,-177.69 1125.75,-176.457"/>
<polygon fill="black" stroke="black" points="1126.49,-173.036 1115.96,-174.215 1124.93,-179.859 1126.49,-173.036"/>
</g>
<!-- Xd32ac -->
<g id="node27" class="node"><title>Xd32ac</title>
<g id="a_node27"><a xlink:href="http://sparql.cwrc.ca/ontologies/cwrc#judaism" xlink:title="Judaïsme" target="_parent">
<ellipse fill="none" stroke="black" cx="1175.95" cy="-90" rx="44.393" ry="18"/>
<text text-anchor="middle" x="1175.95" y="-86.3" font-family="Times,serif" font-size="14.00">Judaïsme</text>
</a>
</g>
</g>
<!-- Xd32ac&#45;&gt;Xb2336 -->
<g id="edge29" class="edge"><title>Xd32ac&#45;&gt;Xb2336</title>
<path fill="none" stroke="black" d="M1147.53,-75.9976C1124.9,-65.6448 1092.83,-50.9738 1066.9,-39.109"/>
<polygon fill="black" stroke="black" points="1068.2,-35.8557 1057.65,-34.8779 1065.29,-42.2211 1068.2,-35.8557"/>
</g>
<!-- X1cc79 -->
<g id="node28" class="node"><title>X1cc79</title>
<g id="a_node28"><a xlink:href="http://sparql.cwrc.ca/ontologies/cwrc#lollardy" xlink:title="Lollardy" target="_parent">
<ellipse fill="none" stroke="black" cx="40.9464" cy="-306" rx="40.8928" ry="18"/>
<text text-anchor="middle" x="40.9464" y="-302.3" font-family="Times,serif" font-size="14.00">Lollardy</text>
</a>
</g>
</g>
<!-- X1cc79&#45;&gt;X32f53 -->
<g id="edge30" class="edge"><title>X1cc79&#45;&gt;X32f53</title>
<path fill="none" stroke="black" d="M41.1784,-287.976C42.1691,-269.051 46.0252,-238.228 59.9464,-216 67.9377,-203.24 80.1471,-192.325 92.0263,-183.775"/>
<polygon fill="black" stroke="black" points="94.2532,-186.494 100.553,-177.975 90.3159,-180.706 94.2532,-186.494"/>
</g>
<!-- X9deb8 -->
<g id="node29" class="node"><title>X9deb8</title>
<g id="a_node29"><a xlink:href="http://sparql.cwrc.ca/ontologies/cwrc#dissentingChristianity" xlink:title="Dissidence anglaise" target="_parent">
<ellipse fill="none" stroke="black" cx="1050.95" cy="-522" rx="80.6858" ry="18"/>
<text text-anchor="middle" x="1050.95" y="-518.3" font-family="Times,serif" font-size="14.00">Dissidence anglaise</text>
</a>
</g>
</g>
<!-- X9deb8&#45;&gt;X4e4b1 -->
<g id="edge31" class="edge"><title>X9deb8&#45;&gt;X4e4b1</title>
<path fill="none" stroke="black" d="M1050.95,-503.951C1050.95,-477.292 1050.95,-424.115 1050.95,-379 1050.95,-379 1050.95,-379 1050.95,-305 1050.95,-264.86 1058.5,-218.897 1064.08,-190.405"/>
<polygon fill="black" stroke="black" points="1067.55,-190.883 1066.1,-180.388 1060.69,-189.498 1067.55,-190.883"/>
</g>
<!-- X6f203 -->
<g id="node30" class="node"><title>X6f203</title>
<g id="a_node30"><a xlink:href="http://sparql.cwrc.ca/ontologies/cwrc#christianScience" xlink:title="Science Chrétienne" target="_parent">
<ellipse fill="none" stroke="black" cx="1229.95" cy="-162" rx="79.0865" ry="18"/>
<text text-anchor="middle" x="1229.95" y="-158.3" font-family="Times,serif" font-size="14.00">Science Chrétienne</text>
</a>
</g>
</g>
<!-- X6f203&#45;&gt;Xadf16 -->
<g id="edge32" class="edge"><title>X6f203&#45;&gt;Xadf16</title>
<path fill="none" stroke="black" d="M1171.58,-149.64C1161.38,-147.715 1150.86,-145.768 1140.95,-144 1044.7,-126.828 1019.7,-127.708 923.946,-108 918.939,-106.969 913.745,-105.827 908.556,-104.636"/>
<polygon fill="black" stroke="black" points="909.168,-101.185 898.633,-102.303 907.566,-107.999 909.168,-101.185"/>
</g>
</g>
</svg>
