<?xml version="1.0" encoding="UTF-8" standalone="no"?>
<!DOCTYPE svg PUBLIC "-//W3C//DTD SVG 1.1//EN"
 "http://www.w3.org/Graphics/SVG/1.1/DTD/svg11.dtd">
<!-- Generated by graphviz version 2.38.0 (20140413.2041)
 -->
<!-- Title: ReligionGraph Pages: 1 -->
<svg width="1735pt" height="548pt"
 viewBox="0.00 0.00 1735.29 548.00" xmlns="http://www.w3.org/2000/svg" xmlns:xlink="http://www.w3.org/1999/xlink">
<g id="graph0" class="graph" transform="scale(1 1) rotate(0) translate(4 544)">
<title>ReligionGraph</title>
<polygon fill="white" stroke="none" points="-4,4 -4,-544 1731.29,-544 1731.29,4 -4,4"/>
<!-- Xadf16 -->
<g id="node1" class="node"><title>Xadf16</title>
<g id="a_node1"><a xlink:href="http://sparql.cwrc.ca/ontologies/cwrc#christianity" xlink:title="Christianity" target="_parent">
<ellipse fill="none" stroke="black" cx="957.795" cy="-90" rx="51.9908" ry="18"/>
<text text-anchor="middle" x="957.795" y="-86.3" font-family="Times,serif" font-size="14.00">Christianity</text>
</a>
</g>
</g>
<!-- Xb2336 -->
<g id="node2" class="node"><title>Xb2336</title>
<g id="a_node2"><a xlink:href="http://sparql.cwrc.ca/ontologies/cwrc#abrahamicReligions" xlink:title="Abrahamic religions" target="_parent">
<ellipse fill="none" stroke="black" cx="1113.79" cy="-18" rx="83.3857" ry="18"/>
<text text-anchor="middle" x="1113.79" y="-14.3" font-family="Times,serif" font-size="14.00">Abrahamic religions</text>
</a>
</g>
</g>
<!-- Xadf16&#45;&gt;Xb2336 -->
<g id="edge1" class="edge"><title>Xadf16&#45;&gt;Xb2336</title>
<path fill="none" stroke="black" d="M988.243,-75.3371C1011.54,-64.8835 1043.99,-50.3235 1070.06,-38.6242"/>
<polygon fill="black" stroke="black" points="1071.66,-41.7435 1079.35,-34.4562 1068.79,-35.357 1071.66,-41.7435"/>
</g>
<!-- X043aa -->
<g id="node3" class="node"><title>X043aa</title>
<g id="a_node3"><a xlink:href="http://sparql.cwrc.ca/ontologies/cwrc#unitarianism" xlink:title="Unitarianism" target="_parent">
<ellipse fill="none" stroke="black" cx="1101.79" cy="-234" rx="57.3905" ry="18"/>
<text text-anchor="middle" x="1101.79" y="-230.3" font-family="Times,serif" font-size="14.00">Unitarianism</text>
</a>
</g>
</g>
<!-- X4e4b1 -->
<g id="node4" class="node"><title>X4e4b1</title>
<g id="a_node4"><a xlink:href="http://sparql.cwrc.ca/ontologies/cwrc#protestantism" xlink:title="Protestantism" target="_parent">
<ellipse fill="none" stroke="black" cx="1143.79" cy="-162" rx="59.2899" ry="18"/>
<text text-anchor="middle" x="1143.79" y="-158.3" font-family="Times,serif" font-size="14.00">Protestantism</text>
</a>
</g>
</g>
<!-- X043aa&#45;&gt;X4e4b1 -->
<g id="edge2" class="edge"><title>X043aa&#45;&gt;X4e4b1</title>
<path fill="none" stroke="black" d="M1111.96,-216.055C1116.91,-207.801 1122.97,-197.701 1128.47,-188.538"/>
<polygon fill="black" stroke="black" points="1131.58,-190.165 1133.72,-179.789 1125.58,-186.563 1131.58,-190.165"/>
</g>
<!-- X4e4b1&#45;&gt;Xadf16 -->
<g id="edge3" class="edge"><title>X4e4b1&#45;&gt;Xadf16</title>
<path fill="none" stroke="black" d="M1107.93,-147.503C1077.51,-136.054 1033.77,-119.592 1001.34,-107.388"/>
<polygon fill="black" stroke="black" points="1002.26,-103.994 991.667,-103.748 999.793,-110.546 1002.26,-103.994"/>
</g>
<!-- Xe7b0a -->
<g id="node5" class="node"><title>Xe7b0a</title>
<g id="a_node5"><a xlink:href="http://sparql.cwrc.ca/ontologies/cwrc#neo-thomism" xlink:title="Neo&#45;thomism" target="_parent">
<ellipse fill="none" stroke="black" cx="59.7947" cy="-234" rx="59.5901" ry="18"/>
<text text-anchor="middle" x="59.7947" y="-230.3" font-family="Times,serif" font-size="14.00">Neo&#45;thomism</text>
</a>
</g>
</g>
<!-- X32f53 -->
<g id="node6" class="node"><title>X32f53</title>
<g id="a_node6"><a xlink:href="http://sparql.cwrc.ca/ontologies/cwrc#catholicism" xlink:title="Roman Catholicism" target="_parent">
<ellipse fill="none" stroke="black" cx="147.795" cy="-162" rx="81.7856" ry="18"/>
<text text-anchor="middle" x="147.795" y="-158.3" font-family="Times,serif" font-size="14.00">Roman Catholicism</text>
</a>
</g>
</g>
<!-- Xe7b0a&#45;&gt;X32f53 -->
<g id="edge4" class="edge"><title>Xe7b0a&#45;&gt;X32f53</title>
<path fill="none" stroke="black" d="M80.2049,-216.765C91.7003,-207.621 106.246,-196.05 118.896,-185.988"/>
<polygon fill="black" stroke="black" points="121.237,-188.598 126.884,-179.633 116.879,-183.12 121.237,-188.598"/>
</g>
<!-- X32f53&#45;&gt;Xadf16 -->
<g id="edge5" class="edge"><title>X32f53&#45;&gt;Xadf16</title>
<path fill="none" stroke="black" d="M222.546,-154.54C381.843,-140.774 752.052,-108.78 897.542,-96.2071"/>
<polygon fill="black" stroke="black" points="897.961,-99.684 907.622,-95.3359 897.358,-92.7099 897.961,-99.684"/>
</g>
<!-- Xd32ac -->
<g id="node7" class="node"><title>Xd32ac</title>
<g id="a_node7"><a xlink:href="http://sparql.cwrc.ca/ontologies/cwrc#judaism" xlink:title="Judaism" target="_parent">
<ellipse fill="none" stroke="black" cx="1113.79" cy="-90" rx="40.0939" ry="18"/>
<text text-anchor="middle" x="1113.79" y="-86.3" font-family="Times,serif" font-size="14.00">Judaism</text>
</a>
</g>
</g>
<!-- Xd32ac&#45;&gt;Xb2336 -->
<g id="edge6" class="edge"><title>Xd32ac&#45;&gt;Xb2336</title>
<path fill="none" stroke="black" d="M1113.79,-71.6966C1113.79,-63.9827 1113.79,-54.7125 1113.79,-46.1124"/>
<polygon fill="black" stroke="black" points="1117.29,-46.1043 1113.79,-36.1043 1110.29,-46.1044 1117.29,-46.1043"/>
</g>
<!-- X0e2fa -->
<g id="node8" class="node"><title>X0e2fa</title>
<g id="a_node8"><a xlink:href="http://sparql.cwrc.ca/ontologies/cwrc#presbyterianism" xlink:title="Presbyterianism" target="_parent">
<ellipse fill="none" stroke="black" cx="1224.79" cy="-306" rx="67.6881" ry="18"/>
<text text-anchor="middle" x="1224.79" y="-302.3" font-family="Times,serif" font-size="14.00">Presbyterianism</text>
</a>
</g>
</g>
<!-- X0e2fa&#45;&gt;X4e4b1 -->
<g id="edge7" class="edge"><title>X0e2fa&#45;&gt;X4e4b1</title>
<path fill="none" stroke="black" d="M1223.02,-287.83C1220.46,-269.049 1214.43,-238.613 1200.79,-216 1193.86,-204.495 1183.71,-193.932 1173.9,-185.315"/>
<polygon fill="black" stroke="black" points="1176.08,-182.576 1166.16,-178.841 1171.58,-187.944 1176.08,-182.576"/>
</g>
<!-- Xd35c6 -->
<g id="node9" class="node"><title>Xd35c6</title>
<g id="a_node9"><a xlink:href="http://sparql.cwrc.ca/ontologies/cwrc#spiritualism" xlink:title="Spiritualism" target="_parent">
<ellipse fill="none" stroke="black" cx="1629.79" cy="-522" rx="53.8905" ry="18"/>
<text text-anchor="middle" x="1629.79" y="-518.3" font-family="Times,serif" font-size="14.00">Spiritualism</text>
</a>
</g>
</g>
<!-- X3b80a -->
<g id="node10" class="node"><title>X3b80a</title>
<g id="a_node10"><a xlink:href="http://sparql.cwrc.ca/ontologies/cwrc#buddhism" xlink:title="Buddhism" target="_parent">
<ellipse fill="none" stroke="black" cx="1629.79" cy="-450" rx="47.3916" ry="18"/>
<text text-anchor="middle" x="1629.79" y="-446.3" font-family="Times,serif" font-size="14.00">Buddhism</text>
</a>
</g>
</g>
<!-- Xd35c6&#45;&gt;X3b80a -->
<!-- X37200 -->
<g id="node11" class="node"><title>X37200</title>
<g id="a_node11"><a xlink:href="http://sparql.cwrc.ca/ontologies/cwrc#paganism" xlink:title="Paganism" target="_parent">
<ellipse fill="none" stroke="black" cx="1629.79" cy="-378" rx="45.4919" ry="18"/>
<text text-anchor="middle" x="1629.79" y="-374.3" font-family="Times,serif" font-size="14.00">Paganism</text>
</a>
</g>
</g>
<!-- X3b80a&#45;&gt;X37200 -->
<!-- X36b94 -->
<g id="node14" class="node"><title>X36b94</title>
<g id="a_node14"><a xlink:href="http://sparql.cwrc.ca/ontologies/cwrc#agnosticism" xlink:title="Agnosticism" target="_parent">
<ellipse fill="none" stroke="black" cx="1629.79" cy="-306" rx="55.7903" ry="18"/>
<text text-anchor="middle" x="1629.79" y="-302.3" font-family="Times,serif" font-size="14.00">Agnosticism</text>
</a>
</g>
</g>
<!-- X37200&#45;&gt;X36b94 -->
<!-- X9deb8 -->
<g id="node12" class="node"><title>X9deb8</title>
<g id="a_node12"><a xlink:href="http://sparql.cwrc.ca/ontologies/cwrc#dissentingChristianity" xlink:title="Dissenting Christianity" target="_parent">
<ellipse fill="none" stroke="black" cx="1279.79" cy="-378" rx="92.0841" ry="18"/>
<text text-anchor="middle" x="1279.79" y="-374.3" font-family="Times,serif" font-size="14.00">Dissenting Christianity</text>
</a>
</g>
</g>
<!-- X9deb8&#45;&gt;X4e4b1 -->
<g id="edge10" class="edge"><title>X9deb8&#45;&gt;X4e4b1</title>
<path fill="none" stroke="black" d="M1290.36,-360.03C1300.35,-341.688 1312.34,-311.878 1301.79,-288 1279.43,-237.348 1224.3,-201.54 1185.49,-181.588"/>
<polygon fill="black" stroke="black" points="1187,-178.432 1176.49,-177.095 1183.87,-184.695 1187,-178.432"/>
</g>
<!-- X7477d -->
<g id="node13" class="node"><title>X7477d</title>
<g id="a_node13"><a xlink:href="http://sparql.cwrc.ca/ontologies/cwrc#congregationalism" xlink:title="Congregationalism" target="_parent">
<ellipse fill="none" stroke="black" cx="1399.79" cy="-450" rx="77.9862" ry="18"/>
<text text-anchor="middle" x="1399.79" y="-446.3" font-family="Times,serif" font-size="14.00">Congregationalism</text>
</a>
</g>
</g>
<!-- X7477d&#45;&gt;X4e4b1 -->
<g id="edge11" class="edge"><title>X7477d&#45;&gt;X4e4b1</title>
<path fill="none" stroke="black" d="M1398.33,-431.926C1396.27,-413.495 1391.47,-383.61 1380.79,-360 1347.94,-287.349 1336.81,-264.851 1273.79,-216 1251.26,-198.533 1222.18,-185.963 1197.24,-177.461"/>
<polygon fill="black" stroke="black" points="1198.14,-174.074 1187.55,-174.289 1195.96,-180.727 1198.14,-174.074"/>
</g>
<!-- Xc7ed9 -->
<g id="node15" class="node"><title>Xc7ed9</title>
<g id="a_node15"><a xlink:href="http://sparql.cwrc.ca/ontologies/cwrc#hinduism" xlink:title="Hinduism" target="_parent">
<ellipse fill="none" stroke="black" cx="1629.79" cy="-234" rx="46.2923" ry="18"/>
<text text-anchor="middle" x="1629.79" y="-230.3" font-family="Times,serif" font-size="14.00">Hinduism</text>
</a>
</g>
</g>
<!-- X36b94&#45;&gt;Xc7ed9 -->
<!-- X43c0c -->
<g id="node26" class="node"><title>X43c0c</title>
<g id="a_node26"><a xlink:href="http://sparql.cwrc.ca/ontologies/cwrc#occultism" xlink:title="Occultism/Theosophism" target="_parent">
<ellipse fill="none" stroke="black" cx="1629.79" cy="-162" rx="97.4827" ry="18"/>
<text text-anchor="middle" x="1629.79" y="-158.3" font-family="Times,serif" font-size="14.00">Occultism/Theosophism</text>
</a>
</g>
</g>
<!-- Xc7ed9&#45;&gt;X43c0c -->
<!-- X1cc79 -->
<g id="node16" class="node"><title>X1cc79</title>
<g id="a_node16"><a xlink:href="http://sparql.cwrc.ca/ontologies/cwrc#lollardy" xlink:title="Lollardy" target="_parent">
<ellipse fill="none" stroke="black" cx="147.795" cy="-306" rx="40.8928" ry="18"/>
<text text-anchor="middle" x="147.795" y="-302.3" font-family="Times,serif" font-size="14.00">Lollardy</text>
</a>
</g>
</g>
<!-- X1cc79&#45;&gt;X32f53 -->
<g id="edge14" class="edge"><title>X1cc79&#45;&gt;X32f53</title>
<path fill="none" stroke="black" d="M147.795,-287.871C147.795,-263.67 147.795,-219.211 147.795,-190.393"/>
<polygon fill="black" stroke="black" points="151.295,-190.189 147.795,-180.189 144.295,-190.189 151.295,-190.189"/>
</g>
<!-- Xe1e3e -->
<g id="node17" class="node"><title>Xe1e3e</title>
<g id="a_node17"><a xlink:href="http://sparql.cwrc.ca/ontologies/cwrc#methodism" xlink:title="Methodism" target="_parent">
<ellipse fill="none" stroke="black" cx="1505.79" cy="-522" rx="51.9908" ry="18"/>
<text text-anchor="middle" x="1505.79" y="-518.3" font-family="Times,serif" font-size="14.00">Methodism</text>
</a>
</g>
</g>
<!-- Xe1e3e&#45;&gt;X4e4b1 -->
<g id="edge15" class="edge"><title>Xe1e3e&#45;&gt;X4e4b1</title>
<path fill="none" stroke="black" d="M1505.79,-503.951C1505.79,-477.292 1505.79,-424.115 1505.79,-379 1505.79,-379 1505.79,-379 1505.79,-305 1505.79,-272.047 1295.22,-206.759 1195.28,-177.628"/>
<polygon fill="black" stroke="black" points="1196.25,-174.267 1185.67,-174.841 1194.3,-180.989 1196.25,-174.267"/>
</g>
<!-- X253de -->
<g id="node18" class="node"><title>X253de</title>
<g id="a_node18"><a xlink:href="http://sparql.cwrc.ca/ontologies/cwrc#quakerism" xlink:title="Quakerism" target="_parent">
<ellipse fill="none" stroke="black" cx="785.795" cy="-306" rx="50.0912" ry="18"/>
<text text-anchor="middle" x="785.795" y="-302.3" font-family="Times,serif" font-size="14.00">Quakerism</text>
</a>
</g>
</g>
<!-- X253de&#45;&gt;X4e4b1 -->
<g id="edge16" class="edge"><title>X253de&#45;&gt;X4e4b1</title>
<path fill="none" stroke="black" d="M797.642,-288.159C814.285,-264.99 844.285,-225.105 859.795,-216 869.413,-210.354 1002.8,-186.962 1083.3,-173.214"/>
<polygon fill="black" stroke="black" points="1084.05,-176.636 1093.32,-171.505 1082.88,-169.735 1084.05,-176.636"/>
</g>
<!-- X156db -->
<g id="node19" class="node"><title>X156db</title>
<g id="a_node19"><a xlink:href="http://sparql.cwrc.ca/ontologies/cwrc#dissentProtestant" xlink:title="Dissent (Protestant)" target="_parent">
<ellipse fill="none" stroke="black" cx="731.795" cy="-234" rx="80.6858" ry="18"/>
<text text-anchor="middle" x="731.795" y="-230.3" font-family="Times,serif" font-size="14.00">Dissent (Protestant)</text>
</a>
</g>
</g>
<!-- X253de&#45;&gt;X156db -->
<g id="edge17" class="edge"><title>X253de&#45;&gt;X156db</title>
<path fill="none" stroke="black" d="M772.997,-288.411C766.436,-279.906 758.311,-269.372 751.014,-259.914"/>
<polygon fill="black" stroke="black" points="753.755,-257.736 744.875,-251.956 748.212,-262.012 753.755,-257.736"/>
</g>
<!-- Xf6f10 -->
<g id="node20" class="node"><title>Xf6f10</title>
<g id="a_node20"><a xlink:href="http://sparql.cwrc.ca/ontologies/cwrc#anglicanism" xlink:title="Anglicanism" target="_parent">
<ellipse fill="none" stroke="black" cx="563.795" cy="-162" rx="55.7903" ry="18"/>
<text text-anchor="middle" x="563.795" y="-158.3" font-family="Times,serif" font-size="14.00">Anglicanism</text>
</a>
</g>
</g>
<!-- X156db&#45;&gt;Xf6f10 -->
<g id="edge18" class="edge"><title>X156db&#45;&gt;Xf6f10</title>
<path fill="none" stroke="black" d="M695.341,-217.811C669.012,-206.84 633.39,-191.998 605.855,-180.525"/>
<polygon fill="black" stroke="black" points="607.058,-177.235 596.481,-176.619 604.366,-183.696 607.058,-177.235"/>
</g>
<!-- Xf6f10&#45;&gt;Xadf16 -->
<g id="edge19" class="edge"><title>Xf6f10&#45;&gt;Xadf16</title>
<path fill="none" stroke="black" d="M611.713,-152.487C685.118,-139.445 825.026,-114.588 902.581,-100.81"/>
<polygon fill="black" stroke="black" points="903.405,-104.218 912.638,-99.0227 902.18,-97.326 903.405,-104.218"/>
</g>
<!-- Xd53bc -->
<g id="node21" class="node"><title>Xd53bc</title>
<g id="a_node21"><a xlink:href="http://sparql.cwrc.ca/ontologies/cwrc#baptistChristianity" xlink:title="Baptist Christianity" target="_parent">
<ellipse fill="none" stroke="black" cx="947.795" cy="-234" rx="79.0865" ry="18"/>
<text text-anchor="middle" x="947.795" y="-230.3" font-family="Times,serif" font-size="14.00">Baptist Christianity</text>
</a>
</g>
</g>
<!-- Xd53bc&#45;&gt;X4e4b1 -->
<g id="edge20" class="edge"><title>Xd53bc&#45;&gt;X4e4b1</title>
<path fill="none" stroke="black" d="M988.406,-218.496C1020.14,-207.161 1064.28,-191.397 1097.41,-179.566"/>
<polygon fill="black" stroke="black" points="1098.64,-182.845 1106.88,-176.185 1096.28,-176.252 1098.64,-182.845"/>
</g>
<!-- Xb45be -->
<g id="node22" class="node"><title>Xb45be</title>
<g id="a_node22"><a xlink:href="http://sparql.cwrc.ca/ontologies/cwrc#millenarianism" xlink:title="Millenarianism" target="_parent">
<ellipse fill="none" stroke="black" cx="567.795" cy="-234" rx="65.7887" ry="18"/>
<text text-anchor="middle" x="567.795" y="-230.3" font-family="Times,serif" font-size="14.00">Millenarianism</text>
</a>
</g>
</g>
<!-- Xb800b -->
<g id="node23" class="node"><title>Xb800b</title>
<g id="a_node23"><a xlink:href="http://sparql.cwrc.ca/ontologies/cwrc#tractarianMovement" xlink:title="Tractarian Movement" target="_parent">
<ellipse fill="none" stroke="black" cx="395.795" cy="-234" rx="88.2844" ry="18"/>
<text text-anchor="middle" x="395.795" y="-230.3" font-family="Times,serif" font-size="14.00">Tractarian Movement</text>
</a>
</g>
</g>
<!-- Xb800b&#45;&gt;Xf6f10 -->
<g id="edge21" class="edge"><title>Xb800b&#45;&gt;Xf6f10</title>
<path fill="none" stroke="black" d="M432.663,-217.638C458.929,-206.694 494.286,-191.962 521.667,-180.553"/>
<polygon fill="black" stroke="black" points="523.107,-183.745 530.991,-176.668 520.414,-177.284 523.107,-183.745"/>
</g>
<!-- X8fa8b -->
<g id="node24" class="node"><title>X8fa8b</title>
<g id="a_node24"><a xlink:href="http://sparql.cwrc.ca/ontologies/cwrc#plymouthBrethren" xlink:title="Plymouth Brethren" target="_parent">
<ellipse fill="none" stroke="black" cx="1060.79" cy="-306" rx="78.7863" ry="18"/>
<text text-anchor="middle" x="1060.79" y="-302.3" font-family="Times,serif" font-size="14.00">Plymouth Brethren</text>
</a>
</g>
</g>
<!-- X8fa8b&#45;&gt;X4e4b1 -->
<g id="edge22" class="edge"><title>X8fa8b&#45;&gt;X4e4b1</title>
<path fill="none" stroke="black" d="M1112.37,-292.389C1133.34,-284.45 1155.5,-271.816 1167.79,-252 1179.78,-232.691 1171.08,-207.417 1160.96,-188.738"/>
<polygon fill="black" stroke="black" points="1163.86,-186.77 1155.8,-179.896 1157.82,-190.298 1163.86,-186.77"/>
</g>
<!-- X6f203 -->
<g id="node25" class="node"><title>X6f203</title>
<g id="a_node25"><a xlink:href="http://sparql.cwrc.ca/ontologies/cwrc#christianScience" xlink:title="Christian Science" target="_parent">
<ellipse fill="none" stroke="black" cx="957.795" cy="-162" rx="72.5877" ry="18"/>
<text text-anchor="middle" x="957.795" y="-158.3" font-family="Times,serif" font-size="14.00">Christian Science</text>
</a>
</g>
</g>
<!-- X6f203&#45;&gt;Xadf16 -->
<g id="edge23" class="edge"><title>X6f203&#45;&gt;Xadf16</title>
<path fill="none" stroke="black" d="M957.795,-143.697C957.795,-135.983 957.795,-126.712 957.795,-118.112"/>
<polygon fill="black" stroke="black" points="961.295,-118.104 957.795,-108.104 954.295,-118.104 961.295,-118.104"/>
</g>
<!-- X52798 -->
<g id="node29" class="node"><title>X52798</title>
<g id="a_node29"><a xlink:href="http://sparql.cwrc.ca/ontologies/cwrc#pantheism" xlink:title="Pantheism" target="_parent">
<ellipse fill="none" stroke="black" cx="1629.79" cy="-90" rx="48.1917" ry="18"/>
<text text-anchor="middle" x="1629.79" y="-86.3" font-family="Times,serif" font-size="14.00">Pantheism</text>
</a>
</g>
</g>
<!-- X43c0c&#45;&gt;X52798 -->
<!-- Xc1422 -->
<g id="node27" class="node"><title>Xc1422</title>
<g id="a_node27"><a xlink:href="http://sparql.cwrc.ca/ontologies/cwrc#islam" xlink:title="Islamism" target="_parent">
<ellipse fill="none" stroke="black" cx="1264.79" cy="-162" rx="44.393" ry="18"/>
<text text-anchor="middle" x="1264.79" y="-158.3" font-family="Times,serif" font-size="14.00">Islamism</text>
</a>
</g>
</g>
<!-- Xc1422&#45;&gt;Xb2336 -->
<g id="edge25" class="edge"><title>Xc1422&#45;&gt;Xb2336</title>
<path fill="none" stroke="black" d="M1248.06,-145.261C1221.58,-120.364 1169.88,-71.7431 1138.93,-42.6395"/>
<polygon fill="black" stroke="black" points="1141.22,-39.9881 1131.54,-35.6871 1136.43,-45.0875 1141.22,-39.9881"/>
</g>
<!-- Xd2614 -->
<g id="node28" class="node"><title>Xd2614</title>
<g id="a_node28"><a xlink:href="http://sparql.cwrc.ca/ontologies/cwrc#fifthMonarchists" xlink:title="Fifth Monarchists" target="_parent">
<ellipse fill="none" stroke="black" cx="605.795" cy="-306" rx="74.187" ry="18"/>
<text text-anchor="middle" x="605.795" y="-302.3" font-family="Times,serif" font-size="14.00">Fifth Monarchists</text>
</a>
</g>
</g>
<!-- Xd2614&#45;&gt;X156db -->
<g id="edge26" class="edge"><title>Xd2614&#45;&gt;X156db</title>
<path fill="none" stroke="black" d="M634.072,-289.291C651.86,-279.408 675.021,-266.541 694.329,-255.814"/>
<polygon fill="black" stroke="black" points="696.134,-258.815 703.176,-250.899 692.735,-252.696 696.134,-258.815"/>
</g>
<!-- Xd2614&#45;&gt;Xb45be -->
<g id="edge27" class="edge"><title>Xd2614&#45;&gt;Xb45be</title>
<path fill="none" stroke="black" d="M596.596,-288.055C592.227,-280.007 586.906,-270.205 582.032,-261.226"/>
<polygon fill="black" stroke="black" points="585.02,-259.394 577.173,-252.275 578.868,-262.734 585.02,-259.394"/>
</g>
<!-- X2a5d0 -->
<g id="node30" class="node"><title>X2a5d0</title>
<g id="a_node30"><a xlink:href="http://sparql.cwrc.ca/ontologies/cwrc#churchOfIreland" xlink:title="Church of Ireland" target="_parent">
<ellipse fill="none" stroke="black" cx="279.795" cy="-306" rx="73.387" ry="18"/>
<text text-anchor="middle" x="279.795" y="-302.3" font-family="Times,serif" font-size="14.00">Church of Ireland</text>
</a>
</g>
</g>
<!-- X2a5d0&#45;&gt;Xf6f10 -->
<g id="edge29" class="edge"><title>X2a5d0&#45;&gt;Xf6f10</title>
<path fill="none" stroke="black" d="M278.302,-287.649C277.599,-267.536 279.792,-234.758 298.795,-216 326.584,-188.567 430.272,-174.402 499.409,-167.848"/>
<polygon fill="black" stroke="black" points="500.13,-171.297 509.768,-166.898 499.49,-164.326 500.13,-171.297"/>
</g>
</g>
</svg>
