<?xml version="1.0" encoding="UTF-8" standalone="no"?>
<!DOCTYPE svg PUBLIC "-//W3C//DTD SVG 1.1//EN"
 "http://www.w3.org/Graphics/SVG/1.1/DTD/svg11.dtd">
<!-- Generated by graphviz version 2.38.0 (20140413.2041)
 -->
<!-- Title: ReligionGraph Pages: 1 -->
<svg width="1797pt" height="548pt"
 viewBox="0.00 0.00 1797.48 548.00" xmlns="http://www.w3.org/2000/svg" xmlns:xlink="http://www.w3.org/1999/xlink">
<g id="graph0" class="graph" transform="scale(1 1) rotate(0) translate(4 544)">
<title>ReligionGraph</title>
<polygon fill="white" stroke="none" points="-4,4 -4,-544 1793.48,-544 1793.48,4 -4,4"/>
<!-- X3b80a -->
<g id="node1" class="node"><title>X3b80a</title>
<g id="a_node1"><a xlink:href="http://sparql.cwrc.ca/ontologies/cwrc#buddhism" xlink:title="Buddhism" target="_parent">
<ellipse fill="none" stroke="black" cx="122.189" cy="-522" rx="57.6901" ry="18"/>
<text text-anchor="middle" x="122.189" y="-518.3" font-family="Times,serif" font-size="14.00">Buddhism</text>
</a>
</g>
</g>
<!-- Xc7ed9 -->
<g id="node2" class="node"><title>Xc7ed9</title>
<g id="a_node2"><a xlink:href="http://sparql.cwrc.ca/ontologies/cwrc#hinduism" xlink:title="Hinduism" target="_parent">
<ellipse fill="none" stroke="black" cx="122.189" cy="-450" rx="55.7903" ry="18"/>
<text text-anchor="middle" x="122.189" y="-446.3" font-family="Times,serif" font-size="14.00">Hinduism</text>
</a>
</g>
</g>
<!-- X3b80a&#45;&gt;Xc7ed9 -->
<!-- X930a7 -->
<g id="node15" class="node"><title>X930a7</title>
<g id="a_node15"><a xlink:href="http://sparql.cwrc.ca/ontologies/cwrc#Pantheism" xlink:title="Pantheism" target="_parent">
<ellipse fill="none" stroke="black" cx="122.189" cy="-378" rx="59.5901" ry="18"/>
<text text-anchor="middle" x="122.189" y="-374.3" font-family="Times,serif" font-size="14.00">Pantheism</text>
</a>
</g>
</g>
<!-- Xc7ed9&#45;&gt;X930a7 -->
<!-- Xd32ac -->
<g id="node3" class="node"><title>Xd32ac</title>
<g id="a_node3"><a xlink:href="http://sparql.cwrc.ca/ontologies/cwrc#judaism" xlink:title="Judaism" target="_parent">
<ellipse fill="none" stroke="black" cx="1394.19" cy="-90" rx="48.1917" ry="18"/>
<text text-anchor="middle" x="1394.19" y="-86.3" font-family="Times,serif" font-size="14.00">Judaism</text>
</a>
</g>
</g>
<!-- Xb2336 -->
<g id="node4" class="node"><title>Xb2336</title>
<g id="a_node4"><a xlink:href="http://sparql.cwrc.ca/ontologies/cwrc#abrahamicReligions" xlink:title="Abrahamic religions" target="_parent">
<ellipse fill="none" stroke="black" cx="1526.19" cy="-18" rx="104.782" ry="18"/>
<text text-anchor="middle" x="1526.19" y="-14.3" font-family="Times,serif" font-size="14.00">Abrahamic religions</text>
</a>
</g>
</g>
<!-- Xd32ac&#45;&gt;Xb2336 -->
<g id="edge2" class="edge"><title>Xd32ac&#45;&gt;Xb2336</title>
<path fill="none" stroke="black" d="M1420.9,-74.8345C1439.67,-64.8817 1465.1,-51.3949 1486.27,-40.1699"/>
<polygon fill="black" stroke="black" points="1488.16,-43.1311 1495.35,-35.3539 1484.88,-36.9469 1488.16,-43.1311"/>
</g>
<!-- X8fa8b -->
<g id="node5" class="node"><title>X8fa8b</title>
<g id="a_node5"><a xlink:href="http://sparql.cwrc.ca/ontologies/cwrc#plymouthBrethren" xlink:title="Plymouth Brethren" target="_parent">
<ellipse fill="none" stroke="black" cx="289.189" cy="-234" rx="100.182" ry="18"/>
<text text-anchor="middle" x="289.189" y="-230.3" font-family="Times,serif" font-size="14.00">Plymouth Brethren</text>
</a>
</g>
</g>
<!-- X4e4b1 -->
<g id="node6" class="node"><title>X4e4b1</title>
<g id="a_node6"><a xlink:href="http://sparql.cwrc.ca/ontologies/cwrc#protestantism" xlink:title="Protestantism" target="_parent">
<ellipse fill="none" stroke="black" cx="575.189" cy="-162" rx="76.8869" ry="18"/>
<text text-anchor="middle" x="575.189" y="-158.3" font-family="Times,serif" font-size="14.00">Protestantism</text>
</a>
</g>
</g>
<!-- X8fa8b&#45;&gt;X4e4b1 -->
<g id="edge3" class="edge"><title>X8fa8b&#45;&gt;X4e4b1</title>
<path fill="none" stroke="black" d="M346.036,-219.087C394.652,-207.187 464.45,-190.104 514.218,-177.923"/>
<polygon fill="black" stroke="black" points="515.324,-181.256 524.206,-175.478 513.66,-174.456 515.324,-181.256"/>
</g>
<!-- Xadf16 -->
<g id="node7" class="node"><title>Xadf16</title>
<g id="a_node7"><a xlink:href="http://sparql.cwrc.ca/ontologies/cwrc#christianity" xlink:title="Christianity" target="_parent">
<ellipse fill="none" stroke="black" cx="1526.19" cy="-90" rx="66.0889" ry="18"/>
<text text-anchor="middle" x="1526.19" y="-86.3" font-family="Times,serif" font-size="14.00">Christianity</text>
</a>
</g>
</g>
<!-- X4e4b1&#45;&gt;Xadf16 -->
<g id="edge4" class="edge"><title>X4e4b1&#45;&gt;Xadf16</title>
<path fill="none" stroke="black" d="M647.341,-155.84C696.817,-152.355 763.966,-147.727 823.189,-144 1102.21,-126.44 1174.36,-147.034 1451.19,-108 1457.12,-107.164 1463.27,-106.099 1469.39,-104.912"/>
<polygon fill="black" stroke="black" points="1470.51,-108.254 1479.6,-102.815 1469.1,-101.397 1470.51,-108.254"/>
</g>
<!-- Xadf16&#45;&gt;Xb2336 -->
<g id="edge8" class="edge"><title>Xadf16&#45;&gt;Xb2336</title>
<path fill="none" stroke="black" d="M1526.19,-71.6966C1526.19,-63.9827 1526.19,-54.7125 1526.19,-46.1124"/>
<polygon fill="black" stroke="black" points="1529.69,-46.1043 1526.19,-36.1043 1522.69,-46.1044 1529.69,-46.1043"/>
</g>
<!-- X7477d -->
<g id="node8" class="node"><title>X7477d</title>
<g id="a_node8"><a xlink:href="http://sparql.cwrc.ca/ontologies/cwrc#congregationalism" xlink:title="Congregationalism" target="_parent">
<ellipse fill="none" stroke="black" cx="372.189" cy="-306" rx="98.5829" ry="18"/>
<text text-anchor="middle" x="372.189" y="-302.3" font-family="Times,serif" font-size="14.00">Congregationalism</text>
</a>
</g>
</g>
<!-- X7477d&#45;&gt;X4e4b1 -->
<g id="edge5" class="edge"><title>X7477d&#45;&gt;X4e4b1</title>
<path fill="none" stroke="black" d="M391.979,-288.073C414.064,-269.505 451.174,-239.255 485.189,-216 501.861,-204.602 521.061,-193.09 537.434,-183.721"/>
<polygon fill="black" stroke="black" points="539.231,-186.725 546.206,-178.75 535.78,-180.635 539.231,-186.725"/>
</g>
<!-- X2a5d0 -->
<g id="node9" class="node"><title>X2a5d0</title>
<g id="a_node9"><a xlink:href="http://sparql.cwrc.ca/ontologies/cwrc#churchOfIreland" xlink:title="Church of Ireland" target="_parent">
<ellipse fill="none" stroke="black" cx="1244.19" cy="-234" rx="93.6835" ry="18"/>
<text text-anchor="middle" x="1244.19" y="-230.3" font-family="Times,serif" font-size="14.00">Church of Ireland</text>
</a>
</g>
</g>
<!-- Xf6f10 -->
<g id="node10" class="node"><title>Xf6f10</title>
<g id="a_node10"><a xlink:href="http://sparql.cwrc.ca/ontologies/cwrc#anglicanism" xlink:title="Anglicanism" target="_parent">
<ellipse fill="none" stroke="black" cx="1338.19" cy="-162" rx="68.4888" ry="18"/>
<text text-anchor="middle" x="1338.19" y="-158.3" font-family="Times,serif" font-size="14.00">Anglicanism</text>
</a>
</g>
</g>
<!-- X2a5d0&#45;&gt;Xf6f10 -->
<g id="edge6" class="edge"><title>X2a5d0&#45;&gt;Xf6f10</title>
<path fill="none" stroke="black" d="M1266.47,-216.411C1278.96,-207.103 1294.72,-195.367 1308.29,-185.268"/>
<polygon fill="black" stroke="black" points="1310.47,-188.008 1316.4,-179.228 1306.29,-182.394 1310.47,-188.008"/>
</g>
<!-- Xf6f10&#45;&gt;Xadf16 -->
<g id="edge7" class="edge"><title>Xf6f10&#45;&gt;Xadf16</title>
<path fill="none" stroke="black" d="M1376.23,-146.834C1405.99,-135.756 1447.5,-120.299 1479.31,-108.456"/>
<polygon fill="black" stroke="black" points="1480.69,-111.675 1488.84,-104.906 1478.25,-105.115 1480.69,-111.675"/>
</g>
<!-- X253de -->
<g id="node11" class="node"><title>X253de</title>
<g id="a_node11"><a xlink:href="http://sparql.cwrc.ca/ontologies/cwrc#quakerism" xlink:title="Quakerism" target="_parent">
<ellipse fill="none" stroke="black" cx="863.189" cy="-234" rx="61.99" ry="18"/>
<text text-anchor="middle" x="863.189" y="-230.3" font-family="Times,serif" font-size="14.00">Quakerism</text>
</a>
</g>
</g>
<!-- X253de&#45;&gt;X4e4b1 -->
<g id="edge9" class="edge"><title>X253de&#45;&gt;X4e4b1</title>
<path fill="none" stroke="black" d="M817.236,-221.831C768.199,-209.912 690.273,-190.972 636.139,-177.814"/>
<polygon fill="black" stroke="black" points="636.864,-174.389 626.32,-175.428 635.21,-181.19 636.864,-174.389"/>
</g>
<!-- X991c3 -->
<g id="node12" class="node"><title>X991c3</title>
<ellipse fill="none" stroke="black" cx="878.189" cy="-162" rx="46.2923" ry="18"/>
<text text-anchor="middle" x="878.189" y="-158.3" font-family="Times,serif" font-size="14.00">X991c3</text>
</g>
<!-- X253de&#45;&gt;X991c3 -->
<g id="edge10" class="edge"><title>X253de&#45;&gt;X991c3</title>
<path fill="none" stroke="black" d="M866.897,-215.697C868.55,-207.983 870.536,-198.712 872.379,-190.112"/>
<polygon fill="black" stroke="black" points="875.851,-190.616 874.524,-180.104 869.006,-189.149 875.851,-190.616"/>
</g>
<!-- X32f53 -->
<g id="node13" class="node"><title>X32f53</title>
<g id="a_node13"><a xlink:href="http://sparql.cwrc.ca/ontologies/cwrc#catholicism" xlink:title="Roman Catholicism" target="_parent">
<ellipse fill="none" stroke="black" cx="1526.19" cy="-162" rx="101.282" ry="18"/>
<text text-anchor="middle" x="1526.19" y="-158.3" font-family="Times,serif" font-size="14.00">Roman Catholicism</text>
</a>
</g>
</g>
<!-- X32f53&#45;&gt;Xadf16 -->
<g id="edge11" class="edge"><title>X32f53&#45;&gt;Xadf16</title>
<path fill="none" stroke="black" d="M1526.19,-143.697C1526.19,-135.983 1526.19,-126.712 1526.19,-118.112"/>
<polygon fill="black" stroke="black" points="1529.69,-118.104 1526.19,-108.104 1522.69,-118.104 1529.69,-118.104"/>
</g>
<!-- Xc1422 -->
<g id="node14" class="node"><title>Xc1422</title>
<g id="a_node14"><a xlink:href="http://sparql.cwrc.ca/ontologies/cwrc#islam" xlink:title="Islamism" target="_parent">
<ellipse fill="none" stroke="black" cx="1736.19" cy="-162" rx="53.0913" ry="18"/>
<text text-anchor="middle" x="1736.19" y="-158.3" font-family="Times,serif" font-size="14.00">Islamism</text>
</a>
</g>
</g>
<!-- Xc1422&#45;&gt;Xb2336 -->
<g id="edge12" class="edge"><title>Xc1422&#45;&gt;Xb2336</title>
<path fill="none" stroke="black" d="M1713.32,-145.533C1676.02,-120.315 1601.98,-70.2468 1559.06,-41.2242"/>
<polygon fill="black" stroke="black" points="1560.89,-38.2426 1550.65,-35.5404 1556.97,-44.0414 1560.89,-38.2426"/>
</g>
<!-- X36b94 -->
<g id="node23" class="node"><title>X36b94</title>
<g id="a_node23"><a xlink:href="http://sparql.cwrc.ca/ontologies/cwrc#agnosticism" xlink:title="Agnosticism" target="_parent">
<ellipse fill="none" stroke="black" cx="122.189" cy="-306" rx="68.4888" ry="18"/>
<text text-anchor="middle" x="122.189" y="-302.3" font-family="Times,serif" font-size="14.00">Agnosticism</text>
</a>
</g>
</g>
<!-- X930a7&#45;&gt;X36b94 -->
<!-- Xb45be -->
<g id="node16" class="node"><title>Xb45be</title>
<g id="a_node16"><a xlink:href="http://sparql.cwrc.ca/ontologies/cwrc#millenarianism" xlink:title="Millenarianism" target="_parent">
<ellipse fill="none" stroke="black" cx="1038.19" cy="-162" rx="81.4863" ry="18"/>
<text text-anchor="middle" x="1038.19" y="-158.3" font-family="Times,serif" font-size="14.00">Millenarianism</text>
</a>
</g>
</g>
<!-- Xe1e3e -->
<g id="node17" class="node"><title>Xe1e3e</title>
<g id="a_node17"><a xlink:href="http://sparql.cwrc.ca/ontologies/cwrc#methodism" xlink:title="Methodism" target="_parent">
<ellipse fill="none" stroke="black" cx="445.189" cy="-378" rx="63.8893" ry="18"/>
<text text-anchor="middle" x="445.189" y="-374.3" font-family="Times,serif" font-size="14.00">Methodism</text>
</a>
</g>
</g>
<!-- Xe1e3e&#45;&gt;X4e4b1 -->
<g id="edge14" class="edge"><title>Xe1e3e&#45;&gt;X4e4b1</title>
<path fill="none" stroke="black" d="M457.789,-359.883C464.906,-349.761 473.656,-336.511 480.189,-324 504.105,-278.204 494.989,-259.289 523.189,-216 530.046,-205.474 539.218,-195.282 547.949,-186.694"/>
<polygon fill="black" stroke="black" points="550.59,-189.013 555.438,-179.593 545.774,-183.934 550.59,-189.013"/>
</g>
<!-- Xb800b -->
<g id="node18" class="node"><title>Xb800b</title>
<g id="a_node18"><a xlink:href="http://sparql.cwrc.ca/ontologies/cwrc#tractarianMovement" xlink:title="Tractarian Movement" target="_parent">
<ellipse fill="none" stroke="black" cx="1366.19" cy="-306" rx="112.38" ry="18"/>
<text text-anchor="middle" x="1366.19" y="-302.3" font-family="Times,serif" font-size="14.00">Tractarian Movement</text>
</a>
</g>
</g>
<!-- Xb800b&#45;&gt;Xf6f10 -->
<g id="edge15" class="edge"><title>Xb800b&#45;&gt;Xf6f10</title>
<path fill="none" stroke="black" d="M1362.81,-287.871C1358.02,-263.564 1349.2,-218.819 1343.52,-190.013"/>
<polygon fill="black" stroke="black" points="1346.95,-189.323 1341.58,-180.189 1340.08,-190.677 1346.95,-189.323"/>
</g>
<!-- X9deb8 -->
<g id="node19" class="node"><title>X9deb8</title>
<g id="a_node19"><a xlink:href="http://sparql.cwrc.ca/ontologies/cwrc#dissentingChristianity" xlink:title="Dissenting Christianity" target="_parent">
<ellipse fill="none" stroke="black" cx="428.189" cy="-450" rx="118.879" ry="18"/>
<text text-anchor="middle" x="428.189" y="-446.3" font-family="Times,serif" font-size="14.00">Dissenting Christianity</text>
</a>
</g>
</g>
<!-- X9deb8&#45;&gt;X4e4b1 -->
<g id="edge16" class="edge"><title>X9deb8&#45;&gt;X4e4b1</title>
<path fill="none" stroke="black" d="M470.124,-433.059C487.382,-424.518 506.117,-412.332 518.189,-396 567.081,-329.857 541.129,-295.767 561.189,-216 563.311,-207.564 565.702,-198.395 567.9,-190.092"/>
<polygon fill="black" stroke="black" points="571.354,-190.723 570.546,-180.159 564.59,-188.921 571.354,-190.723"/>
</g>
<!-- X6f203 -->
<g id="node20" class="node"><title>X6f203</title>
<g id="a_node20"><a xlink:href="http://sparql.cwrc.ca/ontologies/cwrc#christianScience" xlink:title="Christian Science" target="_parent">
<ellipse fill="none" stroke="black" cx="1655.19" cy="-234" rx="92.8835" ry="18"/>
<text text-anchor="middle" x="1655.19" y="-230.3" font-family="Times,serif" font-size="14.00">Christian Science</text>
</a>
</g>
</g>
<!-- X6f203&#45;&gt;Xadf16 -->
<g id="edge17" class="edge"><title>X6f203&#45;&gt;Xadf16</title>
<path fill="none" stroke="black" d="M1655.81,-215.731C1655.61,-196.299 1652.49,-164.746 1636.19,-144 1622.63,-126.74 1602.04,-114.772 1582.32,-106.638"/>
<polygon fill="black" stroke="black" points="1583.34,-103.279 1572.75,-102.946 1580.82,-109.81 1583.34,-103.279"/>
</g>
<!-- Xd53bc -->
<g id="node21" class="node"><title>Xd53bc</title>
<g id="a_node21"><a xlink:href="http://sparql.cwrc.ca/ontologies/cwrc#baptistChristianity" xlink:title="Baptist Christianity" target="_parent">
<ellipse fill="none" stroke="black" cx="575.189" cy="-522" rx="102.882" ry="18"/>
<text text-anchor="middle" x="575.189" y="-518.3" font-family="Times,serif" font-size="14.00">Baptist Christianity</text>
</a>
</g>
</g>
<!-- Xd53bc&#45;&gt;X4e4b1 -->
<g id="edge18" class="edge"><title>Xd53bc&#45;&gt;X4e4b1</title>
<path fill="none" stroke="black" d="M575.189,-503.951C575.189,-477.292 575.189,-424.115 575.189,-379 575.189,-379 575.189,-379 575.189,-305 575.189,-264.996 575.189,-218.653 575.189,-190.08"/>
<polygon fill="black" stroke="black" points="578.689,-190.049 575.189,-180.049 571.689,-190.049 578.689,-190.049"/>
</g>
<!-- X043aa -->
<g id="node22" class="node"><title>X043aa</title>
<g id="a_node22"><a xlink:href="http://sparql.cwrc.ca/ontologies/cwrc#unitarianism" xlink:title="Unitarianism" target="_parent">
<ellipse fill="none" stroke="black" cx="674.189" cy="-234" rx="71.4873" ry="18"/>
<text text-anchor="middle" x="674.189" y="-230.3" font-family="Times,serif" font-size="14.00">Unitarianism</text>
</a>
</g>
</g>
<!-- X043aa&#45;&gt;X4e4b1 -->
<g id="edge19" class="edge"><title>X043aa&#45;&gt;X4e4b1</title>
<path fill="none" stroke="black" d="M651.228,-216.765C637.954,-207.379 621.064,-195.437 606.576,-185.193"/>
<polygon fill="black" stroke="black" points="608.555,-182.305 598.369,-179.39 604.513,-188.021 608.555,-182.305"/>
</g>
<!-- X7152e -->
<g id="node24" class="node"><title>X7152e</title>
<g id="a_node24"><a xlink:href="http://sparql.cwrc.ca/ontologies/cwrc#atheism" xlink:title="Atheism" target="_parent">
<ellipse fill="none" stroke="black" cx="122.189" cy="-234" rx="49.2915" ry="18"/>
<text text-anchor="middle" x="122.189" y="-230.3" font-family="Times,serif" font-size="14.00">Atheism</text>
</a>
</g>
</g>
<!-- X36b94&#45;&gt;X7152e -->
<!-- Xd35c6 -->
<g id="node25" class="node"><title>Xd35c6</title>
<g id="a_node25"><a xlink:href="http://sparql.cwrc.ca/ontologies/cwrc#spiritualism" xlink:title="Spiritualism" target="_parent">
<ellipse fill="none" stroke="black" cx="122.189" cy="-162" rx="67.6881" ry="18"/>
<text text-anchor="middle" x="122.189" y="-158.3" font-family="Times,serif" font-size="14.00">Spiritualism</text>
</a>
</g>
</g>
<!-- X7152e&#45;&gt;Xd35c6 -->
<!-- X43c0c -->
<g id="node26" class="node"><title>X43c0c</title>
<g id="a_node26"><a xlink:href="http://sparql.cwrc.ca/ontologies/cwrc#occultism" xlink:title="Occultism/Theosophism" target="_parent">
<ellipse fill="none" stroke="black" cx="122.189" cy="-90" rx="122.379" ry="18"/>
<text text-anchor="middle" x="122.189" y="-86.3" font-family="Times,serif" font-size="14.00">Occultism/Theosophism</text>
</a>
</g>
</g>
<!-- Xd35c6&#45;&gt;X43c0c -->
<!-- X37200 -->
<g id="node32" class="node"><title>X37200</title>
<g id="a_node32"><a xlink:href="http://sparql.cwrc.ca/ontologies/cwrc#paganism" xlink:title="Paganism" target="_parent">
<ellipse fill="none" stroke="black" cx="122.189" cy="-18" rx="55.7903" ry="18"/>
<text text-anchor="middle" x="122.189" y="-14.3" font-family="Times,serif" font-size="14.00">Paganism</text>
</a>
</g>
</g>
<!-- X43c0c&#45;&gt;X37200 -->
<!-- Xe7b0a -->
<g id="node27" class="node"><title>Xe7b0a</title>
<g id="a_node27"><a xlink:href="http://sparql.cwrc.ca/ontologies/cwrc#neo-thomism" xlink:title="Neo&#45;thomism" target="_parent">
<ellipse fill="none" stroke="black" cx="1622.19" cy="-450" rx="73.387" ry="18"/>
<text text-anchor="middle" x="1622.19" y="-446.3" font-family="Times,serif" font-size="14.00">Neo&#45;thomism</text>
</a>
</g>
</g>
<!-- X752f2 -->
<g id="node28" class="node"><title>X752f2</title>
<ellipse fill="none" stroke="black" cx="1673.19" cy="-378" rx="44.393" ry="18"/>
<text text-anchor="middle" x="1673.19" y="-374.3" font-family="Times,serif" font-size="14.00">X752f2</text>
</g>
<!-- Xe7b0a&#45;&gt;X752f2 -->
<g id="edge24" class="edge"><title>Xe7b0a&#45;&gt;X752f2</title>
<path fill="none" stroke="black" d="M1634.53,-432.055C1640.67,-423.629 1648.21,-413.28 1655,-403.966"/>
<polygon fill="black" stroke="black" points="1657.9,-405.932 1660.96,-395.789 1652.24,-401.81 1657.9,-405.932"/>
</g>
<!-- X1cc79 -->
<g id="node29" class="node"><title>X1cc79</title>
<g id="a_node29"><a xlink:href="http://sparql.cwrc.ca/ontologies/cwrc#lollardy" xlink:title="Lollardy" target="_parent">
<ellipse fill="none" stroke="black" cx="1723.19" cy="-522" rx="49.2915" ry="18"/>
<text text-anchor="middle" x="1723.19" y="-518.3" font-family="Times,serif" font-size="14.00">Lollardy</text>
</a>
</g>
</g>
<!-- X1cc79&#45;&gt;X752f2 -->
<g id="edge25" class="edge"><title>X1cc79&#45;&gt;X752f2</title>
<path fill="none" stroke="black" d="M1721.17,-503.804C1718.65,-485.528 1713.5,-456.012 1704.19,-432 1700.51,-422.511 1695.27,-412.729 1690.13,-404.191"/>
<polygon fill="black" stroke="black" points="1692.96,-402.109 1684.69,-395.489 1687.02,-405.822 1692.96,-402.109"/>
</g>
<!-- X0e2fa -->
<g id="node30" class="node"><title>X0e2fa</title>
<g id="a_node30"><a xlink:href="http://sparql.cwrc.ca/ontologies/cwrc#presbyterianism" xlink:title="Presbyterianism" target="_parent">
<ellipse fill="none" stroke="black" cx="773.189" cy="-306" rx="87.1846" ry="18"/>
<text text-anchor="middle" x="773.189" y="-302.3" font-family="Times,serif" font-size="14.00">Presbyterianism</text>
</a>
</g>
</g>
<!-- X0e2fa&#45;&gt;X4e4b1 -->
<g id="edge26" class="edge"><title>X0e2fa&#45;&gt;X4e4b1</title>
<path fill="none" stroke="black" d="M774.381,-287.94C774.795,-268.107 772.324,-235.598 754.189,-216 729.647,-189.477 692.53,-176.004 658.445,-169.244"/>
<polygon fill="black" stroke="black" points="658.92,-165.773 648.456,-167.433 657.67,-172.661 658.92,-165.773"/>
</g>
<!-- X156db -->
<g id="node31" class="node"><title>X156db</title>
<g id="a_node31"><a xlink:href="http://sparql.cwrc.ca/ontologies/cwrc#dissentProtestant" xlink:title="Dissent (Protestant)" target="_parent">
<ellipse fill="none" stroke="black" cx="1506.19" cy="-378" rx="104.782" ry="18"/>
<text text-anchor="middle" x="1506.19" y="-374.3" font-family="Times,serif" font-size="14.00">Dissent (Protestant)</text>
</a>
</g>
</g>
<!-- X156db&#45;&gt;Xf6f10 -->
<g id="edge27" class="edge"><title>X156db&#45;&gt;Xf6f10</title>
<path fill="none" stroke="black" d="M1505.79,-359.726C1504.64,-340.854 1500.63,-310.339 1487.19,-288 1459.71,-242.316 1409.45,-205.435 1374.96,-183.876"/>
<polygon fill="black" stroke="black" points="1376.48,-180.701 1366.12,-178.468 1372.82,-186.672 1376.48,-180.701"/>
</g>
<!-- Xd2614 -->
<g id="node33" class="node"><title>Xd2614</title>
<g id="a_node33"><a xlink:href="http://sparql.cwrc.ca/ontologies/cwrc#fifthMonarchists" xlink:title="Fifth Monarchists" target="_parent">
<ellipse fill="none" stroke="black" cx="1038.19" cy="-234" rx="94.7833" ry="18"/>
<text text-anchor="middle" x="1038.19" y="-230.3" font-family="Times,serif" font-size="14.00">Fifth Monarchists</text>
</a>
</g>
</g>
<!-- Xd2614&#45;&gt;X991c3 -->
<g id="edge29" class="edge"><title>Xd2614&#45;&gt;X991c3</title>
<path fill="none" stroke="black" d="M1002.28,-217.291C976.926,-206.197 942.976,-191.344 916.996,-179.978"/>
<polygon fill="black" stroke="black" points="918.381,-176.764 907.816,-175.962 915.575,-183.177 918.381,-176.764"/>
</g>
<!-- Xd2614&#45;&gt;Xb45be -->
<g id="edge30" class="edge"><title>Xd2614&#45;&gt;Xb45be</title>
<path fill="none" stroke="black" d="M1038.19,-215.697C1038.19,-207.983 1038.19,-198.712 1038.19,-190.112"/>
<polygon fill="black" stroke="black" points="1041.69,-190.104 1038.19,-180.104 1034.69,-190.104 1041.69,-190.104"/>
</g>
</g>
</svg>
