<?xml version="1.0" encoding="UTF-8" standalone="no"?>
<!DOCTYPE svg PUBLIC "-//W3C//DTD SVG 1.1//EN"
 "http://www.w3.org/Graphics/SVG/1.1/DTD/svg11.dtd">
<!-- Generated by graphviz version 2.38.0 (20140413.2041)
 -->
<!-- Title: ReligionGraph Pages: 1 -->
<svg width="2013pt" height="548pt"
 viewBox="0.00 0.00 2012.54 548.00" xmlns="http://www.w3.org/2000/svg" xmlns:xlink="http://www.w3.org/1999/xlink">
<g id="graph0" class="graph" transform="scale(1 1) rotate(0) translate(4 544)">
<title>ReligionGraph</title>
<polygon fill="white" stroke="none" points="-4,4 -4,-544 2008.54,-544 2008.54,4 -4,4"/>
<!-- X4e4b1 -->
<g id="node1" class="node"><title>X4e4b1</title>
<g id="a_node1"><a xlink:href="http://sparql.cwrc.ca/ontologies/cwrc#protestantism" xlink:title="Protestantism" target="_parent">
<ellipse fill="none" stroke="black" cx="961.096" cy="-162" rx="76.8869" ry="18"/>
<text text-anchor="middle" x="961.096" y="-158.3" font-family="Times,serif" font-size="14.00">Protestantism</text>
</a>
</g>
</g>
<!-- Xadf16 -->
<g id="node2" class="node"><title>Xadf16</title>
<g id="a_node2"><a xlink:href="http://sparql.cwrc.ca/ontologies/cwrc#christianity" xlink:title="Christianity" target="_parent">
<ellipse fill="none" stroke="black" cx="443.096" cy="-90" rx="66.0889" ry="18"/>
<text text-anchor="middle" x="443.096" y="-86.3" font-family="Times,serif" font-size="14.00">Christianity</text>
</a>
</g>
</g>
<!-- X4e4b1&#45;&gt;Xadf16 -->
<g id="edge1" class="edge"><title>X4e4b1&#45;&gt;Xadf16</title>
<path fill="none" stroke="black" d="M896.538,-152.276C798.212,-138.989 611.775,-113.795 511.312,-100.218"/>
<polygon fill="black" stroke="black" points="511.652,-96.7326 501.273,-98.8618 510.714,-103.67 511.652,-96.7326"/>
</g>
<!-- Xb2336 -->
<g id="node3" class="node"><title>Xb2336</title>
<g id="a_node3"><a xlink:href="http://sparql.cwrc.ca/ontologies/cwrc#abrahamicReligions" xlink:title="Abrahamic religions" target="_parent">
<ellipse fill="none" stroke="black" cx="124.096" cy="-18" rx="104.782" ry="18"/>
<text text-anchor="middle" x="124.096" y="-14.3" font-family="Times,serif" font-size="14.00">Abrahamic religions</text>
</a>
</g>
</g>
<!-- Xadf16&#45;&gt;Xb2336 -->
<g id="edge2" class="edge"><title>Xadf16&#45;&gt;Xb2336</title>
<path fill="none" stroke="black" d="M393.252,-78.0625C340.218,-66.4249 255.834,-47.9081 195.695,-34.7114"/>
<polygon fill="black" stroke="black" points="196.404,-31.2837 185.886,-32.5589 194.903,-38.121 196.404,-31.2837"/>
</g>
<!-- X0e2fa -->
<g id="node4" class="node"><title>X0e2fa</title>
<g id="a_node4"><a xlink:href="http://sparql.cwrc.ca/ontologies/cwrc#presbyterianism" xlink:title="Presbyterianism" target="_parent">
<ellipse fill="none" stroke="black" cx="770.096" cy="-234" rx="87.1846" ry="18"/>
<text text-anchor="middle" x="770.096" y="-230.3" font-family="Times,serif" font-size="14.00">Presbyterianism</text>
</a>
</g>
</g>
<!-- X0e2fa&#45;&gt;X4e4b1 -->
<g id="edge3" class="edge"><title>X0e2fa&#45;&gt;X4e4b1</title>
<path fill="none" stroke="black" d="M811.07,-217.983C840.673,-207.134 880.787,-192.433 912.087,-180.961"/>
<polygon fill="black" stroke="black" points="913.312,-184.24 921.497,-177.513 910.903,-177.668 913.312,-184.24"/>
</g>
<!-- Xd35c6 -->
<g id="node5" class="node"><title>Xd35c6</title>
<g id="a_node5"><a xlink:href="http://sparql.cwrc.ca/ontologies/cwrc#spiritualism" xlink:title="Spiritualism" target="_parent">
<ellipse fill="none" stroke="black" cx="1727.1" cy="-522" rx="67.6881" ry="18"/>
<text text-anchor="middle" x="1727.1" y="-518.3" font-family="Times,serif" font-size="14.00">Spiritualism</text>
</a>
</g>
</g>
<!-- X3b80a -->
<g id="node6" class="node"><title>X3b80a</title>
<g id="a_node6"><a xlink:href="http://sparql.cwrc.ca/ontologies/cwrc#buddhism" xlink:title="Buddhism" target="_parent">
<ellipse fill="none" stroke="black" cx="1727.1" cy="-450" rx="57.6901" ry="18"/>
<text text-anchor="middle" x="1727.1" y="-446.3" font-family="Times,serif" font-size="14.00">Buddhism</text>
</a>
</g>
</g>
<!-- Xd35c6&#45;&gt;X3b80a -->
<!-- X36b94 -->
<g id="node15" class="node"><title>X36b94</title>
<g id="a_node15"><a xlink:href="http://sparql.cwrc.ca/ontologies/cwrc#agnosticism" xlink:title="Agnosticism" target="_parent">
<ellipse fill="none" stroke="black" cx="1727.1" cy="-378" rx="68.4888" ry="18"/>
<text text-anchor="middle" x="1727.1" y="-374.3" font-family="Times,serif" font-size="14.00">Agnosticism</text>
</a>
</g>
</g>
<!-- X3b80a&#45;&gt;X36b94 -->
<!-- X2a5d0 -->
<g id="node7" class="node"><title>X2a5d0</title>
<g id="a_node7"><a xlink:href="http://sparql.cwrc.ca/ontologies/cwrc#churchOfIreland" xlink:title="Church of Ireland" target="_parent">
<ellipse fill="none" stroke="black" cx="142.096" cy="-234" rx="93.6835" ry="18"/>
<text text-anchor="middle" x="142.096" y="-230.3" font-family="Times,serif" font-size="14.00">Church of Ireland</text>
</a>
</g>
</g>
<!-- Xf6f10 -->
<g id="node8" class="node"><title>Xf6f10</title>
<g id="a_node8"><a xlink:href="http://sparql.cwrc.ca/ontologies/cwrc#anglicanism" xlink:title="Anglicanism" target="_parent">
<ellipse fill="none" stroke="black" cx="264.096" cy="-162" rx="68.4888" ry="18"/>
<text text-anchor="middle" x="264.096" y="-158.3" font-family="Times,serif" font-size="14.00">Anglicanism</text>
</a>
</g>
</g>
<!-- X2a5d0&#45;&gt;Xf6f10 -->
<g id="edge5" class="edge"><title>X2a5d0&#45;&gt;Xf6f10</title>
<path fill="none" stroke="black" d="M170.392,-216.765C187.571,-206.907 209.665,-194.231 228.083,-183.663"/>
<polygon fill="black" stroke="black" points="229.861,-186.678 236.793,-178.666 226.377,-180.607 229.861,-186.678"/>
</g>
<!-- Xf6f10&#45;&gt;Xadf16 -->
<g id="edge6" class="edge"><title>Xf6f10&#45;&gt;Xadf16</title>
<path fill="none" stroke="black" d="M300.751,-146.666C328.716,-135.729 367.405,-120.6 397.391,-108.873"/>
<polygon fill="black" stroke="black" points="398.757,-112.097 406.796,-105.196 396.208,-105.578 398.757,-112.097"/>
</g>
<!-- Xe1e3e -->
<g id="node9" class="node"><title>Xe1e3e</title>
<g id="a_node9"><a xlink:href="http://sparql.cwrc.ca/ontologies/cwrc#methodism" xlink:title="Methodism" target="_parent">
<ellipse fill="none" stroke="black" cx="831.096" cy="-306" rx="63.8893" ry="18"/>
<text text-anchor="middle" x="831.096" y="-302.3" font-family="Times,serif" font-size="14.00">Methodism</text>
</a>
</g>
</g>
<!-- Xe1e3e&#45;&gt;X4e4b1 -->
<g id="edge7" class="edge"><title>Xe1e3e&#45;&gt;X4e4b1</title>
<path fill="none" stroke="black" d="M845.199,-288.351C860.616,-270.283 886.184,-240.706 909.096,-216 917.998,-206.401 928.021,-196.076 936.875,-187.113"/>
<polygon fill="black" stroke="black" points="939.425,-189.512 943.986,-179.949 934.457,-184.58 939.425,-189.512"/>
</g>
<!-- Xd53bc -->
<g id="node10" class="node"><title>Xd53bc</title>
<g id="a_node10"><a xlink:href="http://sparql.cwrc.ca/ontologies/cwrc#baptistChristianity" xlink:title="Baptist Christianity" target="_parent">
<ellipse fill="none" stroke="black" cx="830.096" cy="-378" rx="102.882" ry="18"/>
<text text-anchor="middle" x="830.096" y="-374.3" font-family="Times,serif" font-size="14.00">Baptist Christianity</text>
</a>
</g>
</g>
<!-- Xd53bc&#45;&gt;X4e4b1 -->
<g id="edge8" class="edge"><title>Xd53bc&#45;&gt;X4e4b1</title>
<path fill="none" stroke="black" d="M861.281,-360.623C876.009,-351.539 892.794,-339.03 904.096,-324 920.332,-302.409 942.333,-229.985 953.667,-190.032"/>
<polygon fill="black" stroke="black" points="957.105,-190.732 956.438,-180.158 950.366,-188.841 957.105,-190.732"/>
</g>
<!-- X1cc79 -->
<g id="node11" class="node"><title>X1cc79</title>
<g id="a_node11"><a xlink:href="http://sparql.cwrc.ca/ontologies/cwrc#lollardy" xlink:title="Lollardy" target="_parent">
<ellipse fill="none" stroke="black" cx="1854.1" cy="-450" rx="49.2915" ry="18"/>
<text text-anchor="middle" x="1854.1" y="-446.3" font-family="Times,serif" font-size="14.00">Lollardy</text>
</a>
</g>
</g>
<!-- X752f2 -->
<g id="node12" class="node"><title>X752f2</title>
<ellipse fill="none" stroke="black" cx="1894.1" cy="-378" rx="44.393" ry="18"/>
<text text-anchor="middle" x="1894.1" y="-374.3" font-family="Times,serif" font-size="14.00">X752f2</text>
</g>
<!-- X1cc79&#45;&gt;X752f2 -->
<g id="edge9" class="edge"><title>X1cc79&#45;&gt;X752f2</title>
<path fill="none" stroke="black" d="M1863.78,-432.055C1868.5,-423.801 1874.27,-413.701 1879.5,-404.538"/>
<polygon fill="black" stroke="black" points="1882.58,-406.208 1884.5,-395.789 1876.5,-402.735 1882.58,-406.208"/>
</g>
<!-- X7477d -->
<g id="node13" class="node"><title>X7477d</title>
<g id="a_node13"><a xlink:href="http://sparql.cwrc.ca/ontologies/cwrc#congregationalism" xlink:title="Congregationalism" target="_parent">
<ellipse fill="none" stroke="black" cx="872.096" cy="-450" rx="98.5829" ry="18"/>
<text text-anchor="middle" x="872.096" y="-446.3" font-family="Times,serif" font-size="14.00">Congregationalism</text>
</a>
</g>
</g>
<!-- X7477d&#45;&gt;X4e4b1 -->
<g id="edge10" class="edge"><title>X7477d&#45;&gt;X4e4b1</title>
<path fill="none" stroke="black" d="M904.006,-432.92C918.154,-424.048 933.513,-411.634 942.096,-396 978.62,-329.468 971.921,-235.803 965.658,-190.15"/>
<polygon fill="black" stroke="black" points="969.103,-189.518 964.182,-180.135 962.177,-190.538 969.103,-189.518"/>
</g>
<!-- Xd32ac -->
<g id="node14" class="node"><title>Xd32ac</title>
<g id="a_node14"><a xlink:href="http://sparql.cwrc.ca/ontologies/cwrc#judaism" xlink:title="Judaism" target="_parent">
<ellipse fill="none" stroke="black" cx="48.0957" cy="-90" rx="48.1917" ry="18"/>
<text text-anchor="middle" x="48.0957" y="-86.3" font-family="Times,serif" font-size="14.00">Judaism</text>
</a>
</g>
</g>
<!-- Xd32ac&#45;&gt;Xb2336 -->
<g id="edge11" class="edge"><title>Xd32ac&#45;&gt;Xb2336</title>
<path fill="none" stroke="black" d="M65.3413,-73.1159C75.068,-64.1572 87.4116,-52.788 98.2716,-42.7853"/>
<polygon fill="black" stroke="black" points="100.874,-45.1466 105.859,-35.7973 96.132,-39.9977 100.874,-45.1466"/>
</g>
<!-- X7152e -->
<g id="node17" class="node"><title>X7152e</title>
<g id="a_node17"><a xlink:href="http://sparql.cwrc.ca/ontologies/cwrc#atheism" xlink:title="Atheism" target="_parent">
<ellipse fill="none" stroke="black" cx="1727.1" cy="-306" rx="49.2915" ry="18"/>
<text text-anchor="middle" x="1727.1" y="-302.3" font-family="Times,serif" font-size="14.00">Atheism</text>
</a>
</g>
</g>
<!-- X36b94&#45;&gt;X7152e -->
<!-- Xb45be -->
<g id="node16" class="node"><title>Xb45be</title>
<g id="a_node16"><a xlink:href="http://sparql.cwrc.ca/ontologies/cwrc#millenarianism" xlink:title="Millenarianism" target="_parent">
<ellipse fill="none" stroke="black" cx="1558.1" cy="-162" rx="81.4863" ry="18"/>
<text text-anchor="middle" x="1558.1" y="-158.3" font-family="Times,serif" font-size="14.00">Millenarianism</text>
</a>
</g>
</g>
<!-- Xc7ed9 -->
<g id="node23" class="node"><title>Xc7ed9</title>
<g id="a_node23"><a xlink:href="http://sparql.cwrc.ca/ontologies/cwrc#hinduism" xlink:title="Hinduism" target="_parent">
<ellipse fill="none" stroke="black" cx="1727.1" cy="-234" rx="55.7903" ry="18"/>
<text text-anchor="middle" x="1727.1" y="-230.3" font-family="Times,serif" font-size="14.00">Hinduism</text>
</a>
</g>
</g>
<!-- X7152e&#45;&gt;Xc7ed9 -->
<!-- Xb800b -->
<g id="node18" class="node"><title>Xb800b</title>
<g id="a_node18"><a xlink:href="http://sparql.cwrc.ca/ontologies/cwrc#tractarianMovement" xlink:title="Tractarian Movement" target="_parent">
<ellipse fill="none" stroke="black" cx="264.096" cy="-306" rx="112.38" ry="18"/>
<text text-anchor="middle" x="264.096" y="-302.3" font-family="Times,serif" font-size="14.00">Tractarian Movement</text>
</a>
</g>
</g>
<!-- Xb800b&#45;&gt;Xf6f10 -->
<g id="edge14" class="edge"><title>Xb800b&#45;&gt;Xf6f10</title>
<path fill="none" stroke="black" d="M264.096,-287.871C264.096,-263.67 264.096,-219.211 264.096,-190.393"/>
<polygon fill="black" stroke="black" points="267.596,-190.189 264.096,-180.189 260.596,-190.189 267.596,-190.189"/>
</g>
<!-- X253de -->
<g id="node19" class="node"><title>X253de</title>
<g id="a_node19"><a xlink:href="http://sparql.cwrc.ca/ontologies/cwrc#quakerism" xlink:title="Quakerism" target="_parent">
<ellipse fill="none" stroke="black" cx="1383.1" cy="-234" rx="61.99" ry="18"/>
<text text-anchor="middle" x="1383.1" y="-230.3" font-family="Times,serif" font-size="14.00">Quakerism</text>
</a>
</g>
</g>
<!-- X253de&#45;&gt;X4e4b1 -->
<g id="edge15" class="edge"><title>X253de&#45;&gt;X4e4b1</title>
<path fill="none" stroke="black" d="M1336.58,-222.068C1326.86,-219.933 1316.66,-217.801 1307.1,-216 1214.17,-198.511 1106.38,-182.702 1036.13,-172.992"/>
<polygon fill="black" stroke="black" points="1036.43,-169.5 1026.05,-171.604 1035.47,-176.435 1036.43,-169.5"/>
</g>
<!-- X991c3 -->
<g id="node20" class="node"><title>X991c3</title>
<ellipse fill="none" stroke="black" cx="1398.1" cy="-162" rx="46.2923" ry="18"/>
<text text-anchor="middle" x="1398.1" y="-158.3" font-family="Times,serif" font-size="14.00">X991c3</text>
</g>
<!-- X253de&#45;&gt;X991c3 -->
<g id="edge16" class="edge"><title>X253de&#45;&gt;X991c3</title>
<path fill="none" stroke="black" d="M1386.8,-215.697C1388.46,-207.983 1390.44,-198.712 1392.29,-190.112"/>
<polygon fill="black" stroke="black" points="1395.76,-190.616 1394.43,-180.104 1388.91,-189.149 1395.76,-190.616"/>
</g>
<!-- X6f203 -->
<g id="node21" class="node"><title>X6f203</title>
<g id="a_node21"><a xlink:href="http://sparql.cwrc.ca/ontologies/cwrc#christianScience" xlink:title="Christian Science" target="_parent">
<ellipse fill="none" stroke="black" cx="443.096" cy="-162" rx="92.8835" ry="18"/>
<text text-anchor="middle" x="443.096" y="-158.3" font-family="Times,serif" font-size="14.00">Christian Science</text>
</a>
</g>
</g>
<!-- X6f203&#45;&gt;Xadf16 -->
<g id="edge17" class="edge"><title>X6f203&#45;&gt;Xadf16</title>
<path fill="none" stroke="black" d="M443.096,-143.697C443.096,-135.983 443.096,-126.712 443.096,-118.112"/>
<polygon fill="black" stroke="black" points="446.596,-118.104 443.096,-108.104 439.596,-118.104 446.596,-118.104"/>
</g>
<!-- X8fa8b -->
<g id="node22" class="node"><title>X8fa8b</title>
<g id="a_node22"><a xlink:href="http://sparql.cwrc.ca/ontologies/cwrc#plymouthBrethren" xlink:title="Plymouth Brethren" target="_parent">
<ellipse fill="none" stroke="black" cx="999.096" cy="-522" rx="100.182" ry="18"/>
<text text-anchor="middle" x="999.096" y="-518.3" font-family="Times,serif" font-size="14.00">Plymouth Brethren</text>
</a>
</g>
</g>
<!-- X8fa8b&#45;&gt;X4e4b1 -->
<g id="edge18" class="edge"><title>X8fa8b&#45;&gt;X4e4b1</title>
<path fill="none" stroke="black" d="M999.096,-503.951C999.096,-477.292 999.096,-424.115 999.096,-379 999.096,-379 999.096,-379 999.096,-305 999.096,-264.887 995.497,-254.459 984.096,-216 981.473,-207.153 977.765,-197.819 974.09,-189.492"/>
<polygon fill="black" stroke="black" points="977.21,-187.898 969.859,-180.268 970.847,-190.817 977.21,-187.898"/>
</g>
<!-- X930a7 -->
<g id="node25" class="node"><title>X930a7</title>
<g id="a_node25"><a xlink:href="http://sparql.cwrc.ca/ontologies/cwrc#Pantheism" xlink:title="Pantheism" target="_parent">
<ellipse fill="none" stroke="black" cx="1727.1" cy="-162" rx="59.5901" ry="18"/>
<text text-anchor="middle" x="1727.1" y="-158.3" font-family="Times,serif" font-size="14.00">Pantheism</text>
</a>
</g>
</g>
<!-- Xc7ed9&#45;&gt;X930a7 -->
<!-- Xc1422 -->
<g id="node24" class="node"><title>Xc1422</title>
<g id="a_node24"><a xlink:href="http://sparql.cwrc.ca/ontologies/cwrc#islam" xlink:title="Islamism" target="_parent">
<ellipse fill="none" stroke="black" cx="124.096" cy="-162" rx="53.0913" ry="18"/>
<text text-anchor="middle" x="124.096" y="-158.3" font-family="Times,serif" font-size="14.00">Islamism</text>
</a>
</g>
</g>
<!-- Xc1422&#45;&gt;Xb2336 -->
<g id="edge20" class="edge"><title>Xc1422&#45;&gt;Xb2336</title>
<path fill="none" stroke="black" d="M124.096,-143.871C124.096,-119.67 124.096,-75.2108 124.096,-46.3932"/>
<polygon fill="black" stroke="black" points="127.596,-46.1892 124.096,-36.1893 120.596,-46.1893 127.596,-46.1892"/>
</g>
<!-- X37200 -->
<g id="node26" class="node"><title>X37200</title>
<g id="a_node26"><a xlink:href="http://sparql.cwrc.ca/ontologies/cwrc#paganism" xlink:title="Paganism" target="_parent">
<ellipse fill="none" stroke="black" cx="1727.1" cy="-90" rx="55.7903" ry="18"/>
<text text-anchor="middle" x="1727.1" y="-86.3" font-family="Times,serif" font-size="14.00">Paganism</text>
</a>
</g>
</g>
<!-- X930a7&#45;&gt;X37200 -->
<!-- X43c0c -->
<g id="node29" class="node"><title>X43c0c</title>
<g id="a_node29"><a xlink:href="http://sparql.cwrc.ca/ontologies/cwrc#occultism" xlink:title="Occultism/Theosophism" target="_parent">
<ellipse fill="none" stroke="black" cx="1727.1" cy="-18" rx="122.379" ry="18"/>
<text text-anchor="middle" x="1727.1" y="-14.3" font-family="Times,serif" font-size="14.00">Occultism/Theosophism</text>
</a>
</g>
</g>
<!-- X37200&#45;&gt;X43c0c -->
<!-- X32f53 -->
<g id="node27" class="node"><title>X32f53</title>
<g id="a_node27"><a xlink:href="http://sparql.cwrc.ca/ontologies/cwrc#catholicism" xlink:title="Roman Catholicism" target="_parent">
<ellipse fill="none" stroke="black" cx="564.096" cy="-234" rx="101.282" ry="18"/>
<text text-anchor="middle" x="564.096" y="-230.3" font-family="Times,serif" font-size="14.00">Roman Catholicism</text>
</a>
</g>
</g>
<!-- X32f53&#45;&gt;Xadf16 -->
<g id="edge23" class="edge"><title>X32f53&#45;&gt;Xadf16</title>
<path fill="none" stroke="black" d="M564.6,-215.819C564.298,-196.469 561.084,-164.99 545.096,-144 532.687,-127.71 513.838,-115.964 495.705,-107.736"/>
<polygon fill="black" stroke="black" points="496.899,-104.44 486.326,-103.749 494.16,-110.882 496.899,-104.44"/>
</g>
<!-- X9deb8 -->
<g id="node28" class="node"><title>X9deb8</title>
<g id="a_node28"><a xlink:href="http://sparql.cwrc.ca/ontologies/cwrc#dissentingChristianity" xlink:title="Dissenting Christianity" target="_parent">
<ellipse fill="none" stroke="black" cx="1146.1" cy="-234" rx="118.879" ry="18"/>
<text text-anchor="middle" x="1146.1" y="-230.3" font-family="Times,serif" font-size="14.00">Dissenting Christianity</text>
</a>
</g>
</g>
<!-- X9deb8&#45;&gt;X4e4b1 -->
<g id="edge24" class="edge"><title>X9deb8&#45;&gt;X4e4b1</title>
<path fill="none" stroke="black" d="M1104.12,-217.116C1075.96,-206.461 1038.79,-192.397 1009.4,-181.277"/>
<polygon fill="black" stroke="black" points="1010.35,-177.893 999.755,-177.628 1007.87,-184.44 1010.35,-177.893"/>
</g>
<!-- Xe7b0a -->
<g id="node30" class="node"><title>Xe7b0a</title>
<g id="a_node30"><a xlink:href="http://sparql.cwrc.ca/ontologies/cwrc#neo-thomism" xlink:title="Neo&#45;thomism" target="_parent">
<ellipse fill="none" stroke="black" cx="1931.1" cy="-522" rx="73.387" ry="18"/>
<text text-anchor="middle" x="1931.1" y="-518.3" font-family="Times,serif" font-size="14.00">Neo&#45;thomism</text>
</a>
</g>
</g>
<!-- Xe7b0a&#45;&gt;X752f2 -->
<g id="edge26" class="edge"><title>Xe7b0a&#45;&gt;X752f2</title>
<path fill="none" stroke="black" d="M1928.04,-503.794C1924.7,-485.761 1918.89,-456.676 1912.1,-432 1909.71,-423.342 1906.7,-414.027 1903.83,-405.659"/>
<polygon fill="black" stroke="black" points="1907.06,-404.303 1900.45,-396.028 1900.46,-406.623 1907.06,-404.303"/>
</g>
<!-- X156db -->
<g id="node31" class="node"><title>X156db</title>
<g id="a_node31"><a xlink:href="http://sparql.cwrc.ca/ontologies/cwrc#dissentProtestant" xlink:title="Dissent (Protestant)" target="_parent">
<ellipse fill="none" stroke="black" cx="404.096" cy="-378" rx="104.782" ry="18"/>
<text text-anchor="middle" x="404.096" y="-374.3" font-family="Times,serif" font-size="14.00">Dissent (Protestant)</text>
</a>
</g>
</g>
<!-- X156db&#45;&gt;Xf6f10 -->
<g id="edge27" class="edge"><title>X156db&#45;&gt;Xf6f10</title>
<path fill="none" stroke="black" d="M403.249,-359.978C401.707,-341.328 397.358,-311.005 385.096,-288 362.725,-246.033 322.098,-208.402 294.136,-185.651"/>
<polygon fill="black" stroke="black" points="296.253,-182.863 286.255,-179.358 291.886,-188.333 296.253,-182.863"/>
</g>
<!-- Xd2614 -->
<g id="node32" class="node"><title>Xd2614</title>
<g id="a_node32"><a xlink:href="http://sparql.cwrc.ca/ontologies/cwrc#fifthMonarchists" xlink:title="Fifth Monarchists" target="_parent">
<ellipse fill="none" stroke="black" cx="1558.1" cy="-234" rx="94.7833" ry="18"/>
<text text-anchor="middle" x="1558.1" y="-230.3" font-family="Times,serif" font-size="14.00">Fifth Monarchists</text>
</a>
</g>
</g>
<!-- Xd2614&#45;&gt;Xb45be -->
<g id="edge28" class="edge"><title>Xd2614&#45;&gt;Xb45be</title>
<path fill="none" stroke="black" d="M1558.1,-215.697C1558.1,-207.983 1558.1,-198.712 1558.1,-190.112"/>
<polygon fill="black" stroke="black" points="1561.6,-190.104 1558.1,-180.104 1554.6,-190.104 1561.6,-190.104"/>
</g>
<!-- Xd2614&#45;&gt;X991c3 -->
<g id="edge29" class="edge"><title>Xd2614&#45;&gt;X991c3</title>
<path fill="none" stroke="black" d="M1522.19,-217.291C1496.83,-206.197 1462.88,-191.344 1436.9,-179.978"/>
<polygon fill="black" stroke="black" points="1438.29,-176.764 1427.72,-175.962 1435.48,-183.177 1438.29,-176.764"/>
</g>
<!-- X043aa -->
<g id="node33" class="node"><title>X043aa</title>
<g id="a_node33"><a xlink:href="http://sparql.cwrc.ca/ontologies/cwrc#unitarianism" xlink:title="Unitarianism" target="_parent">
<ellipse fill="none" stroke="black" cx="1293.1" cy="-306" rx="71.4873" ry="18"/>
<text text-anchor="middle" x="1293.1" y="-302.3" font-family="Times,serif" font-size="14.00">Unitarianism</text>
</a>
</g>
</g>
<!-- X043aa&#45;&gt;X4e4b1 -->
<g id="edge30" class="edge"><title>X043aa&#45;&gt;X4e4b1</title>
<path fill="none" stroke="black" d="M1294.67,-287.908C1295.5,-267.733 1293.49,-234.584 1274.1,-216 1242.18,-185.419 1127.4,-172.354 1046.11,-166.86"/>
<polygon fill="black" stroke="black" points="1046.08,-163.35 1035.87,-166.195 1045.62,-170.336 1046.08,-163.35"/>
</g>
</g>
</svg>
