<?xml version="1.0" encoding="UTF-8" standalone="no"?>
<!DOCTYPE svg PUBLIC "-//W3C//DTD SVG 1.1//EN"
 "http://www.w3.org/Graphics/SVG/1.1/DTD/svg11.dtd">
<!-- Generated by graphviz version 2.38.0 (20140413.2041)
 -->
<!-- Title: ReligionGraph Pages: 1 -->
<svg width="1509pt" height="548pt"
 viewBox="0.00 0.00 1509.29 548.00" xmlns="http://www.w3.org/2000/svg" xmlns:xlink="http://www.w3.org/1999/xlink">
<g id="graph0" class="graph" transform="scale(1 1) rotate(0) translate(4 544)">
<title>ReligionGraph</title>
<polygon fill="white" stroke="none" points="-4,4 -4,-544 1505.29,-544 1505.29,4 -4,4"/>
<!-- Xf6f10 -->
<g id="node1" class="node"><title>Xf6f10</title>
<g id="a_node1"><a xlink:href="http://sparql.cwrc.ca/ontologies/cwrc#anglicanism" xlink:title="Anglicanism" target="_parent">
<ellipse fill="none" stroke="black" cx="544.795" cy="-162" rx="55.7903" ry="18"/>
<text text-anchor="middle" x="544.795" y="-158.3" font-family="Times,serif" font-size="14.00">Anglicanism</text>
</a>
</g>
</g>
<!-- Xadf16 -->
<g id="node2" class="node"><title>Xadf16</title>
<g id="a_node2"><a xlink:href="http://sparql.cwrc.ca/ontologies/cwrc#christianity" xlink:title="Christianity" target="_parent">
<ellipse fill="none" stroke="black" cx="544.795" cy="-90" rx="51.9908" ry="18"/>
<text text-anchor="middle" x="544.795" y="-86.3" font-family="Times,serif" font-size="14.00">Christianity</text>
</a>
</g>
</g>
<!-- Xf6f10&#45;&gt;Xadf16 -->
<g id="edge1" class="edge"><title>Xf6f10&#45;&gt;Xadf16</title>
<path fill="none" stroke="black" d="M544.795,-143.697C544.795,-135.983 544.795,-126.712 544.795,-118.112"/>
<polygon fill="black" stroke="black" points="548.295,-118.104 544.795,-108.104 541.295,-118.104 548.295,-118.104"/>
</g>
<!-- Xb2336 -->
<g id="node3" class="node"><title>Xb2336</title>
<g id="a_node3"><a xlink:href="http://sparql.cwrc.ca/ontologies/cwrc#abrahamicReligions" xlink:title="Abrahamic religions" target="_parent">
<ellipse fill="none" stroke="black" cx="765.795" cy="-18" rx="83.3857" ry="18"/>
<text text-anchor="middle" x="765.795" y="-14.3" font-family="Times,serif" font-size="14.00">Abrahamic religions</text>
</a>
</g>
</g>
<!-- Xadf16&#45;&gt;Xb2336 -->
<g id="edge2" class="edge"><title>Xadf16&#45;&gt;Xb2336</title>
<path fill="none" stroke="black" d="M581.785,-77.2836C617.089,-66.1013 670.715,-49.1159 710.982,-36.3614"/>
<polygon fill="black" stroke="black" points="712.176,-39.6547 720.652,-33.2984 710.062,-32.9815 712.176,-39.6547"/>
</g>
<!-- X4e4b1 -->
<g id="node4" class="node"><title>X4e4b1</title>
<g id="a_node4"><a xlink:href="http://sparql.cwrc.ca/ontologies/cwrc#protestantism" xlink:title="Protestantism" target="_parent">
<ellipse fill="none" stroke="black" cx="897.795" cy="-162" rx="59.2899" ry="18"/>
<text text-anchor="middle" x="897.795" y="-158.3" font-family="Times,serif" font-size="14.00">Protestantism</text>
</a>
</g>
</g>
<!-- X4e4b1&#45;&gt;Xadf16 -->
<g id="edge3" class="edge"><title>X4e4b1&#45;&gt;Xadf16</title>
<path fill="none" stroke="black" d="M849.452,-151.414C783.896,-138.414 667.165,-115.266 598.803,-101.71"/>
<polygon fill="black" stroke="black" points="599.16,-98.2127 588.671,-99.7006 597.799,-105.079 599.16,-98.2127"/>
</g>
<!-- Xd35c6 -->
<g id="node5" class="node"><title>Xd35c6</title>
<g id="a_node5"><a xlink:href="http://sparql.cwrc.ca/ontologies/cwrc#spiritualism" xlink:title="Spiritualism" target="_parent">
<ellipse fill="none" stroke="black" cx="1403.79" cy="-522" rx="53.8905" ry="18"/>
<text text-anchor="middle" x="1403.79" y="-518.3" font-family="Times,serif" font-size="14.00">Spiritualism</text>
</a>
</g>
</g>
<!-- X3b80a -->
<g id="node6" class="node"><title>X3b80a</title>
<g id="a_node6"><a xlink:href="http://sparql.cwrc.ca/ontologies/cwrc#buddhism" xlink:title="Buddhism" target="_parent">
<ellipse fill="none" stroke="black" cx="1403.79" cy="-450" rx="47.3916" ry="18"/>
<text text-anchor="middle" x="1403.79" y="-446.3" font-family="Times,serif" font-size="14.00">Buddhism</text>
</a>
</g>
</g>
<!-- Xd35c6&#45;&gt;X3b80a -->
<!-- X36b94 -->
<g id="node7" class="node"><title>X36b94</title>
<g id="a_node7"><a xlink:href="http://sparql.cwrc.ca/ontologies/cwrc#agnosticism" xlink:title="Agnosticism" target="_parent">
<ellipse fill="none" stroke="black" cx="1403.79" cy="-378" rx="55.7903" ry="18"/>
<text text-anchor="middle" x="1403.79" y="-374.3" font-family="Times,serif" font-size="14.00">Agnosticism</text>
</a>
</g>
</g>
<!-- X3b80a&#45;&gt;X36b94 -->
<!-- Xc7ed9 -->
<g id="node8" class="node"><title>Xc7ed9</title>
<g id="a_node8"><a xlink:href="http://sparql.cwrc.ca/ontologies/cwrc#hinduism" xlink:title="Hinduism" target="_parent">
<ellipse fill="none" stroke="black" cx="1403.79" cy="-306" rx="46.2923" ry="18"/>
<text text-anchor="middle" x="1403.79" y="-302.3" font-family="Times,serif" font-size="14.00">Hinduism</text>
</a>
</g>
</g>
<!-- X36b94&#45;&gt;Xc7ed9 -->
<!-- X43c0c -->
<g id="node13" class="node"><title>X43c0c</title>
<g id="a_node13"><a xlink:href="http://sparql.cwrc.ca/ontologies/cwrc#occultism" xlink:title="Occultism/Theosophism" target="_parent">
<ellipse fill="none" stroke="black" cx="1403.79" cy="-234" rx="97.4827" ry="18"/>
<text text-anchor="middle" x="1403.79" y="-230.3" font-family="Times,serif" font-size="14.00">Occultism/Theosophism</text>
</a>
</g>
</g>
<!-- Xc7ed9&#45;&gt;X43c0c -->
<!-- Xd32ac -->
<g id="node9" class="node"><title>Xd32ac</title>
<g id="a_node9"><a xlink:href="http://sparql.cwrc.ca/ontologies/cwrc#judaism" xlink:title="Judaism" target="_parent">
<ellipse fill="none" stroke="black" cx="765.795" cy="-90" rx="40.0939" ry="18"/>
<text text-anchor="middle" x="765.795" y="-86.3" font-family="Times,serif" font-size="14.00">Judaism</text>
</a>
</g>
</g>
<!-- Xd32ac&#45;&gt;Xb2336 -->
<g id="edge7" class="edge"><title>Xd32ac&#45;&gt;Xb2336</title>
<path fill="none" stroke="black" d="M765.795,-71.6966C765.795,-63.9827 765.795,-54.7125 765.795,-46.1124"/>
<polygon fill="black" stroke="black" points="769.295,-46.1043 765.795,-36.1043 762.295,-46.1044 769.295,-46.1043"/>
</g>
<!-- Xe7b0a -->
<g id="node10" class="node"><title>Xe7b0a</title>
<g id="a_node10"><a xlink:href="http://sparql.cwrc.ca/ontologies/cwrc#neo-thomism" xlink:title="Neo&#45;thomism" target="_parent">
<ellipse fill="none" stroke="black" cx="59.7947" cy="-234" rx="59.5901" ry="18"/>
<text text-anchor="middle" x="59.7947" y="-230.3" font-family="Times,serif" font-size="14.00">Neo&#45;thomism</text>
</a>
</g>
</g>
<!-- X32f53 -->
<g id="node11" class="node"><title>X32f53</title>
<g id="a_node11"><a xlink:href="http://sparql.cwrc.ca/ontologies/cwrc#catholicism" xlink:title="Roman Catholicism" target="_parent">
<ellipse fill="none" stroke="black" cx="114.795" cy="-162" rx="81.7856" ry="18"/>
<text text-anchor="middle" x="114.795" y="-158.3" font-family="Times,serif" font-size="14.00">Roman Catholicism</text>
</a>
</g>
</g>
<!-- Xe7b0a&#45;&gt;X32f53 -->
<g id="edge8" class="edge"><title>Xe7b0a&#45;&gt;X32f53</title>
<path fill="none" stroke="black" d="M72.8289,-216.411C79.5117,-207.906 87.7878,-197.372 95.2196,-187.914"/>
<polygon fill="black" stroke="black" points="98.0458,-189.982 101.472,-179.956 92.5416,-185.657 98.0458,-189.982"/>
</g>
<!-- X32f53&#45;&gt;Xadf16 -->
<g id="edge9" class="edge"><title>X32f53&#45;&gt;Xadf16</title>
<path fill="none" stroke="black" d="M178.706,-150.596C262.728,-136.918 409.001,-113.106 488.853,-100.107"/>
<polygon fill="black" stroke="black" points="489.417,-103.561 498.724,-98.4999 488.292,-96.6522 489.417,-103.561"/>
</g>
<!-- X043aa -->
<g id="node12" class="node"><title>X043aa</title>
<g id="a_node12"><a xlink:href="http://sparql.cwrc.ca/ontologies/cwrc#unitarianism" xlink:title="Unitarianism" target="_parent">
<ellipse fill="none" stroke="black" cx="793.795" cy="-234" rx="57.3905" ry="18"/>
<text text-anchor="middle" x="793.795" y="-230.3" font-family="Times,serif" font-size="14.00">Unitarianism</text>
</a>
</g>
</g>
<!-- X043aa&#45;&gt;X4e4b1 -->
<g id="edge10" class="edge"><title>X043aa&#45;&gt;X4e4b1</title>
<path fill="none" stroke="black" d="M816.876,-217.465C831.316,-207.745 850.12,-195.089 865.966,-184.423"/>
<polygon fill="black" stroke="black" points="868.077,-187.221 874.419,-178.734 864.168,-181.414 868.077,-187.221"/>
</g>
<!-- X52798 -->
<g id="node21" class="node"><title>X52798</title>
<g id="a_node21"><a xlink:href="http://sparql.cwrc.ca/ontologies/cwrc#pantheism" xlink:title="Pantheism" target="_parent">
<ellipse fill="none" stroke="black" cx="1403.79" cy="-162" rx="48.1917" ry="18"/>
<text text-anchor="middle" x="1403.79" y="-158.3" font-family="Times,serif" font-size="14.00">Pantheism</text>
</a>
</g>
</g>
<!-- X43c0c&#45;&gt;X52798 -->
<!-- X253de -->
<g id="node14" class="node"><title>X253de</title>
<g id="a_node14"><a xlink:href="http://sparql.cwrc.ca/ontologies/cwrc#quakerism" xlink:title="Quakerism" target="_parent">
<ellipse fill="none" stroke="black" cx="770.795" cy="-306" rx="50.0912" ry="18"/>
<text text-anchor="middle" x="770.795" y="-302.3" font-family="Times,serif" font-size="14.00">Quakerism</text>
</a>
</g>
</g>
<!-- X253de&#45;&gt;X4e4b1 -->
<g id="edge12" class="edge"><title>X253de&#45;&gt;X4e4b1</title>
<path fill="none" stroke="black" d="M803.066,-291.91C821.693,-282.99 844.404,-269.598 859.795,-252 875.38,-234.181 885.321,-209.014 891.109,-189.987"/>
<polygon fill="black" stroke="black" points="894.542,-190.709 893.907,-180.134 887.809,-188.797 894.542,-190.709"/>
</g>
<!-- X156db -->
<g id="node15" class="node"><title>X156db</title>
<g id="a_node15"><a xlink:href="http://sparql.cwrc.ca/ontologies/cwrc#dissentProtestant" xlink:title="Dissent (Protestant)" target="_parent">
<ellipse fill="none" stroke="black" cx="599.795" cy="-234" rx="80.6858" ry="18"/>
<text text-anchor="middle" x="599.795" y="-230.3" font-family="Times,serif" font-size="14.00">Dissent (Protestant)</text>
</a>
</g>
</g>
<!-- X253de&#45;&gt;X156db -->
<g id="edge13" class="edge"><title>X253de&#45;&gt;X156db</title>
<path fill="none" stroke="black" d="M739.032,-291.998C712.886,-281.295 675.465,-265.976 646,-253.915"/>
<polygon fill="black" stroke="black" points="647.319,-250.672 636.738,-250.123 644.667,-257.151 647.319,-250.672"/>
</g>
<!-- X156db&#45;&gt;Xf6f10 -->
<g id="edge14" class="edge"><title>X156db&#45;&gt;Xf6f10</title>
<path fill="none" stroke="black" d="M586.481,-216.055C579.793,-207.543 571.563,-197.068 564.187,-187.681"/>
<polygon fill="black" stroke="black" points="566.916,-185.49 557.986,-179.789 561.412,-189.815 566.916,-185.49"/>
</g>
<!-- X7477d -->
<g id="node16" class="node"><title>X7477d</title>
<g id="a_node16"><a xlink:href="http://sparql.cwrc.ca/ontologies/cwrc#congregationalism" xlink:title="Congregationalism" target="_parent">
<ellipse fill="none" stroke="black" cx="916.795" cy="-306" rx="77.9862" ry="18"/>
<text text-anchor="middle" x="916.795" y="-302.3" font-family="Times,serif" font-size="14.00">Congregationalism</text>
</a>
</g>
</g>
<!-- X7477d&#45;&gt;X4e4b1 -->
<g id="edge15" class="edge"><title>X7477d&#45;&gt;X4e4b1</title>
<path fill="none" stroke="black" d="M914.503,-287.871C911.265,-263.67 905.316,-219.211 901.46,-190.393"/>
<polygon fill="black" stroke="black" points="904.89,-189.637 900.095,-180.189 897.952,-190.565 904.89,-189.637"/>
</g>
<!-- Xd53bc -->
<g id="node17" class="node"><title>Xd53bc</title>
<g id="a_node17"><a xlink:href="http://sparql.cwrc.ca/ontologies/cwrc#baptistChristianity" xlink:title="Baptist Christianity" target="_parent">
<ellipse fill="none" stroke="black" cx="953.795" cy="-378" rx="79.0865" ry="18"/>
<text text-anchor="middle" x="953.795" y="-374.3" font-family="Times,serif" font-size="14.00">Baptist Christianity</text>
</a>
</g>
</g>
<!-- Xd53bc&#45;&gt;X4e4b1 -->
<g id="edge16" class="edge"><title>Xd53bc&#45;&gt;X4e4b1</title>
<path fill="none" stroke="black" d="M975.607,-360.657C986.283,-351.26 998.05,-338.46 1003.79,-324 1009.7,-309.13 1009.31,-303.021 1003.79,-288 988.339,-245.878 951.706,-208.221 925.848,-185.509"/>
<polygon fill="black" stroke="black" points="928.074,-182.807 918.205,-178.953 923.516,-188.12 928.074,-182.807"/>
</g>
<!-- X6f203 -->
<g id="node18" class="node"><title>X6f203</title>
<g id="a_node18"><a xlink:href="http://sparql.cwrc.ca/ontologies/cwrc#christianScience" xlink:title="Christian Science" target="_parent">
<ellipse fill="none" stroke="black" cx="397.795" cy="-162" rx="72.5877" ry="18"/>
<text text-anchor="middle" x="397.795" y="-158.3" font-family="Times,serif" font-size="14.00">Christian Science</text>
</a>
</g>
</g>
<!-- X6f203&#45;&gt;Xadf16 -->
<g id="edge17" class="edge"><title>X6f203&#45;&gt;Xadf16</title>
<path fill="none" stroke="black" d="M429.692,-145.811C452.204,-135.091 482.482,-120.673 506.333,-109.315"/>
<polygon fill="black" stroke="black" points="507.934,-112.429 515.458,-104.97 504.925,-106.109 507.934,-112.429"/>
</g>
<!-- Xb800b -->
<g id="node19" class="node"><title>Xb800b</title>
<g id="a_node19"><a xlink:href="http://sparql.cwrc.ca/ontologies/cwrc#tractarianMovement" xlink:title="Tractarian Movement" target="_parent">
<ellipse fill="none" stroke="black" cx="225.795" cy="-234" rx="88.2844" ry="18"/>
<text text-anchor="middle" x="225.795" y="-230.3" font-family="Times,serif" font-size="14.00">Tractarian Movement</text>
</a>
</g>
</g>
<!-- Xb800b&#45;&gt;Xf6f10 -->
<g id="edge18" class="edge"><title>Xb800b&#45;&gt;Xf6f10</title>
<path fill="none" stroke="black" d="M287.317,-221.06C338.876,-210.839 414.344,-195.377 479.795,-180 484.193,-178.967 488.748,-177.857 493.313,-176.717"/>
<polygon fill="black" stroke="black" points="494.429,-180.045 503.261,-174.193 492.708,-173.26 494.429,-180.045"/>
</g>
<!-- X2a5d0 -->
<g id="node20" class="node"><title>X2a5d0</title>
<g id="a_node20"><a xlink:href="http://sparql.cwrc.ca/ontologies/cwrc#churchOfIreland" xlink:title="Church of Ireland" target="_parent">
<ellipse fill="none" stroke="black" cx="340.795" cy="-306" rx="73.387" ry="18"/>
<text text-anchor="middle" x="340.795" y="-302.3" font-family="Times,serif" font-size="14.00">Church of Ireland</text>
</a>
</g>
</g>
<!-- X2a5d0&#45;&gt;Xf6f10 -->
<g id="edge19" class="edge"><title>X2a5d0&#45;&gt;Xf6f10</title>
<path fill="none" stroke="black" d="M339.795,-287.899C339.603,-268.026 342.44,-235.479 360.795,-216 365.48,-211.028 440.034,-190.583 492.784,-176.59"/>
<polygon fill="black" stroke="black" points="493.915,-179.912 502.687,-173.971 492.125,-173.144 493.915,-179.912"/>
</g>
<!-- X7152e -->
<g id="node24" class="node"><title>X7152e</title>
<g id="a_node24"><a xlink:href="http://sparql.cwrc.ca/ontologies/cwrc#atheism" xlink:title="Atheism" target="_parent">
<ellipse fill="none" stroke="black" cx="1403.79" cy="-90" rx="40.8928" ry="18"/>
<text text-anchor="middle" x="1403.79" y="-86.3" font-family="Times,serif" font-size="14.00">Atheism</text>
</a>
</g>
</g>
<!-- X52798&#45;&gt;X7152e -->
<!-- Xc1422 -->
<g id="node22" class="node"><title>Xc1422</title>
<g id="a_node22"><a xlink:href="http://sparql.cwrc.ca/ontologies/cwrc#islam" xlink:title="Islamism" target="_parent">
<ellipse fill="none" stroke="black" cx="1018.79" cy="-162" rx="44.393" ry="18"/>
<text text-anchor="middle" x="1018.79" y="-158.3" font-family="Times,serif" font-size="14.00">Islamism</text>
</a>
</g>
</g>
<!-- Xc1422&#45;&gt;Xb2336 -->
<g id="edge21" class="edge"><title>Xc1422&#45;&gt;Xb2336</title>
<path fill="none" stroke="black" d="M993.611,-146.865C948.924,-121.784 855.557,-69.3803 803.288,-40.0435"/>
<polygon fill="black" stroke="black" points="804.77,-36.862 794.337,-35.0196 801.344,-42.9662 804.77,-36.862"/>
</g>
<!-- X9deb8 -->
<g id="node23" class="node"><title>X9deb8</title>
<g id="a_node23"><a xlink:href="http://sparql.cwrc.ca/ontologies/cwrc#dissentingChristianity" xlink:title="Dissenting Christianity" target="_parent">
<ellipse fill="none" stroke="black" cx="1060.79" cy="-450" rx="92.0841" ry="18"/>
<text text-anchor="middle" x="1060.79" y="-446.3" font-family="Times,serif" font-size="14.00">Dissenting Christianity</text>
</a>
</g>
</g>
<!-- X9deb8&#45;&gt;X4e4b1 -->
<g id="edge22" class="edge"><title>X9deb8&#45;&gt;X4e4b1</title>
<path fill="none" stroke="black" d="M1060.01,-431.985C1057.18,-389.951 1044.29,-279.984 985.795,-216 973.019,-202.025 955.706,-190.527 939.815,-181.853"/>
<polygon fill="black" stroke="black" points="941.153,-178.603 930.669,-177.076 937.912,-184.808 941.153,-178.603"/>
</g>
<!-- X37200 -->
<g id="node27" class="node"><title>X37200</title>
<g id="a_node27"><a xlink:href="http://sparql.cwrc.ca/ontologies/cwrc#paganism" xlink:title="Paganism" target="_parent">
<ellipse fill="none" stroke="black" cx="1403.79" cy="-18" rx="45.4919" ry="18"/>
<text text-anchor="middle" x="1403.79" y="-14.3" font-family="Times,serif" font-size="14.00">Paganism</text>
</a>
</g>
</g>
<!-- X7152e&#45;&gt;X37200 -->
<!-- Xb45be -->
<g id="node25" class="node"><title>Xb45be</title>
<g id="a_node25"><a xlink:href="http://sparql.cwrc.ca/ontologies/cwrc#millenarianism" xlink:title="Millenarianism" target="_parent">
<ellipse fill="none" stroke="black" cx="435.795" cy="-234" rx="65.7887" ry="18"/>
<text text-anchor="middle" x="435.795" y="-230.3" font-family="Times,serif" font-size="14.00">Millenarianism</text>
</a>
</g>
</g>
<!-- Xd2614 -->
<g id="node26" class="node"><title>Xd2614</title>
<g id="a_node26"><a xlink:href="http://sparql.cwrc.ca/ontologies/cwrc#fifthMonarchists" xlink:title="Fifth Monarchists" target="_parent">
<ellipse fill="none" stroke="black" cx="506.795" cy="-306" rx="74.187" ry="18"/>
<text text-anchor="middle" x="506.795" y="-302.3" font-family="Times,serif" font-size="14.00">Fifth Monarchists</text>
</a>
</g>
</g>
<!-- Xd2614&#45;&gt;X156db -->
<g id="edge24" class="edge"><title>Xd2614&#45;&gt;X156db</title>
<path fill="none" stroke="black" d="M528.365,-288.765C540.718,-279.467 556.404,-267.66 569.928,-257.481"/>
<polygon fill="black" stroke="black" points="572.135,-260.2 578.02,-251.39 567.925,-254.607 572.135,-260.2"/>
</g>
<!-- Xd2614&#45;&gt;Xb45be -->
<g id="edge25" class="edge"><title>Xd2614&#45;&gt;Xb45be</title>
<path fill="none" stroke="black" d="M489.969,-288.411C480.95,-279.519 469.683,-268.411 459.763,-258.631"/>
<polygon fill="black" stroke="black" points="462.078,-255.998 452.5,-251.47 457.164,-260.983 462.078,-255.998"/>
</g>
<!-- X8fa8b -->
<g id="node28" class="node"><title>X8fa8b</title>
<g id="a_node28"><a xlink:href="http://sparql.cwrc.ca/ontologies/cwrc#plymouthBrethren" xlink:title="Plymouth Brethren" target="_parent">
<ellipse fill="none" stroke="black" cx="1252.79" cy="-522" rx="78.7863" ry="18"/>
<text text-anchor="middle" x="1252.79" y="-518.3" font-family="Times,serif" font-size="14.00">Plymouth Brethren</text>
</a>
</g>
</g>
<!-- X8fa8b&#45;&gt;X4e4b1 -->
<g id="edge27" class="edge"><title>X8fa8b&#45;&gt;X4e4b1</title>
<path fill="none" stroke="black" d="M1252.79,-503.951C1252.79,-477.292 1252.79,-424.115 1252.79,-379 1252.79,-379 1252.79,-379 1252.79,-305 1252.79,-264.553 1263.47,-243.481 1233.79,-216 1189.7,-175.172 1024.81,-191.305 965.795,-180 960.842,-179.051 955.711,-177.964 950.59,-176.809"/>
<polygon fill="black" stroke="black" points="951.335,-173.389 940.801,-174.52 949.742,-180.205 951.335,-173.389"/>
</g>
<!-- X0e2fa -->
<g id="node29" class="node"><title>X0e2fa</title>
<g id="a_node29"><a xlink:href="http://sparql.cwrc.ca/ontologies/cwrc#presbyterianism" xlink:title="Presbyterianism" target="_parent">
<ellipse fill="none" stroke="black" cx="1156.79" cy="-234" rx="67.6881" ry="18"/>
<text text-anchor="middle" x="1156.79" y="-230.3" font-family="Times,serif" font-size="14.00">Presbyterianism</text>
</a>
</g>
</g>
<!-- X0e2fa&#45;&gt;X4e4b1 -->
<g id="edge28" class="edge"><title>X0e2fa&#45;&gt;X4e4b1</title>
<path fill="none" stroke="black" d="M1111.09,-220.647C1066.07,-208.481 997.394,-189.919 950.197,-177.163"/>
<polygon fill="black" stroke="black" points="951.035,-173.764 940.468,-174.533 949.208,-180.521 951.035,-173.764"/>
</g>
<!-- Xe1e3e -->
<g id="node30" class="node"><title>Xe1e3e</title>
<g id="a_node30"><a xlink:href="http://sparql.cwrc.ca/ontologies/cwrc#methodism" xlink:title="Methodism" target="_parent">
<ellipse fill="none" stroke="black" cx="650.795" cy="-306" rx="51.9908" ry="18"/>
<text text-anchor="middle" x="650.795" y="-302.3" font-family="Times,serif" font-size="14.00">Methodism</text>
</a>
</g>
</g>
<!-- Xe1e3e&#45;&gt;X4e4b1 -->
<g id="edge29" class="edge"><title>Xe1e3e&#45;&gt;X4e4b1</title>
<path fill="none" stroke="black" d="M663.351,-288.408C680.947,-265.54 712.498,-226.02 727.795,-216 760.63,-194.493 802.711,-181.282 836.791,-173.429"/>
<polygon fill="black" stroke="black" points="837.622,-176.83 846.633,-171.257 836.113,-169.994 837.622,-176.83"/>
</g>
</g>
</svg>
