<?xml version="1.0" encoding="UTF-8" standalone="no"?>
<!DOCTYPE svg PUBLIC "-//W3C//DTD SVG 1.1//EN"
 "http://www.w3.org/Graphics/SVG/1.1/DTD/svg11.dtd">
<!-- Generated by graphviz version 2.38.0 (20140413.2041)
 -->
<!-- Title: ReligionGraph Pages: 1 -->
<svg width="1333pt" height="620pt"
 viewBox="0.00 0.00 1332.93 620.00" xmlns="http://www.w3.org/2000/svg" xmlns:xlink="http://www.w3.org/1999/xlink">
<g id="graph0" class="graph" transform="scale(1 1) rotate(0) translate(4 616)">
<title>ReligionGraph</title>
<polygon fill="white" stroke="none" points="-4,4 -4,-616 1328.93,-616 1328.93,4 -4,4"/>
<!-- Xd32ac -->
<g id="node1" class="node"><title>Xd32ac</title>
<g id="a_node1"><a xlink:href="http://sparql.cwrc.ca/ontologies/cwrc#judaism" xlink:title="Judaism" target="_parent">
<ellipse fill="none" stroke="black" cx="542.443" cy="-90" rx="40.0939" ry="18"/>
<text text-anchor="middle" x="542.443" y="-86.3" font-family="Times,serif" font-size="14.00">Judaism</text>
</a>
</g>
</g>
<!-- Xb2336 -->
<g id="node2" class="node"><title>Xb2336</title>
<g id="a_node2"><a xlink:href="http://sparql.cwrc.ca/ontologies/cwrc#abrahamicReligions" xlink:title="Abrahamic religions" target="_parent">
<ellipse fill="none" stroke="black" cx="652.443" cy="-18" rx="83.3857" ry="18"/>
<text text-anchor="middle" x="652.443" y="-14.3" font-family="Times,serif" font-size="14.00">Abrahamic religions</text>
</a>
</g>
</g>
<!-- Xd32ac&#45;&gt;Xb2336 -->
<g id="edge1" class="edge"><title>Xd32ac&#45;&gt;Xb2336</title>
<path fill="none" stroke="black" d="M564.704,-74.8345C579.993,-65.1048 600.59,-51.9979 617.985,-40.9283"/>
<polygon fill="black" stroke="black" points="620.187,-43.6755 626.745,-35.3539 616.429,-37.7699 620.187,-43.6755"/>
</g>
<!-- X0e2fa -->
<g id="node3" class="node"><title>X0e2fa</title>
<g id="a_node3"><a xlink:href="http://sparql.cwrc.ca/ontologies/cwrc#presbyterianism" xlink:title="Presbyterianism" target="_parent">
<ellipse fill="none" stroke="black" cx="409.443" cy="-306" rx="67.6881" ry="18"/>
<text text-anchor="middle" x="409.443" y="-302.3" font-family="Times,serif" font-size="14.00">Presbyterianism</text>
</a>
</g>
</g>
<!-- X156db -->
<g id="node4" class="node"><title>X156db</title>
<g id="a_node4"><a xlink:href="http://sparql.cwrc.ca/ontologies/cwrc#dissentProtestant" xlink:title="Dissent (Protestant)" target="_parent">
<ellipse fill="none" stroke="black" cx="581.443" cy="-234" rx="80.6858" ry="18"/>
<text text-anchor="middle" x="581.443" y="-230.3" font-family="Times,serif" font-size="14.00">Dissent (Protestant)</text>
</a>
</g>
</g>
<!-- X0e2fa&#45;&gt;X156db -->
<g id="edge2" class="edge"><title>X0e2fa&#45;&gt;X156db</title>
<path fill="none" stroke="black" d="M445.082,-290.496C471.161,-279.882 506.781,-265.386 535.075,-253.871"/>
<polygon fill="black" stroke="black" points="536.422,-257.101 544.365,-250.09 533.784,-250.618 536.422,-257.101"/>
</g>
<!-- X4e4b1 -->
<g id="node5" class="node"><title>X4e4b1</title>
<g id="a_node5"><a xlink:href="http://sparql.cwrc.ca/ontologies/cwrc#protestantism" xlink:title="Protestantism" target="_parent">
<ellipse fill="none" stroke="black" cx="652.443" cy="-162" rx="59.2899" ry="18"/>
<text text-anchor="middle" x="652.443" y="-158.3" font-family="Times,serif" font-size="14.00">Protestantism</text>
</a>
</g>
</g>
<!-- X156db&#45;&gt;X4e4b1 -->
<g id="edge3" class="edge"><title>X156db&#45;&gt;X4e4b1</title>
<path fill="none" stroke="black" d="M598.631,-216.055C607.657,-207.156 618.858,-196.112 628.701,-186.408"/>
<polygon fill="black" stroke="black" points="631.24,-188.82 635.904,-179.307 626.325,-183.835 631.24,-188.82"/>
</g>
<!-- Xadf16 -->
<g id="node16" class="node"><title>Xadf16</title>
<g id="a_node16"><a xlink:href="http://sparql.cwrc.ca/ontologies/cwrc#christianity" xlink:title="Christianity" target="_parent">
<ellipse fill="none" stroke="black" cx="652.443" cy="-90" rx="51.9908" ry="18"/>
<text text-anchor="middle" x="652.443" y="-86.3" font-family="Times,serif" font-size="14.00">Christianity</text>
</a>
</g>
</g>
<!-- X4e4b1&#45;&gt;Xadf16 -->
<g id="edge13" class="edge"><title>X4e4b1&#45;&gt;Xadf16</title>
<path fill="none" stroke="black" d="M652.443,-143.697C652.443,-135.983 652.443,-126.712 652.443,-118.112"/>
<polygon fill="black" stroke="black" points="655.944,-118.104 652.443,-108.104 648.944,-118.104 655.944,-118.104"/>
</g>
<!-- X7477d -->
<g id="node6" class="node"><title>X7477d</title>
<g id="a_node6"><a xlink:href="http://sparql.cwrc.ca/ontologies/cwrc#congregationalism" xlink:title="Congregationalism" target="_parent">
<ellipse fill="none" stroke="black" cx="437.443" cy="-378" rx="77.9862" ry="18"/>
<text text-anchor="middle" x="437.443" y="-374.3" font-family="Times,serif" font-size="14.00">Congregationalism</text>
</a>
</g>
</g>
<!-- X7477d&#45;&gt;X156db -->
<g id="edge4" class="edge"><title>X7477d&#45;&gt;X156db</title>
<path fill="none" stroke="black" d="M454.528,-360.153C479.968,-335.066 527.93,-287.77 557.055,-259.05"/>
<polygon fill="black" stroke="black" points="559.719,-261.339 564.382,-251.825 554.804,-256.354 559.719,-261.339"/>
</g>
<!-- X3b80a -->
<g id="node7" class="node"><title>X3b80a</title>
<g id="a_node7"><a xlink:href="http://sparql.cwrc.ca/ontologies/cwrc#buddhism" xlink:title="Buddhism" target="_parent">
<ellipse fill="none" stroke="black" cx="1227.44" cy="-594" rx="47.3916" ry="18"/>
<text text-anchor="middle" x="1227.44" y="-590.3" font-family="Times,serif" font-size="14.00">Buddhism</text>
</a>
</g>
</g>
<!-- Xc7ed9 -->
<g id="node8" class="node"><title>Xc7ed9</title>
<g id="a_node8"><a xlink:href="http://sparql.cwrc.ca/ontologies/cwrc#hinduism" xlink:title="Hinduism" target="_parent">
<ellipse fill="none" stroke="black" cx="1227.44" cy="-522" rx="46.2923" ry="18"/>
<text text-anchor="middle" x="1227.44" y="-518.3" font-family="Times,serif" font-size="14.00">Hinduism</text>
</a>
</g>
</g>
<!-- X3b80a&#45;&gt;Xc7ed9 -->
<!-- X37200 -->
<g id="node9" class="node"><title>X37200</title>
<g id="a_node9"><a xlink:href="http://sparql.cwrc.ca/ontologies/cwrc#paganism" xlink:title="Paganism" target="_parent">
<ellipse fill="none" stroke="black" cx="1227.44" cy="-450" rx="45.4919" ry="18"/>
<text text-anchor="middle" x="1227.44" y="-446.3" font-family="Times,serif" font-size="14.00">Paganism</text>
</a>
</g>
</g>
<!-- Xc7ed9&#45;&gt;X37200 -->
<!-- X43c0c -->
<g id="node10" class="node"><title>X43c0c</title>
<g id="a_node10"><a xlink:href="http://sparql.cwrc.ca/ontologies/cwrc#occultism" xlink:title="Occultism/Theosophism" target="_parent">
<ellipse fill="none" stroke="black" cx="1227.44" cy="-378" rx="97.4827" ry="18"/>
<text text-anchor="middle" x="1227.44" y="-374.3" font-family="Times,serif" font-size="14.00">Occultism/Theosophism</text>
</a>
</g>
</g>
<!-- X37200&#45;&gt;X43c0c -->
<!-- X36b94 -->
<g id="node17" class="node"><title>X36b94</title>
<g id="a_node17"><a xlink:href="http://sparql.cwrc.ca/ontologies/cwrc#agnosticism" xlink:title="Agnosticism" target="_parent">
<ellipse fill="none" stroke="black" cx="1227.44" cy="-306" rx="55.7903" ry="18"/>
<text text-anchor="middle" x="1227.44" y="-302.3" font-family="Times,serif" font-size="14.00">Agnosticism</text>
</a>
</g>
</g>
<!-- X43c0c&#45;&gt;X36b94 -->
<!-- Xb45be -->
<g id="node11" class="node"><title>Xb45be</title>
<g id="a_node11"><a xlink:href="http://sparql.cwrc.ca/ontologies/cwrc#millenarianism" xlink:title="Millenarianism" target="_parent">
<ellipse fill="none" stroke="black" cx="821.443" cy="-234" rx="65.7887" ry="18"/>
<text text-anchor="middle" x="821.443" y="-230.3" font-family="Times,serif" font-size="14.00">Millenarianism</text>
</a>
</g>
</g>
<!-- Xe1e3e -->
<g id="node12" class="node"><title>Xe1e3e</title>
<g id="a_node12"><a xlink:href="http://sparql.cwrc.ca/ontologies/cwrc#methodism" xlink:title="Methodism" target="_parent">
<ellipse fill="none" stroke="black" cx="501.443" cy="-450" rx="51.9908" ry="18"/>
<text text-anchor="middle" x="501.443" y="-446.3" font-family="Times,serif" font-size="14.00">Methodism</text>
</a>
</g>
</g>
<!-- Xe1e3e&#45;&gt;X156db -->
<g id="edge8" class="edge"><title>Xe1e3e&#45;&gt;X156db</title>
<path fill="none" stroke="black" d="M509.204,-431.939C513.813,-421.612 519.669,-408.134 524.443,-396 542.86,-349.192 561.899,-293.722 572.648,-261.624"/>
<polygon fill="black" stroke="black" points="575.992,-262.658 575.835,-252.064 569.352,-260.443 575.992,-262.658"/>
</g>
<!-- X253de -->
<g id="node13" class="node"><title>X253de</title>
<g id="a_node13"><a xlink:href="http://sparql.cwrc.ca/ontologies/cwrc#quakerism" xlink:title="Quakerism" target="_parent">
<ellipse fill="none" stroke="black" cx="541.443" cy="-522" rx="50.0912" ry="18"/>
<text text-anchor="middle" x="541.443" y="-518.3" font-family="Times,serif" font-size="14.00">Quakerism</text>
</a>
</g>
</g>
<!-- X253de&#45;&gt;X156db -->
<g id="edge9" class="edge"><title>X253de&#45;&gt;X156db</title>
<path fill="none" stroke="black" d="M549.572,-504.227C554.149,-494.001 559.519,-480.53 562.443,-468 579.453,-395.129 581.817,-306.364 581.808,-262.398"/>
<polygon fill="black" stroke="black" points="585.307,-262.207 581.762,-252.223 578.308,-262.239 585.307,-262.207"/>
</g>
<!-- X1cc79 -->
<g id="node14" class="node"><title>X1cc79</title>
<g id="a_node14"><a xlink:href="http://sparql.cwrc.ca/ontologies/cwrc#lollardy" xlink:title="Lollardy" target="_parent">
<ellipse fill="none" stroke="black" cx="1074.44" cy="-234" rx="40.8928" ry="18"/>
<text text-anchor="middle" x="1074.44" y="-230.3" font-family="Times,serif" font-size="14.00">Lollardy</text>
</a>
</g>
</g>
<!-- X32f53 -->
<g id="node15" class="node"><title>X32f53</title>
<g id="a_node15"><a xlink:href="http://sparql.cwrc.ca/ontologies/cwrc#catholicism" xlink:title="Roman Catholicism" target="_parent">
<ellipse fill="none" stroke="black" cx="909.443" cy="-162" rx="81.7856" ry="18"/>
<text text-anchor="middle" x="909.443" y="-158.3" font-family="Times,serif" font-size="14.00">Roman Catholicism</text>
</a>
</g>
</g>
<!-- X1cc79&#45;&gt;X32f53 -->
<g id="edge10" class="edge"><title>X1cc79&#45;&gt;X32f53</title>
<path fill="none" stroke="black" d="M1046.08,-220.967C1021.08,-210.36 984.204,-194.716 955.061,-182.353"/>
<polygon fill="black" stroke="black" points="956.075,-178.981 945.502,-178.298 953.341,-185.425 956.075,-178.981"/>
</g>
<!-- X32f53&#45;&gt;Xadf16 -->
<g id="edge11" class="edge"><title>X32f53&#45;&gt;Xadf16</title>
<path fill="none" stroke="black" d="M860.195,-147.586C814.707,-135.196 747.48,-116.885 701.919,-104.476"/>
<polygon fill="black" stroke="black" points="702.825,-101.095 692.257,-101.844 700.985,-107.849 702.825,-101.095"/>
</g>
<!-- Xadf16&#45;&gt;Xb2336 -->
<g id="edge22" class="edge"><title>Xadf16&#45;&gt;Xb2336</title>
<path fill="none" stroke="black" d="M652.443,-71.6966C652.443,-63.9827 652.443,-54.7125 652.443,-46.1124"/>
<polygon fill="black" stroke="black" points="655.944,-46.1043 652.443,-36.1043 648.944,-46.1044 655.944,-46.1043"/>
</g>
<!-- X52798 -->
<g id="node18" class="node"><title>X52798</title>
<g id="a_node18"><a xlink:href="http://sparql.cwrc.ca/ontologies/cwrc#pantheism" xlink:title="Pantheism" target="_parent">
<ellipse fill="none" stroke="black" cx="1227.44" cy="-234" rx="48.1917" ry="18"/>
<text text-anchor="middle" x="1227.44" y="-230.3" font-family="Times,serif" font-size="14.00">Pantheism</text>
</a>
</g>
</g>
<!-- X36b94&#45;&gt;X52798 -->
<!-- X7152e -->
<g id="node19" class="node"><title>X7152e</title>
<g id="a_node19"><a xlink:href="http://sparql.cwrc.ca/ontologies/cwrc#atheism" xlink:title="Atheism" target="_parent">
<ellipse fill="none" stroke="black" cx="1227.44" cy="-162" rx="40.8928" ry="18"/>
<text text-anchor="middle" x="1227.44" y="-158.3" font-family="Times,serif" font-size="14.00">Atheism</text>
</a>
</g>
</g>
<!-- X52798&#45;&gt;X7152e -->
<!-- Xd2614 -->
<g id="node20" class="node"><title>Xd2614</title>
<g id="a_node20"><a xlink:href="http://sparql.cwrc.ca/ontologies/cwrc#fifthMonarchists" xlink:title="Fifth Monarchists" target="_parent">
<ellipse fill="none" stroke="black" cx="897.443" cy="-306" rx="74.187" ry="18"/>
<text text-anchor="middle" x="897.443" y="-302.3" font-family="Times,serif" font-size="14.00">Fifth Monarchists</text>
</a>
</g>
</g>
<!-- Xd2614&#45;&gt;X156db -->
<g id="edge16" class="edge"><title>Xd2614&#45;&gt;X156db</title>
<path fill="none" stroke="black" d="M844.552,-293.284C790.075,-281.216 705.087,-262.389 646.521,-249.416"/>
<polygon fill="black" stroke="black" points="647.154,-245.971 636.633,-247.226 645.64,-252.806 647.154,-245.971"/>
</g>
<!-- Xd2614&#45;&gt;Xb45be -->
<g id="edge17" class="edge"><title>Xd2614&#45;&gt;Xb45be</title>
<path fill="none" stroke="black" d="M879.433,-288.411C869.684,-279.432 857.481,-268.193 846.788,-258.344"/>
<polygon fill="black" stroke="black" points="849.052,-255.67 839.325,-251.47 844.309,-260.819 849.052,-255.67"/>
</g>
<!-- Xb800b -->
<g id="node21" class="node"><title>Xb800b</title>
<g id="a_node21"><a xlink:href="http://sparql.cwrc.ca/ontologies/cwrc#tractarianMovement" xlink:title="Tractarian Movement" target="_parent">
<ellipse fill="none" stroke="black" cx="236.443" cy="-234" rx="88.2844" ry="18"/>
<text text-anchor="middle" x="236.443" y="-230.3" font-family="Times,serif" font-size="14.00">Tractarian Movement</text>
</a>
</g>
</g>
<!-- Xf6f10 -->
<g id="node22" class="node"><title>Xf6f10</title>
<g id="a_node22"><a xlink:href="http://sparql.cwrc.ca/ontologies/cwrc#anglicanism" xlink:title="Anglicanism" target="_parent">
<ellipse fill="none" stroke="black" cx="236.443" cy="-162" rx="55.7903" ry="18"/>
<text text-anchor="middle" x="236.443" y="-158.3" font-family="Times,serif" font-size="14.00">Anglicanism</text>
</a>
</g>
</g>
<!-- Xb800b&#45;&gt;Xf6f10 -->
<g id="edge18" class="edge"><title>Xb800b&#45;&gt;Xf6f10</title>
<path fill="none" stroke="black" d="M236.443,-215.697C236.443,-207.983 236.443,-198.712 236.443,-190.112"/>
<polygon fill="black" stroke="black" points="239.944,-190.104 236.443,-180.104 232.944,-190.104 239.944,-190.104"/>
</g>
<!-- Xf6f10&#45;&gt;Xadf16 -->
<g id="edge19" class="edge"><title>Xf6f10&#45;&gt;Xadf16</title>
<path fill="none" stroke="black" d="M288.541,-155.267C358.059,-147.152 484.788,-130.732 591.443,-108 595.795,-107.073 600.295,-106.014 604.788,-104.888"/>
<polygon fill="black" stroke="black" points="605.758,-108.252 614.552,-102.341 603.992,-101.478 605.758,-108.252"/>
</g>
<!-- X043aa -->
<g id="node23" class="node"><title>X043aa</title>
<g id="a_node23"><a xlink:href="http://sparql.cwrc.ca/ontologies/cwrc#unitarianism" xlink:title="Unitarianism" target="_parent">
<ellipse fill="none" stroke="black" cx="619.443" cy="-594" rx="57.3905" ry="18"/>
<text text-anchor="middle" x="619.443" y="-590.3" font-family="Times,serif" font-size="14.00">Unitarianism</text>
</a>
</g>
</g>
<!-- X043aa&#45;&gt;X156db -->
<g id="edge20" class="edge"><title>X043aa&#45;&gt;X156db</title>
<path fill="none" stroke="black" d="M619.443,-575.951C619.443,-549.292 619.443,-496.115 619.443,-451 619.443,-451 619.443,-451 619.443,-377 619.443,-335.633 604.209,-289.722 593.032,-261.605"/>
<polygon fill="black" stroke="black" points="596.164,-260.019 589.133,-252.093 589.687,-262.673 596.164,-260.019"/>
</g>
<!-- Xe7b0a -->
<g id="node24" class="node"><title>Xe7b0a</title>
<g id="a_node24"><a xlink:href="http://sparql.cwrc.ca/ontologies/cwrc#neo-thomism" xlink:title="Neo&#45;thomism" target="_parent">
<ellipse fill="none" stroke="black" cx="1049.44" cy="-306" rx="59.5901" ry="18"/>
<text text-anchor="middle" x="1049.44" y="-302.3" font-family="Times,serif" font-size="14.00">Neo&#45;thomism</text>
</a>
</g>
</g>
<!-- Xe7b0a&#45;&gt;X32f53 -->
<g id="edge21" class="edge"><title>Xe7b0a&#45;&gt;X32f53</title>
<path fill="none" stroke="black" d="M1033.11,-288.433C1008.48,-263.45 961.692,-215.995 933.261,-187.157"/>
<polygon fill="black" stroke="black" points="935.62,-184.566 926.107,-179.902 930.636,-189.48 935.62,-184.566"/>
</g>
<!-- X8fa8b -->
<g id="node25" class="node"><title>X8fa8b</title>
<g id="a_node25"><a xlink:href="http://sparql.cwrc.ca/ontologies/cwrc#plymouthBrethren" xlink:title="Plymouth Brethren" target="_parent">
<ellipse fill="none" stroke="black" cx="726.443" cy="-306" rx="78.7863" ry="18"/>
<text text-anchor="middle" x="726.443" y="-302.3" font-family="Times,serif" font-size="14.00">Plymouth Brethren</text>
</a>
</g>
</g>
<!-- X8fa8b&#45;&gt;X156db -->
<g id="edge23" class="edge"><title>X8fa8b&#45;&gt;X156db</title>
<path fill="none" stroke="black" d="M694.263,-289.465C673.217,-279.305 645.525,-265.936 622.843,-254.986"/>
<polygon fill="black" stroke="black" points="624.311,-251.808 613.784,-250.613 621.268,-258.112 624.311,-251.808"/>
</g>
<!-- X8fa8b&#45;&gt;Xb45be -->
<g id="edge24" class="edge"><title>X8fa8b&#45;&gt;Xb45be</title>
<path fill="none" stroke="black" d="M748.957,-288.411C761.589,-279.103 777.516,-267.367 791.222,-257.268"/>
<polygon fill="black" stroke="black" points="793.445,-259.978 799.419,-251.228 789.292,-254.343 793.445,-259.978"/>
</g>
<!-- Xc1422 -->
<g id="node26" class="node"><title>Xc1422</title>
<g id="a_node26"><a xlink:href="http://sparql.cwrc.ca/ontologies/cwrc#islam" xlink:title="Islamism" target="_parent">
<ellipse fill="none" stroke="black" cx="1053.44" cy="-162" rx="44.393" ry="18"/>
<text text-anchor="middle" x="1053.44" y="-158.3" font-family="Times,serif" font-size="14.00">Islamism</text>
</a>
</g>
</g>
<!-- Xc1422&#45;&gt;Xb2336 -->
<g id="edge25" class="edge"><title>Xc1422&#45;&gt;Xb2336</title>
<path fill="none" stroke="black" d="M1021.31,-149.62C951.853,-125.025 787.278,-66.747 703.439,-37.0584"/>
<polygon fill="black" stroke="black" points="704.466,-33.7091 693.871,-33.6702 702.129,-40.3076 704.466,-33.7091"/>
</g>
<!-- Xd53bc -->
<g id="node27" class="node"><title>Xd53bc</title>
<g id="a_node27"><a xlink:href="http://sparql.cwrc.ca/ontologies/cwrc#baptistChristianity" xlink:title="Baptist Christianity" target="_parent">
<ellipse fill="none" stroke="black" cx="244.443" cy="-306" rx="79.0865" ry="18"/>
<text text-anchor="middle" x="244.443" y="-302.3" font-family="Times,serif" font-size="14.00">Baptist Christianity</text>
</a>
</g>
</g>
<!-- Xd53bc&#45;&gt;X156db -->
<g id="edge26" class="edge"><title>Xd53bc&#45;&gt;X156db</title>
<path fill="none" stroke="black" d="M300.85,-293.284C359.689,-281.062 451.901,-261.908 514.418,-248.922"/>
<polygon fill="black" stroke="black" points="515.492,-252.274 524.572,-246.813 514.069,-245.42 515.492,-252.274"/>
</g>
<!-- X2a5d0 -->
<g id="node28" class="node"><title>X2a5d0</title>
<g id="a_node28"><a xlink:href="http://sparql.cwrc.ca/ontologies/cwrc#churchOfIreland" xlink:title="Church of Ireland" target="_parent">
<ellipse fill="none" stroke="black" cx="73.4435" cy="-306" rx="73.387" ry="18"/>
<text text-anchor="middle" x="73.4435" y="-302.3" font-family="Times,serif" font-size="14.00">Church of Ireland</text>
</a>
</g>
</g>
<!-- X2a5d0&#45;&gt;Xf6f10 -->
<g id="edge27" class="edge"><title>X2a5d0&#45;&gt;Xf6f10</title>
<path fill="none" stroke="black" d="M83.0433,-287.858C94.5111,-268.542 115.216,-237.095 139.443,-216 155.589,-201.942 176.082,-190.072 194.068,-181.153"/>
<polygon fill="black" stroke="black" points="195.711,-184.246 203.209,-176.761 192.68,-177.937 195.711,-184.246"/>
</g>
<!-- X6f203 -->
<g id="node29" class="node"><title>X6f203</title>
<g id="a_node29"><a xlink:href="http://sparql.cwrc.ca/ontologies/cwrc#christianScience" xlink:title="Christian Science" target="_parent">
<ellipse fill="none" stroke="black" cx="502.443" cy="-162" rx="72.5877" ry="18"/>
<text text-anchor="middle" x="502.443" y="-158.3" font-family="Times,serif" font-size="14.00">Christian Science</text>
</a>
</g>
</g>
<!-- X6f203&#45;&gt;Xadf16 -->
<g id="edge28" class="edge"><title>X6f203&#45;&gt;Xadf16</title>
<path fill="none" stroke="black" d="M534.991,-145.811C558.04,-135.055 589.063,-120.577 613.438,-109.202"/>
<polygon fill="black" stroke="black" points="615.178,-112.253 622.759,-104.853 612.217,-105.91 615.178,-112.253"/>
</g>
</g>
</svg>
