<?xml version="1.0" encoding="UTF-8" standalone="no"?>
<!DOCTYPE svg PUBLIC "-//W3C//DTD SVG 1.1//EN"
 "http://www.w3.org/Graphics/SVG/1.1/DTD/svg11.dtd">
<!-- Generated by graphviz version 2.38.0 (20140413.2041)
 -->
<!-- Title: ReligionGraph Pages: 1 -->
<svg width="1758pt" height="548pt"
 viewBox="0.00 0.00 1758.28 548.00" xmlns="http://www.w3.org/2000/svg" xmlns:xlink="http://www.w3.org/1999/xlink">
<g id="graph0" class="graph" transform="scale(1 1) rotate(0) translate(4 544)">
<title>ReligionGraph</title>
<polygon fill="white" stroke="none" points="-4,4 -4,-544 1754.28,-544 1754.28,4 -4,4"/>
<!-- X253de -->
<g id="node1" class="node"><title>X253de</title>
<g id="a_node1"><a xlink:href="http://sparql.cwrc.ca/ontologies/cwrc#quakerism" xlink:title="Quakerism" target="_parent">
<ellipse fill="none" stroke="black" cx="921.091" cy="-306" rx="61.99" ry="18"/>
<text text-anchor="middle" x="921.091" y="-302.3" font-family="Times,serif" font-size="14.00">Quakerism</text>
</a>
</g>
</g>
<!-- X4e4b1 -->
<g id="node2" class="node"><title>X4e4b1</title>
<g id="a_node2"><a xlink:href="http://sparql.cwrc.ca/ontologies/cwrc#protestantism" xlink:title="Protestantism" target="_parent">
<ellipse fill="none" stroke="black" cx="580.091" cy="-162" rx="76.8869" ry="18"/>
<text text-anchor="middle" x="580.091" y="-158.3" font-family="Times,serif" font-size="14.00">Protestantism</text>
</a>
</g>
</g>
<!-- X253de&#45;&gt;X4e4b1 -->
<g id="edge1" class="edge"><title>X253de&#45;&gt;X4e4b1</title>
<path fill="none" stroke="black" d="M885.199,-291.327C859.882,-281.311 825.397,-266.913 796.091,-252 768.375,-237.896 764.307,-229.076 736.091,-216 704.381,-201.304 667.402,-188.563 637.409,-179.258"/>
<polygon fill="black" stroke="black" points="638.109,-175.813 627.522,-176.237 636.063,-182.507 638.109,-175.813"/>
</g>
<!-- X156db -->
<g id="node3" class="node"><title>X156db</title>
<g id="a_node3"><a xlink:href="http://sparql.cwrc.ca/ontologies/cwrc#dissentProtestant" xlink:title="Dissent (Protestant)" target="_parent">
<ellipse fill="none" stroke="black" cx="910.091" cy="-234" rx="104.782" ry="18"/>
<text text-anchor="middle" x="910.091" y="-230.3" font-family="Times,serif" font-size="14.00">Dissent (Protestant)</text>
</a>
</g>
</g>
<!-- X253de&#45;&gt;X156db -->
<g id="edge2" class="edge"><title>X253de&#45;&gt;X156db</title>
<path fill="none" stroke="black" d="M918.372,-287.697C917.16,-279.983 915.703,-270.712 914.352,-262.112"/>
<polygon fill="black" stroke="black" points="917.789,-261.44 912.779,-252.104 910.874,-262.526 917.789,-261.44"/>
</g>
<!-- Xadf16 -->
<g id="node4" class="node"><title>Xadf16</title>
<g id="a_node4"><a xlink:href="http://sparql.cwrc.ca/ontologies/cwrc#christianity" xlink:title="Christianity" target="_parent">
<ellipse fill="none" stroke="black" cx="1025.09" cy="-90" rx="66.0889" ry="18"/>
<text text-anchor="middle" x="1025.09" y="-86.3" font-family="Times,serif" font-size="14.00">Christianity</text>
</a>
</g>
</g>
<!-- X4e4b1&#45;&gt;Xadf16 -->
<g id="edge3" class="edge"><title>X4e4b1&#45;&gt;Xadf16</title>
<path fill="none" stroke="black" d="M641.966,-151.267C725.5,-138.127 873.709,-114.813 959.24,-101.359"/>
<polygon fill="black" stroke="black" points="960.016,-104.78 969.351,-99.7681 958.928,-97.8647 960.016,-104.78"/>
</g>
<!-- Xf6f10 -->
<g id="node5" class="node"><title>Xf6f10</title>
<g id="a_node5"><a xlink:href="http://sparql.cwrc.ca/ontologies/cwrc#anglicanism" xlink:title="Anglicanism" target="_parent">
<ellipse fill="none" stroke="black" cx="1025.09" cy="-162" rx="68.4888" ry="18"/>
<text text-anchor="middle" x="1025.09" y="-158.3" font-family="Times,serif" font-size="14.00">Anglicanism</text>
</a>
</g>
</g>
<!-- X156db&#45;&gt;Xf6f10 -->
<g id="edge4" class="edge"><title>X156db&#45;&gt;Xf6f10</title>
<path fill="none" stroke="black" d="M937.054,-216.588C952.996,-206.884 973.35,-194.494 990.471,-184.073"/>
<polygon fill="black" stroke="black" points="992.367,-187.017 999.089,-178.827 988.727,-181.037 992.367,-187.017"/>
</g>
<!-- Xb2336 -->
<g id="node8" class="node"><title>Xb2336</title>
<g id="a_node8"><a xlink:href="http://sparql.cwrc.ca/ontologies/cwrc#abrahamicReligions" xlink:title="Abrahamic religions" target="_parent">
<ellipse fill="none" stroke="black" cx="1233.09" cy="-18" rx="104.782" ry="18"/>
<text text-anchor="middle" x="1233.09" y="-14.3" font-family="Times,serif" font-size="14.00">Abrahamic religions</text>
</a>
</g>
</g>
<!-- Xadf16&#45;&gt;Xb2336 -->
<g id="edge6" class="edge"><title>Xadf16&#45;&gt;Xb2336</title>
<path fill="none" stroke="black" d="M1065.2,-75.5033C1097.24,-64.7178 1142.51,-49.4845 1177.96,-37.5522"/>
<polygon fill="black" stroke="black" points="1179.32,-40.7876 1187.69,-34.2807 1177.09,-34.1532 1179.32,-40.7876"/>
</g>
<!-- Xf6f10&#45;&gt;Xadf16 -->
<g id="edge10" class="edge"><title>Xf6f10&#45;&gt;Xadf16</title>
<path fill="none" stroke="black" d="M1025.09,-143.697C1025.09,-135.983 1025.09,-126.712 1025.09,-118.112"/>
<polygon fill="black" stroke="black" points="1028.59,-118.104 1025.09,-108.104 1021.59,-118.104 1028.59,-118.104"/>
</g>
<!-- X52798 -->
<g id="node6" class="node"><title>X52798</title>
<g id="a_node6"><a xlink:href="http://sparql.cwrc.ca/ontologies/cwrc#pantheism" xlink:title="Pantheism" target="_parent">
<ellipse fill="none" stroke="black" cx="1628.09" cy="-522" rx="59.5901" ry="18"/>
<text text-anchor="middle" x="1628.09" y="-518.3" font-family="Times,serif" font-size="14.00">Pantheism</text>
</a>
</g>
</g>
<!-- X43c0c -->
<g id="node7" class="node"><title>X43c0c</title>
<g id="a_node7"><a xlink:href="http://sparql.cwrc.ca/ontologies/cwrc#occultism" xlink:title="Occultism/Theosophism" target="_parent">
<ellipse fill="none" stroke="black" cx="1628.09" cy="-450" rx="122.379" ry="18"/>
<text text-anchor="middle" x="1628.09" y="-446.3" font-family="Times,serif" font-size="14.00">Occultism/Theosophism</text>
</a>
</g>
</g>
<!-- X52798&#45;&gt;X43c0c -->
<!-- Xd35c6 -->
<g id="node10" class="node"><title>Xd35c6</title>
<g id="a_node10"><a xlink:href="http://sparql.cwrc.ca/ontologies/cwrc#spiritualism" xlink:title="Spiritualism" target="_parent">
<ellipse fill="none" stroke="black" cx="1628.09" cy="-378" rx="67.6881" ry="18"/>
<text text-anchor="middle" x="1628.09" y="-374.3" font-family="Times,serif" font-size="14.00">Spiritualism</text>
</a>
</g>
</g>
<!-- X43c0c&#45;&gt;Xd35c6 -->
<!-- X32f53 -->
<g id="node9" class="node"><title>X32f53</title>
<g id="a_node9"><a xlink:href="http://sparql.cwrc.ca/ontologies/cwrc#catholicism" xlink:title="Roman Catholicism" target="_parent">
<ellipse fill="none" stroke="black" cx="1213.09" cy="-162" rx="101.282" ry="18"/>
<text text-anchor="middle" x="1213.09" y="-158.3" font-family="Times,serif" font-size="14.00">Roman Catholicism</text>
</a>
</g>
</g>
<!-- X32f53&#45;&gt;Xadf16 -->
<g id="edge7" class="edge"><title>X32f53&#45;&gt;Xadf16</title>
<path fill="none" stroke="black" d="M1171.37,-145.465C1141.99,-134.525 1102.61,-119.865 1072.12,-108.51"/>
<polygon fill="black" stroke="black" points="1073.15,-105.158 1062.55,-104.949 1070.7,-111.718 1073.15,-105.158"/>
</g>
<!-- X36b94 -->
<g id="node13" class="node"><title>X36b94</title>
<g id="a_node13"><a xlink:href="http://sparql.cwrc.ca/ontologies/cwrc#agnosticism" xlink:title="Agnosticism" target="_parent">
<ellipse fill="none" stroke="black" cx="1628.09" cy="-306" rx="68.4888" ry="18"/>
<text text-anchor="middle" x="1628.09" y="-302.3" font-family="Times,serif" font-size="14.00">Agnosticism</text>
</a>
</g>
</g>
<!-- Xd35c6&#45;&gt;X36b94 -->
<!-- X2a5d0 -->
<g id="node11" class="node"><title>X2a5d0</title>
<g id="a_node11"><a xlink:href="http://sparql.cwrc.ca/ontologies/cwrc#churchOfIreland" xlink:title="Church of Ireland" target="_parent">
<ellipse fill="none" stroke="black" cx="1307.09" cy="-234" rx="93.6835" ry="18"/>
<text text-anchor="middle" x="1307.09" y="-230.3" font-family="Times,serif" font-size="14.00">Church of Ireland</text>
</a>
</g>
</g>
<!-- X2a5d0&#45;&gt;Xf6f10 -->
<g id="edge9" class="edge"><title>X2a5d0&#45;&gt;Xf6f10</title>
<path fill="none" stroke="black" d="M1252.05,-219.337C1203.31,-207.24 1132.42,-189.642 1082.88,-177.344"/>
<polygon fill="black" stroke="black" points="1083.5,-173.893 1072.95,-174.881 1081.82,-180.687 1083.5,-173.893"/>
</g>
<!-- Xd32ac -->
<g id="node12" class="node"><title>Xd32ac</title>
<g id="a_node12"><a xlink:href="http://sparql.cwrc.ca/ontologies/cwrc#judaism" xlink:title="Judaism" target="_parent">
<ellipse fill="none" stroke="black" cx="1233.09" cy="-90" rx="48.1917" ry="18"/>
<text text-anchor="middle" x="1233.09" y="-86.3" font-family="Times,serif" font-size="14.00">Judaism</text>
</a>
</g>
</g>
<!-- Xd32ac&#45;&gt;Xb2336 -->
<g id="edge11" class="edge"><title>Xd32ac&#45;&gt;Xb2336</title>
<path fill="none" stroke="black" d="M1233.09,-71.6966C1233.09,-63.9827 1233.09,-54.7125 1233.09,-46.1124"/>
<polygon fill="black" stroke="black" points="1236.59,-46.1043 1233.09,-36.1043 1229.59,-46.1044 1236.59,-46.1043"/>
</g>
<!-- X7152e -->
<g id="node16" class="node"><title>X7152e</title>
<g id="a_node16"><a xlink:href="http://sparql.cwrc.ca/ontologies/cwrc#atheism" xlink:title="Atheism" target="_parent">
<ellipse fill="none" stroke="black" cx="1628.09" cy="-234" rx="49.2915" ry="18"/>
<text text-anchor="middle" x="1628.09" y="-230.3" font-family="Times,serif" font-size="14.00">Atheism</text>
</a>
</g>
</g>
<!-- X36b94&#45;&gt;X7152e -->
<!-- X043aa -->
<g id="node14" class="node"><title>X043aa</title>
<g id="a_node14"><a xlink:href="http://sparql.cwrc.ca/ontologies/cwrc#unitarianism" xlink:title="Unitarianism" target="_parent">
<ellipse fill="none" stroke="black" cx="629.091" cy="-234" rx="71.4873" ry="18"/>
<text text-anchor="middle" x="629.091" y="-230.3" font-family="Times,serif" font-size="14.00">Unitarianism</text>
</a>
</g>
</g>
<!-- X043aa&#45;&gt;X4e4b1 -->
<g id="edge13" class="edge"><title>X043aa&#45;&gt;X4e4b1</title>
<path fill="none" stroke="black" d="M617.23,-216.055C611.391,-207.715 604.235,-197.491 597.767,-188.252"/>
<polygon fill="black" stroke="black" points="600.445,-185.974 591.843,-179.789 594.711,-189.988 600.445,-185.974"/>
</g>
<!-- X0e2fa -->
<g id="node15" class="node"><title>X0e2fa</title>
<g id="a_node15"><a xlink:href="http://sparql.cwrc.ca/ontologies/cwrc#presbyterianism" xlink:title="Presbyterianism" target="_parent">
<ellipse fill="none" stroke="black" cx="754.091" cy="-306" rx="87.1846" ry="18"/>
<text text-anchor="middle" x="754.091" y="-302.3" font-family="Times,serif" font-size="14.00">Presbyterianism</text>
</a>
</g>
</g>
<!-- X0e2fa&#45;&gt;X4e4b1 -->
<g id="edge14" class="edge"><title>X0e2fa&#45;&gt;X4e4b1</title>
<path fill="none" stroke="black" d="M749.366,-287.681C743.154,-267.905 730.449,-235.747 709.091,-216 690.424,-198.741 665.369,-186.723 642.306,-178.551"/>
<polygon fill="black" stroke="black" points="643.162,-175.147 632.568,-175.28 640.933,-181.782 643.162,-175.147"/>
</g>
<!-- X37200 -->
<g id="node17" class="node"><title>X37200</title>
<g id="a_node17"><a xlink:href="http://sparql.cwrc.ca/ontologies/cwrc#paganism" xlink:title="Paganism" target="_parent">
<ellipse fill="none" stroke="black" cx="1628.09" cy="-162" rx="55.7903" ry="18"/>
<text text-anchor="middle" x="1628.09" y="-158.3" font-family="Times,serif" font-size="14.00">Paganism</text>
</a>
</g>
</g>
<!-- X7152e&#45;&gt;X37200 -->
<!-- X3b80a -->
<g id="node19" class="node"><title>X3b80a</title>
<g id="a_node19"><a xlink:href="http://sparql.cwrc.ca/ontologies/cwrc#buddhism" xlink:title="Buddhism" target="_parent">
<ellipse fill="none" stroke="black" cx="1628.09" cy="-90" rx="57.6901" ry="18"/>
<text text-anchor="middle" x="1628.09" y="-86.3" font-family="Times,serif" font-size="14.00">Buddhism</text>
</a>
</g>
</g>
<!-- X37200&#45;&gt;X3b80a -->
<!-- X8fa8b -->
<g id="node18" class="node"><title>X8fa8b</title>
<g id="a_node18"><a xlink:href="http://sparql.cwrc.ca/ontologies/cwrc#plymouthBrethren" xlink:title="Plymouth Brethren" target="_parent">
<ellipse fill="none" stroke="black" cx="100.091" cy="-378" rx="100.182" ry="18"/>
<text text-anchor="middle" x="100.091" y="-374.3" font-family="Times,serif" font-size="14.00">Plymouth Brethren</text>
</a>
</g>
</g>
<!-- X8fa8b&#45;&gt;X4e4b1 -->
<g id="edge17" class="edge"><title>X8fa8b&#45;&gt;X4e4b1</title>
<path fill="none" stroke="black" d="M106.675,-359.794C120.669,-325.813 156.852,-250.41 214.091,-216 321.625,-151.355 370.255,-200.177 494.091,-180 500.752,-178.915 507.686,-177.695 514.598,-176.421"/>
<polygon fill="black" stroke="black" points="515.496,-179.813 524.676,-174.523 514.201,-172.934 515.496,-179.813"/>
</g>
<!-- Xc7ed9 -->
<g id="node24" class="node"><title>Xc7ed9</title>
<g id="a_node24"><a xlink:href="http://sparql.cwrc.ca/ontologies/cwrc#hinduism" xlink:title="Hinduism" target="_parent">
<ellipse fill="none" stroke="black" cx="1628.09" cy="-18" rx="55.7903" ry="18"/>
<text text-anchor="middle" x="1628.09" y="-14.3" font-family="Times,serif" font-size="14.00">Hinduism</text>
</a>
</g>
</g>
<!-- X3b80a&#45;&gt;Xc7ed9 -->
<!-- Xb800b -->
<g id="node20" class="node"><title>Xb800b</title>
<g id="a_node20"><a xlink:href="http://sparql.cwrc.ca/ontologies/cwrc#tractarianMovement" xlink:title="Tractarian Movement" target="_parent">
<ellipse fill="none" stroke="black" cx="1429.09" cy="-306" rx="112.38" ry="18"/>
<text text-anchor="middle" x="1429.09" y="-302.3" font-family="Times,serif" font-size="14.00">Tractarian Movement</text>
</a>
</g>
</g>
<!-- Xb800b&#45;&gt;Xf6f10 -->
<g id="edge19" class="edge"><title>Xb800b&#45;&gt;Xf6f10</title>
<path fill="none" stroke="black" d="M1430.82,-287.739C1431.81,-267.397 1429.95,-234.083 1410.09,-216 1359.3,-169.754 1170.84,-191.327 1103.09,-180 1096.99,-178.98 1090.65,-177.799 1084.33,-176.544"/>
<polygon fill="black" stroke="black" points="1084.96,-173.102 1074.47,-174.524 1083.56,-179.959 1084.96,-173.102"/>
</g>
<!-- Xb45be -->
<g id="node21" class="node"><title>Xb45be</title>
<g id="a_node21"><a xlink:href="http://sparql.cwrc.ca/ontologies/cwrc#millenarianism" xlink:title="Millenarianism" target="_parent">
<ellipse fill="none" stroke="black" cx="1114.09" cy="-234" rx="81.4863" ry="18"/>
<text text-anchor="middle" x="1114.09" y="-230.3" font-family="Times,serif" font-size="14.00">Millenarianism</text>
</a>
</g>
</g>
<!-- X6f203 -->
<g id="node22" class="node"><title>X6f203</title>
<g id="a_node22"><a xlink:href="http://sparql.cwrc.ca/ontologies/cwrc#christianScience" xlink:title="Christian Science" target="_parent">
<ellipse fill="none" stroke="black" cx="392.091" cy="-162" rx="92.8835" ry="18"/>
<text text-anchor="middle" x="392.091" y="-158.3" font-family="Times,serif" font-size="14.00">Christian Science</text>
</a>
</g>
</g>
<!-- X6f203&#45;&gt;Xadf16 -->
<g id="edge20" class="edge"><title>X6f203&#45;&gt;Xadf16</title>
<path fill="none" stroke="black" d="M458.386,-149.302C470.255,-147.393 482.524,-145.54 494.091,-144 657.236,-122.287 849.661,-105.186 952.165,-96.7531"/>
<polygon fill="black" stroke="black" points="952.722,-100.219 962.403,-95.915 952.15,-93.2426 952.722,-100.219"/>
</g>
<!-- X7477d -->
<g id="node23" class="node"><title>X7477d</title>
<g id="a_node23"><a xlink:href="http://sparql.cwrc.ca/ontologies/cwrc#congregationalism" xlink:title="Congregationalism" target="_parent">
<ellipse fill="none" stroke="black" cx="228.091" cy="-450" rx="98.5829" ry="18"/>
<text text-anchor="middle" x="228.091" y="-446.3" font-family="Times,serif" font-size="14.00">Congregationalism</text>
</a>
</g>
</g>
<!-- X7477d&#45;&gt;X4e4b1 -->
<g id="edge21" class="edge"><title>X7477d&#45;&gt;X4e4b1</title>
<path fill="none" stroke="black" d="M223.192,-431.853C212.114,-389.032 190.291,-276.518 247.091,-216 285.051,-175.555 439.421,-189.381 494.091,-180 500.642,-178.876 507.461,-177.641 514.265,-176.365"/>
<polygon fill="black" stroke="black" points="515.022,-179.783 524.191,-174.475 513.713,-172.907 515.022,-179.783"/>
</g>
<!-- Xd2614 -->
<g id="node25" class="node"><title>Xd2614</title>
<g id="a_node25"><a xlink:href="http://sparql.cwrc.ca/ontologies/cwrc#fifthMonarchists" xlink:title="Fifth Monarchists" target="_parent">
<ellipse fill="none" stroke="black" cx="1105.09" cy="-306" rx="94.7833" ry="18"/>
<text text-anchor="middle" x="1105.09" y="-302.3" font-family="Times,serif" font-size="14.00">Fifth Monarchists</text>
</a>
</g>
</g>
<!-- Xd2614&#45;&gt;X156db -->
<g id="edge23" class="edge"><title>Xd2614&#45;&gt;X156db</title>
<path fill="none" stroke="black" d="M1062.78,-289.811C1033.44,-279.28 994.165,-265.18 962.794,-253.919"/>
<polygon fill="black" stroke="black" points="963.927,-250.607 953.332,-250.522 961.561,-257.195 963.927,-250.607"/>
</g>
<!-- Xd2614&#45;&gt;Xb45be -->
<g id="edge24" class="edge"><title>Xd2614&#45;&gt;Xb45be</title>
<path fill="none" stroke="black" d="M1107.32,-287.697C1108.31,-279.983 1109.5,-270.712 1110.61,-262.112"/>
<polygon fill="black" stroke="black" points="1114.09,-262.469 1111.89,-252.104 1107.15,-261.576 1114.09,-262.469"/>
</g>
<!-- Xd53bc -->
<g id="node26" class="node"><title>Xd53bc</title>
<g id="a_node26"><a xlink:href="http://sparql.cwrc.ca/ontologies/cwrc#baptistChristianity" xlink:title="Baptist Christianity" target="_parent">
<ellipse fill="none" stroke="black" cx="383.091" cy="-522" rx="102.882" ry="18"/>
<text text-anchor="middle" x="383.091" y="-518.3" font-family="Times,serif" font-size="14.00">Baptist Christianity</text>
</a>
</g>
</g>
<!-- Xd53bc&#45;&gt;X4e4b1 -->
<g id="edge25" class="edge"><title>Xd53bc&#45;&gt;X4e4b1</title>
<path fill="none" stroke="black" d="M379.833,-503.769C373.077,-463.086 361.358,-359.148 402.091,-288 431.307,-236.968 490.843,-201.769 533.001,-182.023"/>
<polygon fill="black" stroke="black" points="534.601,-185.14 542.248,-177.807 531.697,-178.771 534.601,-185.14"/>
</g>
<!-- X1cc79 -->
<g id="node27" class="node"><title>X1cc79</title>
<g id="a_node27"><a xlink:href="http://sparql.cwrc.ca/ontologies/cwrc#lollardy" xlink:title="Lollardy" target="_parent">
<ellipse fill="none" stroke="black" cx="1506.09" cy="-234" rx="49.2915" ry="18"/>
<text text-anchor="middle" x="1506.09" y="-230.3" font-family="Times,serif" font-size="14.00">Lollardy</text>
</a>
</g>
</g>
<!-- X1cc79&#45;&gt;X32f53 -->
<g id="edge26" class="edge"><title>X1cc79&#45;&gt;X32f53</title>
<path fill="none" stroke="black" d="M1467.84,-222.434C1459.68,-220.25 1451.11,-218.006 1443.09,-216 1389.95,-202.711 1329.58,-188.847 1284.03,-178.634"/>
<polygon fill="black" stroke="black" points="1284.78,-175.214 1274.25,-176.446 1283.25,-182.045 1284.78,-175.214"/>
</g>
<!-- Xe1e3e -->
<g id="node28" class="node"><title>Xe1e3e</title>
<g id="a_node28"><a xlink:href="http://sparql.cwrc.ca/ontologies/cwrc#methodism" xlink:title="Methodism" target="_parent">
<ellipse fill="none" stroke="black" cx="320.091" cy="-234" rx="63.8893" ry="18"/>
<text text-anchor="middle" x="320.091" y="-230.3" font-family="Times,serif" font-size="14.00">Methodism</text>
</a>
</g>
</g>
<!-- Xe1e3e&#45;&gt;X4e4b1 -->
<g id="edge27" class="edge"><title>Xe1e3e&#45;&gt;X4e4b1</title>
<path fill="none" stroke="black" d="M364.491,-221.046C407.821,-209.38 473.99,-191.566 521.593,-178.75"/>
<polygon fill="black" stroke="black" points="522.708,-182.074 531.454,-176.095 520.888,-175.315 522.708,-182.074"/>
</g>
<!-- X9deb8 -->
<g id="node29" class="node"><title>X9deb8</title>
<g id="a_node29"><a xlink:href="http://sparql.cwrc.ca/ontologies/cwrc#dissentingChristianity" xlink:title="Dissenting Christianity" target="_parent">
<ellipse fill="none" stroke="black" cx="530.091" cy="-306" rx="118.879" ry="18"/>
<text text-anchor="middle" x="530.091" y="-302.3" font-family="Times,serif" font-size="14.00">Dissenting Christianity</text>
</a>
</g>
</g>
<!-- X9deb8&#45;&gt;X4e4b1 -->
<g id="edge28" class="edge"><title>X9deb8&#45;&gt;X4e4b1</title>
<path fill="none" stroke="black" d="M532.107,-287.804C534.626,-269.528 539.783,-240.012 549.091,-216 552.713,-206.657 557.854,-197.03 562.911,-188.586"/>
<polygon fill="black" stroke="black" points="565.97,-190.296 568.29,-179.958 560.029,-186.593 565.97,-190.296"/>
</g>
<!-- Xc1422 -->
<g id="node30" class="node"><title>Xc1422</title>
<g id="a_node30"><a xlink:href="http://sparql.cwrc.ca/ontologies/cwrc#islam" xlink:title="Islamism" target="_parent">
<ellipse fill="none" stroke="black" cx="1386.09" cy="-162" rx="53.0913" ry="18"/>
<text text-anchor="middle" x="1386.09" y="-158.3" font-family="Times,serif" font-size="14.00">Islamism</text>
</a>
</g>
</g>
<!-- Xc1422&#45;&gt;Xb2336 -->
<g id="edge29" class="edge"><title>Xc1422&#45;&gt;Xb2336</title>
<path fill="none" stroke="black" d="M1368.54,-144.711C1341.62,-119.728 1290,-71.8143 1258.84,-42.896"/>
<polygon fill="black" stroke="black" points="1261.1,-40.216 1251.39,-35.9787 1256.33,-45.3468 1261.1,-40.216"/>
</g>
</g>
</svg>
