<?xml version="1.0" encoding="UTF-8" standalone="no"?>
<!DOCTYPE svg PUBLIC "-//W3C//DTD SVG 1.1//EN"
 "http://www.w3.org/Graphics/SVG/1.1/DTD/svg11.dtd">
<!-- Generated by graphviz version 2.38.0 (20140413.2041)
 -->
<!-- Title: ReligionGraph Pages: 1 -->
<svg width="2090pt" height="548pt"
 viewBox="0.00 0.00 2089.88 548.00" xmlns="http://www.w3.org/2000/svg" xmlns:xlink="http://www.w3.org/1999/xlink">
<g id="graph0" class="graph" transform="scale(1 1) rotate(0) translate(4 544)">
<title>ReligionGraph</title>
<polygon fill="white" stroke="none" points="-4,4 -4,-544 2085.88,-544 2085.88,4 -4,4"/>
<!-- X156db -->
<g id="node1" class="node"><title>X156db</title>
<g id="a_node1"><a xlink:href="http://sparql.cwrc.ca/ontologies/cwrc#dissentProtestant" xlink:title="Dissent (Protestant)" target="_parent">
<ellipse fill="none" stroke="black" cx="1045.69" cy="-234" rx="104.782" ry="18"/>
<text text-anchor="middle" x="1045.69" y="-230.3" font-family="Times,serif" font-size="14.00">Dissent (Protestant)</text>
</a>
</g>
</g>
<!-- Xf6f10 -->
<g id="node2" class="node"><title>Xf6f10</title>
<g id="a_node2"><a xlink:href="http://sparql.cwrc.ca/ontologies/cwrc#anglicanism" xlink:title="Anglicanism" target="_parent">
<ellipse fill="none" stroke="black" cx="1468.69" cy="-162" rx="68.4888" ry="18"/>
<text text-anchor="middle" x="1468.69" y="-158.3" font-family="Times,serif" font-size="14.00">Anglicanism</text>
</a>
</g>
</g>
<!-- X156db&#45;&gt;Xf6f10 -->
<g id="edge1" class="edge"><title>X156db&#45;&gt;Xf6f10</title>
<path fill="none" stroke="black" d="M1121.85,-221.603C1215.63,-207.529 1365.74,-184.846 1391.69,-180 1397.38,-178.937 1403.29,-177.762 1409.2,-176.54"/>
<polygon fill="black" stroke="black" points="1410.02,-179.943 1419.08,-174.451 1408.58,-173.094 1410.02,-179.943"/>
</g>
<!-- Xadf16 -->
<g id="node3" class="node"><title>Xadf16</title>
<g id="a_node3"><a xlink:href="http://sparql.cwrc.ca/ontologies/cwrc#christianity" xlink:title="Christianity" target="_parent">
<ellipse fill="none" stroke="black" cx="1468.69" cy="-90" rx="66.0889" ry="18"/>
<text text-anchor="middle" x="1468.69" y="-86.3" font-family="Times,serif" font-size="14.00">Christianity</text>
</a>
</g>
</g>
<!-- Xf6f10&#45;&gt;Xadf16 -->
<g id="edge2" class="edge"><title>Xf6f10&#45;&gt;Xadf16</title>
<path fill="none" stroke="black" d="M1468.69,-143.697C1468.69,-135.983 1468.69,-126.712 1468.69,-118.112"/>
<polygon fill="black" stroke="black" points="1472.19,-118.104 1468.69,-108.104 1465.19,-118.104 1472.19,-118.104"/>
</g>
<!-- Xb2336 -->
<g id="node5" class="node"><title>Xb2336</title>
<g id="a_node5"><a xlink:href="http://sparql.cwrc.ca/ontologies/cwrc#abrahamicReligions" xlink:title="Abrahamic religions" target="_parent">
<ellipse fill="none" stroke="black" cx="1674.69" cy="-18" rx="104.782" ry="18"/>
<text text-anchor="middle" x="1674.69" y="-14.3" font-family="Times,serif" font-size="14.00">Abrahamic religions</text>
</a>
</g>
</g>
<!-- Xadf16&#45;&gt;Xb2336 -->
<g id="edge4" class="edge"><title>Xadf16&#45;&gt;Xb2336</title>
<path fill="none" stroke="black" d="M1508.41,-75.5033C1540.15,-64.7178 1584.98,-49.4845 1620.09,-37.5522"/>
<polygon fill="black" stroke="black" points="1621.38,-40.812 1629.72,-34.2807 1619.13,-34.1842 1621.38,-40.812"/>
</g>
<!-- X32f53 -->
<g id="node4" class="node"><title>X32f53</title>
<g id="a_node4"><a xlink:href="http://sparql.cwrc.ca/ontologies/cwrc#catholicism" xlink:title="Roman Catholicism" target="_parent">
<ellipse fill="none" stroke="black" cx="1670.69" cy="-162" rx="101.282" ry="18"/>
<text text-anchor="middle" x="1670.69" y="-158.3" font-family="Times,serif" font-size="14.00">Roman Catholicism</text>
</a>
</g>
</g>
<!-- X32f53&#45;&gt;Xadf16 -->
<g id="edge3" class="edge"><title>X32f53&#45;&gt;Xadf16</title>
<path fill="none" stroke="black" d="M1626.36,-145.638C1594.12,-134.466 1550.49,-119.347 1517.3,-107.845"/>
<polygon fill="black" stroke="black" points="1518.39,-104.519 1507.8,-104.552 1516.1,-111.134 1518.39,-104.519"/>
</g>
<!-- X8fa8b -->
<g id="node6" class="node"><title>X8fa8b</title>
<g id="a_node6"><a xlink:href="http://sparql.cwrc.ca/ontologies/cwrc#plymouthBrethren" xlink:title="Plymouth Brethren" target="_parent">
<ellipse fill="none" stroke="black" cx="414.691" cy="-234" rx="100.182" ry="18"/>
<text text-anchor="middle" x="414.691" y="-230.3" font-family="Times,serif" font-size="14.00">Plymouth Brethren</text>
</a>
</g>
</g>
<!-- X4e4b1 -->
<g id="node7" class="node"><title>X4e4b1</title>
<g id="a_node7"><a xlink:href="http://sparql.cwrc.ca/ontologies/cwrc#protestantism" xlink:title="Protestantism" target="_parent">
<ellipse fill="none" stroke="black" cx="580.691" cy="-162" rx="76.8869" ry="18"/>
<text text-anchor="middle" x="580.691" y="-158.3" font-family="Times,serif" font-size="14.00">Protestantism</text>
</a>
</g>
</g>
<!-- X8fa8b&#45;&gt;X4e4b1 -->
<g id="edge5" class="edge"><title>X8fa8b&#45;&gt;X4e4b1</title>
<path fill="none" stroke="black" d="M451.945,-217.291C476.719,-206.844 509.401,-193.062 535.637,-181.999"/>
<polygon fill="black" stroke="black" points="537.131,-185.167 544.985,-178.057 534.411,-178.717 537.131,-185.167"/>
</g>
<!-- X4e4b1&#45;&gt;Xadf16 -->
<g id="edge6" class="edge"><title>X4e4b1&#45;&gt;Xadf16</title>
<path fill="none" stroke="black" d="M652.233,-155.36C818.285,-142.271 1228.42,-109.94 1395.79,-96.7464"/>
<polygon fill="black" stroke="black" points="1396.29,-100.218 1405.98,-95.9432 1395.74,-93.24 1396.29,-100.218"/>
</g>
<!-- Xe1e3e -->
<g id="node8" class="node"><title>Xe1e3e</title>
<g id="a_node8"><a xlink:href="http://sparql.cwrc.ca/ontologies/cwrc#methodism" xlink:title="Methodism" target="_parent">
<ellipse fill="none" stroke="black" cx="286.691" cy="-306" rx="63.8893" ry="18"/>
<text text-anchor="middle" x="286.691" y="-302.3" font-family="Times,serif" font-size="14.00">Methodism</text>
</a>
</g>
</g>
<!-- Xe1e3e&#45;&gt;X4e4b1 -->
<g id="edge7" class="edge"><title>Xe1e3e&#45;&gt;X4e4b1</title>
<path fill="none" stroke="black" d="M285.189,-287.982C284.425,-267.88 286.51,-234.802 305.691,-216 332.538,-189.682 427.301,-175.82 498.129,-168.969"/>
<polygon fill="black" stroke="black" points="498.764,-172.425 508.395,-168.008 498.112,-165.455 498.764,-172.425"/>
</g>
<!-- Xb800b -->
<g id="node9" class="node"><title>Xb800b</title>
<g id="a_node9"><a xlink:href="http://sparql.cwrc.ca/ontologies/cwrc#tractarianMovement" xlink:title="Tractarian Movement" target="_parent">
<ellipse fill="none" stroke="black" cx="1461.69" cy="-234" rx="112.38" ry="18"/>
<text text-anchor="middle" x="1461.69" y="-230.3" font-family="Times,serif" font-size="14.00">Tractarian Movement</text>
</a>
</g>
</g>
<!-- Xb800b&#45;&gt;Xf6f10 -->
<g id="edge8" class="edge"><title>Xb800b&#45;&gt;Xf6f10</title>
<path fill="none" stroke="black" d="M1463.42,-215.697C1464.19,-207.983 1465.12,-198.712 1465.98,-190.112"/>
<polygon fill="black" stroke="black" points="1469.47,-190.403 1466.98,-180.104 1462.5,-189.706 1469.47,-190.403"/>
</g>
<!-- X043aa -->
<g id="node10" class="node"><title>X043aa</title>
<g id="a_node10"><a xlink:href="http://sparql.cwrc.ca/ontologies/cwrc#unitarianism" xlink:title="Unitarianism" target="_parent">
<ellipse fill="none" stroke="black" cx="481.691" cy="-378" rx="71.4873" ry="18"/>
<text text-anchor="middle" x="481.691" y="-374.3" font-family="Times,serif" font-size="14.00">Unitarianism</text>
</a>
</g>
</g>
<!-- X043aa&#45;&gt;X4e4b1 -->
<g id="edge9" class="edge"><title>X043aa&#45;&gt;X4e4b1</title>
<path fill="none" stroke="black" d="M489.625,-359.849C506.901,-322.505 548.017,-233.628 568.566,-189.209"/>
<polygon fill="black" stroke="black" points="571.834,-190.481 572.856,-179.935 565.481,-187.542 571.834,-190.481"/>
</g>
<!-- Xb45be -->
<g id="node11" class="node"><title>Xb45be</title>
<g id="a_node11"><a xlink:href="http://sparql.cwrc.ca/ontologies/cwrc#millenarianism" xlink:title="Millenarianism" target="_parent">
<ellipse fill="none" stroke="black" cx="1249.69" cy="-234" rx="81.4863" ry="18"/>
<text text-anchor="middle" x="1249.69" y="-230.3" font-family="Times,serif" font-size="14.00">Millenarianism</text>
</a>
</g>
</g>
<!-- X0e2fa -->
<g id="node12" class="node"><title>X0e2fa</title>
<g id="a_node12"><a xlink:href="http://sparql.cwrc.ca/ontologies/cwrc#presbyterianism" xlink:title="Presbyterianism" target="_parent">
<ellipse fill="none" stroke="black" cx="580.691" cy="-450" rx="87.1846" ry="18"/>
<text text-anchor="middle" x="580.691" y="-446.3" font-family="Times,serif" font-size="14.00">Presbyterianism</text>
</a>
</g>
</g>
<!-- X0e2fa&#45;&gt;X4e4b1 -->
<g id="edge10" class="edge"><title>X0e2fa&#45;&gt;X4e4b1</title>
<path fill="none" stroke="black" d="M580.691,-431.966C580.691,-384.291 580.691,-249.185 580.691,-190.63"/>
<polygon fill="black" stroke="black" points="584.191,-190.306 580.691,-180.306 577.191,-190.306 584.191,-190.306"/>
</g>
<!-- X1cc79 -->
<g id="node13" class="node"><title>X1cc79</title>
<g id="a_node13"><a xlink:href="http://sparql.cwrc.ca/ontologies/cwrc#lollardy" xlink:title="Lollardy" target="_parent">
<ellipse fill="none" stroke="black" cx="1678.69" cy="-234" rx="49.2915" ry="18"/>
<text text-anchor="middle" x="1678.69" y="-230.3" font-family="Times,serif" font-size="14.00">Lollardy</text>
</a>
</g>
</g>
<!-- X1cc79&#45;&gt;X32f53 -->
<g id="edge11" class="edge"><title>X1cc79&#45;&gt;X32f53</title>
<path fill="none" stroke="black" d="M1676.71,-215.697C1675.83,-207.983 1674.77,-198.712 1673.79,-190.112"/>
<polygon fill="black" stroke="black" points="1677.26,-189.642 1672.65,-180.104 1670.3,-190.437 1677.26,-189.642"/>
</g>
<!-- X6f203 -->
<g id="node14" class="node"><title>X6f203</title>
<g id="a_node14"><a xlink:href="http://sparql.cwrc.ca/ontologies/cwrc#christianScience" xlink:title="Christian Science" target="_parent">
<ellipse fill="none" stroke="black" cx="1289.69" cy="-162" rx="92.8835" ry="18"/>
<text text-anchor="middle" x="1289.69" y="-158.3" font-family="Times,serif" font-size="14.00">Christian Science</text>
</a>
</g>
</g>
<!-- X6f203&#45;&gt;Xadf16 -->
<g id="edge12" class="edge"><title>X6f203&#45;&gt;Xadf16</title>
<path fill="none" stroke="black" d="M1328.97,-145.638C1356.71,-134.791 1393.96,-120.222 1423.03,-108.857"/>
<polygon fill="black" stroke="black" points="1424.51,-112.037 1432.54,-105.135 1421.96,-105.518 1424.51,-112.037"/>
</g>
<!-- X52798 -->
<g id="node15" class="node"><title>X52798</title>
<g id="a_node15"><a xlink:href="http://sparql.cwrc.ca/ontologies/cwrc#pantheism" xlink:title="Pantheism" target="_parent">
<ellipse fill="none" stroke="black" cx="1959.69" cy="-522" rx="59.5901" ry="18"/>
<text text-anchor="middle" x="1959.69" y="-518.3" font-family="Times,serif" font-size="14.00">Pantheism</text>
</a>
</g>
</g>
<!-- X37200 -->
<g id="node16" class="node"><title>X37200</title>
<g id="a_node16"><a xlink:href="http://sparql.cwrc.ca/ontologies/cwrc#paganism" xlink:title="Paganism" target="_parent">
<ellipse fill="none" stroke="black" cx="1959.69" cy="-450" rx="55.7903" ry="18"/>
<text text-anchor="middle" x="1959.69" y="-446.3" font-family="Times,serif" font-size="14.00">Paganism</text>
</a>
</g>
</g>
<!-- X52798&#45;&gt;X37200 -->
<!-- Xd35c6 -->
<g id="node18" class="node"><title>Xd35c6</title>
<g id="a_node18"><a xlink:href="http://sparql.cwrc.ca/ontologies/cwrc#spiritualism" xlink:title="Spiritualism" target="_parent">
<ellipse fill="none" stroke="black" cx="1959.69" cy="-378" rx="67.6881" ry="18"/>
<text text-anchor="middle" x="1959.69" y="-374.3" font-family="Times,serif" font-size="14.00">Spiritualism</text>
</a>
</g>
</g>
<!-- X37200&#45;&gt;Xd35c6 -->
<!-- Xc1422 -->
<g id="node17" class="node"><title>Xc1422</title>
<g id="a_node17"><a xlink:href="http://sparql.cwrc.ca/ontologies/cwrc#islam" xlink:title="Islamism" target="_parent">
<ellipse fill="none" stroke="black" cx="1674.69" cy="-90" rx="53.0913" ry="18"/>
<text text-anchor="middle" x="1674.69" y="-86.3" font-family="Times,serif" font-size="14.00">Islamism</text>
</a>
</g>
</g>
<!-- Xc1422&#45;&gt;Xb2336 -->
<g id="edge14" class="edge"><title>Xc1422&#45;&gt;Xb2336</title>
<path fill="none" stroke="black" d="M1674.69,-71.6966C1674.69,-63.9827 1674.69,-54.7125 1674.69,-46.1124"/>
<polygon fill="black" stroke="black" points="1678.19,-46.1043 1674.69,-36.1043 1671.19,-46.1044 1678.19,-46.1043"/>
</g>
<!-- X3b80a -->
<g id="node22" class="node"><title>X3b80a</title>
<g id="a_node22"><a xlink:href="http://sparql.cwrc.ca/ontologies/cwrc#buddhism" xlink:title="Buddhism" target="_parent">
<ellipse fill="none" stroke="black" cx="1959.69" cy="-306" rx="57.6901" ry="18"/>
<text text-anchor="middle" x="1959.69" y="-302.3" font-family="Times,serif" font-size="14.00">Buddhism</text>
</a>
</g>
</g>
<!-- Xd35c6&#45;&gt;X3b80a -->
<!-- Xe7b0a -->
<g id="node19" class="node"><title>Xe7b0a</title>
<g id="a_node19"><a xlink:href="http://sparql.cwrc.ca/ontologies/cwrc#neo-thomism" xlink:title="Neo&#45;thomism" target="_parent">
<ellipse fill="none" stroke="black" cx="1786.69" cy="-306" rx="73.387" ry="18"/>
<text text-anchor="middle" x="1786.69" y="-302.3" font-family="Times,serif" font-size="14.00">Neo&#45;thomism</text>
</a>
</g>
</g>
<!-- Xe7b0a&#45;&gt;X32f53 -->
<g id="edge16" class="edge"><title>Xe7b0a&#45;&gt;X32f53</title>
<path fill="none" stroke="black" d="M1779.55,-288.056C1771.09,-269.203 1755.71,-238.444 1736.69,-216 1727.3,-204.922 1715.33,-194.5 1704.16,-185.877"/>
<polygon fill="black" stroke="black" points="1705.94,-182.839 1695.84,-179.654 1701.75,-188.445 1705.94,-182.839"/>
</g>
<!-- X7477d -->
<g id="node20" class="node"><title>X7477d</title>
<g id="a_node20"><a xlink:href="http://sparql.cwrc.ca/ontologies/cwrc#congregationalism" xlink:title="Congregationalism" target="_parent">
<ellipse fill="none" stroke="black" cx="874.691" cy="-522" rx="98.5829" ry="18"/>
<text text-anchor="middle" x="874.691" y="-518.3" font-family="Times,serif" font-size="14.00">Congregationalism</text>
</a>
</g>
</g>
<!-- X7477d&#45;&gt;X4e4b1 -->
<g id="edge17" class="edge"><title>X7477d&#45;&gt;X4e4b1</title>
<path fill="none" stroke="black" d="M874.691,-503.951C874.691,-477.292 874.691,-424.115 874.691,-379 874.691,-379 874.691,-379 874.691,-305 874.691,-264.553 884.575,-244.314 855.691,-216 828.843,-189.682 734.081,-175.82 663.253,-168.969"/>
<polygon fill="black" stroke="black" points="663.27,-165.455 652.987,-168.008 662.618,-172.425 663.27,-165.455"/>
</g>
<!-- Xd32ac -->
<g id="node21" class="node"><title>Xd32ac</title>
<g id="a_node21"><a xlink:href="http://sparql.cwrc.ca/ontologies/cwrc#judaism" xlink:title="Judaism" target="_parent">
<ellipse fill="none" stroke="black" cx="1837.69" cy="-162" rx="48.1917" ry="18"/>
<text text-anchor="middle" x="1837.69" y="-158.3" font-family="Times,serif" font-size="14.00">Judaism</text>
</a>
</g>
</g>
<!-- Xd32ac&#45;&gt;Xb2336 -->
<g id="edge18" class="edge"><title>Xd32ac&#45;&gt;Xb2336</title>
<path fill="none" stroke="black" d="M1819.88,-145.163C1799.76,-127.302 1765.99,-97.4299 1736.69,-72 1725.53,-62.3105 1713.16,-51.7103 1702.42,-42.5534"/>
<polygon fill="black" stroke="black" points="1704.46,-39.6924 1694.58,-35.8714 1699.92,-45.0208 1704.46,-39.6924"/>
</g>
<!-- X43c0c -->
<g id="node25" class="node"><title>X43c0c</title>
<g id="a_node25"><a xlink:href="http://sparql.cwrc.ca/ontologies/cwrc#occultism" xlink:title="Occultism/Theosophism" target="_parent">
<ellipse fill="none" stroke="black" cx="1959.69" cy="-234" rx="122.379" ry="18"/>
<text text-anchor="middle" x="1959.69" y="-230.3" font-family="Times,serif" font-size="14.00">Occultism/Theosophism</text>
</a>
</g>
</g>
<!-- X3b80a&#45;&gt;X43c0c -->
<!-- X9deb8 -->
<g id="node23" class="node"><title>X9deb8</title>
<g id="a_node23"><a xlink:href="http://sparql.cwrc.ca/ontologies/cwrc#dissentingChristianity" xlink:title="Dissenting Christianity" target="_parent">
<ellipse fill="none" stroke="black" cx="727.691" cy="-234" rx="118.879" ry="18"/>
<text text-anchor="middle" x="727.691" y="-230.3" font-family="Times,serif" font-size="14.00">Dissenting Christianity</text>
</a>
</g>
</g>
<!-- X9deb8&#45;&gt;X4e4b1 -->
<g id="edge20" class="edge"><title>X9deb8&#45;&gt;X4e4b1</title>
<path fill="none" stroke="black" d="M693.226,-216.588C671.989,-206.476 644.628,-193.446 622.203,-182.768"/>
<polygon fill="black" stroke="black" points="623.46,-179.49 612.927,-178.35 620.45,-185.81 623.46,-179.49"/>
</g>
<!-- X253de -->
<g id="node24" class="node"><title>X253de</title>
<g id="a_node24"><a xlink:href="http://sparql.cwrc.ca/ontologies/cwrc#quakerism" xlink:title="Quakerism" target="_parent">
<ellipse fill="none" stroke="black" cx="1005.69" cy="-306" rx="61.99" ry="18"/>
<text text-anchor="middle" x="1005.69" y="-302.3" font-family="Times,serif" font-size="14.00">Quakerism</text>
</a>
</g>
</g>
<!-- X253de&#45;&gt;X156db -->
<g id="edge21" class="edge"><title>X253de&#45;&gt;X156db</title>
<path fill="none" stroke="black" d="M1015.37,-288.055C1019.97,-280.007 1025.57,-270.205 1030.7,-261.226"/>
<polygon fill="black" stroke="black" points="1033.9,-262.694 1035.82,-252.275 1027.82,-259.221 1033.9,-262.694"/>
</g>
<!-- X253de&#45;&gt;X4e4b1 -->
<g id="edge22" class="edge"><title>X253de&#45;&gt;X4e4b1</title>
<path fill="none" stroke="black" d="M982.695,-289.199C967.919,-278.884 948.429,-264.971 931.691,-252 911.99,-236.733 911.308,-226.474 888.691,-216 818.239,-183.372 730.316,-170.66 666.465,-165.794"/>
<polygon fill="black" stroke="black" points="666.653,-162.299 656.43,-165.079 666.156,-169.281 666.653,-162.299"/>
</g>
<!-- Xc7ed9 -->
<g id="node29" class="node"><title>Xc7ed9</title>
<g id="a_node29"><a xlink:href="http://sparql.cwrc.ca/ontologies/cwrc#hinduism" xlink:title="Hinduism" target="_parent">
<ellipse fill="none" stroke="black" cx="1959.69" cy="-162" rx="55.7903" ry="18"/>
<text text-anchor="middle" x="1959.69" y="-158.3" font-family="Times,serif" font-size="14.00">Hinduism</text>
</a>
</g>
</g>
<!-- X43c0c&#45;&gt;Xc7ed9 -->
<!-- X2a5d0 -->
<g id="node26" class="node"><title>X2a5d0</title>
<g id="a_node26"><a xlink:href="http://sparql.cwrc.ca/ontologies/cwrc#churchOfIreland" xlink:title="Church of Ireland" target="_parent">
<ellipse fill="none" stroke="black" cx="1601.69" cy="-306" rx="93.6835" ry="18"/>
<text text-anchor="middle" x="1601.69" y="-302.3" font-family="Times,serif" font-size="14.00">Church of Ireland</text>
</a>
</g>
</g>
<!-- X2a5d0&#45;&gt;Xf6f10 -->
<g id="edge24" class="edge"><title>X2a5d0&#45;&gt;Xf6f10</title>
<path fill="none" stroke="black" d="M1602.36,-287.69C1602.21,-268.22 1599.14,-236.633 1582.69,-216 1568.66,-198.393 1547.42,-186.37 1527.07,-178.289"/>
<polygon fill="black" stroke="black" points="1528.09,-174.935 1517.49,-174.74 1525.65,-181.498 1528.09,-174.935"/>
</g>
<!-- Xd53bc -->
<g id="node27" class="node"><title>Xd53bc</title>
<g id="a_node27"><a xlink:href="http://sparql.cwrc.ca/ontologies/cwrc#baptistChristianity" xlink:title="Baptist Christianity" target="_parent">
<ellipse fill="none" stroke="black" cx="102.691" cy="-306" rx="102.882" ry="18"/>
<text text-anchor="middle" x="102.691" y="-302.3" font-family="Times,serif" font-size="14.00">Baptist Christianity</text>
</a>
</g>
</g>
<!-- Xd53bc&#45;&gt;X4e4b1 -->
<g id="edge25" class="edge"><title>Xd53bc&#45;&gt;X4e4b1</title>
<path fill="none" stroke="black" d="M130.044,-288.614C164.798,-268.514 227.189,-234.8 284.691,-216 356.108,-192.65 440.78,-178.803 501.231,-171.154"/>
<polygon fill="black" stroke="black" points="501.977,-174.589 511.472,-169.888 501.118,-167.642 501.977,-174.589"/>
</g>
<!-- Xd2614 -->
<g id="node28" class="node"><title>Xd2614</title>
<g id="a_node28"><a xlink:href="http://sparql.cwrc.ca/ontologies/cwrc#fifthMonarchists" xlink:title="Fifth Monarchists" target="_parent">
<ellipse fill="none" stroke="black" cx="1215.69" cy="-306" rx="94.7833" ry="18"/>
<text text-anchor="middle" x="1215.69" y="-302.3" font-family="Times,serif" font-size="14.00">Fifth Monarchists</text>
</a>
</g>
</g>
<!-- Xd2614&#45;&gt;X156db -->
<g id="edge26" class="edge"><title>Xd2614&#45;&gt;X156db</title>
<path fill="none" stroke="black" d="M1177.96,-289.465C1153.13,-279.241 1120.41,-265.768 1093.73,-254.78"/>
<polygon fill="black" stroke="black" points="1094.78,-251.427 1084.2,-250.855 1092.11,-257.899 1094.78,-251.427"/>
</g>
<!-- Xd2614&#45;&gt;Xb45be -->
<g id="edge27" class="edge"><title>Xd2614&#45;&gt;Xb45be</title>
<path fill="none" stroke="black" d="M1223.92,-288.055C1227.79,-280.091 1232.49,-270.411 1236.81,-261.51"/>
<polygon fill="black" stroke="black" points="1240.08,-262.8 1241.3,-252.275 1233.78,-259.741 1240.08,-262.8"/>
</g>
<!-- X7152e -->
<g id="node30" class="node"><title>X7152e</title>
<g id="a_node30"><a xlink:href="http://sparql.cwrc.ca/ontologies/cwrc#atheism" xlink:title="Atheism" target="_parent">
<ellipse fill="none" stroke="black" cx="1959.69" cy="-90" rx="49.2915" ry="18"/>
<text text-anchor="middle" x="1959.69" y="-86.3" font-family="Times,serif" font-size="14.00">Atheism</text>
</a>
</g>
</g>
<!-- Xc7ed9&#45;&gt;X7152e -->
</g>
</svg>
