<?xml version="1.0" encoding="UTF-8" standalone="no"?>
<!DOCTYPE svg PUBLIC "-//W3C//DTD SVG 1.1//EN"
 "http://www.w3.org/Graphics/SVG/1.1/DTD/svg11.dtd">
<!-- Generated by graphviz version 2.38.0 (20140413.2041)
 -->
<!-- Title: ReligionGraph Pages: 1 -->
<svg width="1840pt" height="548pt"
 viewBox="0.00 0.00 1840.39 548.00" xmlns="http://www.w3.org/2000/svg" xmlns:xlink="http://www.w3.org/1999/xlink">
<g id="graph0" class="graph" transform="scale(1 1) rotate(0) translate(4 544)">
<title>ReligionGraph</title>
<polygon fill="white" stroke="none" points="-4,4 -4,-544 1836.39,-544 1836.39,4 -4,4"/>
<!-- Xe1e3e -->
<g id="node1" class="node"><title>Xe1e3e</title>
<g id="a_node1"><a xlink:href="http://sparql.cwrc.ca/ontologies/cwrc#methodism" xlink:title="Methodism" target="_parent">
<ellipse fill="none" stroke="black" cx="660.942" cy="-234" rx="63.8893" ry="18"/>
<text text-anchor="middle" x="660.942" y="-230.3" font-family="Times,serif" font-size="14.00">Methodism</text>
</a>
</g>
</g>
<!-- X4e4b1 -->
<g id="node2" class="node"><title>X4e4b1</title>
<g id="a_node2"><a xlink:href="http://sparql.cwrc.ca/ontologies/cwrc#protestantism" xlink:title="Protestantism" target="_parent">
<ellipse fill="none" stroke="black" cx="753.942" cy="-162" rx="76.8869" ry="18"/>
<text text-anchor="middle" x="753.942" y="-158.3" font-family="Times,serif" font-size="14.00">Protestantism</text>
</a>
</g>
</g>
<!-- Xe1e3e&#45;&gt;X4e4b1 -->
<g id="edge1" class="edge"><title>Xe1e3e&#45;&gt;X4e4b1</title>
<path fill="none" stroke="black" d="M682.512,-216.765C694.865,-207.467 710.551,-195.66 724.075,-185.481"/>
<polygon fill="black" stroke="black" points="726.282,-188.2 732.167,-179.39 722.072,-182.607 726.282,-188.2"/>
</g>
<!-- Xadf16 -->
<g id="node3" class="node"><title>Xadf16</title>
<g id="a_node3"><a xlink:href="http://sparql.cwrc.ca/ontologies/cwrc#christianity" xlink:title="Christianity" target="_parent">
<ellipse fill="none" stroke="black" cx="753.942" cy="-90" rx="66.0889" ry="18"/>
<text text-anchor="middle" x="753.942" y="-86.3" font-family="Times,serif" font-size="14.00">Christianity</text>
</a>
</g>
</g>
<!-- X4e4b1&#45;&gt;Xadf16 -->
<g id="edge2" class="edge"><title>X4e4b1&#45;&gt;Xadf16</title>
<path fill="none" stroke="black" d="M753.942,-143.697C753.942,-135.983 753.942,-126.712 753.942,-118.112"/>
<polygon fill="black" stroke="black" points="757.442,-118.104 753.942,-108.104 750.442,-118.104 757.442,-118.104"/>
</g>
<!-- Xb2336 -->
<g id="node5" class="node"><title>Xb2336</title>
<g id="a_node5"><a xlink:href="http://sparql.cwrc.ca/ontologies/cwrc#abrahamicReligions" xlink:title="Abrahamic religions" target="_parent">
<ellipse fill="none" stroke="black" cx="965.942" cy="-18" rx="104.782" ry="18"/>
<text text-anchor="middle" x="965.942" y="-14.3" font-family="Times,serif" font-size="14.00">Abrahamic religions</text>
</a>
</g>
</g>
<!-- Xadf16&#45;&gt;Xb2336 -->
<g id="edge8" class="edge"><title>Xadf16&#45;&gt;Xb2336</title>
<path fill="none" stroke="black" d="M794.316,-75.6688C827.04,-64.8637 873.522,-49.5161 909.86,-37.5176"/>
<polygon fill="black" stroke="black" points="911.422,-40.6877 919.82,-34.2287 909.227,-34.0407 911.422,-40.6877"/>
</g>
<!-- Xd32ac -->
<g id="node4" class="node"><title>Xd32ac</title>
<g id="a_node4"><a xlink:href="http://sparql.cwrc.ca/ontologies/cwrc#judaism" xlink:title="Judaism" target="_parent">
<ellipse fill="none" stroke="black" cx="965.942" cy="-90" rx="48.1917" ry="18"/>
<text text-anchor="middle" x="965.942" y="-86.3" font-family="Times,serif" font-size="14.00">Judaism</text>
</a>
</g>
</g>
<!-- Xd32ac&#45;&gt;Xb2336 -->
<g id="edge3" class="edge"><title>Xd32ac&#45;&gt;Xb2336</title>
<path fill="none" stroke="black" d="M965.942,-71.6966C965.942,-63.9827 965.942,-54.7125 965.942,-46.1124"/>
<polygon fill="black" stroke="black" points="969.442,-46.1043 965.942,-36.1043 962.442,-46.1044 969.442,-46.1043"/>
</g>
<!-- Xc1422 -->
<g id="node6" class="node"><title>Xc1422</title>
<g id="a_node6"><a xlink:href="http://sparql.cwrc.ca/ontologies/cwrc#islam" xlink:title="Islamism" target="_parent">
<ellipse fill="none" stroke="black" cx="1122.94" cy="-162" rx="53.0913" ry="18"/>
<text text-anchor="middle" x="1122.94" y="-158.3" font-family="Times,serif" font-size="14.00">Islamism</text>
</a>
</g>
</g>
<!-- Xc1422&#45;&gt;Xb2336 -->
<g id="edge4" class="edge"><title>Xc1422&#45;&gt;Xb2336</title>
<path fill="none" stroke="black" d="M1105.24,-144.987C1077.74,-120.113 1024.58,-72.0383 992.479,-43.002"/>
<polygon fill="black" stroke="black" points="994.563,-40.1679 984.799,-36.0557 989.868,-45.3594 994.563,-40.1679"/>
</g>
<!-- X156db -->
<g id="node7" class="node"><title>X156db</title>
<g id="a_node7"><a xlink:href="http://sparql.cwrc.ca/ontologies/cwrc#dissentProtestant" xlink:title="Dissent (Protestant)" target="_parent">
<ellipse fill="none" stroke="black" cx="435.942" cy="-234" rx="104.782" ry="18"/>
<text text-anchor="middle" x="435.942" y="-230.3" font-family="Times,serif" font-size="14.00">Dissent (Protestant)</text>
</a>
</g>
</g>
<!-- Xf6f10 -->
<g id="node8" class="node"><title>Xf6f10</title>
<g id="a_node8"><a xlink:href="http://sparql.cwrc.ca/ontologies/cwrc#anglicanism" xlink:title="Anglicanism" target="_parent">
<ellipse fill="none" stroke="black" cx="369.942" cy="-162" rx="68.4888" ry="18"/>
<text text-anchor="middle" x="369.942" y="-158.3" font-family="Times,serif" font-size="14.00">Anglicanism</text>
</a>
</g>
</g>
<!-- X156db&#45;&gt;Xf6f10 -->
<g id="edge5" class="edge"><title>X156db&#45;&gt;Xf6f10</title>
<path fill="none" stroke="black" d="M419.965,-216.055C411.777,-207.371 401.664,-196.644 392.678,-187.114"/>
<polygon fill="black" stroke="black" points="395.178,-184.664 385.771,-179.789 390.085,-189.466 395.178,-184.664"/>
</g>
<!-- Xf6f10&#45;&gt;Xadf16 -->
<g id="edge6" class="edge"><title>Xf6f10&#45;&gt;Xadf16</title>
<path fill="none" stroke="black" d="M424.552,-151.045C494.658,-138.265 616.084,-116.13 690.299,-102.602"/>
<polygon fill="black" stroke="black" points="691.237,-105.988 700.448,-100.752 689.982,-99.1017 691.237,-105.988"/>
</g>
<!-- X36b94 -->
<g id="node9" class="node"><title>X36b94</title>
<g id="a_node9"><a xlink:href="http://sparql.cwrc.ca/ontologies/cwrc#agnosticism" xlink:title="Agnosticism" target="_parent">
<ellipse fill="none" stroke="black" cx="1558.94" cy="-522" rx="68.4888" ry="18"/>
<text text-anchor="middle" x="1558.94" y="-518.3" font-family="Times,serif" font-size="14.00">Agnosticism</text>
</a>
</g>
</g>
<!-- X37200 -->
<g id="node10" class="node"><title>X37200</title>
<g id="a_node10"><a xlink:href="http://sparql.cwrc.ca/ontologies/cwrc#paganism" xlink:title="Paganism" target="_parent">
<ellipse fill="none" stroke="black" cx="1558.94" cy="-450" rx="55.7903" ry="18"/>
<text text-anchor="middle" x="1558.94" y="-446.3" font-family="Times,serif" font-size="14.00">Paganism</text>
</a>
</g>
</g>
<!-- X36b94&#45;&gt;X37200 -->
<!-- X7152e -->
<g id="node20" class="node"><title>X7152e</title>
<g id="a_node20"><a xlink:href="http://sparql.cwrc.ca/ontologies/cwrc#atheism" xlink:title="Atheism" target="_parent">
<ellipse fill="none" stroke="black" cx="1558.94" cy="-378" rx="49.2915" ry="18"/>
<text text-anchor="middle" x="1558.94" y="-374.3" font-family="Times,serif" font-size="14.00">Atheism</text>
</a>
</g>
</g>
<!-- X37200&#45;&gt;X7152e -->
<!-- X0e2fa -->
<g id="node11" class="node"><title>X0e2fa</title>
<g id="a_node11"><a xlink:href="http://sparql.cwrc.ca/ontologies/cwrc#presbyterianism" xlink:title="Presbyterianism" target="_parent">
<ellipse fill="none" stroke="black" cx="675.942" cy="-306" rx="87.1846" ry="18"/>
<text text-anchor="middle" x="675.942" y="-302.3" font-family="Times,serif" font-size="14.00">Presbyterianism</text>
</a>
</g>
</g>
<!-- X0e2fa&#45;&gt;X4e4b1 -->
<g id="edge9" class="edge"><title>X0e2fa&#45;&gt;X4e4b1</title>
<path fill="none" stroke="black" d="M700.115,-288.469C712.026,-279.106 725.59,-266.394 733.942,-252 744.904,-233.106 749.859,-208.736 752.098,-190.275"/>
<polygon fill="black" stroke="black" points="755.596,-190.478 753.128,-180.175 748.632,-189.768 755.596,-190.478"/>
</g>
<!-- X7477d -->
<g id="node12" class="node"><title>X7477d</title>
<g id="a_node12"><a xlink:href="http://sparql.cwrc.ca/ontologies/cwrc#congregationalism" xlink:title="Congregationalism" target="_parent">
<ellipse fill="none" stroke="black" cx="701.942" cy="-378" rx="98.5829" ry="18"/>
<text text-anchor="middle" x="701.942" y="-374.3" font-family="Times,serif" font-size="14.00">Congregationalism</text>
</a>
</g>
</g>
<!-- X7477d&#45;&gt;X4e4b1 -->
<g id="edge10" class="edge"><title>X7477d&#45;&gt;X4e4b1</title>
<path fill="none" stroke="black" d="M734.787,-360.99C748.96,-352.2 764.07,-339.833 771.942,-324 793.501,-280.635 777.915,-222.769 765.399,-189.527"/>
<polygon fill="black" stroke="black" points="768.584,-188.062 761.658,-180.044 762.072,-190.631 768.584,-188.062"/>
</g>
<!-- Xb800b -->
<g id="node13" class="node"><title>Xb800b</title>
<g id="a_node13"><a xlink:href="http://sparql.cwrc.ca/ontologies/cwrc#tractarianMovement" xlink:title="Tractarian Movement" target="_parent">
<ellipse fill="none" stroke="black" cx="162.942" cy="-306" rx="112.38" ry="18"/>
<text text-anchor="middle" x="162.942" y="-302.3" font-family="Times,serif" font-size="14.00">Tractarian Movement</text>
</a>
</g>
</g>
<!-- Xb800b&#45;&gt;Xf6f10 -->
<g id="edge11" class="edge"><title>Xb800b&#45;&gt;Xf6f10</title>
<path fill="none" stroke="black" d="M185.992,-288.348C211.126,-270.278 252.622,-240.698 288.942,-216 304.363,-205.513 321.634,-194.16 336.255,-184.661"/>
<polygon fill="black" stroke="black" points="338.486,-187.385 344.975,-179.01 334.679,-181.511 338.486,-187.385"/>
</g>
<!-- X1cc79 -->
<g id="node14" class="node"><title>X1cc79</title>
<g id="a_node14"><a xlink:href="http://sparql.cwrc.ca/ontologies/cwrc#lollardy" xlink:title="Lollardy" target="_parent">
<ellipse fill="none" stroke="black" cx="1681.94" cy="-450" rx="49.2915" ry="18"/>
<text text-anchor="middle" x="1681.94" y="-446.3" font-family="Times,serif" font-size="14.00">Lollardy</text>
</a>
</g>
</g>
<!-- X752f2 -->
<g id="node15" class="node"><title>X752f2</title>
<ellipse fill="none" stroke="black" cx="1719.94" cy="-378" rx="44.393" ry="18"/>
<text text-anchor="middle" x="1719.94" y="-374.3" font-family="Times,serif" font-size="14.00">X752f2</text>
</g>
<!-- X1cc79&#45;&gt;X752f2 -->
<g id="edge12" class="edge"><title>X1cc79&#45;&gt;X752f2</title>
<path fill="none" stroke="black" d="M1691.14,-432.055C1695.57,-423.887 1700.99,-413.912 1705.92,-404.824"/>
<polygon fill="black" stroke="black" points="1709.13,-406.247 1710.83,-395.789 1702.98,-402.908 1709.13,-406.247"/>
</g>
<!-- X8fa8b -->
<g id="node16" class="node"><title>X8fa8b</title>
<g id="a_node16"><a xlink:href="http://sparql.cwrc.ca/ontologies/cwrc#plymouthBrethren" xlink:title="Plymouth Brethren" target="_parent">
<ellipse fill="none" stroke="black" cx="738.942" cy="-450" rx="100.182" ry="18"/>
<text text-anchor="middle" x="738.942" y="-446.3" font-family="Times,serif" font-size="14.00">Plymouth Brethren</text>
</a>
</g>
</g>
<!-- X8fa8b&#45;&gt;X4e4b1 -->
<g id="edge13" class="edge"><title>X8fa8b&#45;&gt;X4e4b1</title>
<path fill="none" stroke="black" d="M772.616,-432.868C786.88,-424.114 802.013,-411.813 809.942,-396 826.957,-362.065 834.549,-324.82 791.942,-216 788.041,-206.037 781.842,-196.208 775.573,-187.771"/>
<polygon fill="black" stroke="black" points="778.286,-185.558 769.363,-179.844 772.775,-189.875 778.286,-185.558"/>
</g>
<!-- X253de -->
<g id="node17" class="node"><title>X253de</title>
<g id="a_node17"><a xlink:href="http://sparql.cwrc.ca/ontologies/cwrc#quakerism" xlink:title="Quakerism" target="_parent">
<ellipse fill="none" stroke="black" cx="1212.94" cy="-234" rx="61.99" ry="18"/>
<text text-anchor="middle" x="1212.94" y="-230.3" font-family="Times,serif" font-size="14.00">Quakerism</text>
</a>
</g>
</g>
<!-- X253de&#45;&gt;X4e4b1 -->
<g id="edge14" class="edge"><title>X253de&#45;&gt;X4e4b1</title>
<path fill="none" stroke="black" d="M1168.42,-221.502C1159.68,-219.483 1150.55,-217.538 1141.94,-216 1008.88,-192.222 973.454,-201.122 839.942,-180 833.276,-178.945 826.339,-177.746 819.425,-176.484"/>
<polygon fill="black" stroke="black" points="819.818,-172.997 809.345,-174.599 818.531,-179.878 819.818,-172.997"/>
</g>
<!-- X991c3 -->
<g id="node18" class="node"><title>X991c3</title>
<ellipse fill="none" stroke="black" cx="1240.94" cy="-162" rx="46.2923" ry="18"/>
<text text-anchor="middle" x="1240.94" y="-158.3" font-family="Times,serif" font-size="14.00">X991c3</text>
</g>
<!-- X253de&#45;&gt;X991c3 -->
<g id="edge15" class="edge"><title>X253de&#45;&gt;X991c3</title>
<path fill="none" stroke="black" d="M1219.72,-216.055C1222.87,-208.176 1226.7,-198.617 1230.22,-189.794"/>
<polygon fill="black" stroke="black" points="1233.57,-190.86 1234.03,-180.275 1227.07,-188.26 1233.57,-190.86"/>
</g>
<!-- Xd53bc -->
<g id="node19" class="node"><title>Xd53bc</title>
<g id="a_node19"><a xlink:href="http://sparql.cwrc.ca/ontologies/cwrc#baptistChristianity" xlink:title="Baptist Christianity" target="_parent">
<ellipse fill="none" stroke="black" cx="866.942" cy="-522" rx="102.882" ry="18"/>
<text text-anchor="middle" x="866.942" y="-518.3" font-family="Times,serif" font-size="14.00">Baptist Christianity</text>
</a>
</g>
</g>
<!-- Xd53bc&#45;&gt;X4e4b1 -->
<g id="edge16" class="edge"><title>Xd53bc&#45;&gt;X4e4b1</title>
<path fill="none" stroke="black" d="M866.942,-503.951C866.942,-477.292 866.942,-424.115 866.942,-379 866.942,-379 866.942,-379 866.942,-305 866.942,-253.446 820.774,-209.781 787.458,-184.984"/>
<polygon fill="black" stroke="black" points="789.457,-182.11 779.301,-179.092 785.359,-187.785 789.457,-182.11"/>
</g>
<!-- X43c0c -->
<g id="node23" class="node"><title>X43c0c</title>
<g id="a_node23"><a xlink:href="http://sparql.cwrc.ca/ontologies/cwrc#occultism" xlink:title="Occultism/Theosophism" target="_parent">
<ellipse fill="none" stroke="black" cx="1558.94" cy="-306" rx="122.379" ry="18"/>
<text text-anchor="middle" x="1558.94" y="-302.3" font-family="Times,serif" font-size="14.00">Occultism/Theosophism</text>
</a>
</g>
</g>
<!-- X7152e&#45;&gt;X43c0c -->
<!-- X9deb8 -->
<g id="node21" class="node"><title>X9deb8</title>
<g id="a_node21"><a xlink:href="http://sparql.cwrc.ca/ontologies/cwrc#dissentingChristianity" xlink:title="Dissenting Christianity" target="_parent">
<ellipse fill="none" stroke="black" cx="1013.94" cy="-234" rx="118.879" ry="18"/>
<text text-anchor="middle" x="1013.94" y="-230.3" font-family="Times,serif" font-size="14.00">Dissenting Christianity</text>
</a>
</g>
</g>
<!-- X9deb8&#45;&gt;X4e4b1 -->
<g id="edge18" class="edge"><title>X9deb8&#45;&gt;X4e4b1</title>
<path fill="none" stroke="black" d="M958.484,-218.069C915.454,-206.484 855.966,-190.468 812.234,-178.694"/>
<polygon fill="black" stroke="black" points="812.883,-175.244 802.317,-176.024 811.063,-182.003 812.883,-175.244"/>
</g>
<!-- Xb45be -->
<g id="node22" class="node"><title>Xb45be</title>
<g id="a_node22"><a xlink:href="http://sparql.cwrc.ca/ontologies/cwrc#millenarianism" xlink:title="Millenarianism" target="_parent">
<ellipse fill="none" stroke="black" cx="1387.94" cy="-162" rx="81.4863" ry="18"/>
<text text-anchor="middle" x="1387.94" y="-158.3" font-family="Times,serif" font-size="14.00">Millenarianism</text>
</a>
</g>
</g>
<!-- X3b80a -->
<g id="node26" class="node"><title>X3b80a</title>
<g id="a_node26"><a xlink:href="http://sparql.cwrc.ca/ontologies/cwrc#buddhism" xlink:title="Buddhism" target="_parent">
<ellipse fill="none" stroke="black" cx="1558.94" cy="-234" rx="57.6901" ry="18"/>
<text text-anchor="middle" x="1558.94" y="-230.3" font-family="Times,serif" font-size="14.00">Buddhism</text>
</a>
</g>
</g>
<!-- X43c0c&#45;&gt;X3b80a -->
<!-- X2a5d0 -->
<g id="node24" class="node"><title>X2a5d0</title>
<g id="a_node24"><a xlink:href="http://sparql.cwrc.ca/ontologies/cwrc#churchOfIreland" xlink:title="Church of Ireland" target="_parent">
<ellipse fill="none" stroke="black" cx="302.942" cy="-378" rx="93.6835" ry="18"/>
<text text-anchor="middle" x="302.942" y="-374.3" font-family="Times,serif" font-size="14.00">Church of Ireland</text>
</a>
</g>
</g>
<!-- X2a5d0&#45;&gt;Xf6f10 -->
<g id="edge20" class="edge"><title>X2a5d0&#45;&gt;Xf6f10</title>
<path fill="none" stroke="black" d="M301.641,-359.639C300.062,-329.102 299.926,-264.425 321.942,-216 326.819,-205.271 334.681,-195.211 342.642,-186.799"/>
<polygon fill="black" stroke="black" points="345.287,-189.103 349.899,-179.565 340.345,-184.146 345.287,-189.103"/>
</g>
<!-- Xe7b0a -->
<g id="node25" class="node"><title>Xe7b0a</title>
<g id="a_node25"><a xlink:href="http://sparql.cwrc.ca/ontologies/cwrc#neo-thomism" xlink:title="Neo&#45;thomism" target="_parent">
<ellipse fill="none" stroke="black" cx="1758.94" cy="-522" rx="73.387" ry="18"/>
<text text-anchor="middle" x="1758.94" y="-518.3" font-family="Times,serif" font-size="14.00">Neo&#45;thomism</text>
</a>
</g>
</g>
<!-- Xe7b0a&#45;&gt;X752f2 -->
<g id="edge21" class="edge"><title>Xe7b0a&#45;&gt;X752f2</title>
<path fill="none" stroke="black" d="M1756.05,-503.747C1752.85,-485.675 1747.15,-456.559 1739.94,-432 1737.35,-423.183 1733.99,-413.742 1730.76,-405.306"/>
<polygon fill="black" stroke="black" points="1734.01,-403.99 1727.09,-395.964 1727.49,-406.551 1734.01,-403.99"/>
</g>
<!-- Xd35c6 -->
<g id="node29" class="node"><title>Xd35c6</title>
<g id="a_node29"><a xlink:href="http://sparql.cwrc.ca/ontologies/cwrc#spiritualism" xlink:title="Spiritualism" target="_parent">
<ellipse fill="none" stroke="black" cx="1558.94" cy="-162" rx="67.6881" ry="18"/>
<text text-anchor="middle" x="1558.94" y="-158.3" font-family="Times,serif" font-size="14.00">Spiritualism</text>
</a>
</g>
</g>
<!-- X3b80a&#45;&gt;Xd35c6 -->
<!-- X043aa -->
<g id="node27" class="node"><title>X043aa</title>
<g id="a_node27"><a xlink:href="http://sparql.cwrc.ca/ontologies/cwrc#unitarianism" xlink:title="Unitarianism" target="_parent">
<ellipse fill="none" stroke="black" cx="498.942" cy="-306" rx="71.4873" ry="18"/>
<text text-anchor="middle" x="498.942" y="-302.3" font-family="Times,serif" font-size="14.00">Unitarianism</text>
</a>
</g>
</g>
<!-- X043aa&#45;&gt;X4e4b1 -->
<g id="edge23" class="edge"><title>X043aa&#45;&gt;X4e4b1</title>
<path fill="none" stroke="black" d="M514.824,-288.286C538.05,-263.974 579.451,-221.173 587.942,-216 618.131,-197.606 655.347,-184.961 686.884,-176.65"/>
<polygon fill="black" stroke="black" points="688.079,-179.958 696.908,-174.102 686.354,-173.174 688.079,-179.958"/>
</g>
<!-- Xd2614 -->
<g id="node28" class="node"><title>Xd2614</title>
<g id="a_node28"><a xlink:href="http://sparql.cwrc.ca/ontologies/cwrc#fifthMonarchists" xlink:title="Fifth Monarchists" target="_parent">
<ellipse fill="none" stroke="black" cx="1387.94" cy="-234" rx="94.7833" ry="18"/>
<text text-anchor="middle" x="1387.94" y="-230.3" font-family="Times,serif" font-size="14.00">Fifth Monarchists</text>
</a>
</g>
</g>
<!-- Xd2614&#45;&gt;X991c3 -->
<g id="edge24" class="edge"><title>Xd2614&#45;&gt;X991c3</title>
<path fill="none" stroke="black" d="M1354.59,-217.116C1331.95,-206.338 1301.99,-192.072 1278.52,-180.893"/>
<polygon fill="black" stroke="black" points="1279.75,-177.605 1269.22,-176.466 1276.74,-183.925 1279.75,-177.605"/>
</g>
<!-- Xd2614&#45;&gt;Xb45be -->
<g id="edge25" class="edge"><title>Xd2614&#45;&gt;Xb45be</title>
<path fill="none" stroke="black" d="M1387.94,-215.697C1387.94,-207.983 1387.94,-198.712 1387.94,-190.112"/>
<polygon fill="black" stroke="black" points="1391.44,-190.104 1387.94,-180.104 1384.44,-190.104 1391.44,-190.104"/>
</g>
<!-- Xc7ed9 -->
<g id="node31" class="node"><title>Xc7ed9</title>
<g id="a_node31"><a xlink:href="http://sparql.cwrc.ca/ontologies/cwrc#hinduism" xlink:title="Hinduism" target="_parent">
<ellipse fill="none" stroke="black" cx="1558.94" cy="-90" rx="55.7903" ry="18"/>
<text text-anchor="middle" x="1558.94" y="-86.3" font-family="Times,serif" font-size="14.00">Hinduism</text>
</a>
</g>
</g>
<!-- Xd35c6&#45;&gt;Xc7ed9 -->
<!-- X32f53 -->
<g id="node30" class="node"><title>X32f53</title>
<g id="a_node30"><a xlink:href="http://sparql.cwrc.ca/ontologies/cwrc#catholicism" xlink:title="Roman Catholicism" target="_parent">
<ellipse fill="none" stroke="black" cx="949.942" cy="-162" rx="101.282" ry="18"/>
<text text-anchor="middle" x="949.942" y="-158.3" font-family="Times,serif" font-size="14.00">Roman Catholicism</text>
</a>
</g>
</g>
<!-- X32f53&#45;&gt;Xadf16 -->
<g id="edge27" class="edge"><title>X32f53&#45;&gt;Xadf16</title>
<path fill="none" stroke="black" d="M906.929,-145.638C875.986,-134.587 834.229,-119.674 802.157,-108.22"/>
<polygon fill="black" stroke="black" points="803.133,-104.852 792.538,-104.784 800.778,-111.444 803.133,-104.852"/>
</g>
<!-- X6f203 -->
<g id="node32" class="node"><title>X6f203</title>
<g id="a_node32"><a xlink:href="http://sparql.cwrc.ca/ontologies/cwrc#christianScience" xlink:title="Christian Science" target="_parent">
<ellipse fill="none" stroke="black" cx="92.9418" cy="-234" rx="92.8835" ry="18"/>
<text text-anchor="middle" x="92.9418" y="-230.3" font-family="Times,serif" font-size="14.00">Christian Science</text>
</a>
</g>
</g>
<!-- X6f203&#45;&gt;Xadf16 -->
<g id="edge29" class="edge"><title>X6f203&#45;&gt;Xadf16</title>
<path fill="none" stroke="black" d="M121.721,-216.818C159.679,-196.276 229.149,-161.42 292.942,-144 425.155,-107.896 585.23,-96.3715 677.75,-92.7025"/>
<polygon fill="black" stroke="black" points="678.003,-96.1955 687.865,-92.3221 677.74,-89.2005 678.003,-96.1955"/>
</g>
</g>
</svg>
