<?xml version="1.0" encoding="UTF-8" standalone="no"?>
<!DOCTYPE svg PUBLIC "-//W3C//DTD SVG 1.1//EN"
 "http://www.w3.org/Graphics/SVG/1.1/DTD/svg11.dtd">
<!-- Generated by graphviz version 2.38.0 (20140413.2041)
 -->
<!-- Title: ReligionGraph Pages: 1 -->
<svg width="1926pt" height="548pt"
 viewBox="0.00 0.00 1926.48 548.00" xmlns="http://www.w3.org/2000/svg" xmlns:xlink="http://www.w3.org/1999/xlink">
<g id="graph0" class="graph" transform="scale(1 1) rotate(0) translate(4 544)">
<title>ReligionGraph</title>
<polygon fill="white" stroke="none" points="-4,4 -4,-544 1922.48,-544 1922.48,4 -4,4"/>
<!-- X43c0c -->
<g id="node1" class="node"><title>X43c0c</title>
<g id="a_node1"><a xlink:href="http://sparql.cwrc.ca/ontologies/cwrc#occultism" xlink:title="Occultism/Theosophism" target="_parent">
<ellipse fill="none" stroke="black" cx="122.189" cy="-522" rx="122.379" ry="18"/>
<text text-anchor="middle" x="122.189" y="-518.3" font-family="Times,serif" font-size="14.00">Occultism/Theosophism</text>
</a>
</g>
</g>
<!-- X3b80a -->
<g id="node2" class="node"><title>X3b80a</title>
<g id="a_node2"><a xlink:href="http://sparql.cwrc.ca/ontologies/cwrc#buddhism" xlink:title="Buddhism" target="_parent">
<ellipse fill="none" stroke="black" cx="122.189" cy="-450" rx="57.6901" ry="18"/>
<text text-anchor="middle" x="122.189" y="-446.3" font-family="Times,serif" font-size="14.00">Buddhism</text>
</a>
</g>
</g>
<!-- X43c0c&#45;&gt;X3b80a -->
<!-- Xc7ed9 -->
<g id="node9" class="node"><title>Xc7ed9</title>
<g id="a_node9"><a xlink:href="http://sparql.cwrc.ca/ontologies/cwrc#hinduism" xlink:title="Hinduism" target="_parent">
<ellipse fill="none" stroke="black" cx="122.189" cy="-378" rx="55.7903" ry="18"/>
<text text-anchor="middle" x="122.189" y="-374.3" font-family="Times,serif" font-size="14.00">Hinduism</text>
</a>
</g>
</g>
<!-- X3b80a&#45;&gt;Xc7ed9 -->
<!-- X1cc79 -->
<g id="node3" class="node"><title>X1cc79</title>
<g id="a_node3"><a xlink:href="http://sparql.cwrc.ca/ontologies/cwrc#lollardy" xlink:title="Lollardy" target="_parent">
<ellipse fill="none" stroke="black" cx="1773.19" cy="-234" rx="49.2915" ry="18"/>
<text text-anchor="middle" x="1773.19" y="-230.3" font-family="Times,serif" font-size="14.00">Lollardy</text>
</a>
</g>
</g>
<!-- X32f53 -->
<g id="node4" class="node"><title>X32f53</title>
<g id="a_node4"><a xlink:href="http://sparql.cwrc.ca/ontologies/cwrc#catholicism" xlink:title="Roman Catholicism" target="_parent">
<ellipse fill="none" stroke="black" cx="1692.19" cy="-162" rx="101.282" ry="18"/>
<text text-anchor="middle" x="1692.19" y="-158.3" font-family="Times,serif" font-size="14.00">Roman Catholicism</text>
</a>
</g>
</g>
<!-- X1cc79&#45;&gt;X32f53 -->
<g id="edge2" class="edge"><title>X1cc79&#45;&gt;X32f53</title>
<path fill="none" stroke="black" d="M1754.81,-217.116C1744.34,-208.07 1731.03,-196.567 1719.38,-186.494"/>
<polygon fill="black" stroke="black" points="1721.48,-183.688 1711.63,-179.797 1716.9,-188.984 1721.48,-183.688"/>
</g>
<!-- Xadf16 -->
<g id="node5" class="node"><title>Xadf16</title>
<g id="a_node5"><a xlink:href="http://sparql.cwrc.ca/ontologies/cwrc#christianity" xlink:title="Christianity" target="_parent">
<ellipse fill="none" stroke="black" cx="1472.19" cy="-90" rx="66.0889" ry="18"/>
<text text-anchor="middle" x="1472.19" y="-86.3" font-family="Times,serif" font-size="14.00">Christianity</text>
</a>
</g>
</g>
<!-- X32f53&#45;&gt;Xadf16 -->
<g id="edge3" class="edge"><title>X32f53&#45;&gt;Xadf16</title>
<path fill="none" stroke="black" d="M1644.99,-145.983C1609.06,-134.551 1559.69,-118.842 1522.92,-107.142"/>
<polygon fill="black" stroke="black" points="1523.97,-103.804 1513.38,-104.107 1521.85,-110.474 1523.97,-103.804"/>
</g>
<!-- Xb2336 -->
<g id="node6" class="node"><title>Xb2336</title>
<g id="a_node6"><a xlink:href="http://sparql.cwrc.ca/ontologies/cwrc#abrahamicReligions" xlink:title="Abrahamic religions" target="_parent">
<ellipse fill="none" stroke="black" cx="1696.19" cy="-18" rx="104.782" ry="18"/>
<text text-anchor="middle" x="1696.19" y="-14.3" font-family="Times,serif" font-size="14.00">Abrahamic religions</text>
</a>
</g>
</g>
<!-- Xadf16&#45;&gt;Xb2336 -->
<g id="edge4" class="edge"><title>Xadf16&#45;&gt;Xb2336</title>
<path fill="none" stroke="black" d="M1514.06,-75.9157C1549.08,-64.9717 1599.41,-49.2442 1638.29,-37.0941"/>
<polygon fill="black" stroke="black" points="1639.41,-40.4108 1647.91,-34.0873 1637.32,-33.7294 1639.41,-40.4108"/>
</g>
<!-- X156db -->
<g id="node7" class="node"><title>X156db</title>
<g id="a_node7"><a xlink:href="http://sparql.cwrc.ca/ontologies/cwrc#dissentProtestant" xlink:title="Dissent (Protestant)" target="_parent">
<ellipse fill="none" stroke="black" cx="839.189" cy="-234" rx="104.782" ry="18"/>
<text text-anchor="middle" x="839.189" y="-230.3" font-family="Times,serif" font-size="14.00">Dissent (Protestant)</text>
</a>
</g>
</g>
<!-- Xf6f10 -->
<g id="node8" class="node"><title>Xf6f10</title>
<g id="a_node8"><a xlink:href="http://sparql.cwrc.ca/ontologies/cwrc#anglicanism" xlink:title="Anglicanism" target="_parent">
<ellipse fill="none" stroke="black" cx="641.189" cy="-162" rx="68.4888" ry="18"/>
<text text-anchor="middle" x="641.189" y="-158.3" font-family="Times,serif" font-size="14.00">Anglicanism</text>
</a>
</g>
</g>
<!-- X156db&#45;&gt;Xf6f10 -->
<g id="edge5" class="edge"><title>X156db&#45;&gt;Xf6f10</title>
<path fill="none" stroke="black" d="M795.247,-217.465C764.065,-206.441 722.199,-191.64 689.981,-180.25"/>
<polygon fill="black" stroke="black" points="690.91,-176.866 680.315,-176.832 688.576,-183.465 690.91,-176.866"/>
</g>
<!-- Xf6f10&#45;&gt;Xadf16 -->
<g id="edge6" class="edge"><title>Xf6f10&#45;&gt;Xadf16</title>
<path fill="none" stroke="black" d="M705.016,-155.623C856.934,-142.827 1239.24,-110.622 1399.61,-97.1138"/>
<polygon fill="black" stroke="black" points="1400.18,-100.579 1409.85,-96.2514 1399.59,-93.6032 1400.18,-100.579"/>
</g>
<!-- Xd35c6 -->
<g id="node15" class="node"><title>Xd35c6</title>
<g id="a_node15"><a xlink:href="http://sparql.cwrc.ca/ontologies/cwrc#spiritualism" xlink:title="Spiritualism" target="_parent">
<ellipse fill="none" stroke="black" cx="122.189" cy="-306" rx="67.6881" ry="18"/>
<text text-anchor="middle" x="122.189" y="-302.3" font-family="Times,serif" font-size="14.00">Spiritualism</text>
</a>
</g>
</g>
<!-- Xc7ed9&#45;&gt;Xd35c6 -->
<!-- X9deb8 -->
<g id="node10" class="node"><title>X9deb8</title>
<g id="a_node10"><a xlink:href="http://sparql.cwrc.ca/ontologies/cwrc#dissentingChristianity" xlink:title="Dissenting Christianity" target="_parent">
<ellipse fill="none" stroke="black" cx="1413.19" cy="-234" rx="118.879" ry="18"/>
<text text-anchor="middle" x="1413.19" y="-230.3" font-family="Times,serif" font-size="14.00">Dissenting Christianity</text>
</a>
</g>
</g>
<!-- X4e4b1 -->
<g id="node11" class="node"><title>X4e4b1</title>
<g id="a_node11"><a xlink:href="http://sparql.cwrc.ca/ontologies/cwrc#protestantism" xlink:title="Protestantism" target="_parent">
<ellipse fill="none" stroke="black" cx="1268.19" cy="-162" rx="76.8869" ry="18"/>
<text text-anchor="middle" x="1268.19" y="-158.3" font-family="Times,serif" font-size="14.00">Protestantism</text>
</a>
</g>
</g>
<!-- X9deb8&#45;&gt;X4e4b1 -->
<g id="edge8" class="edge"><title>X9deb8&#45;&gt;X4e4b1</title>
<path fill="none" stroke="black" d="M1379.19,-216.588C1358.39,-206.546 1331.63,-193.628 1309.6,-182.992"/>
<polygon fill="black" stroke="black" points="1311.01,-179.784 1300.48,-178.588 1307.96,-186.088 1311.01,-179.784"/>
</g>
<!-- X4e4b1&#45;&gt;Xadf16 -->
<g id="edge9" class="edge"><title>X4e4b1&#45;&gt;Xadf16</title>
<path fill="none" stroke="black" d="M1309.96,-146.666C1342.64,-135.453 1388.17,-119.831 1422.68,-107.99"/>
<polygon fill="black" stroke="black" points="1424.23,-111.158 1432.55,-104.602 1421.96,-104.537 1424.23,-111.158"/>
</g>
<!-- Xd32ac -->
<g id="node12" class="node"><title>Xd32ac</title>
<g id="a_node12"><a xlink:href="http://sparql.cwrc.ca/ontologies/cwrc#judaism" xlink:title="Judaism" target="_parent">
<ellipse fill="none" stroke="black" cx="1696.19" cy="-90" rx="48.1917" ry="18"/>
<text text-anchor="middle" x="1696.19" y="-86.3" font-family="Times,serif" font-size="14.00">Judaism</text>
</a>
</g>
</g>
<!-- Xd32ac&#45;&gt;Xb2336 -->
<g id="edge10" class="edge"><title>Xd32ac&#45;&gt;Xb2336</title>
<path fill="none" stroke="black" d="M1696.19,-71.6966C1696.19,-63.9827 1696.19,-54.7125 1696.19,-46.1124"/>
<polygon fill="black" stroke="black" points="1699.69,-46.1043 1696.19,-36.1043 1692.69,-46.1044 1699.69,-46.1043"/>
</g>
<!-- X043aa -->
<g id="node13" class="node"><title>X043aa</title>
<g id="a_node13"><a xlink:href="http://sparql.cwrc.ca/ontologies/cwrc#unitarianism" xlink:title="Unitarianism" target="_parent">
<ellipse fill="none" stroke="black" cx="1499.19" cy="-306" rx="71.4873" ry="18"/>
<text text-anchor="middle" x="1499.19" y="-302.3" font-family="Times,serif" font-size="14.00">Unitarianism</text>
</a>
</g>
</g>
<!-- X043aa&#45;&gt;X4e4b1 -->
<g id="edge11" class="edge"><title>X043aa&#45;&gt;X4e4b1</title>
<path fill="none" stroke="black" d="M1517.14,-288.531C1535.66,-269.555 1559.45,-238.146 1541.19,-216 1537.91,-212.02 1417.29,-189.724 1337.49,-175.347"/>
<polygon fill="black" stroke="black" points="1337.95,-171.874 1327.49,-173.548 1336.71,-178.764 1337.95,-171.874"/>
</g>
<!-- Xc1422 -->
<g id="node14" class="node"><title>Xc1422</title>
<g id="a_node14"><a xlink:href="http://sparql.cwrc.ca/ontologies/cwrc#islam" xlink:title="Islamism" target="_parent">
<ellipse fill="none" stroke="black" cx="1865.19" cy="-162" rx="53.0913" ry="18"/>
<text text-anchor="middle" x="1865.19" y="-158.3" font-family="Times,serif" font-size="14.00">Islamism</text>
</a>
</g>
</g>
<!-- Xc1422&#45;&gt;Xb2336 -->
<g id="edge12" class="edge"><title>Xc1422&#45;&gt;Xb2336</title>
<path fill="none" stroke="black" d="M1846.13,-144.987C1816.32,-119.94 1758.52,-71.3702 1724.04,-42.4005"/>
<polygon fill="black" stroke="black" points="1726.13,-39.5865 1716.22,-35.8332 1721.63,-44.9459 1726.13,-39.5865"/>
</g>
<!-- X52798 -->
<g id="node16" class="node"><title>X52798</title>
<g id="a_node16"><a xlink:href="http://sparql.cwrc.ca/ontologies/cwrc#pantheism" xlink:title="Pantheism" target="_parent">
<ellipse fill="none" stroke="black" cx="122.189" cy="-234" rx="59.5901" ry="18"/>
<text text-anchor="middle" x="122.189" y="-230.3" font-family="Times,serif" font-size="14.00">Pantheism</text>
</a>
</g>
</g>
<!-- Xd35c6&#45;&gt;X52798 -->
<!-- X37200 -->
<g id="node19" class="node"><title>X37200</title>
<g id="a_node19"><a xlink:href="http://sparql.cwrc.ca/ontologies/cwrc#paganism" xlink:title="Paganism" target="_parent">
<ellipse fill="none" stroke="black" cx="122.189" cy="-162" rx="55.7903" ry="18"/>
<text text-anchor="middle" x="122.189" y="-158.3" font-family="Times,serif" font-size="14.00">Paganism</text>
</a>
</g>
</g>
<!-- X52798&#45;&gt;X37200 -->
<!-- Xd2614 -->
<g id="node17" class="node"><title>Xd2614</title>
<g id="a_node17"><a xlink:href="http://sparql.cwrc.ca/ontologies/cwrc#fifthMonarchists" xlink:title="Fifth Monarchists" target="_parent">
<ellipse fill="none" stroke="black" cx="737.189" cy="-306" rx="94.7833" ry="18"/>
<text text-anchor="middle" x="737.189" y="-302.3" font-family="Times,serif" font-size="14.00">Fifth Monarchists</text>
</a>
</g>
</g>
<!-- Xd2614&#45;&gt;X156db -->
<g id="edge15" class="edge"><title>Xd2614&#45;&gt;X156db</title>
<path fill="none" stroke="black" d="M761.362,-288.411C774.855,-279.151 791.851,-267.487 806.516,-257.423"/>
<polygon fill="black" stroke="black" points="808.572,-260.257 814.837,-251.713 804.611,-254.485 808.572,-260.257"/>
</g>
<!-- Xb45be -->
<g id="node18" class="node"><title>Xb45be</title>
<g id="a_node18"><a xlink:href="http://sparql.cwrc.ca/ontologies/cwrc#millenarianism" xlink:title="Millenarianism" target="_parent">
<ellipse fill="none" stroke="black" cx="635.189" cy="-234" rx="81.4863" ry="18"/>
<text text-anchor="middle" x="635.189" y="-230.3" font-family="Times,serif" font-size="14.00">Millenarianism</text>
</a>
</g>
</g>
<!-- Xd2614&#45;&gt;Xb45be -->
<g id="edge16" class="edge"><title>Xd2614&#45;&gt;Xb45be</title>
<path fill="none" stroke="black" d="M713.017,-288.411C699.326,-279.016 682.03,-267.146 667.222,-256.983"/>
<polygon fill="black" stroke="black" points="669.062,-254.001 658.836,-251.228 665.101,-259.773 669.062,-254.001"/>
</g>
<!-- X36b94 -->
<g id="node20" class="node"><title>X36b94</title>
<g id="a_node20"><a xlink:href="http://sparql.cwrc.ca/ontologies/cwrc#agnosticism" xlink:title="Agnosticism" target="_parent">
<ellipse fill="none" stroke="black" cx="122.189" cy="-90" rx="68.4888" ry="18"/>
<text text-anchor="middle" x="122.189" y="-86.3" font-family="Times,serif" font-size="14.00">Agnosticism</text>
</a>
</g>
</g>
<!-- X37200&#45;&gt;X36b94 -->
<!-- X7152e -->
<g id="node25" class="node"><title>X7152e</title>
<g id="a_node25"><a xlink:href="http://sparql.cwrc.ca/ontologies/cwrc#atheism" xlink:title="Atheism" target="_parent">
<ellipse fill="none" stroke="black" cx="122.189" cy="-18" rx="49.2915" ry="18"/>
<text text-anchor="middle" x="122.189" y="-14.3" font-family="Times,serif" font-size="14.00">Atheism</text>
</a>
</g>
</g>
<!-- X36b94&#45;&gt;X7152e -->
<!-- X2a5d0 -->
<g id="node21" class="node"><title>X2a5d0</title>
<g id="a_node21"><a xlink:href="http://sparql.cwrc.ca/ontologies/cwrc#churchOfIreland" xlink:title="Church of Ireland" target="_parent">
<ellipse fill="none" stroke="black" cx="442.189" cy="-234" rx="93.6835" ry="18"/>
<text text-anchor="middle" x="442.189" y="-230.3" font-family="Times,serif" font-size="14.00">Church of Ireland</text>
</a>
</g>
</g>
<!-- X2a5d0&#45;&gt;Xf6f10 -->
<g id="edge19" class="edge"><title>X2a5d0&#45;&gt;Xf6f10</title>
<path fill="none" stroke="black" d="M485.369,-217.811C516.758,-206.77 559.298,-191.806 591.999,-180.303"/>
<polygon fill="black" stroke="black" points="593.536,-183.473 601.808,-176.853 591.213,-176.869 593.536,-183.473"/>
</g>
<!-- X0e2fa -->
<g id="node22" class="node"><title>X0e2fa</title>
<g id="a_node22"><a xlink:href="http://sparql.cwrc.ca/ontologies/cwrc#presbyterianism" xlink:title="Presbyterianism" target="_parent">
<ellipse fill="none" stroke="black" cx="1598.19" cy="-378" rx="87.1846" ry="18"/>
<text text-anchor="middle" x="1598.19" y="-374.3" font-family="Times,serif" font-size="14.00">Presbyterianism</text>
</a>
</g>
</g>
<!-- X0e2fa&#45;&gt;X4e4b1 -->
<g id="edge20" class="edge"><title>X0e2fa&#45;&gt;X4e4b1</title>
<path fill="none" stroke="black" d="M1599.68,-359.864C1601.54,-326.682 1600.39,-253.621 1559.19,-216 1555.08,-212.252 1423.32,-189.313 1338.52,-174.868"/>
<polygon fill="black" stroke="black" points="1338.87,-171.377 1328.43,-173.151 1337.7,-178.278 1338.87,-171.377"/>
</g>
<!-- Xb800b -->
<g id="node23" class="node"><title>Xb800b</title>
<g id="a_node23"><a xlink:href="http://sparql.cwrc.ca/ontologies/cwrc#tractarianMovement" xlink:title="Tractarian Movement" target="_parent">
<ellipse fill="none" stroke="black" cx="320.189" cy="-306" rx="112.38" ry="18"/>
<text text-anchor="middle" x="320.189" y="-302.3" font-family="Times,serif" font-size="14.00">Tractarian Movement</text>
</a>
</g>
</g>
<!-- Xb800b&#45;&gt;Xf6f10 -->
<g id="edge21" class="edge"><title>Xb800b&#45;&gt;Xf6f10</title>
<path fill="none" stroke="black" d="M318.635,-287.928C317.819,-267.772 319.852,-234.642 339.189,-216 370.593,-185.725 485.565,-172.491 564.232,-166.888"/>
<polygon fill="black" stroke="black" points="564.86,-170.354 574.598,-166.179 564.382,-163.37 564.86,-170.354"/>
</g>
<!-- Xd53bc -->
<g id="node24" class="node"><title>Xd53bc</title>
<g id="a_node24"><a xlink:href="http://sparql.cwrc.ca/ontologies/cwrc#baptistChristianity" xlink:title="Baptist Christianity" target="_parent">
<ellipse fill="none" stroke="black" cx="1135.19" cy="-450" rx="102.882" ry="18"/>
<text text-anchor="middle" x="1135.19" y="-446.3" font-family="Times,serif" font-size="14.00">Baptist Christianity</text>
</a>
</g>
</g>
<!-- Xd53bc&#45;&gt;X4e4b1 -->
<g id="edge22" class="edge"><title>Xd53bc&#45;&gt;X4e4b1</title>
<path fill="none" stroke="black" d="M1143.11,-431.966C1165.47,-383.88 1229.2,-246.849 1256.04,-189.133"/>
<polygon fill="black" stroke="black" points="1259.27,-190.488 1260.31,-179.945 1252.92,-187.536 1259.27,-190.488"/>
</g>
<!-- X253de -->
<g id="node26" class="node"><title>X253de</title>
<g id="a_node26"><a xlink:href="http://sparql.cwrc.ca/ontologies/cwrc#quakerism" xlink:title="Quakerism" target="_parent">
<ellipse fill="none" stroke="black" cx="974.189" cy="-306" rx="61.99" ry="18"/>
<text text-anchor="middle" x="974.189" y="-302.3" font-family="Times,serif" font-size="14.00">Quakerism</text>
</a>
</g>
</g>
<!-- X253de&#45;&gt;X156db -->
<g id="edge24" class="edge"><title>X253de&#45;&gt;X156db</title>
<path fill="none" stroke="black" d="M945.228,-289.983C926.062,-280.045 900.66,-266.874 879.524,-255.914"/>
<polygon fill="black" stroke="black" points="880.944,-252.708 870.455,-251.212 877.721,-258.922 880.944,-252.708"/>
</g>
<!-- X253de&#45;&gt;X4e4b1 -->
<g id="edge25" class="edge"><title>X253de&#45;&gt;X4e4b1</title>
<path fill="none" stroke="black" d="M1029.08,-297.474C1070.14,-290.171 1126.65,-276.483 1171.19,-252 1179.48,-247.441 1217.66,-211.518 1243.57,-186.729"/>
<polygon fill="black" stroke="black" points="1246.05,-189.202 1250.84,-179.755 1241.2,-184.149 1246.05,-189.202"/>
</g>
<!-- X7477d -->
<g id="node27" class="node"><title>X7477d</title>
<g id="a_node27"><a xlink:href="http://sparql.cwrc.ca/ontologies/cwrc#congregationalism" xlink:title="Congregationalism" target="_parent">
<ellipse fill="none" stroke="black" cx="1266.19" cy="-522" rx="98.5829" ry="18"/>
<text text-anchor="middle" x="1266.19" y="-518.3" font-family="Times,serif" font-size="14.00">Congregationalism</text>
</a>
</g>
</g>
<!-- X7477d&#45;&gt;X4e4b1 -->
<g id="edge26" class="edge"><title>X7477d&#45;&gt;X4e4b1</title>
<path fill="none" stroke="black" d="M1266.19,-503.951C1266.19,-477.292 1266.19,-424.115 1266.19,-379 1266.19,-379 1266.19,-379 1266.19,-305 1266.19,-264.992 1266.99,-218.65 1267.58,-190.078"/>
<polygon fill="black" stroke="black" points="1271.08,-190.12 1267.79,-180.048 1264.08,-189.972 1271.08,-190.12"/>
</g>
<!-- Xe7b0a -->
<g id="node28" class="node"><title>Xe7b0a</title>
<g id="a_node28"><a xlink:href="http://sparql.cwrc.ca/ontologies/cwrc#neo-thomism" xlink:title="Neo&#45;thomism" target="_parent">
<ellipse fill="none" stroke="black" cx="1699.19" cy="-306" rx="73.387" ry="18"/>
<text text-anchor="middle" x="1699.19" y="-302.3" font-family="Times,serif" font-size="14.00">Neo&#45;thomism</text>
</a>
</g>
</g>
<!-- Xe7b0a&#45;&gt;X32f53 -->
<g id="edge27" class="edge"><title>Xe7b0a&#45;&gt;X32f53</title>
<path fill="none" stroke="black" d="M1698.34,-287.871C1697.15,-263.67 1694.96,-219.211 1693.54,-190.393"/>
<polygon fill="black" stroke="black" points="1697.02,-190.005 1693.04,-180.189 1690.03,-190.349 1697.02,-190.005"/>
</g>
<!-- X6f203 -->
<g id="node29" class="node"><title>X6f203</title>
<g id="a_node29"><a xlink:href="http://sparql.cwrc.ca/ontologies/cwrc#christianScience" xlink:title="Christian Science" target="_parent">
<ellipse fill="none" stroke="black" cx="1472.19" cy="-162" rx="92.8835" ry="18"/>
<text text-anchor="middle" x="1472.19" y="-158.3" font-family="Times,serif" font-size="14.00">Christian Science</text>
</a>
</g>
</g>
<!-- X6f203&#45;&gt;Xadf16 -->
<g id="edge28" class="edge"><title>X6f203&#45;&gt;Xadf16</title>
<path fill="none" stroke="black" d="M1472.19,-143.697C1472.19,-135.983 1472.19,-126.712 1472.19,-118.112"/>
<polygon fill="black" stroke="black" points="1475.69,-118.104 1472.19,-108.104 1468.69,-118.104 1475.69,-118.104"/>
</g>
<!-- X8fa8b -->
<g id="node30" class="node"><title>X8fa8b</title>
<g id="a_node30"><a xlink:href="http://sparql.cwrc.ca/ontologies/cwrc#plymouthBrethren" xlink:title="Plymouth Brethren" target="_parent">
<ellipse fill="none" stroke="black" cx="1062.19" cy="-234" rx="100.182" ry="18"/>
<text text-anchor="middle" x="1062.19" y="-230.3" font-family="Times,serif" font-size="14.00">Plymouth Brethren</text>
</a>
</g>
</g>
<!-- X8fa8b&#45;&gt;X4e4b1 -->
<g id="edge29" class="edge"><title>X8fa8b&#45;&gt;X4e4b1</title>
<path fill="none" stroke="black" d="M1106.89,-217.811C1139.2,-206.832 1182.92,-191.974 1216.7,-180.498"/>
<polygon fill="black" stroke="black" points="1218.04,-183.736 1226.39,-177.205 1215.79,-177.109 1218.04,-183.736"/>
</g>
</g>
</svg>
