<?xml version="1.0" encoding="UTF-8" standalone="no"?>
<!DOCTYPE svg PUBLIC "-//W3C//DTD SVG 1.1//EN"
 "http://www.w3.org/Graphics/SVG/1.1/DTD/svg11.dtd">
<!-- Generated by graphviz version 2.38.0 (20140413.2041)
 -->
<!-- Title: ReligionGraph Pages: 1 -->
<svg width="1321pt" height="620pt"
 viewBox="0.00 0.00 1320.69 620.00" xmlns="http://www.w3.org/2000/svg" xmlns:xlink="http://www.w3.org/1999/xlink">
<g id="graph0" class="graph" transform="scale(1 1) rotate(0) translate(4 616)">
<title>ReligionGraph</title>
<polygon fill="white" stroke="none" points="-4,4 -4,-616 1316.69,-616 1316.69,4 -4,4"/>
<!-- X8fa8b -->
<g id="node1" class="node"><title>X8fa8b</title>
<g id="a_node1"><a xlink:href="http://sparql.cwrc.ca/ontologies/cwrc#plymouthBrethren" xlink:title="Frères de Schwarzenau" target="_parent">
<ellipse fill="none" stroke="black" cx="473.494" cy="-306" rx="92.8835" ry="18"/>
<text text-anchor="middle" x="473.494" y="-302.3" font-family="Times,serif" font-size="14.00">Frères de Schwarzenau</text>
</a>
</g>
</g>
<!-- X156db -->
<g id="node2" class="node"><title>X156db</title>
<g id="a_node2"><a xlink:href="http://sparql.cwrc.ca/ontologies/cwrc#dissentProtestant" xlink:title="dissidents (ou non&#45;conformistes)" target="_parent">
<ellipse fill="none" stroke="black" cx="246.494" cy="-234" rx="126.978" ry="18"/>
<text text-anchor="middle" x="246.494" y="-230.3" font-family="Times,serif" font-size="14.00">dissidents (ou non&#45;conformistes)</text>
</a>
</g>
</g>
<!-- X8fa8b&#45;&gt;X156db -->
<g id="edge1" class="edge"><title>X8fa8b&#45;&gt;X156db</title>
<path fill="none" stroke="black" d="M426.183,-290.411C391.474,-279.708 344.07,-265.089 306.665,-253.555"/>
<polygon fill="black" stroke="black" points="307.481,-250.144 296.894,-250.542 305.418,-256.833 307.481,-250.144"/>
</g>
<!-- Xb45be -->
<g id="node3" class="node"><title>Xb45be</title>
<g id="a_node3"><a xlink:href="http://sparql.cwrc.ca/ontologies/cwrc#millenarianism" xlink:title="millénarisme, ou chiliasme" target="_parent">
<ellipse fill="none" stroke="black" cx="687.494" cy="-234" rx="107.781" ry="18"/>
<text text-anchor="middle" x="687.494" y="-230.3" font-family="Times,serif" font-size="14.00">millénarisme, ou chiliasme</text>
</a>
</g>
</g>
<!-- X8fa8b&#45;&gt;Xb45be -->
<g id="edge2" class="edge"><title>X8fa8b&#45;&gt;Xb45be</title>
<path fill="none" stroke="black" d="M518.616,-290.24C551.346,-279.534 595.845,-264.979 630.948,-253.496"/>
<polygon fill="black" stroke="black" points="632.166,-256.78 640.582,-250.345 629.99,-250.127 632.166,-256.78"/>
</g>
<!-- X4e4b1 -->
<g id="node4" class="node"><title>X4e4b1</title>
<g id="a_node4"><a xlink:href="http://sparql.cwrc.ca/ontologies/cwrc#protestantism" xlink:title="protestantisme" target="_parent">
<ellipse fill="none" stroke="black" cx="458.494" cy="-162" rx="62.2891" ry="18"/>
<text text-anchor="middle" x="458.494" y="-158.3" font-family="Times,serif" font-size="14.00">protestantisme</text>
</a>
</g>
</g>
<!-- X156db&#45;&gt;X4e4b1 -->
<g id="edge3" class="edge"><title>X156db&#45;&gt;X4e4b1</title>
<path fill="none" stroke="black" d="M294.071,-217.291C328.293,-205.991 374.33,-190.79 408.986,-179.347"/>
<polygon fill="black" stroke="black" points="410.496,-182.534 418.894,-176.075 408.301,-175.887 410.496,-182.534"/>
</g>
<!-- Xadf16 -->
<g id="node8" class="node"><title>Xadf16</title>
<g id="a_node8"><a xlink:href="http://sparql.cwrc.ca/ontologies/cwrc#christianity" xlink:title="Christianisme" target="_parent">
<ellipse fill="none" stroke="black" cx="828.494" cy="-90" rx="59.5901" ry="18"/>
<text text-anchor="middle" x="828.494" y="-86.3" font-family="Times,serif" font-size="14.00">Christianisme</text>
</a>
</g>
</g>
<!-- X4e4b1&#45;&gt;Xadf16 -->
<g id="edge9" class="edge"><title>X4e4b1&#45;&gt;Xadf16</title>
<path fill="none" stroke="black" d="M509.165,-151.414C576.981,-138.584 697.047,-115.868 769.055,-102.245"/>
<polygon fill="black" stroke="black" points="770.143,-105.602 779.318,-100.304 768.842,-98.7235 770.143,-105.602"/>
</g>
<!-- Xc7ed9 -->
<g id="node5" class="node"><title>Xc7ed9</title>
<g id="a_node5"><a xlink:href="http://sparql.cwrc.ca/ontologies/cwrc#hinduism" xlink:title="Hindou" target="_parent">
<ellipse fill="none" stroke="black" cx="1255.49" cy="-594" rx="37.0935" ry="18"/>
<text text-anchor="middle" x="1255.49" y="-590.3" font-family="Times,serif" font-size="14.00">Hindou</text>
</a>
</g>
</g>
<!-- X43c0c -->
<g id="node6" class="node"><title>X43c0c</title>
<g id="a_node6"><a xlink:href="http://sparql.cwrc.ca/ontologies/cwrc#occultism" xlink:title="occultisme" target="_parent">
<ellipse fill="none" stroke="black" cx="1255.49" cy="-522" rx="49.2915" ry="18"/>
<text text-anchor="middle" x="1255.49" y="-518.3" font-family="Times,serif" font-size="14.00">occultisme</text>
</a>
</g>
</g>
<!-- Xc7ed9&#45;&gt;X43c0c -->
<!-- X52798 -->
<g id="node12" class="node"><title>X52798</title>
<g id="a_node12"><a xlink:href="http://sparql.cwrc.ca/ontologies/cwrc#pantheism" xlink:title="Panthéisme" target="_parent">
<ellipse fill="none" stroke="black" cx="1255.49" cy="-450" rx="51.9908" ry="18"/>
<text text-anchor="middle" x="1255.49" y="-446.3" font-family="Times,serif" font-size="14.00">Panthéisme</text>
</a>
</g>
</g>
<!-- X43c0c&#45;&gt;X52798 -->
<!-- X32f53 -->
<g id="node7" class="node"><title>X32f53</title>
<g id="a_node7"><a xlink:href="http://sparql.cwrc.ca/ontologies/cwrc#catholicism" xlink:title="Catholicisme" target="_parent">
<ellipse fill="none" stroke="black" cx="785.494" cy="-162" rx="57.6901" ry="18"/>
<text text-anchor="middle" x="785.494" y="-158.3" font-family="Times,serif" font-size="14.00">Catholicisme</text>
</a>
</g>
</g>
<!-- X32f53&#45;&gt;Xadf16 -->
<g id="edge5" class="edge"><title>X32f53&#45;&gt;Xadf16</title>
<path fill="none" stroke="black" d="M795.903,-144.055C800.973,-135.801 807.177,-125.701 812.806,-116.538"/>
<polygon fill="black" stroke="black" points="815.928,-118.142 818.18,-107.789 809.964,-114.478 815.928,-118.142"/>
</g>
<!-- Xb2336 -->
<g id="node9" class="node"><title>Xb2336</title>
<g id="a_node9"><a xlink:href="http://sparql.cwrc.ca/ontologies/cwrc#abrahamicReligions" xlink:title="Religions abrahamiques" target="_parent">
<ellipse fill="none" stroke="black" cx="968.494" cy="-18" rx="96.3833" ry="18"/>
<text text-anchor="middle" x="968.494" y="-14.3" font-family="Times,serif" font-size="14.00">Religions abrahamiques</text>
</a>
</g>
</g>
<!-- Xadf16&#45;&gt;Xb2336 -->
<g id="edge6" class="edge"><title>Xadf16&#45;&gt;Xb2336</title>
<path fill="none" stroke="black" d="M858.184,-74.1548C878.27,-64.1116 905.074,-50.7098 927.23,-39.6318"/>
<polygon fill="black" stroke="black" points="929.029,-42.6456 936.408,-35.043 925.898,-36.3846 929.029,-42.6456"/>
</g>
<!-- X253de -->
<g id="node10" class="node"><title>X253de</title>
<g id="a_node10"><a xlink:href="http://sparql.cwrc.ca/ontologies/cwrc#quakerism" xlink:title="quaker" target="_parent">
<ellipse fill="none" stroke="black" cx="40.4937" cy="-306" rx="34.394" ry="18"/>
<text text-anchor="middle" x="40.4937" y="-302.3" font-family="Times,serif" font-size="14.00">quaker</text>
</a>
</g>
</g>
<!-- X253de&#45;&gt;X156db -->
<g id="edge7" class="edge"><title>X253de&#45;&gt;X156db</title>
<path fill="none" stroke="black" d="M68.1327,-295.122C74.7924,-292.767 81.891,-290.276 88.4937,-288 121.669,-276.562 158.875,-264.065 188.846,-254.08"/>
<polygon fill="black" stroke="black" points="190.333,-257.274 198.716,-250.796 188.122,-250.632 190.333,-257.274"/>
</g>
<!-- X0e2fa -->
<g id="node11" class="node"><title>X0e2fa</title>
<g id="a_node11"><a xlink:href="http://sparql.cwrc.ca/ontologies/cwrc#presbyterianism" xlink:title="Presbytarianisme" target="_parent">
<ellipse fill="none" stroke="black" cx="71.4937" cy="-378" rx="71.4873" ry="18"/>
<text text-anchor="middle" x="71.4937" y="-374.3" font-family="Times,serif" font-size="14.00">Presbytarianisme</text>
</a>
</g>
</g>
<!-- X0e2fa&#45;&gt;X156db -->
<g id="edge8" class="edge"><title>X0e2fa&#45;&gt;X156db</title>
<path fill="none" stroke="black" d="M85.0323,-360.246C100.88,-341.286 128.532,-310.166 156.494,-288 171.223,-276.324 188.78,-265.414 204.459,-256.564"/>
<polygon fill="black" stroke="black" points="206.38,-259.501 213.439,-251.601 202.994,-253.375 206.38,-259.501"/>
</g>
<!-- Xd35c6 -->
<g id="node14" class="node"><title>Xd35c6</title>
<g id="a_node14"><a xlink:href="http://sparql.cwrc.ca/ontologies/cwrc#spiritualism" xlink:title="Spritisme" target="_parent">
<ellipse fill="none" stroke="black" cx="1255.49" cy="-378" rx="44.6926" ry="18"/>
<text text-anchor="middle" x="1255.49" y="-374.3" font-family="Times,serif" font-size="14.00">Spritisme</text>
</a>
</g>
</g>
<!-- X52798&#45;&gt;Xd35c6 -->
<!-- Xf6f10 -->
<g id="node13" class="node"><title>Xf6f10</title>
<g id="a_node13"><a xlink:href="http://sparql.cwrc.ca/ontologies/cwrc#anglicanism" xlink:title="Église d&#39;Angleterre" target="_parent">
<ellipse fill="none" stroke="black" cx="939.494" cy="-162" rx="78.7863" ry="18"/>
<text text-anchor="middle" x="939.494" y="-158.3" font-family="Times,serif" font-size="14.00">Église d&#39;Angleterre</text>
</a>
</g>
</g>
<!-- Xf6f10&#45;&gt;Xadf16 -->
<g id="edge11" class="edge"><title>Xf6f10&#45;&gt;Xadf16</title>
<path fill="none" stroke="black" d="M914.028,-144.941C898.583,-135.2 878.696,-122.659 861.986,-112.121"/>
<polygon fill="black" stroke="black" points="863.403,-108.877 853.078,-106.503 859.669,-114.798 863.403,-108.877"/>
</g>
<!-- X36b94 -->
<g id="node15" class="node"><title>X36b94</title>
<g id="a_node15"><a xlink:href="http://sparql.cwrc.ca/ontologies/cwrc#agnosticism" xlink:title="agnosticisme" target="_parent">
<ellipse fill="none" stroke="black" cx="1255.49" cy="-306" rx="57.3905" ry="18"/>
<text text-anchor="middle" x="1255.49" y="-302.3" font-family="Times,serif" font-size="14.00">agnosticisme</text>
</a>
</g>
</g>
<!-- Xd35c6&#45;&gt;X36b94 -->
<!-- X37200 -->
<g id="node16" class="node"><title>X37200</title>
<g id="a_node16"><a xlink:href="http://sparql.cwrc.ca/ontologies/cwrc#paganism" xlink:title="Paganisme" target="_parent">
<ellipse fill="none" stroke="black" cx="1255.49" cy="-234" rx="49.2915" ry="18"/>
<text text-anchor="middle" x="1255.49" y="-230.3" font-family="Times,serif" font-size="14.00">Paganisme</text>
</a>
</g>
</g>
<!-- X36b94&#45;&gt;X37200 -->
<!-- X7152e -->
<g id="node21" class="node"><title>X7152e</title>
<g id="a_node21"><a xlink:href="http://sparql.cwrc.ca/ontologies/cwrc#atheism" xlink:title="athéisme" target="_parent">
<ellipse fill="none" stroke="black" cx="1255.49" cy="-162" rx="42.4939" ry="18"/>
<text text-anchor="middle" x="1255.49" y="-158.3" font-family="Times,serif" font-size="14.00">athéisme</text>
</a>
</g>
</g>
<!-- X37200&#45;&gt;X7152e -->
<!-- X6f203 -->
<g id="node17" class="node"><title>X6f203</title>
<g id="a_node17"><a xlink:href="http://sparql.cwrc.ca/ontologies/cwrc#christianScience" xlink:title="Science Chrétienne" target="_parent">
<ellipse fill="none" stroke="black" cx="1115.49" cy="-162" rx="79.0865" ry="18"/>
<text text-anchor="middle" x="1115.49" y="-158.3" font-family="Times,serif" font-size="14.00">Science Chrétienne</text>
</a>
</g>
</g>
<!-- X6f203&#45;&gt;Xadf16 -->
<g id="edge15" class="edge"><title>X6f203&#45;&gt;Xadf16</title>
<path fill="none" stroke="black" d="M1063.06,-148.301C1018.9,-137.593 954.054,-121.843 897.494,-108 892.869,-106.868 888.07,-105.691 883.255,-104.508"/>
<polygon fill="black" stroke="black" points="883.946,-101.074 873.4,-102.085 882.275,-107.872 883.946,-101.074"/>
</g>
<!-- X2a5d0 -->
<g id="node18" class="node"><title>X2a5d0</title>
<g id="a_node18"><a xlink:href="http://sparql.cwrc.ca/ontologies/cwrc#churchOfIreland" xlink:title="Église d&#39;Irlande" target="_parent">
<ellipse fill="none" stroke="black" cx="939.494" cy="-234" rx="65.7887" ry="18"/>
<text text-anchor="middle" x="939.494" y="-230.3" font-family="Times,serif" font-size="14.00">Église d&#39;Irlande</text>
</a>
</g>
</g>
<!-- X2a5d0&#45;&gt;Xf6f10 -->
<g id="edge16" class="edge"><title>X2a5d0&#45;&gt;Xf6f10</title>
<path fill="none" stroke="black" d="M939.494,-215.697C939.494,-207.983 939.494,-198.712 939.494,-190.112"/>
<polygon fill="black" stroke="black" points="942.994,-190.104 939.494,-180.104 935.994,-190.104 942.994,-190.104"/>
</g>
<!-- Xe1e3e -->
<g id="node19" class="node"><title>Xe1e3e</title>
<g id="a_node19"><a xlink:href="http://sparql.cwrc.ca/ontologies/cwrc#methodism" xlink:title="Église méthodiste" target="_parent">
<ellipse fill="none" stroke="black" cx="106.494" cy="-450" rx="74.187" ry="18"/>
<text text-anchor="middle" x="106.494" y="-446.3" font-family="Times,serif" font-size="14.00">Église méthodiste</text>
</a>
</g>
</g>
<!-- Xe1e3e&#45;&gt;X156db -->
<g id="edge17" class="edge"><title>Xe1e3e&#45;&gt;X156db</title>
<path fill="none" stroke="black" d="M123.022,-432.43C132.281,-422.491 143.531,-409.241 151.494,-396 178.12,-351.725 166.293,-331.289 194.494,-288 201.296,-277.558 210.377,-267.444 219.045,-258.899"/>
<polygon fill="black" stroke="black" points="221.651,-261.251 226.489,-251.825 216.829,-256.177 221.651,-261.251"/>
</g>
<!-- Xc1422 -->
<g id="node20" class="node"><title>Xc1422</title>
<g id="a_node20"><a xlink:href="http://sparql.cwrc.ca/ontologies/cwrc#islam" xlink:title="Mahométisme" target="_parent">
<ellipse fill="none" stroke="black" cx="968.494" cy="-90" rx="62.2891" ry="18"/>
<text text-anchor="middle" x="968.494" y="-86.3" font-family="Times,serif" font-size="14.00">Mahométisme</text>
</a>
</g>
</g>
<!-- Xc1422&#45;&gt;Xb2336 -->
<g id="edge18" class="edge"><title>Xc1422&#45;&gt;Xb2336</title>
<path fill="none" stroke="black" d="M956.737,-72.055C955.101,-64.3456 954.616,-55.0269 955.283,-46.3642"/>
<polygon fill="black" stroke="black" points="958.776,-46.6584 956.668,-36.2753 951.841,-45.7065 958.776,-46.6584"/>
</g>
<!-- Xc1422&#45;&gt;Xb2336 -->
<g id="edge19" class="edge"><title>Xc1422&#45;&gt;Xb2336</title>
<path fill="none" stroke="black" d="M968.494,-71.6966C968.494,-63.9827 968.494,-54.7125 968.494,-46.1124"/>
<polygon fill="black" stroke="black" points="971.994,-46.1043 968.494,-36.1043 964.994,-46.1044 971.994,-46.1043"/>
</g>
<!-- Xc1422&#45;&gt;Xb2336 -->
<g id="edge20" class="edge"><title>Xc1422&#45;&gt;Xb2336</title>
<path fill="none" stroke="black" d="M980.25,-72.055C981.886,-64.3456 982.371,-55.0269 981.704,-46.3642"/>
<polygon fill="black" stroke="black" points="985.147,-45.7065 980.319,-36.2753 978.212,-46.6584 985.147,-45.7065"/>
</g>
<!-- X3b80a -->
<g id="node26" class="node"><title>X3b80a</title>
<g id="a_node26"><a xlink:href="http://sparql.cwrc.ca/ontologies/cwrc#buddhism" xlink:title="Bouddhisme" target="_parent">
<ellipse fill="none" stroke="black" cx="1255.49" cy="-90" rx="55.7903" ry="18"/>
<text text-anchor="middle" x="1255.49" y="-86.3" font-family="Times,serif" font-size="14.00">Bouddhisme</text>
</a>
</g>
</g>
<!-- X7152e&#45;&gt;X3b80a -->
<!-- Xd32ac -->
<g id="node22" class="node"><title>Xd32ac</title>
<g id="a_node22"><a xlink:href="http://sparql.cwrc.ca/ontologies/cwrc#judaism" xlink:title="Judaïsme" target="_parent">
<ellipse fill="none" stroke="black" cx="1093.49" cy="-90" rx="44.393" ry="18"/>
<text text-anchor="middle" x="1093.49" y="-86.3" font-family="Times,serif" font-size="14.00">Judaïsme</text>
</a>
</g>
</g>
<!-- Xd32ac&#45;&gt;Xb2336 -->
<g id="edge22" class="edge"><title>Xd32ac&#45;&gt;Xb2336</title>
<path fill="none" stroke="black" d="M1068.5,-75.0027C1050.7,-65.0382 1026.47,-51.4695 1006.32,-40.1838"/>
<polygon fill="black" stroke="black" points="1007.82,-37.0126 997.387,-35.1803 1004.4,-43.1202 1007.82,-37.0126"/>
</g>
<!-- Xd2614 -->
<g id="node23" class="node"><title>Xd2614</title>
<g id="a_node23"><a xlink:href="http://sparql.cwrc.ca/ontologies/cwrc#fifthMonarchists" xlink:title="Cinquièmes Monarchistes" target="_parent">
<ellipse fill="none" stroke="black" cx="687.494" cy="-306" rx="103.182" ry="18"/>
<text text-anchor="middle" x="687.494" y="-302.3" font-family="Times,serif" font-size="14.00">Cinquièmes Monarchistes</text>
</a>
</g>
</g>
<!-- Xd2614&#45;&gt;X156db -->
<g id="edge23" class="edge"><title>Xd2614&#45;&gt;X156db</title>
<path fill="none" stroke="black" d="M613.68,-293.284C537.847,-281.247 419.651,-262.485 337.94,-249.515"/>
<polygon fill="black" stroke="black" points="338.087,-245.995 327.662,-247.884 336.989,-252.908 338.087,-245.995"/>
</g>
<!-- Xd2614&#45;&gt;Xb45be -->
<g id="edge24" class="edge"><title>Xd2614&#45;&gt;Xb45be</title>
<path fill="none" stroke="black" d="M687.494,-287.697C687.494,-279.983 687.494,-270.712 687.494,-262.112"/>
<polygon fill="black" stroke="black" points="690.994,-262.104 687.494,-252.104 683.994,-262.104 690.994,-262.104"/>
</g>
<!-- X043aa -->
<g id="node24" class="node"><title>X043aa</title>
<g id="a_node24"><a xlink:href="http://sparql.cwrc.ca/ontologies/cwrc#unitarianism" xlink:title="unitarisme" target="_parent">
<ellipse fill="none" stroke="black" cx="170.494" cy="-522" rx="48.1917" ry="18"/>
<text text-anchor="middle" x="170.494" y="-518.3" font-family="Times,serif" font-size="14.00">unitarisme</text>
</a>
</g>
</g>
<!-- X043aa&#45;&gt;X156db -->
<g id="edge25" class="edge"><title>X043aa&#45;&gt;X156db</title>
<path fill="none" stroke="black" d="M177.136,-503.972C181.025,-493.656 185.868,-480.179 189.494,-468 212.963,-389.168 212.434,-367.767 232.494,-288 234.615,-279.564 237.007,-270.395 239.205,-262.092"/>
<polygon fill="black" stroke="black" points="242.659,-262.723 241.851,-252.159 235.894,-260.921 242.659,-262.723"/>
</g>
<!-- X7477d -->
<g id="node25" class="node"><title>X7477d</title>
<g id="a_node25"><a xlink:href="http://sparql.cwrc.ca/ontologies/cwrc#congregationalism" xlink:title="Églises congrégationalistes" target="_parent">
<ellipse fill="none" stroke="black" cx="246.494" cy="-594" rx="106.681" ry="18"/>
<text text-anchor="middle" x="246.494" y="-590.3" font-family="Times,serif" font-size="14.00">Églises congrégationalistes</text>
</a>
</g>
</g>
<!-- X7477d&#45;&gt;X156db -->
<g id="edge26" class="edge"><title>X7477d&#45;&gt;X156db</title>
<path fill="none" stroke="black" d="M246.494,-575.951C246.494,-549.292 246.494,-496.115 246.494,-451 246.494,-451 246.494,-451 246.494,-377 246.494,-336.996 246.494,-290.653 246.494,-262.08"/>
<polygon fill="black" stroke="black" points="249.994,-262.049 246.494,-252.049 242.994,-262.049 249.994,-262.049"/>
</g>
<!-- X1cc79 -->
<g id="node27" class="node"><title>X1cc79</title>
<g id="a_node27"><a xlink:href="http://sparql.cwrc.ca/ontologies/cwrc#lollardy" xlink:title="Lollardy" target="_parent">
<ellipse fill="none" stroke="black" cx="520.494" cy="-234" rx="40.8928" ry="18"/>
<text text-anchor="middle" x="520.494" y="-230.3" font-family="Times,serif" font-size="14.00">Lollardy</text>
</a>
</g>
</g>
<!-- X1cc79&#45;&gt;X32f53 -->
<g id="edge28" class="edge"><title>X1cc79&#45;&gt;X32f53</title>
<path fill="none" stroke="black" d="M551.301,-222.062C557.618,-219.95 564.246,-217.828 570.494,-216 624.063,-200.322 686.026,-185.38 729.63,-175.381"/>
<polygon fill="black" stroke="black" points="730.501,-178.773 739.472,-173.137 728.944,-171.948 730.501,-178.773"/>
</g>
<!-- Xd53bc -->
<g id="node28" class="node"><title>Xd53bc</title>
<g id="a_node28"><a xlink:href="http://sparql.cwrc.ca/ontologies/cwrc#baptistChristianity" xlink:title="Baptisme" target="_parent">
<ellipse fill="none" stroke="black" cx="318.494" cy="-306" rx="44.393" ry="18"/>
<text text-anchor="middle" x="318.494" y="-302.3" font-family="Times,serif" font-size="14.00">Baptisme</text>
</a>
</g>
</g>
<!-- Xd53bc&#45;&gt;X156db -->
<g id="edge29" class="edge"><title>Xd53bc&#45;&gt;X156db</title>
<path fill="none" stroke="black" d="M302.156,-289.116C293.097,-280.308 281.641,-269.171 271.481,-259.293"/>
<polygon fill="black" stroke="black" points="273.635,-256.506 264.025,-252.044 268.755,-261.525 273.635,-256.506"/>
</g>
<!-- Xb800b -->
<g id="node29" class="node"><title>Xb800b</title>
<g id="a_node29"><a xlink:href="http://sparql.cwrc.ca/ontologies/cwrc#tractarianMovement" xlink:title="tractarianisme" target="_parent">
<ellipse fill="none" stroke="black" cx="1033.49" cy="-306" rx="61.1893" ry="18"/>
<text text-anchor="middle" x="1033.49" y="-302.3" font-family="Times,serif" font-size="14.00">tractarianisme</text>
</a>
</g>
</g>
<!-- Xb800b&#45;&gt;Xf6f10 -->
<g id="edge30" class="edge"><title>Xb800b&#45;&gt;Xf6f10</title>
<path fill="none" stroke="black" d="M1033.45,-287.853C1032.63,-268.817 1028.93,-237.895 1014.49,-216 1005.94,-203.022 993.018,-192.242 980.302,-183.868"/>
<polygon fill="black" stroke="black" points="981.929,-180.758 971.587,-178.457 978.237,-186.706 981.929,-180.758"/>
</g>
<!-- Xe7b0a -->
<g id="node30" class="node"><title>Xe7b0a</title>
<g id="a_node30"><a xlink:href="http://sparql.cwrc.ca/ontologies/cwrc#neo-thomism" xlink:title="néothomisme" target="_parent">
<ellipse fill="none" stroke="black" cx="867.494" cy="-306" rx="59.2899" ry="18"/>
<text text-anchor="middle" x="867.494" y="-302.3" font-family="Times,serif" font-size="14.00">néothomisme</text>
</a>
</g>
</g>
<!-- Xe7b0a&#45;&gt;X32f53 -->
<g id="edge31" class="edge"><title>Xe7b0a&#45;&gt;X32f53</title>
<path fill="none" stroke="black" d="M857.765,-288.153C843.525,-263.493 816.893,-217.374 800.238,-188.533"/>
<polygon fill="black" stroke="black" points="803.241,-186.735 795.209,-179.825 797.179,-190.235 803.241,-186.735"/>
</g>
</g>
</svg>
