<?xml version="1.0" encoding="UTF-8" standalone="no"?>
<!DOCTYPE svg PUBLIC "-//W3C//DTD SVG 1.1//EN"
 "http://www.w3.org/Graphics/SVG/1.1/DTD/svg11.dtd">
<!-- Generated by graphviz version 2.38.0 (20140413.2041)
 -->
<!-- Title: ReligionGraph Pages: 1 -->
<svg width="1228pt" height="620pt"
 viewBox="0.00 0.00 1227.69 620.00" xmlns="http://www.w3.org/2000/svg" xmlns:xlink="http://www.w3.org/1999/xlink">
<g id="graph0" class="graph" transform="scale(1 1) rotate(0) translate(4 616)">
<title>ReligionGraph</title>
<polygon fill="white" stroke="none" points="-4,4 -4,-616 1223.69,-616 1223.69,4 -4,4"/>
<!-- X52798 -->
<g id="node1" class="node"><title>X52798</title>
<g id="a_node1"><a xlink:href="http://sparql.cwrc.ca/ontologies/cwrc#pantheism" xlink:title="Pantheism" target="_parent">
<ellipse fill="none" stroke="black" cx="97.4913" cy="-594" rx="48.1917" ry="18"/>
<text text-anchor="middle" x="97.4913" y="-590.3" font-family="Times,serif" font-size="14.00">Pantheism</text>
</a>
</g>
</g>
<!-- X7152e -->
<g id="node2" class="node"><title>X7152e</title>
<g id="a_node2"><a xlink:href="http://sparql.cwrc.ca/ontologies/cwrc#atheism" xlink:title="Atheism" target="_parent">
<ellipse fill="none" stroke="black" cx="97.4913" cy="-522" rx="40.8928" ry="18"/>
<text text-anchor="middle" x="97.4913" y="-518.3" font-family="Times,serif" font-size="14.00">Atheism</text>
</a>
</g>
</g>
<!-- X52798&#45;&gt;X7152e -->
<!-- X36b94 -->
<g id="node3" class="node"><title>X36b94</title>
<g id="a_node3"><a xlink:href="http://sparql.cwrc.ca/ontologies/cwrc#agnosticism" xlink:title="Agnosticism" target="_parent">
<ellipse fill="none" stroke="black" cx="97.4913" cy="-450" rx="55.7903" ry="18"/>
<text text-anchor="middle" x="97.4913" y="-446.3" font-family="Times,serif" font-size="14.00">Agnosticism</text>
</a>
</g>
</g>
<!-- X7152e&#45;&gt;X36b94 -->
<!-- X37200 -->
<g id="node11" class="node"><title>X37200</title>
<g id="a_node11"><a xlink:href="http://sparql.cwrc.ca/ontologies/cwrc#paganism" xlink:title="Paganism" target="_parent">
<ellipse fill="none" stroke="black" cx="97.4913" cy="-378" rx="45.4919" ry="18"/>
<text text-anchor="middle" x="97.4913" y="-374.3" font-family="Times,serif" font-size="14.00">Paganism</text>
</a>
</g>
</g>
<!-- X36b94&#45;&gt;X37200 -->
<!-- X8fa8b -->
<g id="node4" class="node"><title>X8fa8b</title>
<g id="a_node4"><a xlink:href="http://sparql.cwrc.ca/ontologies/cwrc#plymouthBrethren" xlink:title="Plymouth Brethren" target="_parent">
<ellipse fill="none" stroke="black" cx="708.491" cy="-306" rx="78.7863" ry="18"/>
<text text-anchor="middle" x="708.491" y="-302.3" font-family="Times,serif" font-size="14.00">Plymouth Brethren</text>
</a>
</g>
</g>
<!-- X156db -->
<g id="node5" class="node"><title>X156db</title>
<g id="a_node5"><a xlink:href="http://sparql.cwrc.ca/ontologies/cwrc#dissentProtestant" xlink:title="Dissent (Protestant)" target="_parent">
<ellipse fill="none" stroke="black" cx="427.491" cy="-234" rx="80.6858" ry="18"/>
<text text-anchor="middle" x="427.491" y="-230.3" font-family="Times,serif" font-size="14.00">Dissent (Protestant)</text>
</a>
</g>
</g>
<!-- X8fa8b&#45;&gt;X156db -->
<g id="edge3" class="edge"><title>X8fa8b&#45;&gt;X156db</title>
<path fill="none" stroke="black" d="M657.278,-292.242C609.937,-280.449 539.501,-262.903 489.103,-250.348"/>
<polygon fill="black" stroke="black" points="489.852,-246.928 479.303,-247.907 488.16,-253.72 489.852,-246.928"/>
</g>
<!-- Xb45be -->
<g id="node6" class="node"><title>Xb45be</title>
<g id="a_node6"><a xlink:href="http://sparql.cwrc.ca/ontologies/cwrc#millenarianism" xlink:title="Millenarianism" target="_parent">
<ellipse fill="none" stroke="black" cx="793.491" cy="-234" rx="65.7887" ry="18"/>
<text text-anchor="middle" x="793.491" y="-230.3" font-family="Times,serif" font-size="14.00">Millenarianism</text>
</a>
</g>
</g>
<!-- X8fa8b&#45;&gt;Xb45be -->
<g id="edge4" class="edge"><title>X8fa8b&#45;&gt;Xb45be</title>
<path fill="none" stroke="black" d="M728.635,-288.411C739.724,-279.279 753.652,-267.809 765.755,-257.842"/>
<polygon fill="black" stroke="black" points="768.291,-260.287 773.785,-251.228 763.841,-254.884 768.291,-260.287"/>
</g>
<!-- X4e4b1 -->
<g id="node7" class="node"><title>X4e4b1</title>
<g id="a_node7"><a xlink:href="http://sparql.cwrc.ca/ontologies/cwrc#protestantism" xlink:title="Protestantism" target="_parent">
<ellipse fill="none" stroke="black" cx="567.491" cy="-162" rx="59.2899" ry="18"/>
<text text-anchor="middle" x="567.491" y="-158.3" font-family="Times,serif" font-size="14.00">Protestantism</text>
</a>
</g>
</g>
<!-- X156db&#45;&gt;X4e4b1 -->
<g id="edge5" class="edge"><title>X156db&#45;&gt;X4e4b1</title>
<path fill="none" stroke="black" d="M458.91,-217.291C479.649,-206.921 506.959,-193.266 529.001,-182.245"/>
<polygon fill="black" stroke="black" points="530.712,-185.303 538.091,-177.7 527.581,-179.042 530.712,-185.303"/>
</g>
<!-- Xadf16 -->
<g id="node23" class="node"><title>Xadf16</title>
<g id="a_node23"><a xlink:href="http://sparql.cwrc.ca/ontologies/cwrc#christianity" xlink:title="Christianity" target="_parent">
<ellipse fill="none" stroke="black" cx="944.491" cy="-90" rx="51.9908" ry="18"/>
<text text-anchor="middle" x="944.491" y="-86.3" font-family="Times,serif" font-size="14.00">Christianity</text>
</a>
</g>
</g>
<!-- X4e4b1&#45;&gt;Xadf16 -->
<g id="edge26" class="edge"><title>X4e4b1&#45;&gt;Xadf16</title>
<path fill="none" stroke="black" d="M620.379,-153.873C683.405,-144.979 791.726,-128.423 883.491,-108 887.656,-107.073 891.961,-106.036 896.266,-104.945"/>
<polygon fill="black" stroke="black" points="897.467,-108.248 906.25,-102.323 895.689,-101.478 897.467,-108.248"/>
</g>
<!-- Xe1e3e -->
<g id="node8" class="node"><title>Xe1e3e</title>
<g id="a_node8"><a xlink:href="http://sparql.cwrc.ca/ontologies/cwrc#methodism" xlink:title="Methodism" target="_parent">
<ellipse fill="none" stroke="black" cx="213.491" cy="-306" rx="51.9908" ry="18"/>
<text text-anchor="middle" x="213.491" y="-302.3" font-family="Times,serif" font-size="14.00">Methodism</text>
</a>
</g>
</g>
<!-- Xe1e3e&#45;&gt;X156db -->
<g id="edge6" class="edge"><title>Xe1e3e&#45;&gt;X156db</title>
<path fill="none" stroke="black" d="M250.279,-292.967C284.431,-281.795 335.669,-265.036 374.278,-252.406"/>
<polygon fill="black" stroke="black" points="375.388,-255.726 383.804,-249.29 373.212,-249.073 375.388,-255.726"/>
</g>
<!-- Xd32ac -->
<g id="node9" class="node"><title>Xd32ac</title>
<g id="a_node9"><a xlink:href="http://sparql.cwrc.ca/ontologies/cwrc#judaism" xlink:title="Judaism" target="_parent">
<ellipse fill="none" stroke="black" cx="834.491" cy="-90" rx="40.0939" ry="18"/>
<text text-anchor="middle" x="834.491" y="-86.3" font-family="Times,serif" font-size="14.00">Judaism</text>
</a>
</g>
</g>
<!-- Xb2336 -->
<g id="node10" class="node"><title>Xb2336</title>
<g id="a_node10"><a xlink:href="http://sparql.cwrc.ca/ontologies/cwrc#abrahamicReligions" xlink:title="Abrahamic religions" target="_parent">
<ellipse fill="none" stroke="black" cx="944.491" cy="-18" rx="83.3857" ry="18"/>
<text text-anchor="middle" x="944.491" y="-14.3" font-family="Times,serif" font-size="14.00">Abrahamic religions</text>
</a>
</g>
</g>
<!-- Xd32ac&#45;&gt;Xb2336 -->
<g id="edge7" class="edge"><title>Xd32ac&#45;&gt;Xb2336</title>
<path fill="none" stroke="black" d="M856.751,-74.8345C872.041,-65.1048 892.637,-51.9979 910.033,-40.9283"/>
<polygon fill="black" stroke="black" points="912.235,-43.6755 918.792,-35.3539 908.477,-37.7699 912.235,-43.6755"/>
</g>
<!-- Xc7ed9 -->
<g id="node12" class="node"><title>Xc7ed9</title>
<g id="a_node12"><a xlink:href="http://sparql.cwrc.ca/ontologies/cwrc#hinduism" xlink:title="Hinduism" target="_parent">
<ellipse fill="none" stroke="black" cx="97.4913" cy="-306" rx="46.2923" ry="18"/>
<text text-anchor="middle" x="97.4913" y="-302.3" font-family="Times,serif" font-size="14.00">Hinduism</text>
</a>
</g>
</g>
<!-- X37200&#45;&gt;Xc7ed9 -->
<!-- X43c0c -->
<g id="node13" class="node"><title>X43c0c</title>
<g id="a_node13"><a xlink:href="http://sparql.cwrc.ca/ontologies/cwrc#occultism" xlink:title="Occultism/Theosophism" target="_parent">
<ellipse fill="none" stroke="black" cx="97.4913" cy="-234" rx="97.4827" ry="18"/>
<text text-anchor="middle" x="97.4913" y="-230.3" font-family="Times,serif" font-size="14.00">Occultism/Theosophism</text>
</a>
</g>
</g>
<!-- Xc7ed9&#45;&gt;X43c0c -->
<!-- Xd35c6 -->
<g id="node16" class="node"><title>Xd35c6</title>
<g id="a_node16"><a xlink:href="http://sparql.cwrc.ca/ontologies/cwrc#spiritualism" xlink:title="Spiritualism" target="_parent">
<ellipse fill="none" stroke="black" cx="97.4913" cy="-162" rx="53.8905" ry="18"/>
<text text-anchor="middle" x="97.4913" y="-158.3" font-family="Times,serif" font-size="14.00">Spiritualism</text>
</a>
</g>
</g>
<!-- X43c0c&#45;&gt;Xd35c6 -->
<!-- X253de -->
<g id="node14" class="node"><title>X253de</title>
<g id="a_node14"><a xlink:href="http://sparql.cwrc.ca/ontologies/cwrc#quakerism" xlink:title="Quakerism" target="_parent">
<ellipse fill="none" stroke="black" cx="273.491" cy="-378" rx="50.0912" ry="18"/>
<text text-anchor="middle" x="273.491" y="-374.3" font-family="Times,serif" font-size="14.00">Quakerism</text>
</a>
</g>
</g>
<!-- X253de&#45;&gt;X156db -->
<g id="edge11" class="edge"><title>X253de&#45;&gt;X156db</title>
<path fill="none" stroke="black" d="M282.807,-359.977C293.933,-340.772 314.016,-309.426 337.491,-288 351.486,-275.227 369.051,-264.051 384.94,-255.296"/>
<polygon fill="black" stroke="black" points="386.887,-258.224 394.061,-250.428 383.591,-252.049 386.887,-258.224"/>
</g>
<!-- X043aa -->
<g id="node15" class="node"><title>X043aa</title>
<g id="a_node15"><a xlink:href="http://sparql.cwrc.ca/ontologies/cwrc#unitarianism" xlink:title="Unitarianism" target="_parent">
<ellipse fill="none" stroke="black" cx="304.491" cy="-450" rx="57.3905" ry="18"/>
<text text-anchor="middle" x="304.491" y="-446.3" font-family="Times,serif" font-size="14.00">Unitarianism</text>
</a>
</g>
</g>
<!-- X043aa&#45;&gt;X156db -->
<g id="edge12" class="edge"><title>X043aa&#45;&gt;X156db</title>
<path fill="none" stroke="black" d="M314.043,-432.048C319.689,-421.758 326.821,-408.283 332.491,-396 354.145,-349.092 347.291,-331.289 375.491,-288 382.348,-277.474 391.52,-267.282 400.251,-258.694"/>
<polygon fill="black" stroke="black" points="402.892,-261.013 407.741,-251.593 398.076,-255.934 402.892,-261.013"/>
</g>
<!-- X3b80a -->
<g id="node19" class="node"><title>X3b80a</title>
<g id="a_node19"><a xlink:href="http://sparql.cwrc.ca/ontologies/cwrc#buddhism" xlink:title="Buddhism" target="_parent">
<ellipse fill="none" stroke="black" cx="97.4913" cy="-90" rx="47.3916" ry="18"/>
<text text-anchor="middle" x="97.4913" y="-86.3" font-family="Times,serif" font-size="14.00">Buddhism</text>
</a>
</g>
</g>
<!-- Xd35c6&#45;&gt;X3b80a -->
<!-- X2a5d0 -->
<g id="node17" class="node"><title>X2a5d0</title>
<g id="a_node17"><a xlink:href="http://sparql.cwrc.ca/ontologies/cwrc#churchOfIreland" xlink:title="Church of Ireland" target="_parent">
<ellipse fill="none" stroke="black" cx="528.491" cy="-522" rx="73.387" ry="18"/>
<text text-anchor="middle" x="528.491" y="-518.3" font-family="Times,serif" font-size="14.00">Church of Ireland</text>
</a>
</g>
</g>
<!-- Xf6f10 -->
<g id="node18" class="node"><title>Xf6f10</title>
<ellipse fill="none" stroke="black" cx="578.491" cy="-450" rx="36.2938" ry="18"/>
<text text-anchor="middle" x="578.491" y="-446.3" font-family="Times,serif" font-size="14.00">Xf6f10</text>
</g>
<!-- X2a5d0&#45;&gt;Xf6f10 -->
<g id="edge14" class="edge"><title>X2a5d0&#45;&gt;Xf6f10</title>
<path fill="none" stroke="black" d="M540.595,-504.055C546.702,-495.505 554.224,-484.975 560.951,-475.556"/>
<polygon fill="black" stroke="black" points="563.879,-477.479 566.843,-467.307 558.183,-473.41 563.879,-477.479"/>
</g>
<!-- Xd53bc -->
<g id="node20" class="node"><title>Xd53bc</title>
<g id="a_node20"><a xlink:href="http://sparql.cwrc.ca/ontologies/cwrc#baptistChristianity" xlink:title="Baptist Christianity" target="_parent">
<ellipse fill="none" stroke="black" cx="320.491" cy="-522" rx="79.0865" ry="18"/>
<text text-anchor="middle" x="320.491" y="-518.3" font-family="Times,serif" font-size="14.00">Baptist Christianity</text>
</a>
</g>
</g>
<!-- Xd53bc&#45;&gt;X156db -->
<g id="edge16" class="edge"><title>Xd53bc&#45;&gt;X156db</title>
<path fill="none" stroke="black" d="M340.715,-504.265C351.071,-494.666 363.035,-481.8 370.491,-468 409.591,-395.637 393.431,-367.767 413.491,-288 415.613,-279.564 418.004,-270.395 420.202,-262.092"/>
<polygon fill="black" stroke="black" points="423.656,-262.723 422.848,-252.159 416.892,-260.921 423.656,-262.723"/>
</g>
<!-- X0e2fa -->
<g id="node21" class="node"><title>X0e2fa</title>
<g id="a_node21"><a xlink:href="http://sparql.cwrc.ca/ontologies/cwrc#presbyterianism" xlink:title="Presbyterianism" target="_parent">
<ellipse fill="none" stroke="black" cx="427.491" cy="-594" rx="67.6881" ry="18"/>
<text text-anchor="middle" x="427.491" y="-590.3" font-family="Times,serif" font-size="14.00">Presbyterianism</text>
</a>
</g>
</g>
<!-- X0e2fa&#45;&gt;X156db -->
<g id="edge17" class="edge"><title>X0e2fa&#45;&gt;X156db</title>
<path fill="none" stroke="black" d="M427.491,-575.951C427.491,-549.292 427.491,-496.115 427.491,-451 427.491,-451 427.491,-451 427.491,-377 427.491,-336.996 427.491,-290.653 427.491,-262.08"/>
<polygon fill="black" stroke="black" points="430.991,-262.049 427.491,-252.049 423.991,-262.049 430.991,-262.049"/>
</g>
<!-- X6f203 -->
<g id="node22" class="node"><title>X6f203</title>
<g id="a_node22"><a xlink:href="http://sparql.cwrc.ca/ontologies/cwrc#christianScience" xlink:title="Christian Science" target="_parent">
<ellipse fill="none" stroke="black" cx="858.491" cy="-162" rx="72.5877" ry="18"/>
<text text-anchor="middle" x="858.491" y="-158.3" font-family="Times,serif" font-size="14.00">Christian Science</text>
</a>
</g>
</g>
<!-- X6f203&#45;&gt;Xadf16 -->
<g id="edge18" class="edge"><title>X6f203&#45;&gt;Xadf16</title>
<path fill="none" stroke="black" d="M878.872,-144.411C890.362,-135.058 904.865,-123.254 917.312,-113.123"/>
<polygon fill="black" stroke="black" points="919.597,-115.776 925.143,-106.749 915.178,-110.347 919.597,-115.776"/>
</g>
<!-- Xadf16&#45;&gt;Xb2336 -->
<g id="edge19" class="edge"><title>Xadf16&#45;&gt;Xb2336</title>
<path fill="none" stroke="black" d="M944.491,-71.6966C944.491,-63.9827 944.491,-54.7125 944.491,-46.1124"/>
<polygon fill="black" stroke="black" points="947.991,-46.1043 944.491,-36.1043 940.991,-46.1044 947.991,-46.1043"/>
</g>
<!-- Xd2614 -->
<g id="node24" class="node"><title>Xd2614</title>
<g id="a_node24"><a xlink:href="http://sparql.cwrc.ca/ontologies/cwrc#fifthMonarchists" xlink:title="Fifth Monarchists" target="_parent">
<ellipse fill="none" stroke="black" cx="879.491" cy="-306" rx="74.187" ry="18"/>
<text text-anchor="middle" x="879.491" y="-302.3" font-family="Times,serif" font-size="14.00">Fifth Monarchists</text>
</a>
</g>
</g>
<!-- Xd2614&#45;&gt;X156db -->
<g id="edge20" class="edge"><title>Xd2614&#45;&gt;X156db</title>
<path fill="none" stroke="black" d="M825.556,-293.469C815.897,-291.542 805.91,-289.64 796.491,-288 696.773,-270.642 581.176,-254.712 506.319,-244.944"/>
<polygon fill="black" stroke="black" points="506.4,-241.425 496.032,-243.607 505.498,-248.367 506.4,-241.425"/>
</g>
<!-- Xd2614&#45;&gt;Xb45be -->
<g id="edge21" class="edge"><title>Xd2614&#45;&gt;Xb45be</title>
<path fill="none" stroke="black" d="M859.111,-288.411C847.783,-279.191 833.529,-267.588 821.201,-257.555"/>
<polygon fill="black" stroke="black" points="823.394,-254.827 813.429,-251.228 818.975,-260.256 823.394,-254.827"/>
</g>
<!-- Xb800b -->
<g id="node25" class="node"><title>Xb800b</title>
<g id="a_node25"><a xlink:href="http://sparql.cwrc.ca/ontologies/cwrc#tractarianMovement" xlink:title="Tractarian Movement" target="_parent">
<ellipse fill="none" stroke="black" cx="629.491" cy="-594" rx="88.2844" ry="18"/>
<text text-anchor="middle" x="629.491" y="-590.3" font-family="Times,serif" font-size="14.00">Tractarian Movement</text>
</a>
</g>
</g>
<!-- Xb800b&#45;&gt;Xf6f10 -->
<g id="edge22" class="edge"><title>Xb800b&#45;&gt;Xf6f10</title>
<path fill="none" stroke="black" d="M627.542,-575.778C625.078,-557.481 619.966,-527.947 610.491,-504 606.676,-494.357 601.191,-484.454 595.837,-475.857"/>
<polygon fill="black" stroke="black" points="598.756,-473.925 590.38,-467.436 592.881,-477.732 598.756,-473.925"/>
</g>
<!-- X1cc79 -->
<g id="node26" class="node"><title>X1cc79</title>
<g id="a_node26"><a xlink:href="http://sparql.cwrc.ca/ontologies/cwrc#lollardy" xlink:title="Lollardy" target="_parent">
<ellipse fill="none" stroke="black" cx="1100.49" cy="-234" rx="40.8928" ry="18"/>
<text text-anchor="middle" x="1100.49" y="-230.3" font-family="Times,serif" font-size="14.00">Lollardy</text>
</a>
</g>
</g>
<!-- X32f53 -->
<g id="node27" class="node"><title>X32f53</title>
<g id="a_node27"><a xlink:href="http://sparql.cwrc.ca/ontologies/cwrc#catholicism" xlink:title="Roman Catholicism" target="_parent">
<ellipse fill="none" stroke="black" cx="1031.49" cy="-162" rx="81.7856" ry="18"/>
<text text-anchor="middle" x="1031.49" y="-158.3" font-family="Times,serif" font-size="14.00">Roman Catholicism</text>
</a>
</g>
</g>
<!-- X1cc79&#45;&gt;X32f53 -->
<g id="edge23" class="edge"><title>X1cc79&#45;&gt;X32f53</title>
<path fill="none" stroke="black" d="M1084.83,-217.116C1076.09,-208.244 1065.01,-197.009 1055.22,-187.077"/>
<polygon fill="black" stroke="black" points="1057.56,-184.462 1048.05,-179.797 1052.58,-189.376 1057.56,-184.462"/>
</g>
<!-- X32f53&#45;&gt;Xadf16 -->
<g id="edge24" class="edge"><title>X32f53&#45;&gt;Xadf16</title>
<path fill="none" stroke="black" d="M1010.87,-144.411C999.25,-135.058 984.579,-123.254 971.987,-113.123"/>
<polygon fill="black" stroke="black" points="974.05,-110.291 964.065,-106.749 969.662,-115.745 974.05,-110.291"/>
</g>
<!-- X7477d -->
<g id="node28" class="node"><title>X7477d</title>
<g id="a_node28"><a xlink:href="http://sparql.cwrc.ca/ontologies/cwrc#congregationalism" xlink:title="Congregationalism" target="_parent">
<ellipse fill="none" stroke="black" cx="533.491" cy="-306" rx="77.9862" ry="18"/>
<text text-anchor="middle" x="533.491" y="-302.3" font-family="Times,serif" font-size="14.00">Congregationalism</text>
</a>
</g>
</g>
<!-- X7477d&#45;&gt;X156db -->
<g id="edge25" class="edge"><title>X7477d&#45;&gt;X156db</title>
<path fill="none" stroke="black" d="M508.906,-288.765C494.561,-279.291 476.272,-267.214 460.664,-256.906"/>
<polygon fill="black" stroke="black" points="462.584,-253.98 452.31,-251.39 458.726,-259.821 462.584,-253.98"/>
</g>
<!-- Xe7b0a -->
<g id="node29" class="node"><title>Xe7b0a</title>
<g id="a_node29"><a xlink:href="http://sparql.cwrc.ca/ontologies/cwrc#neo-thomism" xlink:title="Neo&#45;thomism" target="_parent">
<ellipse fill="none" stroke="black" cx="1031.49" cy="-306" rx="59.5901" ry="18"/>
<text text-anchor="middle" x="1031.49" y="-302.3" font-family="Times,serif" font-size="14.00">Neo&#45;thomism</text>
</a>
</g>
</g>
<!-- Xe7b0a&#45;&gt;X32f53 -->
<g id="edge27" class="edge"><title>Xe7b0a&#45;&gt;X32f53</title>
<path fill="none" stroke="black" d="M1031.49,-287.871C1031.49,-263.67 1031.49,-219.211 1031.49,-190.393"/>
<polygon fill="black" stroke="black" points="1034.99,-190.189 1031.49,-180.189 1027.99,-190.189 1034.99,-190.189"/>
</g>
<!-- Xc1422 -->
<g id="node30" class="node"><title>Xc1422</title>
<g id="a_node30"><a xlink:href="http://sparql.cwrc.ca/ontologies/cwrc#islam" xlink:title="Islamism" target="_parent">
<ellipse fill="none" stroke="black" cx="1175.49" cy="-162" rx="44.393" ry="18"/>
<text text-anchor="middle" x="1175.49" y="-158.3" font-family="Times,serif" font-size="14.00">Islamism</text>
</a>
</g>
</g>
<!-- Xc1422&#45;&gt;Xb2336 -->
<g id="edge28" class="edge"><title>Xc1422&#45;&gt;Xb2336</title>
<path fill="none" stroke="black" d="M1152.07,-146.603C1111.34,-121.564 1027.25,-69.8743 979.544,-40.5477"/>
<polygon fill="black" stroke="black" points="981.147,-37.4245 970.795,-35.1693 977.481,-43.3879 981.147,-37.4245"/>
</g>
</g>
</svg>
