<?xml version="1.0" encoding="UTF-8" standalone="no"?>
<!DOCTYPE svg PUBLIC "-//W3C//DTD SVG 1.1//EN"
 "http://www.w3.org/Graphics/SVG/1.1/DTD/svg11.dtd">
<!-- Generated by graphviz version 2.38.0 (20140413.2041)
 -->
<!-- Title: ReligionGraph Pages: 1 -->
<svg width="1658pt" height="548pt"
 viewBox="0.00 0.00 1658.08 548.00" xmlns="http://www.w3.org/2000/svg" xmlns:xlink="http://www.w3.org/1999/xlink">
<g id="graph0" class="graph" transform="scale(1 1) rotate(0) translate(4 544)">
<title>ReligionGraph</title>
<polygon fill="white" stroke="none" points="-4,4 -4,-544 1654.08,-544 1654.08,4 -4,4"/>
<!-- X43c0c -->
<g id="node1" class="node"><title>X43c0c</title>
<g id="a_node1"><a xlink:href="http://sparql.cwrc.ca/ontologies/cwrc#occultism" xlink:title="Occultism/Theosophism" target="_parent">
<ellipse fill="none" stroke="black" cx="122.189" cy="-522" rx="122.379" ry="18"/>
<text text-anchor="middle" x="122.189" y="-518.3" font-family="Times,serif" font-size="14.00">Occultism/Theosophism</text>
</a>
</g>
</g>
<!-- X37200 -->
<g id="node2" class="node"><title>X37200</title>
<g id="a_node2"><a xlink:href="http://sparql.cwrc.ca/ontologies/cwrc#paganism" xlink:title="Paganism" target="_parent">
<ellipse fill="none" stroke="black" cx="122.189" cy="-450" rx="55.7903" ry="18"/>
<text text-anchor="middle" x="122.189" y="-446.3" font-family="Times,serif" font-size="14.00">Paganism</text>
</a>
</g>
</g>
<!-- X43c0c&#45;&gt;X37200 -->
<!-- X3b80a -->
<g id="node17" class="node"><title>X3b80a</title>
<g id="a_node17"><a xlink:href="http://sparql.cwrc.ca/ontologies/cwrc#buddhism" xlink:title="Buddhism" target="_parent">
<ellipse fill="none" stroke="black" cx="122.189" cy="-378" rx="57.6901" ry="18"/>
<text text-anchor="middle" x="122.189" y="-374.3" font-family="Times,serif" font-size="14.00">Buddhism</text>
</a>
</g>
</g>
<!-- X37200&#45;&gt;X3b80a -->
<!-- X043aa -->
<g id="node3" class="node"><title>X043aa</title>
<g id="a_node3"><a xlink:href="http://sparql.cwrc.ca/ontologies/cwrc#unitarianism" xlink:title="Unitarianism" target="_parent">
<ellipse fill="none" stroke="black" cx="854.189" cy="-234" rx="71.4873" ry="18"/>
<text text-anchor="middle" x="854.189" y="-230.3" font-family="Times,serif" font-size="14.00">Unitarianism</text>
</a>
</g>
</g>
<!-- X4e4b1 -->
<g id="node4" class="node"><title>X4e4b1</title>
<g id="a_node4"><a xlink:href="http://sparql.cwrc.ca/ontologies/cwrc#protestantism" xlink:title="Protestantism" target="_parent">
<ellipse fill="none" stroke="black" cx="953.189" cy="-162" rx="76.8869" ry="18"/>
<text text-anchor="middle" x="953.189" y="-158.3" font-family="Times,serif" font-size="14.00">Protestantism</text>
</a>
</g>
</g>
<!-- X043aa&#45;&gt;X4e4b1 -->
<g id="edge2" class="edge"><title>X043aa&#45;&gt;X4e4b1</title>
<path fill="none" stroke="black" d="M877.151,-216.765C890.425,-207.379 907.314,-195.437 921.802,-185.193"/>
<polygon fill="black" stroke="black" points="923.865,-188.021 930.009,-179.39 919.824,-182.305 923.865,-188.021"/>
</g>
<!-- Xadf16 -->
<g id="node5" class="node"><title>Xadf16</title>
<g id="a_node5"><a xlink:href="http://sparql.cwrc.ca/ontologies/cwrc#christianity" xlink:title="Christianity" target="_parent">
<ellipse fill="none" stroke="black" cx="953.189" cy="-90" rx="66.0889" ry="18"/>
<text text-anchor="middle" x="953.189" y="-86.3" font-family="Times,serif" font-size="14.00">Christianity</text>
</a>
</g>
</g>
<!-- X4e4b1&#45;&gt;Xadf16 -->
<g id="edge3" class="edge"><title>X4e4b1&#45;&gt;Xadf16</title>
<path fill="none" stroke="black" d="M953.189,-143.697C953.189,-135.983 953.189,-126.712 953.189,-118.112"/>
<polygon fill="black" stroke="black" points="956.689,-118.104 953.189,-108.104 949.689,-118.104 956.689,-118.104"/>
</g>
<!-- Xb2336 -->
<g id="node10" class="node"><title>Xb2336</title>
<g id="a_node10"><a xlink:href="http://sparql.cwrc.ca/ontologies/cwrc#abrahamicReligions" xlink:title="Abrahamic religions" target="_parent">
<ellipse fill="none" stroke="black" cx="1155.19" cy="-18" rx="104.782" ry="18"/>
<text text-anchor="middle" x="1155.19" y="-14.3" font-family="Times,serif" font-size="14.00">Abrahamic religions</text>
</a>
</g>
</g>
<!-- Xadf16&#45;&gt;Xb2336 -->
<g id="edge7" class="edge"><title>Xadf16&#45;&gt;Xb2336</title>
<path fill="none" stroke="black" d="M992.616,-75.3371C1023.55,-64.6181 1066.94,-49.5814 1101.12,-37.7386"/>
<polygon fill="black" stroke="black" points="1102.64,-40.9135 1110.95,-34.332 1100.35,-34.2994 1102.64,-40.9135"/>
</g>
<!-- X2a5d0 -->
<g id="node6" class="node"><title>X2a5d0</title>
<g id="a_node6"><a xlink:href="http://sparql.cwrc.ca/ontologies/cwrc#churchOfIreland" xlink:title="Church of Ireland" target="_parent">
<ellipse fill="none" stroke="black" cx="633.189" cy="-234" rx="93.6835" ry="18"/>
<text text-anchor="middle" x="633.189" y="-230.3" font-family="Times,serif" font-size="14.00">Church of Ireland</text>
</a>
</g>
</g>
<!-- Xf6f10 -->
<g id="node7" class="node"><title>Xf6f10</title>
<g id="a_node7"><a xlink:href="http://sparql.cwrc.ca/ontologies/cwrc#anglicanism" xlink:title="Anglicanism" target="_parent">
<ellipse fill="none" stroke="black" cx="572.189" cy="-162" rx="68.4888" ry="18"/>
<text text-anchor="middle" x="572.189" y="-158.3" font-family="Times,serif" font-size="14.00">Anglicanism</text>
</a>
</g>
</g>
<!-- X2a5d0&#45;&gt;Xf6f10 -->
<g id="edge4" class="edge"><title>X2a5d0&#45;&gt;Xf6f10</title>
<path fill="none" stroke="black" d="M618.423,-216.055C610.93,-207.457 601.693,-196.857 593.45,-187.397"/>
<polygon fill="black" stroke="black" points="596.028,-185.029 586.82,-179.789 590.751,-189.628 596.028,-185.029"/>
</g>
<!-- Xf6f10&#45;&gt;Xadf16 -->
<g id="edge5" class="edge"><title>Xf6f10&#45;&gt;Xadf16</title>
<path fill="none" stroke="black" d="M626.373,-151.045C695.833,-138.283 816.068,-116.193 889.732,-102.659"/>
<polygon fill="black" stroke="black" points="890.604,-106.057 899.807,-100.808 889.339,-99.1725 890.604,-106.057"/>
</g>
<!-- Xb45be -->
<g id="node8" class="node"><title>Xb45be</title>
<g id="a_node8"><a xlink:href="http://sparql.cwrc.ca/ontologies/cwrc#millenarianism" xlink:title="Millenarianism" target="_parent">
<ellipse fill="none" stroke="black" cx="1557.19" cy="-162" rx="81.4863" ry="18"/>
<text text-anchor="middle" x="1557.19" y="-158.3" font-family="Times,serif" font-size="14.00">Millenarianism</text>
</a>
</g>
</g>
<!-- X6f203 -->
<g id="node9" class="node"><title>X6f203</title>
<g id="a_node9"><a xlink:href="http://sparql.cwrc.ca/ontologies/cwrc#christianScience" xlink:title="Christian Science" target="_parent">
<ellipse fill="none" stroke="black" cx="1141.19" cy="-162" rx="92.8835" ry="18"/>
<text text-anchor="middle" x="1141.19" y="-158.3" font-family="Times,serif" font-size="14.00">Christian Science</text>
</a>
</g>
</g>
<!-- X6f203&#45;&gt;Xadf16 -->
<g id="edge6" class="edge"><title>X6f203&#45;&gt;Xadf16</title>
<path fill="none" stroke="black" d="M1100.4,-145.811C1070.97,-134.853 1031.16,-120.033 1000.37,-108.566"/>
<polygon fill="black" stroke="black" points="1001.3,-105.179 990.708,-104.97 998.858,-111.739 1001.3,-105.179"/>
</g>
<!-- Xd2614 -->
<g id="node11" class="node"><title>Xd2614</title>
<g id="a_node11"><a xlink:href="http://sparql.cwrc.ca/ontologies/cwrc#fifthMonarchists" xlink:title="Fifth Monarchists" target="_parent">
<ellipse fill="none" stroke="black" cx="1555.19" cy="-234" rx="94.7833" ry="18"/>
<text text-anchor="middle" x="1555.19" y="-230.3" font-family="Times,serif" font-size="14.00">Fifth Monarchists</text>
</a>
</g>
</g>
<!-- Xd2614&#45;&gt;Xb45be -->
<g id="edge8" class="edge"><title>Xd2614&#45;&gt;Xb45be</title>
<path fill="none" stroke="black" d="M1555.68,-215.697C1555.9,-207.983 1556.17,-198.712 1556.41,-190.112"/>
<polygon fill="black" stroke="black" points="1559.91,-190.2 1556.7,-180.104 1552.92,-190 1559.91,-190.2"/>
</g>
<!-- X991c3 -->
<g id="node12" class="node"><title>X991c3</title>
<ellipse fill="none" stroke="black" cx="1412.19" cy="-162" rx="46.2923" ry="18"/>
<text text-anchor="middle" x="1412.19" y="-158.3" font-family="Times,serif" font-size="14.00">X991c3</text>
</g>
<!-- Xd2614&#45;&gt;X991c3 -->
<g id="edge9" class="edge"><title>Xd2614&#45;&gt;X991c3</title>
<path fill="none" stroke="black" d="M1522.38,-216.941C1500.5,-206.227 1471.69,-192.125 1449.01,-181.026"/>
<polygon fill="black" stroke="black" points="1450.55,-177.88 1440.03,-176.627 1447.47,-184.167 1450.55,-177.88"/>
</g>
<!-- X1cc79 -->
<g id="node13" class="node"><title>X1cc79</title>
<g id="a_node13"><a xlink:href="http://sparql.cwrc.ca/ontologies/cwrc#lollardy" xlink:title="Lollardy" target="_parent">
<ellipse fill="none" stroke="black" cx="1199.19" cy="-450" rx="49.2915" ry="18"/>
<text text-anchor="middle" x="1199.19" y="-446.3" font-family="Times,serif" font-size="14.00">Lollardy</text>
</a>
</g>
</g>
<!-- X752f2 -->
<g id="node14" class="node"><title>X752f2</title>
<ellipse fill="none" stroke="black" cx="1237.19" cy="-378" rx="44.393" ry="18"/>
<text text-anchor="middle" x="1237.19" y="-374.3" font-family="Times,serif" font-size="14.00">X752f2</text>
</g>
<!-- X1cc79&#45;&gt;X752f2 -->
<g id="edge10" class="edge"><title>X1cc79&#45;&gt;X752f2</title>
<path fill="none" stroke="black" d="M1208.39,-432.055C1212.82,-423.887 1218.24,-413.912 1223.17,-404.824"/>
<polygon fill="black" stroke="black" points="1226.38,-406.247 1228.08,-395.789 1220.23,-402.908 1226.38,-406.247"/>
</g>
<!-- X32f53 -->
<g id="node15" class="node"><title>X32f53</title>
<g id="a_node15"><a xlink:href="http://sparql.cwrc.ca/ontologies/cwrc#catholicism" xlink:title="Roman Catholicism" target="_parent">
<ellipse fill="none" stroke="black" cx="297.189" cy="-234" rx="101.282" ry="18"/>
<text text-anchor="middle" x="297.189" y="-230.3" font-family="Times,serif" font-size="14.00">Roman Catholicism</text>
</a>
</g>
</g>
<!-- X32f53&#45;&gt;Xadf16 -->
<g id="edge11" class="edge"><title>X32f53&#45;&gt;Xadf16</title>
<path fill="none" stroke="black" d="M325.984,-216.639C363.612,-196.073 432.149,-161.367 495.189,-144 626.286,-107.884 785.078,-96.3619 877.078,-92.6968"/>
<polygon fill="black" stroke="black" points="877.277,-96.1919 887.138,-92.3169 877.013,-89.1969 877.277,-96.1919"/>
</g>
<!-- X253de -->
<g id="node16" class="node"><title>X253de</title>
<g id="a_node16"><a xlink:href="http://sparql.cwrc.ca/ontologies/cwrc#quakerism" xlink:title="Quakerism" target="_parent">
<ellipse fill="none" stroke="black" cx="1376.19" cy="-234" rx="61.99" ry="18"/>
<text text-anchor="middle" x="1376.19" y="-230.3" font-family="Times,serif" font-size="14.00">Quakerism</text>
</a>
</g>
</g>
<!-- X253de&#45;&gt;X4e4b1 -->
<g id="edge12" class="edge"><title>X253de&#45;&gt;X4e4b1</title>
<path fill="none" stroke="black" d="M1329.1,-222.274C1318.62,-220.054 1307.55,-217.835 1297.19,-216 1183.19,-195.808 1153.36,-199.234 1039.19,-180 1032.63,-178.896 1025.81,-177.674 1019.01,-176.406"/>
<polygon fill="black" stroke="black" points="1019.56,-172.948 1009.08,-174.524 1018.25,-179.825 1019.56,-172.948"/>
</g>
<!-- X253de&#45;&gt;X991c3 -->
<g id="edge13" class="edge"><title>X253de&#45;&gt;X991c3</title>
<path fill="none" stroke="black" d="M1384.9,-216.055C1389.1,-207.887 1394.23,-197.912 1398.91,-188.824"/>
<polygon fill="black" stroke="black" points="1402.09,-190.283 1403.55,-179.789 1395.87,-187.081 1402.09,-190.283"/>
</g>
<!-- X7152e -->
<g id="node20" class="node"><title>X7152e</title>
<g id="a_node20"><a xlink:href="http://sparql.cwrc.ca/ontologies/cwrc#atheism" xlink:title="Atheism" target="_parent">
<ellipse fill="none" stroke="black" cx="122.189" cy="-306" rx="49.2915" ry="18"/>
<text text-anchor="middle" x="122.189" y="-302.3" font-family="Times,serif" font-size="14.00">Atheism</text>
</a>
</g>
</g>
<!-- X3b80a&#45;&gt;X7152e -->
<!-- Xe1e3e -->
<g id="node18" class="node"><title>Xe1e3e</title>
<g id="a_node18"><a xlink:href="http://sparql.cwrc.ca/ontologies/cwrc#methodism" xlink:title="Methodism" target="_parent">
<ellipse fill="none" stroke="black" cx="902.189" cy="-306" rx="63.8893" ry="18"/>
<text text-anchor="middle" x="902.189" y="-302.3" font-family="Times,serif" font-size="14.00">Methodism</text>
</a>
</g>
</g>
<!-- Xe1e3e&#45;&gt;X4e4b1 -->
<g id="edge15" class="edge"><title>Xe1e3e&#45;&gt;X4e4b1</title>
<path fill="none" stroke="black" d="M914.393,-288.095C921.127,-278.043 929.127,-264.793 934.189,-252 942.073,-232.075 946.936,-208.283 949.766,-190.313"/>
<polygon fill="black" stroke="black" points="953.258,-190.623 951.24,-180.222 946.331,-189.611 953.258,-190.623"/>
</g>
<!-- Xc1422 -->
<g id="node19" class="node"><title>Xc1422</title>
<g id="a_node19"><a xlink:href="http://sparql.cwrc.ca/ontologies/cwrc#islam" xlink:title="Islamism" target="_parent">
<ellipse fill="none" stroke="black" cx="1155.19" cy="-90" rx="53.0913" ry="18"/>
<text text-anchor="middle" x="1155.19" y="-86.3" font-family="Times,serif" font-size="14.00">Islamism</text>
</a>
</g>
</g>
<!-- Xc1422&#45;&gt;Xb2336 -->
<g id="edge16" class="edge"><title>Xc1422&#45;&gt;Xb2336</title>
<path fill="none" stroke="black" d="M1155.19,-71.6966C1155.19,-63.9827 1155.19,-54.7125 1155.19,-46.1124"/>
<polygon fill="black" stroke="black" points="1158.69,-46.1043 1155.19,-36.1043 1151.69,-46.1044 1158.69,-46.1043"/>
</g>
<!-- Xc7ed9 -->
<g id="node21" class="node"><title>Xc7ed9</title>
<g id="a_node21"><a xlink:href="http://sparql.cwrc.ca/ontologies/cwrc#hinduism" xlink:title="Hinduism" target="_parent">
<ellipse fill="none" stroke="black" cx="122.189" cy="-234" rx="55.7903" ry="18"/>
<text text-anchor="middle" x="122.189" y="-230.3" font-family="Times,serif" font-size="14.00">Hinduism</text>
</a>
</g>
</g>
<!-- X7152e&#45;&gt;Xc7ed9 -->
<!-- Xd35c6 -->
<g id="node24" class="node"><title>Xd35c6</title>
<g id="a_node24"><a xlink:href="http://sparql.cwrc.ca/ontologies/cwrc#spiritualism" xlink:title="Spiritualism" target="_parent">
<ellipse fill="none" stroke="black" cx="122.189" cy="-162" rx="67.6881" ry="18"/>
<text text-anchor="middle" x="122.189" y="-158.3" font-family="Times,serif" font-size="14.00">Spiritualism</text>
</a>
</g>
</g>
<!-- Xc7ed9&#45;&gt;Xd35c6 -->
<!-- X156db -->
<g id="node22" class="node"><title>X156db</title>
<g id="a_node22"><a xlink:href="http://sparql.cwrc.ca/ontologies/cwrc#dissentProtestant" xlink:title="Dissent (Protestant)" target="_parent">
<ellipse fill="none" stroke="black" cx="378.189" cy="-306" rx="104.782" ry="18"/>
<text text-anchor="middle" x="378.189" y="-302.3" font-family="Times,serif" font-size="14.00">Dissent (Protestant)</text>
</a>
</g>
</g>
<!-- X156db&#45;&gt;Xf6f10 -->
<g id="edge19" class="edge"><title>X156db&#45;&gt;Xf6f10</title>
<path fill="none" stroke="black" d="M400.427,-288.088C424.234,-270.049 463.177,-240.729 497.189,-216 511.364,-205.694 527.194,-194.466 540.644,-185.009"/>
<polygon fill="black" stroke="black" points="542.922,-187.687 549.097,-179.078 538.901,-181.956 542.922,-187.687"/>
</g>
<!-- Xd53bc -->
<g id="node23" class="node"><title>Xd53bc</title>
<g id="a_node23"><a xlink:href="http://sparql.cwrc.ca/ontologies/cwrc#baptistChristianity" xlink:title="Baptist Christianity" target="_parent">
<ellipse fill="none" stroke="black" cx="901.189" cy="-378" rx="102.882" ry="18"/>
<text text-anchor="middle" x="901.189" y="-374.3" font-family="Times,serif" font-size="14.00">Baptist Christianity</text>
</a>
</g>
</g>
<!-- Xd53bc&#45;&gt;X4e4b1 -->
<g id="edge20" class="edge"><title>Xd53bc&#45;&gt;X4e4b1</title>
<path fill="none" stroke="black" d="M936.636,-360.96C951.381,-352.286 966.956,-340.023 975.189,-324 997.389,-280.794 979.773,-222.873 965.858,-189.578"/>
<polygon fill="black" stroke="black" points="968.918,-187.841 961.707,-180.079 962.504,-190.644 968.918,-187.841"/>
</g>
<!-- X930a7 -->
<g id="node29" class="node"><title>X930a7</title>
<g id="a_node29"><a xlink:href="http://sparql.cwrc.ca/ontologies/cwrc#Pantheism" xlink:title="Pantheism" target="_parent">
<ellipse fill="none" stroke="black" cx="122.189" cy="-90" rx="59.5901" ry="18"/>
<text text-anchor="middle" x="122.189" y="-86.3" font-family="Times,serif" font-size="14.00">Pantheism</text>
</a>
</g>
</g>
<!-- Xd35c6&#45;&gt;X930a7 -->
<!-- X9deb8 -->
<g id="node25" class="node"><title>X9deb8</title>
<g id="a_node25"><a xlink:href="http://sparql.cwrc.ca/ontologies/cwrc#dissentingChristianity" xlink:title="Dissenting Christianity" target="_parent">
<ellipse fill="none" stroke="black" cx="939.189" cy="-450" rx="118.879" ry="18"/>
<text text-anchor="middle" x="939.189" y="-446.3" font-family="Times,serif" font-size="14.00">Dissenting Christianity</text>
</a>
</g>
</g>
<!-- X9deb8&#45;&gt;X4e4b1 -->
<g id="edge22" class="edge"><title>X9deb8&#45;&gt;X4e4b1</title>
<path fill="none" stroke="black" d="M975.024,-432.731C989.654,-424.071 1005.03,-411.883 1013.19,-396 1030.99,-361.362 1038.57,-322.507 994.189,-216 989.917,-205.747 983.128,-195.769 976.293,-187.287"/>
<polygon fill="black" stroke="black" points="978.95,-185.008 969.808,-179.654 973.616,-189.541 978.95,-185.008"/>
</g>
<!-- Xb800b -->
<g id="node26" class="node"><title>Xb800b</title>
<g id="a_node26"><a xlink:href="http://sparql.cwrc.ca/ontologies/cwrc#tractarianMovement" xlink:title="Tractarian Movement" target="_parent">
<ellipse fill="none" stroke="black" cx="511.189" cy="-378" rx="112.38" ry="18"/>
<text text-anchor="middle" x="511.189" y="-374.3" font-family="Times,serif" font-size="14.00">Tractarian Movement</text>
</a>
</g>
</g>
<!-- Xb800b&#45;&gt;Xf6f10 -->
<g id="edge23" class="edge"><title>Xb800b&#45;&gt;Xf6f10</title>
<path fill="none" stroke="black" d="M510.218,-359.783C509.149,-329.467 509.779,-265.123 530.189,-216 534.49,-205.648 541.426,-195.645 548.432,-187.171"/>
<polygon fill="black" stroke="black" points="551.144,-189.387 555.088,-179.553 545.873,-184.781 551.144,-189.387"/>
</g>
<!-- Xd32ac -->
<g id="node27" class="node"><title>Xd32ac</title>
<g id="a_node27"><a xlink:href="http://sparql.cwrc.ca/ontologies/cwrc#judaism" xlink:title="Judaism" target="_parent">
<ellipse fill="none" stroke="black" cx="1300.19" cy="-162" rx="48.1917" ry="18"/>
<text text-anchor="middle" x="1300.19" y="-158.3" font-family="Times,serif" font-size="14.00">Judaism</text>
</a>
</g>
</g>
<!-- Xd32ac&#45;&gt;Xb2336 -->
<g id="edge24" class="edge"><title>Xd32ac&#45;&gt;Xb2336</title>
<path fill="none" stroke="black" d="M1286.02,-144.729C1269.9,-126.478 1242.52,-96.258 1217.19,-72 1206.68,-61.9317 1194.61,-51.4034 1183.93,-42.4079"/>
<polygon fill="black" stroke="black" points="1186.01,-39.5805 1176.09,-35.8609 1181.52,-44.9551 1186.01,-39.5805"/>
</g>
<!-- X7477d -->
<g id="node28" class="node"><title>X7477d</title>
<g id="a_node28"><a xlink:href="http://sparql.cwrc.ca/ontologies/cwrc#congregationalism" xlink:title="Congregationalism" target="_parent">
<ellipse fill="none" stroke="black" cx="1086.19" cy="-522" rx="98.5829" ry="18"/>
<text text-anchor="middle" x="1086.19" y="-518.3" font-family="Times,serif" font-size="14.00">Congregationalism</text>
</a>
</g>
</g>
<!-- X7477d&#45;&gt;X4e4b1 -->
<g id="edge25" class="edge"><title>X7477d&#45;&gt;X4e4b1</title>
<path fill="none" stroke="black" d="M1086.19,-503.951C1086.19,-477.292 1086.19,-424.115 1086.19,-379 1086.19,-379 1086.19,-379 1086.19,-305 1086.19,-249.964 1032.31,-207.462 993.139,-183.834"/>
<polygon fill="black" stroke="black" points="994.437,-180.539 984.036,-178.518 990.907,-186.583 994.437,-180.539"/>
</g>
<!-- X36b94 -->
<g id="node30" class="node"><title>X36b94</title>
<g id="a_node30"><a xlink:href="http://sparql.cwrc.ca/ontologies/cwrc#agnosticism" xlink:title="Agnosticism" target="_parent">
<ellipse fill="none" stroke="black" cx="122.189" cy="-18" rx="68.4888" ry="18"/>
<text text-anchor="middle" x="122.189" y="-14.3" font-family="Times,serif" font-size="14.00">Agnosticism</text>
</a>
</g>
</g>
<!-- X930a7&#45;&gt;X36b94 -->
<!-- X0e2fa -->
<g id="node31" class="node"><title>X0e2fa</title>
<g id="a_node31"><a xlink:href="http://sparql.cwrc.ca/ontologies/cwrc#presbyterianism" xlink:title="Presbyterianism" target="_parent">
<ellipse fill="none" stroke="black" cx="1201.19" cy="-234" rx="87.1846" ry="18"/>
<text text-anchor="middle" x="1201.19" y="-230.3" font-family="Times,serif" font-size="14.00">Presbyterianism</text>
</a>
</g>
</g>
<!-- X0e2fa&#45;&gt;X4e4b1 -->
<g id="edge28" class="edge"><title>X0e2fa&#45;&gt;X4e4b1</title>
<path fill="none" stroke="black" d="M1151.9,-219.087C1111.01,-207.546 1052.84,-191.128 1010,-179.036"/>
<polygon fill="black" stroke="black" points="1010.86,-175.642 1000.29,-176.294 1008.96,-182.379 1010.86,-175.642"/>
</g>
<!-- X8fa8b -->
<g id="node32" class="node"><title>X8fa8b</title>
<g id="a_node32"><a xlink:href="http://sparql.cwrc.ca/ontologies/cwrc#plymouthBrethren" xlink:title="Plymouth Brethren" target="_parent">
<ellipse fill="none" stroke="black" cx="720.189" cy="-306" rx="100.182" ry="18"/>
<text text-anchor="middle" x="720.189" y="-302.3" font-family="Times,serif" font-size="14.00">Plymouth Brethren</text>
</a>
</g>
</g>
<!-- X8fa8b&#45;&gt;X4e4b1 -->
<g id="edge29" class="edge"><title>X8fa8b&#45;&gt;X4e4b1</title>
<path fill="none" stroke="black" d="M726.138,-287.966C734.026,-267.849 749.854,-234.756 774.189,-216 803.511,-193.4 842.303,-180.417 876.276,-172.967"/>
<polygon fill="black" stroke="black" points="877.098,-176.371 886.182,-170.919 875.681,-169.516 877.098,-176.371"/>
</g>
<!-- Xe7b0a -->
<g id="node33" class="node"><title>Xe7b0a</title>
<g id="a_node33"><a xlink:href="http://sparql.cwrc.ca/ontologies/cwrc#neo-thomism" xlink:title="Neo&#45;thomism" target="_parent">
<ellipse fill="none" stroke="black" cx="1276.19" cy="-522" rx="73.387" ry="18"/>
<text text-anchor="middle" x="1276.19" y="-518.3" font-family="Times,serif" font-size="14.00">Neo&#45;thomism</text>
</a>
</g>
</g>
<!-- Xe7b0a&#45;&gt;X752f2 -->
<g id="edge30" class="edge"><title>Xe7b0a&#45;&gt;X752f2</title>
<path fill="none" stroke="black" d="M1273.3,-503.747C1270.09,-485.675 1264.4,-456.559 1257.19,-432 1254.6,-423.183 1251.24,-413.742 1248.01,-405.306"/>
<polygon fill="black" stroke="black" points="1251.25,-403.99 1244.34,-395.964 1244.74,-406.551 1251.25,-403.99"/>
</g>
</g>
</svg>
