<?xml version="1.0" encoding="UTF-8" standalone="no"?>
<!DOCTYPE svg PUBLIC "-//W3C//DTD SVG 1.1//EN"
 "http://www.w3.org/Graphics/SVG/1.1/DTD/svg11.dtd">
<!-- Generated by graphviz version 2.38.0 (20140413.2041)
 -->
<!-- Title: ReligionGraph Pages: 1 -->
<svg width="1875pt" height="548pt"
 viewBox="0.00 0.00 1874.79 548.00" xmlns="http://www.w3.org/2000/svg" xmlns:xlink="http://www.w3.org/1999/xlink">
<g id="graph0" class="graph" transform="scale(1 1) rotate(0) translate(4 544)">
<title>ReligionGraph</title>
<polygon fill="white" stroke="none" points="-4,4 -4,-544 1870.79,-544 1870.79,4 -4,4"/>
<!-- Xe1e3e -->
<g id="node1" class="node"><title>Xe1e3e</title>
<g id="a_node1"><a xlink:href="http://sparql.cwrc.ca/ontologies/cwrc#methodism" xlink:title="Église méthodiste" target="_parent">
<ellipse fill="none" stroke="black" cx="729.591" cy="-234" rx="74.187" ry="18"/>
<text text-anchor="middle" x="729.591" y="-230.3" font-family="Times,serif" font-size="14.00">Église méthodiste</text>
</a>
</g>
</g>
<!-- X4e4b1 -->
<g id="node2" class="node"><title>X4e4b1</title>
<g id="a_node2"><a xlink:href="http://sparql.cwrc.ca/ontologies/cwrc#protestantism" xlink:title="protestantisme" target="_parent">
<ellipse fill="none" stroke="black" cx="502.591" cy="-162" rx="62.2891" ry="18"/>
<text text-anchor="middle" x="502.591" y="-158.3" font-family="Times,serif" font-size="14.00">protestantisme</text>
</a>
</g>
</g>
<!-- Xe1e3e&#45;&gt;X4e4b1 -->
<g id="edge1" class="edge"><title>Xe1e3e&#45;&gt;X4e4b1</title>
<path fill="none" stroke="black" d="M685.554,-219.42C647.756,-207.765 593.26,-190.96 553.579,-178.723"/>
<polygon fill="black" stroke="black" points="554.416,-175.319 543.829,-175.717 552.354,-182.008 554.416,-175.319"/>
</g>
<!-- Xadf16 -->
<g id="node3" class="node"><title>Xadf16</title>
<g id="a_node3"><a xlink:href="http://sparql.cwrc.ca/ontologies/cwrc#christianity" xlink:title="Christianisme" target="_parent">
<ellipse fill="none" stroke="black" cx="1047.59" cy="-90" rx="59.5901" ry="18"/>
<text text-anchor="middle" x="1047.59" y="-86.3" font-family="Times,serif" font-size="14.00">Christianisme</text>
</a>
</g>
</g>
<!-- X4e4b1&#45;&gt;Xadf16 -->
<g id="edge2" class="edge"><title>X4e4b1&#45;&gt;Xadf16</title>
<path fill="none" stroke="black" d="M558.354,-153.838C660.195,-140.757 875.693,-113.079 983.44,-99.2395"/>
<polygon fill="black" stroke="black" points="984.05,-102.69 993.523,-97.9444 983.159,-95.747 984.05,-102.69"/>
</g>
<!-- Xb2336 -->
<g id="node5" class="node"><title>Xb2336</title>
<g id="a_node5"><a xlink:href="http://sparql.cwrc.ca/ontologies/cwrc#abrahamicReligions" xlink:title="Religions abrahamiques" target="_parent">
<ellipse fill="none" stroke="black" cx="1187.59" cy="-18" rx="96.3833" ry="18"/>
<text text-anchor="middle" x="1187.59" y="-14.3" font-family="Times,serif" font-size="14.00">Religions abrahamiques</text>
</a>
</g>
</g>
<!-- Xadf16&#45;&gt;Xb2336 -->
<g id="edge4" class="edge"><title>Xadf16&#45;&gt;Xb2336</title>
<path fill="none" stroke="black" d="M1077.28,-74.1548C1097.37,-64.1116 1124.17,-50.7098 1146.33,-39.6318"/>
<polygon fill="black" stroke="black" points="1148.13,-42.6456 1155.5,-35.043 1145,-36.3846 1148.13,-42.6456"/>
</g>
<!-- X6f203 -->
<g id="node4" class="node"><title>X6f203</title>
<g id="a_node4"><a xlink:href="http://sparql.cwrc.ca/ontologies/cwrc#christianScience" xlink:title="Science Chrétienne" target="_parent">
<ellipse fill="none" stroke="black" cx="959.591" cy="-162" rx="79.0865" ry="18"/>
<text text-anchor="middle" x="959.591" y="-158.3" font-family="Times,serif" font-size="14.00">Science Chrétienne</text>
</a>
</g>
</g>
<!-- X6f203&#45;&gt;Xadf16 -->
<g id="edge3" class="edge"><title>X6f203&#45;&gt;Xadf16</title>
<path fill="none" stroke="black" d="M980.445,-144.411C992.119,-135.125 1006.83,-123.421 1019.51,-113.338"/>
<polygon fill="black" stroke="black" points="1021.84,-115.952 1027.49,-106.988 1017.49,-110.474 1021.84,-115.952"/>
</g>
<!-- Xf6f10 -->
<g id="node6" class="node"><title>Xf6f10</title>
<g id="a_node6"><a xlink:href="http://sparql.cwrc.ca/ontologies/cwrc#anglicanism" xlink:title="Église d&#39;Angleterre" target="_parent">
<ellipse fill="none" stroke="black" cx="1135.59" cy="-162" rx="78.7863" ry="18"/>
<text text-anchor="middle" x="1135.59" y="-158.3" font-family="Times,serif" font-size="14.00">Église d&#39;Angleterre</text>
</a>
</g>
</g>
<!-- Xf6f10&#45;&gt;Xadf16 -->
<g id="edge5" class="edge"><title>Xf6f10&#45;&gt;Xadf16</title>
<path fill="none" stroke="black" d="M1114.74,-144.411C1103.06,-135.125 1088.35,-123.421 1075.67,-113.338"/>
<polygon fill="black" stroke="black" points="1077.69,-110.474 1067.69,-106.988 1073.34,-115.952 1077.69,-110.474"/>
</g>
<!-- Xb45be -->
<g id="node7" class="node"><title>Xb45be</title>
<g id="a_node7"><a xlink:href="http://sparql.cwrc.ca/ontologies/cwrc#millenarianism" xlink:title="millénarisme, ou chiliasme" target="_parent">
<ellipse fill="none" stroke="black" cx="1388.59" cy="-234" rx="107.781" ry="18"/>
<text text-anchor="middle" x="1388.59" y="-230.3" font-family="Times,serif" font-size="14.00">millénarisme, ou chiliasme</text>
</a>
</g>
</g>
<!-- X9deb8 -->
<g id="node8" class="node"><title>X9deb8</title>
<g id="a_node8"><a xlink:href="http://sparql.cwrc.ca/ontologies/cwrc#dissentingChristianity" xlink:title="Dissidence anglaise" target="_parent">
<ellipse fill="none" stroke="black" cx="831.591" cy="-306" rx="80.6858" ry="18"/>
<text text-anchor="middle" x="831.591" y="-302.3" font-family="Times,serif" font-size="14.00">Dissidence anglaise</text>
</a>
</g>
</g>
<!-- X9deb8&#45;&gt;X4e4b1 -->
<g id="edge6" class="edge"><title>X9deb8&#45;&gt;X4e4b1</title>
<path fill="none" stroke="black" d="M833.159,-287.913C833.988,-267.743 831.968,-234.599 812.591,-216 779.301,-184.048 654.836,-171.184 574.102,-166.132"/>
<polygon fill="black" stroke="black" points="574.185,-162.63 563.993,-165.525 573.766,-169.618 574.185,-162.63"/>
</g>
<!-- X7477d -->
<g id="node9" class="node"><title>X7477d</title>
<g id="a_node9"><a xlink:href="http://sparql.cwrc.ca/ontologies/cwrc#congregationalism" xlink:title="Églises congrégationalistes" target="_parent">
<ellipse fill="none" stroke="black" cx="106.591" cy="-378" rx="106.681" ry="18"/>
<text text-anchor="middle" x="106.591" y="-374.3" font-family="Times,serif" font-size="14.00">Églises congrégationalistes</text>
</a>
</g>
</g>
<!-- X7477d&#45;&gt;X4e4b1 -->
<g id="edge7" class="edge"><title>X7477d&#45;&gt;X4e4b1</title>
<path fill="none" stroke="black" d="M114.199,-359.827C130.031,-326.247 169.911,-252.029 227.591,-216 261.491,-194.824 365.277,-178.987 435.199,-170.366"/>
<polygon fill="black" stroke="black" points="435.752,-173.825 445.258,-169.146 434.909,-166.876 435.752,-173.825"/>
</g>
<!-- Xc1422 -->
<g id="node10" class="node"><title>Xc1422</title>
<g id="a_node10"><a xlink:href="http://sparql.cwrc.ca/ontologies/cwrc#islam" xlink:title="Mahométisme" target="_parent">
<ellipse fill="none" stroke="black" cx="1187.59" cy="-90" rx="62.2891" ry="18"/>
<text text-anchor="middle" x="1187.59" y="-86.3" font-family="Times,serif" font-size="14.00">Mahométisme</text>
</a>
</g>
</g>
<!-- Xc1422&#45;&gt;Xb2336 -->
<g id="edge8" class="edge"><title>Xc1422&#45;&gt;Xb2336</title>
<path fill="none" stroke="black" d="M1175.83,-72.055C1174.2,-64.3456 1173.71,-55.0269 1174.38,-46.3642"/>
<polygon fill="black" stroke="black" points="1177.87,-46.6584 1175.76,-36.2753 1170.94,-45.7065 1177.87,-46.6584"/>
</g>
<!-- Xc1422&#45;&gt;Xb2336 -->
<g id="edge9" class="edge"><title>Xc1422&#45;&gt;Xb2336</title>
<path fill="none" stroke="black" d="M1187.59,-71.6966C1187.59,-63.9827 1187.59,-54.7125 1187.59,-46.1124"/>
<polygon fill="black" stroke="black" points="1191.09,-46.1043 1187.59,-36.1043 1184.09,-46.1044 1191.09,-46.1043"/>
</g>
<!-- Xc1422&#45;&gt;Xb2336 -->
<g id="edge10" class="edge"><title>Xc1422&#45;&gt;Xb2336</title>
<path fill="none" stroke="black" d="M1199.35,-72.055C1200.98,-64.3456 1201.47,-55.0269 1200.8,-46.3642"/>
<polygon fill="black" stroke="black" points="1204.24,-45.7065 1199.42,-36.2753 1197.31,-46.6584 1204.24,-45.7065"/>
</g>
<!-- X2a5d0 -->
<g id="node11" class="node"><title>X2a5d0</title>
<g id="a_node11"><a xlink:href="http://sparql.cwrc.ca/ontologies/cwrc#churchOfIreland" xlink:title="Église d&#39;Irlande" target="_parent">
<ellipse fill="none" stroke="black" cx="925.591" cy="-234" rx="65.7887" ry="18"/>
<text text-anchor="middle" x="925.591" y="-230.3" font-family="Times,serif" font-size="14.00">Église d&#39;Irlande</text>
</a>
</g>
</g>
<!-- X2a5d0&#45;&gt;Xf6f10 -->
<g id="edge11" class="edge"><title>X2a5d0&#45;&gt;Xf6f10</title>
<path fill="none" stroke="black" d="M965.584,-219.669C998.87,-208.574 1046.52,-192.689 1082.91,-180.559"/>
<polygon fill="black" stroke="black" points="1084.48,-183.727 1092.86,-177.244 1082.26,-177.086 1084.48,-183.727"/>
</g>
<!-- Xd32ac -->
<g id="node12" class="node"><title>Xd32ac</title>
<g id="a_node12"><a xlink:href="http://sparql.cwrc.ca/ontologies/cwrc#judaism" xlink:title="Judaïsme" target="_parent">
<ellipse fill="none" stroke="black" cx="1312.59" cy="-90" rx="44.393" ry="18"/>
<text text-anchor="middle" x="1312.59" y="-86.3" font-family="Times,serif" font-size="14.00">Judaïsme</text>
</a>
</g>
</g>
<!-- Xd32ac&#45;&gt;Xb2336 -->
<g id="edge12" class="edge"><title>Xd32ac&#45;&gt;Xb2336</title>
<path fill="none" stroke="black" d="M1287.6,-75.0027C1269.8,-65.0382 1245.57,-51.4695 1225.42,-40.1838"/>
<polygon fill="black" stroke="black" points="1226.92,-37.0126 1216.48,-35.1803 1223.5,-43.1202 1226.92,-37.0126"/>
</g>
<!-- X043aa -->
<g id="node13" class="node"><title>X043aa</title>
<g id="a_node13"><a xlink:href="http://sparql.cwrc.ca/ontologies/cwrc#unitarianism" xlink:title="unitarisme" target="_parent">
<ellipse fill="none" stroke="black" cx="241.591" cy="-450" rx="48.1917" ry="18"/>
<text text-anchor="middle" x="241.591" y="-446.3" font-family="Times,serif" font-size="14.00">unitarisme</text>
</a>
</g>
</g>
<!-- X043aa&#45;&gt;X4e4b1 -->
<g id="edge13" class="edge"><title>X043aa&#45;&gt;X4e4b1</title>
<path fill="none" stroke="black" d="M236.88,-431.781C226.39,-389.283 206.104,-278.339 260.591,-216 282.991,-190.371 370.204,-176.173 433.52,-169.069"/>
<polygon fill="black" stroke="black" points="433.9,-172.548 443.463,-167.989 433.144,-165.589 433.9,-172.548"/>
</g>
<!-- X8fa8b -->
<g id="node14" class="node"><title>X8fa8b</title>
<g id="a_node14"><a xlink:href="http://sparql.cwrc.ca/ontologies/cwrc#plymouthBrethren" xlink:title="Frères de Schwarzenau" target="_parent">
<ellipse fill="none" stroke="black" cx="362.591" cy="-234" rx="92.8835" ry="18"/>
<text text-anchor="middle" x="362.591" y="-230.3" font-family="Times,serif" font-size="14.00">Frères de Schwarzenau</text>
</a>
</g>
</g>
<!-- X8fa8b&#45;&gt;X4e4b1 -->
<g id="edge14" class="edge"><title>X8fa8b&#45;&gt;X4e4b1</title>
<path fill="none" stroke="black" d="M389.594,-216.588C409.456,-206.075 436.715,-192.41 459.534,-181.511"/>
<polygon fill="black" stroke="black" points="461.143,-184.622 468.683,-177.179 458.147,-178.295 461.143,-184.622"/>
</g>
<!-- X8fa8b&#45;&gt;X4e4b1 -->
<g id="edge15" class="edge"><title>X8fa8b&#45;&gt;X4e4b1</title>
<path fill="none" stroke="black" d="M399.381,-217.465C420.789,-207.36 447.499,-194.081 468.44,-183.165"/>
<polygon fill="black" stroke="black" points="470.102,-186.246 477.322,-178.492 466.842,-180.051 470.102,-186.246"/>
</g>
<!-- X253de -->
<g id="node15" class="node"><title>X253de</title>
<g id="a_node15"><a xlink:href="http://sparql.cwrc.ca/ontologies/cwrc#quakerism" xlink:title="quaker" target="_parent">
<ellipse fill="none" stroke="black" cx="1023.59" cy="-306" rx="34.394" ry="18"/>
<text text-anchor="middle" x="1023.59" y="-302.3" font-family="Times,serif" font-size="14.00">quaker</text>
</a>
</g>
</g>
<!-- X253de&#45;&gt;X4e4b1 -->
<g id="edge16" class="edge"><title>X253de&#45;&gt;X4e4b1</title>
<path fill="none" stroke="black" d="M991.52,-299.055C971.473,-295.488 945.089,-291.064 921.591,-288 837.261,-277.003 609.271,-302.154 540.591,-252 520.833,-237.572 511.257,-210.762 506.673,-190.324"/>
<polygon fill="black" stroke="black" points="510.068,-189.452 504.703,-180.316 503.2,-190.804 510.068,-189.452"/>
</g>
<!-- X156db -->
<g id="node16" class="node"><title>X156db</title>
<g id="a_node16"><a xlink:href="http://sparql.cwrc.ca/ontologies/cwrc#dissentProtestant" xlink:title="dissidents (ou non&#45;conformistes)" target="_parent">
<ellipse fill="none" stroke="black" cx="1135.59" cy="-234" rx="126.978" ry="18"/>
<text text-anchor="middle" x="1135.59" y="-230.3" font-family="Times,serif" font-size="14.00">dissidents (ou non&#45;conformistes)</text>
</a>
</g>
</g>
<!-- X253de&#45;&gt;X156db -->
<g id="edge17" class="edge"><title>X253de&#45;&gt;X156db</title>
<path fill="none" stroke="black" d="M1044.92,-291.669C1060.52,-281.919 1082.04,-268.471 1100.19,-257.122"/>
<polygon fill="black" stroke="black" points="1102.17,-260.013 1108.8,-251.745 1098.46,-254.077 1102.17,-260.013"/>
</g>
<!-- X156db&#45;&gt;Xf6f10 -->
<g id="edge18" class="edge"><title>X156db&#45;&gt;Xf6f10</title>
<path fill="none" stroke="black" d="M1135.59,-215.697C1135.59,-207.983 1135.59,-198.712 1135.59,-190.112"/>
<polygon fill="black" stroke="black" points="1139.09,-190.104 1135.59,-180.104 1132.09,-190.104 1139.09,-190.104"/>
</g>
<!-- X0e2fa -->
<g id="node17" class="node"><title>X0e2fa</title>
<g id="a_node17"><a xlink:href="http://sparql.cwrc.ca/ontologies/cwrc#presbyterianism" xlink:title="Presbytarianisme" target="_parent">
<ellipse fill="none" stroke="black" cx="483.591" cy="-522" rx="71.4873" ry="18"/>
<text text-anchor="middle" x="483.591" y="-518.3" font-family="Times,serif" font-size="14.00">Presbytarianisme</text>
</a>
</g>
</g>
<!-- X0e2fa&#45;&gt;X4e4b1 -->
<g id="edge19" class="edge"><title>X0e2fa&#45;&gt;X4e4b1</title>
<path fill="none" stroke="black" d="M483.591,-503.951C483.591,-477.292 483.591,-424.115 483.591,-379 483.591,-379 483.591,-379 483.591,-305 483.591,-264.86 491.141,-218.897 496.723,-190.405"/>
<polygon fill="black" stroke="black" points="500.197,-190.883 498.746,-180.388 493.335,-189.498 500.197,-190.883"/>
</g>
<!-- X36b94 -->
<g id="node18" class="node"><title>X36b94</title>
<g id="a_node18"><a xlink:href="http://sparql.cwrc.ca/ontologies/cwrc#agnosticism" xlink:title="agnosticisme" target="_parent">
<ellipse fill="none" stroke="black" cx="1809.59" cy="-522" rx="57.3905" ry="18"/>
<text text-anchor="middle" x="1809.59" y="-518.3" font-family="Times,serif" font-size="14.00">agnosticisme</text>
</a>
</g>
</g>
<!-- X3b80a -->
<g id="node19" class="node"><title>X3b80a</title>
<g id="a_node19"><a xlink:href="http://sparql.cwrc.ca/ontologies/cwrc#buddhism" xlink:title="Bouddhisme" target="_parent">
<ellipse fill="none" stroke="black" cx="1809.59" cy="-450" rx="55.7903" ry="18"/>
<text text-anchor="middle" x="1809.59" y="-446.3" font-family="Times,serif" font-size="14.00">Bouddhisme</text>
</a>
</g>
</g>
<!-- X36b94&#45;&gt;X3b80a -->
<!-- Xd35c6 -->
<g id="node20" class="node"><title>Xd35c6</title>
<g id="a_node20"><a xlink:href="http://sparql.cwrc.ca/ontologies/cwrc#spiritualism" xlink:title="Spritisme" target="_parent">
<ellipse fill="none" stroke="black" cx="1809.59" cy="-378" rx="44.6926" ry="18"/>
<text text-anchor="middle" x="1809.59" y="-374.3" font-family="Times,serif" font-size="14.00">Spritisme</text>
</a>
</g>
</g>
<!-- X3b80a&#45;&gt;Xd35c6 -->
<!-- X52798 -->
<g id="node21" class="node"><title>X52798</title>
<g id="a_node21"><a xlink:href="http://sparql.cwrc.ca/ontologies/cwrc#pantheism" xlink:title="Panthéisme" target="_parent">
<ellipse fill="none" stroke="black" cx="1809.59" cy="-306" rx="51.9908" ry="18"/>
<text text-anchor="middle" x="1809.59" y="-302.3" font-family="Times,serif" font-size="14.00">Panthéisme</text>
</a>
</g>
</g>
<!-- Xd35c6&#45;&gt;X52798 -->
<!-- Xc7ed9 -->
<g id="node23" class="node"><title>Xc7ed9</title>
<g id="a_node23"><a xlink:href="http://sparql.cwrc.ca/ontologies/cwrc#hinduism" xlink:title="hindouisme" target="_parent">
<ellipse fill="none" stroke="black" cx="1809.59" cy="-234" rx="51.9908" ry="18"/>
<text text-anchor="middle" x="1809.59" y="-230.3" font-family="Times,serif" font-size="14.00">hindouisme</text>
</a>
</g>
</g>
<!-- X52798&#45;&gt;Xc7ed9 -->
<!-- Xb800b -->
<g id="node22" class="node"><title>Xb800b</title>
<g id="a_node22"><a xlink:href="http://sparql.cwrc.ca/ontologies/cwrc#tractarianMovement" xlink:title="tractarianisme" target="_parent">
<ellipse fill="none" stroke="black" cx="1524.59" cy="-306" rx="61.1893" ry="18"/>
<text text-anchor="middle" x="1524.59" y="-302.3" font-family="Times,serif" font-size="14.00">tractarianisme</text>
</a>
</g>
</g>
<!-- Xb800b&#45;&gt;Xf6f10 -->
<g id="edge23" class="edge"><title>Xb800b&#45;&gt;Xf6f10</title>
<path fill="none" stroke="black" d="M1526.24,-287.824C1527.16,-267.566 1525.22,-234.335 1505.59,-216 1465.97,-178.992 1320.45,-167.715 1224.15,-164.346"/>
<polygon fill="black" stroke="black" points="1224.23,-160.847 1214.12,-164.018 1224,-167.843 1224.23,-160.847"/>
</g>
<!-- X7152e -->
<g id="node26" class="node"><title>X7152e</title>
<g id="a_node26"><a xlink:href="http://sparql.cwrc.ca/ontologies/cwrc#atheism" xlink:title="athéisme" target="_parent">
<ellipse fill="none" stroke="black" cx="1809.59" cy="-162" rx="42.4939" ry="18"/>
<text text-anchor="middle" x="1809.59" y="-158.3" font-family="Times,serif" font-size="14.00">athéisme</text>
</a>
</g>
</g>
<!-- Xc7ed9&#45;&gt;X7152e -->
<!-- Xd53bc -->
<g id="node24" class="node"><title>Xd53bc</title>
<g id="a_node24"><a xlink:href="http://sparql.cwrc.ca/ontologies/cwrc#baptistChristianity" xlink:title="Baptisme" target="_parent">
<ellipse fill="none" stroke="black" cx="593.591" cy="-234" rx="44.393" ry="18"/>
<text text-anchor="middle" x="593.591" y="-230.3" font-family="Times,serif" font-size="14.00">Baptisme</text>
</a>
</g>
</g>
<!-- Xd53bc&#45;&gt;X4e4b1 -->
<g id="edge25" class="edge"><title>Xd53bc&#45;&gt;X4e4b1</title>
<path fill="none" stroke="black" d="M573.845,-217.811C561.551,-208.354 545.517,-196.02 531.772,-185.447"/>
<polygon fill="black" stroke="black" points="533.624,-182.457 523.564,-179.134 529.356,-188.005 533.624,-182.457"/>
</g>
<!-- Xd2614 -->
<g id="node25" class="node"><title>Xd2614</title>
<g id="a_node25"><a xlink:href="http://sparql.cwrc.ca/ontologies/cwrc#fifthMonarchists" xlink:title="Cinquièmes Monarchistes" target="_parent">
<ellipse fill="none" stroke="black" cx="1238.59" cy="-306" rx="103.182" ry="18"/>
<text text-anchor="middle" x="1238.59" y="-302.3" font-family="Times,serif" font-size="14.00">Cinquièmes Monarchistes</text>
</a>
</g>
</g>
<!-- Xd2614&#45;&gt;Xb45be -->
<g id="edge26" class="edge"><title>Xd2614&#45;&gt;Xb45be</title>
<path fill="none" stroke="black" d="M1273,-288.941C1294.37,-278.972 1322.01,-266.069 1344.91,-255.383"/>
<polygon fill="black" stroke="black" points="1346.5,-258.506 1354.08,-251.106 1343.54,-252.163 1346.5,-258.506"/>
</g>
<!-- Xd2614&#45;&gt;X156db -->
<g id="edge27" class="edge"><title>Xd2614&#45;&gt;X156db</title>
<path fill="none" stroke="black" d="M1214.18,-288.411C1200.56,-279.151 1183.39,-267.487 1168.58,-257.423"/>
<polygon fill="black" stroke="black" points="1170.42,-254.439 1160.18,-251.713 1166.49,-260.228 1170.42,-254.439"/>
</g>
<!-- X43c0c -->
<g id="node30" class="node"><title>X43c0c</title>
<g id="a_node30"><a xlink:href="http://sparql.cwrc.ca/ontologies/cwrc#occultism" xlink:title="occultisme" target="_parent">
<ellipse fill="none" stroke="black" cx="1809.59" cy="-90" rx="49.2915" ry="18"/>
<text text-anchor="middle" x="1809.59" y="-86.3" font-family="Times,serif" font-size="14.00">occultisme</text>
</a>
</g>
</g>
<!-- X7152e&#45;&gt;X43c0c -->
<!-- Xe7b0a -->
<g id="node27" class="node"><title>Xe7b0a</title>
<g id="a_node27"><a xlink:href="http://sparql.cwrc.ca/ontologies/cwrc#neo-thomism" xlink:title="néothomisme" target="_parent">
<ellipse fill="none" stroke="black" cx="1611.59" cy="-234" rx="59.2899" ry="18"/>
<text text-anchor="middle" x="1611.59" y="-230.3" font-family="Times,serif" font-size="14.00">néothomisme</text>
</a>
</g>
</g>
<!-- X32f53 -->
<g id="node28" class="node"><title>X32f53</title>
<g id="a_node28"><a xlink:href="http://sparql.cwrc.ca/ontologies/cwrc#catholicism" xlink:title="Catholicisme" target="_parent">
<ellipse fill="none" stroke="black" cx="1611.59" cy="-162" rx="57.6901" ry="18"/>
<text text-anchor="middle" x="1611.59" y="-158.3" font-family="Times,serif" font-size="14.00">Catholicisme</text>
</a>
</g>
</g>
<!-- Xe7b0a&#45;&gt;X32f53 -->
<g id="edge29" class="edge"><title>Xe7b0a&#45;&gt;X32f53</title>
<path fill="none" stroke="black" d="M1611.59,-215.697C1611.59,-207.983 1611.59,-198.712 1611.59,-190.112"/>
<polygon fill="black" stroke="black" points="1615.09,-190.104 1611.59,-180.104 1608.09,-190.104 1615.09,-190.104"/>
</g>
<!-- X32f53&#45;&gt;Xadf16 -->
<g id="edge30" class="edge"><title>X32f53&#45;&gt;Xadf16</title>
<path fill="none" stroke="black" d="M1555.57,-157.475C1463.46,-151.126 1274.49,-135.774 1116.59,-108 1111.48,-107.101 1106.19,-106.039 1100.91,-104.892"/>
<polygon fill="black" stroke="black" points="1101.36,-101.405 1090.83,-102.6 1099.81,-108.23 1101.36,-101.405"/>
</g>
<!-- X1cc79 -->
<g id="node29" class="node"><title>X1cc79</title>
<g id="a_node29"><a xlink:href="http://sparql.cwrc.ca/ontologies/cwrc#lollardy" xlink:title="Lollardy" target="_parent">
<ellipse fill="none" stroke="black" cx="1698.59" cy="-306" rx="40.8928" ry="18"/>
<text text-anchor="middle" x="1698.59" y="-302.3" font-family="Times,serif" font-size="14.00">Lollardy</text>
</a>
</g>
</g>
<!-- X1cc79&#45;&gt;X32f53 -->
<g id="edge31" class="edge"><title>X1cc79&#45;&gt;X32f53</title>
<path fill="none" stroke="black" d="M1698.36,-287.976C1697.37,-269.051 1693.51,-238.228 1679.59,-216 1671.6,-203.24 1659.39,-192.325 1647.51,-183.775"/>
<polygon fill="black" stroke="black" points="1649.22,-180.706 1638.98,-177.975 1645.28,-186.494 1649.22,-180.706"/>
</g>
</g>
</svg>
