<?xml version="1.0" encoding="UTF-8" standalone="no"?>
<!DOCTYPE svg PUBLIC "-//W3C//DTD SVG 1.1//EN"
 "http://www.w3.org/Graphics/SVG/1.1/DTD/svg11.dtd">
<!-- Generated by graphviz version 2.38.0 (20140413.2041)
 -->
<!-- Title: ReligionGraph Pages: 1 -->
<svg width="1966pt" height="548pt"
 viewBox="0.00 0.00 1966.09 548.00" xmlns="http://www.w3.org/2000/svg" xmlns:xlink="http://www.w3.org/1999/xlink">
<g id="graph0" class="graph" transform="scale(1 1) rotate(0) translate(4 544)">
<title>ReligionGraph</title>
<polygon fill="white" stroke="none" points="-4,4 -4,-544 1962.09,-544 1962.09,4 -4,4"/>
<!-- X9deb8 -->
<g id="node1" class="node"><title>X9deb8</title>
<g id="a_node1"><a xlink:href="http://sparql.cwrc.ca/ontologies/cwrc#dissentingChristianity" xlink:title="Dissidence anglaise" target="_parent">
<ellipse fill="none" stroke="black" cx="659.942" cy="-234" rx="102.882" ry="18"/>
<text text-anchor="middle" x="659.942" y="-230.3" font-family="Times,serif" font-size="14.00">Dissidence anglaise</text>
</a>
</g>
</g>
<!-- X4e4b1 -->
<g id="node2" class="node"><title>X4e4b1</title>
<g id="a_node2"><a xlink:href="http://sparql.cwrc.ca/ontologies/cwrc#protestantism" xlink:title="protestantisme" target="_parent">
<ellipse fill="none" stroke="black" cx="607.942" cy="-162" rx="81.4863" ry="18"/>
<text text-anchor="middle" x="607.942" y="-158.3" font-family="Times,serif" font-size="14.00">protestantisme</text>
</a>
</g>
</g>
<!-- X9deb8&#45;&gt;X4e4b1 -->
<g id="edge1" class="edge"><title>X9deb8&#45;&gt;X4e4b1</title>
<path fill="none" stroke="black" d="M647.354,-216.055C641.094,-207.629 633.407,-197.28 626.488,-187.966"/>
<polygon fill="black" stroke="black" points="629.186,-185.729 620.414,-179.789 623.567,-189.904 629.186,-185.729"/>
</g>
<!-- Xadf16 -->
<g id="node3" class="node"><title>Xadf16</title>
<g id="a_node3"><a xlink:href="http://sparql.cwrc.ca/ontologies/cwrc#christianity" xlink:title="Christianisme" target="_parent">
<ellipse fill="none" stroke="black" cx="861.942" cy="-90" rx="76.0865" ry="18"/>
<text text-anchor="middle" x="861.942" y="-86.3" font-family="Times,serif" font-size="14.00">Christianisme</text>
</a>
</g>
</g>
<!-- X4e4b1&#45;&gt;Xadf16 -->
<g id="edge2" class="edge"><title>X4e4b1&#45;&gt;Xadf16</title>
<path fill="none" stroke="black" d="M656.615,-147.586C698.8,-135.96 759.901,-119.121 804.479,-106.836"/>
<polygon fill="black" stroke="black" points="805.583,-110.162 814.294,-104.131 803.723,-103.414 805.583,-110.162"/>
</g>
<!-- Xb2336 -->
<g id="node4" class="node"><title>Xb2336</title>
<g id="a_node4"><a xlink:href="http://sparql.cwrc.ca/ontologies/cwrc#abrahamicReligions" xlink:title="Religions abrahamiques" target="_parent">
<ellipse fill="none" stroke="black" cx="991.942" cy="-18" rx="122.379" ry="18"/>
<text text-anchor="middle" x="991.942" y="-14.3" font-family="Times,serif" font-size="14.00">Religions abrahamiques</text>
</a>
</g>
</g>
<!-- Xadf16&#45;&gt;Xb2336 -->
<g id="edge8" class="edge"><title>Xadf16&#45;&gt;Xb2336</title>
<path fill="none" stroke="black" d="M891.116,-73.2906C909.082,-63.6167 932.358,-51.0835 952.019,-40.4969"/>
<polygon fill="black" stroke="black" points="953.907,-43.4554 961.052,-35.6327 950.588,-37.2921 953.907,-43.4554"/>
</g>
<!-- X1cc79 -->
<g id="node5" class="node"><title>X1cc79</title>
<g id="a_node5"><a xlink:href="http://sparql.cwrc.ca/ontologies/cwrc#lollardy" xlink:title="Lollardy" target="_parent">
<ellipse fill="none" stroke="black" cx="1321.94" cy="-450" rx="49.2915" ry="18"/>
<text text-anchor="middle" x="1321.94" y="-446.3" font-family="Times,serif" font-size="14.00">Lollardy</text>
</a>
</g>
</g>
<!-- X32f53 -->
<g id="node6" class="node"><title>X32f53</title>
<ellipse fill="none" stroke="black" cx="1360.94" cy="-378" rx="44.393" ry="18"/>
<text text-anchor="middle" x="1360.94" y="-374.3" font-family="Times,serif" font-size="14.00">X32f53</text>
</g>
<!-- X1cc79&#45;&gt;X32f53 -->
<g id="edge3" class="edge"><title>X1cc79&#45;&gt;X32f53</title>
<path fill="none" stroke="black" d="M1331.38,-432.055C1335.98,-423.801 1341.61,-413.701 1346.71,-404.538"/>
<polygon fill="black" stroke="black" points="1349.78,-406.228 1351.59,-395.789 1343.66,-402.821 1349.78,-406.228"/>
</g>
<!-- Xe1e3e -->
<g id="node7" class="node"><title>Xe1e3e</title>
<g id="a_node7"><a xlink:href="http://sparql.cwrc.ca/ontologies/cwrc#methodism" xlink:title="Église méthodiste" target="_parent">
<ellipse fill="none" stroke="black" cx="705.942" cy="-306" rx="94.7833" ry="18"/>
<text text-anchor="middle" x="705.942" y="-302.3" font-family="Times,serif" font-size="14.00">Église méthodiste</text>
</a>
</g>
</g>
<!-- Xe1e3e&#45;&gt;X4e4b1 -->
<g id="edge4" class="edge"><title>Xe1e3e&#45;&gt;X4e4b1</title>
<path fill="none" stroke="black" d="M736.61,-288.805C750.083,-279.907 764.508,-267.504 771.942,-252 778.859,-237.573 781.357,-228.937 771.942,-216 753.829,-191.112 723.791,-177.668 694.337,-170.489"/>
<polygon fill="black" stroke="black" points="694.909,-167.031 684.389,-168.287 693.396,-173.865 694.909,-167.031"/>
</g>
<!-- Xc7ed9 -->
<g id="node8" class="node"><title>Xc7ed9</title>
<g id="a_node8"><a xlink:href="http://sparql.cwrc.ca/ontologies/cwrc#hinduism" xlink:title="hindouisme" target="_parent">
<ellipse fill="none" stroke="black" cx="1885.94" cy="-522" rx="64.189" ry="18"/>
<text text-anchor="middle" x="1885.94" y="-518.3" font-family="Times,serif" font-size="14.00">hindouisme</text>
</a>
</g>
</g>
<!-- X7152e -->
<g id="node9" class="node"><title>X7152e</title>
<g id="a_node9"><a xlink:href="http://sparql.cwrc.ca/ontologies/cwrc#atheism" xlink:title="athéisme" target="_parent">
<ellipse fill="none" stroke="black" cx="1885.94" cy="-450" rx="53.0913" ry="18"/>
<text text-anchor="middle" x="1885.94" y="-446.3" font-family="Times,serif" font-size="14.00">athéisme</text>
</a>
</g>
</g>
<!-- Xc7ed9&#45;&gt;X7152e -->
<!-- X3b80a -->
<g id="node10" class="node"><title>X3b80a</title>
<g id="a_node10"><a xlink:href="http://sparql.cwrc.ca/ontologies/cwrc#buddhism" xlink:title="Bouddhisme" target="_parent">
<ellipse fill="none" stroke="black" cx="1885.94" cy="-378" rx="68.4888" ry="18"/>
<text text-anchor="middle" x="1885.94" y="-374.3" font-family="Times,serif" font-size="14.00">Bouddhisme</text>
</a>
</g>
</g>
<!-- X7152e&#45;&gt;X3b80a -->
<!-- X52798 -->
<g id="node11" class="node"><title>X52798</title>
<g id="a_node11"><a xlink:href="http://sparql.cwrc.ca/ontologies/cwrc#pantheism" xlink:title="Panthéisme" target="_parent">
<ellipse fill="none" stroke="black" cx="1885.94" cy="-306" rx="64.9885" ry="18"/>
<text text-anchor="middle" x="1885.94" y="-302.3" font-family="Times,serif" font-size="14.00">Panthéisme</text>
</a>
</g>
</g>
<!-- X3b80a&#45;&gt;X52798 -->
<!-- X37200 -->
<g id="node13" class="node"><title>X37200</title>
<g id="a_node13"><a xlink:href="http://sparql.cwrc.ca/ontologies/cwrc#paganism" xlink:title="Paganisme" target="_parent">
<ellipse fill="none" stroke="black" cx="1885.94" cy="-234" rx="61.1893" ry="18"/>
<text text-anchor="middle" x="1885.94" y="-230.3" font-family="Times,serif" font-size="14.00">Paganisme</text>
</a>
</g>
</g>
<!-- X52798&#45;&gt;X37200 -->
<!-- X7477d -->
<g id="node12" class="node"><title>X7477d</title>
<g id="a_node12"><a xlink:href="http://sparql.cwrc.ca/ontologies/cwrc#congregationalism" xlink:title="Églises congrégationalistes" target="_parent">
<ellipse fill="none" stroke="black" cx="828.942" cy="-378" rx="139.175" ry="18"/>
<text text-anchor="middle" x="828.942" y="-374.3" font-family="Times,serif" font-size="14.00">Églises congrégationalistes</text>
</a>
</g>
</g>
<!-- X7477d&#45;&gt;X4e4b1 -->
<g id="edge9" class="edge"><title>X7477d&#45;&gt;X4e4b1</title>
<path fill="none" stroke="black" d="M830.096,-359.977C831.318,-327.316 829.047,-255.594 789.942,-216 764.789,-190.533 728.158,-177.139 694.341,-170.156"/>
<polygon fill="black" stroke="black" points="694.9,-166.7 684.422,-168.271 693.593,-173.577 694.9,-166.7"/>
</g>
<!-- Xd35c6 -->
<g id="node22" class="node"><title>Xd35c6</title>
<g id="a_node22"><a xlink:href="http://sparql.cwrc.ca/ontologies/cwrc#spiritualism" xlink:title="Spritisme" target="_parent">
<ellipse fill="none" stroke="black" cx="1885.94" cy="-162" rx="55.7903" ry="18"/>
<text text-anchor="middle" x="1885.94" y="-158.3" font-family="Times,serif" font-size="14.00">Spritisme</text>
</a>
</g>
</g>
<!-- X37200&#45;&gt;Xd35c6 -->
<!-- X6f203 -->
<g id="node14" class="node"><title>X6f203</title>
<g id="a_node14"><a xlink:href="http://sparql.cwrc.ca/ontologies/cwrc#christianScience" xlink:title="Science Chrétienne" target="_parent">
<ellipse fill="none" stroke="black" cx="861.942" cy="-162" rx="102.082" ry="18"/>
<text text-anchor="middle" x="861.942" y="-158.3" font-family="Times,serif" font-size="14.00">Science Chrétienne</text>
</a>
</g>
</g>
<!-- X6f203&#45;&gt;Xadf16 -->
<g id="edge11" class="edge"><title>X6f203&#45;&gt;Xadf16</title>
<path fill="none" stroke="black" d="M861.942,-143.697C861.942,-135.983 861.942,-126.712 861.942,-118.112"/>
<polygon fill="black" stroke="black" points="865.442,-118.104 861.942,-108.104 858.442,-118.104 865.442,-118.104"/>
</g>
<!-- X253de -->
<g id="node15" class="node"><title>X253de</title>
<g id="a_node15"><a xlink:href="http://sparql.cwrc.ca/ontologies/cwrc#quakerism" xlink:title="quaker" target="_parent">
<ellipse fill="none" stroke="black" cx="978.942" cy="-306" rx="43.5923" ry="18"/>
<text text-anchor="middle" x="978.942" y="-302.3" font-family="Times,serif" font-size="14.00">quaker</text>
</a>
</g>
</g>
<!-- X253de&#45;&gt;X4e4b1 -->
<g id="edge12" class="edge"><title>X253de&#45;&gt;X4e4b1</title>
<path fill="none" stroke="black" d="M952.526,-291.578C933.484,-281.516 907.456,-266.957 885.942,-252 865.477,-237.773 865.282,-227.052 842.942,-216 795.27,-192.416 736.971,-179.184 690.367,-171.839"/>
<polygon fill="black" stroke="black" points="690.717,-168.353 680.306,-170.316 689.669,-175.274 690.717,-168.353"/>
</g>
<!-- X156db -->
<g id="node16" class="node"><title>X156db</title>
<g id="a_node16"><a xlink:href="http://sparql.cwrc.ca/ontologies/cwrc#dissentProtestant" xlink:title="dissidents (ou non&#45;conformistes)" target="_parent">
<ellipse fill="none" stroke="black" cx="1056.94" cy="-234" rx="162.471" ry="18"/>
<text text-anchor="middle" x="1056.94" y="-230.3" font-family="Times,serif" font-size="14.00">dissidents (ou non&#45;conformistes)</text>
</a>
</g>
</g>
<!-- X253de&#45;&gt;X156db -->
<g id="edge13" class="edge"><title>X253de&#45;&gt;X156db</title>
<path fill="none" stroke="black" d="M996.252,-289.465C1006.32,-280.432 1019.21,-268.864 1030.52,-258.714"/>
<polygon fill="black" stroke="black" points="1032.94,-261.246 1038.04,-251.962 1028.26,-256.036 1032.94,-261.246"/>
</g>
<!-- Xf6f10 -->
<g id="node17" class="node"><title>Xf6f10</title>
<g id="a_node17"><a xlink:href="http://sparql.cwrc.ca/ontologies/cwrc#anglicanism" xlink:title="Église d&#39;Angleterre" target="_parent">
<ellipse fill="none" stroke="black" cx="1108.94" cy="-162" rx="100.983" ry="18"/>
<text text-anchor="middle" x="1108.94" y="-158.3" font-family="Times,serif" font-size="14.00">Église d&#39;Angleterre</text>
</a>
</g>
</g>
<!-- X156db&#45;&gt;Xf6f10 -->
<g id="edge14" class="edge"><title>X156db&#45;&gt;Xf6f10</title>
<path fill="none" stroke="black" d="M1069.8,-215.697C1075.97,-207.389 1083.48,-197.277 1090.27,-188.141"/>
<polygon fill="black" stroke="black" points="1093.08,-190.219 1096.24,-180.104 1087.46,-186.045 1093.08,-190.219"/>
</g>
<!-- Xf6f10&#45;&gt;Xadf16 -->
<g id="edge16" class="edge"><title>Xf6f10&#45;&gt;Xadf16</title>
<path fill="none" stroke="black" d="M1057.46,-146.411C1016.89,-134.912 960.367,-118.894 918.527,-107.036"/>
<polygon fill="black" stroke="black" points="919.338,-103.628 908.763,-104.269 917.429,-110.363 919.338,-103.628"/>
</g>
<!-- X0e2fa -->
<g id="node18" class="node"><title>X0e2fa</title>
<g id="a_node18"><a xlink:href="http://sparql.cwrc.ca/ontologies/cwrc#presbyterianism" xlink:title="Presbytarianisme" target="_parent">
<ellipse fill="none" stroke="black" cx="92.9418" cy="-450" rx="92.8835" ry="18"/>
<text text-anchor="middle" x="92.9418" y="-446.3" font-family="Times,serif" font-size="14.00">Presbytarianisme</text>
</a>
</g>
</g>
<!-- X0e2fa&#45;&gt;X4e4b1 -->
<g id="edge15" class="edge"><title>X0e2fa&#45;&gt;X4e4b1</title>
<path fill="none" stroke="black" d="M87.9037,-431.719C76.5025,-388.591 53.9943,-275.42 111.942,-216 139.712,-187.525 383.063,-172.624 518.277,-166.48"/>
<polygon fill="black" stroke="black" points="518.786,-169.961 528.619,-166.017 518.473,-162.968 518.786,-169.961"/>
</g>
<!-- X8fa8b -->
<g id="node19" class="node"><title>X8fa8b</title>
<g id="a_node19"><a xlink:href="http://sparql.cwrc.ca/ontologies/cwrc#plymouthBrethren" xlink:title="Frères de Schwarzenau" target="_parent">
<ellipse fill="none" stroke="black" cx="240.942" cy="-234" rx="120.479" ry="18"/>
<text text-anchor="middle" x="240.942" y="-230.3" font-family="Times,serif" font-size="14.00">Frères de Schwarzenau</text>
</a>
</g>
</g>
<!-- X8fa8b&#45;&gt;X4e4b1 -->
<g id="edge17" class="edge"><title>X8fa8b&#45;&gt;X4e4b1</title>
<path fill="none" stroke="black" d="M308.373,-219.087C373.078,-206.42 470.348,-187.878 536.394,-175.63"/>
<polygon fill="black" stroke="black" points="537.113,-179.056 546.31,-173.795 535.84,-172.173 537.113,-179.056"/>
</g>
<!-- X8fa8b&#45;&gt;X4e4b1 -->
<g id="edge18" class="edge"><title>X8fa8b&#45;&gt;X4e4b1</title>
<path fill="none" stroke="black" d="M315.383,-219.834C381.488,-207.559 477.142,-189.321 540.909,-176.836"/>
<polygon fill="black" stroke="black" points="541.721,-180.243 550.86,-174.883 540.373,-173.374 541.721,-180.243"/>
</g>
<!-- Xb45be -->
<g id="node20" class="node"><title>Xb45be</title>
<g id="a_node20"><a xlink:href="http://sparql.cwrc.ca/ontologies/cwrc#millenarianism" xlink:title="millénarisme, ou chiliasme" target="_parent">
<ellipse fill="none" stroke="black" cx="1559.94" cy="-234" rx="135.676" ry="18"/>
<text text-anchor="middle" x="1559.94" y="-230.3" font-family="Times,serif" font-size="14.00">millénarisme, ou chiliasme</text>
</a>
</g>
</g>
<!-- Xd2614 -->
<g id="node21" class="node"><title>Xd2614</title>
<g id="a_node21"><a xlink:href="http://sparql.cwrc.ca/ontologies/cwrc#fifthMonarchists" xlink:title="Cinquièmes Monarchistes" target="_parent">
<ellipse fill="none" stroke="black" cx="1333.94" cy="-306" rx="132.677" ry="18"/>
<text text-anchor="middle" x="1333.94" y="-302.3" font-family="Times,serif" font-size="14.00">Cinquièmes Monarchistes</text>
</a>
</g>
</g>
<!-- Xd2614&#45;&gt;X156db -->
<g id="edge19" class="edge"><title>Xd2614&#45;&gt;X156db</title>
<path fill="none" stroke="black" d="M1274.18,-289.897C1231.5,-279.113 1173.9,-264.556 1128.73,-253.141"/>
<polygon fill="black" stroke="black" points="1129.55,-249.739 1119,-250.682 1127.84,-256.526 1129.55,-249.739"/>
</g>
<!-- Xd2614&#45;&gt;Xb45be -->
<g id="edge20" class="edge"><title>Xd2614&#45;&gt;Xb45be</title>
<path fill="none" stroke="black" d="M1384.66,-289.291C1418.56,-278.79 1463.34,-264.92 1499.16,-253.828"/>
<polygon fill="black" stroke="black" points="1500.48,-257.08 1509,-250.778 1498.41,-250.393 1500.48,-257.08"/>
</g>
<!-- X36b94 -->
<g id="node25" class="node"><title>X36b94</title>
<g id="a_node25"><a xlink:href="http://sparql.cwrc.ca/ontologies/cwrc#agnosticism" xlink:title="agnosticisme" target="_parent">
<ellipse fill="none" stroke="black" cx="1885.94" cy="-90" rx="72.2875" ry="18"/>
<text text-anchor="middle" x="1885.94" y="-86.3" font-family="Times,serif" font-size="14.00">agnosticisme</text>
</a>
</g>
</g>
<!-- Xd35c6&#45;&gt;X36b94 -->
<!-- Xd53bc -->
<g id="node23" class="node"><title>Xd53bc</title>
<g id="a_node23"><a xlink:href="http://sparql.cwrc.ca/ontologies/cwrc#baptistChristianity" xlink:title="Baptisme" target="_parent">
<ellipse fill="none" stroke="black" cx="528.942" cy="-522" rx="54.6905" ry="18"/>
<text text-anchor="middle" x="528.942" y="-518.3" font-family="Times,serif" font-size="14.00">Baptisme</text>
</a>
</g>
</g>
<!-- Xd53bc&#45;&gt;X4e4b1 -->
<g id="edge22" class="edge"><title>Xd53bc&#45;&gt;X4e4b1</title>
<path fill="none" stroke="black" d="M528.942,-503.951C528.942,-477.292 528.942,-424.115 528.942,-379 528.942,-379 528.942,-379 528.942,-305 528.942,-264.553 527.537,-250.922 547.942,-216 554.692,-204.448 564.849,-194.089 574.898,-185.66"/>
<polygon fill="black" stroke="black" points="577.214,-188.29 582.865,-179.328 572.859,-182.81 577.214,-188.29"/>
</g>
<!-- X2a5d0 -->
<g id="node24" class="node"><title>X2a5d0</title>
<g id="a_node24"><a xlink:href="http://sparql.cwrc.ca/ontologies/cwrc#churchOfIreland" xlink:title="Église d&#39;Irlande" target="_parent">
<ellipse fill="none" stroke="black" cx="1321.94" cy="-234" rx="84.485" ry="18"/>
<text text-anchor="middle" x="1321.94" y="-230.3" font-family="Times,serif" font-size="14.00">Église d&#39;Irlande</text>
</a>
</g>
</g>
<!-- X2a5d0&#45;&gt;Xf6f10 -->
<g id="edge23" class="edge"><title>X2a5d0&#45;&gt;Xf6f10</title>
<path fill="none" stroke="black" d="M1278.07,-218.581C1245.23,-207.789 1200.07,-192.948 1164.68,-181.316"/>
<polygon fill="black" stroke="black" points="1165.56,-177.924 1154.97,-178.126 1163.38,-184.574 1165.56,-177.924"/>
</g>
<!-- X43c0c -->
<g id="node27" class="node"><title>X43c0c</title>
<g id="a_node27"><a xlink:href="http://sparql.cwrc.ca/ontologies/cwrc#occultism" xlink:title="occultisme" target="_parent">
<ellipse fill="none" stroke="black" cx="1885.94" cy="-18" rx="61.99" ry="18"/>
<text text-anchor="middle" x="1885.94" y="-14.3" font-family="Times,serif" font-size="14.00">occultisme</text>
</a>
</g>
</g>
<!-- X36b94&#45;&gt;X43c0c -->
<!-- Xc1422 -->
<g id="node26" class="node"><title>Xc1422</title>
<g id="a_node26"><a xlink:href="http://sparql.cwrc.ca/ontologies/cwrc#islam" xlink:title="islam" target="_parent">
<ellipse fill="none" stroke="black" cx="991.942" cy="-90" rx="35.9954" ry="18"/>
<text text-anchor="middle" x="991.942" y="-86.3" font-family="Times,serif" font-size="14.00">islam</text>
</a>
</g>
</g>
<!-- Xc1422&#45;&gt;Xb2336 -->
<g id="edge25" class="edge"><title>Xc1422&#45;&gt;Xb2336</title>
<path fill="none" stroke="black" d="M980.34,-72.7646C978.568,-64.8688 978.037,-55.1639 978.746,-46.1828"/>
<polygon fill="black" stroke="black" points="982.234,-46.5114 980.148,-36.1239 975.301,-45.545 982.234,-46.5114"/>
</g>
<!-- Xc1422&#45;&gt;Xb2336 -->
<g id="edge26" class="edge"><title>Xc1422&#45;&gt;Xb2336</title>
<path fill="none" stroke="black" d="M991.942,-71.6966C991.942,-63.9827 991.942,-54.7125 991.942,-46.1124"/>
<polygon fill="black" stroke="black" points="995.442,-46.1043 991.942,-36.1043 988.442,-46.1044 995.442,-46.1043"/>
</g>
<!-- Xc1422&#45;&gt;Xb2336 -->
<g id="edge27" class="edge"><title>Xc1422&#45;&gt;Xb2336</title>
<path fill="none" stroke="black" d="M1003.54,-72.7646C1005.32,-64.8688 1005.85,-55.1639 1005.14,-46.1828"/>
<polygon fill="black" stroke="black" points="1008.58,-45.545 1003.74,-36.1239 1001.65,-46.5114 1008.58,-45.545"/>
</g>
<!-- X043aa -->
<g id="node28" class="node"><title>X043aa</title>
<g id="a_node28"><a xlink:href="http://sparql.cwrc.ca/ontologies/cwrc#unitarianism" xlink:title="unitarisme" target="_parent">
<ellipse fill="none" stroke="black" cx="439.942" cy="-234" rx="61.1893" ry="18"/>
<text text-anchor="middle" x="439.942" y="-230.3" font-family="Times,serif" font-size="14.00">unitarisme</text>
</a>
</g>
</g>
<!-- X043aa&#45;&gt;X4e4b1 -->
<g id="edge29" class="edge"><title>X043aa&#45;&gt;X4e4b1</title>
<path fill="none" stroke="black" d="M473.939,-218.834C499.326,-208.257 534.294,-193.687 562.143,-182.083"/>
<polygon fill="black" stroke="black" points="563.785,-185.191 571.669,-178.114 561.092,-178.729 563.785,-185.191"/>
</g>
<!-- Xd32ac -->
<g id="node29" class="node"><title>Xd32ac</title>
<g id="a_node29"><a xlink:href="http://sparql.cwrc.ca/ontologies/cwrc#judaism" xlink:title="Judaïsme" target="_parent">
<ellipse fill="none" stroke="black" cx="1099.94" cy="-90" rx="53.8905" ry="18"/>
<text text-anchor="middle" x="1099.94" y="-86.3" font-family="Times,serif" font-size="14.00">Judaïsme</text>
</a>
</g>
</g>
<!-- Xd32ac&#45;&gt;Xb2336 -->
<g id="edge30" class="edge"><title>Xd32ac&#45;&gt;Xb2336</title>
<path fill="none" stroke="black" d="M1076.24,-73.6382C1061.68,-64.1981 1042.76,-51.94 1026.54,-41.4272"/>
<polygon fill="black" stroke="black" points="1028.15,-38.2972 1017.85,-35.7953 1024.34,-44.1713 1028.15,-38.2972"/>
</g>
<!-- Xe7b0a -->
<g id="node30" class="node"><title>Xe7b0a</title>
<g id="a_node30"><a xlink:href="http://sparql.cwrc.ca/ontologies/cwrc#neo-thomism" xlink:title="néothomisme" target="_parent">
<ellipse fill="none" stroke="black" cx="1398.94" cy="-522" rx="73.387" ry="18"/>
<text text-anchor="middle" x="1398.94" y="-518.3" font-family="Times,serif" font-size="14.00">néothomisme</text>
</a>
</g>
</g>
<!-- Xe7b0a&#45;&gt;X32f53 -->
<g id="edge31" class="edge"><title>Xe7b0a&#45;&gt;X32f53</title>
<path fill="none" stroke="black" d="M1395.97,-503.771C1392.7,-485.719 1386.95,-456.618 1379.94,-432 1377.47,-423.311 1374.31,-413.988 1371.27,-405.621"/>
<polygon fill="black" stroke="black" points="1374.46,-404.149 1367.69,-395.997 1367.9,-406.59 1374.46,-404.149"/>
</g>
<!-- Xb800b -->
<g id="node31" class="node"><title>Xb800b</title>
<g id="a_node31"><a xlink:href="http://sparql.cwrc.ca/ontologies/cwrc#tractarianMovement" xlink:title="tractarianisme" target="_parent">
<ellipse fill="none" stroke="black" cx="1723.94" cy="-306" rx="79.0865" ry="18"/>
<text text-anchor="middle" x="1723.94" y="-302.3" font-family="Times,serif" font-size="14.00">tractarianisme</text>
</a>
</g>
</g>
<!-- Xb800b&#45;&gt;Xf6f10 -->
<g id="edge32" class="edge"><title>Xb800b&#45;&gt;Xf6f10</title>
<path fill="none" stroke="black" d="M1725.74,-288.003C1726.85,-267.602 1725.17,-233.908 1704.94,-216 1669.35,-184.492 1379.96,-170.945 1217.9,-165.783"/>
<polygon fill="black" stroke="black" points="1217.99,-162.285 1207.89,-165.47 1217.78,-169.281 1217.99,-162.285"/>
</g>
</g>
</svg>
