<?xml version="1.0" encoding="UTF-8" standalone="no"?>
<!DOCTYPE svg PUBLIC "-//W3C//DTD SVG 1.1//EN"
 "http://www.w3.org/Graphics/SVG/1.1/DTD/svg11.dtd">
<!-- Generated by graphviz version 2.38.0 (20140413.2041)
 -->
<!-- Title: ReligionGraph Pages: 1 -->
<svg width="2047pt" height="548pt"
 viewBox="0.00 0.00 2046.88 548.00" xmlns="http://www.w3.org/2000/svg" xmlns:xlink="http://www.w3.org/1999/xlink">
<g id="graph0" class="graph" transform="scale(1 1) rotate(0) translate(4 544)">
<title>ReligionGraph</title>
<polygon fill="white" stroke="none" points="-4,4 -4,-544 2042.88,-544 2042.88,4 -4,4"/>
<!-- Xc1422 -->
<g id="node1" class="node"><title>Xc1422</title>
<g id="a_node1"><a xlink:href="http://sparql.cwrc.ca/ontologies/cwrc#islam" xlink:title="Islamism" target="_parent">
<ellipse fill="none" stroke="black" cx="1272.44" cy="-90" rx="53.0913" ry="18"/>
<text text-anchor="middle" x="1272.44" y="-86.3" font-family="Times,serif" font-size="14.00">Islamism</text>
</a>
</g>
</g>
<!-- Xb2336 -->
<g id="node2" class="node"><title>Xb2336</title>
<g id="a_node2"><a xlink:href="http://sparql.cwrc.ca/ontologies/cwrc#abrahamicReligions" xlink:title="Abrahamic religions" target="_parent">
<ellipse fill="none" stroke="black" cx="1410.44" cy="-18" rx="104.782" ry="18"/>
<text text-anchor="middle" x="1410.44" y="-14.3" font-family="Times,serif" font-size="14.00">Abrahamic religions</text>
</a>
</g>
</g>
<!-- Xc1422&#45;&gt;Xb2336 -->
<g id="edge1" class="edge"><title>Xc1422&#45;&gt;Xb2336</title>
<path fill="none" stroke="black" d="M1300.7,-74.6655C1320.43,-64.6558 1347.09,-51.1327 1369.19,-39.922"/>
<polygon fill="black" stroke="black" points="1371.02,-42.9212 1378.35,-35.276 1367.85,-36.6784 1371.02,-42.9212"/>
</g>
<!-- Xf6f10 -->
<g id="node3" class="node"><title>Xf6f10</title>
<g id="a_node3"><a xlink:href="http://sparql.cwrc.ca/ontologies/cwrc#anglicanism" xlink:title="Anglicanism" target="_parent">
<ellipse fill="none" stroke="black" cx="295.44" cy="-162" rx="68.4888" ry="18"/>
<text text-anchor="middle" x="295.44" y="-158.3" font-family="Times,serif" font-size="14.00">Anglicanism</text>
</a>
</g>
</g>
<!-- Xadf16 -->
<g id="node4" class="node"><title>Xadf16</title>
<g id="a_node4"><a xlink:href="http://sparql.cwrc.ca/ontologies/cwrc#christianity" xlink:title="Christianity" target="_parent">
<ellipse fill="none" stroke="black" cx="1410.44" cy="-90" rx="66.0889" ry="18"/>
<text text-anchor="middle" x="1410.44" y="-86.3" font-family="Times,serif" font-size="14.00">Christianity</text>
</a>
</g>
</g>
<!-- Xf6f10&#45;&gt;Xadf16 -->
<g id="edge2" class="edge"><title>Xf6f10&#45;&gt;Xadf16</title>
<path fill="none" stroke="black" d="M361.524,-157.239C423.888,-153.716 520.01,-148.357 603.44,-144 928.28,-127.037 1012.1,-151.662 1334.44,-108 1340.68,-107.154 1347.17,-106.053 1353.61,-104.818"/>
<polygon fill="black" stroke="black" points="1354.53,-108.202 1363.64,-102.784 1353.14,-101.341 1354.53,-108.202"/>
</g>
<!-- Xadf16&#45;&gt;Xb2336 -->
<g id="edge3" class="edge"><title>Xadf16&#45;&gt;Xb2336</title>
<path fill="none" stroke="black" d="M1410.44,-71.6966C1410.44,-63.9827 1410.44,-54.7125 1410.44,-46.1124"/>
<polygon fill="black" stroke="black" points="1413.94,-46.1043 1410.44,-36.1043 1406.94,-46.1044 1413.94,-46.1043"/>
</g>
<!-- X7152e -->
<g id="node5" class="node"><title>X7152e</title>
<g id="a_node5"><a xlink:href="http://sparql.cwrc.ca/ontologies/cwrc#atheism" xlink:title="Atheism" target="_parent">
<ellipse fill="none" stroke="black" cx="1729.44" cy="-522" rx="49.2915" ry="18"/>
<text text-anchor="middle" x="1729.44" y="-518.3" font-family="Times,serif" font-size="14.00">Atheism</text>
</a>
</g>
</g>
<!-- Xd35c6 -->
<g id="node6" class="node"><title>Xd35c6</title>
<g id="a_node6"><a xlink:href="http://sparql.cwrc.ca/ontologies/cwrc#spiritualism" xlink:title="Spiritualism" target="_parent">
<ellipse fill="none" stroke="black" cx="1729.44" cy="-450" rx="67.6881" ry="18"/>
<text text-anchor="middle" x="1729.44" y="-446.3" font-family="Times,serif" font-size="14.00">Spiritualism</text>
</a>
</g>
</g>
<!-- X7152e&#45;&gt;Xd35c6 -->
<!-- X43c0c -->
<g id="node7" class="node"><title>X43c0c</title>
<g id="a_node7"><a xlink:href="http://sparql.cwrc.ca/ontologies/cwrc#occultism" xlink:title="Occultism/Theosophism" target="_parent">
<ellipse fill="none" stroke="black" cx="1729.44" cy="-378" rx="122.379" ry="18"/>
<text text-anchor="middle" x="1729.44" y="-374.3" font-family="Times,serif" font-size="14.00">Occultism/Theosophism</text>
</a>
</g>
</g>
<!-- Xd35c6&#45;&gt;X43c0c -->
<!-- X36b94 -->
<g id="node10" class="node"><title>X36b94</title>
<g id="a_node10"><a xlink:href="http://sparql.cwrc.ca/ontologies/cwrc#agnosticism" xlink:title="Agnosticism" target="_parent">
<ellipse fill="none" stroke="black" cx="1729.44" cy="-306" rx="68.4888" ry="18"/>
<text text-anchor="middle" x="1729.44" y="-302.3" font-family="Times,serif" font-size="14.00">Agnosticism</text>
</a>
</g>
</g>
<!-- X43c0c&#45;&gt;X36b94 -->
<!-- X043aa -->
<g id="node8" class="node"><title>X043aa</title>
<g id="a_node8"><a xlink:href="http://sparql.cwrc.ca/ontologies/cwrc#unitarianism" xlink:title="Unitarianism" target="_parent">
<ellipse fill="none" stroke="black" cx="456.44" cy="-234" rx="71.4873" ry="18"/>
<text text-anchor="middle" x="456.44" y="-230.3" font-family="Times,serif" font-size="14.00">Unitarianism</text>
</a>
</g>
</g>
<!-- X4e4b1 -->
<g id="node9" class="node"><title>X4e4b1</title>
<g id="a_node9"><a xlink:href="http://sparql.cwrc.ca/ontologies/cwrc#protestantism" xlink:title="Protestantism" target="_parent">
<ellipse fill="none" stroke="black" cx="689.44" cy="-162" rx="76.8869" ry="18"/>
<text text-anchor="middle" x="689.44" y="-158.3" font-family="Times,serif" font-size="14.00">Protestantism</text>
</a>
</g>
</g>
<!-- X043aa&#45;&gt;X4e4b1 -->
<g id="edge6" class="edge"><title>X043aa&#45;&gt;X4e4b1</title>
<path fill="none" stroke="black" d="M500.539,-219.751C538.445,-208.363 593.292,-191.886 634.131,-179.616"/>
<polygon fill="black" stroke="black" points="635.36,-182.902 643.93,-176.672 633.346,-176.198 635.36,-182.902"/>
</g>
<!-- X4e4b1&#45;&gt;Xadf16 -->
<g id="edge7" class="edge"><title>X4e4b1&#45;&gt;Xadf16</title>
<path fill="none" stroke="black" d="M764.809,-158.184C885.604,-152.913 1129.78,-139.146 1334.44,-108 1340.35,-107.101 1346.48,-106.005 1352.59,-104.808"/>
<polygon fill="black" stroke="black" points="1353.7,-108.153 1362.79,-102.714 1352.29,-101.296 1353.7,-108.153"/>
</g>
<!-- X3b80a -->
<g id="node12" class="node"><title>X3b80a</title>
<g id="a_node12"><a xlink:href="http://sparql.cwrc.ca/ontologies/cwrc#buddhism" xlink:title="Buddhism" target="_parent">
<ellipse fill="none" stroke="black" cx="1729.44" cy="-234" rx="57.6901" ry="18"/>
<text text-anchor="middle" x="1729.44" y="-230.3" font-family="Times,serif" font-size="14.00">Buddhism</text>
</a>
</g>
</g>
<!-- X36b94&#45;&gt;X3b80a -->
<!-- X7477d -->
<g id="node11" class="node"><title>X7477d</title>
<g id="a_node11"><a xlink:href="http://sparql.cwrc.ca/ontologies/cwrc#congregationalism" xlink:title="Congregationalism" target="_parent">
<ellipse fill="none" stroke="black" cx="486.44" cy="-306" rx="98.5829" ry="18"/>
<text text-anchor="middle" x="486.44" y="-302.3" font-family="Times,serif" font-size="14.00">Congregationalism</text>
</a>
</g>
</g>
<!-- X7477d&#45;&gt;X4e4b1 -->
<g id="edge9" class="edge"><title>X7477d&#45;&gt;X4e4b1</title>
<path fill="none" stroke="black" d="M506.23,-288.073C528.315,-269.505 565.425,-239.255 599.44,-216 616.112,-204.602 635.312,-193.09 651.685,-183.721"/>
<polygon fill="black" stroke="black" points="653.482,-186.725 660.456,-178.75 650.031,-180.635 653.482,-186.725"/>
</g>
<!-- Xc7ed9 -->
<g id="node13" class="node"><title>Xc7ed9</title>
<g id="a_node13"><a xlink:href="http://sparql.cwrc.ca/ontologies/cwrc#hinduism" xlink:title="Hinduism" target="_parent">
<ellipse fill="none" stroke="black" cx="1729.44" cy="-162" rx="55.7903" ry="18"/>
<text text-anchor="middle" x="1729.44" y="-158.3" font-family="Times,serif" font-size="14.00">Hinduism</text>
</a>
</g>
</g>
<!-- X3b80a&#45;&gt;Xc7ed9 -->
<!-- X37200 -->
<g id="node24" class="node"><title>X37200</title>
<g id="a_node24"><a xlink:href="http://sparql.cwrc.ca/ontologies/cwrc#paganism" xlink:title="Paganism" target="_parent">
<ellipse fill="none" stroke="black" cx="1729.44" cy="-90" rx="55.7903" ry="18"/>
<text text-anchor="middle" x="1729.44" y="-86.3" font-family="Times,serif" font-size="14.00">Paganism</text>
</a>
</g>
</g>
<!-- Xc7ed9&#45;&gt;X37200 -->
<!-- X1cc79 -->
<g id="node14" class="node"><title>X1cc79</title>
<g id="a_node14"><a xlink:href="http://sparql.cwrc.ca/ontologies/cwrc#lollardy" xlink:title="Lollardy" target="_parent">
<ellipse fill="none" stroke="black" cx="1888.44" cy="-450" rx="49.2915" ry="18"/>
<text text-anchor="middle" x="1888.44" y="-446.3" font-family="Times,serif" font-size="14.00">Lollardy</text>
</a>
</g>
</g>
<!-- X752f2 -->
<g id="node15" class="node"><title>X752f2</title>
<ellipse fill="none" stroke="black" cx="1939.44" cy="-378" rx="44.393" ry="18"/>
<text text-anchor="middle" x="1939.44" y="-374.3" font-family="Times,serif" font-size="14.00">X752f2</text>
</g>
<!-- X1cc79&#45;&gt;X752f2 -->
<g id="edge12" class="edge"><title>X1cc79&#45;&gt;X752f2</title>
<path fill="none" stroke="black" d="M1900.53,-432.411C1906.75,-423.868 1914.47,-413.278 1921.38,-403.787"/>
<polygon fill="black" stroke="black" points="1924.38,-405.613 1927.44,-395.47 1918.72,-401.491 1924.38,-405.613"/>
</g>
<!-- Xd2614 -->
<g id="node16" class="node"><title>Xd2614</title>
<g id="a_node16"><a xlink:href="http://sparql.cwrc.ca/ontologies/cwrc#fifthMonarchists" xlink:title="Fifth Monarchists" target="_parent">
<ellipse fill="none" stroke="black" cx="1248.44" cy="-234" rx="94.7833" ry="18"/>
<text text-anchor="middle" x="1248.44" y="-230.3" font-family="Times,serif" font-size="14.00">Fifth Monarchists</text>
</a>
</g>
</g>
<!-- Xb45be -->
<g id="node17" class="node"><title>Xb45be</title>
<g id="a_node17"><a xlink:href="http://sparql.cwrc.ca/ontologies/cwrc#millenarianism" xlink:title="Millenarianism" target="_parent">
<ellipse fill="none" stroke="black" cx="1218.44" cy="-162" rx="81.4863" ry="18"/>
<text text-anchor="middle" x="1218.44" y="-158.3" font-family="Times,serif" font-size="14.00">Millenarianism</text>
</a>
</g>
</g>
<!-- Xd2614&#45;&gt;Xb45be -->
<g id="edge13" class="edge"><title>Xd2614&#45;&gt;Xb45be</title>
<path fill="none" stroke="black" d="M1241.02,-215.697C1237.65,-207.813 1233.57,-198.304 1229.82,-189.546"/>
<polygon fill="black" stroke="black" points="1232.93,-187.917 1225.77,-180.104 1226.49,-190.675 1232.93,-187.917"/>
</g>
<!-- X991c3 -->
<g id="node18" class="node"><title>X991c3</title>
<ellipse fill="none" stroke="black" cx="1073.44" cy="-162" rx="46.2923" ry="18"/>
<text text-anchor="middle" x="1073.44" y="-158.3" font-family="Times,serif" font-size="14.00">X991c3</text>
</g>
<!-- Xd2614&#45;&gt;X991c3 -->
<g id="edge14" class="edge"><title>Xd2614&#45;&gt;X991c3</title>
<path fill="none" stroke="black" d="M1209.6,-217.465C1181.19,-206.102 1142.75,-190.725 1113.96,-179.208"/>
<polygon fill="black" stroke="black" points="1115.18,-175.926 1104.59,-175.462 1112.58,-182.425 1115.18,-175.926"/>
</g>
<!-- Xb800b -->
<g id="node19" class="node"><title>Xb800b</title>
<g id="a_node19"><a xlink:href="http://sparql.cwrc.ca/ontologies/cwrc#tractarianMovement" xlink:title="Tractarian Movement" target="_parent">
<ellipse fill="none" stroke="black" cx="112.44" cy="-234" rx="112.38" ry="18"/>
<text text-anchor="middle" x="112.44" y="-230.3" font-family="Times,serif" font-size="14.00">Tractarian Movement</text>
</a>
</g>
</g>
<!-- Xb800b&#45;&gt;Xf6f10 -->
<g id="edge15" class="edge"><title>Xb800b&#45;&gt;Xf6f10</title>
<path fill="none" stroke="black" d="M153.966,-217.116C182.199,-206.316 219.591,-192.013 248.842,-180.825"/>
<polygon fill="black" stroke="black" points="250.335,-184.001 258.424,-177.159 247.834,-177.463 250.335,-184.001"/>
</g>
<!-- Xe7b0a -->
<g id="node20" class="node"><title>Xe7b0a</title>
<g id="a_node20"><a xlink:href="http://sparql.cwrc.ca/ontologies/cwrc#neo-thomism" xlink:title="Neo&#45;thomism" target="_parent">
<ellipse fill="none" stroke="black" cx="1965.44" cy="-522" rx="73.387" ry="18"/>
<text text-anchor="middle" x="1965.44" y="-518.3" font-family="Times,serif" font-size="14.00">Neo&#45;thomism</text>
</a>
</g>
</g>
<!-- Xe7b0a&#45;&gt;X752f2 -->
<g id="edge16" class="edge"><title>Xe7b0a&#45;&gt;X752f2</title>
<path fill="none" stroke="black" d="M1962.3,-503.871C1957.87,-479.67 1949.73,-435.211 1944.46,-406.393"/>
<polygon fill="black" stroke="black" points="1947.83,-405.395 1942.59,-396.189 1940.95,-406.656 1947.83,-405.395"/>
</g>
<!-- X0e2fa -->
<g id="node21" class="node"><title>X0e2fa</title>
<g id="a_node21"><a xlink:href="http://sparql.cwrc.ca/ontologies/cwrc#presbyterianism" xlink:title="Presbyterianism" target="_parent">
<ellipse fill="none" stroke="black" cx="536.44" cy="-378" rx="87.1846" ry="18"/>
<text text-anchor="middle" x="536.44" y="-374.3" font-family="Times,serif" font-size="14.00">Presbyterianism</text>
</a>
</g>
</g>
<!-- X0e2fa&#45;&gt;X4e4b1 -->
<g id="edge17" class="edge"><title>X0e2fa&#45;&gt;X4e4b1</title>
<path fill="none" stroke="black" d="M558.845,-360.588C570.692,-350.992 584.747,-338.027 594.44,-324 623.81,-281.496 609.239,-259.289 637.44,-216 644.297,-205.474 653.469,-195.282 662.2,-186.694"/>
<polygon fill="black" stroke="black" points="664.841,-189.013 669.689,-179.593 660.024,-183.934 664.841,-189.013"/>
</g>
<!-- X6f203 -->
<g id="node22" class="node"><title>X6f203</title>
<g id="a_node22"><a xlink:href="http://sparql.cwrc.ca/ontologies/cwrc#christianScience" xlink:title="Christian Science" target="_parent">
<ellipse fill="none" stroke="black" cx="1410.44" cy="-162" rx="92.8835" ry="18"/>
<text text-anchor="middle" x="1410.44" y="-158.3" font-family="Times,serif" font-size="14.00">Christian Science</text>
</a>
</g>
</g>
<!-- X6f203&#45;&gt;Xadf16 -->
<g id="edge18" class="edge"><title>X6f203&#45;&gt;Xadf16</title>
<path fill="none" stroke="black" d="M1410.44,-143.697C1410.44,-135.983 1410.44,-126.712 1410.44,-118.112"/>
<polygon fill="black" stroke="black" points="1413.94,-118.104 1410.44,-108.104 1406.94,-118.104 1413.94,-118.104"/>
</g>
<!-- Xd53bc -->
<g id="node23" class="node"><title>Xd53bc</title>
<g id="a_node23"><a xlink:href="http://sparql.cwrc.ca/ontologies/cwrc#baptistChristianity" xlink:title="Baptist Christianity" target="_parent">
<ellipse fill="none" stroke="black" cx="558.44" cy="-450" rx="102.882" ry="18"/>
<text text-anchor="middle" x="558.44" y="-446.3" font-family="Times,serif" font-size="14.00">Baptist Christianity</text>
</a>
</g>
</g>
<!-- Xd53bc&#45;&gt;X4e4b1 -->
<g id="edge19" class="edge"><title>Xd53bc&#45;&gt;X4e4b1</title>
<path fill="none" stroke="black" d="M590.698,-432.891C605.501,-423.944 622.036,-411.475 632.44,-396 678.33,-327.74 655.38,-295.767 675.44,-216 677.562,-207.564 679.953,-198.395 682.151,-190.092"/>
<polygon fill="black" stroke="black" points="685.605,-190.723 684.797,-180.159 678.841,-188.921 685.605,-190.723"/>
</g>
<!-- X930a7 -->
<g id="node25" class="node"><title>X930a7</title>
<g id="a_node25"><a xlink:href="http://sparql.cwrc.ca/ontologies/cwrc#Pantheism" xlink:title="Pantheism" target="_parent">
<ellipse fill="none" stroke="black" cx="1729.44" cy="-18" rx="59.5901" ry="18"/>
<text text-anchor="middle" x="1729.44" y="-14.3" font-family="Times,serif" font-size="14.00">Pantheism</text>
</a>
</g>
</g>
<!-- X37200&#45;&gt;X930a7 -->
<!-- X8fa8b -->
<g id="node26" class="node"><title>X8fa8b</title>
<g id="a_node26"><a xlink:href="http://sparql.cwrc.ca/ontologies/cwrc#plymouthBrethren" xlink:title="Plymouth Brethren" target="_parent">
<ellipse fill="none" stroke="black" cx="689.44" cy="-522" rx="100.182" ry="18"/>
<text text-anchor="middle" x="689.44" y="-518.3" font-family="Times,serif" font-size="14.00">Plymouth Brethren</text>
</a>
</g>
</g>
<!-- X8fa8b&#45;&gt;X4e4b1 -->
<g id="edge22" class="edge"><title>X8fa8b&#45;&gt;X4e4b1</title>
<path fill="none" stroke="black" d="M689.44,-503.951C689.44,-477.292 689.44,-424.115 689.44,-379 689.44,-379 689.44,-379 689.44,-305 689.44,-264.996 689.44,-218.653 689.44,-190.08"/>
<polygon fill="black" stroke="black" points="692.94,-190.049 689.44,-180.049 685.94,-190.049 692.94,-190.049"/>
</g>
<!-- X9deb8 -->
<g id="node27" class="node"><title>X9deb8</title>
<g id="a_node27"><a xlink:href="http://sparql.cwrc.ca/ontologies/cwrc#dissentingChristianity" xlink:title="Dissenting Christianity" target="_parent">
<ellipse fill="none" stroke="black" cx="836.44" cy="-234" rx="118.879" ry="18"/>
<text text-anchor="middle" x="836.44" y="-230.3" font-family="Times,serif" font-size="14.00">Dissenting Christianity</text>
</a>
</g>
</g>
<!-- X9deb8&#45;&gt;X4e4b1 -->
<g id="edge23" class="edge"><title>X9deb8&#45;&gt;X4e4b1</title>
<path fill="none" stroke="black" d="M801.975,-216.588C780.739,-206.476 753.377,-193.446 730.952,-182.768"/>
<polygon fill="black" stroke="black" points="732.209,-179.49 721.676,-178.35 729.199,-185.81 732.209,-179.49"/>
</g>
<!-- X156db -->
<g id="node28" class="node"><title>X156db</title>
<g id="a_node28"><a xlink:href="http://sparql.cwrc.ca/ontologies/cwrc#dissentProtestant" xlink:title="Dissent (Protestant)" target="_parent">
<ellipse fill="none" stroke="black" cx="204.44" cy="-306" rx="104.782" ry="18"/>
<text text-anchor="middle" x="204.44" y="-302.3" font-family="Times,serif" font-size="14.00">Dissent (Protestant)</text>
</a>
</g>
</g>
<!-- X156db&#45;&gt;Xf6f10 -->
<g id="edge24" class="edge"><title>X156db&#45;&gt;Xf6f10</title>
<path fill="none" stroke="black" d="M215.417,-287.871C231.199,-263.244 260.426,-217.638 278.852,-188.885"/>
<polygon fill="black" stroke="black" points="281.976,-190.497 284.424,-180.189 276.082,-186.72 281.976,-190.497"/>
</g>
<!-- X32f53 -->
<g id="node29" class="node"><title>X32f53</title>
<g id="a_node29"><a xlink:href="http://sparql.cwrc.ca/ontologies/cwrc#catholicism" xlink:title="Roman Catholicism" target="_parent">
<ellipse fill="none" stroke="black" cx="1531.44" cy="-234" rx="101.282" ry="18"/>
<text text-anchor="middle" x="1531.44" y="-230.3" font-family="Times,serif" font-size="14.00">Roman Catholicism</text>
</a>
</g>
</g>
<!-- X32f53&#45;&gt;Xadf16 -->
<g id="edge25" class="edge"><title>X32f53&#45;&gt;Xadf16</title>
<path fill="none" stroke="black" d="M1531.94,-215.819C1531.64,-196.469 1528.43,-164.99 1512.44,-144 1500.03,-127.71 1481.18,-115.964 1463.05,-107.736"/>
<polygon fill="black" stroke="black" points="1464.24,-104.44 1453.67,-103.749 1461.5,-110.882 1464.24,-104.44"/>
</g>
<!-- X253de -->
<g id="node30" class="node"><title>X253de</title>
<g id="a_node30"><a xlink:href="http://sparql.cwrc.ca/ontologies/cwrc#quakerism" xlink:title="Quakerism" target="_parent">
<ellipse fill="none" stroke="black" cx="1073.44" cy="-234" rx="61.99" ry="18"/>
<text text-anchor="middle" x="1073.44" y="-230.3" font-family="Times,serif" font-size="14.00">Quakerism</text>
</a>
</g>
</g>
<!-- X253de&#45;&gt;X4e4b1 -->
<g id="edge26" class="edge"><title>X253de&#45;&gt;X4e4b1</title>
<path fill="none" stroke="black" d="M1026.49,-222.115C1016.9,-219.999 1006.86,-217.862 997.44,-216 916.893,-200.072 823.951,-184.455 761.412,-174.347"/>
<polygon fill="black" stroke="black" points="761.686,-170.847 751.257,-172.711 760.573,-177.758 761.686,-170.847"/>
</g>
<!-- X253de&#45;&gt;X991c3 -->
<g id="edge27" class="edge"><title>X253de&#45;&gt;X991c3</title>
<path fill="none" stroke="black" d="M1073.44,-215.697C1073.44,-207.983 1073.44,-198.712 1073.44,-190.112"/>
<polygon fill="black" stroke="black" points="1076.94,-190.104 1073.44,-180.104 1069.94,-190.104 1076.94,-190.104"/>
</g>
<!-- Xd32ac -->
<g id="node31" class="node"><title>Xd32ac</title>
<g id="a_node31"><a xlink:href="http://sparql.cwrc.ca/ontologies/cwrc#judaism" xlink:title="Judaism" target="_parent">
<ellipse fill="none" stroke="black" cx="1607.44" cy="-162" rx="48.1917" ry="18"/>
<text text-anchor="middle" x="1607.44" y="-158.3" font-family="Times,serif" font-size="14.00">Judaism</text>
</a>
</g>
</g>
<!-- Xd32ac&#45;&gt;Xb2336 -->
<g id="edge28" class="edge"><title>Xd32ac&#45;&gt;Xb2336</title>
<path fill="none" stroke="black" d="M1586.35,-145.468C1562.09,-127.63 1521,-97.5366 1485.44,-72 1471.42,-61.9307 1455.84,-50.8974 1442.53,-41.5171"/>
<polygon fill="black" stroke="black" points="1444.34,-38.513 1434.15,-35.6184 1440.31,-44.2368 1444.34,-38.513"/>
</g>
<!-- Xe1e3e -->
<g id="node32" class="node"><title>Xe1e3e</title>
<g id="a_node32"><a xlink:href="http://sparql.cwrc.ca/ontologies/cwrc#methodism" xlink:title="Methodism" target="_parent">
<ellipse fill="none" stroke="black" cx="983.44" cy="-306" rx="63.8893" ry="18"/>
<text text-anchor="middle" x="983.44" y="-302.3" font-family="Times,serif" font-size="14.00">Methodism</text>
</a>
</g>
</g>
<!-- Xe1e3e&#45;&gt;X4e4b1 -->
<g id="edge29" class="edge"><title>Xe1e3e&#45;&gt;X4e4b1</title>
<path fill="none" stroke="black" d="M984.942,-287.982C985.706,-267.88 983.621,-234.802 964.44,-216 937.592,-189.682 842.83,-175.82 772.002,-168.969"/>
<polygon fill="black" stroke="black" points="772.019,-165.455 761.736,-168.008 771.367,-172.425 772.019,-165.455"/>
</g>
<!-- X2a5d0 -->
<g id="node33" class="node"><title>X2a5d0</title>
<g id="a_node33"><a xlink:href="http://sparql.cwrc.ca/ontologies/cwrc#churchOfIreland" xlink:title="Church of Ireland" target="_parent">
<ellipse fill="none" stroke="black" cx="337.44" cy="-378" rx="93.6835" ry="18"/>
<text text-anchor="middle" x="337.44" y="-374.3" font-family="Times,serif" font-size="14.00">Church of Ireland</text>
</a>
</g>
</g>
<!-- X2a5d0&#45;&gt;Xf6f10 -->
<g id="edge30" class="edge"><title>X2a5d0&#45;&gt;Xf6f10</title>
<path fill="none" stroke="black" d="M334.074,-359.849C326.794,-322.753 309.534,-234.81 300.759,-190.103"/>
<polygon fill="black" stroke="black" points="304.183,-189.371 298.822,-180.232 297.314,-190.719 304.183,-189.371"/>
</g>
</g>
</svg>
