<?xml version="1.0" encoding="UTF-8" standalone="no"?>
<!DOCTYPE svg PUBLIC "-//W3C//DTD SVG 1.1//EN"
 "http://www.w3.org/Graphics/SVG/1.1/DTD/svg11.dtd">
<!-- Generated by graphviz version 2.38.0 (20140413.2041)
 -->
<!-- Title: Religion_Taxonomy Pages: 1 -->
<svg width="1085pt" height="692pt"
 viewBox="0.00 0.00 1085.44 692.00" xmlns="http://www.w3.org/2000/svg" xmlns:xlink="http://www.w3.org/1999/xlink">
<g id="graph0" class="graph" transform="scale(1 1) rotate(0) translate(4 688)">
<title>Religion_Taxonomy</title>
<polygon fill="white" stroke="none" points="-4,4 -4,-688 1081.44,-688 1081.44,4 -4,4"/>
<!-- __agnosticism__ -->
<g id="node1" class="node"><title>__agnosticism__</title>
<g id="a_node1"><a xlink:href="http://sparql.cwrc.ca/ontologies/cwrc#agnosticism" xlink:title="agnosticisme">
<ellipse fill="none" stroke="black" cx="117.293" cy="-18" rx="57.3905" ry="18"/>
<text text-anchor="middle" x="117.293" y="-14.3" font-family="Times,serif" font-size="14.00">agnosticisme</text>
</a>
</g>
</g>
<!-- __atheism__ -->
<g id="node2" class="node"><title>__atheism__</title>
<g id="a_node2"><a xlink:href="http://sparql.cwrc.ca/ontologies/cwrc#atheism" xlink:title="athéisme">
<ellipse fill="none" stroke="black" cx="234.293" cy="-18" rx="42.4939" ry="18"/>
<text text-anchor="middle" x="234.293" y="-14.3" font-family="Times,serif" font-size="14.00">athéisme</text>
</a>
</g>
</g>
<!-- __agnosticism__&#45;&gt;__atheism__ -->
<!-- __buddhism__ -->
<g id="node3" class="node"><title>__buddhism__</title>
<g id="a_node3"><a xlink:href="http://sparql.cwrc.ca/ontologies/cwrc#buddhism" xlink:title="Bouddhisme">
<ellipse fill="none" stroke="black" cx="350.293" cy="-18" rx="55.7903" ry="18"/>
<text text-anchor="middle" x="350.293" y="-14.3" font-family="Times,serif" font-size="14.00">Bouddhisme</text>
</a>
</g>
</g>
<!-- __atheism__&#45;&gt;__buddhism__ -->
<!-- __hinduism__ -->
<g id="node4" class="node"><title>__hinduism__</title>
<g id="a_node4"><a xlink:href="http://sparql.cwrc.ca/ontologies/cwrc#hinduism" xlink:title="hindouisme">
<ellipse fill="none" stroke="black" cx="476.293" cy="-18" rx="51.9908" ry="18"/>
<text text-anchor="middle" x="476.293" y="-14.3" font-family="Times,serif" font-size="14.00">hindouisme</text>
</a>
</g>
</g>
<!-- __buddhism__&#45;&gt;__hinduism__ -->
<!-- __occultism__ -->
<g id="node5" class="node"><title>__occultism__</title>
<g id="a_node5"><a xlink:href="http://sparql.cwrc.ca/ontologies/cwrc#occultism" xlink:title="occultisme">
<ellipse fill="none" stroke="black" cx="595.293" cy="-18" rx="49.2915" ry="18"/>
<text text-anchor="middle" x="595.293" y="-14.3" font-family="Times,serif" font-size="14.00">occultisme</text>
</a>
</g>
</g>
<!-- __hinduism__&#45;&gt;__occultism__ -->
<!-- __paganism__ -->
<g id="node6" class="node"><title>__paganism__</title>
<g id="a_node6"><a xlink:href="http://sparql.cwrc.ca/ontologies/cwrc#paganism" xlink:title="Paganisme">
<ellipse fill="none" stroke="black" cx="712.293" cy="-18" rx="49.2915" ry="18"/>
<text text-anchor="middle" x="712.293" y="-14.3" font-family="Times,serif" font-size="14.00">Paganisme</text>
</a>
</g>
</g>
<!-- __occultism__&#45;&gt;__paganism__ -->
<!-- __pantheism__ -->
<g id="node7" class="node"><title>__pantheism__</title>
<g id="a_node7"><a xlink:href="http://sparql.cwrc.ca/ontologies/cwrc#pantheism" xlink:title="Panthéisme">
<ellipse fill="none" stroke="black" cx="831.293" cy="-18" rx="51.9908" ry="18"/>
<text text-anchor="middle" x="831.293" y="-14.3" font-family="Times,serif" font-size="14.00">Panthéisme</text>
</a>
</g>
</g>
<!-- __paganism__&#45;&gt;__pantheism__ -->
<!-- __spiritualism__ -->
<g id="node8" class="node"><title>__spiritualism__</title>
<g id="a_node8"><a xlink:href="http://sparql.cwrc.ca/ontologies/cwrc#spiritualism" xlink:title="Spritisme">
<ellipse fill="none" stroke="black" cx="946.293" cy="-18" rx="44.6926" ry="18"/>
<text text-anchor="middle" x="946.293" y="-14.3" font-family="Times,serif" font-size="14.00">Spritisme</text>
</a>
</g>
</g>
<!-- __pantheism__&#45;&gt;__spiritualism__ -->
<!-- __anglicanism__ -->
<g id="node9" class="node"><title>__anglicanism__</title>
<g id="a_node9"><a xlink:href="http://sparql.cwrc.ca/ontologies/cwrc#anglicanism" xlink:title="Église d&#39;Angleterre">
<ellipse fill="none" stroke="black" cx="255.293" cy="-234" rx="78.7863" ry="18"/>
<text text-anchor="middle" x="255.293" y="-230.3" font-family="Times,serif" font-size="14.00">Église d&#39;Angleterre</text>
</a>
</g>
</g>
<!-- __christianity__ -->
<g id="node10" class="node"><title>__christianity__</title>
<g id="a_node10"><a xlink:href="http://sparql.cwrc.ca/ontologies/cwrc#christianity" xlink:title="Christianisme">
<ellipse fill="none" stroke="black" cx="439.293" cy="-162" rx="59.5901" ry="18"/>
<text text-anchor="middle" x="439.293" y="-158.3" font-family="Times,serif" font-size="14.00">Christianisme</text>
</a>
</g>
</g>
<!-- __anglicanism__&#45;&gt;__christianity__ -->
<g id="edge1" class="edge"><title>__anglicanism__&#45;&gt;__christianity__</title>
<path fill="none" stroke="black" d="M294.315,-218.155C323.538,-207.037 363.579,-191.804 394.178,-180.163"/>
<polygon fill="black" stroke="black" points="395.653,-183.347 403.755,-176.52 393.164,-176.805 395.653,-183.347"/>
</g>
<!-- __abrahamicReligions__ -->
<g id="node11" class="node"><title>__abrahamicReligions__</title>
<g id="a_node11"><a xlink:href="http://sparql.cwrc.ca/ontologies/cwrc#abrahamicReligions" xlink:title="Religions abrahamiques">
<ellipse fill="none" stroke="black" cx="689.293" cy="-90" rx="96.3833" ry="18"/>
<text text-anchor="middle" x="689.293" y="-86.3" font-family="Times,serif" font-size="14.00">Religions abrahamiques</text>
</a>
</g>
</g>
<!-- __christianity__&#45;&gt;__abrahamicReligions__ -->
<g id="edge2" class="edge"><title>__christianity__&#45;&gt;__abrahamicReligions__</title>
<path fill="none" stroke="black" d="M481.419,-149.205C521.609,-137.952 582.601,-120.874 628.139,-108.123"/>
<polygon fill="black" stroke="black" points="629.213,-111.457 637.899,-105.39 627.325,-104.716 629.213,-111.457"/>
</g>
<!-- __baptistChristianity__ -->
<g id="node12" class="node"><title>__baptistChristianity__</title>
<g id="a_node12"><a xlink:href="http://sparql.cwrc.ca/ontologies/cwrc#baptistChristianity" xlink:title="Baptisme">
<ellipse fill="none" stroke="black" cx="439.293" cy="-378" rx="44.393" ry="18"/>
<text text-anchor="middle" x="439.293" y="-374.3" font-family="Times,serif" font-size="14.00">Baptisme</text>
</a>
</g>
</g>
<!-- __dissentProtestant__ -->
<g id="node13" class="node"><title>__dissentProtestant__</title>
<g id="a_node13"><a xlink:href="http://sparql.cwrc.ca/ontologies/cwrc#dissentProtestant" xlink:title="dissidents (ou non&#45;conformistes)">
<ellipse fill="none" stroke="black" cx="439.293" cy="-306" rx="126.978" ry="18"/>
<text text-anchor="middle" x="439.293" y="-302.3" font-family="Times,serif" font-size="14.00">dissidents (ou non&#45;conformistes)</text>
</a>
</g>
</g>
<!-- __baptistChristianity__&#45;&gt;__dissentProtestant__ -->
<g id="edge3" class="edge"><title>__baptistChristianity__&#45;&gt;__dissentProtestant__</title>
<path fill="none" stroke="black" d="M439.293,-359.697C439.293,-351.983 439.293,-342.712 439.293,-334.112"/>
<polygon fill="black" stroke="black" points="442.793,-334.104 439.293,-324.104 435.793,-334.104 442.793,-334.104"/>
</g>
<!-- __protestantism__ -->
<g id="node14" class="node"><title>__protestantism__</title>
<g id="a_node14"><a xlink:href="http://sparql.cwrc.ca/ontologies/cwrc#protestantism" xlink:title="protestantisme">
<ellipse fill="none" stroke="black" cx="439.293" cy="-234" rx="62.2891" ry="18"/>
<text text-anchor="middle" x="439.293" y="-230.3" font-family="Times,serif" font-size="14.00">protestantisme</text>
</a>
</g>
</g>
<!-- __dissentProtestant__&#45;&gt;__protestantism__ -->
<g id="edge4" class="edge"><title>__dissentProtestant__&#45;&gt;__protestantism__</title>
<path fill="none" stroke="black" d="M439.293,-287.697C439.293,-279.983 439.293,-270.712 439.293,-262.112"/>
<polygon fill="black" stroke="black" points="442.793,-262.104 439.293,-252.104 435.793,-262.104 442.793,-262.104"/>
</g>
<!-- __protestantism__&#45;&gt;__christianity__ -->
<g id="edge9" class="edge"><title>__protestantism__&#45;&gt;__christianity__</title>
<path fill="none" stroke="black" d="M439.293,-215.697C439.293,-207.983 439.293,-198.712 439.293,-190.112"/>
<polygon fill="black" stroke="black" points="442.793,-190.104 439.293,-180.104 435.793,-190.104 442.793,-190.104"/>
</g>
<!-- __catholicism__ -->
<g id="node15" class="node"><title>__catholicism__</title>
<g id="a_node15"><a xlink:href="http://sparql.cwrc.ca/ontologies/cwrc#catholicism" xlink:title="Catholicisme">
<ellipse fill="none" stroke="black" cx="770.293" cy="-234" rx="57.6901" ry="18"/>
<text text-anchor="middle" x="770.293" y="-230.3" font-family="Times,serif" font-size="14.00">Catholicisme</text>
</a>
</g>
</g>
<!-- __catholicism__&#45;&gt;__christianity__ -->
<g id="edge5" class="edge"><title>__catholicism__&#45;&gt;__christianity__</title>
<path fill="none" stroke="black" d="M723.92,-223.193C664.388,-210.603 561.107,-188.761 496.683,-175.137"/>
<polygon fill="black" stroke="black" points="497.198,-171.668 486.69,-173.024 495.749,-178.517 497.198,-171.668"/>
</g>
<!-- __christianScience__ -->
<g id="node16" class="node"><title>__christianScience__</title>
<g id="a_node16"><a xlink:href="http://sparql.cwrc.ca/ontologies/cwrc#christianScience" xlink:title="Science Chrétienne">
<ellipse fill="none" stroke="black" cx="79.293" cy="-234" rx="79.0865" ry="18"/>
<text text-anchor="middle" x="79.293" y="-230.3" font-family="Times,serif" font-size="14.00">Science Chrétienne</text>
</a>
</g>
</g>
<!-- __christianScience__&#45;&gt;__christianity__ -->
<g id="edge6" class="edge"><title>__christianScience__&#45;&gt;__christianity__</title>
<path fill="none" stroke="black" d="M137.533,-221.675C204.35,-208.683 313.306,-187.497 380.397,-174.452"/>
<polygon fill="black" stroke="black" points="381.239,-177.854 390.387,-172.51 379.903,-170.983 381.239,-177.854"/>
</g>
<!-- __churchOfIreland__ -->
<g id="node17" class="node"><title>__churchOfIreland__</title>
<g id="a_node17"><a xlink:href="http://sparql.cwrc.ca/ontologies/cwrc#churchOfIreland" xlink:title="Église d&#39;Irlande">
<ellipse fill="none" stroke="black" cx="229.293" cy="-306" rx="65.7887" ry="18"/>
<text text-anchor="middle" x="229.293" y="-302.3" font-family="Times,serif" font-size="14.00">Église d&#39;Irlande</text>
</a>
</g>
</g>
<!-- __churchOfIreland__&#45;&gt;__anglicanism__ -->
<g id="edge7" class="edge"><title>__churchOfIreland__&#45;&gt;__anglicanism__</title>
<path fill="none" stroke="black" d="M235.587,-288.055C238.513,-280.176 242.064,-270.617 245.341,-261.794"/>
<polygon fill="black" stroke="black" points="248.675,-262.868 248.876,-252.275 242.114,-260.431 248.675,-262.868"/>
</g>
<!-- __congregationalism__ -->
<g id="node18" class="node"><title>__congregationalism__</title>
<g id="a_node18"><a xlink:href="http://sparql.cwrc.ca/ontologies/cwrc#congregationalism" xlink:title="Églises congrégationalistes">
<ellipse fill="none" stroke="black" cx="511.293" cy="-450" rx="106.681" ry="18"/>
<text text-anchor="middle" x="511.293" y="-446.3" font-family="Times,serif" font-size="14.00">Églises congrégationalistes</text>
</a>
</g>
</g>
<!-- __congregationalism__&#45;&gt;__dissentProtestant__ -->
<g id="edge8" class="edge"><title>__congregationalism__&#45;&gt;__dissentProtestant__</title>
<path fill="none" stroke="black" d="M510.517,-431.94C509.037,-413.256 504.742,-382.905 492.293,-360 486.429,-349.212 477.688,-339.176 468.986,-330.803"/>
<polygon fill="black" stroke="black" points="471.168,-328.056 461.423,-323.897 466.447,-333.225 471.168,-328.056"/>
</g>
<!-- __fifthMonarchists__ -->
<g id="node19" class="node"><title>__fifthMonarchists__</title>
<g id="a_node19"><a xlink:href="http://sparql.cwrc.ca/ontologies/cwrc#fifthMonarchists" xlink:title="Cinquièmes Monarchistes">
<ellipse fill="none" stroke="black" cx="642.293" cy="-378" rx="103.182" ry="18"/>
<text text-anchor="middle" x="642.293" y="-374.3" font-family="Times,serif" font-size="14.00">Cinquièmes Monarchistes</text>
</a>
</g>
</g>
<!-- __fifthMonarchists__&#45;&gt;__dissentProtestant__ -->
<g id="edge10" class="edge"><title>__fifthMonarchists__&#45;&gt;__dissentProtestant__</title>
<path fill="none" stroke="black" d="M597.995,-361.725C567.757,-351.298 527.464,-337.404 495.045,-326.225"/>
<polygon fill="black" stroke="black" points="495.851,-322.801 485.257,-322.85 493.569,-329.418 495.851,-322.801"/>
</g>
<!-- __millenarianism__ -->
<g id="node20" class="node"><title>__millenarianism__</title>
<g id="a_node20"><a xlink:href="http://sparql.cwrc.ca/ontologies/cwrc#millenarianism" xlink:title="millénarisme, ou chiliasme">
<ellipse fill="none" stroke="black" cx="772.293" cy="-306" rx="107.781" ry="18"/>
<text text-anchor="middle" x="772.293" y="-302.3" font-family="Times,serif" font-size="14.00">millénarisme, ou chiliasme</text>
</a>
</g>
</g>
<!-- __fifthMonarchists__&#45;&gt;__millenarianism__ -->
<g id="edge11" class="edge"><title>__fifthMonarchists__&#45;&gt;__millenarianism__</title>
<path fill="none" stroke="black" d="M672.444,-360.765C690.445,-351.072 713.509,-338.653 732.934,-328.193"/>
<polygon fill="black" stroke="black" points="734.709,-331.212 741.855,-323.39 731.391,-325.049 734.709,-331.212"/>
</g>
<!-- __islam__ -->
<g id="node21" class="node"><title>__islam__</title>
<g id="a_node21"><a xlink:href="http://sparql.cwrc.ca/ontologies/cwrc#islam" xlink:title="islam">
<ellipse fill="none" stroke="black" cx="689.293" cy="-162" rx="30.5947" ry="18"/>
<text text-anchor="middle" x="689.293" y="-158.3" font-family="Times,serif" font-size="14.00">islam</text>
</a>
</g>
</g>
<!-- __islam__&#45;&gt;__abrahamicReligions__ -->
<g id="edge12" class="edge"><title>__islam__&#45;&gt;__abrahamicReligions__</title>
<path fill="none" stroke="black" d="M689.293,-143.697C689.293,-135.983 689.293,-126.712 689.293,-118.112"/>
<polygon fill="black" stroke="black" points="692.793,-118.104 689.293,-108.104 685.793,-118.104 692.793,-118.104"/>
</g>
<!-- __judaism__ -->
<g id="node22" class="node"><title>__judaism__</title>
<g id="a_node22"><a xlink:href="http://sparql.cwrc.ca/ontologies/cwrc#judaism" xlink:title="Judaïsme">
<ellipse fill="none" stroke="black" cx="890.293" cy="-234" rx="44.393" ry="18"/>
<text text-anchor="middle" x="890.293" y="-230.3" font-family="Times,serif" font-size="14.00">Judaïsme</text>
</a>
</g>
</g>
<!-- __judaism__&#45;&gt;__abrahamicReligions__ -->
<g id="edge13" class="edge"><title>__judaism__&#45;&gt;__abrahamicReligions__</title>
<path fill="none" stroke="black" d="M869.162,-218.072C833.781,-193.076 762.366,-142.624 720.959,-113.371"/>
<polygon fill="black" stroke="black" points="722.789,-110.378 712.602,-107.467 718.75,-116.096 722.789,-110.378"/>
</g>
<!-- __lollardy__ -->
<g id="node23" class="node"><title>__lollardy__</title>
<g id="a_node23"><a xlink:href="http://sparql.cwrc.ca/ontologies/cwrc#lollardy" xlink:title="Lollardy">
<ellipse fill="none" stroke="black" cx="1032.29" cy="-306" rx="40.8928" ry="18"/>
<text text-anchor="middle" x="1032.29" y="-302.3" font-family="Times,serif" font-size="14.00">Lollardy</text>
</a>
</g>
</g>
<!-- __lollardy__&#45;&gt;__catholicism__ -->
<g id="edge14" class="edge"><title>__lollardy__&#45;&gt;__catholicism__</title>
<path fill="none" stroke="black" d="M1000.09,-294.756C992.626,-292.463 984.699,-290.091 977.293,-288 969.763,-285.874 882.227,-263.524 823.425,-248.535"/>
<polygon fill="black" stroke="black" points="824.085,-245.091 813.53,-246.013 822.356,-251.874 824.085,-245.091"/>
</g>
<!-- __methodism__ -->
<g id="node24" class="node"><title>__methodism__</title>
<g id="a_node24"><a xlink:href="http://sparql.cwrc.ca/ontologies/cwrc#methodism" xlink:title="Église méthodiste">
<ellipse fill="none" stroke="black" cx="113.293" cy="-522" rx="74.187" ry="18"/>
<text text-anchor="middle" x="113.293" y="-518.3" font-family="Times,serif" font-size="14.00">Église méthodiste</text>
</a>
</g>
</g>
<!-- __methodism__&#45;&gt;__dissentProtestant__ -->
<g id="edge15" class="edge"><title>__methodism__&#45;&gt;__dissentProtestant__</title>
<path fill="none" stroke="black" d="M117.587,-503.78C126.834,-470.451 151.905,-397.145 201.293,-360 223.507,-343.292 285.563,-329.779 340.737,-320.579"/>
<polygon fill="black" stroke="black" points="341.642,-323.978 350.948,-318.912 340.514,-317.069 341.642,-323.978"/>
</g>
<!-- __neo_thomism__ -->
<g id="node25" class="node"><title>__neo_thomism__</title>
<g id="a_node25"><a xlink:href="http://sparql.cwrc.ca/ontologies/cwrc#neo-thomism" xlink:title="néothomisme">
<ellipse fill="none" stroke="black" cx="1018.29" cy="-378" rx="59.2899" ry="18"/>
<text text-anchor="middle" x="1018.29" y="-374.3" font-family="Times,serif" font-size="14.00">néothomisme</text>
</a>
</g>
</g>
<!-- __neo_thomism__&#45;&gt;__catholicism__ -->
<g id="edge16" class="edge"><title>__neo_thomism__&#45;&gt;__catholicism__</title>
<path fill="none" stroke="black" d="M997.617,-360.948C972.766,-342.084 929.391,-310.507 889.293,-288 865.306,-274.537 837.251,-261.903 814.408,-252.35"/>
<polygon fill="black" stroke="black" points="815.543,-249.032 804.964,-248.451 812.871,-255.502 815.543,-249.032"/>
</g>
<!-- __plymouthBrethren__ -->
<g id="node26" class="node"><title>__plymouthBrethren__</title>
<g id="a_node26"><a xlink:href="http://sparql.cwrc.ca/ontologies/cwrc#plymouthBrethren" xlink:title="Assemblées de Frères">
<ellipse fill="none" stroke="black" cx="852.293" cy="-378" rx="88.2844" ry="18"/>
<text text-anchor="middle" x="852.293" y="-374.3" font-family="Times,serif" font-size="14.00">Assemblées de Frères</text>
</a>
</g>
</g>
<!-- __plymouthBrethren__&#45;&gt;__dissentProtestant__ -->
<g id="edge17" class="edge"><title>__plymouthBrethren__&#45;&gt;__dissentProtestant__</title>
<path fill="none" stroke="black" d="M787.462,-365.706C776.397,-363.792 765.016,-361.832 754.293,-360 677.888,-346.945 591.013,-332.347 527.878,-321.782"/>
<polygon fill="black" stroke="black" points="528.395,-318.319 517.954,-320.121 527.24,-325.224 528.395,-318.319"/>
</g>
<!-- __plymouthBrethren__&#45;&gt;__millenarianism__ -->
<g id="edge18" class="edge"><title>__plymouthBrethren__&#45;&gt;__millenarianism__</title>
<path fill="none" stroke="black" d="M833.334,-360.411C823.221,-351.562 810.599,-340.518 799.462,-330.773"/>
<polygon fill="black" stroke="black" points="801.502,-327.907 791.671,-323.956 796.893,-333.175 801.502,-327.907"/>
</g>
<!-- __presbyterianism__ -->
<g id="node27" class="node"><title>__presbyterianism__</title>
<g id="a_node27"><a xlink:href="http://sparql.cwrc.ca/ontologies/cwrc#presbyterianism" xlink:title="Presbytarianisme">
<ellipse fill="none" stroke="black" cx="154.293" cy="-594" rx="71.4873" ry="18"/>
<text text-anchor="middle" x="154.293" y="-590.3" font-family="Times,serif" font-size="14.00">Presbytarianisme</text>
</a>
</g>
</g>
<!-- __presbyterianism__&#45;&gt;__dissentProtestant__ -->
<g id="edge19" class="edge"><title>__presbyterianism__&#45;&gt;__dissentProtestant__</title>
<path fill="none" stroke="black" d="M170.784,-576.172C179.552,-566.352 189.828,-553.305 196.293,-540 232.24,-466.02 181.851,-418.87 239.293,-360 254.981,-343.922 303.079,-330.904 348.173,-321.793"/>
<polygon fill="black" stroke="black" points="348.902,-325.216 358.037,-319.851 347.55,-318.348 348.902,-325.216"/>
</g>
<!-- __quakerism__ -->
<g id="node28" class="node"><title>__quakerism__</title>
<g id="a_node28"><a xlink:href="http://sparql.cwrc.ca/ontologies/cwrc#quakerism" xlink:title="quaker">
<ellipse fill="none" stroke="black" cx="253.293" cy="-666" rx="34.394" ry="18"/>
<text text-anchor="middle" x="253.293" y="-662.3" font-family="Times,serif" font-size="14.00">quaker</text>
</a>
</g>
</g>
<!-- __quakerism__&#45;&gt;__dissentProtestant__ -->
<g id="edge20" class="edge"><title>__quakerism__&#45;&gt;__dissentProtestant__</title>
<path fill="none" stroke="black" d="M253.293,-647.951C253.293,-621.292 253.293,-568.115 253.293,-523 253.293,-523 253.293,-523 253.293,-449 253.293,-408.553 245.113,-389.953 272.293,-360 289.256,-341.307 312.769,-329.164 336.804,-321.288"/>
<polygon fill="black" stroke="black" points="337.841,-324.631 346.389,-318.372 335.804,-317.934 337.841,-324.631"/>
</g>
<!-- __tractarianMovement__ -->
<g id="node29" class="node"><title>__tractarianMovement__</title>
<g id="a_node29"><a xlink:href="http://sparql.cwrc.ca/ontologies/cwrc#tractarianMovement" xlink:title="tractarianisme">
<ellipse fill="none" stroke="black" cx="87.293" cy="-378" rx="61.1893" ry="18"/>
<text text-anchor="middle" x="87.293" y="-374.3" font-family="Times,serif" font-size="14.00">tractarianisme</text>
</a>
</g>
</g>
<!-- __tractarianMovement__&#45;&gt;__anglicanism__ -->
<g id="edge21" class="edge"><title>__tractarianMovement__&#45;&gt;__anglicanism__</title>
<path fill="none" stroke="black" d="M96.8241,-360.139C108.417,-340.794 129.534,-309.04 154.293,-288 170.355,-274.35 190.522,-262.889 208.603,-254.155"/>
<polygon fill="black" stroke="black" points="210.258,-257.245 217.835,-249.84 207.294,-250.904 210.258,-257.245"/>
</g>
<!-- __unitarianism__ -->
<g id="node30" class="node"><title>__unitarianism__</title>
<g id="a_node30"><a xlink:href="http://sparql.cwrc.ca/ontologies/cwrc#unitarianism" xlink:title="unitarisme">
<ellipse fill="none" stroke="black" cx="329.293" cy="-378" rx="48.1917" ry="18"/>
<text text-anchor="middle" x="329.293" y="-374.3" font-family="Times,serif" font-size="14.00">unitarisme</text>
</a>
</g>
</g>
<!-- __unitarianism__&#45;&gt;__dissentProtestant__ -->
<g id="edge22" class="edge"><title>__unitarianism__&#45;&gt;__dissentProtestant__</title>
<path fill="none" stroke="black" d="M352.621,-362.155C367.658,-352.586 387.487,-339.968 404.383,-329.215"/>
<polygon fill="black" stroke="black" points="406.353,-332.111 412.91,-323.789 402.595,-326.205 406.353,-332.111"/>
</g>
</g>
</svg>
