<?xml version="1.0" encoding="UTF-8" standalone="no"?>
<!DOCTYPE svg PUBLIC "-//W3C//DTD SVG 1.1//EN"
 "http://www.w3.org/Graphics/SVG/1.1/DTD/svg11.dtd">
<!-- Generated by graphviz version 2.38.0 (20140413.2041)
 -->
<!-- Title: ReligionGraph Pages: 1 -->
<svg width="1831pt" height="548pt"
 viewBox="0.00 0.00 1830.58 548.00" xmlns="http://www.w3.org/2000/svg" xmlns:xlink="http://www.w3.org/1999/xlink">
<g id="graph0" class="graph" transform="scale(1 1) rotate(0) translate(4 544)">
<title>ReligionGraph</title>
<polygon fill="white" stroke="none" points="-4,4 -4,-544 1826.58,-544 1826.58,4 -4,4"/>
<!-- Xe1e3e -->
<g id="node1" class="node"><title>Xe1e3e</title>
<g id="a_node1"><a xlink:href="http://sparql.cwrc.ca/ontologies/cwrc#methodism" xlink:title="Methodism" target="_parent">
<ellipse fill="none" stroke="black" cx="305.396" cy="-234" rx="63.8893" ry="18"/>
<text text-anchor="middle" x="305.396" y="-230.3" font-family="Times,serif" font-size="14.00">Methodism</text>
</a>
</g>
</g>
<!-- X4e4b1 -->
<g id="node2" class="node"><title>X4e4b1</title>
<g id="a_node2"><a xlink:href="http://sparql.cwrc.ca/ontologies/cwrc#protestantism" xlink:title="Protestantism" target="_parent">
<ellipse fill="none" stroke="black" cx="572.396" cy="-162" rx="76.8869" ry="18"/>
<text text-anchor="middle" x="572.396" y="-158.3" font-family="Times,serif" font-size="14.00">Protestantism</text>
</a>
</g>
</g>
<!-- Xe1e3e&#45;&gt;X4e4b1 -->
<g id="edge1" class="edge"><title>Xe1e3e&#45;&gt;X4e4b1</title>
<path fill="none" stroke="black" d="M350.387,-221.205C395.158,-209.467 464.1,-191.392 513.271,-178.501"/>
<polygon fill="black" stroke="black" points="514.353,-181.836 523.138,-175.914 512.577,-175.064 514.353,-181.836"/>
</g>
<!-- Xadf16 -->
<g id="node3" class="node"><title>Xadf16</title>
<g id="a_node3"><a xlink:href="http://sparql.cwrc.ca/ontologies/cwrc#christianity" xlink:title="Christianity" target="_parent">
<ellipse fill="none" stroke="black" cx="996.396" cy="-90" rx="66.0889" ry="18"/>
<text text-anchor="middle" x="996.396" y="-86.3" font-family="Times,serif" font-size="14.00">Christianity</text>
</a>
</g>
</g>
<!-- X4e4b1&#45;&gt;Xadf16 -->
<g id="edge2" class="edge"><title>X4e4b1&#45;&gt;Xadf16</title>
<path fill="none" stroke="black" d="M633.144,-150.971C712.198,-137.919 849.798,-115.202 931.048,-101.788"/>
<polygon fill="black" stroke="black" points="931.859,-105.202 941.155,-100.12 930.719,-98.2956 931.859,-105.202"/>
</g>
<!-- Xb2336 -->
<g id="node15" class="node"><title>Xb2336</title>
<g id="a_node15"><a xlink:href="http://sparql.cwrc.ca/ontologies/cwrc#abrahamicReligions" xlink:title="Abrahamic religions" target="_parent">
<ellipse fill="none" stroke="black" cx="1195.4" cy="-18" rx="104.782" ry="18"/>
<text text-anchor="middle" x="1195.4" y="-14.3" font-family="Times,serif" font-size="14.00">Abrahamic religions</text>
</a>
</g>
</g>
<!-- Xadf16&#45;&gt;Xb2336 -->
<g id="edge14" class="edge"><title>Xadf16&#45;&gt;Xb2336</title>
<path fill="none" stroke="black" d="M1035.24,-75.3371C1065.61,-64.6543 1108.17,-49.6829 1141.78,-37.8587"/>
<polygon fill="black" stroke="black" points="1143.18,-41.0763 1151.46,-34.4562 1140.86,-34.4729 1143.18,-41.0763"/>
</g>
<!-- X36b94 -->
<g id="node4" class="node"><title>X36b94</title>
<g id="a_node4"><a xlink:href="http://sparql.cwrc.ca/ontologies/cwrc#agnosticism" xlink:title="Agnosticism" target="_parent">
<ellipse fill="none" stroke="black" cx="1700.4" cy="-522" rx="68.4888" ry="18"/>
<text text-anchor="middle" x="1700.4" y="-518.3" font-family="Times,serif" font-size="14.00">Agnosticism</text>
</a>
</g>
</g>
<!-- X52798 -->
<g id="node5" class="node"><title>X52798</title>
<g id="a_node5"><a xlink:href="http://sparql.cwrc.ca/ontologies/cwrc#pantheism" xlink:title="Pantheism" target="_parent">
<ellipse fill="none" stroke="black" cx="1700.4" cy="-450" rx="59.5901" ry="18"/>
<text text-anchor="middle" x="1700.4" y="-446.3" font-family="Times,serif" font-size="14.00">Pantheism</text>
</a>
</g>
</g>
<!-- X36b94&#45;&gt;X52798 -->
<!-- X7152e -->
<g id="node12" class="node"><title>X7152e</title>
<g id="a_node12"><a xlink:href="http://sparql.cwrc.ca/ontologies/cwrc#atheism" xlink:title="Atheism" target="_parent">
<ellipse fill="none" stroke="black" cx="1700.4" cy="-378" rx="49.2915" ry="18"/>
<text text-anchor="middle" x="1700.4" y="-374.3" font-family="Times,serif" font-size="14.00">Atheism</text>
</a>
</g>
</g>
<!-- X52798&#45;&gt;X7152e -->
<!-- Xb45be -->
<g id="node6" class="node"><title>Xb45be</title>
<g id="a_node6"><a xlink:href="http://sparql.cwrc.ca/ontologies/cwrc#millenarianism" xlink:title="Millenarianism" target="_parent">
<ellipse fill="none" stroke="black" cx="1405.4" cy="-234" rx="81.4863" ry="18"/>
<text text-anchor="middle" x="1405.4" y="-230.3" font-family="Times,serif" font-size="14.00">Millenarianism</text>
</a>
</g>
</g>
<!-- X8fa8b -->
<g id="node7" class="node"><title>X8fa8b</title>
<g id="a_node7"><a xlink:href="http://sparql.cwrc.ca/ontologies/cwrc#plymouthBrethren" xlink:title="Plymouth Brethren" target="_parent">
<ellipse fill="none" stroke="black" cx="406.396" cy="-306" rx="100.182" ry="18"/>
<text text-anchor="middle" x="406.396" y="-302.3" font-family="Times,serif" font-size="14.00">Plymouth Brethren</text>
</a>
</g>
</g>
<!-- X8fa8b&#45;&gt;X4e4b1 -->
<g id="edge4" class="edge"><title>X8fa8b&#45;&gt;X4e4b1</title>
<path fill="none" stroke="black" d="M426.09,-288.153C455.621,-262.891 511.477,-215.111 544.978,-186.454"/>
<polygon fill="black" stroke="black" points="547.66,-188.765 552.984,-179.605 543.11,-183.446 547.66,-188.765"/>
</g>
<!-- Xd53bc -->
<g id="node8" class="node"><title>Xd53bc</title>
<g id="a_node8"><a xlink:href="http://sparql.cwrc.ca/ontologies/cwrc#baptistChristianity" xlink:title="Baptist Christianity" target="_parent">
<ellipse fill="none" stroke="black" cx="441.396" cy="-378" rx="102.882" ry="18"/>
<text text-anchor="middle" x="441.396" y="-374.3" font-family="Times,serif" font-size="14.00">Baptist Christianity</text>
</a>
</g>
</g>
<!-- Xd53bc&#45;&gt;X4e4b1 -->
<g id="edge5" class="edge"><title>Xd53bc&#45;&gt;X4e4b1</title>
<path fill="none" stroke="black" d="M472.581,-360.623C487.309,-351.539 504.094,-339.03 515.396,-324 531.632,-302.409 553.633,-229.985 564.966,-190.032"/>
<polygon fill="black" stroke="black" points="568.405,-190.732 567.737,-180.158 561.666,-188.841 568.405,-190.732"/>
</g>
<!-- Xd2614 -->
<g id="node9" class="node"><title>Xd2614</title>
<g id="a_node9"><a xlink:href="http://sparql.cwrc.ca/ontologies/cwrc#fifthMonarchists" xlink:title="Fifth Monarchists" target="_parent">
<ellipse fill="none" stroke="black" cx="1113.4" cy="-306" rx="94.7833" ry="18"/>
<text text-anchor="middle" x="1113.4" y="-302.3" font-family="Times,serif" font-size="14.00">Fifth Monarchists</text>
</a>
</g>
</g>
<!-- Xd2614&#45;&gt;Xb45be -->
<g id="edge6" class="edge"><title>Xd2614&#45;&gt;Xb45be</title>
<path fill="none" stroke="black" d="M1169.7,-291.503C1219.1,-279.659 1290.89,-262.451 1342.24,-250.141"/>
<polygon fill="black" stroke="black" points="1343.31,-253.482 1352.22,-247.748 1341.68,-246.675 1343.31,-253.482"/>
</g>
<!-- X156db -->
<g id="node10" class="node"><title>X156db</title>
<g id="a_node10"><a xlink:href="http://sparql.cwrc.ca/ontologies/cwrc#dissentProtestant" xlink:title="Dissent (Protestant)" target="_parent">
<ellipse fill="none" stroke="black" cx="996.396" cy="-234" rx="104.782" ry="18"/>
<text text-anchor="middle" x="996.396" y="-230.3" font-family="Times,serif" font-size="14.00">Dissent (Protestant)</text>
</a>
</g>
</g>
<!-- Xd2614&#45;&gt;X156db -->
<g id="edge7" class="edge"><title>Xd2614&#45;&gt;X156db</title>
<path fill="none" stroke="black" d="M1085.96,-288.588C1070.09,-279.091 1049.92,-267.02 1032.73,-256.741"/>
<polygon fill="black" stroke="black" points="1034.44,-253.682 1024.06,-251.552 1030.84,-259.689 1034.44,-253.682"/>
</g>
<!-- Xf6f10 -->
<g id="node11" class="node"><title>Xf6f10</title>
<g id="a_node11"><a xlink:href="http://sparql.cwrc.ca/ontologies/cwrc#anglicanism" xlink:title="Anglicanism" target="_parent">
<ellipse fill="none" stroke="black" cx="996.396" cy="-162" rx="68.4888" ry="18"/>
<text text-anchor="middle" x="996.396" y="-158.3" font-family="Times,serif" font-size="14.00">Anglicanism</text>
</a>
</g>
</g>
<!-- X156db&#45;&gt;Xf6f10 -->
<g id="edge8" class="edge"><title>X156db&#45;&gt;Xf6f10</title>
<path fill="none" stroke="black" d="M996.396,-215.697C996.396,-207.983 996.396,-198.712 996.396,-190.112"/>
<polygon fill="black" stroke="black" points="999.896,-190.104 996.396,-180.104 992.896,-190.104 999.896,-190.104"/>
</g>
<!-- Xf6f10&#45;&gt;Xadf16 -->
<g id="edge22" class="edge"><title>Xf6f10&#45;&gt;Xadf16</title>
<path fill="none" stroke="black" d="M996.396,-143.697C996.396,-135.983 996.396,-126.712 996.396,-118.112"/>
<polygon fill="black" stroke="black" points="999.896,-118.104 996.396,-108.104 992.896,-118.104 999.896,-118.104"/>
</g>
<!-- Xc7ed9 -->
<g id="node22" class="node"><title>Xc7ed9</title>
<g id="a_node22"><a xlink:href="http://sparql.cwrc.ca/ontologies/cwrc#hinduism" xlink:title="Hinduism" target="_parent">
<ellipse fill="none" stroke="black" cx="1700.4" cy="-306" rx="55.7903" ry="18"/>
<text text-anchor="middle" x="1700.4" y="-302.3" font-family="Times,serif" font-size="14.00">Hinduism</text>
</a>
</g>
</g>
<!-- X7152e&#45;&gt;Xc7ed9 -->
<!-- X253de -->
<g id="node13" class="node"><title>X253de</title>
<g id="a_node13"><a xlink:href="http://sparql.cwrc.ca/ontologies/cwrc#quakerism" xlink:title="Quakerism" target="_parent">
<ellipse fill="none" stroke="black" cx="878.396" cy="-306" rx="61.99" ry="18"/>
<text text-anchor="middle" x="878.396" y="-302.3" font-family="Times,serif" font-size="14.00">Quakerism</text>
</a>
</g>
</g>
<!-- X253de&#45;&gt;X4e4b1 -->
<g id="edge10" class="edge"><title>X253de&#45;&gt;X4e4b1</title>
<path fill="none" stroke="black" d="M821.816,-298.682C777.625,-291.935 715.804,-278.411 667.396,-252 659.215,-247.537 622.141,-211.88 596.8,-187.078"/>
<polygon fill="black" stroke="black" points="598.947,-184.281 589.357,-179.776 594.044,-189.278 598.947,-184.281"/>
</g>
<!-- X253de&#45;&gt;X156db -->
<g id="edge11" class="edge"><title>X253de&#45;&gt;X156db</title>
<path fill="none" stroke="black" d="M904.291,-289.638C920.467,-280.042 941.552,-267.534 959.466,-256.908"/>
<polygon fill="black" stroke="black" points="961.687,-259.66 968.501,-251.547 958.115,-253.639 961.687,-259.66"/>
</g>
<!-- Xd32ac -->
<g id="node14" class="node"><title>Xd32ac</title>
<g id="a_node14"><a xlink:href="http://sparql.cwrc.ca/ontologies/cwrc#judaism" xlink:title="Judaism" target="_parent">
<ellipse fill="none" stroke="black" cx="1195.4" cy="-90" rx="48.1917" ry="18"/>
<text text-anchor="middle" x="1195.4" y="-86.3" font-family="Times,serif" font-size="14.00">Judaism</text>
</a>
</g>
</g>
<!-- Xd32ac&#45;&gt;Xb2336 -->
<g id="edge12" class="edge"><title>Xd32ac&#45;&gt;Xb2336</title>
<path fill="none" stroke="black" d="M1195.4,-71.6966C1195.4,-63.9827 1195.4,-54.7125 1195.4,-46.1124"/>
<polygon fill="black" stroke="black" points="1198.9,-46.1043 1195.4,-36.1043 1191.9,-46.1044 1198.9,-46.1043"/>
</g>
<!-- X6f203 -->
<g id="node16" class="node"><title>X6f203</title>
<g id="a_node16"><a xlink:href="http://sparql.cwrc.ca/ontologies/cwrc#christianScience" xlink:title="Christian Science" target="_parent">
<ellipse fill="none" stroke="black" cx="1175.4" cy="-162" rx="92.8835" ry="18"/>
<text text-anchor="middle" x="1175.4" y="-158.3" font-family="Times,serif" font-size="14.00">Christian Science</text>
</a>
</g>
</g>
<!-- X6f203&#45;&gt;Xadf16 -->
<g id="edge13" class="edge"><title>X6f203&#45;&gt;Xadf16</title>
<path fill="none" stroke="black" d="M1136.11,-145.638C1108.37,-134.791 1071.12,-120.222 1042.06,-108.857"/>
<polygon fill="black" stroke="black" points="1043.13,-105.518 1032.54,-105.135 1040.58,-112.037 1043.13,-105.518"/>
</g>
<!-- X0e2fa -->
<g id="node17" class="node"><title>X0e2fa</title>
<g id="a_node17"><a xlink:href="http://sparql.cwrc.ca/ontologies/cwrc#presbyterianism" xlink:title="Presbyterianism" target="_parent">
<ellipse fill="none" stroke="black" cx="495.396" cy="-450" rx="87.1846" ry="18"/>
<text text-anchor="middle" x="495.396" y="-446.3" font-family="Times,serif" font-size="14.00">Presbyterianism</text>
</a>
</g>
</g>
<!-- X0e2fa&#45;&gt;X4e4b1 -->
<g id="edge15" class="edge"><title>X0e2fa&#45;&gt;X4e4b1</title>
<path fill="none" stroke="black" d="M520.71,-432.692C532.774,-423.47 546.129,-410.819 553.396,-396 586.728,-328.022 581.571,-235.393 576.319,-190.135"/>
<polygon fill="black" stroke="black" points="579.791,-189.687 575.074,-180.2 572.845,-190.558 579.791,-189.687"/>
</g>
<!-- X32f53 -->
<g id="node18" class="node"><title>X32f53</title>
<g id="a_node18"><a xlink:href="http://sparql.cwrc.ca/ontologies/cwrc#catholicism" xlink:title="Roman Catholicism" target="_parent">
<ellipse fill="none" stroke="black" cx="150.396" cy="-162" rx="101.282" ry="18"/>
<text text-anchor="middle" x="150.396" y="-158.3" font-family="Times,serif" font-size="14.00">Roman Catholicism</text>
</a>
</g>
</g>
<!-- X32f53&#45;&gt;Xadf16 -->
<g id="edge16" class="edge"><title>X32f53&#45;&gt;Xadf16</title>
<path fill="none" stroke="black" d="M240.132,-153.575C408.594,-139.636 769.108,-109.806 923.632,-97.0206"/>
<polygon fill="black" stroke="black" points="924.275,-100.479 933.953,-96.1667 923.698,-93.5033 924.275,-100.479"/>
</g>
<!-- Xe7b0a -->
<g id="node19" class="node"><title>Xe7b0a</title>
<g id="a_node19"><a xlink:href="http://sparql.cwrc.ca/ontologies/cwrc#neo-thomism" xlink:title="Neo&#45;thomism" target="_parent">
<ellipse fill="none" stroke="black" cx="150.396" cy="-234" rx="73.387" ry="18"/>
<text text-anchor="middle" x="150.396" y="-230.3" font-family="Times,serif" font-size="14.00">Neo&#45;thomism</text>
</a>
</g>
</g>
<!-- Xe7b0a&#45;&gt;X32f53 -->
<g id="edge17" class="edge"><title>Xe7b0a&#45;&gt;X32f53</title>
<path fill="none" stroke="black" d="M150.396,-215.697C150.396,-207.983 150.396,-198.712 150.396,-190.112"/>
<polygon fill="black" stroke="black" points="153.896,-190.104 150.396,-180.104 146.896,-190.104 153.896,-190.104"/>
</g>
<!-- X9deb8 -->
<g id="node20" class="node"><title>X9deb8</title>
<g id="a_node20"><a xlink:href="http://sparql.cwrc.ca/ontologies/cwrc#dissentingChristianity" xlink:title="Dissenting Christianity" target="_parent">
<ellipse fill="none" stroke="black" cx="610.396" cy="-522" rx="118.879" ry="18"/>
<text text-anchor="middle" x="610.396" y="-518.3" font-family="Times,serif" font-size="14.00">Dissenting Christianity</text>
</a>
</g>
</g>
<!-- X9deb8&#45;&gt;X4e4b1 -->
<g id="edge18" class="edge"><title>X9deb8&#45;&gt;X4e4b1</title>
<path fill="none" stroke="black" d="M610.396,-503.951C610.396,-477.292 610.396,-424.115 610.396,-379 610.396,-379 610.396,-379 610.396,-305 610.396,-264.81 605.721,-254.561 594.396,-216 591.813,-207.206 588.245,-197.887 584.734,-189.558"/>
<polygon fill="black" stroke="black" points="587.911,-188.086 580.701,-180.323 581.496,-190.888 587.911,-188.086"/>
</g>
<!-- X1cc79 -->
<g id="node21" class="node"><title>X1cc79</title>
<g id="a_node21"><a xlink:href="http://sparql.cwrc.ca/ontologies/cwrc#lollardy" xlink:title="Lollardy" target="_parent">
<ellipse fill="none" stroke="black" cx="49.3956" cy="-306" rx="49.2915" ry="18"/>
<text text-anchor="middle" x="49.3956" y="-302.3" font-family="Times,serif" font-size="14.00">Lollardy</text>
</a>
</g>
</g>
<!-- X1cc79&#45;&gt;X32f53 -->
<g id="edge19" class="edge"><title>X1cc79&#45;&gt;X32f53</title>
<path fill="none" stroke="black" d="M49.2691,-287.74C49.9384,-268.604 53.5074,-237.592 68.3956,-216 77.473,-202.835 90.9952,-192.176 104.454,-183.963"/>
<polygon fill="black" stroke="black" points="106.312,-186.932 113.242,-178.918 102.827,-180.862 106.312,-186.932"/>
</g>
<!-- Xd35c6 -->
<g id="node23" class="node"><title>Xd35c6</title>
<g id="a_node23"><a xlink:href="http://sparql.cwrc.ca/ontologies/cwrc#spiritualism" xlink:title="Spiritualism" target="_parent">
<ellipse fill="none" stroke="black" cx="1700.4" cy="-234" rx="67.6881" ry="18"/>
<text text-anchor="middle" x="1700.4" y="-230.3" font-family="Times,serif" font-size="14.00">Spiritualism</text>
</a>
</g>
</g>
<!-- Xc7ed9&#45;&gt;Xd35c6 -->
<!-- X3b80a -->
<g id="node25" class="node"><title>X3b80a</title>
<g id="a_node25"><a xlink:href="http://sparql.cwrc.ca/ontologies/cwrc#buddhism" xlink:title="Buddhism" target="_parent">
<ellipse fill="none" stroke="black" cx="1700.4" cy="-162" rx="57.6901" ry="18"/>
<text text-anchor="middle" x="1700.4" y="-158.3" font-family="Times,serif" font-size="14.00">Buddhism</text>
</a>
</g>
</g>
<!-- Xd35c6&#45;&gt;X3b80a -->
<!-- X2a5d0 -->
<g id="node24" class="node"><title>X2a5d0</title>
<g id="a_node24"><a xlink:href="http://sparql.cwrc.ca/ontologies/cwrc#churchOfIreland" xlink:title="Church of Ireland" target="_parent">
<ellipse fill="none" stroke="black" cx="1212.4" cy="-234" rx="93.6835" ry="18"/>
<text text-anchor="middle" x="1212.4" y="-230.3" font-family="Times,serif" font-size="14.00">Church of Ireland</text>
</a>
</g>
</g>
<!-- X2a5d0&#45;&gt;Xf6f10 -->
<g id="edge23" class="edge"><title>X2a5d0&#45;&gt;Xf6f10</title>
<path fill="none" stroke="black" d="M1166.85,-218.24C1132.01,-206.948 1083.94,-191.372 1047.73,-179.638"/>
<polygon fill="black" stroke="black" points="1048.45,-176.19 1037.86,-176.437 1046.29,-182.849 1048.45,-176.19"/>
</g>
<!-- X37200 -->
<g id="node27" class="node"><title>X37200</title>
<g id="a_node27"><a xlink:href="http://sparql.cwrc.ca/ontologies/cwrc#paganism" xlink:title="Paganism" target="_parent">
<ellipse fill="none" stroke="black" cx="1700.4" cy="-90" rx="55.7903" ry="18"/>
<text text-anchor="middle" x="1700.4" y="-86.3" font-family="Times,serif" font-size="14.00">Paganism</text>
</a>
</g>
</g>
<!-- X3b80a&#45;&gt;X37200 -->
<!-- Xc1422 -->
<g id="node26" class="node"><title>Xc1422</title>
<g id="a_node26"><a xlink:href="http://sparql.cwrc.ca/ontologies/cwrc#islam" xlink:title="Islamism" target="_parent">
<ellipse fill="none" stroke="black" cx="1339.4" cy="-162" rx="53.0913" ry="18"/>
<text text-anchor="middle" x="1339.4" y="-158.3" font-family="Times,serif" font-size="14.00">Islamism</text>
</a>
</g>
</g>
<!-- Xc1422&#45;&gt;Xb2336 -->
<g id="edge25" class="edge"><title>Xc1422&#45;&gt;Xb2336</title>
<path fill="none" stroke="black" d="M1323.91,-144.694C1306.68,-126.67 1277.92,-96.8931 1252.4,-72 1242.4,-62.2475 1231.18,-51.7297 1221.36,-42.6547"/>
<polygon fill="black" stroke="black" points="1223.56,-39.9239 1213.83,-35.7282 1218.82,-45.075 1223.56,-39.9239"/>
</g>
<!-- X43c0c -->
<g id="node31" class="node"><title>X43c0c</title>
<g id="a_node31"><a xlink:href="http://sparql.cwrc.ca/ontologies/cwrc#occultism" xlink:title="Occultism/Theosophism" target="_parent">
<ellipse fill="none" stroke="black" cx="1700.4" cy="-18" rx="122.379" ry="18"/>
<text text-anchor="middle" x="1700.4" y="-14.3" font-family="Times,serif" font-size="14.00">Occultism/Theosophism</text>
</a>
</g>
</g>
<!-- X37200&#45;&gt;X43c0c -->
<!-- X7477d -->
<g id="node28" class="node"><title>X7477d</title>
<g id="a_node28"><a xlink:href="http://sparql.cwrc.ca/ontologies/cwrc#congregationalism" xlink:title="Congregationalism" target="_parent">
<ellipse fill="none" stroke="black" cx="775.396" cy="-234" rx="98.5829" ry="18"/>
<text text-anchor="middle" x="775.396" y="-230.3" font-family="Times,serif" font-size="14.00">Congregationalism</text>
</a>
</g>
</g>
<!-- X7477d&#45;&gt;X4e4b1 -->
<g id="edge27" class="edge"><title>X7477d&#45;&gt;X4e4b1</title>
<path fill="none" stroke="black" d="M731.348,-217.811C699.508,-206.832 656.422,-191.974 623.14,-180.498"/>
<polygon fill="black" stroke="black" points="624.185,-177.156 613.59,-177.205 621.903,-183.774 624.185,-177.156"/>
</g>
<!-- X043aa -->
<g id="node29" class="node"><title>X043aa</title>
<g id="a_node29"><a xlink:href="http://sparql.cwrc.ca/ontologies/cwrc#unitarianism" xlink:title="Unitarianism" target="_parent">
<ellipse fill="none" stroke="black" cx="216.396" cy="-306" rx="71.4873" ry="18"/>
<text text-anchor="middle" x="216.396" y="-302.3" font-family="Times,serif" font-size="14.00">Unitarianism</text>
</a>
</g>
</g>
<!-- X043aa&#45;&gt;X4e4b1 -->
<g id="edge28" class="edge"><title>X043aa&#45;&gt;X4e4b1</title>
<path fill="none" stroke="black" d="M261.229,-291.838C294.023,-281.847 339.405,-267.265 378.396,-252 432.472,-230.829 493.044,-202.225 531.893,-183.223"/>
<polygon fill="black" stroke="black" points="533.852,-186.16 541.284,-178.609 530.766,-179.877 533.852,-186.16"/>
</g>
<!-- Xb800b -->
<g id="node30" class="node"><title>Xb800b</title>
<g id="a_node30"><a xlink:href="http://sparql.cwrc.ca/ontologies/cwrc#tractarianMovement" xlink:title="Tractarian Movement" target="_parent">
<ellipse fill="none" stroke="black" cx="1514.4" cy="-306" rx="112.38" ry="18"/>
<text text-anchor="middle" x="1514.4" y="-302.3" font-family="Times,serif" font-size="14.00">Tractarian Movement</text>
</a>
</g>
</g>
<!-- Xb800b&#45;&gt;Xf6f10 -->
<g id="edge29" class="edge"><title>Xb800b&#45;&gt;Xf6f10</title>
<path fill="none" stroke="black" d="M1516.2,-287.991C1517.33,-267.578 1515.66,-233.871 1495.4,-216 1460.1,-184.871 1119.92,-187.088 1073.4,-180 1067.5,-179.102 1061.38,-178.017 1055.29,-176.835"/>
<polygon fill="black" stroke="black" points="1055.59,-173.326 1045.09,-174.77 1054.2,-180.186 1055.59,-173.326"/>
</g>
</g>
</svg>
