<?xml version="1.0" encoding="UTF-8" standalone="no"?>
<!DOCTYPE svg PUBLIC "-//W3C//DTD SVG 1.1//EN"
 "http://www.w3.org/Graphics/SVG/1.1/DTD/svg11.dtd">
<!-- Generated by graphviz version 2.38.0 (20140413.2041)
 -->
<!-- Title: ReligionGraph Pages: 1 -->
<svg width="1886pt" height="548pt"
 viewBox="0.00 0.00 1885.83 548.00" xmlns="http://www.w3.org/2000/svg" xmlns:xlink="http://www.w3.org/1999/xlink">
<g id="graph0" class="graph" transform="scale(1 1) rotate(0) translate(4 544)">
<title>ReligionGraph</title>
<polygon fill="white" stroke="none" points="-4,4 -4,-544 1881.83,-544 1881.83,4 -4,4"/>
<!-- Xb800b -->
<g id="node1" class="node"><title>Xb800b</title>
<g id="a_node1"><a xlink:href="http://sparql.cwrc.ca/ontologies/cwrc#tractarianMovement" xlink:title="Tractarian Movement" target="_parent">
<ellipse fill="none" stroke="black" cx="1419.39" cy="-234" rx="112.38" ry="18"/>
<text text-anchor="middle" x="1419.39" y="-230.3" font-family="Times,serif" font-size="14.00">Tractarian Movement</text>
</a>
</g>
</g>
<!-- Xf6f10 -->
<g id="node2" class="node"><title>Xf6f10</title>
<g id="a_node2"><a xlink:href="http://sparql.cwrc.ca/ontologies/cwrc#anglicanism" xlink:title="Anglicanism" target="_parent">
<ellipse fill="none" stroke="black" cx="1214.39" cy="-162" rx="68.4888" ry="18"/>
<text text-anchor="middle" x="1214.39" y="-158.3" font-family="Times,serif" font-size="14.00">Anglicanism</text>
</a>
</g>
</g>
<!-- Xb800b&#45;&gt;Xf6f10 -->
<g id="edge1" class="edge"><title>Xb800b&#45;&gt;Xf6f10</title>
<path fill="none" stroke="black" d="M1373.89,-217.465C1341.36,-206.357 1297.6,-191.414 1264.15,-179.989"/>
<polygon fill="black" stroke="black" points="1265.15,-176.636 1254.56,-176.716 1262.89,-183.26 1265.15,-176.636"/>
</g>
<!-- Xadf16 -->
<g id="node3" class="node"><title>Xadf16</title>
<g id="a_node3"><a xlink:href="http://sparql.cwrc.ca/ontologies/cwrc#christianity" xlink:title="Christianity" target="_parent">
<ellipse fill="none" stroke="black" cx="517.391" cy="-90" rx="66.0889" ry="18"/>
<text text-anchor="middle" x="517.391" y="-86.3" font-family="Times,serif" font-size="14.00">Christianity</text>
</a>
</g>
</g>
<!-- Xf6f10&#45;&gt;Xadf16 -->
<g id="edge2" class="edge"><title>Xf6f10&#45;&gt;Xadf16</title>
<path fill="none" stroke="black" d="M1165.69,-149.231C1156.34,-147.26 1146.59,-145.403 1137.39,-144 942.235,-114.248 709.783,-99.966 592.716,-94.2278"/>
<polygon fill="black" stroke="black" points="592.593,-90.7179 582.436,-93.7314 592.255,-97.7098 592.593,-90.7179"/>
</g>
<!-- Xb2336 -->
<g id="node4" class="node"><title>Xb2336</title>
<g id="a_node4"><a xlink:href="http://sparql.cwrc.ca/ontologies/cwrc#abrahamicReligions" xlink:title="Abrahamic religions" target="_parent">
<ellipse fill="none" stroke="black" cx="311.391" cy="-18" rx="104.782" ry="18"/>
<text text-anchor="middle" x="311.391" y="-14.3" font-family="Times,serif" font-size="14.00">Abrahamic religions</text>
</a>
</g>
</g>
<!-- Xadf16&#45;&gt;Xb2336 -->
<g id="edge9" class="edge"><title>Xadf16&#45;&gt;Xb2336</title>
<path fill="none" stroke="black" d="M477.672,-75.5033C445.932,-64.7178 401.102,-49.4845 365.988,-37.5522"/>
<polygon fill="black" stroke="black" points="366.954,-34.1842 356.36,-34.2807 364.702,-40.812 366.954,-34.1842"/>
</g>
<!-- X36b94 -->
<g id="node5" class="node"><title>X36b94</title>
<g id="a_node5"><a xlink:href="http://sparql.cwrc.ca/ontologies/cwrc#agnosticism" xlink:title="Agnosticism" target="_parent">
<ellipse fill="none" stroke="black" cx="1602.39" cy="-522" rx="68.4888" ry="18"/>
<text text-anchor="middle" x="1602.39" y="-518.3" font-family="Times,serif" font-size="14.00">Agnosticism</text>
</a>
</g>
</g>
<!-- X3b80a -->
<g id="node6" class="node"><title>X3b80a</title>
<g id="a_node6"><a xlink:href="http://sparql.cwrc.ca/ontologies/cwrc#buddhism" xlink:title="Buddhism" target="_parent">
<ellipse fill="none" stroke="black" cx="1602.39" cy="-450" rx="57.6901" ry="18"/>
<text text-anchor="middle" x="1602.39" y="-446.3" font-family="Times,serif" font-size="14.00">Buddhism</text>
</a>
</g>
</g>
<!-- X36b94&#45;&gt;X3b80a -->
<!-- Xd35c6 -->
<g id="node7" class="node"><title>Xd35c6</title>
<g id="a_node7"><a xlink:href="http://sparql.cwrc.ca/ontologies/cwrc#spiritualism" xlink:title="Spiritualism" target="_parent">
<ellipse fill="none" stroke="black" cx="1602.39" cy="-378" rx="67.6881" ry="18"/>
<text text-anchor="middle" x="1602.39" y="-374.3" font-family="Times,serif" font-size="14.00">Spiritualism</text>
</a>
</g>
</g>
<!-- X3b80a&#45;&gt;Xd35c6 -->
<!-- X37200 -->
<g id="node13" class="node"><title>X37200</title>
<g id="a_node13"><a xlink:href="http://sparql.cwrc.ca/ontologies/cwrc#paganism" xlink:title="Paganism" target="_parent">
<ellipse fill="none" stroke="black" cx="1602.39" cy="-306" rx="55.7903" ry="18"/>
<text text-anchor="middle" x="1602.39" y="-302.3" font-family="Times,serif" font-size="14.00">Paganism</text>
</a>
</g>
</g>
<!-- Xd35c6&#45;&gt;X37200 -->
<!-- X0e2fa -->
<g id="node8" class="node"><title>X0e2fa</title>
<g id="a_node8"><a xlink:href="http://sparql.cwrc.ca/ontologies/cwrc#presbyterianism" xlink:title="Presbyterianism" target="_parent">
<ellipse fill="none" stroke="black" cx="345.391" cy="-234" rx="87.1846" ry="18"/>
<text text-anchor="middle" x="345.391" y="-230.3" font-family="Times,serif" font-size="14.00">Presbyterianism</text>
</a>
</g>
</g>
<!-- X4e4b1 -->
<g id="node9" class="node"><title>X4e4b1</title>
<g id="a_node9"><a xlink:href="http://sparql.cwrc.ca/ontologies/cwrc#protestantism" xlink:title="Protestantism" target="_parent">
<ellipse fill="none" stroke="black" cx="517.391" cy="-162" rx="76.8869" ry="18"/>
<text text-anchor="middle" x="517.391" y="-158.3" font-family="Times,serif" font-size="14.00">Protestantism</text>
</a>
</g>
</g>
<!-- X0e2fa&#45;&gt;X4e4b1 -->
<g id="edge5" class="edge"><title>X0e2fa&#45;&gt;X4e4b1</title>
<path fill="none" stroke="black" d="M383.137,-217.638C409.144,-207.054 443.856,-192.927 471.468,-181.69"/>
<polygon fill="black" stroke="black" points="472.97,-184.857 480.913,-177.846 470.331,-178.374 472.97,-184.857"/>
</g>
<!-- X4e4b1&#45;&gt;Xadf16 -->
<g id="edge6" class="edge"><title>X4e4b1&#45;&gt;Xadf16</title>
<path fill="none" stroke="black" d="M517.391,-143.697C517.391,-135.983 517.391,-126.712 517.391,-118.112"/>
<polygon fill="black" stroke="black" points="520.891,-118.104 517.391,-108.104 513.891,-118.104 520.891,-118.104"/>
</g>
<!-- X253de -->
<g id="node10" class="node"><title>X253de</title>
<g id="a_node10"><a xlink:href="http://sparql.cwrc.ca/ontologies/cwrc#quakerism" xlink:title="Quakerism" target="_parent">
<ellipse fill="none" stroke="black" cx="880.391" cy="-234" rx="61.99" ry="18"/>
<text text-anchor="middle" x="880.391" y="-230.3" font-family="Times,serif" font-size="14.00">Quakerism</text>
</a>
</g>
</g>
<!-- X253de&#45;&gt;X4e4b1 -->
<g id="edge7" class="edge"><title>X253de&#45;&gt;X4e4b1</title>
<path fill="none" stroke="black" d="M835.024,-221.742C826.525,-219.745 817.701,-217.748 809.391,-216 734.203,-200.188 647.53,-184.813 588.264,-174.732"/>
<polygon fill="black" stroke="black" points="588.705,-171.257 578.261,-173.036 587.535,-178.158 588.705,-171.257"/>
</g>
<!-- X991c3 -->
<g id="node11" class="node"><title>X991c3</title>
<ellipse fill="none" stroke="black" cx="887.391" cy="-162" rx="46.2923" ry="18"/>
<text text-anchor="middle" x="887.391" y="-158.3" font-family="Times,serif" font-size="14.00">X991c3</text>
</g>
<!-- X253de&#45;&gt;X991c3 -->
<g id="edge8" class="edge"><title>X253de&#45;&gt;X991c3</title>
<path fill="none" stroke="black" d="M882.121,-215.697C882.893,-207.983 883.82,-198.712 884.68,-190.112"/>
<polygon fill="black" stroke="black" points="888.168,-190.403 885.681,-180.104 881.203,-189.706 888.168,-190.403"/>
</g>
<!-- X6f203 -->
<g id="node12" class="node"><title>X6f203</title>
<g id="a_node12"><a xlink:href="http://sparql.cwrc.ca/ontologies/cwrc#christianScience" xlink:title="Christian Science" target="_parent">
<ellipse fill="none" stroke="black" cx="1393.39" cy="-162" rx="92.8835" ry="18"/>
<text text-anchor="middle" x="1393.39" y="-158.3" font-family="Times,serif" font-size="14.00">Christian Science</text>
</a>
</g>
</g>
<!-- X6f203&#45;&gt;Xadf16 -->
<g id="edge10" class="edge"><title>X6f203&#45;&gt;Xadf16</title>
<path fill="none" stroke="black" d="M1327.95,-149.132C1315.83,-147.206 1303.25,-145.391 1291.39,-144 1036.09,-114.055 731.273,-99.302 592.66,-93.7324"/>
<polygon fill="black" stroke="black" points="592.7,-90.2314 582.569,-93.3315 592.422,-97.2259 592.7,-90.2314"/>
</g>
<!-- X7152e -->
<g id="node14" class="node"><title>X7152e</title>
<g id="a_node14"><a xlink:href="http://sparql.cwrc.ca/ontologies/cwrc#atheism" xlink:title="Atheism" target="_parent">
<ellipse fill="none" stroke="black" cx="1602.39" cy="-234" rx="49.2915" ry="18"/>
<text text-anchor="middle" x="1602.39" y="-230.3" font-family="Times,serif" font-size="14.00">Atheism</text>
</a>
</g>
</g>
<!-- X37200&#45;&gt;X7152e -->
<!-- X930a7 -->
<g id="node21" class="node"><title>X930a7</title>
<g id="a_node21"><a xlink:href="http://sparql.cwrc.ca/ontologies/cwrc#Pantheism" xlink:title="Pantheism" target="_parent">
<ellipse fill="none" stroke="black" cx="1602.39" cy="-162" rx="59.5901" ry="18"/>
<text text-anchor="middle" x="1602.39" y="-158.3" font-family="Times,serif" font-size="14.00">Pantheism</text>
</a>
</g>
</g>
<!-- X7152e&#45;&gt;X930a7 -->
<!-- X156db -->
<g id="node15" class="node"><title>X156db</title>
<g id="a_node15"><a xlink:href="http://sparql.cwrc.ca/ontologies/cwrc#dissentProtestant" xlink:title="Dissent (Protestant)" target="_parent">
<ellipse fill="none" stroke="black" cx="1146.39" cy="-306" rx="104.782" ry="18"/>
<text text-anchor="middle" x="1146.39" y="-302.3" font-family="Times,serif" font-size="14.00">Dissent (Protestant)</text>
</a>
</g>
</g>
<!-- X156db&#45;&gt;Xf6f10 -->
<g id="edge13" class="edge"><title>X156db&#45;&gt;Xf6f10</title>
<path fill="none" stroke="black" d="M1154.59,-287.871C1166.34,-263.35 1188.04,-218.032 1201.82,-189.259"/>
<polygon fill="black" stroke="black" points="1205,-190.72 1206.16,-180.189 1198.68,-187.697 1205,-190.72"/>
</g>
<!-- X2a5d0 -->
<g id="node16" class="node"><title>X2a5d0</title>
<g id="a_node16"><a xlink:href="http://sparql.cwrc.ca/ontologies/cwrc#churchOfIreland" xlink:title="Church of Ireland" target="_parent">
<ellipse fill="none" stroke="black" cx="1279.39" cy="-378" rx="93.6835" ry="18"/>
<text text-anchor="middle" x="1279.39" y="-374.3" font-family="Times,serif" font-size="14.00">Church of Ireland</text>
</a>
</g>
</g>
<!-- X2a5d0&#45;&gt;Xf6f10 -->
<g id="edge14" class="edge"><title>X2a5d0&#45;&gt;Xf6f10</title>
<path fill="none" stroke="black" d="M1276.46,-359.759C1273.22,-341.697 1267.5,-312.588 1260.39,-288 1250.4,-253.442 1235.56,-214.725 1225.46,-189.665"/>
<polygon fill="black" stroke="black" points="1228.59,-188.074 1221.58,-180.131 1222.11,-190.713 1228.59,-188.074"/>
</g>
<!-- Xd53bc -->
<g id="node17" class="node"><title>Xd53bc</title>
<g id="a_node17"><a xlink:href="http://sparql.cwrc.ca/ontologies/cwrc#baptistChristianity" xlink:title="Baptist Christianity" target="_parent">
<ellipse fill="none" stroke="black" cx="367.391" cy="-306" rx="102.882" ry="18"/>
<text text-anchor="middle" x="367.391" y="-302.3" font-family="Times,serif" font-size="14.00">Baptist Christianity</text>
</a>
</g>
</g>
<!-- Xd53bc&#45;&gt;X4e4b1 -->
<g id="edge15" class="edge"><title>Xd53bc&#45;&gt;X4e4b1</title>
<path fill="none" stroke="black" d="M393.564,-288.529C408.281,-278.723 426.608,-265.573 441.391,-252 462.936,-232.218 484.282,-206.542 498.84,-187.855"/>
<polygon fill="black" stroke="black" points="501.707,-189.868 505.028,-179.807 496.158,-185.602 501.707,-189.868"/>
</g>
<!-- Xd2614 -->
<g id="node18" class="node"><title>Xd2614</title>
<g id="a_node18"><a xlink:href="http://sparql.cwrc.ca/ontologies/cwrc#fifthMonarchists" xlink:title="Fifth Monarchists" target="_parent">
<ellipse fill="none" stroke="black" cx="1055.39" cy="-234" rx="94.7833" ry="18"/>
<text text-anchor="middle" x="1055.39" y="-230.3" font-family="Times,serif" font-size="14.00">Fifth Monarchists</text>
</a>
</g>
</g>
<!-- Xd2614&#45;&gt;X991c3 -->
<g id="edge16" class="edge"><title>Xd2614&#45;&gt;X991c3</title>
<path fill="none" stroke="black" d="M1017.69,-217.291C990.688,-206.041 954.408,-190.924 926.987,-179.498"/>
<polygon fill="black" stroke="black" points="928.264,-176.239 917.687,-175.623 925.571,-182.7 928.264,-176.239"/>
</g>
<!-- Xb45be -->
<g id="node19" class="node"><title>Xb45be</title>
<g id="a_node19"><a xlink:href="http://sparql.cwrc.ca/ontologies/cwrc#millenarianism" xlink:title="Millenarianism" target="_parent">
<ellipse fill="none" stroke="black" cx="1047.39" cy="-162" rx="81.4863" ry="18"/>
<text text-anchor="middle" x="1047.39" y="-158.3" font-family="Times,serif" font-size="14.00">Millenarianism</text>
</a>
</g>
</g>
<!-- Xd2614&#45;&gt;Xb45be -->
<g id="edge17" class="edge"><title>Xd2614&#45;&gt;Xb45be</title>
<path fill="none" stroke="black" d="M1053.41,-215.697C1052.53,-207.983 1051.47,-198.712 1050.49,-190.112"/>
<polygon fill="black" stroke="black" points="1053.96,-189.642 1049.35,-180.104 1047,-190.437 1053.96,-189.642"/>
</g>
<!-- X9deb8 -->
<g id="node20" class="node"><title>X9deb8</title>
<g id="a_node20"><a xlink:href="http://sparql.cwrc.ca/ontologies/cwrc#dissentingChristianity" xlink:title="Dissenting Christianity" target="_parent">
<ellipse fill="none" stroke="black" cx="389.391" cy="-378" rx="118.879" ry="18"/>
<text text-anchor="middle" x="389.391" y="-374.3" font-family="Times,serif" font-size="14.00">Dissenting Christianity</text>
</a>
</g>
</g>
<!-- X9deb8&#45;&gt;X4e4b1 -->
<g id="edge18" class="edge"><title>X9deb8&#45;&gt;X4e4b1</title>
<path fill="none" stroke="black" d="M431.347,-361.075C448.608,-352.536 467.341,-340.348 479.391,-324 508.759,-284.157 515.807,-224.989 517.278,-190.575"/>
<polygon fill="black" stroke="black" points="520.783,-190.427 517.58,-180.328 513.787,-190.22 520.783,-190.427"/>
</g>
<!-- X43c0c -->
<g id="node24" class="node"><title>X43c0c</title>
<g id="a_node24"><a xlink:href="http://sparql.cwrc.ca/ontologies/cwrc#occultism" xlink:title="Occultism/Theosophism" target="_parent">
<ellipse fill="none" stroke="black" cx="1602.39" cy="-90" rx="122.379" ry="18"/>
<text text-anchor="middle" x="1602.39" y="-86.3" font-family="Times,serif" font-size="14.00">Occultism/Theosophism</text>
</a>
</g>
</g>
<!-- X930a7&#45;&gt;X43c0c -->
<!-- X043aa -->
<g id="node22" class="node"><title>X043aa</title>
<g id="a_node22"><a xlink:href="http://sparql.cwrc.ca/ontologies/cwrc#unitarianism" xlink:title="Unitarianism" target="_parent">
<ellipse fill="none" stroke="black" cx="475.391" cy="-450" rx="71.4873" ry="18"/>
<text text-anchor="middle" x="475.391" y="-446.3" font-family="Times,serif" font-size="14.00">Unitarianism</text>
</a>
</g>
</g>
<!-- X043aa&#45;&gt;X4e4b1 -->
<g id="edge20" class="edge"><title>X043aa&#45;&gt;X4e4b1</title>
<path fill="none" stroke="black" d="M493.367,-432.156C502.355,-422.525 512.366,-409.663 517.391,-396 543.318,-325.502 531.633,-234.687 523.258,-190.12"/>
<polygon fill="black" stroke="black" points="526.646,-189.21 521.277,-180.076 519.779,-190.564 526.646,-189.21"/>
</g>
<!-- Xe1e3e -->
<g id="node23" class="node"><title>Xe1e3e</title>
<g id="a_node23"><a xlink:href="http://sparql.cwrc.ca/ontologies/cwrc#methodism" xlink:title="Methodism" target="_parent">
<ellipse fill="none" stroke="black" cx="574.391" cy="-522" rx="63.8893" ry="18"/>
<text text-anchor="middle" x="574.391" y="-518.3" font-family="Times,serif" font-size="14.00">Methodism</text>
</a>
</g>
</g>
<!-- Xe1e3e&#45;&gt;X4e4b1 -->
<g id="edge21" class="edge"><title>Xe1e3e&#45;&gt;X4e4b1</title>
<path fill="none" stroke="black" d="M574.391,-503.951C574.391,-477.292 574.391,-424.115 574.391,-379 574.391,-379 574.391,-379 574.391,-305 574.391,-261.801 551.391,-216.186 534.611,-188.655"/>
<polygon fill="black" stroke="black" points="537.484,-186.648 529.201,-180.042 531.556,-190.372 537.484,-186.648"/>
</g>
<!-- Xc7ed9 -->
<g id="node31" class="node"><title>Xc7ed9</title>
<g id="a_node31"><a xlink:href="http://sparql.cwrc.ca/ontologies/cwrc#hinduism" xlink:title="Hinduism" target="_parent">
<ellipse fill="none" stroke="black" cx="1602.39" cy="-18" rx="55.7903" ry="18"/>
<text text-anchor="middle" x="1602.39" y="-14.3" font-family="Times,serif" font-size="14.00">Hinduism</text>
</a>
</g>
</g>
<!-- X43c0c&#45;&gt;Xc7ed9 -->
<!-- X1cc79 -->
<g id="node25" class="node"><title>X1cc79</title>
<g id="a_node25"><a xlink:href="http://sparql.cwrc.ca/ontologies/cwrc#lollardy" xlink:title="Lollardy" target="_parent">
<ellipse fill="none" stroke="black" cx="1727.39" cy="-450" rx="49.2915" ry="18"/>
<text text-anchor="middle" x="1727.39" y="-446.3" font-family="Times,serif" font-size="14.00">Lollardy</text>
</a>
</g>
</g>
<!-- X752f2 -->
<g id="node26" class="node"><title>X752f2</title>
<ellipse fill="none" stroke="black" cx="1768.39" cy="-378" rx="44.393" ry="18"/>
<text text-anchor="middle" x="1768.39" y="-374.3" font-family="Times,serif" font-size="14.00">X752f2</text>
</g>
<!-- X1cc79&#45;&gt;X752f2 -->
<g id="edge23" class="edge"><title>X1cc79&#45;&gt;X752f2</title>
<path fill="none" stroke="black" d="M1737.32,-432.055C1742.15,-423.801 1748.07,-413.701 1753.43,-404.538"/>
<polygon fill="black" stroke="black" points="1756.52,-406.187 1758.56,-395.789 1750.48,-402.649 1756.52,-406.187"/>
</g>
<!-- X7477d -->
<g id="node27" class="node"><title>X7477d</title>
<g id="a_node27"><a xlink:href="http://sparql.cwrc.ca/ontologies/cwrc#congregationalism" xlink:title="Congregationalism" target="_parent">
<ellipse fill="none" stroke="black" cx="701.391" cy="-234" rx="98.5829" ry="18"/>
<text text-anchor="middle" x="701.391" y="-230.3" font-family="Times,serif" font-size="14.00">Congregationalism</text>
</a>
</g>
</g>
<!-- X7477d&#45;&gt;X4e4b1 -->
<g id="edge24" class="edge"><title>X7477d&#45;&gt;X4e4b1</title>
<path fill="none" stroke="black" d="M660.555,-217.465C632.494,-206.789 595.122,-192.572 565.598,-181.34"/>
<polygon fill="black" stroke="black" points="566.502,-177.939 555.911,-177.654 564.013,-184.481 566.502,-177.939"/>
</g>
<!-- Xc1422 -->
<g id="node28" class="node"><title>Xc1422</title>
<g id="a_node28"><a xlink:href="http://sparql.cwrc.ca/ontologies/cwrc#islam" xlink:title="Islamism" target="_parent">
<ellipse fill="none" stroke="black" cx="311.391" cy="-90" rx="53.0913" ry="18"/>
<text text-anchor="middle" x="311.391" y="-86.3" font-family="Times,serif" font-size="14.00">Islamism</text>
</a>
</g>
</g>
<!-- Xc1422&#45;&gt;Xb2336 -->
<g id="edge25" class="edge"><title>Xc1422&#45;&gt;Xb2336</title>
<path fill="none" stroke="black" d="M311.391,-71.6966C311.391,-63.9827 311.391,-54.7125 311.391,-46.1124"/>
<polygon fill="black" stroke="black" points="314.891,-46.1043 311.391,-36.1043 307.891,-46.1044 314.891,-46.1043"/>
</g>
<!-- X8fa8b -->
<g id="node29" class="node"><title>X8fa8b</title>
<g id="a_node29"><a xlink:href="http://sparql.cwrc.ca/ontologies/cwrc#plymouthBrethren" xlink:title="Plymouth Brethren" target="_parent">
<ellipse fill="none" stroke="black" cx="146.391" cy="-306" rx="100.182" ry="18"/>
<text text-anchor="middle" x="146.391" y="-302.3" font-family="Times,serif" font-size="14.00">Plymouth Brethren</text>
</a>
</g>
</g>
<!-- X8fa8b&#45;&gt;X4e4b1 -->
<g id="edge26" class="edge"><title>X8fa8b&#45;&gt;X4e4b1</title>
<path fill="none" stroke="black" d="M167.798,-288.204C180.636,-277.971 197.175,-264.499 211.391,-252 228.863,-236.639 228.721,-226.677 249.391,-216 306.416,-186.543 378.042,-173.419 432.897,-167.591"/>
<polygon fill="black" stroke="black" points="433.336,-171.065 442.937,-166.586 432.638,-164.1 433.336,-171.065"/>
</g>
<!-- Xd32ac -->
<g id="node30" class="node"><title>Xd32ac</title>
<g id="a_node30"><a xlink:href="http://sparql.cwrc.ca/ontologies/cwrc#judaism" xlink:title="Judaism" target="_parent">
<ellipse fill="none" stroke="black" cx="94.391" cy="-162" rx="48.1917" ry="18"/>
<text text-anchor="middle" x="94.391" y="-158.3" font-family="Times,serif" font-size="14.00">Judaism</text>
</a>
</g>
</g>
<!-- Xd32ac&#45;&gt;Xb2336 -->
<g id="edge27" class="edge"><title>Xd32ac&#45;&gt;Xb2336</title>
<path fill="none" stroke="black" d="M117.204,-146.072C155.459,-121.038 232.735,-70.4709 277.407,-41.2381"/>
<polygon fill="black" stroke="black" points="279.435,-44.0942 285.886,-35.6898 275.602,-38.2368 279.435,-44.0942"/>
</g>
<!-- Xe7b0a -->
<g id="node32" class="node"><title>Xe7b0a</title>
<g id="a_node32"><a xlink:href="http://sparql.cwrc.ca/ontologies/cwrc#neo-thomism" xlink:title="Neo&#45;thomism" target="_parent">
<ellipse fill="none" stroke="black" cx="1804.39" cy="-522" rx="73.387" ry="18"/>
<text text-anchor="middle" x="1804.39" y="-518.3" font-family="Times,serif" font-size="14.00">Neo&#45;thomism</text>
</a>
</g>
</g>
<!-- Xe7b0a&#45;&gt;X752f2 -->
<g id="edge29" class="edge"><title>Xe7b0a&#45;&gt;X752f2</title>
<path fill="none" stroke="black" d="M1801.25,-503.817C1797.84,-485.803 1791.98,-456.733 1785.39,-432 1783.09,-423.37 1780.24,-414.064 1777.53,-405.694"/>
<polygon fill="black" stroke="black" points="1780.8,-404.453 1774.34,-396.057 1774.16,-406.65 1780.8,-404.453"/>
</g>
<!-- X32f53 -->
<g id="node33" class="node"><title>X32f53</title>
<g id="a_node33"><a xlink:href="http://sparql.cwrc.ca/ontologies/cwrc#catholicism" xlink:title="Roman Catholicism" target="_parent">
<ellipse fill="none" stroke="black" cx="101.391" cy="-234" rx="101.282" ry="18"/>
<text text-anchor="middle" x="101.391" y="-230.3" font-family="Times,serif" font-size="14.00">Roman Catholicism</text>
</a>
</g>
</g>
<!-- X32f53&#45;&gt;Xadf16 -->
<g id="edge30" class="edge"><title>X32f53&#45;&gt;Xadf16</title>
<path fill="none" stroke="black" d="M145.91,-217.804C224.362,-191.024 386.632,-135.634 468.249,-107.774"/>
<polygon fill="black" stroke="black" points="469.458,-111.06 477.792,-104.517 467.197,-104.435 469.458,-111.06"/>
</g>
</g>
</svg>
