<?xml version="1.0" encoding="UTF-8" standalone="no"?>
<!DOCTYPE svg PUBLIC "-//W3C//DTD SVG 1.1//EN"
 "http://www.w3.org/Graphics/SVG/1.1/DTD/svg11.dtd">
<!-- Generated by graphviz version 2.38.0 (20140413.2041)
 -->
<!-- Title: ReligionGraph Pages: 1 -->
<svg width="1755pt" height="548pt"
 viewBox="0.00 0.00 1754.58 548.00" xmlns="http://www.w3.org/2000/svg" xmlns:xlink="http://www.w3.org/1999/xlink">
<g id="graph0" class="graph" transform="scale(1 1) rotate(0) translate(4 544)">
<title>ReligionGraph</title>
<polygon fill="white" stroke="none" points="-4,4 -4,-544 1750.58,-544 1750.58,4 -4,4"/>
<!-- X3b80a -->
<g id="node1" class="node"><title>X3b80a</title>
<g id="a_node1"><a xlink:href="http://sparql.cwrc.ca/ontologies/cwrc#buddhism" xlink:title="Buddhism" target="_parent">
<ellipse fill="none" stroke="black" cx="122.189" cy="-522" rx="57.6901" ry="18"/>
<text text-anchor="middle" x="122.189" y="-518.3" font-family="Times,serif" font-size="14.00">Buddhism</text>
</a>
</g>
</g>
<!-- X36b94 -->
<g id="node2" class="node"><title>X36b94</title>
<g id="a_node2"><a xlink:href="http://sparql.cwrc.ca/ontologies/cwrc#agnosticism" xlink:title="Agnosticism" target="_parent">
<ellipse fill="none" stroke="black" cx="122.189" cy="-450" rx="68.4888" ry="18"/>
<text text-anchor="middle" x="122.189" y="-446.3" font-family="Times,serif" font-size="14.00">Agnosticism</text>
</a>
</g>
</g>
<!-- X3b80a&#45;&gt;X36b94 -->
<!-- X7152e -->
<g id="node3" class="node"><title>X7152e</title>
<g id="a_node3"><a xlink:href="http://sparql.cwrc.ca/ontologies/cwrc#atheism" xlink:title="Atheism" target="_parent">
<ellipse fill="none" stroke="black" cx="122.189" cy="-378" rx="49.2915" ry="18"/>
<text text-anchor="middle" x="122.189" y="-374.3" font-family="Times,serif" font-size="14.00">Atheism</text>
</a>
</g>
</g>
<!-- X36b94&#45;&gt;X7152e -->
<!-- Xd35c6 -->
<g id="node8" class="node"><title>Xd35c6</title>
<g id="a_node8"><a xlink:href="http://sparql.cwrc.ca/ontologies/cwrc#spiritualism" xlink:title="Spiritualism" target="_parent">
<ellipse fill="none" stroke="black" cx="122.189" cy="-306" rx="67.6881" ry="18"/>
<text text-anchor="middle" x="122.189" y="-302.3" font-family="Times,serif" font-size="14.00">Spiritualism</text>
</a>
</g>
</g>
<!-- X7152e&#45;&gt;Xd35c6 -->
<!-- Xb45be -->
<g id="node4" class="node"><title>Xb45be</title>
<g id="a_node4"><a xlink:href="http://sparql.cwrc.ca/ontologies/cwrc#millenarianism" xlink:title="Millenarianism" target="_parent">
<ellipse fill="none" stroke="black" cx="291.189" cy="-162" rx="81.4863" ry="18"/>
<text text-anchor="middle" x="291.189" y="-158.3" font-family="Times,serif" font-size="14.00">Millenarianism</text>
</a>
</g>
</g>
<!-- X4e4b1 -->
<g id="node5" class="node"><title>X4e4b1</title>
<g id="a_node5"><a xlink:href="http://sparql.cwrc.ca/ontologies/cwrc#protestantism" xlink:title="Protestantism" target="_parent">
<ellipse fill="none" stroke="black" cx="824.189" cy="-162" rx="76.8869" ry="18"/>
<text text-anchor="middle" x="824.189" y="-158.3" font-family="Times,serif" font-size="14.00">Protestantism</text>
</a>
</g>
</g>
<!-- Xadf16 -->
<g id="node6" class="node"><title>Xadf16</title>
<g id="a_node6"><a xlink:href="http://sparql.cwrc.ca/ontologies/cwrc#christianity" xlink:title="Christianity" target="_parent">
<ellipse fill="none" stroke="black" cx="1444.19" cy="-90" rx="66.0889" ry="18"/>
<text text-anchor="middle" x="1444.19" y="-86.3" font-family="Times,serif" font-size="14.00">Christianity</text>
</a>
</g>
</g>
<!-- X4e4b1&#45;&gt;Xadf16 -->
<g id="edge3" class="edge"><title>X4e4b1&#45;&gt;Xadf16</title>
<path fill="none" stroke="black" d="M891.72,-153.376C1010.04,-140.016 1253.67,-112.51 1373.91,-98.9352"/>
<polygon fill="black" stroke="black" points="1374.55,-102.384 1384.1,-97.7845 1373.77,-95.4285 1374.55,-102.384"/>
</g>
<!-- Xb2336 -->
<g id="node7" class="node"><title>Xb2336</title>
<g id="a_node7"><a xlink:href="http://sparql.cwrc.ca/ontologies/cwrc#abrahamicReligions" xlink:title="Abrahamic religions" target="_parent">
<ellipse fill="none" stroke="black" cx="1594.19" cy="-18" rx="104.782" ry="18"/>
<text text-anchor="middle" x="1594.19" y="-14.3" font-family="Times,serif" font-size="14.00">Abrahamic religions</text>
</a>
</g>
</g>
<!-- Xadf16&#45;&gt;Xb2336 -->
<g id="edge4" class="edge"><title>Xadf16&#45;&gt;Xb2336</title>
<path fill="none" stroke="black" d="M1476,-74.1548C1497.71,-64.022 1526.75,-50.4702 1550.61,-39.3356"/>
<polygon fill="black" stroke="black" points="1552.23,-42.4435 1559.81,-35.043 1549.27,-36.1002 1552.23,-42.4435"/>
</g>
<!-- X37200 -->
<g id="node12" class="node"><title>X37200</title>
<g id="a_node12"><a xlink:href="http://sparql.cwrc.ca/ontologies/cwrc#paganism" xlink:title="Paganism" target="_parent">
<ellipse fill="none" stroke="black" cx="122.189" cy="-234" rx="55.7903" ry="18"/>
<text text-anchor="middle" x="122.189" y="-230.3" font-family="Times,serif" font-size="14.00">Paganism</text>
</a>
</g>
</g>
<!-- Xd35c6&#45;&gt;X37200 -->
<!-- Xe7b0a -->
<g id="node9" class="node"><title>Xe7b0a</title>
<g id="a_node9"><a xlink:href="http://sparql.cwrc.ca/ontologies/cwrc#neo-thomism" xlink:title="Neo&#45;thomism" target="_parent">
<ellipse fill="none" stroke="black" cx="1596.19" cy="-450" rx="73.387" ry="18"/>
<text text-anchor="middle" x="1596.19" y="-446.3" font-family="Times,serif" font-size="14.00">Neo&#45;thomism</text>
</a>
</g>
</g>
<!-- X752f2 -->
<g id="node10" class="node"><title>X752f2</title>
<ellipse fill="none" stroke="black" cx="1647.19" cy="-378" rx="44.393" ry="18"/>
<text text-anchor="middle" x="1647.19" y="-374.3" font-family="Times,serif" font-size="14.00">X752f2</text>
</g>
<!-- Xe7b0a&#45;&gt;X752f2 -->
<g id="edge6" class="edge"><title>Xe7b0a&#45;&gt;X752f2</title>
<path fill="none" stroke="black" d="M1608.53,-432.055C1614.67,-423.629 1622.21,-413.28 1629,-403.966"/>
<polygon fill="black" stroke="black" points="1631.9,-405.932 1634.96,-395.789 1626.24,-401.81 1631.9,-405.932"/>
</g>
<!-- X1cc79 -->
<g id="node11" class="node"><title>X1cc79</title>
<g id="a_node11"><a xlink:href="http://sparql.cwrc.ca/ontologies/cwrc#lollardy" xlink:title="Lollardy" target="_parent">
<ellipse fill="none" stroke="black" cx="1697.19" cy="-522" rx="49.2915" ry="18"/>
<text text-anchor="middle" x="1697.19" y="-518.3" font-family="Times,serif" font-size="14.00">Lollardy</text>
</a>
</g>
</g>
<!-- X1cc79&#45;&gt;X752f2 -->
<g id="edge7" class="edge"><title>X1cc79&#45;&gt;X752f2</title>
<path fill="none" stroke="black" d="M1695.17,-503.804C1692.65,-485.528 1687.5,-456.012 1678.19,-432 1674.51,-422.511 1669.27,-412.729 1664.13,-404.191"/>
<polygon fill="black" stroke="black" points="1666.96,-402.109 1658.69,-395.489 1661.02,-405.822 1666.96,-402.109"/>
</g>
<!-- Xc7ed9 -->
<g id="node25" class="node"><title>Xc7ed9</title>
<g id="a_node25"><a xlink:href="http://sparql.cwrc.ca/ontologies/cwrc#hinduism" xlink:title="Hinduism" target="_parent">
<ellipse fill="none" stroke="black" cx="122.189" cy="-162" rx="55.7903" ry="18"/>
<text text-anchor="middle" x="122.189" y="-158.3" font-family="Times,serif" font-size="14.00">Hinduism</text>
</a>
</g>
</g>
<!-- X37200&#45;&gt;Xc7ed9 -->
<!-- X32f53 -->
<g id="node13" class="node"><title>X32f53</title>
<g id="a_node13"><a xlink:href="http://sparql.cwrc.ca/ontologies/cwrc#catholicism" xlink:title="Roman Catholicism" target="_parent">
<ellipse fill="none" stroke="black" cx="1256.19" cy="-162" rx="101.282" ry="18"/>
<text text-anchor="middle" x="1256.19" y="-158.3" font-family="Times,serif" font-size="14.00">Roman Catholicism</text>
</a>
</g>
</g>
<!-- X32f53&#45;&gt;Xadf16 -->
<g id="edge9" class="edge"><title>X32f53&#45;&gt;Xadf16</title>
<path fill="none" stroke="black" d="M1297.91,-145.465C1327.29,-134.525 1366.67,-119.865 1397.16,-108.51"/>
<polygon fill="black" stroke="black" points="1398.58,-111.718 1406.73,-104.949 1396.13,-105.158 1398.58,-111.718"/>
</g>
<!-- X0e2fa -->
<g id="node14" class="node"><title>X0e2fa</title>
<g id="a_node14"><a xlink:href="http://sparql.cwrc.ca/ontologies/cwrc#presbyterianism" xlink:title="Presbyterianism" target="_parent">
<ellipse fill="none" stroke="black" cx="633.189" cy="-234" rx="87.1846" ry="18"/>
<text text-anchor="middle" x="633.189" y="-230.3" font-family="Times,serif" font-size="14.00">Presbyterianism</text>
</a>
</g>
</g>
<!-- X0e2fa&#45;&gt;X4e4b1 -->
<g id="edge10" class="edge"><title>X0e2fa&#45;&gt;X4e4b1</title>
<path fill="none" stroke="black" d="M674.163,-217.983C703.766,-207.134 743.88,-192.433 775.181,-180.961"/>
<polygon fill="black" stroke="black" points="776.405,-184.24 784.59,-177.513 773.997,-177.668 776.405,-184.24"/>
</g>
<!-- Xd2614 -->
<g id="node15" class="node"><title>Xd2614</title>
<g id="a_node15"><a xlink:href="http://sparql.cwrc.ca/ontologies/cwrc#fifthMonarchists" xlink:title="Fifth Monarchists" target="_parent">
<ellipse fill="none" stroke="black" cx="291.189" cy="-234" rx="94.7833" ry="18"/>
<text text-anchor="middle" x="291.189" y="-230.3" font-family="Times,serif" font-size="14.00">Fifth Monarchists</text>
</a>
</g>
</g>
<!-- Xd2614&#45;&gt;Xb45be -->
<g id="edge11" class="edge"><title>Xd2614&#45;&gt;Xb45be</title>
<path fill="none" stroke="black" d="M291.189,-215.697C291.189,-207.983 291.189,-198.712 291.189,-190.112"/>
<polygon fill="black" stroke="black" points="294.689,-190.104 291.189,-180.104 287.689,-190.104 294.689,-190.104"/>
</g>
<!-- X991c3 -->
<g id="node16" class="node"><title>X991c3</title>
<ellipse fill="none" stroke="black" cx="451.189" cy="-162" rx="46.2923" ry="18"/>
<text text-anchor="middle" x="451.189" y="-158.3" font-family="Times,serif" font-size="14.00">X991c3</text>
</g>
<!-- Xd2614&#45;&gt;X991c3 -->
<g id="edge12" class="edge"><title>Xd2614&#45;&gt;X991c3</title>
<path fill="none" stroke="black" d="M327.096,-217.291C352.452,-206.197 386.402,-191.344 412.382,-179.978"/>
<polygon fill="black" stroke="black" points="413.803,-183.177 421.562,-175.962 410.998,-176.764 413.803,-183.177"/>
</g>
<!-- X156db -->
<g id="node17" class="node"><title>X156db</title>
<g id="a_node17"><a xlink:href="http://sparql.cwrc.ca/ontologies/cwrc#dissentProtestant" xlink:title="Dissent (Protestant)" target="_parent">
<ellipse fill="none" stroke="black" cx="1286.19" cy="-234" rx="104.782" ry="18"/>
<text text-anchor="middle" x="1286.19" y="-230.3" font-family="Times,serif" font-size="14.00">Dissent (Protestant)</text>
</a>
</g>
</g>
<!-- Xf6f10 -->
<g id="node18" class="node"><title>Xf6f10</title>
<g id="a_node18"><a xlink:href="http://sparql.cwrc.ca/ontologies/cwrc#anglicanism" xlink:title="Anglicanism" target="_parent">
<ellipse fill="none" stroke="black" cx="1444.19" cy="-162" rx="68.4888" ry="18"/>
<text text-anchor="middle" x="1444.19" y="-158.3" font-family="Times,serif" font-size="14.00">Anglicanism</text>
</a>
</g>
</g>
<!-- X156db&#45;&gt;Xf6f10 -->
<g id="edge13" class="edge"><title>X156db&#45;&gt;Xf6f10</title>
<path fill="none" stroke="black" d="M1322.44,-216.941C1346.03,-206.489 1376.89,-192.814 1401.65,-181.848"/>
<polygon fill="black" stroke="black" points="1403.08,-185.041 1410.81,-177.79 1400.24,-178.641 1403.08,-185.041"/>
</g>
<!-- Xf6f10&#45;&gt;Xadf16 -->
<g id="edge14" class="edge"><title>Xf6f10&#45;&gt;Xadf16</title>
<path fill="none" stroke="black" d="M1444.19,-143.697C1444.19,-135.983 1444.19,-126.712 1444.19,-118.112"/>
<polygon fill="black" stroke="black" points="1447.69,-118.104 1444.19,-108.104 1440.69,-118.104 1447.69,-118.104"/>
</g>
<!-- X043aa -->
<g id="node19" class="node"><title>X043aa</title>
<g id="a_node19"><a xlink:href="http://sparql.cwrc.ca/ontologies/cwrc#unitarianism" xlink:title="Unitarianism" target="_parent">
<ellipse fill="none" stroke="black" cx="687.189" cy="-306" rx="71.4873" ry="18"/>
<text text-anchor="middle" x="687.189" y="-302.3" font-family="Times,serif" font-size="14.00">Unitarianism</text>
</a>
</g>
</g>
<!-- X043aa&#45;&gt;X4e4b1 -->
<g id="edge15" class="edge"><title>X043aa&#45;&gt;X4e4b1</title>
<path fill="none" stroke="black" d="M703.102,-288.204C720.13,-270.263 747.966,-241.023 772.189,-216 781.435,-206.449 791.67,-195.992 800.597,-186.909"/>
<polygon fill="black" stroke="black" points="803.218,-189.236 807.737,-179.653 798.229,-184.326 803.218,-189.236"/>
</g>
<!-- X6f203 -->
<g id="node20" class="node"><title>X6f203</title>
<g id="a_node20"><a xlink:href="http://sparql.cwrc.ca/ontologies/cwrc#christianScience" xlink:title="Christian Science" target="_parent">
<ellipse fill="none" stroke="black" cx="1612.19" cy="-234" rx="92.8835" ry="18"/>
<text text-anchor="middle" x="1612.19" y="-230.3" font-family="Times,serif" font-size="14.00">Christian Science</text>
</a>
</g>
</g>
<!-- X6f203&#45;&gt;Xadf16 -->
<g id="edge16" class="edge"><title>X6f203&#45;&gt;Xadf16</title>
<path fill="none" stroke="black" d="M1596.54,-216.04C1579.01,-197.444 1549.34,-167.169 1521.19,-144 1507.62,-132.834 1491.75,-121.632 1477.96,-112.422"/>
<polygon fill="black" stroke="black" points="1479.52,-109.256 1469.24,-106.677 1475.67,-115.102 1479.52,-109.256"/>
</g>
<!-- X7477d -->
<g id="node21" class="node"><title>X7477d</title>
<g id="a_node21"><a xlink:href="http://sparql.cwrc.ca/ontologies/cwrc#congregationalism" xlink:title="Congregationalism" target="_parent">
<ellipse fill="none" stroke="black" cx="697.189" cy="-378" rx="98.5829" ry="18"/>
<text text-anchor="middle" x="697.189" y="-374.3" font-family="Times,serif" font-size="14.00">Congregationalism</text>
</a>
</g>
</g>
<!-- X7477d&#45;&gt;X4e4b1 -->
<g id="edge17" class="edge"><title>X7477d&#45;&gt;X4e4b1</title>
<path fill="none" stroke="black" d="M725.973,-360.748C740.067,-351.542 756.3,-338.887 767.189,-324 783.138,-302.195 805.261,-229.862 816.688,-189.979"/>
<polygon fill="black" stroke="black" points="820.122,-190.699 819.484,-180.123 813.388,-188.789 820.122,-190.699"/>
</g>
<!-- X9deb8 -->
<g id="node22" class="node"><title>X9deb8</title>
<g id="a_node22"><a xlink:href="http://sparql.cwrc.ca/ontologies/cwrc#dissentingChristianity" xlink:title="Dissenting Christianity" target="_parent">
<ellipse fill="none" stroke="black" cx="715.189" cy="-450" rx="118.879" ry="18"/>
<text text-anchor="middle" x="715.189" y="-446.3" font-family="Times,serif" font-size="14.00">Dissenting Christianity</text>
</a>
</g>
</g>
<!-- X9deb8&#45;&gt;X4e4b1 -->
<g id="edge18" class="edge"><title>X9deb8&#45;&gt;X4e4b1</title>
<path fill="none" stroke="black" d="M759.75,-433.208C776.816,-424.84 794.691,-412.746 805.189,-396 845.604,-331.535 837.016,-236.534 829.522,-190.292"/>
<polygon fill="black" stroke="black" points="832.921,-189.408 827.766,-180.152 826.023,-190.602 832.921,-189.408"/>
</g>
<!-- Xe1e3e -->
<g id="node23" class="node"><title>Xe1e3e</title>
<g id="a_node23"><a xlink:href="http://sparql.cwrc.ca/ontologies/cwrc#methodism" xlink:title="Methodism" target="_parent">
<ellipse fill="none" stroke="black" cx="862.189" cy="-522" rx="63.8893" ry="18"/>
<text text-anchor="middle" x="862.189" y="-518.3" font-family="Times,serif" font-size="14.00">Methodism</text>
</a>
</g>
</g>
<!-- Xe1e3e&#45;&gt;X4e4b1 -->
<g id="edge19" class="edge"><title>Xe1e3e&#45;&gt;X4e4b1</title>
<path fill="none" stroke="black" d="M862.189,-503.951C862.189,-477.292 862.189,-424.115 862.189,-379 862.189,-379 862.189,-379 862.189,-305 862.189,-264.958 859.663,-254.363 848.189,-216 845.526,-207.097 841.678,-197.748 837.84,-189.423"/>
<polygon fill="black" stroke="black" points="840.898,-187.706 833.411,-180.21 834.589,-190.739 840.898,-187.706"/>
</g>
<!-- X253de -->
<g id="node24" class="node"><title>X253de</title>
<g id="a_node24"><a xlink:href="http://sparql.cwrc.ca/ontologies/cwrc#quakerism" xlink:title="Quakerism" target="_parent">
<ellipse fill="none" stroke="black" cx="466.189" cy="-234" rx="61.99" ry="18"/>
<text text-anchor="middle" x="466.189" y="-230.3" font-family="Times,serif" font-size="14.00">Quakerism</text>
</a>
</g>
</g>
<!-- X253de&#45;&gt;X4e4b1 -->
<g id="edge20" class="edge"><title>X253de&#45;&gt;X4e4b1</title>
<path fill="none" stroke="black" d="M511.56,-221.762C520.059,-219.764 528.882,-217.76 537.189,-216 610.72,-200.419 695.403,-185.099 753.623,-174.969"/>
<polygon fill="black" stroke="black" points="754.56,-178.359 763.815,-173.202 753.364,-171.462 754.56,-178.359"/>
</g>
<!-- X253de&#45;&gt;X991c3 -->
<g id="edge21" class="edge"><title>X253de&#45;&gt;X991c3</title>
<path fill="none" stroke="black" d="M462.481,-215.697C460.828,-207.983 458.842,-198.712 456.999,-190.112"/>
<polygon fill="black" stroke="black" points="460.372,-189.149 454.854,-180.104 453.527,-190.616 460.372,-189.149"/>
</g>
<!-- X43c0c -->
<g id="node30" class="node"><title>X43c0c</title>
<g id="a_node30"><a xlink:href="http://sparql.cwrc.ca/ontologies/cwrc#occultism" xlink:title="Occultism/Theosophism" target="_parent">
<ellipse fill="none" stroke="black" cx="122.189" cy="-90" rx="122.379" ry="18"/>
<text text-anchor="middle" x="122.189" y="-86.3" font-family="Times,serif" font-size="14.00">Occultism/Theosophism</text>
</a>
</g>
</g>
<!-- Xc7ed9&#45;&gt;X43c0c -->
<!-- Xc1422 -->
<g id="node26" class="node"><title>Xc1422</title>
<g id="a_node26"><a xlink:href="http://sparql.cwrc.ca/ontologies/cwrc#islam" xlink:title="Islamism" target="_parent">
<ellipse fill="none" stroke="black" cx="1594.19" cy="-90" rx="53.0913" ry="18"/>
<text text-anchor="middle" x="1594.19" y="-86.3" font-family="Times,serif" font-size="14.00">Islamism</text>
</a>
</g>
</g>
<!-- Xc1422&#45;&gt;Xb2336 -->
<g id="edge23" class="edge"><title>Xc1422&#45;&gt;Xb2336</title>
<path fill="none" stroke="black" d="M1594.19,-71.6966C1594.19,-63.9827 1594.19,-54.7125 1594.19,-46.1124"/>
<polygon fill="black" stroke="black" points="1597.69,-46.1043 1594.19,-36.1043 1590.69,-46.1044 1597.69,-46.1043"/>
</g>
<!-- Xb800b -->
<g id="node27" class="node"><title>Xb800b</title>
<g id="a_node27"><a xlink:href="http://sparql.cwrc.ca/ontologies/cwrc#tractarianMovement" xlink:title="Tractarian Movement" target="_parent">
<ellipse fill="none" stroke="black" cx="1351.19" cy="-306" rx="112.38" ry="18"/>
<text text-anchor="middle" x="1351.19" y="-302.3" font-family="Times,serif" font-size="14.00">Tractarian Movement</text>
</a>
</g>
</g>
<!-- Xb800b&#45;&gt;Xf6f10 -->
<g id="edge24" class="edge"><title>Xb800b&#45;&gt;Xf6f10</title>
<path fill="none" stroke="black" d="M1369.34,-287.942C1379.23,-278.05 1391.24,-265.008 1400.19,-252 1413.71,-232.351 1425.47,-207.94 1433.42,-189.657"/>
<polygon fill="black" stroke="black" points="1436.75,-190.771 1437.43,-180.199 1430.31,-188.037 1436.75,-190.771"/>
</g>
<!-- X8fa8b -->
<g id="node28" class="node"><title>X8fa8b</title>
<g id="a_node28"><a xlink:href="http://sparql.cwrc.ca/ontologies/cwrc#plymouthBrethren" xlink:title="Plymouth Brethren" target="_parent">
<ellipse fill="none" stroke="black" cx="990.189" cy="-234" rx="100.182" ry="18"/>
<text text-anchor="middle" x="990.189" y="-230.3" font-family="Times,serif" font-size="14.00">Plymouth Brethren</text>
</a>
</g>
</g>
<!-- X8fa8b&#45;&gt;X4e4b1 -->
<g id="edge25" class="edge"><title>X8fa8b&#45;&gt;X4e4b1</title>
<path fill="none" stroke="black" d="M952.936,-217.291C928.161,-206.844 895.479,-193.062 869.243,-181.999"/>
<polygon fill="black" stroke="black" points="870.469,-178.717 859.895,-178.057 867.749,-185.167 870.469,-178.717"/>
</g>
<!-- Xd32ac -->
<g id="node29" class="node"><title>Xd32ac</title>
<g id="a_node29"><a xlink:href="http://sparql.cwrc.ca/ontologies/cwrc#judaism" xlink:title="Judaism" target="_parent">
<ellipse fill="none" stroke="black" cx="1681.19" cy="-162" rx="48.1917" ry="18"/>
<text text-anchor="middle" x="1681.19" y="-158.3" font-family="Times,serif" font-size="14.00">Judaism</text>
</a>
</g>
</g>
<!-- Xd32ac&#45;&gt;Xb2336 -->
<g id="edge26" class="edge"><title>Xd32ac&#45;&gt;Xb2336</title>
<path fill="none" stroke="black" d="M1679.36,-143.716C1676.71,-124.836 1670.45,-94.3138 1656.19,-72 1648.91,-60.6076 1638.43,-50.3409 1628.16,-41.9448"/>
<polygon fill="black" stroke="black" points="1630.08,-38.9991 1620.03,-35.6265 1625.78,-44.5264 1630.08,-38.9991"/>
</g>
<!-- Xd53bc -->
<g id="node31" class="node"><title>Xd53bc</title>
<g id="a_node31"><a xlink:href="http://sparql.cwrc.ca/ontologies/cwrc#baptistChristianity" xlink:title="Baptist Christianity" target="_parent">
<ellipse fill="none" stroke="black" cx="1118.19" cy="-306" rx="102.882" ry="18"/>
<text text-anchor="middle" x="1118.19" y="-302.3" font-family="Times,serif" font-size="14.00">Baptist Christianity</text>
</a>
</g>
</g>
<!-- Xd53bc&#45;&gt;X4e4b1 -->
<g id="edge28" class="edge"><title>Xd53bc&#45;&gt;X4e4b1</title>
<path fill="none" stroke="black" d="M1119.69,-287.982C1120.45,-267.88 1118.37,-234.802 1099.19,-216 1072.34,-189.682 977.579,-175.82 906.751,-168.969"/>
<polygon fill="black" stroke="black" points="906.768,-165.455 896.485,-168.008 906.116,-172.425 906.768,-165.455"/>
</g>
<!-- X2a5d0 -->
<g id="node32" class="node"><title>X2a5d0</title>
<g id="a_node32"><a xlink:href="http://sparql.cwrc.ca/ontologies/cwrc#churchOfIreland" xlink:title="Church of Ireland" target="_parent">
<ellipse fill="none" stroke="black" cx="1491.19" cy="-378" rx="93.6835" ry="18"/>
<text text-anchor="middle" x="1491.19" y="-374.3" font-family="Times,serif" font-size="14.00">Church of Ireland</text>
</a>
</g>
</g>
<!-- X2a5d0&#45;&gt;Xf6f10 -->
<g id="edge29" class="edge"><title>X2a5d0&#45;&gt;Xf6f10</title>
<path fill="none" stroke="black" d="M1487.6,-359.927C1483.81,-342.003 1477.66,-313.004 1472.19,-288 1464.79,-254.163 1456.03,-215.23 1450.3,-189.927"/>
<polygon fill="black" stroke="black" points="1453.67,-188.951 1448.05,-179.971 1446.84,-190.498 1453.67,-188.951"/>
</g>
</g>
</svg>
