<?xml version="1.0" encoding="UTF-8" standalone="no"?>
<!DOCTYPE svg PUBLIC "-//W3C//DTD SVG 1.1//EN"
 "http://www.w3.org/Graphics/SVG/1.1/DTD/svg11.dtd">
<!-- Generated by graphviz version 2.38.0 (20140413.2041)
 -->
<!-- Title: ReligionGraph Pages: 1 -->
<svg width="1771pt" height="620pt"
 viewBox="0.00 0.00 1771.49 620.00" xmlns="http://www.w3.org/2000/svg" xmlns:xlink="http://www.w3.org/1999/xlink">
<g id="graph0" class="graph" transform="scale(1 1) rotate(0) translate(4 616)">
<title>ReligionGraph</title>
<polygon fill="white" stroke="none" points="-4,4 -4,-616 1767.49,-616 1767.49,4 -4,4"/>
<!-- X8fa8b -->
<g id="node1" class="node"><title>X8fa8b</title>
<g id="a_node1"><a xlink:href="http://sparql.cwrc.ca/ontologies/cwrc#plymouthBrethren" xlink:title="Plymouth Brethren" target="_parent">
<ellipse fill="none" stroke="black" cx="727.594" cy="-306" rx="100.182" ry="18"/>
<text text-anchor="middle" x="727.594" y="-302.3" font-family="Times,serif" font-size="14.00">Plymouth Brethren</text>
</a>
</g>
</g>
<!-- X4e4b1 -->
<g id="node2" class="node"><title>X4e4b1</title>
<g id="a_node2"><a xlink:href="http://sparql.cwrc.ca/ontologies/cwrc#protestantism" xlink:title="Protestantism" target="_parent">
<ellipse fill="none" stroke="black" cx="931.594" cy="-234" rx="76.8869" ry="18"/>
<text text-anchor="middle" x="931.594" y="-230.3" font-family="Times,serif" font-size="14.00">Protestantism</text>
</a>
</g>
</g>
<!-- X8fa8b&#45;&gt;X4e4b1 -->
<g id="edge1" class="edge"><title>X8fa8b&#45;&gt;X4e4b1</title>
<path fill="none" stroke="black" d="M771.859,-289.811C803.856,-278.832 847.154,-263.974 880.6,-252.498"/>
<polygon fill="black" stroke="black" points="881.874,-255.761 890.196,-249.205 879.602,-249.14 881.874,-255.761"/>
</g>
<!-- Xadf16 -->
<g id="node3" class="node"><title>Xadf16</title>
<g id="a_node3"><a xlink:href="http://sparql.cwrc.ca/ontologies/cwrc#christianity" xlink:title="Christianity" target="_parent">
<ellipse fill="none" stroke="black" cx="931.594" cy="-162" rx="66.0889" ry="18"/>
<text text-anchor="middle" x="931.594" y="-158.3" font-family="Times,serif" font-size="14.00">Christianity</text>
</a>
</g>
</g>
<!-- X4e4b1&#45;&gt;Xadf16 -->
<g id="edge2" class="edge"><title>X4e4b1&#45;&gt;Xadf16</title>
<path fill="none" stroke="black" d="M931.594,-215.697C931.594,-207.983 931.594,-198.712 931.594,-190.112"/>
<polygon fill="black" stroke="black" points="935.094,-190.104 931.594,-180.104 928.094,-190.104 935.094,-190.104"/>
</g>
<!-- Xb2336 -->
<g id="node5" class="node"><title>Xb2336</title>
<g id="a_node5"><a xlink:href="http://sparql.cwrc.ca/ontologies/cwrc#abrahamicReligions" xlink:title="Abrahamic religions" target="_parent">
<ellipse fill="none" stroke="black" cx="865.594" cy="-90" rx="104.782" ry="18"/>
<text text-anchor="middle" x="865.594" y="-86.3" font-family="Times,serif" font-size="14.00">Abrahamic religions</text>
</a>
</g>
</g>
<!-- Xadf16&#45;&gt;Xb2336 -->
<g id="edge4" class="edge"><title>Xadf16&#45;&gt;Xb2336</title>
<path fill="none" stroke="black" d="M915.953,-144.411C907.772,-135.734 897.6,-124.946 888.545,-115.342"/>
<polygon fill="black" stroke="black" points="890.988,-112.831 881.581,-107.956 885.895,-117.633 890.988,-112.831"/>
</g>
<!-- Xf6f10 -->
<g id="node4" class="node"><title>Xf6f10</title>
<g id="a_node4"><a xlink:href="http://sparql.cwrc.ca/ontologies/cwrc#anglicanism" xlink:title="Anglicanism" target="_parent">
<ellipse fill="none" stroke="black" cx="442.594" cy="-234" rx="68.4888" ry="18"/>
<text text-anchor="middle" x="442.594" y="-230.3" font-family="Times,serif" font-size="14.00">Anglicanism</text>
</a>
</g>
</g>
<!-- Xf6f10&#45;&gt;Xadf16 -->
<g id="edge3" class="edge"><title>Xf6f10&#45;&gt;Xadf16</title>
<path fill="none" stroke="black" d="M491.317,-221.388C500.667,-219.403 510.406,-217.5 519.594,-216 668.255,-191.726 708.001,-204.691 856.594,-180 862.331,-179.047 868.288,-177.925 874.223,-176.721"/>
<polygon fill="black" stroke="black" points="875.084,-180.117 884.148,-174.631 873.641,-173.267 875.084,-180.117"/>
</g>
<!-- X43c0c -->
<g id="node7" class="node"><title>X43c0c</title>
<g id="a_node7"><a xlink:href="http://sparql.cwrc.ca/ontologies/cwrc#occultism" xlink:title="Occultism/Theosophism" target="_parent">
<ellipse fill="none" stroke="black" cx="239.594" cy="-18" rx="122.379" ry="18"/>
<text text-anchor="middle" x="239.594" y="-14.3" font-family="Times,serif" font-size="14.00">Occultism/Theosophism</text>
</a>
</g>
</g>
<!-- Xb2336&#45;&gt;X43c0c -->
<g id="edge15" class="edge"><title>Xb2336&#45;&gt;X43c0c</title>
<path fill="none" stroke="black" d="M780.517,-79.4866C667.038,-66.7972 466.258,-44.3458 343.821,-30.6548"/>
<polygon fill="black" stroke="black" points="344.011,-27.1543 333.684,-29.5213 343.233,-34.111 344.011,-27.1543"/>
</g>
<!-- X3b80a -->
<g id="node6" class="node"><title>X3b80a</title>
<g id="a_node6"><a xlink:href="http://sparql.cwrc.ca/ontologies/cwrc#buddhism" xlink:title="Buddhism" target="_parent">
<ellipse fill="none" stroke="black" cx="153.594" cy="-90" rx="57.6901" ry="18"/>
<text text-anchor="middle" x="153.594" y="-86.3" font-family="Times,serif" font-size="14.00">Buddhism</text>
</a>
</g>
</g>
<!-- X3b80a&#45;&gt;X43c0c -->
<g id="edge5" class="edge"><title>X3b80a&#45;&gt;X43c0c</title>
<path fill="none" stroke="black" d="M173.54,-72.7646C184.693,-63.6868 198.784,-52.2178 211.083,-42.2066"/>
<polygon fill="black" stroke="black" points="213.312,-44.9053 218.858,-35.8781 208.893,-39.4764 213.312,-44.9053"/>
</g>
<!-- Xb45be -->
<g id="node8" class="node"><title>Xb45be</title>
<g id="a_node8"><a xlink:href="http://sparql.cwrc.ca/ontologies/cwrc#millenarianism" xlink:title="Millenarianism" target="_parent">
<ellipse fill="none" stroke="black" cx="1668.59" cy="-234" rx="81.4863" ry="18"/>
<text text-anchor="middle" x="1668.59" y="-230.3" font-family="Times,serif" font-size="14.00">Millenarianism</text>
</a>
</g>
</g>
<!-- X043aa -->
<g id="node9" class="node"><title>X043aa</title>
<g id="a_node9"><a xlink:href="http://sparql.cwrc.ca/ontologies/cwrc#unitarianism" xlink:title="Unitarianism" target="_parent">
<ellipse fill="none" stroke="black" cx="794.594" cy="-378" rx="71.4873" ry="18"/>
<text text-anchor="middle" x="794.594" y="-374.3" font-family="Times,serif" font-size="14.00">Unitarianism</text>
</a>
</g>
</g>
<!-- X043aa&#45;&gt;X4e4b1 -->
<g id="edge6" class="edge"><title>X043aa&#45;&gt;X4e4b1</title>
<path fill="none" stroke="black" d="M810.507,-360.204C827.535,-342.263 855.371,-313.023 879.594,-288 888.84,-278.449 899.075,-267.992 908.002,-258.909"/>
<polygon fill="black" stroke="black" points="910.623,-261.236 915.142,-251.653 905.634,-256.326 910.623,-261.236"/>
</g>
<!-- X156db -->
<g id="node10" class="node"><title>X156db</title>
<g id="a_node10"><a xlink:href="http://sparql.cwrc.ca/ontologies/cwrc#dissentProtestant" xlink:title="Dissent (Protestant)" target="_parent">
<ellipse fill="none" stroke="black" cx="466.594" cy="-306" rx="104.782" ry="18"/>
<text text-anchor="middle" x="466.594" y="-302.3" font-family="Times,serif" font-size="14.00">Dissent (Protestant)</text>
</a>
</g>
</g>
<!-- X965b5 -->
<g id="node11" class="node"><title>X965b5</title>
<g id="a_node11"><a xlink:href="http://sparql.cwrc.ca/ontologies/cwrc#churchOfEngland" xlink:title="Church of England" target="_parent">
<ellipse fill="none" stroke="black" cx="627.594" cy="-234" rx="98.5829" ry="18"/>
<text text-anchor="middle" x="627.594" y="-230.3" font-family="Times,serif" font-size="14.00">Church of England</text>
</a>
</g>
</g>
<!-- X156db&#45;&gt;X965b5 -->
<g id="edge7" class="edge"><title>X156db&#45;&gt;X965b5</title>
<path fill="none" stroke="black" d="M503.127,-289.116C526.491,-278.958 556.983,-265.701 581.938,-254.85"/>
<polygon fill="black" stroke="black" points="583.43,-258.018 591.205,-250.821 580.639,-251.599 583.43,-258.018"/>
</g>
<!-- X965b5&#45;&gt;Xadf16 -->
<g id="edge8" class="edge"><title>X965b5&#45;&gt;Xadf16</title>
<path fill="none" stroke="black" d="M686.208,-219.503C739.86,-207.149 818.856,-188.959 872.621,-176.579"/>
<polygon fill="black" stroke="black" points="873.728,-179.916 882.688,-174.261 872.157,-173.095 873.728,-179.916"/>
</g>
<!-- X253de -->
<g id="node12" class="node"><title>X253de</title>
<g id="a_node12"><a xlink:href="http://sparql.cwrc.ca/ontologies/cwrc#quakerism" xlink:title="Quakerism" target="_parent">
<ellipse fill="none" stroke="black" cx="1493.59" cy="-306" rx="61.99" ry="18"/>
<text text-anchor="middle" x="1493.59" y="-302.3" font-family="Times,serif" font-size="14.00">Quakerism</text>
</a>
</g>
</g>
<!-- X253de&#45;&gt;X4e4b1 -->
<g id="edge9" class="edge"><title>X253de&#45;&gt;X4e4b1</title>
<path fill="none" stroke="black" d="M1449.48,-293.382C1440.63,-291.348 1431.35,-289.43 1422.59,-288 1244.25,-258.883 1196.49,-277.558 1017.59,-252 1010.81,-251.031 1003.76,-249.877 996.731,-248.633"/>
<polygon fill="black" stroke="black" points="996.966,-245.118 986.499,-246.758 995.704,-252.004 996.966,-245.118"/>
</g>
<!-- X991c3 -->
<g id="node13" class="node"><title>X991c3</title>
<ellipse fill="none" stroke="black" cx="1508.59" cy="-234" rx="46.2923" ry="18"/>
<text text-anchor="middle" x="1508.59" y="-230.3" font-family="Times,serif" font-size="14.00">X991c3</text>
</g>
<!-- X253de&#45;&gt;X991c3 -->
<g id="edge10" class="edge"><title>X253de&#45;&gt;X991c3</title>
<path fill="none" stroke="black" d="M1497.3,-287.697C1498.95,-279.983 1500.94,-270.712 1502.78,-262.112"/>
<polygon fill="black" stroke="black" points="1506.26,-262.616 1504.93,-252.104 1499.41,-261.149 1506.26,-262.616"/>
</g>
<!-- X1cc79 -->
<g id="node14" class="node"><title>X1cc79</title>
<g id="a_node14"><a xlink:href="http://sparql.cwrc.ca/ontologies/cwrc#lollardy" xlink:title="Lollardy" target="_parent">
<ellipse fill="none" stroke="black" cx="1082.59" cy="-522" rx="49.2915" ry="18"/>
<text text-anchor="middle" x="1082.59" y="-518.3" font-family="Times,serif" font-size="14.00">Lollardy</text>
</a>
</g>
</g>
<!-- X752f2 -->
<g id="node15" class="node"><title>X752f2</title>
<ellipse fill="none" stroke="black" cx="1120.59" cy="-450" rx="44.393" ry="18"/>
<text text-anchor="middle" x="1120.59" y="-446.3" font-family="Times,serif" font-size="14.00">X752f2</text>
</g>
<!-- X1cc79&#45;&gt;X752f2 -->
<g id="edge11" class="edge"><title>X1cc79&#45;&gt;X752f2</title>
<path fill="none" stroke="black" d="M1091.79,-504.055C1096.23,-495.887 1101.64,-485.912 1106.58,-476.824"/>
<polygon fill="black" stroke="black" points="1109.78,-478.247 1111.48,-467.789 1103.63,-474.908 1109.78,-478.247"/>
</g>
<!-- Xd2614 -->
<g id="node16" class="node"><title>Xd2614</title>
<g id="a_node16"><a xlink:href="http://sparql.cwrc.ca/ontologies/cwrc#fifthMonarchists" xlink:title="Fifth Monarchists" target="_parent">
<ellipse fill="none" stroke="black" cx="1668.59" cy="-306" rx="94.7833" ry="18"/>
<text text-anchor="middle" x="1668.59" y="-302.3" font-family="Times,serif" font-size="14.00">Fifth Monarchists</text>
</a>
</g>
</g>
<!-- Xd2614&#45;&gt;Xb45be -->
<g id="edge12" class="edge"><title>Xd2614&#45;&gt;Xb45be</title>
<path fill="none" stroke="black" d="M1668.59,-287.697C1668.59,-279.983 1668.59,-270.712 1668.59,-262.112"/>
<polygon fill="black" stroke="black" points="1672.09,-262.104 1668.59,-252.104 1665.09,-262.104 1672.09,-262.104"/>
</g>
<!-- Xd2614&#45;&gt;X991c3 -->
<g id="edge13" class="edge"><title>Xd2614&#45;&gt;X991c3</title>
<path fill="none" stroke="black" d="M1632.69,-289.291C1607.33,-278.197 1573.38,-263.344 1547.4,-251.978"/>
<polygon fill="black" stroke="black" points="1548.79,-248.764 1538.22,-247.962 1545.98,-255.177 1548.79,-248.764"/>
</g>
<!-- Xd32ac -->
<g id="node17" class="node"><title>Xd32ac</title>
<g id="a_node17"><a xlink:href="http://sparql.cwrc.ca/ontologies/cwrc#judaism" xlink:title="Judaism" target="_parent">
<ellipse fill="none" stroke="black" cx="799.594" cy="-162" rx="48.1917" ry="18"/>
<text text-anchor="middle" x="799.594" y="-158.3" font-family="Times,serif" font-size="14.00">Judaism</text>
</a>
</g>
</g>
<!-- Xd32ac&#45;&gt;Xb2336 -->
<g id="edge14" class="edge"><title>Xd32ac&#45;&gt;Xb2336</title>
<path fill="none" stroke="black" d="M814.902,-144.765C823.075,-136.096 833.303,-125.248 842.428,-115.57"/>
<polygon fill="black" stroke="black" points="845.135,-117.801 849.449,-108.124 840.042,-112.999 845.135,-117.801"/>
</g>
<!-- X9deb8 -->
<g id="node18" class="node"><title>X9deb8</title>
<g id="a_node18"><a xlink:href="http://sparql.cwrc.ca/ontologies/cwrc#dissentingChristianity" xlink:title="Dissenting Christianity" target="_parent">
<ellipse fill="none" stroke="black" cx="784.594" cy="-450" rx="118.879" ry="18"/>
<text text-anchor="middle" x="784.594" y="-446.3" font-family="Times,serif" font-size="14.00">Dissenting Christianity</text>
</a>
</g>
</g>
<!-- X9deb8&#45;&gt;X4e4b1 -->
<g id="edge16" class="edge"><title>X9deb8&#45;&gt;X4e4b1</title>
<path fill="none" stroke="black" d="M824.81,-432.893C842.159,-424.205 861.445,-411.95 874.594,-396 891.858,-375.058 913.579,-301.738 924.554,-261.659"/>
<polygon fill="black" stroke="black" points="927.933,-262.572 927.166,-252.005 921.176,-260.744 927.933,-262.572"/>
</g>
<!-- Xe1e3e -->
<g id="node19" class="node"><title>Xe1e3e</title>
<g id="a_node19"><a xlink:href="http://sparql.cwrc.ca/ontologies/cwrc#methodism" xlink:title="Methodism" target="_parent">
<ellipse fill="none" stroke="black" cx="877.594" cy="-522" rx="63.8893" ry="18"/>
<text text-anchor="middle" x="877.594" y="-518.3" font-family="Times,serif" font-size="14.00">Methodism</text>
</a>
</g>
</g>
<!-- Xe1e3e&#45;&gt;X4e4b1 -->
<g id="edge17" class="edge"><title>Xe1e3e&#45;&gt;X4e4b1</title>
<path fill="none" stroke="black" d="M891.996,-504.039C899.509,-494.177 908.059,-481.133 912.594,-468 937.132,-396.942 936.108,-306.732 933.667,-262.284"/>
<polygon fill="black" stroke="black" points="937.157,-262.025 933.047,-252.26 930.171,-262.457 937.157,-262.025"/>
</g>
<!-- X32f53 -->
<g id="node20" class="node"><title>X32f53</title>
<g id="a_node20"><a xlink:href="http://sparql.cwrc.ca/ontologies/cwrc#catholicism" xlink:title="Roman Catholicism" target="_parent">
<ellipse fill="none" stroke="black" cx="1127.59" cy="-234" rx="101.282" ry="18"/>
<text text-anchor="middle" x="1127.59" y="-230.3" font-family="Times,serif" font-size="14.00">Roman Catholicism</text>
</a>
</g>
</g>
<!-- X32f53&#45;&gt;Xadf16 -->
<g id="edge18" class="edge"><title>X32f53&#45;&gt;Xadf16</title>
<path fill="none" stroke="black" d="M1084.58,-217.638C1053.64,-206.587 1011.88,-191.674 979.81,-180.22"/>
<polygon fill="black" stroke="black" points="980.785,-176.852 970.19,-176.784 978.43,-183.444 980.785,-176.852"/>
</g>
<!-- X37200 -->
<g id="node21" class="node"><title>X37200</title>
<g id="a_node21"><a xlink:href="http://sparql.cwrc.ca/ontologies/cwrc#paganism" xlink:title="Paganism" target="_parent">
<ellipse fill="none" stroke="black" cx="216.594" cy="-162" rx="55.7903" ry="18"/>
<text text-anchor="middle" x="216.594" y="-158.3" font-family="Times,serif" font-size="14.00">Paganism</text>
</a>
</g>
</g>
<!-- X37200&#45;&gt;X43c0c -->
<g id="edge19" class="edge"><title>X37200&#45;&gt;X43c0c</title>
<path fill="none" stroke="black" d="M219.368,-143.871C223.288,-119.67 230.489,-75.2108 235.157,-46.3932"/>
<polygon fill="black" stroke="black" points="238.666,-46.6203 236.81,-36.1893 231.756,-45.501 238.666,-46.6203"/>
</g>
<!-- X7477d -->
<g id="node22" class="node"><title>X7477d</title>
<g id="a_node22"><a xlink:href="http://sparql.cwrc.ca/ontologies/cwrc#congregationalism" xlink:title="Congregationalism" target="_parent">
<ellipse fill="none" stroke="black" cx="969.594" cy="-594" rx="98.5829" ry="18"/>
<text text-anchor="middle" x="969.594" y="-590.3" font-family="Times,serif" font-size="14.00">Congregationalism</text>
</a>
</g>
</g>
<!-- X7477d&#45;&gt;X4e4b1 -->
<g id="edge20" class="edge"><title>X7477d&#45;&gt;X4e4b1</title>
<path fill="none" stroke="black" d="M969.594,-575.951C969.594,-549.292 969.594,-496.115 969.594,-451 969.594,-451 969.594,-451 969.594,-377 969.594,-335.633 954.359,-289.722 943.182,-261.605"/>
<polygon fill="black" stroke="black" points="946.315,-260.019 939.284,-252.093 939.838,-262.673 946.315,-260.019"/>
</g>
<!-- X6f203 -->
<g id="node23" class="node"><title>X6f203</title>
<g id="a_node23"><a xlink:href="http://sparql.cwrc.ca/ontologies/cwrc#christianScience" xlink:title="Christian Science" target="_parent">
<ellipse fill="none" stroke="black" cx="1320.59" cy="-306" rx="92.8835" ry="18"/>
<text text-anchor="middle" x="1320.59" y="-302.3" font-family="Times,serif" font-size="14.00">Christian Science</text>
</a>
</g>
</g>
<!-- X6f203&#45;&gt;Xadf16 -->
<g id="edge21" class="edge"><title>X6f203&#45;&gt;Xadf16</title>
<path fill="none" stroke="black" d="M1309.73,-287.766C1295.73,-267.126 1269.37,-233.19 1237.59,-216 1166.13,-177.343 1072.78,-165.831 1008.06,-162.902"/>
<polygon fill="black" stroke="black" points="1008.06,-159.4 997.929,-162.503 1007.78,-166.394 1008.06,-159.4"/>
</g>
<!-- Xc7ed9 -->
<g id="node24" class="node"><title>Xc7ed9</title>
<g id="a_node24"><a xlink:href="http://sparql.cwrc.ca/ontologies/cwrc#hinduism" xlink:title="Hinduism" target="_parent">
<ellipse fill="none" stroke="black" cx="300.594" cy="-234" rx="55.7903" ry="18"/>
<text text-anchor="middle" x="300.594" y="-230.3" font-family="Times,serif" font-size="14.00">Hinduism</text>
</a>
</g>
</g>
<!-- Xc7ed9&#45;&gt;X43c0c -->
<g id="edge22" class="edge"><title>Xc7ed9&#45;&gt;X43c0c</title>
<path fill="none" stroke="black" d="M297.524,-215.799C294.166,-197.77 288.353,-168.687 281.594,-144 272.189,-109.649 258.705,-70.8876 249.572,-45.7608"/>
<polygon fill="black" stroke="black" points="252.795,-44.3832 246.067,-36.1987 246.223,-46.7924 252.795,-44.3832"/>
</g>
<!-- Xd35c6 -->
<g id="node25" class="node"><title>Xd35c6</title>
<g id="a_node25"><a xlink:href="http://sparql.cwrc.ca/ontologies/cwrc#spiritualism" xlink:title="Spiritualism" target="_parent">
<ellipse fill="none" stroke="black" cx="67.594" cy="-306" rx="67.6881" ry="18"/>
<text text-anchor="middle" x="67.594" y="-302.3" font-family="Times,serif" font-size="14.00">Spiritualism</text>
</a>
</g>
</g>
<!-- Xd35c6&#45;&gt;X43c0c -->
<g id="edge23" class="edge"><title>Xd35c6&#45;&gt;X43c0c</title>
<path fill="none" stroke="black" d="M63.2798,-287.858C53.8357,-246.008 35.9982,-137.28 86.594,-72 100.695,-53.8066 121.428,-41.8295 143.109,-33.9532"/>
<polygon fill="black" stroke="black" points="144.404,-37.2106 152.777,-30.7192 142.184,-30.5721 144.404,-37.2106"/>
</g>
<!-- X7152e -->
<g id="node26" class="node"><title>X7152e</title>
<g id="a_node26"><a xlink:href="http://sparql.cwrc.ca/ontologies/cwrc#atheism" xlink:title="Atheism" target="_parent">
<ellipse fill="none" stroke="black" cx="1300.59" cy="-594" rx="49.2915" ry="18"/>
<text text-anchor="middle" x="1300.59" y="-590.3" font-family="Times,serif" font-size="14.00">Atheism</text>
</a>
</g>
</g>
<!-- X36b94 -->
<g id="node27" class="node"><title>X36b94</title>
<g id="a_node27"><a xlink:href="http://sparql.cwrc.ca/ontologies/cwrc#agnosticism" xlink:title="Agnosticism" target="_parent">
<ellipse fill="none" stroke="black" cx="1300.59" cy="-522" rx="68.4888" ry="18"/>
<text text-anchor="middle" x="1300.59" y="-518.3" font-family="Times,serif" font-size="14.00">Agnosticism</text>
</a>
</g>
</g>
<!-- X7152e&#45;&gt;X36b94 -->
<!-- Xc1422 -->
<g id="node28" class="node"><title>Xc1422</title>
<g id="a_node28"><a xlink:href="http://sparql.cwrc.ca/ontologies/cwrc#islam" xlink:title="Islamism" target="_parent">
<ellipse fill="none" stroke="black" cx="1356.59" cy="-234" rx="53.0913" ry="18"/>
<text text-anchor="middle" x="1356.59" y="-230.3" font-family="Times,serif" font-size="14.00">Islamism</text>
</a>
</g>
</g>
<!-- Xc1422&#45;&gt;Xb2336 -->
<g id="edge25" class="edge"><title>Xc1422&#45;&gt;Xb2336</title>
<path fill="none" stroke="black" d="M1317.24,-221.62C1231.79,-196.907 1028.76,-138.187 926.565,-108.633"/>
<polygon fill="black" stroke="black" points="927.278,-105.196 916.7,-105.78 925.334,-111.921 927.278,-105.196"/>
</g>
<!-- X0e2fa -->
<g id="node29" class="node"><title>X0e2fa</title>
<g id="a_node29"><a xlink:href="http://sparql.cwrc.ca/ontologies/cwrc#presbyterianism" xlink:title="Presbyterianism" target="_parent">
<ellipse fill="none" stroke="black" cx="1084.59" cy="-306" rx="87.1846" ry="18"/>
<text text-anchor="middle" x="1084.59" y="-302.3" font-family="Times,serif" font-size="14.00">Presbyterianism</text>
</a>
</g>
</g>
<!-- X0e2fa&#45;&gt;X4e4b1 -->
<g id="edge26" class="edge"><title>X0e2fa&#45;&gt;X4e4b1</title>
<path fill="none" stroke="black" d="M1050.26,-289.291C1027.78,-279.006 998.238,-265.491 974.254,-254.518"/>
<polygon fill="black" stroke="black" points="975.576,-251.274 965.026,-250.296 972.664,-257.639 975.576,-251.274"/>
</g>
<!-- Xb800b -->
<g id="node30" class="node"><title>Xb800b</title>
<g id="a_node30"><a xlink:href="http://sparql.cwrc.ca/ontologies/cwrc#tractarianMovement" xlink:title="Tractarian Movement" target="_parent">
<ellipse fill="none" stroke="black" cx="592.594" cy="-378" rx="112.38" ry="18"/>
<text text-anchor="middle" x="592.594" y="-374.3" font-family="Times,serif" font-size="14.00">Tractarian Movement</text>
</a>
</g>
</g>
<!-- Xb800b&#45;&gt;X965b5 -->
<g id="edge27" class="edge"><title>Xb800b&#45;&gt;X965b5</title>
<path fill="none" stroke="black" d="M596.816,-359.871C602.807,-335.564 613.836,-290.819 620.936,-262.013"/>
<polygon fill="black" stroke="black" points="624.362,-262.736 623.357,-252.189 617.566,-261.061 624.362,-262.736"/>
</g>
<!-- X2a5d0 -->
<g id="node31" class="node"><title>X2a5d0</title>
<g id="a_node31"><a xlink:href="http://sparql.cwrc.ca/ontologies/cwrc#churchOfIreland" xlink:title="Church of Ireland" target="_parent">
<ellipse fill="none" stroke="black" cx="250.594" cy="-306" rx="93.6835" ry="18"/>
<text text-anchor="middle" x="250.594" y="-302.3" font-family="Times,serif" font-size="14.00">Church of Ireland</text>
</a>
</g>
</g>
<!-- X2a5d0&#45;&gt;Xf6f10 -->
<g id="edge28" class="edge"><title>X2a5d0&#45;&gt;Xf6f10</title>
<path fill="none" stroke="black" d="M292.255,-289.811C322.44,-278.806 363.312,-263.905 394.821,-252.417"/>
<polygon fill="black" stroke="black" points="396.081,-255.683 404.277,-248.97 393.683,-249.107 396.081,-255.683"/>
</g>
<!-- Xe7b0a -->
<g id="node32" class="node"><title>Xe7b0a</title>
<g id="a_node32"><a xlink:href="http://sparql.cwrc.ca/ontologies/cwrc#neo-thomism" xlink:title="Neo&#45;thomism" target="_parent">
<ellipse fill="none" stroke="black" cx="1159.59" cy="-594" rx="73.387" ry="18"/>
<text text-anchor="middle" x="1159.59" y="-590.3" font-family="Times,serif" font-size="14.00">Neo&#45;thomism</text>
</a>
</g>
</g>
<!-- Xe7b0a&#45;&gt;X752f2 -->
<g id="edge29" class="edge"><title>Xe7b0a&#45;&gt;X752f2</title>
<path fill="none" stroke="black" d="M1156.71,-575.747C1153.5,-557.675 1147.8,-528.559 1140.59,-504 1138.01,-495.183 1134.64,-485.742 1131.41,-477.306"/>
<polygon fill="black" stroke="black" points="1134.66,-475.99 1127.74,-467.964 1128.14,-478.551 1134.66,-475.99"/>
</g>
<!-- Xd53bc -->
<g id="node33" class="node"><title>Xd53bc</title>
<g id="a_node33"><a xlink:href="http://sparql.cwrc.ca/ontologies/cwrc#baptistChristianity" xlink:title="Baptist Christianity" target="_parent">
<ellipse fill="none" stroke="black" cx="1199.59" cy="-378" rx="102.882" ry="18"/>
<text text-anchor="middle" x="1199.59" y="-374.3" font-family="Times,serif" font-size="14.00">Baptist Christianity</text>
</a>
</g>
</g>
<!-- Xd53bc&#45;&gt;X4e4b1 -->
<g id="edge30" class="edge"><title>Xd53bc&#45;&gt;X4e4b1</title>
<path fill="none" stroke="black" d="M1201.05,-359.689C1201.71,-339.616 1199.48,-306.875 1180.59,-288 1177.31,-284.713 1070.68,-262.833 998.04,-248.233"/>
<polygon fill="black" stroke="black" points="998.523,-244.76 988.03,-246.224 997.145,-251.623 998.523,-244.76"/>
</g>
</g>
</svg>
