<?xml version="1.0" encoding="UTF-8" standalone="no"?>
<!DOCTYPE svg PUBLIC "-//W3C//DTD SVG 1.1//EN"
 "http://www.w3.org/Graphics/SVG/1.1/DTD/svg11.dtd">
<!-- Generated by graphviz version 2.38.0 (20140413.2041)
 -->
<!-- Title: ReligionGraph Pages: 1 -->
<svg width="1903pt" height="548pt"
 viewBox="0.00 0.00 1902.88 548.00" xmlns="http://www.w3.org/2000/svg" xmlns:xlink="http://www.w3.org/1999/xlink">
<g id="graph0" class="graph" transform="scale(1 1) rotate(0) translate(4 544)">
<title>ReligionGraph</title>
<polygon fill="white" stroke="none" points="-4,4 -4,-544 1898.88,-544 1898.88,4 -4,4"/>
<!-- Xd32ac -->
<g id="node1" class="node"><title>Xd32ac</title>
<g id="a_node1"><a xlink:href="http://sparql.cwrc.ca/ontologies/cwrc#judaism" xlink:title="Judaism" target="_parent">
<ellipse fill="none" stroke="black" cx="1108.69" cy="-90" rx="48.1917" ry="18"/>
<text text-anchor="middle" x="1108.69" y="-86.3" font-family="Times,serif" font-size="14.00">Judaism</text>
</a>
</g>
</g>
<!-- Xb2336 -->
<g id="node2" class="node"><title>Xb2336</title>
<g id="a_node2"><a xlink:href="http://sparql.cwrc.ca/ontologies/cwrc#abrahamicReligions" xlink:title="Abrahamic religions" target="_parent">
<ellipse fill="none" stroke="black" cx="1240.69" cy="-18" rx="104.782" ry="18"/>
<text text-anchor="middle" x="1240.69" y="-14.3" font-family="Times,serif" font-size="14.00">Abrahamic religions</text>
</a>
</g>
</g>
<!-- Xd32ac&#45;&gt;Xb2336 -->
<g id="edge1" class="edge"><title>Xd32ac&#45;&gt;Xb2336</title>
<path fill="none" stroke="black" d="M1135.4,-74.8345C1154.17,-64.8817 1179.6,-51.3949 1200.77,-40.1699"/>
<polygon fill="black" stroke="black" points="1202.66,-43.1311 1209.85,-35.3539 1199.38,-36.9469 1202.66,-43.1311"/>
</g>
<!-- Xe7b0a -->
<g id="node3" class="node"><title>Xe7b0a</title>
<g id="a_node3"><a xlink:href="http://sparql.cwrc.ca/ontologies/cwrc#neo-thomism" xlink:title="Neo&#45;thomism" target="_parent">
<ellipse fill="none" stroke="black" cx="1437.69" cy="-234" rx="73.387" ry="18"/>
<text text-anchor="middle" x="1437.69" y="-230.3" font-family="Times,serif" font-size="14.00">Neo&#45;thomism</text>
</a>
</g>
</g>
<!-- X32f53 -->
<g id="node4" class="node"><title>X32f53</title>
<g id="a_node4"><a xlink:href="http://sparql.cwrc.ca/ontologies/cwrc#catholicism" xlink:title="Roman Catholicism" target="_parent">
<ellipse fill="none" stroke="black" cx="1240.69" cy="-162" rx="101.282" ry="18"/>
<text text-anchor="middle" x="1240.69" y="-158.3" font-family="Times,serif" font-size="14.00">Roman Catholicism</text>
</a>
</g>
</g>
<!-- Xe7b0a&#45;&gt;X32f53 -->
<g id="edge2" class="edge"><title>Xe7b0a&#45;&gt;X32f53</title>
<path fill="none" stroke="black" d="M1397.82,-218.834C1367.74,-208.144 1326.18,-193.378 1293.36,-181.715"/>
<polygon fill="black" stroke="black" points="1294.51,-178.409 1283.92,-178.359 1292.17,-185.005 1294.51,-178.409"/>
</g>
<!-- Xadf16 -->
<g id="node5" class="node"><title>Xadf16</title>
<g id="a_node5"><a xlink:href="http://sparql.cwrc.ca/ontologies/cwrc#christianity" xlink:title="Christianity" target="_parent">
<ellipse fill="none" stroke="black" cx="1240.69" cy="-90" rx="66.0889" ry="18"/>
<text text-anchor="middle" x="1240.69" y="-86.3" font-family="Times,serif" font-size="14.00">Christianity</text>
</a>
</g>
</g>
<!-- X32f53&#45;&gt;Xadf16 -->
<g id="edge3" class="edge"><title>X32f53&#45;&gt;Xadf16</title>
<path fill="none" stroke="black" d="M1240.69,-143.697C1240.69,-135.983 1240.69,-126.712 1240.69,-118.112"/>
<polygon fill="black" stroke="black" points="1244.19,-118.104 1240.69,-108.104 1237.19,-118.104 1244.19,-118.104"/>
</g>
<!-- Xadf16&#45;&gt;Xb2336 -->
<g id="edge5" class="edge"><title>Xadf16&#45;&gt;Xb2336</title>
<path fill="none" stroke="black" d="M1240.69,-71.6966C1240.69,-63.9827 1240.69,-54.7125 1240.69,-46.1124"/>
<polygon fill="black" stroke="black" points="1244.19,-46.1043 1240.69,-36.1043 1237.19,-46.1044 1244.19,-46.1043"/>
</g>
<!-- X6f203 -->
<g id="node6" class="node"><title>X6f203</title>
<g id="a_node6"><a xlink:href="http://sparql.cwrc.ca/ontologies/cwrc#christianScience" xlink:title="Christian Science" target="_parent">
<ellipse fill="none" stroke="black" cx="1452.69" cy="-162" rx="92.8835" ry="18"/>
<text text-anchor="middle" x="1452.69" y="-158.3" font-family="Times,serif" font-size="14.00">Christian Science</text>
</a>
</g>
</g>
<!-- X6f203&#45;&gt;Xadf16 -->
<g id="edge4" class="edge"><title>X6f203&#45;&gt;Xadf16</title>
<path fill="none" stroke="black" d="M1407.73,-146.155C1373.51,-134.856 1326.42,-119.307 1290.96,-107.598"/>
<polygon fill="black" stroke="black" points="1291.88,-104.215 1281.28,-104.404 1289.68,-110.863 1291.88,-104.215"/>
</g>
<!-- X36b94 -->
<g id="node7" class="node"><title>X36b94</title>
<g id="a_node7"><a xlink:href="http://sparql.cwrc.ca/ontologies/cwrc#agnosticism" xlink:title="Agnosticism" target="_parent">
<ellipse fill="none" stroke="black" cx="1772.69" cy="-522" rx="68.4888" ry="18"/>
<text text-anchor="middle" x="1772.69" y="-518.3" font-family="Times,serif" font-size="14.00">Agnosticism</text>
</a>
</g>
</g>
<!-- X52798 -->
<g id="node8" class="node"><title>X52798</title>
<g id="a_node8"><a xlink:href="http://sparql.cwrc.ca/ontologies/cwrc#pantheism" xlink:title="Pantheism" target="_parent">
<ellipse fill="none" stroke="black" cx="1772.69" cy="-450" rx="59.5901" ry="18"/>
<text text-anchor="middle" x="1772.69" y="-446.3" font-family="Times,serif" font-size="14.00">Pantheism</text>
</a>
</g>
</g>
<!-- X36b94&#45;&gt;X52798 -->
<!-- Xd35c6 -->
<g id="node13" class="node"><title>Xd35c6</title>
<g id="a_node13"><a xlink:href="http://sparql.cwrc.ca/ontologies/cwrc#spiritualism" xlink:title="Spiritualism" target="_parent">
<ellipse fill="none" stroke="black" cx="1772.69" cy="-378" rx="67.6881" ry="18"/>
<text text-anchor="middle" x="1772.69" y="-374.3" font-family="Times,serif" font-size="14.00">Spiritualism</text>
</a>
</g>
</g>
<!-- X52798&#45;&gt;Xd35c6 -->
<!-- X043aa -->
<g id="node9" class="node"><title>X043aa</title>
<g id="a_node9"><a xlink:href="http://sparql.cwrc.ca/ontologies/cwrc#unitarianism" xlink:title="Unitarianism" target="_parent">
<ellipse fill="none" stroke="black" cx="766.691" cy="-234" rx="71.4873" ry="18"/>
<text text-anchor="middle" x="766.691" y="-230.3" font-family="Times,serif" font-size="14.00">Unitarianism</text>
</a>
</g>
</g>
<!-- X4e4b1 -->
<g id="node10" class="node"><title>X4e4b1</title>
<g id="a_node10"><a xlink:href="http://sparql.cwrc.ca/ontologies/cwrc#protestantism" xlink:title="Protestantism" target="_parent">
<ellipse fill="none" stroke="black" cx="615.691" cy="-162" rx="76.8869" ry="18"/>
<text text-anchor="middle" x="615.691" y="-158.3" font-family="Times,serif" font-size="14.00">Protestantism</text>
</a>
</g>
</g>
<!-- X043aa&#45;&gt;X4e4b1 -->
<g id="edge7" class="edge"><title>X043aa&#45;&gt;X4e4b1</title>
<path fill="none" stroke="black" d="M733.926,-217.811C711.643,-207.481 681.955,-193.718 657.902,-182.568"/>
<polygon fill="black" stroke="black" points="659.197,-179.311 648.652,-178.28 656.253,-185.661 659.197,-179.311"/>
</g>
<!-- X4e4b1&#45;&gt;Xadf16 -->
<g id="edge8" class="edge"><title>X4e4b1&#45;&gt;Xadf16</title>
<path fill="none" stroke="black" d="M689.464,-156.873C795.37,-150.274 996.395,-135.231 1165.69,-108 1171.43,-107.076 1177.39,-105.975 1183.33,-104.783"/>
<polygon fill="black" stroke="black" points="1184.19,-108.179 1193.26,-102.706 1182.75,-101.328 1184.19,-108.179"/>
</g>
<!-- X2a5d0 -->
<g id="node11" class="node"><title>X2a5d0</title>
<g id="a_node11"><a xlink:href="http://sparql.cwrc.ca/ontologies/cwrc#churchOfIreland" xlink:title="Church of Ireland" target="_parent">
<ellipse fill="none" stroke="black" cx="1252.69" cy="-234" rx="93.6835" ry="18"/>
<text text-anchor="middle" x="1252.69" y="-230.3" font-family="Times,serif" font-size="14.00">Church of Ireland</text>
</a>
</g>
</g>
<!-- Xf6f10 -->
<g id="node12" class="node"><title>Xf6f10</title>
<g id="a_node12"><a xlink:href="http://sparql.cwrc.ca/ontologies/cwrc#anglicanism" xlink:title="Anglicanism" target="_parent">
<ellipse fill="none" stroke="black" cx="1041.69" cy="-162" rx="68.4888" ry="18"/>
<text text-anchor="middle" x="1041.69" y="-158.3" font-family="Times,serif" font-size="14.00">Anglicanism</text>
</a>
</g>
</g>
<!-- X2a5d0&#45;&gt;Xf6f10 -->
<g id="edge9" class="edge"><title>X2a5d0&#45;&gt;Xf6f10</title>
<path fill="none" stroke="black" d="M1207.94,-218.155C1174,-206.893 1127.32,-191.408 1092.06,-179.712"/>
<polygon fill="black" stroke="black" points="1093.04,-176.347 1082.44,-176.52 1090.83,-182.991 1093.04,-176.347"/>
</g>
<!-- Xf6f10&#45;&gt;Xadf16 -->
<g id="edge10" class="edge"><title>Xf6f10&#45;&gt;Xadf16</title>
<path fill="none" stroke="black" d="M1081.01,-147.17C1112.86,-135.965 1157.9,-120.121 1192.03,-108.117"/>
<polygon fill="black" stroke="black" points="1193.52,-111.302 1201.8,-104.682 1191.2,-104.698 1193.52,-111.302"/>
</g>
<!-- Xc7ed9 -->
<g id="node17" class="node"><title>Xc7ed9</title>
<g id="a_node17"><a xlink:href="http://sparql.cwrc.ca/ontologies/cwrc#hinduism" xlink:title="Hinduism" target="_parent">
<ellipse fill="none" stroke="black" cx="1772.69" cy="-306" rx="55.7903" ry="18"/>
<text text-anchor="middle" x="1772.69" y="-302.3" font-family="Times,serif" font-size="14.00">Hinduism</text>
</a>
</g>
</g>
<!-- Xd35c6&#45;&gt;Xc7ed9 -->
<!-- Xd2614 -->
<g id="node14" class="node"><title>Xd2614</title>
<g id="a_node14"><a xlink:href="http://sparql.cwrc.ca/ontologies/cwrc#fifthMonarchists" xlink:title="Fifth Monarchists" target="_parent">
<ellipse fill="none" stroke="black" cx="1354.69" cy="-306" rx="94.7833" ry="18"/>
<text text-anchor="middle" x="1354.69" y="-302.3" font-family="Times,serif" font-size="14.00">Fifth Monarchists</text>
</a>
</g>
</g>
<!-- Xb45be -->
<g id="node15" class="node"><title>Xb45be</title>
<ellipse fill="none" stroke="black" cx="1575.69" cy="-234" rx="46.2923" ry="18"/>
<text text-anchor="middle" x="1575.69" y="-230.3" font-family="Times,serif" font-size="14.00">Xb45be</text>
</g>
<!-- Xd2614&#45;&gt;Xb45be -->
<g id="edge12" class="edge"><title>Xd2614&#45;&gt;Xb45be</title>
<path fill="none" stroke="black" d="M1401.29,-290.24C1439.65,-278.089 1493.67,-260.979 1531.39,-249.032"/>
<polygon fill="black" stroke="black" points="1532.61,-252.316 1541.09,-245.96 1530.5,-245.643 1532.61,-252.316"/>
</g>
<!-- X156db -->
<g id="node16" class="node"><title>X156db</title>
<g id="a_node16"><a xlink:href="http://sparql.cwrc.ca/ontologies/cwrc#dissentProtestant" xlink:title="Dissent (Protestant)" target="_parent">
<ellipse fill="none" stroke="black" cx="1036.69" cy="-234" rx="104.782" ry="18"/>
<text text-anchor="middle" x="1036.69" y="-230.3" font-family="Times,serif" font-size="14.00">Dissent (Protestant)</text>
</a>
</g>
</g>
<!-- Xd2614&#45;&gt;X156db -->
<g id="edge13" class="edge"><title>Xd2614&#45;&gt;X156db</title>
<path fill="none" stroke="black" d="M1295.25,-291.916C1242.26,-280.25 1164.57,-263.149 1108.19,-250.74"/>
<polygon fill="black" stroke="black" points="1108.8,-247.289 1098.28,-248.557 1107.29,-254.125 1108.8,-247.289"/>
</g>
<!-- X156db&#45;&gt;Xf6f10 -->
<g id="edge14" class="edge"><title>X156db&#45;&gt;Xf6f10</title>
<path fill="none" stroke="black" d="M1037.93,-215.697C1038.48,-207.983 1039.14,-198.712 1039.75,-190.112"/>
<polygon fill="black" stroke="black" points="1043.25,-190.328 1040.47,-180.104 1036.27,-189.83 1043.25,-190.328"/>
</g>
<!-- X3b80a -->
<g id="node18" class="node"><title>X3b80a</title>
<g id="a_node18"><a xlink:href="http://sparql.cwrc.ca/ontologies/cwrc#buddhism" xlink:title="Buddhism" target="_parent">
<ellipse fill="none" stroke="black" cx="1772.69" cy="-234" rx="57.6901" ry="18"/>
<text text-anchor="middle" x="1772.69" y="-230.3" font-family="Times,serif" font-size="14.00">Buddhism</text>
</a>
</g>
</g>
<!-- Xc7ed9&#45;&gt;X3b80a -->
<!-- X37200 -->
<g id="node20" class="node"><title>X37200</title>
<g id="a_node20"><a xlink:href="http://sparql.cwrc.ca/ontologies/cwrc#paganism" xlink:title="Paganism" target="_parent">
<ellipse fill="none" stroke="black" cx="1772.69" cy="-162" rx="55.7903" ry="18"/>
<text text-anchor="middle" x="1772.69" y="-158.3" font-family="Times,serif" font-size="14.00">Paganism</text>
</a>
</g>
</g>
<!-- X3b80a&#45;&gt;X37200 -->
<!-- X0e2fa -->
<g id="node19" class="node"><title>X0e2fa</title>
<g id="a_node19"><a xlink:href="http://sparql.cwrc.ca/ontologies/cwrc#presbyterianism" xlink:title="Presbyterianism" target="_parent">
<ellipse fill="none" stroke="black" cx="566.691" cy="-306" rx="87.1846" ry="18"/>
<text text-anchor="middle" x="566.691" y="-302.3" font-family="Times,serif" font-size="14.00">Presbyterianism</text>
</a>
</g>
</g>
<!-- X0e2fa&#45;&gt;X4e4b1 -->
<g id="edge17" class="edge"><title>X0e2fa&#45;&gt;X4e4b1</title>
<path fill="none" stroke="black" d="M578.09,-287.99C584.389,-277.903 591.889,-264.653 596.691,-252 604.293,-231.966 609.173,-208.181 612.081,-190.241"/>
<polygon fill="black" stroke="black" points="615.57,-190.582 613.608,-180.17 608.649,-189.533 615.57,-190.582"/>
</g>
<!-- X43c0c -->
<g id="node27" class="node"><title>X43c0c</title>
<g id="a_node27"><a xlink:href="http://sparql.cwrc.ca/ontologies/cwrc#occultism" xlink:title="Occultism/Theosophism" target="_parent">
<ellipse fill="none" stroke="black" cx="1772.69" cy="-90" rx="122.379" ry="18"/>
<text text-anchor="middle" x="1772.69" y="-86.3" font-family="Times,serif" font-size="14.00">Occultism/Theosophism</text>
</a>
</g>
</g>
<!-- X37200&#45;&gt;X43c0c -->
<!-- Xb800b -->
<g id="node21" class="node"><title>Xb800b</title>
<g id="a_node21"><a xlink:href="http://sparql.cwrc.ca/ontologies/cwrc#tractarianMovement" xlink:title="Tractarian Movement" target="_parent">
<ellipse fill="none" stroke="black" cx="854.691" cy="-306" rx="112.38" ry="18"/>
<text text-anchor="middle" x="854.691" y="-302.3" font-family="Times,serif" font-size="14.00">Tractarian Movement</text>
</a>
</g>
</g>
<!-- Xb800b&#45;&gt;Xf6f10 -->
<g id="edge19" class="edge"><title>Xb800b&#45;&gt;Xf6f10</title>
<path fill="none" stroke="black" d="M864.186,-287.86C875.783,-268.253 897.058,-236.253 922.691,-216 942.4,-200.428 967.406,-188.392 989.403,-179.754"/>
<polygon fill="black" stroke="black" points="990.831,-182.956 998.944,-176.143 988.353,-176.41 990.831,-182.956"/>
</g>
<!-- Xe1e3e -->
<g id="node22" class="node"><title>Xe1e3e</title>
<g id="a_node22"><a xlink:href="http://sparql.cwrc.ca/ontologies/cwrc#methodism" xlink:title="Methodism" target="_parent">
<ellipse fill="none" stroke="black" cx="681.691" cy="-378" rx="63.8893" ry="18"/>
<text text-anchor="middle" x="681.691" y="-374.3" font-family="Times,serif" font-size="14.00">Methodism</text>
</a>
</g>
</g>
<!-- Xe1e3e&#45;&gt;X4e4b1 -->
<g id="edge20" class="edge"><title>Xe1e3e&#45;&gt;X4e4b1</title>
<path fill="none" stroke="black" d="M678.798,-359.749C675.584,-341.679 669.887,-312.563 662.691,-288 652.551,-253.387 637.378,-214.682 627.035,-189.64"/>
<polygon fill="black" stroke="black" points="630.141,-187.995 623.06,-180.113 623.68,-190.69 630.141,-187.995"/>
</g>
<!-- Xd53bc -->
<g id="node23" class="node"><title>Xd53bc</title>
<g id="a_node23"><a xlink:href="http://sparql.cwrc.ca/ontologies/cwrc#baptistChristianity" xlink:title="Baptist Christianity" target="_parent">
<ellipse fill="none" stroke="black" cx="102.691" cy="-450" rx="102.882" ry="18"/>
<text text-anchor="middle" x="102.691" y="-446.3" font-family="Times,serif" font-size="14.00">Baptist Christianity</text>
</a>
</g>
</g>
<!-- Xd53bc&#45;&gt;X4e4b1 -->
<g id="edge21" class="edge"><title>Xd53bc&#45;&gt;X4e4b1</title>
<path fill="none" stroke="black" d="M105.647,-432.001C114.27,-388.014 143.759,-270.121 219.691,-216 267.951,-181.602 428.226,-169.511 529.473,-165.273"/>
<polygon fill="black" stroke="black" points="529.836,-168.761 539.688,-164.864 529.556,-161.767 529.836,-168.761"/>
</g>
<!-- X9deb8 -->
<g id="node24" class="node"><title>X9deb8</title>
<g id="a_node24"><a xlink:href="http://sparql.cwrc.ca/ontologies/cwrc#dissentingChristianity" xlink:title="Dissenting Christianity" target="_parent">
<ellipse fill="none" stroke="black" cx="233.691" cy="-522" rx="118.879" ry="18"/>
<text text-anchor="middle" x="233.691" y="-518.3" font-family="Times,serif" font-size="14.00">Dissenting Christianity</text>
</a>
</g>
</g>
<!-- X9deb8&#45;&gt;X4e4b1 -->
<g id="edge22" class="edge"><title>X9deb8&#45;&gt;X4e4b1</title>
<path fill="none" stroke="black" d="M233.691,-503.951C233.691,-477.292 233.691,-424.115 233.691,-379 233.691,-379 233.691,-379 233.691,-305 233.691,-280.323 167.521,-296.846 359.691,-216 416.365,-192.157 484.745,-178.707 536.571,-171.327"/>
<polygon fill="black" stroke="black" points="537.279,-174.763 546.707,-169.931 536.323,-167.828 537.279,-174.763"/>
</g>
<!-- X7477d -->
<g id="node25" class="node"><title>X7477d</title>
<g id="a_node25"><a xlink:href="http://sparql.cwrc.ca/ontologies/cwrc#congregationalism" xlink:title="Congregationalism" target="_parent">
<ellipse fill="none" stroke="black" cx="488.691" cy="-234" rx="98.5829" ry="18"/>
<text text-anchor="middle" x="488.691" y="-230.3" font-family="Times,serif" font-size="14.00">Congregationalism</text>
</a>
</g>
</g>
<!-- X7477d&#45;&gt;X4e4b1 -->
<g id="edge23" class="edge"><title>X7477d&#45;&gt;X4e4b1</title>
<path fill="none" stroke="black" d="M518.146,-216.765C535.985,-206.932 558.913,-194.295 578.057,-183.743"/>
<polygon fill="black" stroke="black" points="579.765,-186.798 586.833,-178.906 576.386,-180.668 579.765,-186.798"/>
</g>
<!-- Xc1422 -->
<g id="node26" class="node"><title>Xc1422</title>
<g id="a_node26"><a xlink:href="http://sparql.cwrc.ca/ontologies/cwrc#islam" xlink:title="Islamism" target="_parent">
<ellipse fill="none" stroke="black" cx="1616.69" cy="-162" rx="53.0913" ry="18"/>
<text text-anchor="middle" x="1616.69" y="-158.3" font-family="Times,serif" font-size="14.00">Islamism</text>
</a>
</g>
</g>
<!-- Xc1422&#45;&gt;Xb2336 -->
<g id="edge24" class="edge"><title>Xc1422&#45;&gt;Xb2336</title>
<path fill="none" stroke="black" d="M1582.33,-148.022C1515.83,-122.908 1369.26,-67.5557 1291.48,-38.1825"/>
<polygon fill="black" stroke="black" points="1292.49,-34.8194 1281.89,-34.5606 1290.01,-41.368 1292.49,-34.8194"/>
</g>
<!-- X7152e -->
<g id="node28" class="node"><title>X7152e</title>
<g id="a_node28"><a xlink:href="http://sparql.cwrc.ca/ontologies/cwrc#atheism" xlink:title="Atheism" target="_parent">
<ellipse fill="none" stroke="black" cx="1772.69" cy="-18" rx="49.2915" ry="18"/>
<text text-anchor="middle" x="1772.69" y="-14.3" font-family="Times,serif" font-size="14.00">Atheism</text>
</a>
</g>
</g>
<!-- X43c0c&#45;&gt;X7152e -->
<!-- X253de -->
<g id="node29" class="node"><title>X253de</title>
<g id="a_node29"><a xlink:href="http://sparql.cwrc.ca/ontologies/cwrc#quakerism" xlink:title="Quakerism" target="_parent">
<ellipse fill="none" stroke="black" cx="1046.69" cy="-306" rx="61.99" ry="18"/>
<text text-anchor="middle" x="1046.69" y="-302.3" font-family="Times,serif" font-size="14.00">Quakerism</text>
</a>
</g>
</g>
<!-- X253de&#45;&gt;X4e4b1 -->
<g id="edge27" class="edge"><title>X253de&#45;&gt;X4e4b1</title>
<path fill="none" stroke="black" d="M1012.59,-290.841C987.595,-280.361 952.897,-265.603 922.691,-252 888.612,-236.652 882.002,-228.251 846.691,-216 793.997,-197.718 732.34,-183.937 685.985,-175.016"/>
<polygon fill="black" stroke="black" points="686.515,-171.554 676.038,-173.131 685.212,-178.432 686.515,-171.554"/>
</g>
<!-- X253de&#45;&gt;X156db -->
<g id="edge28" class="edge"><title>X253de&#45;&gt;X156db</title>
<path fill="none" stroke="black" d="M1044.22,-287.697C1043.12,-279.983 1041.79,-270.712 1040.56,-262.112"/>
<polygon fill="black" stroke="black" points="1044.01,-261.509 1039.13,-252.104 1037.08,-262.499 1044.01,-261.509"/>
</g>
<!-- X8fa8b -->
<g id="node30" class="node"><title>X8fa8b</title>
<g id="a_node30"><a xlink:href="http://sparql.cwrc.ca/ontologies/cwrc#plymouthBrethren" xlink:title="Plymouth Brethren" target="_parent">
<ellipse fill="none" stroke="black" cx="361.691" cy="-306" rx="100.182" ry="18"/>
<text text-anchor="middle" x="361.691" y="-302.3" font-family="Times,serif" font-size="14.00">Plymouth Brethren</text>
</a>
</g>
</g>
<!-- X8fa8b&#45;&gt;X4e4b1 -->
<g id="edge29" class="edge"><title>X8fa8b&#45;&gt;X4e4b1</title>
<path fill="none" stroke="black" d="M360.278,-287.729C359.652,-267.693 361.919,-234.989 380.691,-216 402.441,-193.999 477.534,-179.726 537.053,-171.597"/>
<polygon fill="black" stroke="black" points="537.761,-175.034 547.213,-170.248 536.839,-168.095 537.761,-175.034"/>
</g>
<!-- X1cc79 -->
<g id="node31" class="node"><title>X1cc79</title>
<g id="a_node31"><a xlink:href="http://sparql.cwrc.ca/ontologies/cwrc#lollardy" xlink:title="Lollardy" target="_parent">
<ellipse fill="none" stroke="black" cx="1649.69" cy="-306" rx="49.2915" ry="18"/>
<text text-anchor="middle" x="1649.69" y="-302.3" font-family="Times,serif" font-size="14.00">Lollardy</text>
</a>
</g>
</g>
<!-- X1cc79&#45;&gt;X32f53 -->
<g id="edge30" class="edge"><title>X1cc79&#45;&gt;X32f53</title>
<path fill="none" stroke="black" d="M1651.39,-287.776C1652.35,-267.471 1650.45,-234.193 1630.69,-216 1584.54,-173.506 1412.81,-188.791 1350.69,-180 1342,-178.77 1332.94,-177.442 1323.9,-176.089"/>
<polygon fill="black" stroke="black" points="1324.14,-172.585 1313.73,-174.554 1323.09,-179.507 1324.14,-172.585"/>
</g>
</g>
</svg>
