<?xml version="1.0" encoding="UTF-8" standalone="no"?>
<!DOCTYPE svg PUBLIC "-//W3C//DTD SVG 1.1//EN"
 "http://www.w3.org/Graphics/SVG/1.1/DTD/svg11.dtd">
<!-- Generated by graphviz version 2.38.0 (20140413.2041)
 -->
<!-- Title: ReligionGraph Pages: 1 -->
<svg width="1372pt" height="620pt"
 viewBox="0.00 0.00 1372.29 620.00" xmlns="http://www.w3.org/2000/svg" xmlns:xlink="http://www.w3.org/1999/xlink">
<g id="graph0" class="graph" transform="scale(1 1) rotate(0) translate(4 616)">
<title>ReligionGraph</title>
<polygon fill="white" stroke="none" points="-4,4 -4,-616 1368.29,-616 1368.29,4 -4,4"/>
<!-- Xd2614 -->
<g id="node1" class="node"><title>Xd2614</title>
<g id="a_node1"><a xlink:href="http://sparql.cwrc.ca/ontologies/cwrc#fifthMonarchists" xlink:title="Cinquièmes Monarchistes" target="_parent">
<ellipse fill="none" stroke="black" cx="870.095" cy="-306" rx="103.182" ry="18"/>
<text text-anchor="middle" x="870.095" y="-302.3" font-family="Times,serif" font-size="14.00">Cinquièmes Monarchistes</text>
</a>
</g>
</g>
<!-- X156db -->
<g id="node2" class="node"><title>X156db</title>
<g id="a_node2"><a xlink:href="http://sparql.cwrc.ca/ontologies/cwrc#dissentProtestant" xlink:title="dissidents (ou non&#45;conformistes)" target="_parent">
<ellipse fill="none" stroke="black" cx="456.095" cy="-234" rx="126.978" ry="18"/>
<text text-anchor="middle" x="456.095" y="-230.3" font-family="Times,serif" font-size="14.00">dissidents (ou non&#45;conformistes)</text>
</a>
</g>
</g>
<!-- Xd2614&#45;&gt;X156db -->
<g id="edge1" class="edge"><title>Xd2614&#45;&gt;X156db</title>
<path fill="none" stroke="black" d="M798.454,-292.887C727.911,-280.959 620.019,-262.717 544.252,-249.906"/>
<polygon fill="black" stroke="black" points="544.691,-246.43 534.247,-248.214 543.524,-253.333 544.691,-246.43"/>
</g>
<!-- Xb45be -->
<g id="node3" class="node"><title>Xb45be</title>
<g id="a_node3"><a xlink:href="http://sparql.cwrc.ca/ontologies/cwrc#millenarianism" xlink:title="millénarisme, ou chiliasme" target="_parent">
<ellipse fill="none" stroke="black" cx="896.095" cy="-234" rx="107.781" ry="18"/>
<text text-anchor="middle" x="896.095" y="-230.3" font-family="Times,serif" font-size="14.00">millénarisme, ou chiliasme</text>
</a>
</g>
</g>
<!-- Xd2614&#45;&gt;Xb45be -->
<g id="edge2" class="edge"><title>Xd2614&#45;&gt;Xb45be</title>
<path fill="none" stroke="black" d="M876.522,-287.697C879.45,-279.813 882.982,-270.304 886.234,-261.546"/>
<polygon fill="black" stroke="black" points="889.541,-262.697 889.742,-252.104 882.979,-260.26 889.541,-262.697"/>
</g>
<!-- Xf6f10 -->
<g id="node4" class="node"><title>Xf6f10</title>
<g id="a_node4"><a xlink:href="http://sparql.cwrc.ca/ontologies/cwrc#anglicanism" xlink:title="Église d&#39;Angleterre" target="_parent">
<ellipse fill="none" stroke="black" cx="535.095" cy="-162" rx="78.7863" ry="18"/>
<text text-anchor="middle" x="535.095" y="-158.3" font-family="Times,serif" font-size="14.00">Église d&#39;Angleterre</text>
</a>
</g>
</g>
<!-- X156db&#45;&gt;Xf6f10 -->
<g id="edge3" class="edge"><title>X156db&#45;&gt;Xf6f10</title>
<path fill="none" stroke="black" d="M475.218,-216.055C485.287,-207.134 497.787,-196.057 508.758,-186.336"/>
<polygon fill="black" stroke="black" points="511.256,-188.799 516.42,-179.547 506.614,-183.56 511.256,-188.799"/>
</g>
<!-- Xadf16 -->
<g id="node7" class="node"><title>Xadf16</title>
<g id="a_node7"><a xlink:href="http://sparql.cwrc.ca/ontologies/cwrc#christianity" xlink:title="Christianisme" target="_parent">
<ellipse fill="none" stroke="black" cx="848.095" cy="-90" rx="59.5901" ry="18"/>
<text text-anchor="middle" x="848.095" y="-86.3" font-family="Times,serif" font-size="14.00">Christianisme</text>
</a>
</g>
</g>
<!-- Xf6f10&#45;&gt;Xadf16 -->
<g id="edge12" class="edge"><title>Xf6f10&#45;&gt;Xadf16</title>
<path fill="none" stroke="black" d="M589.258,-148.887C645.873,-136.225 734.307,-116.448 791.731,-103.605"/>
<polygon fill="black" stroke="black" points="792.73,-106.968 801.725,-101.37 791.203,-100.137 792.73,-106.968"/>
</g>
<!-- Xe7b0a -->
<g id="node5" class="node"><title>Xe7b0a</title>
<g id="a_node5"><a xlink:href="http://sparql.cwrc.ca/ontologies/cwrc#neo-thomism" xlink:title="néothomisme" target="_parent">
<ellipse fill="none" stroke="black" cx="1119.09" cy="-234" rx="59.2899" ry="18"/>
<text text-anchor="middle" x="1119.09" y="-230.3" font-family="Times,serif" font-size="14.00">néothomisme</text>
</a>
</g>
</g>
<!-- X32f53 -->
<g id="node6" class="node"><title>X32f53</title>
<g id="a_node6"><a xlink:href="http://sparql.cwrc.ca/ontologies/cwrc#catholicism" xlink:title="Catholicisme" target="_parent">
<ellipse fill="none" stroke="black" cx="978.095" cy="-162" rx="57.6901" ry="18"/>
<text text-anchor="middle" x="978.095" y="-158.3" font-family="Times,serif" font-size="14.00">Catholicisme</text>
</a>
</g>
</g>
<!-- Xe7b0a&#45;&gt;X32f53 -->
<g id="edge4" class="edge"><title>Xe7b0a&#45;&gt;X32f53</title>
<path fill="none" stroke="black" d="M1089.54,-218.326C1068.39,-207.825 1039.71,-193.59 1016.75,-182.189"/>
<polygon fill="black" stroke="black" points="1018.13,-178.967 1007.61,-177.655 1015.01,-185.237 1018.13,-178.967"/>
</g>
<!-- X32f53&#45;&gt;Xadf16 -->
<g id="edge5" class="edge"><title>X32f53&#45;&gt;Xadf16</title>
<path fill="none" stroke="black" d="M950.525,-146.155C931.437,-135.877 905.817,-122.081 884.975,-110.859"/>
<polygon fill="black" stroke="black" points="886.537,-107.725 876.073,-106.065 883.218,-113.888 886.537,-107.725"/>
</g>
<!-- Xb2336 -->
<g id="node10" class="node"><title>Xb2336</title>
<g id="a_node10"><a xlink:href="http://sparql.cwrc.ca/ontologies/cwrc#abrahamicReligions" xlink:title="Religions abrahamiques" target="_parent">
<ellipse fill="none" stroke="black" cx="988.095" cy="-18" rx="96.3833" ry="18"/>
<text text-anchor="middle" x="988.095" y="-14.3" font-family="Times,serif" font-size="14.00">Religions abrahamiques</text>
</a>
</g>
</g>
<!-- Xadf16&#45;&gt;Xb2336 -->
<g id="edge8" class="edge"><title>Xadf16&#45;&gt;Xb2336</title>
<path fill="none" stroke="black" d="M877.785,-74.1548C897.871,-64.1116 924.675,-50.7098 946.831,-39.6318"/>
<polygon fill="black" stroke="black" points="948.63,-42.6456 956.009,-35.043 945.499,-36.3846 948.63,-42.6456"/>
</g>
<!-- Xe1e3e -->
<g id="node8" class="node"><title>Xe1e3e</title>
<g id="a_node8"><a xlink:href="http://sparql.cwrc.ca/ontologies/cwrc#methodism" xlink:title="Église méthodiste" target="_parent">
<ellipse fill="none" stroke="black" cx="456.095" cy="-306" rx="74.187" ry="18"/>
<text text-anchor="middle" x="456.095" y="-302.3" font-family="Times,serif" font-size="14.00">Église méthodiste</text>
</a>
</g>
</g>
<!-- Xe1e3e&#45;&gt;X156db -->
<g id="edge6" class="edge"><title>Xe1e3e&#45;&gt;X156db</title>
<path fill="none" stroke="black" d="M456.095,-287.697C456.095,-279.983 456.095,-270.712 456.095,-262.112"/>
<polygon fill="black" stroke="black" points="459.595,-262.104 456.095,-252.104 452.595,-262.104 459.595,-262.104"/>
</g>
<!-- X4e4b1 -->
<g id="node9" class="node"><title>X4e4b1</title>
<g id="a_node9"><a xlink:href="http://sparql.cwrc.ca/ontologies/cwrc#protestantism" xlink:title="protestantisme" target="_parent">
<ellipse fill="none" stroke="black" cx="773.095" cy="-162" rx="62.2891" ry="18"/>
<text text-anchor="middle" x="773.095" y="-158.3" font-family="Times,serif" font-size="14.00">protestantisme</text>
</a>
</g>
</g>
<!-- X4e4b1&#45;&gt;Xadf16 -->
<g id="edge7" class="edge"><title>X4e4b1&#45;&gt;Xadf16</title>
<path fill="none" stroke="black" d="M790.869,-144.411C800.559,-135.367 812.706,-124.03 823.313,-114.13"/>
<polygon fill="black" stroke="black" points="825.784,-116.61 830.707,-107.228 821.008,-111.493 825.784,-116.61"/>
</g>
<!-- Xd53bc -->
<g id="node11" class="node"><title>Xd53bc</title>
<g id="a_node11"><a xlink:href="http://sparql.cwrc.ca/ontologies/cwrc#baptistChristianity" xlink:title="Baptisme" target="_parent">
<ellipse fill="none" stroke="black" cx="524.095" cy="-378" rx="44.393" ry="18"/>
<text text-anchor="middle" x="524.095" y="-374.3" font-family="Times,serif" font-size="14.00">Baptisme</text>
</a>
</g>
</g>
<!-- Xd53bc&#45;&gt;X156db -->
<g id="edge9" class="edge"><title>Xd53bc&#45;&gt;X156db</title>
<path fill="none" stroke="black" d="M532.987,-360.192C541.576,-341.461 551.594,-310.811 539.095,-288 531.819,-274.721 519.644,-264.287 506.83,-256.318"/>
<polygon fill="black" stroke="black" points="508.323,-253.14 497.909,-251.191 504.835,-259.209 508.323,-253.14"/>
</g>
<!-- X43c0c -->
<g id="node12" class="node"><title>X43c0c</title>
<g id="a_node12"><a xlink:href="http://sparql.cwrc.ca/ontologies/cwrc#occultism" xlink:title="occultisme" target="_parent">
<ellipse fill="none" stroke="black" cx="1307.09" cy="-594" rx="49.2915" ry="18"/>
<text text-anchor="middle" x="1307.09" y="-590.3" font-family="Times,serif" font-size="14.00">occultisme</text>
</a>
</g>
</g>
<!-- Xc7ed9 -->
<g id="node13" class="node"><title>Xc7ed9</title>
<g id="a_node13"><a xlink:href="http://sparql.cwrc.ca/ontologies/cwrc#hinduism" xlink:title="hindouisme" target="_parent">
<ellipse fill="none" stroke="black" cx="1307.09" cy="-522" rx="51.9908" ry="18"/>
<text text-anchor="middle" x="1307.09" y="-518.3" font-family="Times,serif" font-size="14.00">hindouisme</text>
</a>
</g>
</g>
<!-- X43c0c&#45;&gt;Xc7ed9 -->
<!-- Xd35c6 -->
<g id="node15" class="node"><title>Xd35c6</title>
<g id="a_node15"><a xlink:href="http://sparql.cwrc.ca/ontologies/cwrc#spiritualism" xlink:title="Spritisme" target="_parent">
<ellipse fill="none" stroke="black" cx="1307.09" cy="-450" rx="44.6926" ry="18"/>
<text text-anchor="middle" x="1307.09" y="-446.3" font-family="Times,serif" font-size="14.00">Spritisme</text>
</a>
</g>
</g>
<!-- Xc7ed9&#45;&gt;Xd35c6 -->
<!-- X2a5d0 -->
<g id="node14" class="node"><title>X2a5d0</title>
<g id="a_node14"><a xlink:href="http://sparql.cwrc.ca/ontologies/cwrc#churchOfIreland" xlink:title="Église d&#39;Irlande" target="_parent">
<ellipse fill="none" stroke="black" cx="666.095" cy="-234" rx="65.7887" ry="18"/>
<text text-anchor="middle" x="666.095" y="-230.3" font-family="Times,serif" font-size="14.00">Église d&#39;Irlande</text>
</a>
</g>
</g>
<!-- X2a5d0&#45;&gt;Xf6f10 -->
<g id="edge11" class="edge"><title>X2a5d0&#45;&gt;Xf6f10</title>
<path fill="none" stroke="black" d="M637.346,-217.638C618.666,-207.657 594.091,-194.525 573.714,-183.636"/>
<polygon fill="black" stroke="black" points="575.153,-180.437 564.684,-178.811 571.854,-186.611 575.153,-180.437"/>
</g>
<!-- X37200 -->
<g id="node16" class="node"><title>X37200</title>
<g id="a_node16"><a xlink:href="http://sparql.cwrc.ca/ontologies/cwrc#paganism" xlink:title="Paganisme" target="_parent">
<ellipse fill="none" stroke="black" cx="1307.09" cy="-378" rx="49.2915" ry="18"/>
<text text-anchor="middle" x="1307.09" y="-374.3" font-family="Times,serif" font-size="14.00">Paganisme</text>
</a>
</g>
</g>
<!-- Xd35c6&#45;&gt;X37200 -->
<!-- X7152e -->
<g id="node27" class="node"><title>X7152e</title>
<g id="a_node27"><a xlink:href="http://sparql.cwrc.ca/ontologies/cwrc#atheism" xlink:title="athéisme" target="_parent">
<ellipse fill="none" stroke="black" cx="1307.09" cy="-306" rx="42.4939" ry="18"/>
<text text-anchor="middle" x="1307.09" y="-302.3" font-family="Times,serif" font-size="14.00">athéisme</text>
</a>
</g>
</g>
<!-- X37200&#45;&gt;X7152e -->
<!-- Xc1422 -->
<g id="node17" class="node"><title>Xc1422</title>
<g id="a_node17"><a xlink:href="http://sparql.cwrc.ca/ontologies/cwrc#islam" xlink:title="Mahométisme" target="_parent">
<ellipse fill="none" stroke="black" cx="988.095" cy="-90" rx="62.2891" ry="18"/>
<text text-anchor="middle" x="988.095" y="-86.3" font-family="Times,serif" font-size="14.00">Mahométisme</text>
</a>
</g>
</g>
<!-- Xc1422&#45;&gt;Xb2336 -->
<g id="edge15" class="edge"><title>Xc1422&#45;&gt;Xb2336</title>
<path fill="none" stroke="black" d="M976.338,-72.055C974.702,-64.3456 974.217,-55.0269 974.884,-46.3642"/>
<polygon fill="black" stroke="black" points="978.377,-46.6584 976.269,-36.2753 971.442,-45.7065 978.377,-46.6584"/>
</g>
<!-- Xc1422&#45;&gt;Xb2336 -->
<g id="edge16" class="edge"><title>Xc1422&#45;&gt;Xb2336</title>
<path fill="none" stroke="black" d="M988.095,-71.6966C988.095,-63.9827 988.095,-54.7125 988.095,-46.1124"/>
<polygon fill="black" stroke="black" points="991.595,-46.1043 988.095,-36.1043 984.595,-46.1044 991.595,-46.1043"/>
</g>
<!-- Xc1422&#45;&gt;Xb2336 -->
<g id="edge17" class="edge"><title>Xc1422&#45;&gt;Xb2336</title>
<path fill="none" stroke="black" d="M999.851,-72.055C1001.49,-64.3456 1001.97,-55.0269 1001.3,-46.3642"/>
<polygon fill="black" stroke="black" points="1004.75,-45.7065 999.92,-36.2753 997.813,-46.6584 1004.75,-45.7065"/>
</g>
<!-- X0e2fa -->
<g id="node18" class="node"><title>X0e2fa</title>
<g id="a_node18"><a xlink:href="http://sparql.cwrc.ca/ontologies/cwrc#presbyterianism" xlink:title="Presbytarianisme" target="_parent">
<ellipse fill="none" stroke="black" cx="553.095" cy="-450" rx="71.4873" ry="18"/>
<text text-anchor="middle" x="553.095" y="-446.3" font-family="Times,serif" font-size="14.00">Presbytarianisme</text>
</a>
</g>
</g>
<!-- X0e2fa&#45;&gt;X156db -->
<g id="edge18" class="edge"><title>X0e2fa&#45;&gt;X156db</title>
<path fill="none" stroke="black" d="M563.049,-431.978C568.366,-421.888 574.366,-408.638 577.095,-396 587.412,-348.202 586.979,-325.911 556.095,-288 544.735,-274.056 528.714,-263.308 512.817,-255.252"/>
<polygon fill="black" stroke="black" points="514.041,-251.959 503.508,-250.817 511.03,-258.278 514.041,-251.959"/>
</g>
<!-- X7477d -->
<g id="node19" class="node"><title>X7477d</title>
<g id="a_node19"><a xlink:href="http://sparql.cwrc.ca/ontologies/cwrc#congregationalism" xlink:title="Églises congrégationalistes" target="_parent">
<ellipse fill="none" stroke="black" cx="652.095" cy="-522" rx="106.681" ry="18"/>
<text text-anchor="middle" x="652.095" y="-518.3" font-family="Times,serif" font-size="14.00">Églises congrégationalistes</text>
</a>
</g>
</g>
<!-- X7477d&#45;&gt;X156db -->
<g id="edge19" class="edge"><title>X7477d&#45;&gt;X156db</title>
<path fill="none" stroke="black" d="M651.838,-503.818C650.277,-461.404 640.41,-350.639 581.095,-288 566.47,-272.556 546.625,-261.415 527.057,-253.461"/>
<polygon fill="black" stroke="black" points="528.087,-250.108 517.497,-249.808 525.589,-256.647 528.087,-250.108"/>
</g>
<!-- Xd32ac -->
<g id="node20" class="node"><title>Xd32ac</title>
<g id="a_node20"><a xlink:href="http://sparql.cwrc.ca/ontologies/cwrc#judaism" xlink:title="Judaïsme" target="_parent">
<ellipse fill="none" stroke="black" cx="1113.09" cy="-90" rx="44.393" ry="18"/>
<text text-anchor="middle" x="1113.09" y="-86.3" font-family="Times,serif" font-size="14.00">Judaïsme</text>
</a>
</g>
</g>
<!-- Xd32ac&#45;&gt;Xb2336 -->
<g id="edge20" class="edge"><title>Xd32ac&#45;&gt;Xb2336</title>
<path fill="none" stroke="black" d="M1088.1,-75.0027C1070.31,-65.0382 1046.08,-51.4695 1025.92,-40.1838"/>
<polygon fill="black" stroke="black" points="1027.42,-37.0126 1016.99,-35.1803 1024,-43.1202 1027.42,-37.0126"/>
</g>
<!-- X8fa8b -->
<g id="node21" class="node"><title>X8fa8b</title>
<g id="a_node21"><a xlink:href="http://sparql.cwrc.ca/ontologies/cwrc#plymouthBrethren" xlink:title="Frères de Schwarzenau" target="_parent">
<ellipse fill="none" stroke="black" cx="233.095" cy="-306" rx="92.8835" ry="18"/>
<text text-anchor="middle" x="233.095" y="-302.3" font-family="Times,serif" font-size="14.00">Frères de Schwarzenau</text>
</a>
</g>
</g>
<!-- X8fa8b&#45;&gt;X156db -->
<g id="edge21" class="edge"><title>X8fa8b&#45;&gt;X156db</title>
<path fill="none" stroke="black" d="M275.54,-289.897C308.426,-279.161 354.43,-264.684 391.806,-253.292"/>
<polygon fill="black" stroke="black" points="393.052,-256.572 401.604,-250.317 391.018,-249.874 393.052,-256.572"/>
</g>
<!-- X8fa8b&#45;&gt;X156db -->
<g id="edge22" class="edge"><title>X8fa8b&#45;&gt;X156db</title>
<path fill="none" stroke="black" d="M283.771,-290.834C318.904,-280.245 365.564,-265.654 401.51,-254.044"/>
<polygon fill="black" stroke="black" points="402.913,-257.268 411.346,-250.854 400.754,-250.61 402.913,-257.268"/>
</g>
<!-- Xb800b -->
<g id="node22" class="node"><title>Xb800b</title>
<g id="a_node22"><a xlink:href="http://sparql.cwrc.ca/ontologies/cwrc#tractarianMovement" xlink:title="tractarianisme" target="_parent">
<ellipse fill="none" stroke="black" cx="61.0946" cy="-306" rx="61.1893" ry="18"/>
<text text-anchor="middle" x="61.0946" y="-302.3" font-family="Times,serif" font-size="14.00">tractarianisme</text>
</a>
</g>
</g>
<!-- Xb800b&#45;&gt;Xf6f10 -->
<g id="edge23" class="edge"><title>Xb800b&#45;&gt;Xf6f10</title>
<path fill="none" stroke="black" d="M97.2238,-291.439C146.981,-273.027 239.593,-239.702 320.095,-216 370.217,-201.242 427.72,-187.216 470.638,-177.304"/>
<polygon fill="black" stroke="black" points="471.429,-180.713 480.392,-175.064 469.862,-173.891 471.429,-180.713"/>
</g>
<!-- X043aa -->
<g id="node23" class="node"><title>X043aa</title>
<g id="a_node23"><a xlink:href="http://sparql.cwrc.ca/ontologies/cwrc#unitarianism" xlink:title="unitarisme" target="_parent">
<ellipse fill="none" stroke="black" cx="354.095" cy="-594" rx="48.1917" ry="18"/>
<text text-anchor="middle" x="354.095" y="-590.3" font-family="Times,serif" font-size="14.00">unitarisme</text>
</a>
</g>
</g>
<!-- X043aa&#45;&gt;X156db -->
<g id="edge24" class="edge"><title>X043aa&#45;&gt;X156db</title>
<path fill="none" stroke="black" d="M354.095,-575.951C354.095,-549.292 354.095,-496.115 354.095,-451 354.095,-451 354.095,-451 354.095,-377 354.095,-336.553 350.043,-321.235 373.095,-288 382.127,-274.978 395.5,-264.437 408.887,-256.288"/>
<polygon fill="black" stroke="black" points="410.701,-259.283 417.64,-251.277 407.223,-253.208 410.701,-259.283"/>
</g>
<!-- X6f203 -->
<g id="node24" class="node"><title>X6f203</title>
<g id="a_node24"><a xlink:href="http://sparql.cwrc.ca/ontologies/cwrc#christianScience" xlink:title="Science Chrétienne" target="_parent">
<ellipse fill="none" stroke="black" cx="1133.09" cy="-162" rx="79.0865" ry="18"/>
<text text-anchor="middle" x="1133.09" y="-158.3" font-family="Times,serif" font-size="14.00">Science Chrétienne</text>
</a>
</g>
</g>
<!-- X6f203&#45;&gt;Xadf16 -->
<g id="edge25" class="edge"><title>X6f203&#45;&gt;Xadf16</title>
<path fill="none" stroke="black" d="M1081.15,-148.27C1037.4,-137.543 973.151,-121.783 917.095,-108 912.471,-106.863 907.673,-105.683 902.859,-104.498"/>
<polygon fill="black" stroke="black" points="903.551,-101.064 893.004,-102.071 901.877,-107.861 903.551,-101.064"/>
</g>
<!-- X1cc79 -->
<g id="node25" class="node"><title>X1cc79</title>
<g id="a_node25"><a xlink:href="http://sparql.cwrc.ca/ontologies/cwrc#lollardy" xlink:title="Lollardy" target="_parent">
<ellipse fill="none" stroke="black" cx="1032.09" cy="-306" rx="40.8928" ry="18"/>
<text text-anchor="middle" x="1032.09" y="-302.3" font-family="Times,serif" font-size="14.00">Lollardy</text>
</a>
</g>
</g>
<!-- X1cc79&#45;&gt;X32f53 -->
<g id="edge26" class="edge"><title>X1cc79&#45;&gt;X32f53</title>
<path fill="none" stroke="black" d="M1030.34,-287.7C1028.03,-269.338 1023.05,-239.751 1013.09,-216 1009.04,-206.339 1003.18,-196.55 997.406,-188.058"/>
<polygon fill="black" stroke="black" points="1000.14,-185.867 991.502,-179.738 994.435,-189.918 1000.14,-185.867"/>
</g>
<!-- X253de -->
<g id="node26" class="node"><title>X253de</title>
<g id="a_node26"><a xlink:href="http://sparql.cwrc.ca/ontologies/cwrc#quakerism" xlink:title="quaker" target="_parent">
<ellipse fill="none" stroke="black" cx="714.095" cy="-306" rx="34.394" ry="18"/>
<text text-anchor="middle" x="714.095" y="-302.3" font-family="Times,serif" font-size="14.00">quaker</text>
</a>
</g>
</g>
<!-- X253de&#45;&gt;X156db -->
<g id="edge27" class="edge"><title>X253de&#45;&gt;X156db</title>
<path fill="none" stroke="black" d="M686.826,-294.847C680.09,-292.476 672.864,-290.048 666.095,-288 621.375,-274.47 570.594,-261.588 530.17,-251.913"/>
<polygon fill="black" stroke="black" points="530.93,-248.496 520.392,-249.586 529.31,-255.306 530.93,-248.496"/>
</g>
<!-- X253de&#45;&gt;X4e4b1 -->
<g id="edge28" class="edge"><title>X253de&#45;&gt;X4e4b1</title>
<path fill="none" stroke="black" d="M723.154,-288.548C728.675,-278.211 735.684,-264.511 741.095,-252 750.017,-231.369 758.547,-207.353 764.553,-189.471"/>
<polygon fill="black" stroke="black" points="767.876,-190.57 767.7,-179.977 761.232,-188.368 767.876,-190.57"/>
</g>
<!-- X36b94 -->
<g id="node28" class="node"><title>X36b94</title>
<g id="a_node28"><a xlink:href="http://sparql.cwrc.ca/ontologies/cwrc#agnosticism" xlink:title="agnosticisme" target="_parent">
<ellipse fill="none" stroke="black" cx="1307.09" cy="-234" rx="57.3905" ry="18"/>
<text text-anchor="middle" x="1307.09" y="-230.3" font-family="Times,serif" font-size="14.00">agnosticisme</text>
</a>
</g>
</g>
<!-- X7152e&#45;&gt;X36b94 -->
<!-- X52798 -->
<g id="node29" class="node"><title>X52798</title>
<g id="a_node29"><a xlink:href="http://sparql.cwrc.ca/ontologies/cwrc#pantheism" xlink:title="Panthéisme" target="_parent">
<ellipse fill="none" stroke="black" cx="1307.09" cy="-162" rx="51.9908" ry="18"/>
<text text-anchor="middle" x="1307.09" y="-158.3" font-family="Times,serif" font-size="14.00">Panthéisme</text>
</a>
</g>
</g>
<!-- X36b94&#45;&gt;X52798 -->
<!-- X3b80a -->
<g id="node30" class="node"><title>X3b80a</title>
<g id="a_node30"><a xlink:href="http://sparql.cwrc.ca/ontologies/cwrc#buddhism" xlink:title="Bouddhisme" target="_parent">
<ellipse fill="none" stroke="black" cx="1307.09" cy="-90" rx="55.7903" ry="18"/>
<text text-anchor="middle" x="1307.09" y="-86.3" font-family="Times,serif" font-size="14.00">Bouddhisme</text>
</a>
</g>
</g>
<!-- X52798&#45;&gt;X3b80a -->
</g>
</svg>
