<?xml version="1.0" encoding="UTF-8" standalone="no"?>
<!DOCTYPE svg PUBLIC "-//W3C//DTD SVG 1.1//EN"
 "http://www.w3.org/Graphics/SVG/1.1/DTD/svg11.dtd">
<!-- Generated by graphviz version 2.38.0 (20140413.2041)
 -->
<!-- Title: ReligionGraph Pages: 1 -->
<svg width="1328pt" height="548pt"
 viewBox="0.00 0.00 1327.69 548.00" xmlns="http://www.w3.org/2000/svg" xmlns:xlink="http://www.w3.org/1999/xlink">
<g id="graph0" class="graph" transform="scale(1 1) rotate(0) translate(4 544)">
<title>ReligionGraph</title>
<polygon fill="white" stroke="none" points="-4,4 -4,-544 1323.69,-544 1323.69,4 -4,4"/>
<!-- Xadf16 -->
<g id="node1" class="node"><title>Xadf16</title>
<g id="a_node1"><a xlink:href="http://sparql.cwrc.ca/ontologies/cwrc#christianity" xlink:title="Christianity" target="_parent">
<ellipse fill="none" stroke="black" cx="412.196" cy="-306" rx="51.9908" ry="18"/>
<text text-anchor="middle" x="412.196" y="-302.3" font-family="Times,serif" font-size="14.00">Christianity</text>
</a>
</g>
</g>
<!-- Xb2336 -->
<g id="node2" class="node"><title>Xb2336</title>
<ellipse fill="none" stroke="black" cx="116.196" cy="-234" rx="38.9931" ry="18"/>
<text text-anchor="middle" x="116.196" y="-230.3" font-family="Times,serif" font-size="14.00">Xb2336</text>
</g>
<!-- Xadf16&#45;&gt;Xb2336 -->
<g id="edge1" class="edge"><title>Xadf16&#45;&gt;Xb2336</title>
<path fill="none" stroke="black" d="M370.414,-295.119C314.791,-281.965 216.86,-258.806 160.156,-245.396"/>
<polygon fill="black" stroke="black" points="160.943,-241.986 150.406,-243.09 159.332,-248.798 160.943,-241.986"/>
</g>
<!-- X1cc79 -->
<g id="node3" class="node"><title>X1cc79</title>
<g id="a_node3"><a xlink:href="http://sparql.cwrc.ca/ontologies/cwrc#lollardy" xlink:title="Lollardy" target="_parent">
<ellipse fill="none" stroke="black" cx="187.196" cy="-450" rx="40.8928" ry="18"/>
<text text-anchor="middle" x="187.196" y="-446.3" font-family="Times,serif" font-size="14.00">Lollardy</text>
</a>
</g>
</g>
<!-- X32f53 -->
<g id="node4" class="node"><title>X32f53</title>
<g id="a_node4"><a xlink:href="http://sparql.cwrc.ca/ontologies/cwrc#catholicism" xlink:title="Roman Catholicism" target="_parent">
<ellipse fill="none" stroke="black" cx="256.196" cy="-378" rx="81.7856" ry="18"/>
<text text-anchor="middle" x="256.196" y="-374.3" font-family="Times,serif" font-size="14.00">Roman Catholicism</text>
</a>
</g>
</g>
<!-- X1cc79&#45;&gt;X32f53 -->
<g id="edge2" class="edge"><title>X1cc79&#45;&gt;X32f53</title>
<path fill="none" stroke="black" d="M202.853,-433.116C211.598,-424.244 222.673,-413.009 232.463,-403.077"/>
<polygon fill="black" stroke="black" points="235.111,-405.376 239.639,-395.797 230.126,-400.462 235.111,-405.376"/>
</g>
<!-- X32f53&#45;&gt;Xadf16 -->
<g id="edge3" class="edge"><title>X32f53&#45;&gt;Xadf16</title>
<path fill="none" stroke="black" d="M290.431,-361.638C314.608,-350.79 347.079,-336.219 372.41,-324.853"/>
<polygon fill="black" stroke="black" points="374.045,-327.955 381.736,-320.668 371.179,-321.569 374.045,-327.955"/>
</g>
<!-- Xb45be -->
<g id="node5" class="node"><title>Xb45be</title>
<g id="a_node5"><a xlink:href="http://sparql.cwrc.ca/ontologies/cwrc#millenarianism" xlink:title="Millenarianism" target="_parent">
<ellipse fill="none" stroke="black" cx="474.196" cy="-162" rx="65.7887" ry="18"/>
<text text-anchor="middle" x="474.196" y="-158.3" font-family="Times,serif" font-size="14.00">Millenarianism</text>
</a>
</g>
</g>
<!-- Xf6f10 -->
<g id="node6" class="node"><title>Xf6f10</title>
<g id="a_node6"><a xlink:href="http://sparql.cwrc.ca/ontologies/cwrc#anglicanism" xlink:title="Anglicanism" target="_parent">
<ellipse fill="none" stroke="black" cx="412.196" cy="-378" rx="55.7903" ry="18"/>
<text text-anchor="middle" x="412.196" y="-374.3" font-family="Times,serif" font-size="14.00">Anglicanism</text>
</a>
</g>
</g>
<!-- Xf6f10&#45;&gt;Xadf16 -->
<g id="edge4" class="edge"><title>Xf6f10&#45;&gt;Xadf16</title>
<path fill="none" stroke="black" d="M412.196,-359.697C412.196,-351.983 412.196,-342.712 412.196,-334.112"/>
<polygon fill="black" stroke="black" points="415.696,-334.104 412.196,-324.104 408.696,-334.104 415.696,-334.104"/>
</g>
<!-- X52798 -->
<g id="node7" class="node"><title>X52798</title>
<g id="a_node7"><a xlink:href="http://sparql.cwrc.ca/ontologies/cwrc#pantheism" xlink:title="Pantheism" target="_parent">
<ellipse fill="none" stroke="black" cx="1222.2" cy="-522" rx="48.1917" ry="18"/>
<text text-anchor="middle" x="1222.2" y="-518.3" font-family="Times,serif" font-size="14.00">Pantheism</text>
</a>
</g>
</g>
<!-- Xc7ed9 -->
<g id="node8" class="node"><title>Xc7ed9</title>
<g id="a_node8"><a xlink:href="http://sparql.cwrc.ca/ontologies/cwrc#hinduism" xlink:title="Hinduism" target="_parent">
<ellipse fill="none" stroke="black" cx="1222.2" cy="-450" rx="46.2923" ry="18"/>
<text text-anchor="middle" x="1222.2" y="-446.3" font-family="Times,serif" font-size="14.00">Hinduism</text>
</a>
</g>
</g>
<!-- X52798&#45;&gt;Xc7ed9 -->
<!-- X3b80a -->
<g id="node9" class="node"><title>X3b80a</title>
<g id="a_node9"><a xlink:href="http://sparql.cwrc.ca/ontologies/cwrc#buddhism" xlink:title="Buddhism" target="_parent">
<ellipse fill="none" stroke="black" cx="1222.2" cy="-378" rx="47.3916" ry="18"/>
<text text-anchor="middle" x="1222.2" y="-374.3" font-family="Times,serif" font-size="14.00">Buddhism</text>
</a>
</g>
</g>
<!-- Xc7ed9&#45;&gt;X3b80a -->
<!-- X37200 -->
<g id="node10" class="node"><title>X37200</title>
<g id="a_node10"><a xlink:href="http://sparql.cwrc.ca/ontologies/cwrc#paganism" xlink:title="Paganism" target="_parent">
<ellipse fill="none" stroke="black" cx="1222.2" cy="-306" rx="45.4919" ry="18"/>
<text text-anchor="middle" x="1222.2" y="-302.3" font-family="Times,serif" font-size="14.00">Paganism</text>
</a>
</g>
</g>
<!-- X3b80a&#45;&gt;X37200 -->
<!-- Xd35c6 -->
<g id="node11" class="node"><title>Xd35c6</title>
<g id="a_node11"><a xlink:href="http://sparql.cwrc.ca/ontologies/cwrc#spiritualism" xlink:title="Spiritualism" target="_parent">
<ellipse fill="none" stroke="black" cx="1222.2" cy="-234" rx="53.8905" ry="18"/>
<text text-anchor="middle" x="1222.2" y="-230.3" font-family="Times,serif" font-size="14.00">Spiritualism</text>
</a>
</g>
</g>
<!-- X37200&#45;&gt;Xd35c6 -->
<!-- X7152e -->
<g id="node19" class="node"><title>X7152e</title>
<g id="a_node19"><a xlink:href="http://sparql.cwrc.ca/ontologies/cwrc#atheism" xlink:title="Atheism" target="_parent">
<ellipse fill="none" stroke="black" cx="1222.2" cy="-162" rx="40.8928" ry="18"/>
<text text-anchor="middle" x="1222.2" y="-158.3" font-family="Times,serif" font-size="14.00">Atheism</text>
</a>
</g>
</g>
<!-- Xd35c6&#45;&gt;X7152e -->
<!-- X2a5d0 -->
<g id="node12" class="node"><title>X2a5d0</title>
<g id="a_node12"><a xlink:href="http://sparql.cwrc.ca/ontologies/cwrc#churchOfIreland" xlink:title="Church of Ireland" target="_parent">
<ellipse fill="none" stroke="black" cx="357.196" cy="-450" rx="73.387" ry="18"/>
<text text-anchor="middle" x="357.196" y="-446.3" font-family="Times,serif" font-size="14.00">Church of Ireland</text>
</a>
</g>
</g>
<!-- X2a5d0&#45;&gt;Xf6f10 -->
<g id="edge9" class="edge"><title>X2a5d0&#45;&gt;Xf6f10</title>
<path fill="none" stroke="black" d="M370.51,-432.055C377.198,-423.543 385.428,-413.068 392.803,-403.681"/>
<polygon fill="black" stroke="black" points="395.579,-405.815 399.005,-395.789 390.074,-401.49 395.579,-405.815"/>
</g>
<!-- Xd53bc -->
<g id="node13" class="node"><title>Xd53bc</title>
<g id="a_node13"><a xlink:href="http://sparql.cwrc.ca/ontologies/cwrc#baptistChristianity" xlink:title="Baptist Christianity" target="_parent">
<ellipse fill="none" stroke="black" cx="731.196" cy="-234" rx="79.0865" ry="18"/>
<text text-anchor="middle" x="731.196" y="-230.3" font-family="Times,serif" font-size="14.00">Baptist Christianity</text>
</a>
</g>
</g>
<!-- X156db -->
<g id="node14" class="node"><title>X156db</title>
<g id="a_node14"><a xlink:href="http://sparql.cwrc.ca/ontologies/cwrc#dissentProtestant" xlink:title="Dissent (Protestant)" target="_parent">
<ellipse fill="none" stroke="black" cx="857.196" cy="-162" rx="80.6858" ry="18"/>
<text text-anchor="middle" x="857.196" y="-158.3" font-family="Times,serif" font-size="14.00">Dissent (Protestant)</text>
</a>
</g>
</g>
<!-- Xd53bc&#45;&gt;X156db -->
<g id="edge10" class="edge"><title>Xd53bc&#45;&gt;X156db</title>
<path fill="none" stroke="black" d="M759.787,-217.116C777.463,-207.296 800.353,-194.58 819.501,-183.942"/>
<polygon fill="black" stroke="black" points="821.24,-186.98 828.282,-179.064 817.84,-180.86 821.24,-186.98"/>
</g>
<!-- X6b84e -->
<g id="node15" class="node"><title>X6b84e</title>
<ellipse fill="none" stroke="black" cx="857.196" cy="-90" rx="38.1938" ry="18"/>
<text text-anchor="middle" x="857.196" y="-86.3" font-family="Times,serif" font-size="14.00">X6b84e</text>
</g>
<!-- X156db&#45;&gt;X6b84e -->
<g id="edge11" class="edge"><title>X156db&#45;&gt;X6b84e</title>
<path fill="none" stroke="black" d="M857.196,-143.697C857.196,-135.983 857.196,-126.712 857.196,-118.112"/>
<polygon fill="black" stroke="black" points="860.696,-118.104 857.196,-108.104 853.696,-118.104 860.696,-118.104"/>
</g>
<!-- X9deb8 -->
<g id="node16" class="node"><title>X9deb8</title>
<g id="a_node16"><a xlink:href="http://sparql.cwrc.ca/ontologies/cwrc#dissentingChristianity" xlink:title="Dissenting Christianity" target="_parent">
<ellipse fill="none" stroke="black" cx="578.196" cy="-450" rx="92.0841" ry="18"/>
<text text-anchor="middle" x="578.196" y="-446.3" font-family="Times,serif" font-size="14.00">Dissenting Christianity</text>
</a>
</g>
</g>
<!-- X4e4b1 -->
<g id="node17" class="node"><title>X4e4b1</title>
<g id="a_node17"><a xlink:href="http://sparql.cwrc.ca/ontologies/cwrc#protestantism" xlink:title="Protestantism" target="_parent">
<ellipse fill="none" stroke="black" cx="545.196" cy="-378" rx="59.2899" ry="18"/>
<text text-anchor="middle" x="545.196" y="-374.3" font-family="Times,serif" font-size="14.00">Protestantism</text>
</a>
</g>
</g>
<!-- X9deb8&#45;&gt;X4e4b1 -->
<g id="edge12" class="edge"><title>X9deb8&#45;&gt;X4e4b1</title>
<path fill="none" stroke="black" d="M570.208,-432.055C566.453,-424.091 561.89,-414.411 557.694,-405.51"/>
<polygon fill="black" stroke="black" points="560.77,-403.828 553.34,-396.275 554.439,-406.813 560.77,-403.828"/>
</g>
<!-- X4e4b1&#45;&gt;Xadf16 -->
<g id="edge13" class="edge"><title>X4e4b1&#45;&gt;Xadf16</title>
<path fill="none" stroke="black" d="M516.99,-362.155C496.974,-351.62 469.936,-337.39 448.339,-326.022"/>
<polygon fill="black" stroke="black" points="449.931,-322.905 439.452,-321.345 446.671,-329.1 449.931,-322.905"/>
</g>
<!-- Xe7b0a -->
<g id="node18" class="node"><title>Xe7b0a</title>
<g id="a_node18"><a xlink:href="http://sparql.cwrc.ca/ontologies/cwrc#neo-thomism" xlink:title="Neo&#45;thomism" target="_parent">
<ellipse fill="none" stroke="black" cx="256.196" cy="-522" rx="59.5901" ry="18"/>
<text text-anchor="middle" x="256.196" y="-518.3" font-family="Times,serif" font-size="14.00">Neo&#45;thomism</text>
</a>
</g>
</g>
<!-- Xe7b0a&#45;&gt;X32f53 -->
<g id="edge14" class="edge"><title>Xe7b0a&#45;&gt;X32f53</title>
<path fill="none" stroke="black" d="M256.196,-503.871C256.196,-479.67 256.196,-435.211 256.196,-406.393"/>
<polygon fill="black" stroke="black" points="259.696,-406.189 256.196,-396.189 252.696,-406.189 259.696,-406.189"/>
</g>
<!-- X36b94 -->
<g id="node20" class="node"><title>X36b94</title>
<g id="a_node20"><a xlink:href="http://sparql.cwrc.ca/ontologies/cwrc#agnosticism" xlink:title="Agnosticism" target="_parent">
<ellipse fill="none" stroke="black" cx="1222.2" cy="-90" rx="55.7903" ry="18"/>
<text text-anchor="middle" x="1222.2" y="-86.3" font-family="Times,serif" font-size="14.00">Agnosticism</text>
</a>
</g>
</g>
<!-- X7152e&#45;&gt;X36b94 -->
<!-- X43c0c -->
<g id="node28" class="node"><title>X43c0c</title>
<g id="a_node28"><a xlink:href="http://sparql.cwrc.ca/ontologies/cwrc#occultism" xlink:title="Occultism/Theosophism" target="_parent">
<ellipse fill="none" stroke="black" cx="1222.2" cy="-18" rx="97.4827" ry="18"/>
<text text-anchor="middle" x="1222.2" y="-14.3" font-family="Times,serif" font-size="14.00">Occultism/Theosophism</text>
</a>
</g>
</g>
<!-- X36b94&#45;&gt;X43c0c -->
<!-- Xc1422 -->
<g id="node21" class="node"><title>Xc1422</title>
<g id="a_node21"><a xlink:href="http://sparql.cwrc.ca/ontologies/cwrc#islam" xlink:title="Islamism" target="_parent">
<ellipse fill="none" stroke="black" cx="44.1961" cy="-306" rx="44.393" ry="18"/>
<text text-anchor="middle" x="44.1961" y="-302.3" font-family="Times,serif" font-size="14.00">Islamism</text>
</a>
</g>
</g>
<!-- Xc1422&#45;&gt;Xb2336 -->
<g id="edge17" class="edge"><title>Xc1422&#45;&gt;Xb2336</title>
<path fill="none" stroke="black" d="M60.534,-289.116C70.0158,-279.897 82.1227,-268.127 92.6222,-257.919"/>
<polygon fill="black" stroke="black" points="95.1926,-260.302 99.9228,-250.821 90.3131,-255.283 95.1926,-260.302"/>
</g>
<!-- X8fa8b -->
<g id="node22" class="node"><title>X8fa8b</title>
<g id="a_node22"><a xlink:href="http://sparql.cwrc.ca/ontologies/cwrc#plymouthBrethren" xlink:title="Plymouth Brethren" target="_parent">
<ellipse fill="none" stroke="black" cx="389.196" cy="-234" rx="78.7863" ry="18"/>
<text text-anchor="middle" x="389.196" y="-230.3" font-family="Times,serif" font-size="14.00">Plymouth Brethren</text>
</a>
</g>
</g>
<!-- X8fa8b&#45;&gt;Xb45be -->
<g id="edge18" class="edge"><title>X8fa8b&#45;&gt;Xb45be</title>
<path fill="none" stroke="black" d="M409.34,-216.411C420.429,-207.279 434.356,-195.809 446.46,-185.842"/>
<polygon fill="black" stroke="black" points="448.996,-188.287 454.49,-179.228 444.546,-182.884 448.996,-188.287"/>
</g>
<!-- X8fa8b&#45;&gt;X156db -->
<g id="edge19" class="edge"><title>X8fa8b&#45;&gt;X156db</title>
<path fill="none" stroke="black" d="M446.396,-221.501C456.635,-219.571 467.219,-217.658 477.196,-216 580.958,-198.754 701.297,-182.618 778.282,-172.785"/>
<polygon fill="black" stroke="black" points="778.906,-176.233 788.384,-171.499 778.022,-169.289 778.906,-176.233"/>
</g>
<!-- X043aa -->
<g id="node23" class="node"><title>X043aa</title>
<g id="a_node23"><a xlink:href="http://sparql.cwrc.ca/ontologies/cwrc#unitarianism" xlink:title="Unitarianism" target="_parent">
<ellipse fill="none" stroke="black" cx="791.196" cy="-306" rx="57.3905" ry="18"/>
<text text-anchor="middle" x="791.196" y="-302.3" font-family="Times,serif" font-size="14.00">Unitarianism</text>
</a>
</g>
</g>
<!-- X043aa&#45;&gt;X156db -->
<g id="edge20" class="edge"><title>X043aa&#45;&gt;X156db</title>
<path fill="none" stroke="black" d="M800.638,-287.996C806.246,-277.689 813.375,-264.212 819.196,-252 829.031,-231.366 839.146,-207.526 846.464,-189.716"/>
<polygon fill="black" stroke="black" points="849.79,-190.83 850.325,-180.249 843.308,-188.187 849.79,-190.83"/>
</g>
<!-- X253de -->
<g id="node24" class="node"><title>X253de</title>
<g id="a_node24"><a xlink:href="http://sparql.cwrc.ca/ontologies/cwrc#quakerism" xlink:title="Quakerism" target="_parent">
<ellipse fill="none" stroke="black" cx="836.196" cy="-378" rx="50.0912" ry="18"/>
<text text-anchor="middle" x="836.196" y="-374.3" font-family="Times,serif" font-size="14.00">Quakerism</text>
</a>
</g>
</g>
<!-- X253de&#45;&gt;X156db -->
<g id="edge21" class="edge"><title>X253de&#45;&gt;X156db</title>
<path fill="none" stroke="black" d="M844.914,-359.833C849.571,-349.694 854.821,-336.444 857.196,-324 866.049,-277.626 863.22,-222.359 860.27,-190.122"/>
<polygon fill="black" stroke="black" points="863.748,-189.726 859.282,-180.118 856.782,-190.414 863.748,-189.726"/>
</g>
<!-- X7477d -->
<g id="node25" class="node"><title>X7477d</title>
<g id="a_node25"><a xlink:href="http://sparql.cwrc.ca/ontologies/cwrc#congregationalism" xlink:title="Congregationalism" target="_parent">
<ellipse fill="none" stroke="black" cx="880.196" cy="-450" rx="77.9862" ry="18"/>
<text text-anchor="middle" x="880.196" y="-446.3" font-family="Times,serif" font-size="14.00">Congregationalism</text>
</a>
</g>
</g>
<!-- X7477d&#45;&gt;X156db -->
<g id="edge22" class="edge"><title>X7477d&#45;&gt;X156db</title>
<path fill="none" stroke="black" d="M886.434,-431.593C889.763,-421.374 893.513,-408.124 895.196,-396 902.93,-340.274 882.388,-236.979 877.196,-216 875.046,-207.312 871.898,-198.104 868.732,-189.843"/>
<polygon fill="black" stroke="black" points="871.892,-188.32 864.928,-180.335 865.393,-190.92 871.892,-188.32"/>
</g>
<!-- Xb800b -->
<g id="node26" class="node"><title>Xb800b</title>
<g id="a_node26"><a xlink:href="http://sparql.cwrc.ca/ontologies/cwrc#tractarianMovement" xlink:title="Tractarian Movement" target="_parent">
<ellipse fill="none" stroke="black" cx="458.196" cy="-522" rx="88.2844" ry="18"/>
<text text-anchor="middle" x="458.196" y="-518.3" font-family="Times,serif" font-size="14.00">Tractarian Movement</text>
</a>
</g>
</g>
<!-- Xb800b&#45;&gt;Xf6f10 -->
<g id="edge23" class="edge"><title>Xb800b&#45;&gt;Xf6f10</title>
<path fill="none" stroke="black" d="M455.903,-503.907C453.152,-485.717 447.803,-456.273 439.196,-432 435.987,-422.948 431.546,-413.479 427.192,-405.089"/>
<polygon fill="black" stroke="black" points="430.205,-403.303 422.383,-396.156 424.041,-406.621 430.205,-403.303"/>
</g>
<!-- Xd2614 -->
<g id="node27" class="node"><title>Xd2614</title>
<g id="a_node27"><a xlink:href="http://sparql.cwrc.ca/ontologies/cwrc#fifthMonarchists" xlink:title="Fifth Monarchists" target="_parent">
<ellipse fill="none" stroke="black" cx="560.196" cy="-234" rx="74.187" ry="18"/>
<text text-anchor="middle" x="560.196" y="-230.3" font-family="Times,serif" font-size="14.00">Fifth Monarchists</text>
</a>
</g>
</g>
<!-- Xd2614&#45;&gt;Xb45be -->
<g id="edge24" class="edge"><title>Xd2614&#45;&gt;Xb45be</title>
<path fill="none" stroke="black" d="M539.815,-216.411C528.488,-207.191 514.233,-195.588 501.906,-185.555"/>
<polygon fill="black" stroke="black" points="504.099,-182.827 494.134,-179.228 499.68,-188.256 504.099,-182.827"/>
</g>
<!-- Xd2614&#45;&gt;X156db -->
<g id="edge25" class="edge"><title>Xd2614&#45;&gt;X156db</title>
<path fill="none" stroke="black" d="M611.59,-220.887C662.231,-208.951 739.7,-190.693 794.06,-177.881"/>
<polygon fill="black" stroke="black" points="794.999,-181.255 803.93,-175.554 793.393,-174.442 794.999,-181.255"/>
</g>
<!-- X6f203 -->
<g id="node29" class="node"><title>X6f203</title>
<g id="a_node29"><a xlink:href="http://sparql.cwrc.ca/ontologies/cwrc#christianScience" xlink:title="Christian Science" target="_parent">
<ellipse fill="none" stroke="black" cx="695.196" cy="-378" rx="72.5877" ry="18"/>
<text text-anchor="middle" x="695.196" y="-374.3" font-family="Times,serif" font-size="14.00">Christian Science</text>
</a>
</g>
</g>
<!-- X6f203&#45;&gt;Xadf16 -->
<g id="edge27" class="edge"><title>X6f203&#45;&gt;Xadf16</title>
<path fill="none" stroke="black" d="M645.577,-364.727C594.454,-352.081 515.14,-332.463 463.431,-319.673"/>
<polygon fill="black" stroke="black" points="464.022,-316.214 453.474,-317.21 462.341,-323.009 464.022,-316.214"/>
</g>
<!-- Xe1e3e -->
<g id="node30" class="node"><title>Xe1e3e</title>
<g id="a_node30"><a xlink:href="http://sparql.cwrc.ca/ontologies/cwrc#methodism" xlink:title="Methodism" target="_parent">
<ellipse fill="none" stroke="black" cx="986.196" cy="-522" rx="51.9908" ry="18"/>
<text text-anchor="middle" x="986.196" y="-518.3" font-family="Times,serif" font-size="14.00">Methodism</text>
</a>
</g>
</g>
<!-- Xe1e3e&#45;&gt;X156db -->
<g id="edge28" class="edge"><title>Xe1e3e&#45;&gt;X156db</title>
<path fill="none" stroke="black" d="M986.196,-503.951C986.196,-477.292 986.196,-424.115 986.196,-379 986.196,-379 986.196,-379 986.196,-305 986.196,-250.731 933.938,-208.019 895.944,-184.138"/>
<polygon fill="black" stroke="black" points="897.477,-180.973 887.116,-178.761 893.836,-186.952 897.477,-180.973"/>
</g>
<!-- X0e2fa -->
<g id="node31" class="node"><title>X0e2fa</title>
<g id="a_node31"><a xlink:href="http://sparql.cwrc.ca/ontologies/cwrc#presbyterianism" xlink:title="Presbyterianism" target="_parent">
<ellipse fill="none" stroke="black" cx="1082.2" cy="-234" rx="67.6881" ry="18"/>
<text text-anchor="middle" x="1082.2" y="-230.3" font-family="Times,serif" font-size="14.00">Presbyterianism</text>
</a>
</g>
</g>
<!-- X0e2fa&#45;&gt;X156db -->
<g id="edge29" class="edge"><title>X0e2fa&#45;&gt;X156db</title>
<path fill="none" stroke="black" d="M1039.88,-219.834C1003.73,-208.588 951.493,-192.337 912.128,-180.09"/>
<polygon fill="black" stroke="black" points="913.004,-176.697 902.415,-177.068 910.924,-183.381 913.004,-176.697"/>
</g>
<!-- Xd32ac -->
<g id="node32" class="node"><title>Xd32ac</title>
<g id="a_node32"><a xlink:href="http://sparql.cwrc.ca/ontologies/cwrc#judaism" xlink:title="Judaism" target="_parent">
<ellipse fill="none" stroke="black" cx="116.196" cy="-378" rx="40.0939" ry="18"/>
<text text-anchor="middle" x="116.196" y="-374.3" font-family="Times,serif" font-size="14.00">Judaism</text>
</a>
</g>
</g>
<!-- Xd32ac&#45;&gt;Xb2336 -->
<g id="edge30" class="edge"><title>Xd32ac&#45;&gt;Xb2336</title>
<path fill="none" stroke="black" d="M116.196,-359.871C116.196,-335.67 116.196,-291.211 116.196,-262.393"/>
<polygon fill="black" stroke="black" points="119.696,-262.189 116.196,-252.189 112.696,-262.189 119.696,-262.189"/>
</g>
</g>
</svg>
