<?xml version="1.0" encoding="UTF-8" standalone="no"?>
<!DOCTYPE svg PUBLIC "-//W3C//DTD SVG 1.1//EN"
 "http://www.w3.org/Graphics/SVG/1.1/DTD/svg11.dtd">
<!-- Generated by graphviz version 2.38.0 (20140413.2041)
 -->
<!-- Title: ReligionGraph Pages: 1 -->
<svg width="2072pt" height="548pt"
 viewBox="0.00 0.00 2071.69 548.00" xmlns="http://www.w3.org/2000/svg" xmlns:xlink="http://www.w3.org/1999/xlink">
<g id="graph0" class="graph" transform="scale(1 1) rotate(0) translate(4 544)">
<title>ReligionGraph</title>
<polygon fill="white" stroke="none" points="-4,4 -4,-544 2067.69,-544 2067.69,4 -4,4"/>
<!-- X4e4b1 -->
<g id="node1" class="node"><title>X4e4b1</title>
<g id="a_node1"><a xlink:href="http://sparql.cwrc.ca/ontologies/cwrc#protestantism" xlink:title="Protestantism" target="_parent">
<ellipse fill="none" stroke="black" cx="997.295" cy="-162" rx="76.8869" ry="18"/>
<text text-anchor="middle" x="997.295" y="-158.3" font-family="Times,serif" font-size="14.00">Protestantism</text>
</a>
</g>
</g>
<!-- Xadf16 -->
<g id="node2" class="node"><title>Xadf16</title>
<g id="a_node2"><a xlink:href="http://sparql.cwrc.ca/ontologies/cwrc#christianity" xlink:title="Christianity" target="_parent">
<ellipse fill="none" stroke="black" cx="447.295" cy="-90" rx="66.0889" ry="18"/>
<text text-anchor="middle" x="447.295" y="-86.3" font-family="Times,serif" font-size="14.00">Christianity</text>
</a>
</g>
</g>
<!-- X4e4b1&#45;&gt;Xadf16 -->
<g id="edge1" class="edge"><title>X4e4b1&#45;&gt;Xadf16</title>
<path fill="none" stroke="black" d="M931.499,-152.626C826.673,-139.284 622.735,-113.329 516.067,-99.7528"/>
<polygon fill="black" stroke="black" points="516.416,-96.2691 506.055,-98.4785 515.533,-103.213 516.416,-96.2691"/>
</g>
<!-- Xb2336 -->
<g id="node3" class="node"><title>Xb2336</title>
<g id="a_node3"><a xlink:href="http://sparql.cwrc.ca/ontologies/cwrc#abrahamicReligions" xlink:title="Abrahamic religions" target="_parent">
<ellipse fill="none" stroke="black" cx="134.295" cy="-18" rx="104.782" ry="18"/>
<text text-anchor="middle" x="134.295" y="-14.3" font-family="Times,serif" font-size="14.00">Abrahamic religions</text>
</a>
</g>
</g>
<!-- Xadf16&#45;&gt;Xb2336 -->
<g id="edge2" class="edge"><title>Xadf16&#45;&gt;Xb2336</title>
<path fill="none" stroke="black" d="M397.699,-77.9083C345.881,-66.3195 264.11,-48.0321 205.422,-34.9069"/>
<polygon fill="black" stroke="black" points="206.001,-31.45 195.478,-32.683 204.473,-38.2813 206.001,-31.45"/>
</g>
<!-- Xd35c6 -->
<g id="node4" class="node"><title>Xd35c6</title>
<g id="a_node4"><a xlink:href="http://sparql.cwrc.ca/ontologies/cwrc#spiritualism" xlink:title="Spiritualism" target="_parent">
<ellipse fill="none" stroke="black" cx="1699.3" cy="-522" rx="67.6881" ry="18"/>
<text text-anchor="middle" x="1699.3" y="-518.3" font-family="Times,serif" font-size="14.00">Spiritualism</text>
</a>
</g>
</g>
<!-- X43c0c -->
<g id="node5" class="node"><title>X43c0c</title>
<g id="a_node5"><a xlink:href="http://sparql.cwrc.ca/ontologies/cwrc#occultism" xlink:title="Occultism/Theosophism" target="_parent">
<ellipse fill="none" stroke="black" cx="1699.3" cy="-450" rx="122.379" ry="18"/>
<text text-anchor="middle" x="1699.3" y="-446.3" font-family="Times,serif" font-size="14.00">Occultism/Theosophism</text>
</a>
</g>
</g>
<!-- Xd35c6&#45;&gt;X43c0c -->
<!-- X3b80a -->
<g id="node6" class="node"><title>X3b80a</title>
<g id="a_node6"><a xlink:href="http://sparql.cwrc.ca/ontologies/cwrc#buddhism" xlink:title="Buddhism" target="_parent">
<ellipse fill="none" stroke="black" cx="1699.3" cy="-378" rx="57.6901" ry="18"/>
<text text-anchor="middle" x="1699.3" y="-374.3" font-family="Times,serif" font-size="14.00">Buddhism</text>
</a>
</g>
</g>
<!-- X43c0c&#45;&gt;X3b80a -->
<!-- X930a7 -->
<g id="node17" class="node"><title>X930a7</title>
<g id="a_node17"><a xlink:href="http://sparql.cwrc.ca/ontologies/cwrc#Pantheism" xlink:title="Pantheism" target="_parent">
<ellipse fill="none" stroke="black" cx="1699.3" cy="-306" rx="59.5901" ry="18"/>
<text text-anchor="middle" x="1699.3" y="-302.3" font-family="Times,serif" font-size="14.00">Pantheism</text>
</a>
</g>
</g>
<!-- X3b80a&#45;&gt;X930a7 -->
<!-- Xe7b0a -->
<g id="node7" class="node"><title>Xe7b0a</title>
<g id="a_node7"><a xlink:href="http://sparql.cwrc.ca/ontologies/cwrc#neo-thomism" xlink:title="Neo&#45;thomism" target="_parent">
<ellipse fill="none" stroke="black" cx="1913.3" cy="-450" rx="73.387" ry="18"/>
<text text-anchor="middle" x="1913.3" y="-446.3" font-family="Times,serif" font-size="14.00">Neo&#45;thomism</text>
</a>
</g>
</g>
<!-- X752f2 -->
<g id="node8" class="node"><title>X752f2</title>
<ellipse fill="none" stroke="black" cx="1963.3" cy="-378" rx="44.393" ry="18"/>
<text text-anchor="middle" x="1963.3" y="-374.3" font-family="Times,serif" font-size="14.00">X752f2</text>
</g>
<!-- Xe7b0a&#45;&gt;X752f2 -->
<g id="edge5" class="edge"><title>Xe7b0a&#45;&gt;X752f2</title>
<path fill="none" stroke="black" d="M1925.4,-432.055C1931.42,-423.629 1938.81,-413.28 1945.46,-403.966"/>
<polygon fill="black" stroke="black" points="1948.34,-405.961 1951.3,-395.789 1942.64,-401.892 1948.34,-405.961"/>
</g>
<!-- Xd53bc -->
<g id="node9" class="node"><title>Xd53bc</title>
<g id="a_node9"><a xlink:href="http://sparql.cwrc.ca/ontologies/cwrc#baptistChristianity" xlink:title="Baptist Christianity" target="_parent">
<ellipse fill="none" stroke="black" cx="790.295" cy="-234" rx="102.882" ry="18"/>
<text text-anchor="middle" x="790.295" y="-230.3" font-family="Times,serif" font-size="14.00">Baptist Christianity</text>
</a>
</g>
</g>
<!-- Xd53bc&#45;&gt;X4e4b1 -->
<g id="edge6" class="edge"><title>Xd53bc&#45;&gt;X4e4b1</title>
<path fill="none" stroke="black" d="M835.211,-217.811C867.678,-206.832 911.614,-191.974 945.551,-180.498"/>
<polygon fill="black" stroke="black" points="946.937,-183.724 955.289,-177.205 944.695,-177.093 946.937,-183.724"/>
</g>
<!-- X043aa -->
<g id="node10" class="node"><title>X043aa</title>
<g id="a_node10"><a xlink:href="http://sparql.cwrc.ca/ontologies/cwrc#unitarianism" xlink:title="Unitarianism" target="_parent">
<ellipse fill="none" stroke="black" cx="860.295" cy="-306" rx="71.4873" ry="18"/>
<text text-anchor="middle" x="860.295" y="-302.3" font-family="Times,serif" font-size="14.00">Unitarianism</text>
</a>
</g>
</g>
<!-- X043aa&#45;&gt;X4e4b1 -->
<g id="edge7" class="edge"><title>X043aa&#45;&gt;X4e4b1</title>
<path fill="none" stroke="black" d="M876.208,-288.204C893.236,-270.263 921.072,-241.023 945.295,-216 954.541,-206.449 964.776,-195.992 973.703,-186.909"/>
<polygon fill="black" stroke="black" points="976.324,-189.236 980.844,-179.653 971.335,-184.326 976.324,-189.236"/>
</g>
<!-- X156db -->
<g id="node11" class="node"><title>X156db</title>
<g id="a_node11"><a xlink:href="http://sparql.cwrc.ca/ontologies/cwrc#dissentProtestant" xlink:title="Dissent (Protestant)" target="_parent">
<ellipse fill="none" stroke="black" cx="135.295" cy="-234" rx="104.782" ry="18"/>
<text text-anchor="middle" x="135.295" y="-230.3" font-family="Times,serif" font-size="14.00">Dissent (Protestant)</text>
</a>
</g>
</g>
<!-- Xf6f10 -->
<g id="node12" class="node"><title>Xf6f10</title>
<g id="a_node12"><a xlink:href="http://sparql.cwrc.ca/ontologies/cwrc#anglicanism" xlink:title="Anglicanism" target="_parent">
<ellipse fill="none" stroke="black" cx="268.295" cy="-162" rx="68.4888" ry="18"/>
<text text-anchor="middle" x="268.295" y="-158.3" font-family="Times,serif" font-size="14.00">Anglicanism</text>
</a>
</g>
</g>
<!-- X156db&#45;&gt;Xf6f10 -->
<g id="edge8" class="edge"><title>X156db&#45;&gt;Xf6f10</title>
<path fill="none" stroke="black" d="M166.142,-216.765C185.175,-206.748 209.738,-193.82 230.008,-183.151"/>
<polygon fill="black" stroke="black" points="231.765,-186.182 238.984,-178.427 228.505,-179.987 231.765,-186.182"/>
</g>
<!-- Xf6f10&#45;&gt;Xadf16 -->
<g id="edge9" class="edge"><title>Xf6f10&#45;&gt;Xadf16</title>
<path fill="none" stroke="black" d="M304.951,-146.666C332.916,-135.729 371.605,-120.6 401.59,-108.873"/>
<polygon fill="black" stroke="black" points="402.957,-112.097 410.995,-105.196 400.407,-105.578 402.957,-112.097"/>
</g>
<!-- X6f203 -->
<g id="node13" class="node"><title>X6f203</title>
<g id="a_node13"><a xlink:href="http://sparql.cwrc.ca/ontologies/cwrc#christianScience" xlink:title="Christian Science" target="_parent">
<ellipse fill="none" stroke="black" cx="447.295" cy="-162" rx="92.8835" ry="18"/>
<text text-anchor="middle" x="447.295" y="-158.3" font-family="Times,serif" font-size="14.00">Christian Science</text>
</a>
</g>
</g>
<!-- X6f203&#45;&gt;Xadf16 -->
<g id="edge10" class="edge"><title>X6f203&#45;&gt;Xadf16</title>
<path fill="none" stroke="black" d="M447.295,-143.697C447.295,-135.983 447.295,-126.712 447.295,-118.112"/>
<polygon fill="black" stroke="black" points="450.795,-118.104 447.295,-108.104 443.795,-118.104 450.795,-118.104"/>
</g>
<!-- X9deb8 -->
<g id="node14" class="node"><title>X9deb8</title>
<g id="a_node14"><a xlink:href="http://sparql.cwrc.ca/ontologies/cwrc#dissentingChristianity" xlink:title="Dissenting Christianity" target="_parent">
<ellipse fill="none" stroke="black" cx="850.295" cy="-378" rx="118.879" ry="18"/>
<text text-anchor="middle" x="850.295" y="-374.3" font-family="Times,serif" font-size="14.00">Dissenting Christianity</text>
</a>
</g>
</g>
<!-- X9deb8&#45;&gt;X4e4b1 -->
<g id="edge11" class="edge"><title>X9deb8&#45;&gt;X4e4b1</title>
<path fill="none" stroke="black" d="M890.512,-360.893C907.861,-352.205 927.146,-339.95 940.295,-324 957.559,-303.058 979.28,-229.738 990.255,-189.659"/>
<polygon fill="black" stroke="black" points="993.634,-190.572 992.867,-180.005 986.877,-188.744 993.634,-190.572"/>
</g>
<!-- Xe1e3e -->
<g id="node15" class="node"><title>Xe1e3e</title>
<g id="a_node15"><a xlink:href="http://sparql.cwrc.ca/ontologies/cwrc#methodism" xlink:title="Methodism" target="_parent">
<ellipse fill="none" stroke="black" cx="943.295" cy="-450" rx="63.8893" ry="18"/>
<text text-anchor="middle" x="943.295" y="-446.3" font-family="Times,serif" font-size="14.00">Methodism</text>
</a>
</g>
</g>
<!-- Xe1e3e&#45;&gt;X4e4b1 -->
<g id="edge12" class="edge"><title>Xe1e3e&#45;&gt;X4e4b1</title>
<path fill="none" stroke="black" d="M957.697,-432.039C965.211,-422.177 973.76,-409.133 978.295,-396 1002.83,-324.942 1001.81,-234.732 999.368,-190.284"/>
<polygon fill="black" stroke="black" points="1002.86,-190.025 998.749,-180.26 995.872,-190.457 1002.86,-190.025"/>
</g>
<!-- Xb45be -->
<g id="node16" class="node"><title>Xb45be</title>
<g id="a_node16"><a xlink:href="http://sparql.cwrc.ca/ontologies/cwrc#millenarianism" xlink:title="Millenarianism" target="_parent">
<ellipse fill="none" stroke="black" cx="1530.3" cy="-162" rx="81.4863" ry="18"/>
<text text-anchor="middle" x="1530.3" y="-158.3" font-family="Times,serif" font-size="14.00">Millenarianism</text>
</a>
</g>
</g>
<!-- Xc7ed9 -->
<g id="node22" class="node"><title>Xc7ed9</title>
<g id="a_node22"><a xlink:href="http://sparql.cwrc.ca/ontologies/cwrc#hinduism" xlink:title="Hinduism" target="_parent">
<ellipse fill="none" stroke="black" cx="1699.3" cy="-234" rx="55.7903" ry="18"/>
<text text-anchor="middle" x="1699.3" y="-230.3" font-family="Times,serif" font-size="14.00">Hinduism</text>
</a>
</g>
</g>
<!-- X930a7&#45;&gt;Xc7ed9 -->
<!-- Xb800b -->
<g id="node18" class="node"><title>Xb800b</title>
<g id="a_node18"><a xlink:href="http://sparql.cwrc.ca/ontologies/cwrc#tractarianMovement" xlink:title="Tractarian Movement" target="_parent">
<ellipse fill="none" stroke="black" cx="268.295" cy="-306" rx="112.38" ry="18"/>
<text text-anchor="middle" x="268.295" y="-302.3" font-family="Times,serif" font-size="14.00">Tractarian Movement</text>
</a>
</g>
</g>
<!-- Xb800b&#45;&gt;Xf6f10 -->
<g id="edge14" class="edge"><title>Xb800b&#45;&gt;Xf6f10</title>
<path fill="none" stroke="black" d="M268.295,-287.871C268.295,-263.67 268.295,-219.211 268.295,-190.393"/>
<polygon fill="black" stroke="black" points="271.795,-190.189 268.295,-180.189 264.795,-190.189 271.795,-190.189"/>
</g>
<!-- X1cc79 -->
<g id="node19" class="node"><title>X1cc79</title>
<g id="a_node19"><a xlink:href="http://sparql.cwrc.ca/ontologies/cwrc#lollardy" xlink:title="Lollardy" target="_parent">
<ellipse fill="none" stroke="black" cx="2014.3" cy="-522" rx="49.2915" ry="18"/>
<text text-anchor="middle" x="2014.3" y="-518.3" font-family="Times,serif" font-size="14.00">Lollardy</text>
</a>
</g>
</g>
<!-- X1cc79&#45;&gt;X752f2 -->
<g id="edge15" class="edge"><title>X1cc79&#45;&gt;X752f2</title>
<path fill="none" stroke="black" d="M2012.35,-503.778C2009.88,-485.481 2004.77,-455.947 1995.3,-432 1991.48,-422.357 1985.99,-412.454 1980.64,-403.857"/>
<polygon fill="black" stroke="black" points="1983.56,-401.925 1975.18,-395.436 1977.69,-405.732 1983.56,-401.925"/>
</g>
<!-- X7477d -->
<g id="node20" class="node"><title>X7477d</title>
<g id="a_node20"><a xlink:href="http://sparql.cwrc.ca/ontologies/cwrc#congregationalism" xlink:title="Congregationalism" target="_parent">
<ellipse fill="none" stroke="black" cx="1035.3" cy="-522" rx="98.5829" ry="18"/>
<text text-anchor="middle" x="1035.3" y="-518.3" font-family="Times,serif" font-size="14.00">Congregationalism</text>
</a>
</g>
</g>
<!-- X7477d&#45;&gt;X4e4b1 -->
<g id="edge16" class="edge"><title>X7477d&#45;&gt;X4e4b1</title>
<path fill="none" stroke="black" d="M1035.3,-503.951C1035.3,-477.292 1035.3,-424.115 1035.3,-379 1035.3,-379 1035.3,-379 1035.3,-305 1035.3,-263.633 1020.06,-217.722 1008.88,-189.605"/>
<polygon fill="black" stroke="black" points="1012.02,-188.019 1004.99,-180.093 1005.54,-190.673 1012.02,-188.019"/>
</g>
<!-- X2a5d0 -->
<g id="node21" class="node"><title>X2a5d0</title>
<g id="a_node21"><a xlink:href="http://sparql.cwrc.ca/ontologies/cwrc#churchOfIreland" xlink:title="Church of Ireland" target="_parent">
<ellipse fill="none" stroke="black" cx="408.295" cy="-378" rx="93.6835" ry="18"/>
<text text-anchor="middle" x="408.295" y="-374.3" font-family="Times,serif" font-size="14.00">Church of Ireland</text>
</a>
</g>
</g>
<!-- X2a5d0&#45;&gt;Xf6f10 -->
<g id="edge17" class="edge"><title>X2a5d0&#45;&gt;Xf6f10</title>
<path fill="none" stroke="black" d="M407.448,-359.978C405.906,-341.328 401.558,-311.005 389.295,-288 366.925,-246.033 326.298,-208.402 298.335,-185.651"/>
<polygon fill="black" stroke="black" points="300.453,-182.863 290.454,-179.358 296.085,-188.333 300.453,-182.863"/>
</g>
<!-- X7152e -->
<g id="node24" class="node"><title>X7152e</title>
<g id="a_node24"><a xlink:href="http://sparql.cwrc.ca/ontologies/cwrc#atheism" xlink:title="Atheism" target="_parent">
<ellipse fill="none" stroke="black" cx="1699.3" cy="-162" rx="49.2915" ry="18"/>
<text text-anchor="middle" x="1699.3" y="-158.3" font-family="Times,serif" font-size="14.00">Atheism</text>
</a>
</g>
</g>
<!-- Xc7ed9&#45;&gt;X7152e -->
<!-- Xc1422 -->
<g id="node23" class="node"><title>Xc1422</title>
<g id="a_node23"><a xlink:href="http://sparql.cwrc.ca/ontologies/cwrc#islam" xlink:title="Islamism" target="_parent">
<ellipse fill="none" stroke="black" cx="53.2953" cy="-90" rx="53.0913" ry="18"/>
<text text-anchor="middle" x="53.2953" y="-86.3" font-family="Times,serif" font-size="14.00">Islamism</text>
</a>
</g>
</g>
<!-- Xc1422&#45;&gt;Xb2336 -->
<g id="edge19" class="edge"><title>Xc1422&#45;&gt;Xb2336</title>
<path fill="none" stroke="black" d="M72.0819,-72.7646C82.4862,-63.7732 95.6049,-52.4361 107.11,-42.4931"/>
<polygon fill="black" stroke="black" points="109.487,-45.0649 114.765,-35.8781 104.91,-39.7686 109.487,-45.0649"/>
</g>
<!-- X37200 -->
<g id="node26" class="node"><title>X37200</title>
<g id="a_node26"><a xlink:href="http://sparql.cwrc.ca/ontologies/cwrc#paganism" xlink:title="Paganism" target="_parent">
<ellipse fill="none" stroke="black" cx="1699.3" cy="-90" rx="55.7903" ry="18"/>
<text text-anchor="middle" x="1699.3" y="-86.3" font-family="Times,serif" font-size="14.00">Paganism</text>
</a>
</g>
</g>
<!-- X7152e&#45;&gt;X37200 -->
<!-- Xd32ac -->
<g id="node25" class="node"><title>Xd32ac</title>
<g id="a_node25"><a xlink:href="http://sparql.cwrc.ca/ontologies/cwrc#judaism" xlink:title="Judaism" target="_parent">
<ellipse fill="none" stroke="black" cx="134.295" cy="-162" rx="48.1917" ry="18"/>
<text text-anchor="middle" x="134.295" y="-158.3" font-family="Times,serif" font-size="14.00">Judaism</text>
</a>
</g>
</g>
<!-- Xd32ac&#45;&gt;Xb2336 -->
<g id="edge21" class="edge"><title>Xd32ac&#45;&gt;Xb2336</title>
<path fill="none" stroke="black" d="M134.295,-143.871C134.295,-119.67 134.295,-75.2108 134.295,-46.3932"/>
<polygon fill="black" stroke="black" points="137.795,-46.1892 134.295,-36.1893 130.795,-46.1893 137.795,-46.1892"/>
</g>
<!-- X36b94 -->
<g id="node33" class="node"><title>X36b94</title>
<g id="a_node33"><a xlink:href="http://sparql.cwrc.ca/ontologies/cwrc#agnosticism" xlink:title="Agnosticism" target="_parent">
<ellipse fill="none" stroke="black" cx="1699.3" cy="-18" rx="68.4888" ry="18"/>
<text text-anchor="middle" x="1699.3" y="-14.3" font-family="Times,serif" font-size="14.00">Agnosticism</text>
</a>
</g>
</g>
<!-- X37200&#45;&gt;X36b94 -->
<!-- X253de -->
<g id="node27" class="node"><title>X253de</title>
<g id="a_node27"><a xlink:href="http://sparql.cwrc.ca/ontologies/cwrc#quakerism" xlink:title="Quakerism" target="_parent">
<ellipse fill="none" stroke="black" cx="1355.3" cy="-234" rx="61.99" ry="18"/>
<text text-anchor="middle" x="1355.3" y="-230.3" font-family="Times,serif" font-size="14.00">Quakerism</text>
</a>
</g>
</g>
<!-- X253de&#45;&gt;X4e4b1 -->
<g id="edge23" class="edge"><title>X253de&#45;&gt;X4e4b1</title>
<path fill="none" stroke="black" d="M1308.32,-222.228C1298.73,-220.104 1288.7,-217.935 1279.3,-216 1206.91,-201.107 1123.73,-185.678 1066.56,-175.334"/>
<polygon fill="black" stroke="black" points="1067.02,-171.86 1056.55,-173.528 1065.77,-178.749 1067.02,-171.86"/>
</g>
<!-- X991c3 -->
<g id="node28" class="node"><title>X991c3</title>
<ellipse fill="none" stroke="black" cx="1370.3" cy="-162" rx="46.2923" ry="18"/>
<text text-anchor="middle" x="1370.3" y="-158.3" font-family="Times,serif" font-size="14.00">X991c3</text>
</g>
<!-- X253de&#45;&gt;X991c3 -->
<g id="edge24" class="edge"><title>X253de&#45;&gt;X991c3</title>
<path fill="none" stroke="black" d="M1359,-215.697C1360.66,-207.983 1362.64,-198.712 1364.49,-190.112"/>
<polygon fill="black" stroke="black" points="1367.96,-190.616 1366.63,-180.104 1361.11,-189.149 1367.96,-190.616"/>
</g>
<!-- X0e2fa -->
<g id="node29" class="node"><title>X0e2fa</title>
<g id="a_node29"><a xlink:href="http://sparql.cwrc.ca/ontologies/cwrc#presbyterianism" xlink:title="Presbyterianism" target="_parent">
<ellipse fill="none" stroke="black" cx="1150.3" cy="-234" rx="87.1846" ry="18"/>
<text text-anchor="middle" x="1150.3" y="-230.3" font-family="Times,serif" font-size="14.00">Presbyterianism</text>
</a>
</g>
</g>
<!-- X0e2fa&#45;&gt;X4e4b1 -->
<g id="edge25" class="edge"><title>X0e2fa&#45;&gt;X4e4b1</title>
<path fill="none" stroke="black" d="M1115.96,-217.291C1093.48,-207.006 1063.94,-193.491 1039.96,-182.518"/>
<polygon fill="black" stroke="black" points="1041.28,-179.274 1030.73,-178.296 1038.37,-185.639 1041.28,-179.274"/>
</g>
<!-- Xd2614 -->
<g id="node30" class="node"><title>Xd2614</title>
<g id="a_node30"><a xlink:href="http://sparql.cwrc.ca/ontologies/cwrc#fifthMonarchists" xlink:title="Fifth Monarchists" target="_parent">
<ellipse fill="none" stroke="black" cx="1530.3" cy="-234" rx="94.7833" ry="18"/>
<text text-anchor="middle" x="1530.3" y="-230.3" font-family="Times,serif" font-size="14.00">Fifth Monarchists</text>
</a>
</g>
</g>
<!-- Xd2614&#45;&gt;Xb45be -->
<g id="edge26" class="edge"><title>Xd2614&#45;&gt;Xb45be</title>
<path fill="none" stroke="black" d="M1530.3,-215.697C1530.3,-207.983 1530.3,-198.712 1530.3,-190.112"/>
<polygon fill="black" stroke="black" points="1533.8,-190.104 1530.3,-180.104 1526.8,-190.104 1533.8,-190.104"/>
</g>
<!-- Xd2614&#45;&gt;X991c3 -->
<g id="edge27" class="edge"><title>Xd2614&#45;&gt;X991c3</title>
<path fill="none" stroke="black" d="M1494.39,-217.291C1469.03,-206.197 1435.08,-191.344 1409.1,-179.978"/>
<polygon fill="black" stroke="black" points="1410.49,-176.764 1399.92,-175.962 1407.68,-183.177 1410.49,-176.764"/>
</g>
<!-- X32f53 -->
<g id="node31" class="node"><title>X32f53</title>
<g id="a_node31"><a xlink:href="http://sparql.cwrc.ca/ontologies/cwrc#catholicism" xlink:title="Roman Catholicism" target="_parent">
<ellipse fill="none" stroke="black" cx="568.295" cy="-234" rx="101.282" ry="18"/>
<text text-anchor="middle" x="568.295" y="-230.3" font-family="Times,serif" font-size="14.00">Roman Catholicism</text>
</a>
</g>
</g>
<!-- X32f53&#45;&gt;Xadf16 -->
<g id="edge28" class="edge"><title>X32f53&#45;&gt;Xadf16</title>
<path fill="none" stroke="black" d="M568.8,-215.819C568.497,-196.469 565.283,-164.99 549.295,-144 536.887,-127.71 518.038,-115.964 499.905,-107.736"/>
<polygon fill="black" stroke="black" points="501.098,-104.44 490.526,-103.749 498.359,-110.882 501.098,-104.44"/>
</g>
<!-- X8fa8b -->
<g id="node32" class="node"><title>X8fa8b</title>
<g id="a_node32"><a xlink:href="http://sparql.cwrc.ca/ontologies/cwrc#plymouthBrethren" xlink:title="Plymouth Brethren" target="_parent">
<ellipse fill="none" stroke="black" cx="1265.3" cy="-306" rx="100.182" ry="18"/>
<text text-anchor="middle" x="1265.3" y="-302.3" font-family="Times,serif" font-size="14.00">Plymouth Brethren</text>
</a>
</g>
</g>
<!-- X8fa8b&#45;&gt;X4e4b1 -->
<g id="edge29" class="edge"><title>X8fa8b&#45;&gt;X4e4b1</title>
<path fill="none" stroke="black" d="M1266.75,-287.689C1267.41,-267.616 1265.18,-234.875 1246.3,-216 1222.78,-192.497 1140.9,-178.314 1077.38,-170.614"/>
<polygon fill="black" stroke="black" points="1077.7,-167.127 1067.36,-169.433 1076.88,-174.079 1077.7,-167.127"/>
</g>
</g>
</svg>
