<?xml version="1.0" encoding="UTF-8" standalone="no"?>
<!DOCTYPE svg PUBLIC "-//W3C//DTD SVG 1.1//EN"
 "http://www.w3.org/Graphics/SVG/1.1/DTD/svg11.dtd">
<!-- Generated by graphviz version 2.38.0 (20140413.2041)
 -->
<!-- Title: ReligionGraph Pages: 1 -->
<svg width="1861pt" height="548pt"
 viewBox="0.00 0.00 1860.68 548.00" xmlns="http://www.w3.org/2000/svg" xmlns:xlink="http://www.w3.org/1999/xlink">
<g id="graph0" class="graph" transform="scale(1 1) rotate(0) translate(4 544)">
<title>ReligionGraph</title>
<polygon fill="white" stroke="none" points="-4,4 -4,-544 1856.68,-544 1856.68,4 -4,4"/>
<!-- X043aa -->
<g id="node1" class="node"><title>X043aa</title>
<g id="a_node1"><a xlink:href="http://sparql.cwrc.ca/ontologies/cwrc#unitarianism" xlink:title="Unitarianism" target="_parent">
<ellipse fill="none" stroke="black" cx="71.4937" cy="-234" rx="71.4873" ry="18"/>
<text text-anchor="middle" x="71.4937" y="-230.3" font-family="Times,serif" font-size="14.00">Unitarianism</text>
</a>
</g>
</g>
<!-- X4e4b1 -->
<g id="node2" class="node"><title>X4e4b1</title>
<g id="a_node2"><a xlink:href="http://sparql.cwrc.ca/ontologies/cwrc#protestantism" xlink:title="Protestantism" target="_parent">
<ellipse fill="none" stroke="black" cx="438.494" cy="-162" rx="76.8869" ry="18"/>
<text text-anchor="middle" x="438.494" y="-158.3" font-family="Times,serif" font-size="14.00">Protestantism</text>
</a>
</g>
</g>
<!-- X043aa&#45;&gt;X4e4b1 -->
<g id="edge1" class="edge"><title>X043aa&#45;&gt;X4e4b1</title>
<path fill="none" stroke="black" d="M125.427,-222.08C135.735,-220.031 146.443,-217.928 156.494,-216 243.476,-199.315 265.493,-196.588 352.494,-180 358.773,-178.803 365.306,-177.541 371.842,-176.268"/>
<polygon fill="black" stroke="black" points="372.935,-179.62 382.077,-174.265 371.591,-172.75 372.935,-179.62"/>
</g>
<!-- Xadf16 -->
<g id="node3" class="node"><title>Xadf16</title>
<g id="a_node3"><a xlink:href="http://sparql.cwrc.ca/ontologies/cwrc#christianity" xlink:title="Christianity" target="_parent">
<ellipse fill="none" stroke="black" cx="1137.49" cy="-90" rx="66.0889" ry="18"/>
<text text-anchor="middle" x="1137.49" y="-86.3" font-family="Times,serif" font-size="14.00">Christianity</text>
</a>
</g>
</g>
<!-- X4e4b1&#45;&gt;Xadf16 -->
<g id="edge2" class="edge"><title>X4e4b1&#45;&gt;Xadf16</title>
<path fill="none" stroke="black" d="M507.429,-154.097C640.36,-140.785 930.896,-111.689 1065.9,-98.1698"/>
<polygon fill="black" stroke="black" points="1066.53,-101.625 1076.13,-97.1454 1065.83,-94.6594 1066.53,-101.625"/>
</g>
<!-- Xb2336 -->
<g id="node8" class="node"><title>Xb2336</title>
<g id="a_node8"><a xlink:href="http://sparql.cwrc.ca/ontologies/cwrc#abrahamicReligions" xlink:title="Abrahamic religions" target="_parent">
<ellipse fill="none" stroke="black" cx="1355.49" cy="-18" rx="104.782" ry="18"/>
<text text-anchor="middle" x="1355.49" y="-14.3" font-family="Times,serif" font-size="14.00">Abrahamic religions</text>
</a>
</g>
</g>
<!-- Xadf16&#45;&gt;Xb2336 -->
<g id="edge7" class="edge"><title>Xadf16&#45;&gt;Xb2336</title>
<path fill="none" stroke="black" d="M1178.5,-75.8335C1212.35,-64.9633 1260.77,-49.4148 1298.42,-37.3278"/>
<polygon fill="black" stroke="black" points="1299.78,-40.5659 1308.23,-34.1762 1297.64,-33.9011 1299.78,-40.5659"/>
</g>
<!-- Xd2614 -->
<g id="node4" class="node"><title>Xd2614</title>
<g id="a_node4"><a xlink:href="http://sparql.cwrc.ca/ontologies/cwrc#fifthMonarchists" xlink:title="Fifth Monarchists" target="_parent">
<ellipse fill="none" stroke="black" cx="877.494" cy="-306" rx="94.7833" ry="18"/>
<text text-anchor="middle" x="877.494" y="-302.3" font-family="Times,serif" font-size="14.00">Fifth Monarchists</text>
</a>
</g>
</g>
<!-- X156db -->
<g id="node5" class="node"><title>X156db</title>
<g id="a_node5"><a xlink:href="http://sparql.cwrc.ca/ontologies/cwrc#dissentProtestant" xlink:title="Dissent (Protestant)" target="_parent">
<ellipse fill="none" stroke="black" cx="824.494" cy="-234" rx="104.782" ry="18"/>
<text text-anchor="middle" x="824.494" y="-230.3" font-family="Times,serif" font-size="14.00">Dissent (Protestant)</text>
</a>
</g>
</g>
<!-- Xd2614&#45;&gt;X156db -->
<g id="edge3" class="edge"><title>Xd2614&#45;&gt;X156db</title>
<path fill="none" stroke="black" d="M864.664,-288.055C858.378,-279.753 850.678,-269.584 843.708,-260.378"/>
<polygon fill="black" stroke="black" points="846.4,-258.135 837.574,-252.275 840.82,-262.361 846.4,-258.135"/>
</g>
<!-- Xb45be -->
<g id="node6" class="node"><title>Xb45be</title>
<g id="a_node6"><a xlink:href="http://sparql.cwrc.ca/ontologies/cwrc#millenarianism" xlink:title="Millenarianism" target="_parent">
<ellipse fill="none" stroke="black" cx="1028.49" cy="-234" rx="81.4863" ry="18"/>
<text text-anchor="middle" x="1028.49" y="-230.3" font-family="Times,serif" font-size="14.00">Millenarianism</text>
</a>
</g>
</g>
<!-- Xd2614&#45;&gt;Xb45be -->
<g id="edge4" class="edge"><title>Xd2614&#45;&gt;Xb45be</title>
<path fill="none" stroke="black" d="M911.758,-289.116C933.707,-278.941 962.363,-265.657 985.79,-254.796"/>
<polygon fill="black" stroke="black" points="987.544,-257.841 995.144,-250.46 984.6,-251.49 987.544,-257.841"/>
</g>
<!-- Xf6f10 -->
<g id="node7" class="node"><title>Xf6f10</title>
<g id="a_node7"><a xlink:href="http://sparql.cwrc.ca/ontologies/cwrc#anglicanism" xlink:title="Anglicanism" target="_parent">
<ellipse fill="none" stroke="black" cx="1137.49" cy="-162" rx="68.4888" ry="18"/>
<text text-anchor="middle" x="1137.49" y="-158.3" font-family="Times,serif" font-size="14.00">Anglicanism</text>
</a>
</g>
</g>
<!-- X156db&#45;&gt;Xf6f10 -->
<g id="edge5" class="edge"><title>X156db&#45;&gt;Xf6f10</title>
<path fill="none" stroke="black" d="M885.586,-219.337C940.856,-206.977 1021.8,-188.875 1076.91,-176.549"/>
<polygon fill="black" stroke="black" points="1077.89,-179.916 1086.89,-174.318 1076.36,-173.085 1077.89,-179.916"/>
</g>
<!-- Xf6f10&#45;&gt;Xadf16 -->
<g id="edge6" class="edge"><title>Xf6f10&#45;&gt;Xadf16</title>
<path fill="none" stroke="black" d="M1137.49,-143.697C1137.49,-135.983 1137.49,-126.712 1137.49,-118.112"/>
<polygon fill="black" stroke="black" points="1140.99,-118.104 1137.49,-108.104 1133.99,-118.104 1140.99,-118.104"/>
</g>
<!-- X36b94 -->
<g id="node9" class="node"><title>X36b94</title>
<g id="a_node9"><a xlink:href="http://sparql.cwrc.ca/ontologies/cwrc#agnosticism" xlink:title="Agnosticism" target="_parent">
<ellipse fill="none" stroke="black" cx="1730.49" cy="-522" rx="68.4888" ry="18"/>
<text text-anchor="middle" x="1730.49" y="-518.3" font-family="Times,serif" font-size="14.00">Agnosticism</text>
</a>
</g>
</g>
<!-- X37200 -->
<g id="node10" class="node"><title>X37200</title>
<g id="a_node10"><a xlink:href="http://sparql.cwrc.ca/ontologies/cwrc#paganism" xlink:title="Paganism" target="_parent">
<ellipse fill="none" stroke="black" cx="1730.49" cy="-450" rx="55.7903" ry="18"/>
<text text-anchor="middle" x="1730.49" y="-446.3" font-family="Times,serif" font-size="14.00">Paganism</text>
</a>
</g>
</g>
<!-- X36b94&#45;&gt;X37200 -->
<!-- Xd35c6 -->
<g id="node14" class="node"><title>Xd35c6</title>
<g id="a_node14"><a xlink:href="http://sparql.cwrc.ca/ontologies/cwrc#spiritualism" xlink:title="Spiritualism" target="_parent">
<ellipse fill="none" stroke="black" cx="1730.49" cy="-378" rx="67.6881" ry="18"/>
<text text-anchor="middle" x="1730.49" y="-374.3" font-family="Times,serif" font-size="14.00">Spiritualism</text>
</a>
</g>
</g>
<!-- X37200&#45;&gt;Xd35c6 -->
<!-- X1cc79 -->
<g id="node11" class="node"><title>X1cc79</title>
<g id="a_node11"><a xlink:href="http://sparql.cwrc.ca/ontologies/cwrc#lollardy" xlink:title="Lollardy" target="_parent">
<ellipse fill="none" stroke="black" cx="1457.49" cy="-234" rx="49.2915" ry="18"/>
<text text-anchor="middle" x="1457.49" y="-230.3" font-family="Times,serif" font-size="14.00">Lollardy</text>
</a>
</g>
</g>
<!-- X32f53 -->
<g id="node12" class="node"><title>X32f53</title>
<g id="a_node12"><a xlink:href="http://sparql.cwrc.ca/ontologies/cwrc#catholicism" xlink:title="Roman Catholicism" target="_parent">
<ellipse fill="none" stroke="black" cx="1407.49" cy="-162" rx="101.282" ry="18"/>
<text text-anchor="middle" x="1407.49" y="-158.3" font-family="Times,serif" font-size="14.00">Roman Catholicism</text>
</a>
</g>
</g>
<!-- X1cc79&#45;&gt;X32f53 -->
<g id="edge9" class="edge"><title>X1cc79&#45;&gt;X32f53</title>
<path fill="none" stroke="black" d="M1445.64,-216.411C1439.63,-207.992 1432.2,-197.585 1425.49,-188.201"/>
<polygon fill="black" stroke="black" points="1428.27,-186.059 1419.61,-179.956 1422.57,-190.128 1428.27,-186.059"/>
</g>
<!-- X32f53&#45;&gt;Xadf16 -->
<g id="edge10" class="edge"><title>X32f53&#45;&gt;Xadf16</title>
<path fill="none" stroke="black" d="M1352.86,-146.834C1306.63,-134.85 1240.64,-117.742 1193.92,-105.628"/>
<polygon fill="black" stroke="black" points="1194.51,-102.168 1183.96,-103.046 1192.76,-108.944 1194.51,-102.168"/>
</g>
<!-- Xb800b -->
<g id="node13" class="node"><title>Xb800b</title>
<g id="a_node13"><a xlink:href="http://sparql.cwrc.ca/ontologies/cwrc#tractarianMovement" xlink:title="Tractarian Movement" target="_parent">
<ellipse fill="none" stroke="black" cx="1277.49" cy="-234" rx="112.38" ry="18"/>
<text text-anchor="middle" x="1277.49" y="-230.3" font-family="Times,serif" font-size="14.00">Tractarian Movement</text>
</a>
</g>
</g>
<!-- Xb800b&#45;&gt;Xf6f10 -->
<g id="edge11" class="edge"><title>Xb800b&#45;&gt;Xf6f10</title>
<path fill="none" stroke="black" d="M1245.02,-216.765C1224.76,-206.632 1198.54,-193.521 1177.06,-182.783"/>
<polygon fill="black" stroke="black" points="1178.38,-179.531 1167.87,-178.189 1175.25,-185.792 1178.38,-179.531"/>
</g>
<!-- Xc7ed9 -->
<g id="node17" class="node"><title>Xc7ed9</title>
<g id="a_node17"><a xlink:href="http://sparql.cwrc.ca/ontologies/cwrc#hinduism" xlink:title="Hinduism" target="_parent">
<ellipse fill="none" stroke="black" cx="1730.49" cy="-306" rx="55.7903" ry="18"/>
<text text-anchor="middle" x="1730.49" y="-302.3" font-family="Times,serif" font-size="14.00">Hinduism</text>
</a>
</g>
</g>
<!-- Xd35c6&#45;&gt;Xc7ed9 -->
<!-- X0e2fa -->
<g id="node15" class="node"><title>X0e2fa</title>
<g id="a_node15"><a xlink:href="http://sparql.cwrc.ca/ontologies/cwrc#presbyterianism" xlink:title="Presbyterianism" target="_parent">
<ellipse fill="none" stroke="black" cx="285.494" cy="-306" rx="87.1846" ry="18"/>
<text text-anchor="middle" x="285.494" y="-302.3" font-family="Times,serif" font-size="14.00">Presbyterianism</text>
</a>
</g>
</g>
<!-- X0e2fa&#45;&gt;X4e4b1 -->
<g id="edge13" class="edge"><title>X0e2fa&#45;&gt;X4e4b1</title>
<path fill="none" stroke="black" d="M303.646,-288.153C330.791,-262.959 382.07,-215.367 412.974,-186.685"/>
<polygon fill="black" stroke="black" points="415.417,-189.193 420.365,-179.825 410.655,-184.062 415.417,-189.193"/>
</g>
<!-- Xe1e3e -->
<g id="node16" class="node"><title>Xe1e3e</title>
<g id="a_node16"><a xlink:href="http://sparql.cwrc.ca/ontologies/cwrc#methodism" xlink:title="Methodism" target="_parent">
<ellipse fill="none" stroke="black" cx="346.494" cy="-378" rx="63.8893" ry="18"/>
<text text-anchor="middle" x="346.494" y="-374.3" font-family="Times,serif" font-size="14.00">Methodism</text>
</a>
</g>
</g>
<!-- Xe1e3e&#45;&gt;X4e4b1 -->
<g id="edge14" class="edge"><title>Xe1e3e&#45;&gt;X4e4b1</title>
<path fill="none" stroke="black" d="M359.276,-359.976C366.453,-349.885 375.203,-336.635 381.494,-324 404.032,-278.732 421.837,-222.326 431.214,-189.711"/>
<polygon fill="black" stroke="black" points="434.606,-190.578 433.957,-180.003 427.87,-188.674 434.606,-190.578"/>
</g>
<!-- X7152e -->
<g id="node22" class="node"><title>X7152e</title>
<g id="a_node22"><a xlink:href="http://sparql.cwrc.ca/ontologies/cwrc#atheism" xlink:title="Atheism" target="_parent">
<ellipse fill="none" stroke="black" cx="1730.49" cy="-234" rx="49.2915" ry="18"/>
<text text-anchor="middle" x="1730.49" y="-230.3" font-family="Times,serif" font-size="14.00">Atheism</text>
</a>
</g>
</g>
<!-- Xc7ed9&#45;&gt;X7152e -->
<!-- X2a5d0 -->
<g id="node18" class="node"><title>X2a5d0</title>
<g id="a_node18"><a xlink:href="http://sparql.cwrc.ca/ontologies/cwrc#churchOfIreland" xlink:title="Church of Ireland" target="_parent">
<ellipse fill="none" stroke="black" cx="1137.49" cy="-306" rx="93.6835" ry="18"/>
<text text-anchor="middle" x="1137.49" y="-302.3" font-family="Times,serif" font-size="14.00">Church of Ireland</text>
</a>
</g>
</g>
<!-- X2a5d0&#45;&gt;Xf6f10 -->
<g id="edge16" class="edge"><title>X2a5d0&#45;&gt;Xf6f10</title>
<path fill="none" stroke="black" d="M1137.49,-287.871C1137.49,-263.67 1137.49,-219.211 1137.49,-190.393"/>
<polygon fill="black" stroke="black" points="1140.99,-190.189 1137.49,-180.189 1133.99,-190.189 1140.99,-190.189"/>
</g>
<!-- X253de -->
<g id="node19" class="node"><title>X253de</title>
<g id="a_node19"><a xlink:href="http://sparql.cwrc.ca/ontologies/cwrc#quakerism" xlink:title="Quakerism" target="_parent">
<ellipse fill="none" stroke="black" cx="615.494" cy="-306" rx="61.99" ry="18"/>
<text text-anchor="middle" x="615.494" y="-302.3" font-family="Times,serif" font-size="14.00">Quakerism</text>
</a>
</g>
</g>
<!-- X253de&#45;&gt;X4e4b1 -->
<g id="edge17" class="edge"><title>X253de&#45;&gt;X4e4b1</title>
<path fill="none" stroke="black" d="M572.668,-292.926C548.098,-284.426 517.802,-271.118 495.494,-252 475.47,-234.84 459.964,-208.897 450.215,-189.441"/>
<polygon fill="black" stroke="black" points="453.262,-187.702 445.772,-180.209 446.954,-190.738 453.262,-187.702"/>
</g>
<!-- X253de&#45;&gt;X156db -->
<g id="edge18" class="edge"><title>X253de&#45;&gt;X156db</title>
<path fill="none" stroke="black" d="M654.315,-291.998C686.579,-281.192 732.888,-265.681 769.056,-253.568"/>
<polygon fill="black" stroke="black" points="770.597,-256.743 778.968,-250.248 768.374,-250.105 770.597,-256.743"/>
</g>
<!-- Xd53bc -->
<g id="node20" class="node"><title>Xd53bc</title>
<g id="a_node20"><a xlink:href="http://sparql.cwrc.ca/ontologies/cwrc#baptistChristianity" xlink:title="Baptist Christianity" target="_parent">
<ellipse fill="none" stroke="black" cx="438.494" cy="-450" rx="102.882" ry="18"/>
<text text-anchor="middle" x="438.494" y="-446.3" font-family="Times,serif" font-size="14.00">Baptist Christianity</text>
</a>
</g>
</g>
<!-- Xd53bc&#45;&gt;X4e4b1 -->
<g id="edge19" class="edge"><title>Xd53bc&#45;&gt;X4e4b1</title>
<path fill="none" stroke="black" d="M438.494,-431.966C438.494,-384.291 438.494,-249.185 438.494,-190.63"/>
<polygon fill="black" stroke="black" points="441.994,-190.306 438.494,-180.306 434.994,-190.306 441.994,-190.306"/>
</g>
<!-- X8fa8b -->
<g id="node21" class="node"><title>X8fa8b</title>
<g id="a_node21"><a xlink:href="http://sparql.cwrc.ca/ontologies/cwrc#plymouthBrethren" xlink:title="Plymouth Brethren" target="_parent">
<ellipse fill="none" stroke="black" cx="170.494" cy="-522" rx="100.182" ry="18"/>
<text text-anchor="middle" x="170.494" y="-518.3" font-family="Times,serif" font-size="14.00">Plymouth Brethren</text>
</a>
</g>
</g>
<!-- X8fa8b&#45;&gt;X4e4b1 -->
<g id="edge20" class="edge"><title>X8fa8b&#45;&gt;X4e4b1</title>
<path fill="none" stroke="black" d="M170.494,-503.951C170.494,-477.292 170.494,-424.115 170.494,-379 170.494,-379 170.494,-379 170.494,-305 170.494,-257.155 305.544,-205.681 383.908,-179.841"/>
<polygon fill="black" stroke="black" points="385.214,-183.096 393.636,-176.668 383.044,-176.441 385.214,-183.096"/>
</g>
<!-- X3b80a -->
<g id="node23" class="node"><title>X3b80a</title>
<g id="a_node23"><a xlink:href="http://sparql.cwrc.ca/ontologies/cwrc#buddhism" xlink:title="Buddhism" target="_parent">
<ellipse fill="none" stroke="black" cx="1730.49" cy="-162" rx="57.6901" ry="18"/>
<text text-anchor="middle" x="1730.49" y="-158.3" font-family="Times,serif" font-size="14.00">Buddhism</text>
</a>
</g>
</g>
<!-- X7152e&#45;&gt;X3b80a -->
<!-- X52798 -->
<g id="node26" class="node"><title>X52798</title>
<g id="a_node26"><a xlink:href="http://sparql.cwrc.ca/ontologies/cwrc#pantheism" xlink:title="Pantheism" target="_parent">
<ellipse fill="none" stroke="black" cx="1730.49" cy="-90" rx="59.5901" ry="18"/>
<text text-anchor="middle" x="1730.49" y="-86.3" font-family="Times,serif" font-size="14.00">Pantheism</text>
</a>
</g>
</g>
<!-- X3b80a&#45;&gt;X52798 -->
<!-- X7477d -->
<g id="node24" class="node"><title>X7477d</title>
<g id="a_node24"><a xlink:href="http://sparql.cwrc.ca/ontologies/cwrc#congregationalism" xlink:title="Congregationalism" target="_parent">
<ellipse fill="none" stroke="black" cx="603.494" cy="-234" rx="98.5829" ry="18"/>
<text text-anchor="middle" x="603.494" y="-230.3" font-family="Times,serif" font-size="14.00">Congregationalism</text>
</a>
</g>
</g>
<!-- X7477d&#45;&gt;X4e4b1 -->
<g id="edge23" class="edge"><title>X7477d&#45;&gt;X4e4b1</title>
<path fill="none" stroke="black" d="M566.464,-217.291C541.839,-206.844 509.354,-193.062 483.276,-181.999"/>
<polygon fill="black" stroke="black" points="484.557,-178.74 473.985,-178.057 481.823,-185.184 484.557,-178.74"/>
</g>
<!-- X6f203 -->
<g id="node25" class="node"><title>X6f203</title>
<g id="a_node25"><a xlink:href="http://sparql.cwrc.ca/ontologies/cwrc#christianScience" xlink:title="Christian Science" target="_parent">
<ellipse fill="none" stroke="black" cx="250.494" cy="-162" rx="92.8835" ry="18"/>
<text text-anchor="middle" x="250.494" y="-158.3" font-family="Times,serif" font-size="14.00">Christian Science</text>
</a>
</g>
</g>
<!-- X6f203&#45;&gt;Xadf16 -->
<g id="edge24" class="edge"><title>X6f203&#45;&gt;Xadf16</title>
<path fill="none" stroke="black" d="M315.929,-149.122C328.056,-147.198 340.636,-145.385 352.494,-144 611.92,-113.697 921.756,-99.0934 1061.96,-93.6428"/>
<polygon fill="black" stroke="black" points="1062.31,-97.1322 1072.16,-93.2507 1062.04,-90.1373 1062.31,-97.1322"/>
</g>
<!-- X43c0c -->
<g id="node27" class="node"><title>X43c0c</title>
<g id="a_node27"><a xlink:href="http://sparql.cwrc.ca/ontologies/cwrc#occultism" xlink:title="Occultism/Theosophism" target="_parent">
<ellipse fill="none" stroke="black" cx="1730.49" cy="-18" rx="122.379" ry="18"/>
<text text-anchor="middle" x="1730.49" y="-14.3" font-family="Times,serif" font-size="14.00">Occultism/Theosophism</text>
</a>
</g>
</g>
<!-- X52798&#45;&gt;X43c0c -->
<!-- Xc1422 -->
<g id="node28" class="node"><title>Xc1422</title>
<g id="a_node28"><a xlink:href="http://sparql.cwrc.ca/ontologies/cwrc#islam" xlink:title="Islamism" target="_parent">
<ellipse fill="none" stroke="black" cx="1355.49" cy="-90" rx="53.0913" ry="18"/>
<text text-anchor="middle" x="1355.49" y="-86.3" font-family="Times,serif" font-size="14.00">Islamism</text>
</a>
</g>
</g>
<!-- Xc1422&#45;&gt;Xb2336 -->
<g id="edge27" class="edge"><title>Xc1422&#45;&gt;Xb2336</title>
<path fill="none" stroke="black" d="M1355.49,-71.6966C1355.49,-63.9827 1355.49,-54.7125 1355.49,-46.1124"/>
<polygon fill="black" stroke="black" points="1358.99,-46.1043 1355.49,-36.1043 1351.99,-46.1044 1358.99,-46.1043"/>
</g>
<!-- Xd32ac -->
<g id="node29" class="node"><title>Xd32ac</title>
<g id="a_node29"><a xlink:href="http://sparql.cwrc.ca/ontologies/cwrc#judaism" xlink:title="Judaism" target="_parent">
<ellipse fill="none" stroke="black" cx="1574.49" cy="-162" rx="48.1917" ry="18"/>
<text text-anchor="middle" x="1574.49" y="-158.3" font-family="Times,serif" font-size="14.00">Judaism</text>
</a>
</g>
</g>
<!-- Xd32ac&#45;&gt;Xb2336 -->
<g id="edge28" class="edge"><title>Xd32ac&#45;&gt;Xb2336</title>
<path fill="none" stroke="black" d="M1551.47,-146.072C1512.76,-120.971 1434.46,-70.2011 1389.43,-41.0047"/>
<polygon fill="black" stroke="black" points="1391.18,-37.9708 1380.89,-35.467 1387.38,-43.8442 1391.18,-37.9708"/>
</g>
<!-- Xe7b0a -->
<g id="node30" class="node"><title>Xe7b0a</title>
<g id="a_node30"><a xlink:href="http://sparql.cwrc.ca/ontologies/cwrc#neo-thomism" xlink:title="Neo&#45;thomism" target="_parent">
<ellipse fill="none" stroke="black" cx="1534.49" cy="-306" rx="73.387" ry="18"/>
<text text-anchor="middle" x="1534.49" y="-302.3" font-family="Times,serif" font-size="14.00">Neo&#45;thomism</text>
</a>
</g>
</g>
<!-- Xe7b0a&#45;&gt;X32f53 -->
<g id="edge29" class="edge"><title>Xe7b0a&#45;&gt;X32f53</title>
<path fill="none" stroke="black" d="M1535.09,-287.752C1534.86,-268.34 1531.72,-236.804 1515.49,-216 1503.63,-200.785 1486.26,-189.649 1468.9,-181.629"/>
<polygon fill="black" stroke="black" points="1469.87,-178.234 1459.3,-177.488 1467.1,-184.662 1469.87,-178.234"/>
</g>
</g>
</svg>
