<?xml version="1.0" encoding="UTF-8" standalone="no"?>
<!DOCTYPE svg PUBLIC "-//W3C//DTD SVG 1.1//EN"
 "http://www.w3.org/Graphics/SVG/1.1/DTD/svg11.dtd">
<!-- Generated by graphviz version 2.38.0 (20140413.2041)
 -->
<!-- Title: ReligionGraph Pages: 1 -->
<svg width="1459pt" height="620pt"
 viewBox="0.00 0.00 1458.93 620.00" xmlns="http://www.w3.org/2000/svg" xmlns:xlink="http://www.w3.org/1999/xlink">
<g id="graph0" class="graph" transform="scale(1 1) rotate(0) translate(4 616)">
<title>ReligionGraph</title>
<polygon fill="white" stroke="none" points="-4,4 -4,-616 1454.93,-616 1454.93,4 -4,4"/>
<!-- X43c0c -->
<g id="node1" class="node"><title>X43c0c</title>
<g id="a_node1"><a xlink:href="http://sparql.cwrc.ca/ontologies/cwrc#occultism" xlink:title="Occultism/Theosophism" target="_parent">
<ellipse fill="none" stroke="black" cx="97.4913" cy="-594" rx="97.4827" ry="18"/>
<text text-anchor="middle" x="97.4913" y="-590.3" font-family="Times,serif" font-size="14.00">Occultism/Theosophism</text>
</a>
</g>
</g>
<!-- Xd35c6 -->
<g id="node2" class="node"><title>Xd35c6</title>
<g id="a_node2"><a xlink:href="http://sparql.cwrc.ca/ontologies/cwrc#spiritualism" xlink:title="Spiritualism" target="_parent">
<ellipse fill="none" stroke="black" cx="97.4913" cy="-522" rx="53.8905" ry="18"/>
<text text-anchor="middle" x="97.4913" y="-518.3" font-family="Times,serif" font-size="14.00">Spiritualism</text>
</a>
</g>
</g>
<!-- X43c0c&#45;&gt;Xd35c6 -->
<!-- X52798 -->
<g id="node3" class="node"><title>X52798</title>
<g id="a_node3"><a xlink:href="http://sparql.cwrc.ca/ontologies/cwrc#pantheism" xlink:title="Pantheism" target="_parent">
<ellipse fill="none" stroke="black" cx="97.4913" cy="-450" rx="48.1917" ry="18"/>
<text text-anchor="middle" x="97.4913" y="-446.3" font-family="Times,serif" font-size="14.00">Pantheism</text>
</a>
</g>
</g>
<!-- Xd35c6&#45;&gt;X52798 -->
<!-- X37200 -->
<g id="node15" class="node"><title>X37200</title>
<g id="a_node15"><a xlink:href="http://sparql.cwrc.ca/ontologies/cwrc#paganism" xlink:title="Paganism" target="_parent">
<ellipse fill="none" stroke="black" cx="97.4913" cy="-378" rx="45.4919" ry="18"/>
<text text-anchor="middle" x="97.4913" y="-374.3" font-family="Times,serif" font-size="14.00">Paganism</text>
</a>
</g>
</g>
<!-- X52798&#45;&gt;X37200 -->
<!-- Xf6f10 -->
<g id="node4" class="node"><title>Xf6f10</title>
<g id="a_node4"><a xlink:href="http://sparql.cwrc.ca/ontologies/cwrc#anglicanism" xlink:title="Anglicanism" target="_parent">
<ellipse fill="none" stroke="black" cx="935.491" cy="-162" rx="55.7903" ry="18"/>
<text text-anchor="middle" x="935.491" y="-158.3" font-family="Times,serif" font-size="14.00">Anglicanism</text>
</a>
</g>
</g>
<!-- Xadf16 -->
<g id="node5" class="node"><title>Xadf16</title>
<g id="a_node5"><a xlink:href="http://sparql.cwrc.ca/ontologies/cwrc#christianity" xlink:title="Christianity" target="_parent">
<ellipse fill="none" stroke="black" cx="505.491" cy="-90" rx="51.9908" ry="18"/>
<text text-anchor="middle" x="505.491" y="-86.3" font-family="Times,serif" font-size="14.00">Christianity</text>
</a>
</g>
</g>
<!-- Xf6f10&#45;&gt;Xadf16 -->
<g id="edge3" class="edge"><title>Xf6f10&#45;&gt;Xadf16</title>
<path fill="none" stroke="black" d="M886.584,-153.038C806.099,-139.936 646.216,-113.909 561.382,-100.099"/>
<polygon fill="black" stroke="black" points="561.852,-96.629 551.419,-98.4766 560.727,-103.538 561.852,-96.629"/>
</g>
<!-- Xb2336 -->
<g id="node6" class="node"><title>Xb2336</title>
<g id="a_node6"><a xlink:href="http://sparql.cwrc.ca/ontologies/cwrc#abrahamicReligions" xlink:title="Abrahamic religions" target="_parent">
<ellipse fill="none" stroke="black" cx="279.491" cy="-18" rx="83.3857" ry="18"/>
<text text-anchor="middle" x="279.491" y="-14.3" font-family="Times,serif" font-size="14.00">Abrahamic religions</text>
</a>
</g>
</g>
<!-- Xadf16&#45;&gt;Xb2336 -->
<g id="edge4" class="edge"><title>Xadf16&#45;&gt;Xb2336</title>
<path fill="none" stroke="black" d="M468.172,-77.4409C431.843,-66.1886 376.2,-48.9539 334.741,-36.1126"/>
<polygon fill="black" stroke="black" points="335.648,-32.7297 325.06,-33.1142 333.577,-39.4163 335.648,-32.7297"/>
</g>
<!-- X8fa8b -->
<g id="node7" class="node"><title>X8fa8b</title>
<g id="a_node7"><a xlink:href="http://sparql.cwrc.ca/ontologies/cwrc#plymouthBrethren" xlink:title="Plymouth Brethren" target="_parent">
<ellipse fill="none" stroke="black" cx="841.491" cy="-306" rx="78.7863" ry="18"/>
<text text-anchor="middle" x="841.491" y="-302.3" font-family="Times,serif" font-size="14.00">Plymouth Brethren</text>
</a>
</g>
</g>
<!-- X4e4b1 -->
<g id="node8" class="node"><title>X4e4b1</title>
<ellipse fill="none" stroke="black" cx="986.491" cy="-234" rx="38.1938" ry="18"/>
<text text-anchor="middle" x="986.491" y="-230.3" font-family="Times,serif" font-size="14.00">X4e4b1</text>
</g>
<!-- X8fa8b&#45;&gt;X4e4b1 -->
<g id="edge5" class="edge"><title>X8fa8b&#45;&gt;X4e4b1</title>
<path fill="none" stroke="black" d="M873.672,-289.465C896.8,-278.299 927.955,-263.259 951.665,-251.813"/>
<polygon fill="black" stroke="black" points="953.194,-254.961 960.678,-247.462 950.151,-248.657 953.194,-254.961"/>
</g>
<!-- X0e2fa -->
<g id="node9" class="node"><title>X0e2fa</title>
<g id="a_node9"><a xlink:href="http://sparql.cwrc.ca/ontologies/cwrc#presbyterianism" xlink:title="Presbyterianism" target="_parent">
<ellipse fill="none" stroke="black" cx="890.491" cy="-378" rx="67.6881" ry="18"/>
<text text-anchor="middle" x="890.491" y="-374.3" font-family="Times,serif" font-size="14.00">Presbyterianism</text>
</a>
</g>
</g>
<!-- X0e2fa&#45;&gt;X4e4b1 -->
<g id="edge6" class="edge"><title>X0e2fa&#45;&gt;X4e4b1</title>
<path fill="none" stroke="black" d="M903.422,-360.017C911.155,-349.716 921.081,-336.24 929.491,-324 944.003,-302.88 959.645,-278.316 970.865,-260.352"/>
<polygon fill="black" stroke="black" points="973.991,-261.952 976.3,-251.612 968.047,-258.256 973.991,-261.952"/>
</g>
<!-- Xe7b0a -->
<g id="node10" class="node"><title>Xe7b0a</title>
<g id="a_node10"><a xlink:href="http://sparql.cwrc.ca/ontologies/cwrc#neo-thomism" xlink:title="Neo&#45;thomism" target="_parent">
<ellipse fill="none" stroke="black" cx="331.491" cy="-234" rx="59.5901" ry="18"/>
<text text-anchor="middle" x="331.491" y="-230.3" font-family="Times,serif" font-size="14.00">Neo&#45;thomism</text>
</a>
</g>
</g>
<!-- X32f53 -->
<g id="node11" class="node"><title>X32f53</title>
<g id="a_node11"><a xlink:href="http://sparql.cwrc.ca/ontologies/cwrc#catholicism" xlink:title="Roman Catholicism" target="_parent">
<ellipse fill="none" stroke="black" cx="419.491" cy="-162" rx="81.7856" ry="18"/>
<text text-anchor="middle" x="419.491" y="-158.3" font-family="Times,serif" font-size="14.00">Roman Catholicism</text>
</a>
</g>
</g>
<!-- Xe7b0a&#45;&gt;X32f53 -->
<g id="edge7" class="edge"><title>Xe7b0a&#45;&gt;X32f53</title>
<path fill="none" stroke="black" d="M351.902,-216.765C363.397,-207.621 377.942,-196.05 390.593,-185.988"/>
<polygon fill="black" stroke="black" points="392.934,-188.598 398.581,-179.633 388.576,-183.12 392.934,-188.598"/>
</g>
<!-- X32f53&#45;&gt;Xadf16 -->
<g id="edge8" class="edge"><title>X32f53&#45;&gt;Xadf16</title>
<path fill="none" stroke="black" d="M439.872,-144.411C451.362,-135.058 465.865,-123.254 478.312,-113.123"/>
<polygon fill="black" stroke="black" points="480.597,-115.776 486.143,-106.749 476.178,-110.347 480.597,-115.776"/>
</g>
<!-- Xd2614 -->
<g id="node12" class="node"><title>Xd2614</title>
<g id="a_node12"><a xlink:href="http://sparql.cwrc.ca/ontologies/cwrc#fifthMonarchists" xlink:title="Fifth Monarchists" target="_parent">
<ellipse fill="none" stroke="black" cx="552.491" cy="-306" rx="74.187" ry="18"/>
<text text-anchor="middle" x="552.491" y="-302.3" font-family="Times,serif" font-size="14.00">Fifth Monarchists</text>
</a>
</g>
</g>
<!-- X156db -->
<g id="node13" class="node"><title>X156db</title>
<g id="a_node13"><a xlink:href="http://sparql.cwrc.ca/ontologies/cwrc#dissentProtestant" xlink:title="Dissent (Protestant)" target="_parent">
<ellipse fill="none" stroke="black" cx="705.491" cy="-234" rx="80.6858" ry="18"/>
<text text-anchor="middle" x="705.491" y="-230.3" font-family="Times,serif" font-size="14.00">Dissent (Protestant)</text>
</a>
</g>
</g>
<!-- Xd2614&#45;&gt;X156db -->
<g id="edge9" class="edge"><title>Xd2614&#45;&gt;X156db</title>
<path fill="none" stroke="black" d="M585.69,-289.811C608.191,-279.517 638.143,-265.813 662.47,-254.683"/>
<polygon fill="black" stroke="black" points="664.192,-257.744 671.829,-250.401 661.279,-251.379 664.192,-257.744"/>
</g>
<!-- Xb45be -->
<g id="node14" class="node"><title>Xb45be</title>
<g id="a_node14"><a xlink:href="http://sparql.cwrc.ca/ontologies/cwrc#millenarianism" xlink:title="Millenarianism" target="_parent">
<ellipse fill="none" stroke="black" cx="541.491" cy="-234" rx="65.7887" ry="18"/>
<text text-anchor="middle" x="541.491" y="-230.3" font-family="Times,serif" font-size="14.00">Millenarianism</text>
</a>
</g>
</g>
<!-- Xd2614&#45;&gt;Xb45be -->
<g id="edge10" class="edge"><title>Xd2614&#45;&gt;Xb45be</title>
<path fill="none" stroke="black" d="M549.772,-287.697C548.56,-279.983 547.103,-270.712 545.752,-262.112"/>
<polygon fill="black" stroke="black" points="549.189,-261.44 544.179,-252.104 542.274,-262.526 549.189,-261.44"/>
</g>
<!-- X156db&#45;&gt;Xf6f10 -->
<g id="edge11" class="edge"><title>X156db&#45;&gt;Xf6f10</title>
<path fill="none" stroke="black" d="M751.207,-219.087C790.337,-207.177 846.529,-190.076 886.558,-177.893"/>
<polygon fill="black" stroke="black" points="887.819,-181.167 896.367,-174.907 885.781,-174.471 887.819,-181.167"/>
</g>
<!-- X7152e -->
<g id="node16" class="node"><title>X7152e</title>
<g id="a_node16"><a xlink:href="http://sparql.cwrc.ca/ontologies/cwrc#atheism" xlink:title="Atheism" target="_parent">
<ellipse fill="none" stroke="black" cx="97.4913" cy="-306" rx="40.8928" ry="18"/>
<text text-anchor="middle" x="97.4913" y="-302.3" font-family="Times,serif" font-size="14.00">Atheism</text>
</a>
</g>
</g>
<!-- X37200&#45;&gt;X7152e -->
<!-- Xc7ed9 -->
<g id="node17" class="node"><title>Xc7ed9</title>
<g id="a_node17"><a xlink:href="http://sparql.cwrc.ca/ontologies/cwrc#hinduism" xlink:title="Hinduism" target="_parent">
<ellipse fill="none" stroke="black" cx="97.4913" cy="-234" rx="46.2923" ry="18"/>
<text text-anchor="middle" x="97.4913" y="-230.3" font-family="Times,serif" font-size="14.00">Hinduism</text>
</a>
</g>
</g>
<!-- X7152e&#45;&gt;Xc7ed9 -->
<!-- X36b94 -->
<g id="node18" class="node"><title>X36b94</title>
<g id="a_node18"><a xlink:href="http://sparql.cwrc.ca/ontologies/cwrc#agnosticism" xlink:title="Agnosticism" target="_parent">
<ellipse fill="none" stroke="black" cx="97.4913" cy="-162" rx="55.7903" ry="18"/>
<text text-anchor="middle" x="97.4913" y="-158.3" font-family="Times,serif" font-size="14.00">Agnosticism</text>
</a>
</g>
</g>
<!-- Xc7ed9&#45;&gt;X36b94 -->
<!-- X3b80a -->
<g id="node21" class="node"><title>X3b80a</title>
<g id="a_node21"><a xlink:href="http://sparql.cwrc.ca/ontologies/cwrc#buddhism" xlink:title="Buddhism" target="_parent">
<ellipse fill="none" stroke="black" cx="97.4913" cy="-90" rx="47.3916" ry="18"/>
<text text-anchor="middle" x="97.4913" y="-86.3" font-family="Times,serif" font-size="14.00">Buddhism</text>
</a>
</g>
</g>
<!-- X36b94&#45;&gt;X3b80a -->
<!-- X7477d -->
<g id="node19" class="node"><title>X7477d</title>
<g id="a_node19"><a xlink:href="http://sparql.cwrc.ca/ontologies/cwrc#congregationalism" xlink:title="Congregationalism" target="_parent">
<ellipse fill="none" stroke="black" cx="918.491" cy="-450" rx="77.9862" ry="18"/>
<text text-anchor="middle" x="918.491" y="-446.3" font-family="Times,serif" font-size="14.00">Congregationalism</text>
</a>
</g>
</g>
<!-- X7477d&#45;&gt;X4e4b1 -->
<g id="edge16" class="edge"><title>X7477d&#45;&gt;X4e4b1</title>
<path fill="none" stroke="black" d="M938.952,-432.514C949.288,-422.988 960.988,-410.112 967.491,-396 987.494,-352.595 989.321,-295.937 988.283,-262.703"/>
<polygon fill="black" stroke="black" points="991.766,-262.226 987.843,-252.384 984.772,-262.524 991.766,-262.226"/>
</g>
<!-- Xc1422 -->
<g id="node20" class="node"><title>Xc1422</title>
<g id="a_node20"><a xlink:href="http://sparql.cwrc.ca/ontologies/cwrc#islam" xlink:title="Islamism" target="_parent">
<ellipse fill="none" stroke="black" cx="207.491" cy="-90" rx="44.393" ry="18"/>
<text text-anchor="middle" x="207.491" y="-86.3" font-family="Times,serif" font-size="14.00">Islamism</text>
</a>
</g>
</g>
<!-- Xc1422&#45;&gt;Xb2336 -->
<g id="edge17" class="edge"><title>Xc1422&#45;&gt;Xb2336</title>
<path fill="none" stroke="black" d="M223.829,-73.1159C233.044,-64.1572 244.738,-52.788 255.026,-42.7853"/>
<polygon fill="black" stroke="black" points="257.484,-45.2777 262.214,-35.7973 252.604,-40.2587 257.484,-45.2777"/>
</g>
<!-- X9deb8 -->
<g id="node22" class="node"><title>X9deb8</title>
<g id="a_node22"><a xlink:href="http://sparql.cwrc.ca/ontologies/cwrc#dissentingChristianity" xlink:title="Dissenting Christianity" target="_parent">
<ellipse fill="none" stroke="black" cx="942.491" cy="-522" rx="92.0841" ry="18"/>
<text text-anchor="middle" x="942.491" y="-518.3" font-family="Times,serif" font-size="14.00">Dissenting Christianity</text>
</a>
</g>
</g>
<!-- X9deb8&#45;&gt;X4e4b1 -->
<g id="edge19" class="edge"><title>X9deb8&#45;&gt;X4e4b1</title>
<path fill="none" stroke="black" d="M971.47,-504.73C984.432,-495.745 998.373,-483.29 1005.49,-468 1037.59,-399.047 1012.51,-306.186 996.767,-261.371"/>
<polygon fill="black" stroke="black" points="999.996,-260.009 993.289,-251.807 993.418,-262.401 999.996,-260.009"/>
</g>
<!-- Xb800b -->
<g id="node23" class="node"><title>Xb800b</title>
<g id="a_node23"><a xlink:href="http://sparql.cwrc.ca/ontologies/cwrc#tractarianMovement" xlink:title="Tractarian Movement" target="_parent">
<ellipse fill="none" stroke="black" cx="1131.49" cy="-234" rx="88.2844" ry="18"/>
<text text-anchor="middle" x="1131.49" y="-230.3" font-family="Times,serif" font-size="14.00">Tractarian Movement</text>
</a>
</g>
</g>
<!-- Xb800b&#45;&gt;Xf6f10 -->
<g id="edge20" class="edge"><title>Xb800b&#45;&gt;Xf6f10</title>
<path fill="none" stroke="black" d="M1089.44,-217.983C1057.64,-206.624 1014.01,-191.043 981.318,-179.367"/>
<polygon fill="black" stroke="black" points="982.142,-175.945 971.548,-175.877 979.788,-182.537 982.142,-175.945"/>
</g>
<!-- X043aa -->
<g id="node24" class="node"><title>X043aa</title>
<g id="a_node24"><a xlink:href="http://sparql.cwrc.ca/ontologies/cwrc#unitarianism" xlink:title="Unitarianism" target="_parent">
<ellipse fill="none" stroke="black" cx="1062.49" cy="-594" rx="57.3905" ry="18"/>
<text text-anchor="middle" x="1062.49" y="-590.3" font-family="Times,serif" font-size="14.00">Unitarianism</text>
</a>
</g>
</g>
<!-- X043aa&#45;&gt;X4e4b1 -->
<g id="edge21" class="edge"><title>X043aa&#45;&gt;X4e4b1</title>
<path fill="none" stroke="black" d="M1062.49,-575.951C1062.49,-549.292 1062.49,-496.115 1062.49,-451 1062.49,-451 1062.49,-451 1062.49,-377 1062.49,-330.627 1030.6,-284.743 1008.13,-258.176"/>
<polygon fill="black" stroke="black" points="1010.71,-255.814 1001.51,-250.572 1005.44,-260.412 1010.71,-255.814"/>
</g>
<!-- Xd53bc -->
<g id="node25" class="node"><title>Xd53bc</title>
<g id="a_node25"><a xlink:href="http://sparql.cwrc.ca/ontologies/cwrc#baptistChristianity" xlink:title="Baptist Christianity" target="_parent">
<ellipse fill="none" stroke="black" cx="1169.49" cy="-306" rx="79.0865" ry="18"/>
<text text-anchor="middle" x="1169.49" y="-302.3" font-family="Times,serif" font-size="14.00">Baptist Christianity</text>
</a>
</g>
</g>
<!-- Xd53bc&#45;&gt;X4e4b1 -->
<g id="edge22" class="edge"><title>Xd53bc&#45;&gt;X4e4b1</title>
<path fill="none" stroke="black" d="M1130.68,-290.155C1099.53,-278.241 1056.03,-261.6 1024.97,-249.719"/>
<polygon fill="black" stroke="black" points="1025.95,-246.345 1015.36,-246.041 1023.45,-252.883 1025.95,-246.345"/>
</g>
<!-- Xd32ac -->
<g id="node26" class="node"><title>Xd32ac</title>
<g id="a_node26"><a xlink:href="http://sparql.cwrc.ca/ontologies/cwrc#judaism" xlink:title="Judaism" target="_parent">
<ellipse fill="none" stroke="black" cx="279.491" cy="-162" rx="40.0939" ry="18"/>
<text text-anchor="middle" x="279.491" y="-158.3" font-family="Times,serif" font-size="14.00">Judaism</text>
</a>
</g>
</g>
<!-- Xd32ac&#45;&gt;Xb2336 -->
<g id="edge23" class="edge"><title>Xd32ac&#45;&gt;Xb2336</title>
<path fill="none" stroke="black" d="M279.491,-143.871C279.491,-119.67 279.491,-75.2108 279.491,-46.3932"/>
<polygon fill="black" stroke="black" points="282.991,-46.1892 279.491,-36.1893 275.991,-46.1893 282.991,-46.1892"/>
</g>
<!-- Xe1e3e -->
<g id="node27" class="node"><title>Xe1e3e</title>
<g id="a_node27"><a xlink:href="http://sparql.cwrc.ca/ontologies/cwrc#methodism" xlink:title="Methodism" target="_parent">
<ellipse fill="none" stroke="black" cx="1276.49" cy="-378" rx="51.9908" ry="18"/>
<text text-anchor="middle" x="1276.49" y="-374.3" font-family="Times,serif" font-size="14.00">Methodism</text>
</a>
</g>
</g>
<!-- Xe1e3e&#45;&gt;X4e4b1 -->
<g id="edge24" class="edge"><title>Xe1e3e&#45;&gt;X4e4b1</title>
<path fill="none" stroke="black" d="M1278.09,-359.883C1278.95,-339.683 1276.96,-306.509 1257.49,-288 1184.74,-218.817 1131.76,-276.859 1034.49,-252 1031.32,-251.19 1028.07,-250.259 1024.82,-249.259"/>
<polygon fill="black" stroke="black" points="1025.76,-245.886 1015.17,-246.104 1023.58,-252.539 1025.76,-245.886"/>
</g>
<!-- X6f203 -->
<g id="node28" class="node"><title>X6f203</title>
<g id="a_node28"><a xlink:href="http://sparql.cwrc.ca/ontologies/cwrc#christianScience" xlink:title="Christian Science" target="_parent">
<ellipse fill="none" stroke="black" cx="592.491" cy="-162" rx="72.5877" ry="18"/>
<text text-anchor="middle" x="592.491" y="-158.3" font-family="Times,serif" font-size="14.00">Christian Science</text>
</a>
</g>
</g>
<!-- X6f203&#45;&gt;Xadf16 -->
<g id="edge25" class="edge"><title>X6f203&#45;&gt;Xadf16</title>
<path fill="none" stroke="black" d="M571.874,-144.411C560.25,-135.058 545.579,-123.254 532.987,-113.123"/>
<polygon fill="black" stroke="black" points="535.05,-110.291 525.065,-106.749 530.662,-115.745 535.05,-110.291"/>
</g>
<!-- X2a5d0 -->
<g id="node29" class="node"><title>X2a5d0</title>
<g id="a_node29"><a xlink:href="http://sparql.cwrc.ca/ontologies/cwrc#churchOfIreland" xlink:title="Church of Ireland" target="_parent">
<ellipse fill="none" stroke="black" cx="1377.49" cy="-306" rx="73.387" ry="18"/>
<text text-anchor="middle" x="1377.49" y="-302.3" font-family="Times,serif" font-size="14.00">Church of Ireland</text>
</a>
</g>
</g>
<!-- X2a5d0&#45;&gt;Xf6f10 -->
<g id="edge26" class="edge"><title>X2a5d0&#45;&gt;Xf6f10</title>
<path fill="none" stroke="black" d="M1356.05,-288.771C1328.19,-268.511 1277.3,-234.3 1228.49,-216 1152.76,-187.609 1060.17,-174.125 999.6,-167.931"/>
<polygon fill="black" stroke="black" points="999.714,-164.425 989.419,-166.927 999.028,-171.391 999.714,-164.425"/>
</g>
<!-- X253de -->
<g id="node30" class="node"><title>X253de</title>
<g id="a_node30"><a xlink:href="http://sparql.cwrc.ca/ontologies/cwrc#quakerism" xlink:title="Quakerism" target="_parent">
<ellipse fill="none" stroke="black" cx="694.491" cy="-306" rx="50.0912" ry="18"/>
<text text-anchor="middle" x="694.491" y="-302.3" font-family="Times,serif" font-size="14.00">Quakerism</text>
</a>
</g>
</g>
<!-- X253de&#45;&gt;X4e4b1 -->
<g id="edge27" class="edge"><title>X253de&#45;&gt;X4e4b1</title>
<path fill="none" stroke="black" d="M731.857,-293.887C739.019,-291.855 746.472,-289.808 753.491,-288 818.802,-271.177 895.127,-254.347 942.138,-244.303"/>
<polygon fill="black" stroke="black" points="942.945,-247.71 951.997,-242.204 941.488,-240.863 942.945,-247.71"/>
</g>
<!-- X253de&#45;&gt;X156db -->
<g id="edge28" class="edge"><title>X253de&#45;&gt;X156db</title>
<path fill="none" stroke="black" d="M697.21,-287.697C698.423,-279.983 699.879,-270.712 701.231,-262.112"/>
<polygon fill="black" stroke="black" points="704.709,-262.526 702.804,-252.104 697.793,-261.44 704.709,-262.526"/>
</g>
<!-- X1cc79 -->
<g id="node31" class="node"><title>X1cc79</title>
<g id="a_node31"><a xlink:href="http://sparql.cwrc.ca/ontologies/cwrc#lollardy" xlink:title="Lollardy" target="_parent">
<ellipse fill="none" stroke="black" cx="419.491" cy="-306" rx="40.8928" ry="18"/>
<text text-anchor="middle" x="419.491" y="-302.3" font-family="Times,serif" font-size="14.00">Lollardy</text>
</a>
</g>
</g>
<!-- X1cc79&#45;&gt;X32f53 -->
<g id="edge29" class="edge"><title>X1cc79&#45;&gt;X32f53</title>
<path fill="none" stroke="black" d="M419.491,-287.871C419.491,-263.67 419.491,-219.211 419.491,-190.393"/>
<polygon fill="black" stroke="black" points="422.991,-190.189 419.491,-180.189 415.991,-190.189 422.991,-190.189"/>
</g>
</g>
</svg>
