<?xml version="1.0" encoding="UTF-8" standalone="no"?>
<!DOCTYPE svg PUBLIC "-//W3C//DTD SVG 1.1//EN"
 "http://www.w3.org/Graphics/SVG/1.1/DTD/svg11.dtd">
<!-- Generated by graphviz version 2.38.0 (20140413.2041)
 -->
<!-- Title: ReligionGraph Pages: 1 -->
<svg width="1841pt" height="548pt"
 viewBox="0.00 0.00 1840.63 548.00" xmlns="http://www.w3.org/2000/svg" xmlns:xlink="http://www.w3.org/1999/xlink">
<g id="graph0" class="graph" transform="scale(1 1) rotate(0) translate(4 544)">
<title>ReligionGraph</title>
<polygon fill="white" stroke="none" points="-4,4 -4,-544 1836.63,-544 1836.63,4 -4,4"/>
<!-- X37200 -->
<g id="node1" class="node"><title>X37200</title>
<g id="a_node1"><a xlink:href="http://sparql.cwrc.ca/ontologies/cwrc#paganism" xlink:title="Paganism" target="_parent">
<ellipse fill="none" stroke="black" cx="122.189" cy="-522" rx="55.7903" ry="18"/>
<text text-anchor="middle" x="122.189" y="-518.3" font-family="Times,serif" font-size="14.00">Paganism</text>
</a>
</g>
</g>
<!-- X36b94 -->
<g id="node2" class="node"><title>X36b94</title>
<g id="a_node2"><a xlink:href="http://sparql.cwrc.ca/ontologies/cwrc#agnosticism" xlink:title="Agnosticism" target="_parent">
<ellipse fill="none" stroke="black" cx="122.189" cy="-450" rx="68.4888" ry="18"/>
<text text-anchor="middle" x="122.189" y="-446.3" font-family="Times,serif" font-size="14.00">Agnosticism</text>
</a>
</g>
</g>
<!-- X37200&#45;&gt;X36b94 -->
<!-- X52798 -->
<g id="node7" class="node"><title>X52798</title>
<g id="a_node7"><a xlink:href="http://sparql.cwrc.ca/ontologies/cwrc#pantheism" xlink:title="Pantheism" target="_parent">
<ellipse fill="none" stroke="black" cx="122.189" cy="-378" rx="59.5901" ry="18"/>
<text text-anchor="middle" x="122.189" y="-374.3" font-family="Times,serif" font-size="14.00">Pantheism</text>
</a>
</g>
</g>
<!-- X36b94&#45;&gt;X52798 -->
<!-- X0e2fa -->
<g id="node3" class="node"><title>X0e2fa</title>
<g id="a_node3"><a xlink:href="http://sparql.cwrc.ca/ontologies/cwrc#presbyterianism" xlink:title="Presbyterianism" target="_parent">
<ellipse fill="none" stroke="black" cx="1481.19" cy="-234" rx="87.1846" ry="18"/>
<text text-anchor="middle" x="1481.19" y="-230.3" font-family="Times,serif" font-size="14.00">Presbyterianism</text>
</a>
</g>
</g>
<!-- X4e4b1 -->
<g id="node4" class="node"><title>X4e4b1</title>
<g id="a_node4"><a xlink:href="http://sparql.cwrc.ca/ontologies/cwrc#protestantism" xlink:title="Protestantism" target="_parent">
<ellipse fill="none" stroke="black" cx="1142.19" cy="-162" rx="76.8869" ry="18"/>
<text text-anchor="middle" x="1142.19" y="-158.3" font-family="Times,serif" font-size="14.00">Protestantism</text>
</a>
</g>
</g>
<!-- X0e2fa&#45;&gt;X4e4b1 -->
<g id="edge2" class="edge"><title>X0e2fa&#45;&gt;X4e4b1</title>
<path fill="none" stroke="black" d="M1421.75,-220.727C1361.85,-208.358 1269.65,-189.319 1207.68,-176.523"/>
<polygon fill="black" stroke="black" points="1208.12,-173.041 1197.62,-174.446 1206.71,-179.896 1208.12,-173.041"/>
</g>
<!-- Xadf16 -->
<g id="node5" class="node"><title>Xadf16</title>
<g id="a_node5"><a xlink:href="http://sparql.cwrc.ca/ontologies/cwrc#christianity" xlink:title="Christianity" target="_parent">
<ellipse fill="none" stroke="black" cx="1142.19" cy="-90" rx="66.0889" ry="18"/>
<text text-anchor="middle" x="1142.19" y="-86.3" font-family="Times,serif" font-size="14.00">Christianity</text>
</a>
</g>
</g>
<!-- X4e4b1&#45;&gt;Xadf16 -->
<g id="edge3" class="edge"><title>X4e4b1&#45;&gt;Xadf16</title>
<path fill="none" stroke="black" d="M1142.19,-143.697C1142.19,-135.983 1142.19,-126.712 1142.19,-118.112"/>
<polygon fill="black" stroke="black" points="1145.69,-118.104 1142.19,-108.104 1138.69,-118.104 1145.69,-118.104"/>
</g>
<!-- Xb2336 -->
<g id="node6" class="node"><title>Xb2336</title>
<g id="a_node6"><a xlink:href="http://sparql.cwrc.ca/ontologies/cwrc#abrahamicReligions" xlink:title="Abrahamic religions" target="_parent">
<ellipse fill="none" stroke="black" cx="1435.19" cy="-18" rx="104.782" ry="18"/>
<text text-anchor="middle" x="1435.19" y="-14.3" font-family="Times,serif" font-size="14.00">Abrahamic religions</text>
</a>
</g>
</g>
<!-- Xadf16&#45;&gt;Xb2336 -->
<g id="edge4" class="edge"><title>Xadf16&#45;&gt;Xb2336</title>
<path fill="none" stroke="black" d="M1190.24,-77.5193C1238.31,-66.0356 1312.69,-48.2648 1366.89,-35.3182"/>
<polygon fill="black" stroke="black" points="1367.85,-38.6875 1376.76,-32.9595 1366.22,-31.8791 1367.85,-38.6875"/>
</g>
<!-- Xc7ed9 -->
<g id="node10" class="node"><title>Xc7ed9</title>
<g id="a_node10"><a xlink:href="http://sparql.cwrc.ca/ontologies/cwrc#hinduism" xlink:title="Hinduism" target="_parent">
<ellipse fill="none" stroke="black" cx="122.189" cy="-306" rx="55.7903" ry="18"/>
<text text-anchor="middle" x="122.189" y="-302.3" font-family="Times,serif" font-size="14.00">Hinduism</text>
</a>
</g>
</g>
<!-- X52798&#45;&gt;Xc7ed9 -->
<!-- X1cc79 -->
<g id="node8" class="node"><title>X1cc79</title>
<g id="a_node8"><a xlink:href="http://sparql.cwrc.ca/ontologies/cwrc#lollardy" xlink:title="Lollardy" target="_parent">
<ellipse fill="none" stroke="black" cx="1673.19" cy="-234" rx="49.2915" ry="18"/>
<text text-anchor="middle" x="1673.19" y="-230.3" font-family="Times,serif" font-size="14.00">Lollardy</text>
</a>
</g>
</g>
<!-- X32f53 -->
<g id="node9" class="node"><title>X32f53</title>
<g id="a_node9"><a xlink:href="http://sparql.cwrc.ca/ontologies/cwrc#catholicism" xlink:title="Roman Catholicism" target="_parent">
<ellipse fill="none" stroke="black" cx="1505.19" cy="-162" rx="101.282" ry="18"/>
<text text-anchor="middle" x="1505.19" y="-158.3" font-family="Times,serif" font-size="14.00">Roman Catholicism</text>
</a>
</g>
</g>
<!-- X1cc79&#45;&gt;X32f53 -->
<g id="edge6" class="edge"><title>X1cc79&#45;&gt;X32f53</title>
<path fill="none" stroke="black" d="M1641.98,-219.998C1616.83,-209.518 1581.07,-194.615 1552.41,-182.676"/>
<polygon fill="black" stroke="black" points="1553.57,-179.367 1542.99,-178.751 1550.88,-185.828 1553.57,-179.367"/>
</g>
<!-- X32f53&#45;&gt;Xadf16 -->
<g id="edge7" class="edge"><title>X32f53&#45;&gt;Xadf16</title>
<path fill="none" stroke="black" d="M1439.03,-148.242C1372.35,-135.384 1270.22,-115.688 1204.82,-103.078"/>
<polygon fill="black" stroke="black" points="1205.14,-99.5742 1194.65,-101.117 1203.81,-106.448 1205.14,-99.5742"/>
</g>
<!-- X3b80a -->
<g id="node19" class="node"><title>X3b80a</title>
<g id="a_node19"><a xlink:href="http://sparql.cwrc.ca/ontologies/cwrc#buddhism" xlink:title="Buddhism" target="_parent">
<ellipse fill="none" stroke="black" cx="122.189" cy="-234" rx="57.6901" ry="18"/>
<text text-anchor="middle" x="122.189" y="-230.3" font-family="Times,serif" font-size="14.00">Buddhism</text>
</a>
</g>
</g>
<!-- Xc7ed9&#45;&gt;X3b80a -->
<!-- X2a5d0 -->
<g id="node11" class="node"><title>X2a5d0</title>
<g id="a_node11"><a xlink:href="http://sparql.cwrc.ca/ontologies/cwrc#churchOfIreland" xlink:title="Church of Ireland" target="_parent">
<ellipse fill="none" stroke="black" cx="430.189" cy="-234" rx="93.6835" ry="18"/>
<text text-anchor="middle" x="430.189" y="-230.3" font-family="Times,serif" font-size="14.00">Church of Ireland</text>
</a>
</g>
</g>
<!-- Xf6f10 -->
<g id="node12" class="node"><title>Xf6f10</title>
<g id="a_node12"><a xlink:href="http://sparql.cwrc.ca/ontologies/cwrc#anglicanism" xlink:title="Anglicanism" target="_parent">
<ellipse fill="none" stroke="black" cx="557.189" cy="-162" rx="68.4888" ry="18"/>
<text text-anchor="middle" x="557.189" y="-158.3" font-family="Times,serif" font-size="14.00">Anglicanism</text>
</a>
</g>
</g>
<!-- X2a5d0&#45;&gt;Xf6f10 -->
<g id="edge9" class="edge"><title>X2a5d0&#45;&gt;Xf6f10</title>
<path fill="none" stroke="black" d="M459.645,-216.765C477.736,-206.793 501.062,-193.936 520.368,-183.295"/>
<polygon fill="black" stroke="black" points="522.132,-186.319 529.201,-178.427 518.753,-180.189 522.132,-186.319"/>
</g>
<!-- Xf6f10&#45;&gt;Xadf16 -->
<g id="edge10" class="edge"><title>Xf6f10&#45;&gt;Xadf16</title>
<path fill="none" stroke="black" d="M617.865,-153.74C727.24,-140.652 956.816,-113.181 1072.47,-99.343"/>
<polygon fill="black" stroke="black" points="1073.11,-102.791 1082.62,-98.128 1072.27,-95.841 1073.11,-102.791"/>
</g>
<!-- X7477d -->
<g id="node13" class="node"><title>X7477d</title>
<g id="a_node13"><a xlink:href="http://sparql.cwrc.ca/ontologies/cwrc#congregationalism" xlink:title="Congregationalism" target="_parent">
<ellipse fill="none" stroke="black" cx="939.189" cy="-306" rx="98.5829" ry="18"/>
<text text-anchor="middle" x="939.189" y="-302.3" font-family="Times,serif" font-size="14.00">Congregationalism</text>
</a>
</g>
</g>
<!-- X7477d&#45;&gt;X4e4b1 -->
<g id="edge11" class="edge"><title>X7477d&#45;&gt;X4e4b1</title>
<path fill="none" stroke="black" d="M958.979,-288.073C981.064,-269.505 1018.17,-239.255 1052.19,-216 1068.86,-204.602 1088.06,-193.09 1104.43,-183.721"/>
<polygon fill="black" stroke="black" points="1106.23,-186.725 1113.21,-178.75 1102.78,-180.635 1106.23,-186.725"/>
</g>
<!-- X253de -->
<g id="node14" class="node"><title>X253de</title>
<g id="a_node14"><a xlink:href="http://sparql.cwrc.ca/ontologies/cwrc#quakerism" xlink:title="Quakerism" target="_parent">
<ellipse fill="none" stroke="black" cx="552.189" cy="-306" rx="61.99" ry="18"/>
<text text-anchor="middle" x="552.189" y="-302.3" font-family="Times,serif" font-size="14.00">Quakerism</text>
</a>
</g>
</g>
<!-- X253de&#45;&gt;X4e4b1 -->
<g id="edge12" class="edge"><title>X253de&#45;&gt;X4e4b1</title>
<path fill="none" stroke="black" d="M550.348,-287.954C549.191,-267.504 550.829,-233.759 571.189,-216 611.911,-180.479 1002.64,-187.253 1056.19,-180 1063.24,-179.045 1070.58,-177.872 1077.88,-176.592"/>
<polygon fill="black" stroke="black" points="1078.55,-180.027 1087.76,-174.791 1077.3,-173.141 1078.55,-180.027"/>
</g>
<!-- X156db -->
<g id="node15" class="node"><title>X156db</title>
<g id="a_node15"><a xlink:href="http://sparql.cwrc.ca/ontologies/cwrc#dissentProtestant" xlink:title="Dissent (Protestant)" target="_parent">
<ellipse fill="none" stroke="black" cx="685.189" cy="-234" rx="104.782" ry="18"/>
<text text-anchor="middle" x="685.189" y="-230.3" font-family="Times,serif" font-size="14.00">Dissent (Protestant)</text>
</a>
</g>
</g>
<!-- X253de&#45;&gt;X156db -->
<g id="edge13" class="edge"><title>X253de&#45;&gt;X156db</title>
<path fill="none" stroke="black" d="M580.721,-289.983C599.604,-280.045 624.629,-266.874 645.452,-255.914"/>
<polygon fill="black" stroke="black" points="647.167,-258.967 654.386,-251.212 643.907,-252.772 647.167,-258.967"/>
</g>
<!-- X156db&#45;&gt;Xf6f10 -->
<g id="edge14" class="edge"><title>X156db&#45;&gt;Xf6f10</title>
<path fill="none" stroke="black" d="M655.179,-216.588C637.062,-206.681 613.827,-193.974 594.53,-183.421"/>
<polygon fill="black" stroke="black" points="596.146,-180.316 585.693,-178.588 592.788,-186.457 596.146,-180.316"/>
</g>
<!-- Xe1e3e -->
<g id="node16" class="node"><title>Xe1e3e</title>
<g id="a_node16"><a xlink:href="http://sparql.cwrc.ca/ontologies/cwrc#methodism" xlink:title="Methodism" target="_parent">
<ellipse fill="none" stroke="black" cx="1012.19" cy="-378" rx="63.8893" ry="18"/>
<text text-anchor="middle" x="1012.19" y="-374.3" font-family="Times,serif" font-size="14.00">Methodism</text>
</a>
</g>
</g>
<!-- Xe1e3e&#45;&gt;X4e4b1 -->
<g id="edge15" class="edge"><title>Xe1e3e&#45;&gt;X4e4b1</title>
<path fill="none" stroke="black" d="M1024.79,-359.883C1031.91,-349.761 1040.66,-336.511 1047.19,-324 1071.11,-278.204 1061.99,-259.289 1090.19,-216 1097.05,-205.474 1106.22,-195.282 1114.95,-186.694"/>
<polygon fill="black" stroke="black" points="1117.59,-189.013 1122.44,-179.593 1112.77,-183.934 1117.59,-189.013"/>
</g>
<!-- Xc1422 -->
<g id="node17" class="node"><title>Xc1422</title>
<g id="a_node17"><a xlink:href="http://sparql.cwrc.ca/ontologies/cwrc#islam" xlink:title="Islamism" target="_parent">
<ellipse fill="none" stroke="black" cx="1435.19" cy="-90" rx="53.0913" ry="18"/>
<text text-anchor="middle" x="1435.19" y="-86.3" font-family="Times,serif" font-size="14.00">Islamism</text>
</a>
</g>
</g>
<!-- Xc1422&#45;&gt;Xb2336 -->
<g id="edge16" class="edge"><title>Xc1422&#45;&gt;Xb2336</title>
<path fill="none" stroke="black" d="M1435.19,-71.6966C1435.19,-63.9827 1435.19,-54.7125 1435.19,-46.1124"/>
<polygon fill="black" stroke="black" points="1438.69,-46.1043 1435.19,-36.1043 1431.69,-46.1044 1438.69,-46.1043"/>
</g>
<!-- X8fa8b -->
<g id="node18" class="node"><title>X8fa8b</title>
<g id="a_node18"><a xlink:href="http://sparql.cwrc.ca/ontologies/cwrc#plymouthBrethren" xlink:title="Plymouth Brethren" target="_parent">
<ellipse fill="none" stroke="black" cx="1014.19" cy="-450" rx="100.182" ry="18"/>
<text text-anchor="middle" x="1014.19" y="-446.3" font-family="Times,serif" font-size="14.00">Plymouth Brethren</text>
</a>
</g>
</g>
<!-- X8fa8b&#45;&gt;X4e4b1 -->
<g id="edge17" class="edge"><title>X8fa8b&#45;&gt;X4e4b1</title>
<path fill="none" stroke="black" d="M1044.78,-432.847C1059.08,-423.818 1075.13,-411.291 1085.19,-396 1130.4,-327.291 1108.13,-295.767 1128.19,-216 1130.31,-207.564 1132.7,-198.395 1134.9,-190.092"/>
<polygon fill="black" stroke="black" points="1138.35,-190.723 1137.55,-180.159 1131.59,-188.921 1138.35,-190.723"/>
</g>
<!-- X43c0c -->
<g id="node26" class="node"><title>X43c0c</title>
<g id="a_node26"><a xlink:href="http://sparql.cwrc.ca/ontologies/cwrc#occultism" xlink:title="Occultism/Theosophism" target="_parent">
<ellipse fill="none" stroke="black" cx="122.189" cy="-162" rx="122.379" ry="18"/>
<text text-anchor="middle" x="122.189" y="-158.3" font-family="Times,serif" font-size="14.00">Occultism/Theosophism</text>
</a>
</g>
</g>
<!-- X3b80a&#45;&gt;X43c0c -->
<!-- Xb45be -->
<g id="node20" class="node"><title>Xb45be</title>
<g id="a_node20"><a xlink:href="http://sparql.cwrc.ca/ontologies/cwrc#millenarianism" xlink:title="Millenarianism" target="_parent">
<ellipse fill="none" stroke="black" cx="889.189" cy="-234" rx="81.4863" ry="18"/>
<text text-anchor="middle" x="889.189" y="-230.3" font-family="Times,serif" font-size="14.00">Millenarianism</text>
</a>
</g>
</g>
<!-- Xe7b0a -->
<g id="node21" class="node"><title>Xe7b0a</title>
<g id="a_node21"><a xlink:href="http://sparql.cwrc.ca/ontologies/cwrc#neo-thomism" xlink:title="Neo&#45;thomism" target="_parent">
<ellipse fill="none" stroke="black" cx="1759.19" cy="-306" rx="73.387" ry="18"/>
<text text-anchor="middle" x="1759.19" y="-302.3" font-family="Times,serif" font-size="14.00">Neo&#45;thomism</text>
</a>
</g>
</g>
<!-- Xe7b0a&#45;&gt;X32f53 -->
<g id="edge19" class="edge"><title>Xe7b0a&#45;&gt;X32f53</title>
<path fill="none" stroke="black" d="M1758.67,-287.959C1757.1,-267.833 1751.37,-234.733 1731.19,-216 1720.08,-205.693 1644.04,-189.207 1583.19,-177.358"/>
<polygon fill="black" stroke="black" points="1583.66,-173.885 1573.18,-175.424 1582.33,-180.757 1583.66,-173.885"/>
</g>
<!-- Xb800b -->
<g id="node22" class="node"><title>Xb800b</title>
<g id="a_node22"><a xlink:href="http://sparql.cwrc.ca/ontologies/cwrc#tractarianMovement" xlink:title="Tractarian Movement" target="_parent">
<ellipse fill="none" stroke="black" cx="308.189" cy="-306" rx="112.38" ry="18"/>
<text text-anchor="middle" x="308.189" y="-302.3" font-family="Times,serif" font-size="14.00">Tractarian Movement</text>
</a>
</g>
</g>
<!-- Xb800b&#45;&gt;Xf6f10 -->
<g id="edge20" class="edge"><title>Xb800b&#45;&gt;Xf6f10</title>
<path fill="none" stroke="black" d="M306.792,-287.744C306.18,-267.723 308.462,-235.033 327.189,-216 349.094,-193.739 426.458,-179.197 485.47,-171.074"/>
<polygon fill="black" stroke="black" points="486.067,-174.526 495.513,-169.729 485.137,-167.588 486.067,-174.526"/>
</g>
<!-- Xd2614 -->
<g id="node23" class="node"><title>Xd2614</title>
<g id="a_node23"><a xlink:href="http://sparql.cwrc.ca/ontologies/cwrc#fifthMonarchists" xlink:title="Fifth Monarchists" target="_parent">
<ellipse fill="none" stroke="black" cx="727.189" cy="-306" rx="94.7833" ry="18"/>
<text text-anchor="middle" x="727.189" y="-302.3" font-family="Times,serif" font-size="14.00">Fifth Monarchists</text>
</a>
</g>
</g>
<!-- Xd2614&#45;&gt;X156db -->
<g id="edge21" class="edge"><title>Xd2614&#45;&gt;X156db</title>
<path fill="none" stroke="black" d="M717.022,-288.055C712.142,-279.922 706.188,-269.998 700.755,-260.943"/>
<polygon fill="black" stroke="black" points="703.701,-259.049 695.554,-252.275 697.698,-262.651 703.701,-259.049"/>
</g>
<!-- Xd2614&#45;&gt;Xb45be -->
<g id="edge22" class="edge"><title>Xd2614&#45;&gt;Xb45be</title>
<path fill="none" stroke="black" d="M763.545,-289.291C787.451,-278.961 818.902,-265.371 844.356,-254.372"/>
<polygon fill="black" stroke="black" points="845.999,-257.475 853.79,-250.296 843.222,-251.05 845.999,-257.475"/>
</g>
<!-- Xd32ac -->
<g id="node24" class="node"><title>Xd32ac</title>
<g id="a_node24"><a xlink:href="http://sparql.cwrc.ca/ontologies/cwrc#judaism" xlink:title="Judaism" target="_parent">
<ellipse fill="none" stroke="black" cx="1672.19" cy="-162" rx="48.1917" ry="18"/>
<text text-anchor="middle" x="1672.19" y="-158.3" font-family="Times,serif" font-size="14.00">Judaism</text>
</a>
</g>
</g>
<!-- Xd32ac&#45;&gt;Xb2336 -->
<g id="edge23" class="edge"><title>Xd32ac&#45;&gt;Xb2336</title>
<path fill="none" stroke="black" d="M1647.72,-146.338C1605.86,-121.256 1520.3,-69.9923 1471.47,-40.7363"/>
<polygon fill="black" stroke="black" points="1473.17,-37.6783 1462.8,-35.541 1469.58,-43.683 1473.17,-37.6783"/>
</g>
<!-- X9deb8 -->
<g id="node25" class="node"><title>X9deb8</title>
<g id="a_node25"><a xlink:href="http://sparql.cwrc.ca/ontologies/cwrc#dissentingChristianity" xlink:title="Dissenting Christianity" target="_parent">
<ellipse fill="none" stroke="black" cx="1142.19" cy="-522" rx="118.879" ry="18"/>
<text text-anchor="middle" x="1142.19" y="-518.3" font-family="Times,serif" font-size="14.00">Dissenting Christianity</text>
</a>
</g>
</g>
<!-- X9deb8&#45;&gt;X4e4b1 -->
<g id="edge24" class="edge"><title>X9deb8&#45;&gt;X4e4b1</title>
<path fill="none" stroke="black" d="M1142.19,-503.951C1142.19,-477.292 1142.19,-424.115 1142.19,-379 1142.19,-379 1142.19,-379 1142.19,-305 1142.19,-264.996 1142.19,-218.653 1142.19,-190.08"/>
<polygon fill="black" stroke="black" points="1145.69,-190.049 1142.19,-180.049 1138.69,-190.049 1145.69,-190.049"/>
</g>
<!-- X7152e -->
<g id="node30" class="node"><title>X7152e</title>
<g id="a_node30"><a xlink:href="http://sparql.cwrc.ca/ontologies/cwrc#atheism" xlink:title="Atheism" target="_parent">
<ellipse fill="none" stroke="black" cx="122.189" cy="-90" rx="49.2915" ry="18"/>
<text text-anchor="middle" x="122.189" y="-86.3" font-family="Times,serif" font-size="14.00">Atheism</text>
</a>
</g>
</g>
<!-- X43c0c&#45;&gt;X7152e -->
<!-- X6f203 -->
<g id="node27" class="node"><title>X6f203</title>
<g id="a_node27"><a xlink:href="http://sparql.cwrc.ca/ontologies/cwrc#christianScience" xlink:title="Christian Science" target="_parent">
<ellipse fill="none" stroke="black" cx="954.189" cy="-162" rx="92.8835" ry="18"/>
<text text-anchor="middle" x="954.189" y="-158.3" font-family="Times,serif" font-size="14.00">Christian Science</text>
</a>
</g>
</g>
<!-- X6f203&#45;&gt;Xadf16 -->
<g id="edge26" class="edge"><title>X6f203&#45;&gt;Xadf16</title>
<path fill="none" stroke="black" d="M994.982,-145.811C1024.41,-134.853 1064.21,-120.033 1095.01,-108.566"/>
<polygon fill="black" stroke="black" points="1096.52,-111.739 1104.67,-104.97 1094.08,-105.179 1096.52,-111.739"/>
</g>
<!-- Xd53bc -->
<g id="node28" class="node"><title>Xd53bc</title>
<g id="a_node28"><a xlink:href="http://sparql.cwrc.ca/ontologies/cwrc#baptistChristianity" xlink:title="Baptist Christianity" target="_parent">
<ellipse fill="none" stroke="black" cx="1273.19" cy="-234" rx="102.882" ry="18"/>
<text text-anchor="middle" x="1273.19" y="-230.3" font-family="Times,serif" font-size="14.00">Baptist Christianity</text>
</a>
</g>
</g>
<!-- Xd53bc&#45;&gt;X4e4b1 -->
<g id="edge27" class="edge"><title>Xd53bc&#45;&gt;X4e4b1</title>
<path fill="none" stroke="black" d="M1242.81,-216.765C1224.27,-206.863 1200.42,-194.116 1180.59,-183.519"/>
<polygon fill="black" stroke="black" points="1181.98,-180.292 1171.51,-178.666 1178.68,-186.466 1181.98,-180.292"/>
</g>
<!-- X043aa -->
<g id="node29" class="node"><title>X043aa</title>
<g id="a_node29"><a xlink:href="http://sparql.cwrc.ca/ontologies/cwrc#unitarianism" xlink:title="Unitarianism" target="_parent">
<ellipse fill="none" stroke="black" cx="1596.19" cy="-306" rx="71.4873" ry="18"/>
<text text-anchor="middle" x="1596.19" y="-302.3" font-family="Times,serif" font-size="14.00">Unitarianism</text>
</a>
</g>
</g>
<!-- X043aa&#45;&gt;X4e4b1 -->
<g id="edge28" class="edge"><title>X043aa&#45;&gt;X4e4b1</title>
<path fill="none" stroke="black" d="M1597.91,-287.754C1598.88,-267.427 1597.01,-234.128 1577.19,-216 1551.79,-192.768 1344.91,-175.896 1225.83,-168.002"/>
<polygon fill="black" stroke="black" points="1225.86,-164.496 1215.65,-167.335 1225.4,-171.481 1225.86,-164.496"/>
</g>
</g>
</svg>
