<?xml version="1.0" encoding="UTF-8" standalone="no"?>
<!DOCTYPE svg PUBLIC "-//W3C//DTD SVG 1.1//EN"
 "http://www.w3.org/Graphics/SVG/1.1/DTD/svg11.dtd">
<!-- Generated by graphviz version 2.38.0 (20140413.2041)
 -->
<!-- Title: ReligionGraph Pages: 1 -->
<svg width="2122pt" height="548pt"
 viewBox="0.00 0.00 2121.54 548.00" xmlns="http://www.w3.org/2000/svg" xmlns:xlink="http://www.w3.org/1999/xlink">
<g id="graph0" class="graph" transform="scale(1 1) rotate(0) translate(4 544)">
<title>ReligionGraph</title>
<polygon fill="white" stroke="none" points="-4,4 -4,-544 2117.54,-544 2117.54,4 -4,4"/>
<!-- Xf6f10 -->
<g id="node1" class="node"><title>Xf6f10</title>
<g id="a_node1"><a xlink:href="http://sparql.cwrc.ca/ontologies/cwrc#anglicanism" xlink:title="Anglicanism" target="_parent">
<ellipse fill="none" stroke="black" cx="1476.09" cy="-162" rx="68.4888" ry="18"/>
<text text-anchor="middle" x="1476.09" y="-158.3" font-family="Times,serif" font-size="14.00">Anglicanism</text>
</a>
</g>
</g>
<!-- Xadf16 -->
<g id="node2" class="node"><title>Xadf16</title>
<g id="a_node2"><a xlink:href="http://sparql.cwrc.ca/ontologies/cwrc#christianity" xlink:title="Christianity" target="_parent">
<ellipse fill="none" stroke="black" cx="1054.09" cy="-90" rx="66.0889" ry="18"/>
<text text-anchor="middle" x="1054.09" y="-86.3" font-family="Times,serif" font-size="14.00">Christianity</text>
</a>
</g>
</g>
<!-- Xf6f10&#45;&gt;Xadf16 -->
<g id="edge1" class="edge"><title>Xf6f10&#45;&gt;Xadf16</title>
<path fill="none" stroke="black" d="M1420.05,-151.705C1342.14,-138.781 1201.41,-115.436 1119.02,-101.77"/>
<polygon fill="black" stroke="black" points="1119.46,-98.2951 1109.02,-100.111 1118.31,-105.201 1119.46,-98.2951"/>
</g>
<!-- Xb2336 -->
<g id="node3" class="node"><title>Xb2336</title>
<g id="a_node3"><a xlink:href="http://sparql.cwrc.ca/ontologies/cwrc#abrahamicReligions" xlink:title="Abrahamic religions" target="_parent">
<ellipse fill="none" stroke="black" cx="283.092" cy="-18" rx="104.782" ry="18"/>
<text text-anchor="middle" x="283.092" y="-14.3" font-family="Times,serif" font-size="14.00">Abrahamic religions</text>
</a>
</g>
</g>
<!-- Xadf16&#45;&gt;Xb2336 -->
<g id="edge2" class="edge"><title>Xadf16&#45;&gt;Xb2336</title>
<path fill="none" stroke="black" d="M992.301,-83.3899C859.431,-71.3265 545.497,-42.824 383.57,-28.1225"/>
<polygon fill="black" stroke="black" points="383.403,-24.593 373.128,-27.1744 382.77,-31.5643 383.403,-24.593"/>
</g>
<!-- Xc1422 -->
<g id="node4" class="node"><title>Xc1422</title>
<g id="a_node4"><a xlink:href="http://sparql.cwrc.ca/ontologies/cwrc#islam" xlink:title="Islamism" target="_parent">
<ellipse fill="none" stroke="black" cx="202.092" cy="-90" rx="53.0913" ry="18"/>
<text text-anchor="middle" x="202.092" y="-86.3" font-family="Times,serif" font-size="14.00">Islamism</text>
</a>
</g>
</g>
<!-- Xc1422&#45;&gt;Xb2336 -->
<g id="edge3" class="edge"><title>Xc1422&#45;&gt;Xb2336</title>
<path fill="none" stroke="black" d="M220.879,-72.7646C231.283,-63.7732 244.402,-52.4361 255.907,-42.4931"/>
<polygon fill="black" stroke="black" points="258.284,-45.0649 263.562,-35.8781 253.707,-39.7686 258.284,-45.0649"/>
</g>
<!-- Xd35c6 -->
<g id="node5" class="node"><title>Xd35c6</title>
<g id="a_node5"><a xlink:href="http://sparql.cwrc.ca/ontologies/cwrc#spiritualism" xlink:title="Spiritualism" target="_parent">
<ellipse fill="none" stroke="black" cx="1846.09" cy="-522" rx="67.6881" ry="18"/>
<text text-anchor="middle" x="1846.09" y="-518.3" font-family="Times,serif" font-size="14.00">Spiritualism</text>
</a>
</g>
</g>
<!-- X7152e -->
<g id="node6" class="node"><title>X7152e</title>
<g id="a_node6"><a xlink:href="http://sparql.cwrc.ca/ontologies/cwrc#atheism" xlink:title="Atheism" target="_parent">
<ellipse fill="none" stroke="black" cx="1846.09" cy="-450" rx="49.2915" ry="18"/>
<text text-anchor="middle" x="1846.09" y="-446.3" font-family="Times,serif" font-size="14.00">Atheism</text>
</a>
</g>
</g>
<!-- Xd35c6&#45;&gt;X7152e -->
<!-- Xc7ed9 -->
<g id="node10" class="node"><title>Xc7ed9</title>
<g id="a_node10"><a xlink:href="http://sparql.cwrc.ca/ontologies/cwrc#hinduism" xlink:title="Hinduism" target="_parent">
<ellipse fill="none" stroke="black" cx="1846.09" cy="-378" rx="55.7903" ry="18"/>
<text text-anchor="middle" x="1846.09" y="-374.3" font-family="Times,serif" font-size="14.00">Hinduism</text>
</a>
</g>
</g>
<!-- X7152e&#45;&gt;Xc7ed9 -->
<!-- X253de -->
<g id="node7" class="node"><title>X253de</title>
<g id="a_node7"><a xlink:href="http://sparql.cwrc.ca/ontologies/cwrc#quakerism" xlink:title="Quakerism" target="_parent">
<ellipse fill="none" stroke="black" cx="708.092" cy="-234" rx="61.99" ry="18"/>
<text text-anchor="middle" x="708.092" y="-230.3" font-family="Times,serif" font-size="14.00">Quakerism</text>
</a>
</g>
</g>
<!-- X4e4b1 -->
<g id="node8" class="node"><title>X4e4b1</title>
<g id="a_node8"><a xlink:href="http://sparql.cwrc.ca/ontologies/cwrc#protestantism" xlink:title="Protestantism" target="_parent">
<ellipse fill="none" stroke="black" cx="426.092" cy="-162" rx="76.8869" ry="18"/>
<text text-anchor="middle" x="426.092" y="-158.3" font-family="Times,serif" font-size="14.00">Protestantism</text>
</a>
</g>
</g>
<!-- X253de&#45;&gt;X4e4b1 -->
<g id="edge5" class="edge"><title>X253de&#45;&gt;X4e4b1</title>
<path fill="none" stroke="black" d="M662.784,-221.753C615.101,-209.917 539.774,-191.219 486.935,-178.103"/>
<polygon fill="black" stroke="black" points="487.561,-174.652 477.012,-175.64 485.875,-181.446 487.561,-174.652"/>
</g>
<!-- X991c3 -->
<g id="node9" class="node"><title>X991c3</title>
<ellipse fill="none" stroke="black" cx="708.092" cy="-162" rx="46.2923" ry="18"/>
<text text-anchor="middle" x="708.092" y="-158.3" font-family="Times,serif" font-size="14.00">X991c3</text>
</g>
<!-- X253de&#45;&gt;X991c3 -->
<g id="edge6" class="edge"><title>X253de&#45;&gt;X991c3</title>
<path fill="none" stroke="black" d="M708.092,-215.697C708.092,-207.983 708.092,-198.712 708.092,-190.112"/>
<polygon fill="black" stroke="black" points="711.592,-190.104 708.092,-180.104 704.592,-190.104 711.592,-190.104"/>
</g>
<!-- X4e4b1&#45;&gt;Xadf16 -->
<g id="edge7" class="edge"><title>X4e4b1&#45;&gt;Xadf16</title>
<path fill="none" stroke="black" d="M493.896,-153.442C613.898,-140.066 862.467,-112.36 984.049,-98.8074"/>
<polygon fill="black" stroke="black" points="984.445,-102.285 993.996,-97.6986 983.67,-95.3281 984.445,-102.285"/>
</g>
<!-- X930a7 -->
<g id="node11" class="node"><title>X930a7</title>
<g id="a_node11"><a xlink:href="http://sparql.cwrc.ca/ontologies/cwrc#Pantheism" xlink:title="Pantheism" target="_parent">
<ellipse fill="none" stroke="black" cx="1846.09" cy="-306" rx="59.5901" ry="18"/>
<text text-anchor="middle" x="1846.09" y="-302.3" font-family="Times,serif" font-size="14.00">Pantheism</text>
</a>
</g>
</g>
<!-- Xc7ed9&#45;&gt;X930a7 -->
<!-- X36b94 -->
<g id="node22" class="node"><title>X36b94</title>
<g id="a_node22"><a xlink:href="http://sparql.cwrc.ca/ontologies/cwrc#agnosticism" xlink:title="Agnosticism" target="_parent">
<ellipse fill="none" stroke="black" cx="1846.09" cy="-234" rx="68.4888" ry="18"/>
<text text-anchor="middle" x="1846.09" y="-230.3" font-family="Times,serif" font-size="14.00">Agnosticism</text>
</a>
</g>
</g>
<!-- X930a7&#45;&gt;X36b94 -->
<!-- Xd2614 -->
<g id="node12" class="node"><title>Xd2614</title>
<g id="a_node12"><a xlink:href="http://sparql.cwrc.ca/ontologies/cwrc#fifthMonarchists" xlink:title="Fifth Monarchists" target="_parent">
<ellipse fill="none" stroke="black" cx="883.092" cy="-234" rx="94.7833" ry="18"/>
<text text-anchor="middle" x="883.092" y="-230.3" font-family="Times,serif" font-size="14.00">Fifth Monarchists</text>
</a>
</g>
</g>
<!-- Xd2614&#45;&gt;X991c3 -->
<g id="edge10" class="edge"><title>Xd2614&#45;&gt;X991c3</title>
<path fill="none" stroke="black" d="M844.254,-217.465C815.847,-206.102 777.406,-190.725 748.613,-179.208"/>
<polygon fill="black" stroke="black" points="749.831,-175.926 739.246,-175.462 747.231,-182.425 749.831,-175.926"/>
</g>
<!-- Xb45be -->
<g id="node13" class="node"><title>Xb45be</title>
<g id="a_node13"><a xlink:href="http://sparql.cwrc.ca/ontologies/cwrc#millenarianism" xlink:title="Millenarianism" target="_parent">
<ellipse fill="none" stroke="black" cx="853.092" cy="-162" rx="81.4863" ry="18"/>
<text text-anchor="middle" x="853.092" y="-158.3" font-family="Times,serif" font-size="14.00">Millenarianism</text>
</a>
</g>
</g>
<!-- Xd2614&#45;&gt;Xb45be -->
<g id="edge11" class="edge"><title>Xd2614&#45;&gt;Xb45be</title>
<path fill="none" stroke="black" d="M875.677,-215.697C872.298,-207.813 868.223,-198.304 864.469,-189.546"/>
<polygon fill="black" stroke="black" points="867.579,-187.917 860.423,-180.104 861.145,-190.675 867.579,-187.917"/>
</g>
<!-- X0e2fa -->
<g id="node14" class="node"><title>X0e2fa</title>
<g id="a_node14"><a xlink:href="http://sparql.cwrc.ca/ontologies/cwrc#presbyterianism" xlink:title="Presbyterianism" target="_parent">
<ellipse fill="none" stroke="black" cx="87.0923" cy="-234" rx="87.1846" ry="18"/>
<text text-anchor="middle" x="87.0923" y="-230.3" font-family="Times,serif" font-size="14.00">Presbyterianism</text>
</a>
</g>
</g>
<!-- X0e2fa&#45;&gt;X4e4b1 -->
<g id="edge12" class="edge"><title>X0e2fa&#45;&gt;X4e4b1</title>
<path fill="none" stroke="black" d="M146.529,-220.727C206.428,-208.358 298.634,-189.319 360.603,-176.523"/>
<polygon fill="black" stroke="black" points="361.575,-179.896 370.661,-174.446 360.16,-173.041 361.575,-179.896"/>
</g>
<!-- X1cc79 -->
<g id="node15" class="node"><title>X1cc79</title>
<g id="a_node15"><a xlink:href="http://sparql.cwrc.ca/ontologies/cwrc#lollardy" xlink:title="Lollardy" target="_parent">
<ellipse fill="none" stroke="black" cx="1963.09" cy="-450" rx="49.2915" ry="18"/>
<text text-anchor="middle" x="1963.09" y="-446.3" font-family="Times,serif" font-size="14.00">Lollardy</text>
</a>
</g>
</g>
<!-- X752f2 -->
<g id="node16" class="node"><title>X752f2</title>
<ellipse fill="none" stroke="black" cx="2002.09" cy="-378" rx="44.393" ry="18"/>
<text text-anchor="middle" x="2002.09" y="-374.3" font-family="Times,serif" font-size="14.00">X752f2</text>
</g>
<!-- X1cc79&#45;&gt;X752f2 -->
<g id="edge13" class="edge"><title>X1cc79&#45;&gt;X752f2</title>
<path fill="none" stroke="black" d="M1972.53,-432.055C1977.13,-423.801 1982.76,-413.701 1987.86,-404.538"/>
<polygon fill="black" stroke="black" points="1990.93,-406.228 1992.74,-395.789 1984.81,-402.821 1990.93,-406.228"/>
</g>
<!-- X32f53 -->
<g id="node17" class="node"><title>X32f53</title>
<g id="a_node17"><a xlink:href="http://sparql.cwrc.ca/ontologies/cwrc#catholicism" xlink:title="Roman Catholicism" target="_parent">
<ellipse fill="none" stroke="black" cx="1054.09" cy="-162" rx="101.282" ry="18"/>
<text text-anchor="middle" x="1054.09" y="-158.3" font-family="Times,serif" font-size="14.00">Roman Catholicism</text>
</a>
</g>
</g>
<!-- X32f53&#45;&gt;Xadf16 -->
<g id="edge14" class="edge"><title>X32f53&#45;&gt;Xadf16</title>
<path fill="none" stroke="black" d="M1054.09,-143.697C1054.09,-135.983 1054.09,-126.712 1054.09,-118.112"/>
<polygon fill="black" stroke="black" points="1057.59,-118.104 1054.09,-108.104 1050.59,-118.104 1057.59,-118.104"/>
</g>
<!-- Xd53bc -->
<g id="node18" class="node"><title>Xd53bc</title>
<g id="a_node18"><a xlink:href="http://sparql.cwrc.ca/ontologies/cwrc#baptistChristianity" xlink:title="Baptist Christianity" target="_parent">
<ellipse fill="none" stroke="black" cx="155.092" cy="-306" rx="102.882" ry="18"/>
<text text-anchor="middle" x="155.092" y="-302.3" font-family="Times,serif" font-size="14.00">Baptist Christianity</text>
</a>
</g>
</g>
<!-- Xd53bc&#45;&gt;X4e4b1 -->
<g id="edge15" class="edge"><title>Xd53bc&#45;&gt;X4e4b1</title>
<path fill="none" stroke="black" d="M173.267,-288.194C195.249,-268.606 234.054,-236.332 272.092,-216 301.777,-200.133 337.155,-187.562 366.512,-178.653"/>
<polygon fill="black" stroke="black" points="367.629,-181.972 376.22,-175.772 365.637,-175.262 367.629,-181.972"/>
</g>
<!-- X9deb8 -->
<g id="node19" class="node"><title>X9deb8</title>
<g id="a_node19"><a xlink:href="http://sparql.cwrc.ca/ontologies/cwrc#dissentingChristianity" xlink:title="Dissenting Christianity" target="_parent">
<ellipse fill="none" stroke="black" cx="177.092" cy="-378" rx="118.879" ry="18"/>
<text text-anchor="middle" x="177.092" y="-374.3" font-family="Times,serif" font-size="14.00">Dissenting Christianity</text>
</a>
</g>
</g>
<!-- X9deb8&#45;&gt;X4e4b1 -->
<g id="edge16" class="edge"><title>X9deb8&#45;&gt;X4e4b1</title>
<path fill="none" stroke="black" d="M216.572,-360.884C233.979,-352.134 253.519,-339.831 267.092,-324 300.72,-284.777 274.478,-253.428 310.092,-216 325.706,-199.591 347.364,-187.833 367.743,-179.629"/>
<polygon fill="black" stroke="black" points="369.197,-182.821 377.3,-175.994 366.709,-176.278 369.197,-182.821"/>
</g>
<!-- Xb800b -->
<g id="node20" class="node"><title>Xb800b</title>
<g id="a_node20"><a xlink:href="http://sparql.cwrc.ca/ontologies/cwrc#tractarianMovement" xlink:title="Tractarian Movement" target="_parent">
<ellipse fill="none" stroke="black" cx="1406.09" cy="-234" rx="112.38" ry="18"/>
<text text-anchor="middle" x="1406.09" y="-230.3" font-family="Times,serif" font-size="14.00">Tractarian Movement</text>
</a>
</g>
</g>
<!-- Xb800b&#45;&gt;Xf6f10 -->
<g id="edge17" class="edge"><title>Xb800b&#45;&gt;Xf6f10</title>
<path fill="none" stroke="black" d="M1423.04,-216.055C1431.72,-207.371 1442.45,-196.644 1451.98,-187.114"/>
<polygon fill="black" stroke="black" points="1454.71,-189.335 1459.3,-179.789 1449.76,-184.385 1454.71,-189.335"/>
</g>
<!-- X156db -->
<g id="node21" class="node"><title>X156db</title>
<g id="a_node21"><a xlink:href="http://sparql.cwrc.ca/ontologies/cwrc#dissentProtestant" xlink:title="Dissent (Protestant)" target="_parent">
<ellipse fill="none" stroke="black" cx="1546.09" cy="-306" rx="104.782" ry="18"/>
<text text-anchor="middle" x="1546.09" y="-302.3" font-family="Times,serif" font-size="14.00">Dissent (Protestant)</text>
</a>
</g>
</g>
<!-- X156db&#45;&gt;Xf6f10 -->
<g id="edge18" class="edge"><title>X156db&#45;&gt;Xf6f10</title>
<path fill="none" stroke="black" d="M1545.23,-287.985C1543.68,-269.341 1539.32,-239.023 1527.09,-216 1521.3,-205.097 1512.61,-194.87 1504.04,-186.364"/>
<polygon fill="black" stroke="black" points="1506.28,-183.672 1496.61,-179.357 1501.48,-188.765 1506.28,-183.672"/>
</g>
<!-- X43c0c -->
<g id="node23" class="node"><title>X43c0c</title>
<g id="a_node23"><a xlink:href="http://sparql.cwrc.ca/ontologies/cwrc#occultism" xlink:title="Occultism/Theosophism" target="_parent">
<ellipse fill="none" stroke="black" cx="1846.09" cy="-162" rx="122.379" ry="18"/>
<text text-anchor="middle" x="1846.09" y="-158.3" font-family="Times,serif" font-size="14.00">Occultism/Theosophism</text>
</a>
</g>
</g>
<!-- X36b94&#45;&gt;X43c0c -->
<!-- X3b80a -->
<g id="node27" class="node"><title>X3b80a</title>
<g id="a_node27"><a xlink:href="http://sparql.cwrc.ca/ontologies/cwrc#buddhism" xlink:title="Buddhism" target="_parent">
<ellipse fill="none" stroke="black" cx="1846.09" cy="-90" rx="57.6901" ry="18"/>
<text text-anchor="middle" x="1846.09" y="-86.3" font-family="Times,serif" font-size="14.00">Buddhism</text>
</a>
</g>
</g>
<!-- X43c0c&#45;&gt;X3b80a -->
<!-- Xe1e3e -->
<g id="node24" class="node"><title>Xe1e3e</title>
<g id="a_node24"><a xlink:href="http://sparql.cwrc.ca/ontologies/cwrc#methodism" xlink:title="Methodism" target="_parent">
<ellipse fill="none" stroke="black" cx="270.092" cy="-450" rx="63.8893" ry="18"/>
<text text-anchor="middle" x="270.092" y="-446.3" font-family="Times,serif" font-size="14.00">Methodism</text>
</a>
</g>
</g>
<!-- Xe1e3e&#45;&gt;X4e4b1 -->
<g id="edge21" class="edge"><title>Xe1e3e&#45;&gt;X4e4b1</title>
<path fill="none" stroke="black" d="M283.382,-432.212C290.728,-422.2 299.478,-408.95 305.092,-396 337.808,-320.535 301.363,-283.688 348.092,-216 357.248,-202.737 370.896,-191.838 384.227,-183.445"/>
<polygon fill="black" stroke="black" points="386.085,-186.412 392.891,-178.292 382.507,-180.396 386.085,-186.412"/>
</g>
<!-- Xe7b0a -->
<g id="node25" class="node"><title>Xe7b0a</title>
<g id="a_node25"><a xlink:href="http://sparql.cwrc.ca/ontologies/cwrc#neo-thomism" xlink:title="Neo&#45;thomism" target="_parent">
<ellipse fill="none" stroke="black" cx="2040.09" cy="-522" rx="73.387" ry="18"/>
<text text-anchor="middle" x="2040.09" y="-518.3" font-family="Times,serif" font-size="14.00">Neo&#45;thomism</text>
</a>
</g>
</g>
<!-- Xe7b0a&#45;&gt;X752f2 -->
<g id="edge22" class="edge"><title>Xe7b0a&#45;&gt;X752f2</title>
<path fill="none" stroke="black" d="M2037.12,-503.771C2033.85,-485.719 2028.1,-456.618 2021.09,-432 2018.62,-423.311 2015.46,-413.988 2012.42,-405.621"/>
<polygon fill="black" stroke="black" points="2015.61,-404.149 2008.84,-395.997 2009.05,-406.59 2015.61,-404.149"/>
</g>
<!-- X043aa -->
<g id="node26" class="node"><title>X043aa</title>
<g id="a_node26"><a xlink:href="http://sparql.cwrc.ca/ontologies/cwrc#unitarianism" xlink:title="Unitarianism" target="_parent">
<ellipse fill="none" stroke="black" cx="362.092" cy="-522" rx="71.4873" ry="18"/>
<text text-anchor="middle" x="362.092" y="-518.3" font-family="Times,serif" font-size="14.00">Unitarianism</text>
</a>
</g>
</g>
<!-- X043aa&#45;&gt;X4e4b1 -->
<g id="edge23" class="edge"><title>X043aa&#45;&gt;X4e4b1</title>
<path fill="none" stroke="black" d="M362.092,-503.951C362.092,-477.292 362.092,-424.115 362.092,-379 362.092,-379 362.092,-379 362.092,-305 362.092,-264.553 363.24,-252.294 381.092,-216 386.232,-205.551 393.888,-195.451 401.434,-186.921"/>
<polygon fill="black" stroke="black" points="404.024,-189.275 408.258,-179.563 398.892,-184.515 404.024,-189.275"/>
</g>
<!-- X37200 -->
<g id="node28" class="node"><title>X37200</title>
<g id="a_node28"><a xlink:href="http://sparql.cwrc.ca/ontologies/cwrc#paganism" xlink:title="Paganism" target="_parent">
<ellipse fill="none" stroke="black" cx="1846.09" cy="-18" rx="55.7903" ry="18"/>
<text text-anchor="middle" x="1846.09" y="-14.3" font-family="Times,serif" font-size="14.00">Paganism</text>
</a>
</g>
</g>
<!-- X3b80a&#45;&gt;X37200 -->
<!-- X6f203 -->
<g id="node29" class="node"><title>X6f203</title>
<g id="a_node29"><a xlink:href="http://sparql.cwrc.ca/ontologies/cwrc#christianScience" xlink:title="Christian Science" target="_parent">
<ellipse fill="none" stroke="black" cx="1183.09" cy="-234" rx="92.8835" ry="18"/>
<text text-anchor="middle" x="1183.09" y="-230.3" font-family="Times,serif" font-size="14.00">Christian Science</text>
</a>
</g>
</g>
<!-- X6f203&#45;&gt;Xadf16 -->
<g id="edge26" class="edge"><title>X6f203&#45;&gt;Xadf16</title>
<path fill="none" stroke="black" d="M1183.71,-215.731C1183.51,-196.299 1180.4,-164.746 1164.09,-144 1150.53,-126.74 1129.94,-114.772 1110.23,-106.638"/>
<polygon fill="black" stroke="black" points="1111.24,-103.279 1100.66,-102.946 1108.73,-109.81 1111.24,-103.279"/>
</g>
<!-- X8fa8b -->
<g id="node30" class="node"><title>X8fa8b</title>
<g id="a_node30"><a xlink:href="http://sparql.cwrc.ca/ontologies/cwrc#plymouthBrethren" xlink:title="Plymouth Brethren" target="_parent">
<ellipse fill="none" stroke="black" cx="490.092" cy="-234" rx="100.182" ry="18"/>
<text text-anchor="middle" x="490.092" y="-230.3" font-family="Times,serif" font-size="14.00">Plymouth Brethren</text>
</a>
</g>
</g>
<!-- X8fa8b&#45;&gt;X4e4b1 -->
<g id="edge27" class="edge"><title>X8fa8b&#45;&gt;X4e4b1</title>
<path fill="none" stroke="black" d="M474.6,-216.055C466.738,-207.457 457.047,-196.857 448.398,-187.397"/>
<polygon fill="black" stroke="black" points="450.773,-184.808 441.442,-179.789 445.607,-189.531 450.773,-184.808"/>
</g>
<!-- X7477d -->
<g id="node31" class="node"><title>X7477d</title>
<g id="a_node31"><a xlink:href="http://sparql.cwrc.ca/ontologies/cwrc#congregationalism" xlink:title="Congregationalism" target="_parent">
<ellipse fill="none" stroke="black" cx="618.092" cy="-306" rx="98.5829" ry="18"/>
<text text-anchor="middle" x="618.092" y="-302.3" font-family="Times,serif" font-size="14.00">Congregationalism</text>
</a>
</g>
</g>
<!-- X7477d&#45;&gt;X4e4b1 -->
<g id="edge28" class="edge"><title>X7477d&#45;&gt;X4e4b1</title>
<path fill="none" stroke="black" d="M619.252,-287.97C619.636,-268.165 617.134,-235.683 599.092,-216 575.817,-190.607 540.74,-177.244 508.241,-170.264"/>
<polygon fill="black" stroke="black" points="508.742,-166.795 498.254,-168.296 507.389,-173.663 508.742,-166.795"/>
</g>
<!-- X2a5d0 -->
<g id="node32" class="node"><title>X2a5d0</title>
<g id="a_node32"><a xlink:href="http://sparql.cwrc.ca/ontologies/cwrc#churchOfIreland" xlink:title="Church of Ireland" target="_parent">
<ellipse fill="none" stroke="black" cx="1679.09" cy="-378" rx="93.6835" ry="18"/>
<text text-anchor="middle" x="1679.09" y="-374.3" font-family="Times,serif" font-size="14.00">Church of Ireland</text>
</a>
</g>
</g>
<!-- X2a5d0&#45;&gt;Xf6f10 -->
<g id="edge29" class="edge"><title>X2a5d0&#45;&gt;Xf6f10</title>
<path fill="none" stroke="black" d="M1679.13,-359.803C1678.37,-340.723 1674.73,-309.761 1660.09,-288 1626.02,-237.358 1563.89,-201.602 1521.33,-181.654"/>
<polygon fill="black" stroke="black" points="1522.58,-178.377 1512.03,-177.4 1519.67,-184.743 1522.58,-178.377"/>
</g>
<!-- Xd32ac -->
<g id="node33" class="node"><title>Xd32ac</title>
<g id="a_node33"><a xlink:href="http://sparql.cwrc.ca/ontologies/cwrc#judaism" xlink:title="Judaism" target="_parent">
<ellipse fill="none" stroke="black" cx="283.092" cy="-162" rx="48.1917" ry="18"/>
<text text-anchor="middle" x="283.092" y="-158.3" font-family="Times,serif" font-size="14.00">Judaism</text>
</a>
</g>
</g>
<!-- Xd32ac&#45;&gt;Xb2336 -->
<g id="edge30" class="edge"><title>Xd32ac&#45;&gt;Xb2336</title>
<path fill="none" stroke="black" d="M283.092,-143.871C283.092,-119.67 283.092,-75.2108 283.092,-46.3932"/>
<polygon fill="black" stroke="black" points="286.592,-46.1892 283.092,-36.1893 279.592,-46.1893 286.592,-46.1892"/>
</g>
</g>
</svg>
