<?xml version="1.0" encoding="UTF-8" standalone="no"?>
<!DOCTYPE svg PUBLIC "-//W3C//DTD SVG 1.1//EN"
 "http://www.w3.org/Graphics/SVG/1.1/DTD/svg11.dtd">
<!-- Generated by graphviz version 2.38.0 (20140413.2041)
 -->
<!-- Title: ReligionGraph Pages: 1 -->
<svg width="1320pt" height="620pt"
 viewBox="0.00 0.00 1319.93 620.00" xmlns="http://www.w3.org/2000/svg" xmlns:xlink="http://www.w3.org/1999/xlink">
<g id="graph0" class="graph" transform="scale(1 1) rotate(0) translate(4 616)">
<title>ReligionGraph</title>
<polygon fill="white" stroke="none" points="-4,4 -4,-616 1315.93,-616 1315.93,4 -4,4"/>
<!-- Xd35c6 -->
<g id="node1" class="node"><title>Xd35c6</title>
<g id="a_node1"><a xlink:href="http://sparql.cwrc.ca/ontologies/cwrc#spiritualism" xlink:title="Spiritualism" target="_parent">
<ellipse fill="none" stroke="black" cx="97.4913" cy="-594" rx="53.8905" ry="18"/>
<text text-anchor="middle" x="97.4913" y="-590.3" font-family="Times,serif" font-size="14.00">Spiritualism</text>
</a>
</g>
</g>
<!-- X3b80a -->
<g id="node2" class="node"><title>X3b80a</title>
<g id="a_node2"><a xlink:href="http://sparql.cwrc.ca/ontologies/cwrc#buddhism" xlink:title="Buddhism" target="_parent">
<ellipse fill="none" stroke="black" cx="97.4913" cy="-522" rx="47.3916" ry="18"/>
<text text-anchor="middle" x="97.4913" y="-518.3" font-family="Times,serif" font-size="14.00">Buddhism</text>
</a>
</g>
</g>
<!-- Xd35c6&#45;&gt;X3b80a -->
<!-- X36b94 -->
<g id="node11" class="node"><title>X36b94</title>
<g id="a_node11"><a xlink:href="http://sparql.cwrc.ca/ontologies/cwrc#agnosticism" xlink:title="Agnosticism" target="_parent">
<ellipse fill="none" stroke="black" cx="97.4913" cy="-450" rx="55.7903" ry="18"/>
<text text-anchor="middle" x="97.4913" y="-446.3" font-family="Times,serif" font-size="14.00">Agnosticism</text>
</a>
</g>
</g>
<!-- X3b80a&#45;&gt;X36b94 -->
<!-- X1cc79 -->
<g id="node3" class="node"><title>X1cc79</title>
<g id="a_node3"><a xlink:href="http://sparql.cwrc.ca/ontologies/cwrc#lollardy" xlink:title="Lollardy" target="_parent">
<ellipse fill="none" stroke="black" cx="517.491" cy="-234" rx="40.8928" ry="18"/>
<text text-anchor="middle" x="517.491" y="-230.3" font-family="Times,serif" font-size="14.00">Lollardy</text>
</a>
</g>
</g>
<!-- X32f53 -->
<g id="node4" class="node"><title>X32f53</title>
<g id="a_node4"><a xlink:href="http://sparql.cwrc.ca/ontologies/cwrc#catholicism" xlink:title="Roman Catholicism" target="_parent">
<ellipse fill="none" stroke="black" cx="517.491" cy="-162" rx="81.7856" ry="18"/>
<text text-anchor="middle" x="517.491" y="-158.3" font-family="Times,serif" font-size="14.00">Roman Catholicism</text>
</a>
</g>
</g>
<!-- X1cc79&#45;&gt;X32f53 -->
<g id="edge2" class="edge"><title>X1cc79&#45;&gt;X32f53</title>
<path fill="none" stroke="black" d="M517.491,-215.697C517.491,-207.983 517.491,-198.712 517.491,-190.112"/>
<polygon fill="black" stroke="black" points="520.991,-190.104 517.491,-180.104 513.991,-190.104 520.991,-190.104"/>
</g>
<!-- Xadf16 -->
<g id="node5" class="node"><title>Xadf16</title>
<g id="a_node5"><a xlink:href="http://sparql.cwrc.ca/ontologies/cwrc#christianity" xlink:title="Christianity" target="_parent">
<ellipse fill="none" stroke="black" cx="676.491" cy="-90" rx="51.9908" ry="18"/>
<text text-anchor="middle" x="676.491" y="-86.3" font-family="Times,serif" font-size="14.00">Christianity</text>
</a>
</g>
</g>
<!-- X32f53&#45;&gt;Xadf16 -->
<g id="edge3" class="edge"><title>X32f53&#45;&gt;Xadf16</title>
<path fill="none" stroke="black" d="M552.385,-145.638C577.216,-134.706 610.633,-119.994 636.535,-108.591"/>
<polygon fill="black" stroke="black" points="637.967,-111.785 645.709,-104.552 635.146,-105.378 637.967,-111.785"/>
</g>
<!-- Xb2336 -->
<g id="node9" class="node"><title>Xb2336</title>
<g id="a_node9"><a xlink:href="http://sparql.cwrc.ca/ontologies/cwrc#abrahamicReligions" xlink:title="Abrahamic religions" target="_parent">
<ellipse fill="none" stroke="black" cx="904.491" cy="-18" rx="83.3857" ry="18"/>
<text text-anchor="middle" x="904.491" y="-14.3" font-family="Times,serif" font-size="14.00">Abrahamic religions</text>
</a>
</g>
</g>
<!-- Xadf16&#45;&gt;Xb2336 -->
<g id="edge7" class="edge"><title>Xadf16&#45;&gt;Xb2336</title>
<path fill="none" stroke="black" d="M714.141,-77.4409C750.791,-66.1886 806.927,-48.9539 848.753,-36.1126"/>
<polygon fill="black" stroke="black" points="849.987,-39.3951 858.519,-33.1142 847.932,-32.7034 849.987,-39.3951"/>
</g>
<!-- X253de -->
<g id="node6" class="node"><title>X253de</title>
<g id="a_node6"><a xlink:href="http://sparql.cwrc.ca/ontologies/cwrc#quakerism" xlink:title="Quakerism" target="_parent">
<ellipse fill="none" stroke="black" cx="667.491" cy="-306" rx="50.0912" ry="18"/>
<text text-anchor="middle" x="667.491" y="-302.3" font-family="Times,serif" font-size="14.00">Quakerism</text>
</a>
</g>
</g>
<!-- X156db -->
<g id="node7" class="node"><title>X156db</title>
<g id="a_node7"><a xlink:href="http://sparql.cwrc.ca/ontologies/cwrc#dissentProtestant" xlink:title="Dissent (Protestant)" target="_parent">
<ellipse fill="none" stroke="black" cx="667.491" cy="-234" rx="80.6858" ry="18"/>
<text text-anchor="middle" x="667.491" y="-230.3" font-family="Times,serif" font-size="14.00">Dissent (Protestant)</text>
</a>
</g>
</g>
<!-- X253de&#45;&gt;X156db -->
<g id="edge4" class="edge"><title>X253de&#45;&gt;X156db</title>
<path fill="none" stroke="black" d="M667.491,-287.697C667.491,-279.983 667.491,-270.712 667.491,-262.112"/>
<polygon fill="black" stroke="black" points="670.991,-262.104 667.491,-252.104 663.991,-262.104 670.991,-262.104"/>
</g>
<!-- X4e4b1 -->
<g id="node8" class="node"><title>X4e4b1</title>
<g id="a_node8"><a xlink:href="http://sparql.cwrc.ca/ontologies/cwrc#protestantism" xlink:title="Protestantism" target="_parent">
<ellipse fill="none" stroke="black" cx="676.491" cy="-162" rx="59.2899" ry="18"/>
<text text-anchor="middle" x="676.491" y="-158.3" font-family="Times,serif" font-size="14.00">Protestantism</text>
</a>
</g>
</g>
<!-- X156db&#45;&gt;X4e4b1 -->
<g id="edge5" class="edge"><title>X156db&#45;&gt;X4e4b1</title>
<path fill="none" stroke="black" d="M669.716,-215.697C670.708,-207.983 671.9,-198.712 673.005,-190.112"/>
<polygon fill="black" stroke="black" points="676.488,-190.469 674.292,-180.104 669.545,-189.576 676.488,-190.469"/>
</g>
<!-- X4e4b1&#45;&gt;Xadf16 -->
<g id="edge16" class="edge"><title>X4e4b1&#45;&gt;Xadf16</title>
<path fill="none" stroke="black" d="M676.491,-143.697C676.491,-135.983 676.491,-126.712 676.491,-118.112"/>
<polygon fill="black" stroke="black" points="679.991,-118.104 676.491,-108.104 672.991,-118.104 679.991,-118.104"/>
</g>
<!-- X0e2fa -->
<g id="node10" class="node"><title>X0e2fa</title>
<g id="a_node10"><a xlink:href="http://sparql.cwrc.ca/ontologies/cwrc#presbyterianism" xlink:title="Presbyterianism" target="_parent">
<ellipse fill="none" stroke="black" cx="745.491" cy="-378" rx="67.6881" ry="18"/>
<text text-anchor="middle" x="745.491" y="-374.3" font-family="Times,serif" font-size="14.00">Presbyterianism</text>
</a>
</g>
</g>
<!-- X0e2fa&#45;&gt;X156db -->
<g id="edge6" class="edge"><title>X0e2fa&#45;&gt;X156db</title>
<path fill="none" stroke="black" d="M744.946,-359.811C743.668,-341.014 739.549,-310.563 726.491,-288 719.798,-276.434 709.699,-266.02 699.74,-257.547"/>
<polygon fill="black" stroke="black" points="701.831,-254.737 691.85,-251.183 697.436,-260.185 701.831,-254.737"/>
</g>
<!-- X37200 -->
<g id="node14" class="node"><title>X37200</title>
<g id="a_node14"><a xlink:href="http://sparql.cwrc.ca/ontologies/cwrc#paganism" xlink:title="Paganism" target="_parent">
<ellipse fill="none" stroke="black" cx="97.4913" cy="-378" rx="45.4919" ry="18"/>
<text text-anchor="middle" x="97.4913" y="-374.3" font-family="Times,serif" font-size="14.00">Paganism</text>
</a>
</g>
</g>
<!-- X36b94&#45;&gt;X37200 -->
<!-- X2a5d0 -->
<g id="node12" class="node"><title>X2a5d0</title>
<g id="a_node12"><a xlink:href="http://sparql.cwrc.ca/ontologies/cwrc#churchOfIreland" xlink:title="Church of Ireland" target="_parent">
<ellipse fill="none" stroke="black" cx="1238.49" cy="-234" rx="73.387" ry="18"/>
<text text-anchor="middle" x="1238.49" y="-230.3" font-family="Times,serif" font-size="14.00">Church of Ireland</text>
</a>
</g>
</g>
<!-- Xf6f10 -->
<g id="node13" class="node"><title>Xf6f10</title>
<g id="a_node13"><a xlink:href="http://sparql.cwrc.ca/ontologies/cwrc#anglicanism" xlink:title="Anglicanism" target="_parent">
<ellipse fill="none" stroke="black" cx="973.491" cy="-162" rx="55.7903" ry="18"/>
<text text-anchor="middle" x="973.491" y="-158.3" font-family="Times,serif" font-size="14.00">Anglicanism</text>
</a>
</g>
</g>
<!-- X2a5d0&#45;&gt;Xf6f10 -->
<g id="edge9" class="edge"><title>X2a5d0&#45;&gt;Xf6f10</title>
<path fill="none" stroke="black" d="M1190.5,-220.324C1143.85,-208.001 1073.22,-189.344 1025.31,-176.689"/>
<polygon fill="black" stroke="black" points="1026.01,-173.254 1015.45,-174.084 1024.23,-180.021 1026.01,-173.254"/>
</g>
<!-- Xf6f10&#45;&gt;Xadf16 -->
<g id="edge10" class="edge"><title>Xf6f10&#45;&gt;Xadf16</title>
<path fill="none" stroke="black" d="M929.668,-150.671C875.935,-138.007 784.998,-116.574 727.983,-103.136"/>
<polygon fill="black" stroke="black" points="728.632,-99.6932 718.096,-100.806 727.026,-106.507 728.632,-99.6932"/>
</g>
<!-- X43c0c -->
<g id="node15" class="node"><title>X43c0c</title>
<g id="a_node15"><a xlink:href="http://sparql.cwrc.ca/ontologies/cwrc#occultism" xlink:title="Occultism/Theosophism" target="_parent">
<ellipse fill="none" stroke="black" cx="97.4913" cy="-306" rx="97.4827" ry="18"/>
<text text-anchor="middle" x="97.4913" y="-302.3" font-family="Times,serif" font-size="14.00">Occultism/Theosophism</text>
</a>
</g>
</g>
<!-- X37200&#45;&gt;X43c0c -->
<!-- X52798 -->
<g id="node26" class="node"><title>X52798</title>
<g id="a_node26"><a xlink:href="http://sparql.cwrc.ca/ontologies/cwrc#pantheism" xlink:title="Pantheism" target="_parent">
<ellipse fill="none" stroke="black" cx="97.4913" cy="-234" rx="48.1917" ry="18"/>
<text text-anchor="middle" x="97.4913" y="-230.3" font-family="Times,serif" font-size="14.00">Pantheism</text>
</a>
</g>
</g>
<!-- X43c0c&#45;&gt;X52798 -->
<!-- Xe7b0a -->
<g id="node16" class="node"><title>Xe7b0a</title>
<g id="a_node16"><a xlink:href="http://sparql.cwrc.ca/ontologies/cwrc#neo-thomism" xlink:title="Neo&#45;thomism" target="_parent">
<ellipse fill="none" stroke="black" cx="272.491" cy="-306" rx="59.5901" ry="18"/>
<text text-anchor="middle" x="272.491" y="-302.3" font-family="Times,serif" font-size="14.00">Neo&#45;thomism</text>
</a>
</g>
</g>
<!-- Xe7b0a&#45;&gt;X32f53 -->
<g id="edge13" class="edge"><title>Xe7b0a&#45;&gt;X32f53</title>
<path fill="none" stroke="black" d="M298.711,-289.804C342.638,-264.343 431.188,-213.021 481.113,-184.084"/>
<polygon fill="black" stroke="black" points="483.07,-186.996 489.967,-178.953 479.56,-180.939 483.07,-186.996"/>
</g>
<!-- X6f203 -->
<g id="node17" class="node"><title>X6f203</title>
<g id="a_node17"><a xlink:href="http://sparql.cwrc.ca/ontologies/cwrc#christianScience" xlink:title="Christian Science" target="_parent">
<ellipse fill="none" stroke="black" cx="344.491" cy="-162" rx="72.5877" ry="18"/>
<text text-anchor="middle" x="344.491" y="-158.3" font-family="Times,serif" font-size="14.00">Christian Science</text>
</a>
</g>
</g>
<!-- X6f203&#45;&gt;Xadf16 -->
<g id="edge14" class="edge"><title>X6f203&#45;&gt;Xadf16</title>
<path fill="none" stroke="black" d="M398.202,-149.675C460.177,-136.608 561.464,-115.253 623.243,-102.227"/>
<polygon fill="black" stroke="black" points="624.117,-105.62 633.18,-100.132 622.673,-98.7704 624.117,-105.62"/>
</g>
<!-- Xb45be -->
<g id="node18" class="node"><title>Xb45be</title>
<g id="a_node18"><a xlink:href="http://sparql.cwrc.ca/ontologies/cwrc#millenarianism" xlink:title="Millenarianism" target="_parent">
<ellipse fill="none" stroke="black" cx="912.491" cy="-234" rx="65.7887" ry="18"/>
<text text-anchor="middle" x="912.491" y="-230.3" font-family="Times,serif" font-size="14.00">Millenarianism</text>
</a>
</g>
</g>
<!-- Xe1e3e -->
<g id="node19" class="node"><title>Xe1e3e</title>
<g id="a_node19"><a xlink:href="http://sparql.cwrc.ca/ontologies/cwrc#methodism" xlink:title="Methodism" target="_parent">
<ellipse fill="none" stroke="black" cx="339.491" cy="-450" rx="51.9908" ry="18"/>
<text text-anchor="middle" x="339.491" y="-446.3" font-family="Times,serif" font-size="14.00">Methodism</text>
</a>
</g>
</g>
<!-- Xe1e3e&#45;&gt;X156db -->
<g id="edge15" class="edge"><title>Xe1e3e&#45;&gt;X156db</title>
<path fill="none" stroke="black" d="M341.281,-431.813C345.708,-398.543 360.318,-325.335 405.491,-288 412.937,-281.846 521.556,-261.272 596.574,-247.643"/>
<polygon fill="black" stroke="black" points="597.248,-251.078 606.463,-245.851 595.999,-244.19 597.248,-251.078"/>
</g>
<!-- Xd53bc -->
<g id="node20" class="node"><title>Xd53bc</title>
<g id="a_node20"><a xlink:href="http://sparql.cwrc.ca/ontologies/cwrc#baptistChristianity" xlink:title="Baptist Christianity" target="_parent">
<ellipse fill="none" stroke="black" cx="350.491" cy="-522" rx="79.0865" ry="18"/>
<text text-anchor="middle" x="350.491" y="-518.3" font-family="Times,serif" font-size="14.00">Baptist Christianity</text>
</a>
</g>
</g>
<!-- Xd53bc&#45;&gt;X156db -->
<g id="edge17" class="edge"><title>Xd53bc&#45;&gt;X156db</title>
<path fill="none" stroke="black" d="M370.715,-504.265C381.071,-494.666 393.035,-481.8 400.491,-468 439.591,-395.637 385.268,-346.097 443.491,-288 454.528,-276.987 535.354,-259.705 596.779,-247.89"/>
<polygon fill="black" stroke="black" points="597.675,-251.282 606.841,-245.97 596.363,-244.406 597.675,-251.282"/>
</g>
<!-- Xd32ac -->
<g id="node21" class="node"><title>Xd32ac</title>
<g id="a_node21"><a xlink:href="http://sparql.cwrc.ca/ontologies/cwrc#judaism" xlink:title="Judaism" target="_parent">
<ellipse fill="none" stroke="black" cx="904.491" cy="-90" rx="40.0939" ry="18"/>
<text text-anchor="middle" x="904.491" y="-86.3" font-family="Times,serif" font-size="14.00">Judaism</text>
</a>
</g>
</g>
<!-- Xd32ac&#45;&gt;Xb2336 -->
<g id="edge18" class="edge"><title>Xd32ac&#45;&gt;Xb2336</title>
<path fill="none" stroke="black" d="M904.491,-71.6966C904.491,-63.9827 904.491,-54.7125 904.491,-46.1124"/>
<polygon fill="black" stroke="black" points="907.991,-46.1043 904.491,-36.1043 900.991,-46.1044 907.991,-46.1043"/>
</g>
<!-- Xd2614 -->
<g id="node22" class="node"><title>Xd2614</title>
<g id="a_node22"><a xlink:href="http://sparql.cwrc.ca/ontologies/cwrc#fifthMonarchists" xlink:title="Fifth Monarchists" target="_parent">
<ellipse fill="none" stroke="black" cx="847.491" cy="-306" rx="74.187" ry="18"/>
<text text-anchor="middle" x="847.491" y="-302.3" font-family="Times,serif" font-size="14.00">Fifth Monarchists</text>
</a>
</g>
</g>
<!-- Xd2614&#45;&gt;X156db -->
<g id="edge19" class="edge"><title>Xd2614&#45;&gt;X156db</title>
<path fill="none" stroke="black" d="M809.757,-290.326C782.342,-279.664 745.025,-265.152 715.488,-253.666"/>
<polygon fill="black" stroke="black" points="716.384,-250.259 705.796,-249.896 713.847,-256.783 716.384,-250.259"/>
</g>
<!-- Xd2614&#45;&gt;Xb45be -->
<g id="edge20" class="edge"><title>Xd2614&#45;&gt;Xb45be</title>
<path fill="none" stroke="black" d="M863.226,-288.055C871.21,-279.457 881.053,-268.857 889.837,-259.397"/>
<polygon fill="black" stroke="black" points="892.662,-261.499 896.902,-251.789 887.532,-256.735 892.662,-261.499"/>
</g>
<!-- Xb800b -->
<g id="node23" class="node"><title>Xb800b</title>
<g id="a_node23"><a xlink:href="http://sparql.cwrc.ca/ontologies/cwrc#tractarianMovement" xlink:title="Tractarian Movement" target="_parent">
<ellipse fill="none" stroke="black" cx="1203.49" cy="-306" rx="88.2844" ry="18"/>
<text text-anchor="middle" x="1203.49" y="-302.3" font-family="Times,serif" font-size="14.00">Tractarian Movement</text>
</a>
</g>
</g>
<!-- Xb800b&#45;&gt;Xf6f10 -->
<g id="edge21" class="edge"><title>Xb800b&#45;&gt;Xf6f10</title>
<path fill="none" stroke="black" d="M1177.11,-288.711C1135.07,-262.758 1052.95,-212.06 1006.88,-183.617"/>
<polygon fill="black" stroke="black" points="1008.52,-180.514 998.174,-178.239 1004.84,-186.47 1008.52,-180.514"/>
</g>
<!-- X8fa8b -->
<g id="node24" class="node"><title>X8fa8b</title>
<g id="a_node24"><a xlink:href="http://sparql.cwrc.ca/ontologies/cwrc#plymouthBrethren" xlink:title="Plymouth Brethren" target="_parent">
<ellipse fill="none" stroke="black" cx="1018.49" cy="-306" rx="78.7863" ry="18"/>
<text text-anchor="middle" x="1018.49" y="-302.3" font-family="Times,serif" font-size="14.00">Plymouth Brethren</text>
</a>
</g>
</g>
<!-- X8fa8b&#45;&gt;X156db -->
<g id="edge22" class="edge"><title>X8fa8b&#45;&gt;X156db</title>
<path fill="none" stroke="black" d="M961.316,-293.597C899.51,-281.271 801.054,-261.637 735.367,-248.536"/>
<polygon fill="black" stroke="black" points="736.01,-245.096 725.519,-246.572 734.641,-251.961 736.01,-245.096"/>
</g>
<!-- X8fa8b&#45;&gt;Xb45be -->
<g id="edge23" class="edge"><title>X8fa8b&#45;&gt;Xb45be</title>
<path fill="none" stroke="black" d="M993.906,-288.765C979.354,-279.155 960.745,-266.865 944.992,-256.462"/>
<polygon fill="black" stroke="black" points="946.851,-253.496 936.578,-250.906 942.993,-259.337 946.851,-253.496"/>
</g>
<!-- X7477d -->
<g id="node25" class="node"><title>X7477d</title>
<g id="a_node25"><a xlink:href="http://sparql.cwrc.ca/ontologies/cwrc#congregationalism" xlink:title="Congregationalism" target="_parent">
<ellipse fill="none" stroke="black" cx="457.491" cy="-594" rx="77.9862" ry="18"/>
<text text-anchor="middle" x="457.491" y="-590.3" font-family="Times,serif" font-size="14.00">Congregationalism</text>
</a>
</g>
</g>
<!-- X7477d&#45;&gt;X156db -->
<g id="edge24" class="edge"><title>X7477d&#45;&gt;X156db</title>
<path fill="none" stroke="black" d="M457.491,-575.951C457.491,-549.292 457.491,-496.115 457.491,-451 457.491,-451 457.491,-451 457.491,-377 457.491,-336.553 448.767,-317.45 476.491,-288 492.898,-270.573 547.869,-256.436 594.651,-247.159"/>
<polygon fill="black" stroke="black" points="595.34,-250.591 604.492,-245.254 594.009,-243.718 595.34,-250.591"/>
</g>
<!-- X7152e -->
<g id="node28" class="node"><title>X7152e</title>
<g id="a_node28"><a xlink:href="http://sparql.cwrc.ca/ontologies/cwrc#atheism" xlink:title="Atheism" target="_parent">
<ellipse fill="none" stroke="black" cx="97.4913" cy="-162" rx="40.8928" ry="18"/>
<text text-anchor="middle" x="97.4913" y="-158.3" font-family="Times,serif" font-size="14.00">Atheism</text>
</a>
</g>
</g>
<!-- X52798&#45;&gt;X7152e -->
<!-- Xc1422 -->
<g id="node27" class="node"><title>Xc1422</title>
<g id="a_node27"><a xlink:href="http://sparql.cwrc.ca/ontologies/cwrc#islam" xlink:title="Islamism" target="_parent">
<ellipse fill="none" stroke="black" cx="1091.49" cy="-162" rx="44.393" ry="18"/>
<text text-anchor="middle" x="1091.49" y="-158.3" font-family="Times,serif" font-size="14.00">Islamism</text>
</a>
</g>
</g>
<!-- Xc1422&#45;&gt;Xb2336 -->
<g id="edge26" class="edge"><title>Xc1422&#45;&gt;Xb2336</title>
<path fill="none" stroke="black" d="M1071.48,-145.804C1038.54,-120.793 972.742,-70.8267 934.305,-41.6392"/>
<polygon fill="black" stroke="black" points="936.16,-38.6534 926.08,-35.3932 931.927,-44.2283 936.16,-38.6534"/>
</g>
<!-- X043aa -->
<g id="node29" class="node"><title>X043aa</title>
<g id="a_node29"><a xlink:href="http://sparql.cwrc.ca/ontologies/cwrc#unitarianism" xlink:title="Unitarianism" target="_parent">
<ellipse fill="none" stroke="black" cx="542.491" cy="-306" rx="57.3905" ry="18"/>
<text text-anchor="middle" x="542.491" y="-302.3" font-family="Times,serif" font-size="14.00">Unitarianism</text>
</a>
</g>
</g>
<!-- X043aa&#45;&gt;X156db -->
<g id="edge28" class="edge"><title>X043aa&#45;&gt;X156db</title>
<path fill="none" stroke="black" d="M569.307,-289.983C587.019,-280.065 610.48,-266.926 630.027,-255.98"/>
<polygon fill="black" stroke="black" points="631.967,-258.905 638.982,-250.966 628.546,-252.798 631.967,-258.905"/>
</g>
</g>
</svg>
