<?xml version="1.0" encoding="UTF-8" standalone="no"?>
<!DOCTYPE svg PUBLIC "-//W3C//DTD SVG 1.1//EN"
 "http://www.w3.org/Graphics/SVG/1.1/DTD/svg11.dtd">
<!-- Generated by graphviz version 2.38.0 (20140413.2041)
 -->
<!-- Title: ReligionGraph Pages: 1 -->
<svg width="1907pt" height="548pt"
 viewBox="0.00 0.00 1906.78 548.00" xmlns="http://www.w3.org/2000/svg" xmlns:xlink="http://www.w3.org/1999/xlink">
<g id="graph0" class="graph" transform="scale(1 1) rotate(0) translate(4 544)">
<title>ReligionGraph</title>
<polygon fill="white" stroke="none" points="-4,4 -4,-544 1902.78,-544 1902.78,4 -4,4"/>
<!-- X156db -->
<g id="node1" class="node"><title>X156db</title>
<g id="a_node1"><a xlink:href="http://sparql.cwrc.ca/ontologies/cwrc#dissentProtestant" xlink:title="Dissent (Protestant)" target="_parent">
<ellipse fill="none" stroke="black" cx="649.592" cy="-234" rx="104.782" ry="18"/>
<text text-anchor="middle" x="649.592" y="-230.3" font-family="Times,serif" font-size="14.00">Dissent (Protestant)</text>
</a>
</g>
</g>
<!-- Xf6f10 -->
<g id="node2" class="node"><title>Xf6f10</title>
<g id="a_node2"><a xlink:href="http://sparql.cwrc.ca/ontologies/cwrc#anglicanism" xlink:title="Anglicanism" target="_parent">
<ellipse fill="none" stroke="black" cx="649.592" cy="-162" rx="68.4888" ry="18"/>
<text text-anchor="middle" x="649.592" y="-158.3" font-family="Times,serif" font-size="14.00">Anglicanism</text>
</a>
</g>
</g>
<!-- X156db&#45;&gt;Xf6f10 -->
<g id="edge1" class="edge"><title>X156db&#45;&gt;Xf6f10</title>
<path fill="none" stroke="black" d="M649.592,-215.697C649.592,-207.983 649.592,-198.712 649.592,-190.112"/>
<polygon fill="black" stroke="black" points="653.092,-190.104 649.592,-180.104 646.092,-190.104 653.092,-190.104"/>
</g>
<!-- Xadf16 -->
<g id="node3" class="node"><title>Xadf16</title>
<g id="a_node3"><a xlink:href="http://sparql.cwrc.ca/ontologies/cwrc#christianity" xlink:title="Christianity" target="_parent">
<ellipse fill="none" stroke="black" cx="1039.59" cy="-90" rx="66.0889" ry="18"/>
<text text-anchor="middle" x="1039.59" y="-86.3" font-family="Times,serif" font-size="14.00">Christianity</text>
</a>
</g>
</g>
<!-- Xf6f10&#45;&gt;Xadf16 -->
<g id="edge2" class="edge"><title>Xf6f10&#45;&gt;Xadf16</title>
<path fill="none" stroke="black" d="M704.23,-151.193C775.654,-138.373 900.521,-115.961 976.079,-102.4"/>
<polygon fill="black" stroke="black" points="976.725,-105.84 985.949,-100.628 975.488,-98.95 976.725,-105.84"/>
</g>
<!-- Xb2336 -->
<g id="node7" class="node"><title>Xb2336</title>
<g id="a_node7"><a xlink:href="http://sparql.cwrc.ca/ontologies/cwrc#abrahamicReligions" xlink:title="Abrahamic religions" target="_parent">
<ellipse fill="none" stroke="black" cx="1352.59" cy="-18" rx="104.782" ry="18"/>
<text text-anchor="middle" x="1352.59" y="-14.3" font-family="Times,serif" font-size="14.00">Abrahamic religions</text>
</a>
</g>
</g>
<!-- Xadf16&#45;&gt;Xb2336 -->
<g id="edge5" class="edge"><title>Xadf16&#45;&gt;Xb2336</title>
<path fill="none" stroke="black" d="M1089.19,-77.9083C1141.01,-66.3195 1222.78,-48.0321 1281.47,-34.9069"/>
<polygon fill="black" stroke="black" points="1282.41,-38.2813 1291.41,-32.683 1280.89,-31.45 1282.41,-38.2813"/>
</g>
<!-- X3b80a -->
<g id="node4" class="node"><title>X3b80a</title>
<g id="a_node4"><a xlink:href="http://sparql.cwrc.ca/ontologies/cwrc#buddhism" xlink:title="Buddhism" target="_parent">
<ellipse fill="none" stroke="black" cx="1776.59" cy="-522" rx="57.6901" ry="18"/>
<text text-anchor="middle" x="1776.59" y="-518.3" font-family="Times,serif" font-size="14.00">Buddhism</text>
</a>
</g>
</g>
<!-- X37200 -->
<g id="node5" class="node"><title>X37200</title>
<g id="a_node5"><a xlink:href="http://sparql.cwrc.ca/ontologies/cwrc#paganism" xlink:title="Paganism" target="_parent">
<ellipse fill="none" stroke="black" cx="1776.59" cy="-450" rx="55.7903" ry="18"/>
<text text-anchor="middle" x="1776.59" y="-446.3" font-family="Times,serif" font-size="14.00">Paganism</text>
</a>
</g>
</g>
<!-- X3b80a&#45;&gt;X37200 -->
<!-- Xc7ed9 -->
<g id="node10" class="node"><title>Xc7ed9</title>
<g id="a_node10"><a xlink:href="http://sparql.cwrc.ca/ontologies/cwrc#hinduism" xlink:title="Hinduism" target="_parent">
<ellipse fill="none" stroke="black" cx="1776.59" cy="-378" rx="55.7903" ry="18"/>
<text text-anchor="middle" x="1776.59" y="-374.3" font-family="Times,serif" font-size="14.00">Hinduism</text>
</a>
</g>
</g>
<!-- X37200&#45;&gt;Xc7ed9 -->
<!-- Xb800b -->
<g id="node6" class="node"><title>Xb800b</title>
<g id="a_node6"><a xlink:href="http://sparql.cwrc.ca/ontologies/cwrc#tractarianMovement" xlink:title="Tractarian Movement" target="_parent">
<ellipse fill="none" stroke="black" cx="233.592" cy="-234" rx="112.38" ry="18"/>
<text text-anchor="middle" x="233.592" y="-230.3" font-family="Times,serif" font-size="14.00">Tractarian Movement</text>
</a>
</g>
</g>
<!-- Xb800b&#45;&gt;Xf6f10 -->
<g id="edge4" class="edge"><title>Xb800b&#45;&gt;Xf6f10</title>
<path fill="none" stroke="black" d="M315.694,-221.624C384.501,-211.74 485.221,-196.458 572.592,-180 578.28,-178.928 584.19,-177.747 590.093,-176.522"/>
<polygon fill="black" stroke="black" points="590.921,-179.924 599.98,-174.429 589.472,-173.076 590.921,-179.924"/>
</g>
<!-- X9deb8 -->
<g id="node8" class="node"><title>X9deb8</title>
<g id="a_node8"><a xlink:href="http://sparql.cwrc.ca/ontologies/cwrc#dissentingChristianity" xlink:title="Dissenting Christianity" target="_parent">
<ellipse fill="none" stroke="black" cx="1206.59" cy="-234" rx="118.879" ry="18"/>
<text text-anchor="middle" x="1206.59" y="-230.3" font-family="Times,serif" font-size="14.00">Dissenting Christianity</text>
</a>
</g>
</g>
<!-- X4e4b1 -->
<g id="node9" class="node"><title>X4e4b1</title>
<g id="a_node9"><a xlink:href="http://sparql.cwrc.ca/ontologies/cwrc#protestantism" xlink:title="Protestantism" target="_parent">
<ellipse fill="none" stroke="black" cx="1039.59" cy="-162" rx="76.8869" ry="18"/>
<text text-anchor="middle" x="1039.59" y="-158.3" font-family="Times,serif" font-size="14.00">Protestantism</text>
</a>
</g>
</g>
<!-- X9deb8&#45;&gt;X4e4b1 -->
<g id="edge6" class="edge"><title>X9deb8&#45;&gt;X4e4b1</title>
<path fill="none" stroke="black" d="M1168.28,-216.941C1143.41,-206.515 1110.88,-192.882 1084.75,-181.93"/>
<polygon fill="black" stroke="black" points="1086.02,-178.665 1075.44,-178.027 1083.31,-185.121 1086.02,-178.665"/>
</g>
<!-- X4e4b1&#45;&gt;Xadf16 -->
<g id="edge7" class="edge"><title>X4e4b1&#45;&gt;Xadf16</title>
<path fill="none" stroke="black" d="M1039.59,-143.697C1039.59,-135.983 1039.59,-126.712 1039.59,-118.112"/>
<polygon fill="black" stroke="black" points="1043.09,-118.104 1039.59,-108.104 1036.09,-118.104 1043.09,-118.104"/>
</g>
<!-- X930a7 -->
<g id="node11" class="node"><title>X930a7</title>
<g id="a_node11"><a xlink:href="http://sparql.cwrc.ca/ontologies/cwrc#Pantheism" xlink:title="Pantheism" target="_parent">
<ellipse fill="none" stroke="black" cx="1776.59" cy="-306" rx="59.5901" ry="18"/>
<text text-anchor="middle" x="1776.59" y="-302.3" font-family="Times,serif" font-size="14.00">Pantheism</text>
</a>
</g>
</g>
<!-- Xc7ed9&#45;&gt;X930a7 -->
<!-- X43c0c -->
<g id="node18" class="node"><title>X43c0c</title>
<g id="a_node18"><a xlink:href="http://sparql.cwrc.ca/ontologies/cwrc#occultism" xlink:title="Occultism/Theosophism" target="_parent">
<ellipse fill="none" stroke="black" cx="1776.59" cy="-234" rx="122.379" ry="18"/>
<text text-anchor="middle" x="1776.59" y="-230.3" font-family="Times,serif" font-size="14.00">Occultism/Theosophism</text>
</a>
</g>
</g>
<!-- X930a7&#45;&gt;X43c0c -->
<!-- X32f53 -->
<g id="node12" class="node"><title>X32f53</title>
<g id="a_node12"><a xlink:href="http://sparql.cwrc.ca/ontologies/cwrc#catholicism" xlink:title="Roman Catholicism" target="_parent">
<ellipse fill="none" stroke="black" cx="1399.59" cy="-162" rx="101.282" ry="18"/>
<text text-anchor="middle" x="1399.59" y="-158.3" font-family="Times,serif" font-size="14.00">Roman Catholicism</text>
</a>
</g>
</g>
<!-- X32f53&#45;&gt;Xadf16 -->
<g id="edge10" class="edge"><title>X32f53&#45;&gt;Xadf16</title>
<path fill="none" stroke="black" d="M1333.98,-148.242C1267.95,-135.403 1166.86,-115.746 1101.99,-103.133"/>
<polygon fill="black" stroke="black" points="1102.39,-99.6449 1091.9,-101.172 1101.05,-106.516 1102.39,-99.6449"/>
</g>
<!-- X253de -->
<g id="node13" class="node"><title>X253de</title>
<g id="a_node13"><a xlink:href="http://sparql.cwrc.ca/ontologies/cwrc#quakerism" xlink:title="Quakerism" target="_parent">
<ellipse fill="none" stroke="black" cx="723.592" cy="-306" rx="61.99" ry="18"/>
<text text-anchor="middle" x="723.592" y="-302.3" font-family="Times,serif" font-size="14.00">Quakerism</text>
</a>
</g>
</g>
<!-- X253de&#45;&gt;X156db -->
<g id="edge11" class="edge"><title>X253de&#45;&gt;X156db</title>
<path fill="none" stroke="black" d="M706.055,-288.411C696.791,-279.648 685.251,-268.732 675.023,-259.057"/>
<polygon fill="black" stroke="black" points="677.187,-256.286 667.517,-251.956 672.376,-261.371 677.187,-256.286"/>
</g>
<!-- X253de&#45;&gt;X4e4b1 -->
<g id="edge12" class="edge"><title>X253de&#45;&gt;X4e4b1</title>
<path fill="none" stroke="black" d="M777.704,-297.262C819.324,-289.782 877.345,-275.961 923.592,-252 945.722,-240.534 946.94,-231.331 966.592,-216 979.963,-205.569 995.083,-194.48 1008.08,-185.156"/>
<polygon fill="black" stroke="black" points="1010.17,-187.966 1016.27,-179.308 1006.1,-182.268 1010.17,-187.966"/>
</g>
<!-- X7477d -->
<g id="node14" class="node"><title>X7477d</title>
<g id="a_node14"><a xlink:href="http://sparql.cwrc.ca/ontologies/cwrc#congregationalism" xlink:title="Congregationalism" target="_parent">
<ellipse fill="none" stroke="black" cx="1232.59" cy="-306" rx="98.5829" ry="18"/>
<text text-anchor="middle" x="1232.59" y="-302.3" font-family="Times,serif" font-size="14.00">Congregationalism</text>
</a>
</g>
</g>
<!-- X7477d&#45;&gt;X4e4b1 -->
<g id="edge13" class="edge"><title>X7477d&#45;&gt;X4e4b1</title>
<path fill="none" stroke="black" d="M1161.38,-293.409C1132.82,-285.712 1101.36,-272.982 1078.59,-252 1060.82,-235.622 1050.73,-209.705 1045.28,-190.053"/>
<polygon fill="black" stroke="black" points="1048.62,-188.993 1042.78,-180.156 1041.84,-190.709 1048.62,-188.993"/>
</g>
<!-- X6f203 -->
<g id="node15" class="node"><title>X6f203</title>
<g id="a_node15"><a xlink:href="http://sparql.cwrc.ca/ontologies/cwrc#christianScience" xlink:title="Christian Science" target="_parent">
<ellipse fill="none" stroke="black" cx="470.592" cy="-162" rx="92.8835" ry="18"/>
<text text-anchor="middle" x="470.592" y="-158.3" font-family="Times,serif" font-size="14.00">Christian Science</text>
</a>
</g>
</g>
<!-- X6f203&#45;&gt;Xadf16 -->
<g id="edge14" class="edge"><title>X6f203&#45;&gt;Xadf16</title>
<path fill="none" stroke="black" d="M537.179,-149.388C548.96,-147.481 561.124,-145.605 572.592,-144 712.403,-124.429 876.54,-107.104 968.262,-97.9276"/>
<polygon fill="black" stroke="black" points="968.664,-101.405 978.267,-96.9303 967.969,-94.4396 968.664,-101.405"/>
</g>
<!-- X1cc79 -->
<g id="node16" class="node"><title>X1cc79</title>
<g id="a_node16"><a xlink:href="http://sparql.cwrc.ca/ontologies/cwrc#lollardy" xlink:title="Lollardy" target="_parent">
<ellipse fill="none" stroke="black" cx="1474.59" cy="-234" rx="49.2915" ry="18"/>
<text text-anchor="middle" x="1474.59" y="-230.3" font-family="Times,serif" font-size="14.00">Lollardy</text>
</a>
</g>
</g>
<!-- X1cc79&#45;&gt;X32f53 -->
<g id="edge15" class="edge"><title>X1cc79&#45;&gt;X32f53</title>
<path fill="none" stroke="black" d="M1457.2,-216.765C1447.66,-207.86 1435.65,-196.654 1425.07,-186.78"/>
<polygon fill="black" stroke="black" points="1427.37,-184.143 1417.68,-179.878 1422.6,-189.26 1427.37,-184.143"/>
</g>
<!-- Xd53bc -->
<g id="node17" class="node"><title>Xd53bc</title>
<g id="a_node17"><a xlink:href="http://sparql.cwrc.ca/ontologies/cwrc#baptistChristianity" xlink:title="Baptist Christianity" target="_parent">
<ellipse fill="none" stroke="black" cx="1266.59" cy="-378" rx="102.882" ry="18"/>
<text text-anchor="middle" x="1266.59" y="-374.3" font-family="Times,serif" font-size="14.00">Baptist Christianity</text>
</a>
</g>
</g>
<!-- Xd53bc&#45;&gt;X4e4b1 -->
<g id="edge16" class="edge"><title>Xd53bc&#45;&gt;X4e4b1</title>
<path fill="none" stroke="black" d="M1302.04,-360.96C1316.78,-352.286 1332.36,-340.023 1340.59,-324 1350.26,-305.186 1344.66,-227.073 1334.59,-216 1306.99,-185.653 1201.48,-172.583 1124.51,-167.02"/>
<polygon fill="black" stroke="black" points="1124.54,-163.514 1114.32,-166.315 1124.06,-170.497 1124.54,-163.514"/>
</g>
<!-- X36b94 -->
<g id="node20" class="node"><title>X36b94</title>
<g id="a_node20"><a xlink:href="http://sparql.cwrc.ca/ontologies/cwrc#agnosticism" xlink:title="Agnosticism" target="_parent">
<ellipse fill="none" stroke="black" cx="1776.59" cy="-162" rx="68.4888" ry="18"/>
<text text-anchor="middle" x="1776.59" y="-158.3" font-family="Times,serif" font-size="14.00">Agnosticism</text>
</a>
</g>
</g>
<!-- X43c0c&#45;&gt;X36b94 -->
<!-- Xd32ac -->
<g id="node19" class="node"><title>Xd32ac</title>
<g id="a_node19"><a xlink:href="http://sparql.cwrc.ca/ontologies/cwrc#judaism" xlink:title="Judaism" target="_parent">
<ellipse fill="none" stroke="black" cx="1352.59" cy="-90" rx="48.1917" ry="18"/>
<text text-anchor="middle" x="1352.59" y="-86.3" font-family="Times,serif" font-size="14.00">Judaism</text>
</a>
</g>
</g>
<!-- Xd32ac&#45;&gt;Xb2336 -->
<g id="edge18" class="edge"><title>Xd32ac&#45;&gt;Xb2336</title>
<path fill="none" stroke="black" d="M1352.59,-71.6966C1352.59,-63.9827 1352.59,-54.7125 1352.59,-46.1124"/>
<polygon fill="black" stroke="black" points="1356.09,-46.1043 1352.59,-36.1043 1349.09,-46.1044 1356.09,-46.1043"/>
</g>
<!-- Xd35c6 -->
<g id="node22" class="node"><title>Xd35c6</title>
<g id="a_node22"><a xlink:href="http://sparql.cwrc.ca/ontologies/cwrc#spiritualism" xlink:title="Spiritualism" target="_parent">
<ellipse fill="none" stroke="black" cx="1776.59" cy="-90" rx="67.6881" ry="18"/>
<text text-anchor="middle" x="1776.59" y="-86.3" font-family="Times,serif" font-size="14.00">Spiritualism</text>
</a>
</g>
</g>
<!-- X36b94&#45;&gt;Xd35c6 -->
<!-- Xe7b0a -->
<g id="node21" class="node"><title>Xe7b0a</title>
<g id="a_node21"><a xlink:href="http://sparql.cwrc.ca/ontologies/cwrc#neo-thomism" xlink:title="Neo&#45;thomism" target="_parent">
<ellipse fill="none" stroke="black" cx="1551.59" cy="-306" rx="73.387" ry="18"/>
<text text-anchor="middle" x="1551.59" y="-302.3" font-family="Times,serif" font-size="14.00">Neo&#45;thomism</text>
</a>
</g>
</g>
<!-- Xe7b0a&#45;&gt;X32f53 -->
<g id="edge20" class="edge"><title>Xe7b0a&#45;&gt;X32f53</title>
<path fill="none" stroke="black" d="M1552.47,-287.871C1552.54,-268.275 1549.71,-236.285 1532.59,-216 1517.93,-198.621 1496.76,-186.895 1475.6,-179.001"/>
<polygon fill="black" stroke="black" points="1476.5,-175.608 1465.91,-175.636 1474.21,-182.222 1476.5,-175.608"/>
</g>
<!-- X7152e -->
<g id="node25" class="node"><title>X7152e</title>
<g id="a_node25"><a xlink:href="http://sparql.cwrc.ca/ontologies/cwrc#atheism" xlink:title="Atheism" target="_parent">
<ellipse fill="none" stroke="black" cx="1776.59" cy="-18" rx="49.2915" ry="18"/>
<text text-anchor="middle" x="1776.59" y="-14.3" font-family="Times,serif" font-size="14.00">Atheism</text>
</a>
</g>
</g>
<!-- Xd35c6&#45;&gt;X7152e -->
<!-- Xe1e3e -->
<g id="node23" class="node"><title>Xe1e3e</title>
<g id="a_node23"><a xlink:href="http://sparql.cwrc.ca/ontologies/cwrc#methodism" xlink:title="Methodism" target="_parent">
<ellipse fill="none" stroke="black" cx="1397.59" cy="-450" rx="63.8893" ry="18"/>
<text text-anchor="middle" x="1397.59" y="-446.3" font-family="Times,serif" font-size="14.00">Methodism</text>
</a>
</g>
</g>
<!-- Xe1e3e&#45;&gt;X4e4b1 -->
<g id="edge22" class="edge"><title>Xe1e3e&#45;&gt;X4e4b1</title>
<path fill="none" stroke="black" d="M1400.22,-431.978C1405.81,-388.955 1413.84,-275.091 1353.59,-216 1321.89,-184.909 1206.35,-171.969 1124.66,-166.642"/>
<polygon fill="black" stroke="black" points="1124.57,-163.129 1114.37,-165.999 1124.14,-170.116 1124.57,-163.129"/>
</g>
<!-- Xc1422 -->
<g id="node24" class="node"><title>Xc1422</title>
<g id="a_node24"><a xlink:href="http://sparql.cwrc.ca/ontologies/cwrc#islam" xlink:title="Islamism" target="_parent">
<ellipse fill="none" stroke="black" cx="1572.59" cy="-162" rx="53.0913" ry="18"/>
<text text-anchor="middle" x="1572.59" y="-158.3" font-family="Times,serif" font-size="14.00">Islamism</text>
</a>
</g>
</g>
<!-- Xc1422&#45;&gt;Xb2336 -->
<g id="edge23" class="edge"><title>Xc1422&#45;&gt;Xb2336</title>
<path fill="none" stroke="black" d="M1549.05,-145.804C1510.08,-120.65 1432,-70.2541 1386.89,-41.1403"/>
<polygon fill="black" stroke="black" points="1388.63,-38.0975 1378.33,-35.6151 1384.84,-43.9788 1388.63,-38.0975"/>
</g>
<!-- Xd2614 -->
<g id="node26" class="node"><title>Xd2614</title>
<g id="a_node26"><a xlink:href="http://sparql.cwrc.ca/ontologies/cwrc#fifthMonarchists" xlink:title="Fifth Monarchists" target="_parent">
<ellipse fill="none" stroke="black" cx="496.592" cy="-306" rx="94.7833" ry="18"/>
<text text-anchor="middle" x="496.592" y="-302.3" font-family="Times,serif" font-size="14.00">Fifth Monarchists</text>
</a>
</g>
</g>
<!-- Xd2614&#45;&gt;X156db -->
<g id="edge25" class="edge"><title>Xd2614&#45;&gt;X156db</title>
<path fill="none" stroke="black" d="M531.31,-289.116C553.162,-279.118 581.576,-266.118 605.077,-255.366"/>
<polygon fill="black" stroke="black" points="606.844,-258.407 614.481,-251.064 603.932,-252.041 606.844,-258.407"/>
</g>
<!-- Xb45be -->
<g id="node27" class="node"><title>Xb45be</title>
<g id="a_node27"><a xlink:href="http://sparql.cwrc.ca/ontologies/cwrc#millenarianism" xlink:title="Millenarianism" target="_parent">
<ellipse fill="none" stroke="black" cx="445.592" cy="-234" rx="81.4863" ry="18"/>
<text text-anchor="middle" x="445.592" y="-230.3" font-family="Times,serif" font-size="14.00">Millenarianism</text>
</a>
</g>
</g>
<!-- Xd2614&#45;&gt;Xb45be -->
<g id="edge26" class="edge"><title>Xd2614&#45;&gt;Xb45be</title>
<path fill="none" stroke="black" d="M484.246,-288.055C478.197,-279.753 470.788,-269.584 464.081,-260.378"/>
<polygon fill="black" stroke="black" points="466.895,-258.297 458.178,-252.275 461.238,-262.419 466.895,-258.297"/>
</g>
<!-- X2a5d0 -->
<g id="node28" class="node"><title>X2a5d0</title>
<g id="a_node28"><a xlink:href="http://sparql.cwrc.ca/ontologies/cwrc#churchOfIreland" xlink:title="Church of Ireland" target="_parent">
<ellipse fill="none" stroke="black" cx="93.5917" cy="-306" rx="93.6835" ry="18"/>
<text text-anchor="middle" x="93.5917" y="-302.3" font-family="Times,serif" font-size="14.00">Church of Ireland</text>
</a>
</g>
</g>
<!-- X2a5d0&#45;&gt;Xf6f10 -->
<g id="edge27" class="edge"><title>X2a5d0&#45;&gt;Xf6f10</title>
<path fill="none" stroke="black" d="M91.7627,-287.967C90.6175,-267.531 92.2673,-233.8 112.592,-216 151.159,-182.223 521.882,-187.545 572.592,-180 578.723,-179.088 585.095,-177.966 591.429,-176.738"/>
<polygon fill="black" stroke="black" points="592.208,-180.152 601.314,-174.736 590.818,-173.291 592.208,-180.152"/>
</g>
<!-- X0e2fa -->
<g id="node29" class="node"><title>X0e2fa</title>
<g id="a_node29"><a xlink:href="http://sparql.cwrc.ca/ontologies/cwrc#presbyterianism" xlink:title="Presbyterianism" target="_parent">
<ellipse fill="none" stroke="black" cx="887.592" cy="-522" rx="87.1846" ry="18"/>
<text text-anchor="middle" x="887.592" y="-518.3" font-family="Times,serif" font-size="14.00">Presbyterianism</text>
</a>
</g>
</g>
<!-- X0e2fa&#45;&gt;X4e4b1 -->
<g id="edge28" class="edge"><title>X0e2fa&#45;&gt;X4e4b1</title>
<path fill="none" stroke="black" d="M884.26,-503.726C877.344,-462.951 865.306,-358.829 906.592,-288 920.932,-263.399 938.139,-270.726 959.592,-252 982.225,-232.244 1004.81,-206.41 1020.19,-187.668"/>
<polygon fill="black" stroke="black" points="1022.94,-189.83 1026.51,-179.856 1017.5,-185.424 1022.94,-189.83"/>
</g>
<!-- X043aa -->
<g id="node30" class="node"><title>X043aa</title>
<g id="a_node30"><a xlink:href="http://sparql.cwrc.ca/ontologies/cwrc#unitarianism" xlink:title="Unitarianism" target="_parent">
<ellipse fill="none" stroke="black" cx="843.592" cy="-234" rx="71.4873" ry="18"/>
<text text-anchor="middle" x="843.592" y="-230.3" font-family="Times,serif" font-size="14.00">Unitarianism</text>
</a>
</g>
</g>
<!-- X043aa&#45;&gt;X4e4b1 -->
<g id="edge29" class="edge"><title>X043aa&#45;&gt;X4e4b1</title>
<path fill="none" stroke="black" d="M883.255,-218.834C914.002,-207.854 956.793,-192.571 989.835,-180.77"/>
<polygon fill="black" stroke="black" points="991.074,-184.044 999.314,-177.385 988.72,-177.452 991.074,-184.044"/>
</g>
<!-- X8fa8b -->
<g id="node31" class="node"><title>X8fa8b</title>
<g id="a_node31"><a xlink:href="http://sparql.cwrc.ca/ontologies/cwrc#plymouthBrethren" xlink:title="Plymouth Brethren" target="_parent">
<ellipse fill="none" stroke="black" cx="1015.59" cy="-306" rx="100.182" ry="18"/>
<text text-anchor="middle" x="1015.59" y="-302.3" font-family="Times,serif" font-size="14.00">Plymouth Brethren</text>
</a>
</g>
</g>
<!-- X8fa8b&#45;&gt;X4e4b1 -->
<g id="edge30" class="edge"><title>X8fa8b&#45;&gt;X4e4b1</title>
<path fill="none" stroke="black" d="M1018.49,-287.871C1022.58,-263.67 1030.09,-219.211 1034.96,-190.393"/>
<polygon fill="black" stroke="black" points="1038.47,-190.633 1036.69,-180.189 1031.57,-189.466 1038.47,-190.633"/>
</g>
</g>
</svg>
