<?xml version="1.0" encoding="UTF-8" standalone="no"?>
<!DOCTYPE svg PUBLIC "-//W3C//DTD SVG 1.1//EN"
 "http://www.w3.org/Graphics/SVG/1.1/DTD/svg11.dtd">
<!-- Generated by graphviz version 2.38.0 (20140413.2041)
 -->
<!-- Title: ReligionGraph Pages: 1 -->
<svg width="2160pt" height="518pt"
 viewBox="0.00 0.00 2160.00 518.11" xmlns="http://www.w3.org/2000/svg" xmlns:xlink="http://www.w3.org/1999/xlink">
<g id="graph0" class="graph" transform="scale(0.945465 0.945465) rotate(0) translate(4 544)">
<title>ReligionGraph</title>
<polygon fill="white" stroke="none" points="-4,4 -4,-544 2280.59,-544 2280.59,4 -4,4"/>
<!-- Xc7ed9 -->
<g id="node1" class="node"><title>Xc7ed9</title>
<g id="a_node1"><a xlink:href="http://sparql.cwrc.ca/ontologies/cwrc#hinduism" xlink:title="Hinduism" target="_parent">
<ellipse fill="none" stroke="black" cx="1463.75" cy="-90" rx="55.7903" ry="18"/>
<text text-anchor="middle" x="1463.75" y="-86.3" font-family="Times,serif" font-size="14.00">Hinduism</text>
</a>
</g>
</g>
<!-- X43c0c -->
<g id="node2" class="node"><title>X43c0c</title>
<g id="a_node2"><a xlink:href="http://sparql.cwrc.ca/ontologies/cwrc#occultism" xlink:title="Occultism/Theosophism" target="_parent">
<ellipse fill="none" stroke="black" cx="1959.75" cy="-18" rx="122.379" ry="18"/>
<text text-anchor="middle" x="1959.75" y="-14.3" font-family="Times,serif" font-size="14.00">Occultism/Theosophism</text>
</a>
</g>
</g>
<!-- Xc7ed9&#45;&gt;X43c0c -->
<g id="edge1" class="edge"><title>Xc7ed9&#45;&gt;X43c0c</title>
<path fill="none" stroke="black" d="M1504.12,-77.5485C1512.23,-75.5011 1520.73,-73.5347 1528.75,-72 1635.76,-51.5203 1759.32,-37.272 1846.63,-28.7466"/>
<polygon fill="black" stroke="black" points="1847.21,-32.2069 1856.82,-27.7608 1846.53,-25.2394 1847.21,-32.2069"/>
</g>
<!-- X20df1 -->
<g id="node3" class="node"><title>X20df1</title>
<g id="a_node3"><a xlink:href="http://sparql.cwrc.ca/ontologies/cwrc#lollards" xlink:title="Lollards" target="_parent">
<ellipse fill="none" stroke="black" cx="48.7457" cy="-306" rx="48.9926" ry="18"/>
<text text-anchor="middle" x="48.7457" y="-302.3" font-family="Times,serif" font-size="14.00">Lollards</text>
</a>
</g>
</g>
<!-- X752f2 -->
<g id="node4" class="node"><title>X752f2</title>
<g id="a_node4"><a xlink:href="http://sparql.cwrc.ca/ontologies/cwrc#catholicChurch" xlink:title="Roman Catholic" target="_parent">
<ellipse fill="none" stroke="black" cx="125.746" cy="-234" rx="85.2851" ry="18"/>
<text text-anchor="middle" x="125.746" y="-230.3" font-family="Times,serif" font-size="14.00">Roman Catholic</text>
</a>
</g>
</g>
<!-- X20df1&#45;&gt;X752f2 -->
<g id="edge2" class="edge"><title>X20df1&#45;&gt;X752f2</title>
<path fill="none" stroke="black" d="M66.2182,-289.116C76.0728,-280.157 88.5789,-268.788 99.5818,-258.785"/>
<polygon fill="black" stroke="black" points="102.224,-261.114 107.269,-251.797 97.5148,-255.934 102.224,-261.114"/>
</g>
<!-- Xadf16 -->
<g id="node5" class="node"><title>Xadf16</title>
<g id="a_node5"><a xlink:href="http://sparql.cwrc.ca/ontologies/cwrc#christianity" xlink:title="Christianity" target="_parent">
<ellipse fill="none" stroke="black" cx="1265.75" cy="-162" rx="66.0889" ry="18"/>
<text text-anchor="middle" x="1265.75" y="-158.3" font-family="Times,serif" font-size="14.00">Christianity</text>
</a>
</g>
</g>
<!-- X752f2&#45;&gt;Xadf16 -->
<g id="edge3" class="edge"><title>X752f2&#45;&gt;Xadf16</title>
<path fill="none" stroke="black" d="M206.362,-228.05C418.073,-215.05 987.552,-180.082 1191.67,-167.548"/>
<polygon fill="black" stroke="black" points="1191.93,-171.039 1201.7,-166.933 1191.5,-164.052 1191.93,-171.039"/>
</g>
<!-- Xb2336 -->
<g id="node7" class="node"><title>Xb2336</title>
<g id="a_node7"><a xlink:href="http://sparql.cwrc.ca/ontologies/cwrc#abrahamicReligions" xlink:title="Abrahamic Religions" target="_parent">
<ellipse fill="none" stroke="black" cx="1824.75" cy="-90" rx="107.482" ry="18"/>
<text text-anchor="middle" x="1824.75" y="-86.3" font-family="Times,serif" font-size="14.00">Abrahamic Religions</text>
</a>
</g>
</g>
<!-- Xadf16&#45;&gt;Xb2336 -->
<g id="edge5" class="edge"><title>Xadf16&#45;&gt;Xb2336</title>
<path fill="none" stroke="black" d="M1326,-154.303C1411.29,-144.706 1572.07,-126.187 1708.75,-108 1718.1,-106.755 1727.88,-105.402 1737.62,-104.023"/>
<polygon fill="black" stroke="black" points="1738.32,-107.458 1747.73,-102.579 1737.33,-100.528 1738.32,-107.458"/>
</g>
<!-- X64d3b -->
<g id="node6" class="node"><title>X64d3b</title>
<g id="a_node6"><a xlink:href="http://sparql.cwrc.ca/ontologies/cwrc#unitarianChurch" xlink:title="Unitarian Church" target="_parent">
<ellipse fill="none" stroke="black" cx="572.746" cy="-234" rx="92.0841" ry="18"/>
<text text-anchor="middle" x="572.746" y="-230.3" font-family="Times,serif" font-size="14.00">Unitarian Church</text>
</a>
</g>
</g>
<!-- X64d3b&#45;&gt;Xadf16 -->
<g id="edge4" class="edge"><title>X64d3b&#45;&gt;Xadf16</title>
<path fill="none" stroke="black" d="M638.104,-221.239C649.942,-219.326 662.194,-217.487 673.746,-216 859.584,-192.078 1079.63,-175.427 1191.86,-167.768"/>
<polygon fill="black" stroke="black" points="1192.31,-171.245 1202.05,-167.077 1191.84,-164.261 1192.31,-171.245"/>
</g>
<!-- Xb2336&#45;&gt;X43c0c -->
<g id="edge8" class="edge"><title>Xb2336&#45;&gt;X43c0c</title>
<path fill="none" stroke="black" d="M1856.06,-72.7646C1874.83,-63.028 1898.92,-50.5405 1919.15,-40.0514"/>
<polygon fill="black" stroke="black" points="1920.87,-43.1002 1928.14,-35.3898 1917.65,-36.8859 1920.87,-43.1002"/>
</g>
<!-- Xb45be -->
<g id="node8" class="node"><title>Xb45be</title>
<g id="a_node8"><a xlink:href="http://sparql.cwrc.ca/ontologies/cwrc#millenarianism" xlink:title="Millenarianism" target="_parent">
<ellipse fill="none" stroke="black" cx="1618.75" cy="-90" rx="81.4863" ry="18"/>
<text text-anchor="middle" x="1618.75" y="-86.3" font-family="Times,serif" font-size="14.00">Millenarianism</text>
</a>
</g>
</g>
<!-- Xb45be&#45;&gt;X43c0c -->
<g id="edge6" class="edge"><title>Xb45be&#45;&gt;X43c0c</title>
<path fill="none" stroke="black" d="M1676.21,-77.2046C1732.6,-65.6283 1819.02,-47.8878 1881.63,-35.0353"/>
<polygon fill="black" stroke="black" points="1882.38,-38.4556 1891.47,-33.0162 1880.97,-31.5986 1882.38,-38.4556"/>
</g>
<!-- X7152e -->
<g id="node9" class="node"><title>X7152e</title>
<g id="a_node9"><a xlink:href="http://sparql.cwrc.ca/ontologies/cwrc#atheism" xlink:title="Atheism" target="_parent">
<ellipse fill="none" stroke="black" cx="1709.75" cy="-522" rx="49.2915" ry="18"/>
<text text-anchor="middle" x="1709.75" y="-518.3" font-family="Times,serif" font-size="14.00">Atheism</text>
</a>
</g>
</g>
<!-- X965b5 -->
<g id="node10" class="node"><title>X965b5</title>
<g id="a_node10"><a xlink:href="http://sparql.cwrc.ca/ontologies/cwrc#churchOfEngland" xlink:title="Church of England" target="_parent">
<ellipse fill="none" stroke="black" cx="781.746" cy="-234" rx="98.5829" ry="18"/>
<text text-anchor="middle" x="781.746" y="-230.3" font-family="Times,serif" font-size="14.00">Church of England</text>
</a>
</g>
</g>
<!-- X965b5&#45;&gt;Xadf16 -->
<g id="edge7" class="edge"><title>X965b5&#45;&gt;Xadf16</title>
<path fill="none" stroke="black" d="M856.575,-222.178C950.087,-208.653 1108.72,-185.71 1198.53,-172.721"/>
<polygon fill="black" stroke="black" points="1199.2,-176.161 1208.6,-171.265 1198.2,-169.233 1199.2,-176.161"/>
</g>
<!-- X78bc2 -->
<g id="node11" class="node"><title>X78bc2</title>
<g id="a_node11"><a xlink:href="http://sparql.cwrc.ca/ontologies/cwrc#pagan" xlink:title="Pagan" target="_parent">
<ellipse fill="none" stroke="black" cx="1959.75" cy="-162" rx="38.9931" ry="18"/>
<text text-anchor="middle" x="1959.75" y="-158.3" font-family="Times,serif" font-size="14.00">Pagan</text>
</a>
</g>
</g>
<!-- X78bc2&#45;&gt;X43c0c -->
<g id="edge9" class="edge"><title>X78bc2&#45;&gt;X43c0c</title>
<path fill="none" stroke="black" d="M1959.75,-143.871C1959.75,-119.67 1959.75,-75.2108 1959.75,-46.3932"/>
<polygon fill="black" stroke="black" points="1963.25,-46.1892 1959.75,-36.1893 1956.25,-46.1893 1963.25,-46.1892"/>
</g>
<!-- X47b4b -->
<g id="node12" class="node"><title>X47b4b</title>
<g id="a_node12"><a xlink:href="http://sparql.cwrc.ca/ontologies/cwrc#jewishReligion" xlink:title="Jewish" target="_parent">
<ellipse fill="none" stroke="black" cx="1816.75" cy="-162" rx="41.6928" ry="18"/>
<text text-anchor="middle" x="1816.75" y="-158.3" font-family="Times,serif" font-size="14.00">Jewish</text>
</a>
</g>
</g>
<!-- X47b4b&#45;&gt;Xb2336 -->
<g id="edge10" class="edge"><title>X47b4b&#45;&gt;Xb2336</title>
<path fill="none" stroke="black" d="M1818.72,-143.697C1819.6,-135.983 1820.66,-126.712 1821.65,-118.112"/>
<polygon fill="black" stroke="black" points="1825.13,-118.437 1822.79,-108.104 1818.18,-117.642 1825.13,-118.437"/>
</g>
<!-- X4e4b1 -->
<g id="node13" class="node"><title>X4e4b1</title>
<g id="a_node13"><a xlink:href="http://sparql.cwrc.ca/ontologies/cwrc#protestantism" xlink:title="Protestantism" target="_parent">
<ellipse fill="none" stroke="black" cx="995.746" cy="-234" rx="76.8869" ry="18"/>
<text text-anchor="middle" x="995.746" y="-230.3" font-family="Times,serif" font-size="14.00">Protestantism</text>
</a>
</g>
</g>
<!-- X4e4b1&#45;&gt;Xadf16 -->
<g id="edge11" class="edge"><title>X4e4b1&#45;&gt;Xadf16</title>
<path fill="none" stroke="black" d="M1045.27,-220.161C1091.7,-208.123 1161.05,-190.144 1209.53,-177.573"/>
<polygon fill="black" stroke="black" points="1210.44,-180.954 1219.24,-175.056 1208.69,-174.178 1210.44,-180.954"/>
</g>
<!-- X0e2fa -->
<g id="node14" class="node"><title>X0e2fa</title>
<g id="a_node14"><a xlink:href="http://sparql.cwrc.ca/ontologies/cwrc#presbyterianism" xlink:title="Presbyterian" target="_parent">
<ellipse fill="none" stroke="black" cx="1128.75" cy="-306" rx="70.6878" ry="18"/>
<text text-anchor="middle" x="1128.75" y="-302.3" font-family="Times,serif" font-size="14.00">Presbyterian</text>
</a>
</g>
</g>
<!-- X0e2fa&#45;&gt;Xadf16 -->
<g id="edge12" class="edge"><title>X0e2fa&#45;&gt;Xadf16</title>
<path fill="none" stroke="black" d="M1144.66,-288.204C1161.69,-270.263 1189.52,-241.023 1213.75,-216 1222.99,-206.449 1233.23,-195.992 1242.15,-186.909"/>
<polygon fill="black" stroke="black" points="1244.77,-189.236 1249.29,-179.653 1239.79,-184.326 1244.77,-189.236"/>
</g>
<!-- Xdd64e -->
<g id="node15" class="node"><title>Xdd64e</title>
<g id="a_node15"><a xlink:href="http://sparql.cwrc.ca/ontologies/cwrc#baptistChurch" xlink:title="Baptist" target="_parent">
<ellipse fill="none" stroke="black" cx="1193.75" cy="-378" rx="44.393" ry="18"/>
<text text-anchor="middle" x="1193.75" y="-374.3" font-family="Times,serif" font-size="14.00">Baptist</text>
</a>
</g>
</g>
<!-- Xdd64e&#45;&gt;Xadf16 -->
<g id="edge13" class="edge"><title>Xdd64e&#45;&gt;Xadf16</title>
<path fill="none" stroke="black" d="M1199.52,-359.849C1212.05,-322.583 1241.86,-234.002 1256.83,-189.49"/>
<polygon fill="black" stroke="black" points="1260.18,-190.529 1260.05,-179.935 1253.54,-188.297 1260.18,-190.529"/>
</g>
<!-- X36b94 -->
<g id="node16" class="node"><title>X36b94</title>
<g id="a_node16"><a xlink:href="http://sparql.cwrc.ca/ontologies/cwrc#agnosticism" xlink:title="Agnosticism" target="_parent">
<ellipse fill="none" stroke="black" cx="2026.75" cy="-234" rx="68.4888" ry="18"/>
<text text-anchor="middle" x="2026.75" y="-230.3" font-family="Times,serif" font-size="14.00">Agnosticism</text>
</a>
</g>
</g>
<!-- X36b94&#45;&gt;X43c0c -->
<g id="edge14" class="edge"><title>X36b94&#45;&gt;X43c0c</title>
<path fill="none" stroke="black" d="M2023.89,-215.738C2020.7,-197.66 2015.03,-168.538 2007.75,-144 1997.46,-109.331 1981.95,-70.6377 1971.36,-45.6137"/>
<polygon fill="black" stroke="black" points="1974.44,-43.9147 1967.29,-36.0951 1968.01,-46.666 1974.44,-43.9147"/>
</g>
<!-- X97724 -->
<g id="node17" class="node"><title>X97724</title>
<g id="a_node17"><a xlink:href="http://sparql.cwrc.ca/ontologies/cwrc#rationalDissenter" xlink:title="Rational Dissenter" target="_parent">
<ellipse fill="none" stroke="black" cx="521.746" cy="-378" rx="96.6831" ry="18"/>
<text text-anchor="middle" x="521.746" y="-374.3" font-family="Times,serif" font-size="14.00">Rational Dissenter</text>
</a>
</g>
</g>
<!-- X991c3 -->
<g id="node18" class="node"><title>X991c3</title>
<g id="a_node18"><a xlink:href="http://sparql.cwrc.ca/ontologies/cwrc#dissenters" xlink:title="Dissenters" target="_parent">
<ellipse fill="none" stroke="black" cx="507.746" cy="-306" rx="60.3893" ry="18"/>
<text text-anchor="middle" x="507.746" y="-302.3" font-family="Times,serif" font-size="14.00">Dissenters</text>
</a>
</g>
</g>
<!-- X97724&#45;&gt;X991c3 -->
<g id="edge15" class="edge"><title>X97724&#45;&gt;X991c3</title>
<path fill="none" stroke="black" d="M518.285,-359.697C516.742,-351.983 514.888,-342.712 513.168,-334.112"/>
<polygon fill="black" stroke="black" points="516.56,-333.224 511.167,-324.104 509.696,-334.597 516.56,-333.224"/>
</g>
<!-- X991c3&#45;&gt;X965b5 -->
<g id="edge16" class="edge"><title>X991c3&#45;&gt;X965b5</title>
<path fill="none" stroke="black" d="M552.073,-293.675C596.659,-282.285 665.898,-264.596 716.703,-251.617"/>
<polygon fill="black" stroke="black" points="717.783,-254.953 726.605,-249.087 716.05,-248.171 717.783,-254.953"/>
</g>
<!-- Xa4332 -->
<g id="node19" class="node"><title>Xa4332</title>
<g id="a_node19"><a xlink:href="http://sparql.cwrc.ca/ontologies/cwrc#churchOfChristianScience" xlink:title="Christian Scientist" target="_parent">
<ellipse fill="none" stroke="black" cx="1265.75" cy="-450" rx="98.2828" ry="18"/>
<text text-anchor="middle" x="1265.75" y="-446.3" font-family="Times,serif" font-size="14.00">Christian Scientist</text>
</a>
</g>
</g>
<!-- Xa4332&#45;&gt;Xadf16 -->
<g id="edge17" class="edge"><title>Xa4332&#45;&gt;Xadf16</title>
<path fill="none" stroke="black" d="M1265.75,-431.966C1265.75,-384.291 1265.75,-249.185 1265.75,-190.63"/>
<polygon fill="black" stroke="black" points="1269.25,-190.306 1265.75,-180.306 1262.25,-190.306 1269.25,-190.306"/>
</g>
<!-- Xd2614 -->
<g id="node20" class="node"><title>Xd2614</title>
<g id="a_node20"><a xlink:href="http://sparql.cwrc.ca/ontologies/cwrc#fifthMonarchists" xlink:title="Fifth Monarchists" target="_parent">
<ellipse fill="none" stroke="black" cx="311.746" cy="-378" rx="94.7833" ry="18"/>
<text text-anchor="middle" x="311.746" y="-374.3" font-family="Times,serif" font-size="14.00">Fifth Monarchists</text>
</a>
</g>
</g>
<!-- Xd2614&#45;&gt;Xb45be -->
<g id="edge18" class="edge"><title>Xd2614&#45;&gt;Xb45be</title>
<path fill="none" stroke="black" d="M322.505,-360.095C345.28,-325.965 402.036,-249.259 471.746,-216 897.946,-12.656 1061.43,-175.885 1528.75,-108 1535.89,-106.963 1543.32,-105.759 1550.73,-104.481"/>
<polygon fill="black" stroke="black" points="1551.53,-107.892 1560.77,-102.7 1550.31,-100.999 1551.53,-107.892"/>
</g>
<!-- Xd2614&#45;&gt;X991c3 -->
<g id="edge19" class="edge"><title>Xd2614&#45;&gt;X991c3</title>
<path fill="none" stroke="black" d="M354.275,-361.811C385.701,-350.587 428.475,-335.311 460.883,-323.737"/>
<polygon fill="black" stroke="black" points="462.344,-326.931 470.584,-320.272 459.99,-320.339 462.344,-326.931"/>
</g>
<!-- X16a9c -->
<g id="node21" class="node"><title>X16a9c</title>
<g id="a_node21"><a xlink:href="http://sparql.cwrc.ca/ontologies/cwrc#dissentingChurches" xlink:title="Dissenting Churches" target="_parent">
<ellipse fill="none" stroke="black" cx="732.746" cy="-306" rx="108.581" ry="18"/>
<text text-anchor="middle" x="732.746" y="-302.3" font-family="Times,serif" font-size="14.00">Dissenting Churches</text>
</a>
</g>
</g>
<!-- X16a9c&#45;&gt;X965b5 -->
<g id="edge20" class="edge"><title>X16a9c&#45;&gt;X965b5</title>
<path fill="none" stroke="black" d="M744.607,-288.055C750.36,-279.837 757.392,-269.791 763.784,-260.66"/>
<polygon fill="black" stroke="black" points="766.786,-262.475 769.653,-252.275 761.051,-258.461 766.786,-262.475"/>
</g>
<!-- Xe0582 -->
<g id="node22" class="node"><title>Xe0582</title>
<g id="a_node22"><a xlink:href="http://sparql.cwrc.ca/ontologies/cwrc#quakers" xlink:title="Quaker" target="_parent">
<ellipse fill="none" stroke="black" cx="681.746" cy="-378" rx="44.6926" ry="18"/>
<text text-anchor="middle" x="681.746" y="-374.3" font-family="Times,serif" font-size="14.00">Quaker</text>
</a>
</g>
</g>
<!-- Xe0582&#45;&gt;X965b5 -->
<g id="edge21" class="edge"><title>Xe0582&#45;&gt;X965b5</title>
<path fill="none" stroke="black" d="M654.792,-363.525C640.028,-354.545 623.081,-341.221 614.746,-324 607.775,-309.598 605.297,-300.912 614.746,-288 626.214,-272.329 667.784,-259.106 706.576,-249.787"/>
<polygon fill="black" stroke="black" points="707.417,-253.185 716.359,-247.503 705.825,-246.369 707.417,-253.185"/>
</g>
<!-- Xe0582&#45;&gt;X991c3 -->
<g id="edge22" class="edge"><title>Xe0582&#45;&gt;X991c3</title>
<path fill="none" stroke="black" d="M651.039,-364.647C623.453,-353.549 582.634,-337.128 551.612,-324.647"/>
<polygon fill="black" stroke="black" points="552.908,-321.396 542.324,-320.911 550.295,-327.89 552.908,-321.396"/>
</g>
<!-- Xc1422 -->
<g id="node23" class="node"><title>Xc1422</title>
<g id="a_node23"><a xlink:href="http://sparql.cwrc.ca/ontologies/cwrc#islam" xlink:title="Islamism" target="_parent">
<ellipse fill="none" stroke="black" cx="1886.75" cy="-234" rx="53.0913" ry="18"/>
<text text-anchor="middle" x="1886.75" y="-230.3" font-family="Times,serif" font-size="14.00">Islamism</text>
</a>
</g>
</g>
<!-- Xc1422&#45;&gt;Xb2336 -->
<g id="edge23" class="edge"><title>Xc1422&#45;&gt;Xb2336</title>
<path fill="none" stroke="black" d="M1885.48,-215.836C1883.58,-197.328 1878.92,-167.377 1867.75,-144 1862.94,-133.955 1855.87,-124.143 1848.85,-115.747"/>
<polygon fill="black" stroke="black" points="1851.42,-113.378 1842.2,-108.169 1846.16,-117.995 1851.42,-113.378"/>
</g>
<!-- X043aa -->
<g id="node24" class="node"><title>X043aa</title>
<g id="a_node24"><a xlink:href="http://sparql.cwrc.ca/ontologies/cwrc#unitarianism" xlink:title="Unitarianism" target="_parent">
<ellipse fill="none" stroke="black" cx="968.746" cy="-306" rx="71.4873" ry="18"/>
<text text-anchor="middle" x="968.746" y="-302.3" font-family="Times,serif" font-size="14.00">Unitarianism</text>
</a>
</g>
</g>
<!-- X043aa&#45;&gt;X4e4b1 -->
<g id="edge24" class="edge"><title>X043aa&#45;&gt;X4e4b1</title>
<path fill="none" stroke="black" d="M975.282,-288.055C978.321,-280.176 982.008,-270.617 985.411,-261.794"/>
<polygon fill="black" stroke="black" points="988.749,-262.865 989.082,-252.275 982.218,-260.346 988.749,-262.865"/>
</g>
<!-- X31cc6 -->
<g id="node25" class="node"><title>X31cc6</title>
<g id="a_node25"><a xlink:href="http://sparql.cwrc.ca/ontologies/cwrc#anglicanChurch" xlink:title="Church of England" target="_parent">
<ellipse fill="none" stroke="black" cx="1392.75" cy="-234" rx="98.5829" ry="18"/>
<text text-anchor="middle" x="1392.75" y="-230.3" font-family="Times,serif" font-size="14.00">Church of England</text>
</a>
</g>
</g>
<!-- X31cc6&#45;&gt;Xadf16 -->
<g id="edge25" class="edge"><title>X31cc6&#45;&gt;Xadf16</title>
<path fill="none" stroke="black" d="M1363.29,-216.765C1345.2,-206.793 1321.87,-193.936 1302.57,-183.295"/>
<polygon fill="black" stroke="black" points="1304.18,-180.189 1293.73,-178.427 1300.8,-186.319 1304.18,-180.189"/>
</g>
<!-- X5fe17 -->
<g id="node26" class="node"><title>X5fe17</title>
<g id="a_node26"><a xlink:href="http://sparql.cwrc.ca/ontologies/cwrc#congregationalChurch" xlink:title="Congregational Church" target="_parent">
<ellipse fill="none" stroke="black" cx="1521.75" cy="-522" rx="120.479" ry="18"/>
<text text-anchor="middle" x="1521.75" y="-518.3" font-family="Times,serif" font-size="14.00">Congregational Church</text>
</a>
</g>
</g>
<!-- X5fe17&#45;&gt;Xadf16 -->
<g id="edge26" class="edge"><title>X5fe17&#45;&gt;Xadf16</title>
<path fill="none" stroke="black" d="M1526.79,-503.921C1540.64,-453.085 1573.65,-301.014 1500.75,-216 1479.73,-191.49 1398.57,-177.265 1337.47,-169.836"/>
<polygon fill="black" stroke="black" points="1337.81,-166.351 1327.47,-168.657 1336.99,-173.303 1337.81,-166.351"/>
</g>
<!-- Xd35c6 -->
<g id="node27" class="node"><title>Xd35c6</title>
<g id="a_node27"><a xlink:href="http://sparql.cwrc.ca/ontologies/cwrc#spiritualism" xlink:title="Spiritualism" target="_parent">
<ellipse fill="none" stroke="black" cx="2122.75" cy="-306" rx="67.6881" ry="18"/>
<text text-anchor="middle" x="2122.75" y="-302.3" font-family="Times,serif" font-size="14.00">Spiritualism</text>
</a>
</g>
</g>
<!-- Xd35c6&#45;&gt;X43c0c -->
<g id="edge27" class="edge"><title>Xd35c6&#45;&gt;X43c0c</title>
<path fill="none" stroke="black" d="M2121.14,-287.991C2118.94,-269.616 2114.04,-239.778 2103.75,-216 2073.77,-146.787 2015.84,-78.5634 1983.34,-43.4277"/>
<polygon fill="black" stroke="black" points="1985.81,-40.9476 1976.42,-36.0374 1980.7,-45.7305 1985.81,-40.9476"/>
</g>
<!-- X45409 -->
<g id="node28" class="node"><title>X45409</title>
<g id="a_node28"><a xlink:href="http://sparql.cwrc.ca/ontologies/cwrc#methodistChurch" xlink:title="Methodist Church" target="_parent">
<ellipse fill="none" stroke="black" cx="1643.75" cy="-234" rx="96.3833" ry="18"/>
<text text-anchor="middle" x="1643.75" y="-230.3" font-family="Times,serif" font-size="14.00">Methodist Church</text>
</a>
</g>
</g>
<!-- X45409&#45;&gt;Xadf16 -->
<g id="edge28" class="edge"><title>X45409&#45;&gt;Xadf16</title>
<path fill="none" stroke="black" d="M1577.9,-220.807C1507.84,-207.833 1397.8,-187.454 1328.82,-174.68"/>
<polygon fill="black" stroke="black" points="1329.42,-171.231 1318.95,-172.852 1328.14,-178.114 1329.42,-171.231"/>
</g>
<!-- Xb800b -->
<g id="node29" class="node"><title>Xb800b</title>
<g id="a_node29"><a xlink:href="http://sparql.cwrc.ca/ontologies/cwrc#tractarianMovement" xlink:title="Tractarian Movement" target="_parent">
<ellipse fill="none" stroke="black" cx="869.746" cy="-378" rx="112.38" ry="18"/>
<text text-anchor="middle" x="869.746" y="-374.3" font-family="Times,serif" font-size="14.00">Tractarian Movement</text>
</a>
</g>
</g>
<!-- Xb800b&#45;&gt;X965b5 -->
<g id="edge29" class="edge"><title>Xb800b&#45;&gt;X965b5</title>
<path fill="none" stroke="black" d="M869.543,-359.958C868.578,-341.016 864.745,-310.178 850.746,-288 843.025,-275.769 831.426,-265.272 819.93,-256.924"/>
<polygon fill="black" stroke="black" points="821.86,-254.004 811.635,-251.231 817.899,-259.775 821.86,-254.004"/>
</g>
<!-- X3b80a -->
<g id="node30" class="node"><title>X3b80a</title>
<g id="a_node30"><a xlink:href="http://sparql.cwrc.ca/ontologies/cwrc#buddhism" xlink:title="Buddhism" target="_parent">
<ellipse fill="none" stroke="black" cx="2218.75" cy="-378" rx="57.6901" ry="18"/>
<text text-anchor="middle" x="2218.75" y="-374.3" font-family="Times,serif" font-size="14.00">Buddhism</text>
</a>
</g>
</g>
<!-- X3b80a&#45;&gt;X43c0c -->
<g id="edge30" class="edge"><title>X3b80a&#45;&gt;X43c0c</title>
<path fill="none" stroke="black" d="M2218.75,-359.951C2218.75,-333.292 2218.75,-280.115 2218.75,-235 2218.75,-235 2218.75,-235 2218.75,-161 2218.75,-84.5633 2130.94,-48.9969 2057.58,-32.6206"/>
<polygon fill="black" stroke="black" points="2058.3,-29.1968 2047.79,-30.5289 2056.84,-36.0421 2058.3,-29.1968"/>
</g>
<!-- Xe7b0a -->
<g id="node31" class="node"><title>Xe7b0a</title>
<g id="a_node31"><a xlink:href="http://sparql.cwrc.ca/ontologies/cwrc#neo-thomism" xlink:title="Neo&#45;thomism" target="_parent">
<ellipse fill="none" stroke="black" cx="125.746" cy="-378" rx="73.387" ry="18"/>
<text text-anchor="middle" x="125.746" y="-374.3" font-family="Times,serif" font-size="14.00">Neo&#45;thomism</text>
</a>
</g>
</g>
<!-- Xe7b0a&#45;&gt;X752f2 -->
<g id="edge31" class="edge"><title>Xe7b0a&#45;&gt;X752f2</title>
<path fill="none" stroke="black" d="M125.746,-359.871C125.746,-335.67 125.746,-291.211 125.746,-262.393"/>
<polygon fill="black" stroke="black" points="129.246,-262.189 125.746,-252.189 122.246,-262.189 129.246,-262.189"/>
</g>
<!-- X8fa8b -->
<g id="node32" class="node"><title>X8fa8b</title>
<g id="a_node32"><a xlink:href="http://sparql.cwrc.ca/ontologies/cwrc#plymouthBrethren" xlink:title="Plymouth Brethren" target="_parent">
<ellipse fill="none" stroke="black" cx="1393.75" cy="-306" rx="100.182" ry="18"/>
<text text-anchor="middle" x="1393.75" y="-302.3" font-family="Times,serif" font-size="14.00">Plymouth Brethren</text>
</a>
</g>
</g>
<!-- X8fa8b&#45;&gt;X31cc6 -->
<g id="edge32" class="edge"><title>X8fa8b&#45;&gt;X31cc6</title>
<path fill="none" stroke="black" d="M1393.5,-287.697C1393.39,-279.983 1393.26,-270.712 1393.13,-262.112"/>
<polygon fill="black" stroke="black" points="1396.63,-262.053 1392.99,-252.104 1389.63,-262.153 1396.63,-262.053"/>
</g>
<!-- X2a5d0 -->
<g id="node33" class="node"><title>X2a5d0</title>
<g id="a_node33"><a xlink:href="http://sparql.cwrc.ca/ontologies/cwrc#churchOfIreland" xlink:title="Church of Ireland" target="_parent">
<ellipse fill="none" stroke="black" cx="1683.75" cy="-306" rx="93.6835" ry="18"/>
<text text-anchor="middle" x="1683.75" y="-302.3" font-family="Times,serif" font-size="14.00">Church of Ireland</text>
</a>
</g>
</g>
<!-- X2a5d0&#45;&gt;Xadf16 -->
<g id="edge33" class="edge"><title>X2a5d0&#45;&gt;Xadf16</title>
<path fill="none" stroke="black" d="M1713.62,-288.931C1726.99,-279.993 1741.38,-267.52 1748.75,-252 1755.61,-237.547 1759.42,-227.915 1748.75,-216 1722.09,-186.26 1470.57,-171.517 1341.45,-165.858"/>
<polygon fill="black" stroke="black" points="1341.38,-162.352 1331.24,-165.418 1341.08,-169.345 1341.38,-162.352"/>
</g>
<!-- Xee4f5 -->
<g id="node34" class="node"><title>Xee4f5</title>
<g id="a_node34"><a xlink:href="http://sparql.cwrc.ca/ontologies/cwrc#societyOfFriends" xlink:title="Society of Friends" target="_parent">
<ellipse fill="none" stroke="black" cx="1805.75" cy="-378" rx="94.7833" ry="18"/>
<text text-anchor="middle" x="1805.75" y="-374.3" font-family="Times,serif" font-size="14.00">Society of Friends</text>
</a>
</g>
</g>
<!-- Xee4f5&#45;&gt;Xadf16 -->
<g id="edge34" class="edge"><title>Xee4f5&#45;&gt;Xadf16</title>
<path fill="none" stroke="black" d="M1807.47,-359.848C1809.77,-326.304 1809.43,-252.148 1766.75,-216 1734.95,-189.077 1472.95,-172.871 1341.04,-166.343"/>
<polygon fill="black" stroke="black" points="1341.16,-162.845 1331,-165.853 1340.82,-169.837 1341.16,-162.845"/>
</g>
</g>
</svg>
