<?xml version="1.0" encoding="UTF-8" standalone="no"?>
<!DOCTYPE svg PUBLIC "-//W3C//DTD SVG 1.1//EN"
 "http://www.w3.org/Graphics/SVG/1.1/DTD/svg11.dtd">
<!-- Generated by graphviz version 2.38.0 (20140413.2041)
 -->
<!-- Title: ReligionGraph Pages: 1 -->
<svg width="1997pt" height="548pt"
 viewBox="0.00 0.00 1997.49 548.00" xmlns="http://www.w3.org/2000/svg" xmlns:xlink="http://www.w3.org/1999/xlink">
<g id="graph0" class="graph" transform="scale(1 1) rotate(0) translate(4 544)">
<title>ReligionGraph</title>
<polygon fill="white" stroke="none" points="-4,4 -4,-544 1993.49,-544 1993.49,4 -4,4"/>
<!-- X4e4b1 -->
<g id="node1" class="node"><title>X4e4b1</title>
<g id="a_node1"><a xlink:href="http://sparql.cwrc.ca/ontologies/cwrc#protestantism" xlink:title="Protestantism" target="_parent">
<ellipse fill="none" stroke="black" cx="938.096" cy="-162" rx="76.8869" ry="18"/>
<text text-anchor="middle" x="938.096" y="-158.3" font-family="Times,serif" font-size="14.00">Protestantism</text>
</a>
</g>
</g>
<!-- Xadf16 -->
<g id="node2" class="node"><title>Xadf16</title>
<g id="a_node2"><a xlink:href="http://sparql.cwrc.ca/ontologies/cwrc#christianity" xlink:title="Christianity" target="_parent">
<ellipse fill="none" stroke="black" cx="452.096" cy="-90" rx="66.0889" ry="18"/>
<text text-anchor="middle" x="452.096" y="-86.3" font-family="Times,serif" font-size="14.00">Christianity</text>
</a>
</g>
</g>
<!-- X4e4b1&#45;&gt;Xadf16 -->
<g id="edge1" class="edge"><title>X4e4b1&#45;&gt;Xadf16</title>
<path fill="none" stroke="black" d="M874.56,-151.849C782.583,-138.601 613.101,-114.19 519.178,-100.662"/>
<polygon fill="black" stroke="black" points="519.616,-97.1891 509.219,-99.2277 518.618,-104.118 519.616,-97.1891"/>
</g>
<!-- Xb2336 -->
<g id="node3" class="node"><title>Xb2336</title>
<g id="a_node3"><a xlink:href="http://sparql.cwrc.ca/ontologies/cwrc#abrahamicReligions" xlink:title="Abrahamic religions" target="_parent">
<ellipse fill="none" stroke="black" cx="124.096" cy="-18" rx="104.782" ry="18"/>
<text text-anchor="middle" x="124.096" y="-14.3" font-family="Times,serif" font-size="14.00">Abrahamic religions</text>
</a>
</g>
</g>
<!-- Xadf16&#45;&gt;Xb2336 -->
<g id="edge2" class="edge"><title>Xadf16&#45;&gt;Xb2336</title>
<path fill="none" stroke="black" d="M401.565,-78.2159C346.923,-66.5545 259.318,-47.8585 197.176,-34.5965"/>
<polygon fill="black" stroke="black" points="197.555,-31.0985 187.045,-32.4342 196.094,-37.9444 197.555,-31.0985"/>
</g>
<!-- X2a5d0 -->
<g id="node4" class="node"><title>X2a5d0</title>
<g id="a_node4"><a xlink:href="http://sparql.cwrc.ca/ontologies/cwrc#churchOfIreland" xlink:title="Church of Ireland" target="_parent">
<ellipse fill="none" stroke="black" cx="142.096" cy="-234" rx="93.6835" ry="18"/>
<text text-anchor="middle" x="142.096" y="-230.3" font-family="Times,serif" font-size="14.00">Church of Ireland</text>
</a>
</g>
</g>
<!-- Xf6f10 -->
<g id="node5" class="node"><title>Xf6f10</title>
<g id="a_node5"><a xlink:href="http://sparql.cwrc.ca/ontologies/cwrc#anglicanism" xlink:title="Anglicanism" target="_parent">
<ellipse fill="none" stroke="black" cx="264.096" cy="-162" rx="68.4888" ry="18"/>
<text text-anchor="middle" x="264.096" y="-158.3" font-family="Times,serif" font-size="14.00">Anglicanism</text>
</a>
</g>
</g>
<!-- X2a5d0&#45;&gt;Xf6f10 -->
<g id="edge3" class="edge"><title>X2a5d0&#45;&gt;Xf6f10</title>
<path fill="none" stroke="black" d="M170.392,-216.765C187.571,-206.907 209.665,-194.231 228.083,-183.663"/>
<polygon fill="black" stroke="black" points="229.861,-186.678 236.793,-178.666 226.377,-180.607 229.861,-186.678"/>
</g>
<!-- Xf6f10&#45;&gt;Xadf16 -->
<g id="edge4" class="edge"><title>Xf6f10&#45;&gt;Xadf16</title>
<path fill="none" stroke="black" d="M302.14,-146.834C331.894,-135.756 373.408,-120.299 405.214,-108.456"/>
<polygon fill="black" stroke="black" points="406.599,-111.675 414.749,-104.906 404.157,-105.115 406.599,-111.675"/>
</g>
<!-- X32f53 -->
<g id="node6" class="node"><title>X32f53</title>
<g id="a_node6"><a xlink:href="http://sparql.cwrc.ca/ontologies/cwrc#catholicism" xlink:title="Roman Catholicism" target="_parent">
<ellipse fill="none" stroke="black" cx="452.096" cy="-162" rx="101.282" ry="18"/>
<text text-anchor="middle" x="452.096" y="-158.3" font-family="Times,serif" font-size="14.00">Roman Catholicism</text>
</a>
</g>
</g>
<!-- X32f53&#45;&gt;Xadf16 -->
<g id="edge5" class="edge"><title>X32f53&#45;&gt;Xadf16</title>
<path fill="none" stroke="black" d="M452.096,-143.697C452.096,-135.983 452.096,-126.712 452.096,-118.112"/>
<polygon fill="black" stroke="black" points="455.596,-118.104 452.096,-108.104 448.596,-118.104 455.596,-118.104"/>
</g>
<!-- X043aa -->
<g id="node7" class="node"><title>X043aa</title>
<g id="a_node7"><a xlink:href="http://sparql.cwrc.ca/ontologies/cwrc#unitarianism" xlink:title="Unitarianism" target="_parent">
<ellipse fill="none" stroke="black" cx="763.096" cy="-234" rx="71.4873" ry="18"/>
<text text-anchor="middle" x="763.096" y="-230.3" font-family="Times,serif" font-size="14.00">Unitarianism</text>
</a>
</g>
</g>
<!-- X043aa&#45;&gt;X4e4b1 -->
<g id="edge6" class="edge"><title>X043aa&#45;&gt;X4e4b1</title>
<path fill="none" stroke="black" d="M799.781,-218.326C826.525,-207.628 862.961,-193.054 891.723,-181.549"/>
<polygon fill="black" stroke="black" points="893.172,-184.739 901.157,-177.775 890.573,-178.24 893.172,-184.739"/>
</g>
<!-- X3b80a -->
<g id="node8" class="node"><title>X3b80a</title>
<g id="a_node8"><a xlink:href="http://sparql.cwrc.ca/ontologies/cwrc#buddhism" xlink:title="Buddhism" target="_parent">
<ellipse fill="none" stroke="black" cx="1692.1" cy="-522" rx="57.6901" ry="18"/>
<text text-anchor="middle" x="1692.1" y="-518.3" font-family="Times,serif" font-size="14.00">Buddhism</text>
</a>
</g>
</g>
<!-- X37200 -->
<g id="node9" class="node"><title>X37200</title>
<g id="a_node9"><a xlink:href="http://sparql.cwrc.ca/ontologies/cwrc#paganism" xlink:title="Paganism" target="_parent">
<ellipse fill="none" stroke="black" cx="1692.1" cy="-450" rx="55.7903" ry="18"/>
<text text-anchor="middle" x="1692.1" y="-446.3" font-family="Times,serif" font-size="14.00">Paganism</text>
</a>
</g>
</g>
<!-- X3b80a&#45;&gt;X37200 -->
<!-- X7152e -->
<g id="node12" class="node"><title>X7152e</title>
<g id="a_node12"><a xlink:href="http://sparql.cwrc.ca/ontologies/cwrc#atheism" xlink:title="Atheism" target="_parent">
<ellipse fill="none" stroke="black" cx="1692.1" cy="-378" rx="49.2915" ry="18"/>
<text text-anchor="middle" x="1692.1" y="-374.3" font-family="Times,serif" font-size="14.00">Atheism</text>
</a>
</g>
</g>
<!-- X37200&#45;&gt;X7152e -->
<!-- X253de -->
<g id="node10" class="node"><title>X253de</title>
<g id="a_node10"><a xlink:href="http://sparql.cwrc.ca/ontologies/cwrc#quakerism" xlink:title="Quakerism" target="_parent">
<ellipse fill="none" stroke="black" cx="1296.1" cy="-234" rx="61.99" ry="18"/>
<text text-anchor="middle" x="1296.1" y="-230.3" font-family="Times,serif" font-size="14.00">Quakerism</text>
</a>
</g>
</g>
<!-- X253de&#45;&gt;X4e4b1 -->
<g id="edge8" class="edge"><title>X253de&#45;&gt;X4e4b1</title>
<path fill="none" stroke="black" d="M1249.12,-222.228C1239.53,-220.104 1229.5,-217.935 1220.1,-216 1147.71,-201.107 1064.53,-185.678 1007.36,-175.334"/>
<polygon fill="black" stroke="black" points="1007.82,-171.86 997.355,-173.528 1006.57,-178.749 1007.82,-171.86"/>
</g>
<!-- X991c3 -->
<g id="node11" class="node"><title>X991c3</title>
<ellipse fill="none" stroke="black" cx="1311.1" cy="-162" rx="46.2923" ry="18"/>
<text text-anchor="middle" x="1311.1" y="-158.3" font-family="Times,serif" font-size="14.00">X991c3</text>
</g>
<!-- X253de&#45;&gt;X991c3 -->
<g id="edge9" class="edge"><title>X253de&#45;&gt;X991c3</title>
<path fill="none" stroke="black" d="M1299.8,-215.697C1301.46,-207.983 1303.44,-198.712 1305.29,-190.112"/>
<polygon fill="black" stroke="black" points="1308.76,-190.616 1307.43,-180.104 1301.91,-189.149 1308.76,-190.616"/>
</g>
<!-- X36b94 -->
<g id="node17" class="node"><title>X36b94</title>
<g id="a_node17"><a xlink:href="http://sparql.cwrc.ca/ontologies/cwrc#agnosticism" xlink:title="Agnosticism" target="_parent">
<ellipse fill="none" stroke="black" cx="1692.1" cy="-306" rx="68.4888" ry="18"/>
<text text-anchor="middle" x="1692.1" y="-302.3" font-family="Times,serif" font-size="14.00">Agnosticism</text>
</a>
</g>
</g>
<!-- X7152e&#45;&gt;X36b94 -->
<!-- Xe1e3e -->
<g id="node13" class="node"><title>Xe1e3e</title>
<g id="a_node13"><a xlink:href="http://sparql.cwrc.ca/ontologies/cwrc#methodism" xlink:title="Methodism" target="_parent">
<ellipse fill="none" stroke="black" cx="808.096" cy="-306" rx="63.8893" ry="18"/>
<text text-anchor="middle" x="808.096" y="-302.3" font-family="Times,serif" font-size="14.00">Methodism</text>
</a>
</g>
</g>
<!-- Xe1e3e&#45;&gt;X4e4b1 -->
<g id="edge11" class="edge"><title>Xe1e3e&#45;&gt;X4e4b1</title>
<path fill="none" stroke="black" d="M822.199,-288.351C837.616,-270.283 863.184,-240.706 886.096,-216 894.998,-206.401 905.021,-196.076 913.875,-187.113"/>
<polygon fill="black" stroke="black" points="916.425,-189.512 920.986,-179.949 911.457,-184.58 916.425,-189.512"/>
</g>
<!-- X9deb8 -->
<g id="node14" class="node"><title>X9deb8</title>
<g id="a_node14"><a xlink:href="http://sparql.cwrc.ca/ontologies/cwrc#dissentingChristianity" xlink:title="Dissenting Christianity" target="_parent">
<ellipse fill="none" stroke="black" cx="791.096" cy="-378" rx="118.879" ry="18"/>
<text text-anchor="middle" x="791.096" y="-374.3" font-family="Times,serif" font-size="14.00">Dissenting Christianity</text>
</a>
</g>
</g>
<!-- X9deb8&#45;&gt;X4e4b1 -->
<g id="edge12" class="edge"><title>X9deb8&#45;&gt;X4e4b1</title>
<path fill="none" stroke="black" d="M831.312,-360.893C848.661,-352.205 867.947,-339.95 881.096,-324 898.36,-303.058 920.081,-229.738 931.056,-189.659"/>
<polygon fill="black" stroke="black" points="934.435,-190.572 933.668,-180.005 927.678,-188.744 934.435,-190.572"/>
</g>
<!-- X8fa8b -->
<g id="node15" class="node"><title>X8fa8b</title>
<g id="a_node15"><a xlink:href="http://sparql.cwrc.ca/ontologies/cwrc#plymouthBrethren" xlink:title="Plymouth Brethren" target="_parent">
<ellipse fill="none" stroke="black" cx="848.096" cy="-450" rx="100.182" ry="18"/>
<text text-anchor="middle" x="848.096" y="-446.3" font-family="Times,serif" font-size="14.00">Plymouth Brethren</text>
</a>
</g>
</g>
<!-- X8fa8b&#45;&gt;X4e4b1 -->
<g id="edge13" class="edge"><title>X8fa8b&#45;&gt;X4e4b1</title>
<path fill="none" stroke="black" d="M880.822,-432.792C895.068,-423.958 910.456,-411.612 919.096,-396 955.846,-329.593 949.043,-235.871 942.707,-190.178"/>
<polygon fill="black" stroke="black" points="946.149,-189.529 941.215,-180.153 939.226,-190.559 946.149,-189.529"/>
</g>
<!-- Xd32ac -->
<g id="node16" class="node"><title>Xd32ac</title>
<g id="a_node16"><a xlink:href="http://sparql.cwrc.ca/ontologies/cwrc#judaism" xlink:title="Judaism" target="_parent">
<ellipse fill="none" stroke="black" cx="48.0957" cy="-90" rx="48.1917" ry="18"/>
<text text-anchor="middle" x="48.0957" y="-86.3" font-family="Times,serif" font-size="14.00">Judaism</text>
</a>
</g>
</g>
<!-- Xd32ac&#45;&gt;Xb2336 -->
<g id="edge14" class="edge"><title>Xd32ac&#45;&gt;Xb2336</title>
<path fill="none" stroke="black" d="M65.3413,-73.1159C75.068,-64.1572 87.4116,-52.788 98.2716,-42.7853"/>
<polygon fill="black" stroke="black" points="100.874,-45.1466 105.859,-35.7973 96.132,-39.9977 100.874,-45.1466"/>
</g>
<!-- Xd35c6 -->
<g id="node23" class="node"><title>Xd35c6</title>
<g id="a_node23"><a xlink:href="http://sparql.cwrc.ca/ontologies/cwrc#spiritualism" xlink:title="Spiritualism" target="_parent">
<ellipse fill="none" stroke="black" cx="1692.1" cy="-234" rx="67.6881" ry="18"/>
<text text-anchor="middle" x="1692.1" y="-230.3" font-family="Times,serif" font-size="14.00">Spiritualism</text>
</a>
</g>
</g>
<!-- X36b94&#45;&gt;Xd35c6 -->
<!-- Xd53bc -->
<g id="node18" class="node"><title>Xd53bc</title>
<g id="a_node18"><a xlink:href="http://sparql.cwrc.ca/ontologies/cwrc#baptistChristianity" xlink:title="Baptist Christianity" target="_parent">
<ellipse fill="none" stroke="black" cx="976.096" cy="-522" rx="102.882" ry="18"/>
<text text-anchor="middle" x="976.096" y="-518.3" font-family="Times,serif" font-size="14.00">Baptist Christianity</text>
</a>
</g>
</g>
<!-- Xd53bc&#45;&gt;X4e4b1 -->
<g id="edge16" class="edge"><title>Xd53bc&#45;&gt;X4e4b1</title>
<path fill="none" stroke="black" d="M976.096,-503.951C976.096,-477.292 976.096,-424.115 976.096,-379 976.096,-379 976.096,-379 976.096,-305 976.096,-264.887 972.497,-254.459 961.096,-216 958.473,-207.153 954.765,-197.819 951.09,-189.492"/>
<polygon fill="black" stroke="black" points="954.21,-187.898 946.859,-180.268 947.847,-190.817 954.21,-187.898"/>
</g>
<!-- Xb45be -->
<g id="node19" class="node"><title>Xb45be</title>
<g id="a_node19"><a xlink:href="http://sparql.cwrc.ca/ontologies/cwrc#millenarianism" xlink:title="Millenarianism" target="_parent">
<ellipse fill="none" stroke="black" cx="1471.1" cy="-162" rx="81.4863" ry="18"/>
<text text-anchor="middle" x="1471.1" y="-158.3" font-family="Times,serif" font-size="14.00">Millenarianism</text>
</a>
</g>
</g>
<!-- X0e2fa -->
<g id="node20" class="node"><title>X0e2fa</title>
<g id="a_node20"><a xlink:href="http://sparql.cwrc.ca/ontologies/cwrc#presbyterianism" xlink:title="Presbyterianism" target="_parent">
<ellipse fill="none" stroke="black" cx="1091.1" cy="-234" rx="87.1846" ry="18"/>
<text text-anchor="middle" x="1091.1" y="-230.3" font-family="Times,serif" font-size="14.00">Presbyterianism</text>
</a>
</g>
</g>
<!-- X0e2fa&#45;&gt;X4e4b1 -->
<g id="edge17" class="edge"><title>X0e2fa&#45;&gt;X4e4b1</title>
<path fill="none" stroke="black" d="M1056.76,-217.291C1034.28,-207.006 1004.74,-193.491 980.756,-182.518"/>
<polygon fill="black" stroke="black" points="982.078,-179.274 971.528,-178.296 979.165,-185.639 982.078,-179.274"/>
</g>
<!-- Xe7b0a -->
<g id="node21" class="node"><title>Xe7b0a</title>
<g id="a_node21"><a xlink:href="http://sparql.cwrc.ca/ontologies/cwrc#neo-thomism" xlink:title="Neo&#45;thomism" target="_parent">
<ellipse fill="none" stroke="black" cx="1839.1" cy="-450" rx="73.387" ry="18"/>
<text text-anchor="middle" x="1839.1" y="-446.3" font-family="Times,serif" font-size="14.00">Neo&#45;thomism</text>
</a>
</g>
</g>
<!-- X752f2 -->
<g id="node22" class="node"><title>X752f2</title>
<ellipse fill="none" stroke="black" cx="1889.1" cy="-378" rx="44.393" ry="18"/>
<text text-anchor="middle" x="1889.1" y="-374.3" font-family="Times,serif" font-size="14.00">X752f2</text>
</g>
<!-- Xe7b0a&#45;&gt;X752f2 -->
<g id="edge18" class="edge"><title>Xe7b0a&#45;&gt;X752f2</title>
<path fill="none" stroke="black" d="M1851.2,-432.055C1857.22,-423.629 1864.61,-413.28 1871.26,-403.966"/>
<polygon fill="black" stroke="black" points="1874.14,-405.961 1877.1,-395.789 1868.44,-401.892 1874.14,-405.961"/>
</g>
<!-- X43c0c -->
<g id="node26" class="node"><title>X43c0c</title>
<g id="a_node26"><a xlink:href="http://sparql.cwrc.ca/ontologies/cwrc#occultism" xlink:title="Occultism/Theosophism" target="_parent">
<ellipse fill="none" stroke="black" cx="1692.1" cy="-162" rx="122.379" ry="18"/>
<text text-anchor="middle" x="1692.1" y="-158.3" font-family="Times,serif" font-size="14.00">Occultism/Theosophism</text>
</a>
</g>
</g>
<!-- Xd35c6&#45;&gt;X43c0c -->
<!-- Xd2614 -->
<g id="node24" class="node"><title>Xd2614</title>
<g id="a_node24"><a xlink:href="http://sparql.cwrc.ca/ontologies/cwrc#fifthMonarchists" xlink:title="Fifth Monarchists" target="_parent">
<ellipse fill="none" stroke="black" cx="1471.1" cy="-234" rx="94.7833" ry="18"/>
<text text-anchor="middle" x="1471.1" y="-230.3" font-family="Times,serif" font-size="14.00">Fifth Monarchists</text>
</a>
</g>
</g>
<!-- Xd2614&#45;&gt;X991c3 -->
<g id="edge20" class="edge"><title>Xd2614&#45;&gt;X991c3</title>
<path fill="none" stroke="black" d="M1435.19,-217.291C1409.83,-206.197 1375.88,-191.344 1349.9,-179.978"/>
<polygon fill="black" stroke="black" points="1351.29,-176.764 1340.72,-175.962 1348.48,-183.177 1351.29,-176.764"/>
</g>
<!-- Xd2614&#45;&gt;Xb45be -->
<g id="edge21" class="edge"><title>Xd2614&#45;&gt;Xb45be</title>
<path fill="none" stroke="black" d="M1471.1,-215.697C1471.1,-207.983 1471.1,-198.712 1471.1,-190.112"/>
<polygon fill="black" stroke="black" points="1474.6,-190.104 1471.1,-180.104 1467.6,-190.104 1474.6,-190.104"/>
</g>
<!-- Xc1422 -->
<g id="node25" class="node"><title>Xc1422</title>
<g id="a_node25"><a xlink:href="http://sparql.cwrc.ca/ontologies/cwrc#islam" xlink:title="Islamism" target="_parent">
<ellipse fill="none" stroke="black" cx="124.096" cy="-162" rx="53.0913" ry="18"/>
<text text-anchor="middle" x="124.096" y="-158.3" font-family="Times,serif" font-size="14.00">Islamism</text>
</a>
</g>
</g>
<!-- Xc1422&#45;&gt;Xb2336 -->
<g id="edge22" class="edge"><title>Xc1422&#45;&gt;Xb2336</title>
<path fill="none" stroke="black" d="M124.096,-143.871C124.096,-119.67 124.096,-75.2108 124.096,-46.3932"/>
<polygon fill="black" stroke="black" points="127.596,-46.1892 124.096,-36.1893 120.596,-46.1893 127.596,-46.1892"/>
</g>
<!-- X930a7 -->
<g id="node27" class="node"><title>X930a7</title>
<g id="a_node27"><a xlink:href="http://sparql.cwrc.ca/ontologies/cwrc#Pantheism" xlink:title="Pantheism" target="_parent">
<ellipse fill="none" stroke="black" cx="1692.1" cy="-90" rx="59.5901" ry="18"/>
<text text-anchor="middle" x="1692.1" y="-86.3" font-family="Times,serif" font-size="14.00">Pantheism</text>
</a>
</g>
</g>
<!-- X43c0c&#45;&gt;X930a7 -->
<!-- Xc7ed9 -->
<g id="node32" class="node"><title>Xc7ed9</title>
<g id="a_node32"><a xlink:href="http://sparql.cwrc.ca/ontologies/cwrc#hinduism" xlink:title="Hinduism" target="_parent">
<ellipse fill="none" stroke="black" cx="1692.1" cy="-18" rx="55.7903" ry="18"/>
<text text-anchor="middle" x="1692.1" y="-14.3" font-family="Times,serif" font-size="14.00">Hinduism</text>
</a>
</g>
</g>
<!-- X930a7&#45;&gt;Xc7ed9 -->
<!-- X6f203 -->
<g id="node28" class="node"><title>X6f203</title>
<g id="a_node28"><a xlink:href="http://sparql.cwrc.ca/ontologies/cwrc#christianScience" xlink:title="Christian Science" target="_parent">
<ellipse fill="none" stroke="black" cx="581.096" cy="-234" rx="92.8835" ry="18"/>
<text text-anchor="middle" x="581.096" y="-230.3" font-family="Times,serif" font-size="14.00">Christian Science</text>
</a>
</g>
</g>
<!-- X6f203&#45;&gt;Xadf16 -->
<g id="edge25" class="edge"><title>X6f203&#45;&gt;Xadf16</title>
<path fill="none" stroke="black" d="M581.715,-215.731C581.517,-196.299 578.399,-164.746 562.096,-144 548.532,-126.74 527.942,-114.772 508.23,-106.638"/>
<polygon fill="black" stroke="black" points="509.248,-103.279 498.659,-102.946 506.73,-109.81 509.248,-103.279"/>
</g>
<!-- Xb800b -->
<g id="node29" class="node"><title>Xb800b</title>
<g id="a_node29"><a xlink:href="http://sparql.cwrc.ca/ontologies/cwrc#tractarianMovement" xlink:title="Tractarian Movement" target="_parent">
<ellipse fill="none" stroke="black" cx="264.096" cy="-306" rx="112.38" ry="18"/>
<text text-anchor="middle" x="264.096" y="-302.3" font-family="Times,serif" font-size="14.00">Tractarian Movement</text>
</a>
</g>
</g>
<!-- Xb800b&#45;&gt;Xf6f10 -->
<g id="edge26" class="edge"><title>Xb800b&#45;&gt;Xf6f10</title>
<path fill="none" stroke="black" d="M264.096,-287.871C264.096,-263.67 264.096,-219.211 264.096,-190.393"/>
<polygon fill="black" stroke="black" points="267.596,-190.189 264.096,-180.189 260.596,-190.189 267.596,-190.189"/>
</g>
<!-- X156db -->
<g id="node30" class="node"><title>X156db</title>
<g id="a_node30"><a xlink:href="http://sparql.cwrc.ca/ontologies/cwrc#dissentProtestant" xlink:title="Dissent (Protestant)" target="_parent">
<ellipse fill="none" stroke="black" cx="404.096" cy="-378" rx="104.782" ry="18"/>
<text text-anchor="middle" x="404.096" y="-374.3" font-family="Times,serif" font-size="14.00">Dissent (Protestant)</text>
</a>
</g>
</g>
<!-- X156db&#45;&gt;Xf6f10 -->
<g id="edge27" class="edge"><title>X156db&#45;&gt;Xf6f10</title>
<path fill="none" stroke="black" d="M403.249,-359.978C401.707,-341.328 397.358,-311.005 385.096,-288 362.725,-246.033 322.098,-208.402 294.136,-185.651"/>
<polygon fill="black" stroke="black" points="296.253,-182.863 286.255,-179.358 291.886,-188.333 296.253,-182.863"/>
</g>
<!-- X7477d -->
<g id="node31" class="node"><title>X7477d</title>
<g id="a_node31"><a xlink:href="http://sparql.cwrc.ca/ontologies/cwrc#congregationalism" xlink:title="Congregationalism" target="_parent">
<ellipse fill="none" stroke="black" cx="1206.1" cy="-306" rx="98.5829" ry="18"/>
<text text-anchor="middle" x="1206.1" y="-302.3" font-family="Times,serif" font-size="14.00">Congregationalism</text>
</a>
</g>
</g>
<!-- X7477d&#45;&gt;X4e4b1 -->
<g id="edge28" class="edge"><title>X7477d&#45;&gt;X4e4b1</title>
<path fill="none" stroke="black" d="M1207.55,-287.689C1208.21,-267.616 1205.98,-234.875 1187.1,-216 1163.58,-192.497 1081.7,-178.314 1018.18,-170.614"/>
<polygon fill="black" stroke="black" points="1018.5,-167.127 1008.16,-169.433 1017.68,-174.079 1018.5,-167.127"/>
</g>
<!-- X1cc79 -->
<g id="node33" class="node"><title>X1cc79</title>
<g id="a_node33"><a xlink:href="http://sparql.cwrc.ca/ontologies/cwrc#lollardy" xlink:title="Lollardy" target="_parent">
<ellipse fill="none" stroke="black" cx="1940.1" cy="-522" rx="49.2915" ry="18"/>
<text text-anchor="middle" x="1940.1" y="-518.3" font-family="Times,serif" font-size="14.00">Lollardy</text>
</a>
</g>
</g>
<!-- X1cc79&#45;&gt;X752f2 -->
<g id="edge30" class="edge"><title>X1cc79&#45;&gt;X752f2</title>
<path fill="none" stroke="black" d="M1938.15,-503.778C1935.68,-485.481 1930.57,-455.947 1921.1,-432 1917.28,-422.357 1911.8,-412.454 1906.44,-403.857"/>
<polygon fill="black" stroke="black" points="1909.36,-401.925 1900.98,-395.436 1903.49,-405.732 1909.36,-401.925"/>
</g>
</g>
</svg>
