<?xml version="1.0" encoding="UTF-8" standalone="no"?>
<!DOCTYPE svg PUBLIC "-//W3C//DTD SVG 1.1//EN"
 "http://www.w3.org/Graphics/SVG/1.1/DTD/svg11.dtd">
<!-- Generated by graphviz version 2.38.0 (20140413.2041)
 -->
<!-- Title: ReligionGraph Pages: 1 -->
<svg width="1388pt" height="620pt"
 viewBox="0.00 0.00 1388.14 620.00" xmlns="http://www.w3.org/2000/svg" xmlns:xlink="http://www.w3.org/1999/xlink">
<g id="graph0" class="graph" transform="scale(1 1) rotate(0) translate(4 616)">
<title>ReligionGraph</title>
<polygon fill="white" stroke="none" points="-4,4 -4,-616 1384.14,-616 1384.14,4 -4,4"/>
<!-- X8fa8b -->
<g id="node1" class="node"><title>X8fa8b</title>
<g id="a_node1"><a xlink:href="http://sparql.cwrc.ca/ontologies/cwrc#plymouthBrethren" xlink:title="Frères de Schwarzenau" target="_parent">
<ellipse fill="none" stroke="black" cx="92.9418" cy="-306" rx="92.8835" ry="18"/>
<text text-anchor="middle" x="92.9418" y="-302.3" font-family="Times,serif" font-size="14.00">Frères de Schwarzenau</text>
</a>
</g>
</g>
<!-- Xb45be -->
<g id="node2" class="node"><title>Xb45be</title>
<g id="a_node2"><a xlink:href="http://sparql.cwrc.ca/ontologies/cwrc#millenarianism" xlink:title="millénarisme, ou chiliasme" target="_parent">
<ellipse fill="none" stroke="black" cx="199.942" cy="-234" rx="107.781" ry="18"/>
<text text-anchor="middle" x="199.942" y="-230.3" font-family="Times,serif" font-size="14.00">millénarisme, ou chiliasme</text>
</a>
</g>
</g>
<!-- X8fa8b&#45;&gt;Xb45be -->
<g id="edge1" class="edge"><title>X8fa8b&#45;&gt;Xb45be</title>
<path fill="none" stroke="black" d="M118.028,-288.588C132.28,-279.265 150.321,-267.462 165.842,-257.308"/>
<polygon fill="black" stroke="black" points="168.189,-259.955 174.641,-251.552 164.357,-254.097 168.189,-259.955"/>
</g>
<!-- X156db -->
<g id="node3" class="node"><title>X156db</title>
<g id="a_node3"><a xlink:href="http://sparql.cwrc.ca/ontologies/cwrc#dissentProtestant" xlink:title="dissidents (ou non&#45;conformistes)" target="_parent">
<ellipse fill="none" stroke="black" cx="638.942" cy="-234" rx="126.978" ry="18"/>
<text text-anchor="middle" x="638.942" y="-230.3" font-family="Times,serif" font-size="14.00">dissidents (ou non&#45;conformistes)</text>
</a>
</g>
</g>
<!-- X8fa8b&#45;&gt;X156db -->
<g id="edge2" class="edge"><title>X8fa8b&#45;&gt;X156db</title>
<path fill="none" stroke="black" d="M159.811,-293.4C171.506,-291.501 183.568,-289.626 194.942,-288 309.199,-271.668 440.5,-256.43 530.509,-246.524"/>
<polygon fill="black" stroke="black" points="530.896,-250.002 540.455,-245.432 530.133,-243.044 530.896,-250.002"/>
</g>
<!-- X4e4b1 -->
<g id="node4" class="node"><title>X4e4b1</title>
<g id="a_node4"><a xlink:href="http://sparql.cwrc.ca/ontologies/cwrc#protestantism" xlink:title="protestantisme" target="_parent">
<ellipse fill="none" stroke="black" cx="672.942" cy="-162" rx="62.2891" ry="18"/>
<text text-anchor="middle" x="672.942" y="-158.3" font-family="Times,serif" font-size="14.00">protestantisme</text>
</a>
</g>
</g>
<!-- X156db&#45;&gt;X4e4b1 -->
<g id="edge3" class="edge"><title>X156db&#45;&gt;X4e4b1</title>
<path fill="none" stroke="black" d="M647.346,-215.697C651.217,-207.728 655.893,-198.1 660.185,-189.264"/>
<polygon fill="black" stroke="black" points="663.413,-190.629 664.634,-180.104 657.117,-187.57 663.413,-190.629"/>
</g>
<!-- Xadf16 -->
<g id="node7" class="node"><title>Xadf16</title>
<g id="a_node7"><a xlink:href="http://sparql.cwrc.ca/ontologies/cwrc#christianity" xlink:title="Christianisme" target="_parent">
<ellipse fill="none" stroke="black" cx="884.942" cy="-90" rx="59.5901" ry="18"/>
<text text-anchor="middle" x="884.942" y="-86.3" font-family="Times,serif" font-size="14.00">Christianisme</text>
</a>
</g>
</g>
<!-- X4e4b1&#45;&gt;Xadf16 -->
<g id="edge12" class="edge"><title>X4e4b1&#45;&gt;Xadf16</title>
<path fill="none" stroke="black" d="M712.32,-147.998C747.385,-136.42 798.807,-119.441 836.405,-107.026"/>
<polygon fill="black" stroke="black" points="837.734,-110.274 846.132,-103.815 835.539,-103.627 837.734,-110.274"/>
</g>
<!-- Xb800b -->
<g id="node5" class="node"><title>Xb800b</title>
<g id="a_node5"><a xlink:href="http://sparql.cwrc.ca/ontologies/cwrc#tractarianMovement" xlink:title="tractarianisme" target="_parent">
<ellipse fill="none" stroke="black" cx="844.942" cy="-234" rx="61.1893" ry="18"/>
<text text-anchor="middle" x="844.942" y="-230.3" font-family="Times,serif" font-size="14.00">tractarianisme</text>
</a>
</g>
</g>
<!-- Xf6f10 -->
<g id="node6" class="node"><title>Xf6f10</title>
<g id="a_node6"><a xlink:href="http://sparql.cwrc.ca/ontologies/cwrc#anglicanism" xlink:title="Église d&#39;Angleterre" target="_parent">
<ellipse fill="none" stroke="black" cx="866.942" cy="-162" rx="78.7863" ry="18"/>
<text text-anchor="middle" x="866.942" y="-158.3" font-family="Times,serif" font-size="14.00">Église d&#39;Angleterre</text>
</a>
</g>
</g>
<!-- Xb800b&#45;&gt;Xf6f10 -->
<g id="edge4" class="edge"><title>Xb800b&#45;&gt;Xf6f10</title>
<path fill="none" stroke="black" d="M850.267,-216.055C852.717,-208.261 855.683,-198.822 858.431,-190.079"/>
<polygon fill="black" stroke="black" points="861.853,-190.865 861.512,-180.275 855.175,-188.766 861.853,-190.865"/>
</g>
<!-- Xf6f10&#45;&gt;Xadf16 -->
<g id="edge5" class="edge"><title>Xf6f10&#45;&gt;Xadf16</title>
<path fill="none" stroke="black" d="M871.391,-143.697C873.397,-135.898 875.811,-126.509 878.043,-117.829"/>
<polygon fill="black" stroke="black" points="881.443,-118.661 880.543,-108.104 874.663,-116.918 881.443,-118.661"/>
</g>
<!-- Xb2336 -->
<g id="node11" class="node"><title>Xb2336</title>
<g id="a_node11"><a xlink:href="http://sparql.cwrc.ca/ontologies/cwrc#abrahamicReligions" xlink:title="Religions abrahamiques" target="_parent">
<ellipse fill="none" stroke="black" cx="1159.94" cy="-18" rx="96.3833" ry="18"/>
<text text-anchor="middle" x="1159.94" y="-14.3" font-family="Times,serif" font-size="14.00">Religions abrahamiques</text>
</a>
</g>
</g>
<!-- Xadf16&#45;&gt;Xb2336 -->
<g id="edge8" class="edge"><title>Xadf16&#45;&gt;Xb2336</title>
<path fill="none" stroke="black" d="M929.125,-77.7533C974.104,-66.304 1044.31,-48.434 1095.49,-35.4065"/>
<polygon fill="black" stroke="black" points="1096.63,-38.7277 1105.46,-32.869 1094.9,-31.944 1096.63,-38.7277"/>
</g>
<!-- X3b80a -->
<g id="node8" class="node"><title>X3b80a</title>
<g id="a_node8"><a xlink:href="http://sparql.cwrc.ca/ontologies/cwrc#buddhism" xlink:title="Bouddhisme" target="_parent">
<ellipse fill="none" stroke="black" cx="1322.94" cy="-594" rx="55.7903" ry="18"/>
<text text-anchor="middle" x="1322.94" y="-590.3" font-family="Times,serif" font-size="14.00">Bouddhisme</text>
</a>
</g>
</g>
<!-- X37200 -->
<g id="node9" class="node"><title>X37200</title>
<g id="a_node9"><a xlink:href="http://sparql.cwrc.ca/ontologies/cwrc#paganism" xlink:title="Paganisme" target="_parent">
<ellipse fill="none" stroke="black" cx="1322.94" cy="-522" rx="49.2915" ry="18"/>
<text text-anchor="middle" x="1322.94" y="-518.3" font-family="Times,serif" font-size="14.00">Paganisme</text>
</a>
</g>
</g>
<!-- X3b80a&#45;&gt;X37200 -->
<!-- X36b94 -->
<g id="node12" class="node"><title>X36b94</title>
<g id="a_node12"><a xlink:href="http://sparql.cwrc.ca/ontologies/cwrc#agnosticism" xlink:title="agnosticisme" target="_parent">
<ellipse fill="none" stroke="black" cx="1322.94" cy="-450" rx="57.3905" ry="18"/>
<text text-anchor="middle" x="1322.94" y="-446.3" font-family="Times,serif" font-size="14.00">agnosticisme</text>
</a>
</g>
</g>
<!-- X37200&#45;&gt;X36b94 -->
<!-- Xe1e3e -->
<g id="node10" class="node"><title>Xe1e3e</title>
<g id="a_node10"><a xlink:href="http://sparql.cwrc.ca/ontologies/cwrc#methodism" xlink:title="Église méthodiste" target="_parent">
<ellipse fill="none" stroke="black" cx="501.942" cy="-306" rx="74.187" ry="18"/>
<text text-anchor="middle" x="501.942" y="-302.3" font-family="Times,serif" font-size="14.00">Église méthodiste</text>
</a>
</g>
</g>
<!-- Xe1e3e&#45;&gt;X156db -->
<g id="edge7" class="edge"><title>Xe1e3e&#45;&gt;X156db</title>
<path fill="none" stroke="black" d="M532.346,-289.465C551.574,-279.641 576.673,-266.816 597.685,-256.08"/>
<polygon fill="black" stroke="black" points="599.401,-259.134 606.713,-251.467 596.216,-252.9 599.401,-259.134"/>
</g>
<!-- Xd35c6 -->
<g id="node13" class="node"><title>Xd35c6</title>
<g id="a_node13"><a xlink:href="http://sparql.cwrc.ca/ontologies/cwrc#spiritualism" xlink:title="Spritisme" target="_parent">
<ellipse fill="none" stroke="black" cx="1322.94" cy="-378" rx="44.6926" ry="18"/>
<text text-anchor="middle" x="1322.94" y="-374.3" font-family="Times,serif" font-size="14.00">Spritisme</text>
</a>
</g>
</g>
<!-- X36b94&#45;&gt;Xd35c6 -->
<!-- X7152e -->
<g id="node14" class="node"><title>X7152e</title>
<g id="a_node14"><a xlink:href="http://sparql.cwrc.ca/ontologies/cwrc#atheism" xlink:title="athéisme" target="_parent">
<ellipse fill="none" stroke="black" cx="1322.94" cy="-306" rx="42.4939" ry="18"/>
<text text-anchor="middle" x="1322.94" y="-302.3" font-family="Times,serif" font-size="14.00">athéisme</text>
</a>
</g>
</g>
<!-- Xd35c6&#45;&gt;X7152e -->
<!-- X52798 -->
<g id="node16" class="node"><title>X52798</title>
<g id="a_node16"><a xlink:href="http://sparql.cwrc.ca/ontologies/cwrc#pantheism" xlink:title="Panthéisme" target="_parent">
<ellipse fill="none" stroke="black" cx="1322.94" cy="-234" rx="51.9908" ry="18"/>
<text text-anchor="middle" x="1322.94" y="-230.3" font-family="Times,serif" font-size="14.00">Panthéisme</text>
</a>
</g>
</g>
<!-- X7152e&#45;&gt;X52798 -->
<!-- X0e2fa -->
<g id="node15" class="node"><title>X0e2fa</title>
<g id="a_node15"><a xlink:href="http://sparql.cwrc.ca/ontologies/cwrc#presbyterianism" xlink:title="Presbytarianisme" target="_parent">
<ellipse fill="none" stroke="black" cx="542.942" cy="-378" rx="71.4873" ry="18"/>
<text text-anchor="middle" x="542.942" y="-374.3" font-family="Times,serif" font-size="14.00">Presbytarianisme</text>
</a>
</g>
</g>
<!-- X0e2fa&#45;&gt;X156db -->
<g id="edge13" class="edge"><title>X0e2fa&#45;&gt;X156db</title>
<path fill="none" stroke="black" d="M557.116,-360.227C565.532,-350.001 576.227,-336.529 584.942,-324 599.266,-303.406 613.933,-278.979 624.359,-260.931"/>
<polygon fill="black" stroke="black" points="627.467,-262.545 629.4,-252.128 621.393,-259.066 627.467,-262.545"/>
</g>
<!-- X43c0c -->
<g id="node17" class="node"><title>X43c0c</title>
<g id="a_node17"><a xlink:href="http://sparql.cwrc.ca/ontologies/cwrc#occultism" xlink:title="occultisme" target="_parent">
<ellipse fill="none" stroke="black" cx="1322.94" cy="-162" rx="49.2915" ry="18"/>
<text text-anchor="middle" x="1322.94" y="-158.3" font-family="Times,serif" font-size="14.00">occultisme</text>
</a>
</g>
</g>
<!-- X52798&#45;&gt;X43c0c -->
<!-- Xc7ed9 -->
<g id="node20" class="node"><title>Xc7ed9</title>
<g id="a_node20"><a xlink:href="http://sparql.cwrc.ca/ontologies/cwrc#hinduism" xlink:title="Hindou" target="_parent">
<ellipse fill="none" stroke="black" cx="1322.94" cy="-90" rx="37.0935" ry="18"/>
<text text-anchor="middle" x="1322.94" y="-86.3" font-family="Times,serif" font-size="14.00">Hindou</text>
</a>
</g>
</g>
<!-- X43c0c&#45;&gt;Xc7ed9 -->
<!-- Xd53bc -->
<g id="node18" class="node"><title>Xd53bc</title>
<g id="a_node18"><a xlink:href="http://sparql.cwrc.ca/ontologies/cwrc#baptistChristianity" xlink:title="Baptisme" target="_parent">
<ellipse fill="none" stroke="black" cx="607.942" cy="-450" rx="44.393" ry="18"/>
<text text-anchor="middle" x="607.942" y="-446.3" font-family="Times,serif" font-size="14.00">Baptisme</text>
</a>
</g>
</g>
<!-- Xd53bc&#45;&gt;X156db -->
<g id="edge16" class="edge"><title>Xd53bc&#45;&gt;X156db</title>
<path fill="none" stroke="black" d="M613.583,-431.997C616.793,-421.69 620.625,-408.214 622.942,-396 631.744,-349.589 635.886,-294.676 637.692,-262.46"/>
<polygon fill="black" stroke="black" points="641.209,-262.232 638.238,-252.062 634.219,-261.865 641.209,-262.232"/>
</g>
<!-- X7477d -->
<g id="node19" class="node"><title>X7477d</title>
<g id="a_node19"><a xlink:href="http://sparql.cwrc.ca/ontologies/cwrc#congregationalism" xlink:title="Églises congrégationalistes" target="_parent">
<ellipse fill="none" stroke="black" cx="585.942" cy="-522" rx="106.681" ry="18"/>
<text text-anchor="middle" x="585.942" y="-518.3" font-family="Times,serif" font-size="14.00">Églises congrégationalistes</text>
</a>
</g>
</g>
<!-- X7477d&#45;&gt;X156db -->
<g id="edge17" class="edge"><title>X7477d&#45;&gt;X156db</title>
<path fill="none" stroke="black" d="M622.248,-504.839C637.073,-496.2 652.657,-483.999 660.942,-468 696.029,-400.241 667.798,-306.509 650.266,-261.374"/>
<polygon fill="black" stroke="black" points="653.476,-259.976 646.503,-251.999 646.98,-262.583 653.476,-259.976"/>
</g>
<!-- Xd2614 -->
<g id="node21" class="node"><title>Xd2614</title>
<g id="a_node21"><a xlink:href="http://sparql.cwrc.ca/ontologies/cwrc#fifthMonarchists" xlink:title="Cinquièmes Monarchistes" target="_parent">
<ellipse fill="none" stroke="black" cx="306.942" cy="-306" rx="103.182" ry="18"/>
<text text-anchor="middle" x="306.942" y="-302.3" font-family="Times,serif" font-size="14.00">Cinquièmes Monarchistes</text>
</a>
</g>
</g>
<!-- Xd2614&#45;&gt;Xb45be -->
<g id="edge19" class="edge"><title>Xd2614&#45;&gt;Xb45be</title>
<path fill="none" stroke="black" d="M281.584,-288.411C267.429,-279.151 249.6,-267.487 234.217,-257.423"/>
<polygon fill="black" stroke="black" points="235.773,-254.258 225.488,-251.713 231.94,-260.116 235.773,-254.258"/>
</g>
<!-- Xd2614&#45;&gt;X156db -->
<g id="edge20" class="edge"><title>Xd2614&#45;&gt;X156db</title>
<path fill="none" stroke="black" d="M370.17,-291.669C424.592,-280.194 503.31,-263.597 561.5,-251.328"/>
<polygon fill="black" stroke="black" points="562.322,-254.732 571.385,-249.244 560.878,-247.882 562.322,-254.732"/>
</g>
<!-- X253de -->
<g id="node22" class="node"><title>X253de</title>
<g id="a_node22"><a xlink:href="http://sparql.cwrc.ca/ontologies/cwrc#quakerism" xlink:title="quaker" target="_parent">
<ellipse fill="none" stroke="black" cx="720.942" cy="-594" rx="34.394" ry="18"/>
<text text-anchor="middle" x="720.942" y="-590.3" font-family="Times,serif" font-size="14.00">quaker</text>
</a>
</g>
</g>
<!-- X253de&#45;&gt;X156db -->
<g id="edge21" class="edge"><title>X253de&#45;&gt;X156db</title>
<path fill="none" stroke="black" d="M720.942,-575.951C720.942,-549.292 720.942,-496.115 720.942,-451 720.942,-451 720.942,-451 720.942,-377 720.942,-330.621 687.732,-285.762 663.581,-259.273"/>
<polygon fill="black" stroke="black" points="666.131,-256.876 656.735,-251.982 661.028,-261.667 666.131,-256.876"/>
</g>
<!-- Xe7b0a -->
<g id="node23" class="node"><title>Xe7b0a</title>
<g id="a_node23"><a xlink:href="http://sparql.cwrc.ca/ontologies/cwrc#neo-thomism" xlink:title="néothomisme" target="_parent">
<ellipse fill="none" stroke="black" cx="1020.94" cy="-234" rx="59.2899" ry="18"/>
<text text-anchor="middle" x="1020.94" y="-230.3" font-family="Times,serif" font-size="14.00">néothomisme</text>
</a>
</g>
</g>
<!-- X32f53 -->
<g id="node24" class="node"><title>X32f53</title>
<g id="a_node24"><a xlink:href="http://sparql.cwrc.ca/ontologies/cwrc#catholicism" xlink:title="Catholicisme" target="_parent">
<ellipse fill="none" stroke="black" cx="1020.94" cy="-162" rx="57.6901" ry="18"/>
<text text-anchor="middle" x="1020.94" y="-158.3" font-family="Times,serif" font-size="14.00">Catholicisme</text>
</a>
</g>
</g>
<!-- Xe7b0a&#45;&gt;X32f53 -->
<g id="edge22" class="edge"><title>Xe7b0a&#45;&gt;X32f53</title>
<path fill="none" stroke="black" d="M1020.94,-215.697C1020.94,-207.983 1020.94,-198.712 1020.94,-190.112"/>
<polygon fill="black" stroke="black" points="1024.44,-190.104 1020.94,-180.104 1017.44,-190.104 1024.44,-190.104"/>
</g>
<!-- X32f53&#45;&gt;Xadf16 -->
<g id="edge23" class="edge"><title>X32f53&#45;&gt;Xadf16</title>
<path fill="none" stroke="black" d="M992.432,-146.326C972.258,-135.942 944.989,-121.906 922.964,-110.571"/>
<polygon fill="black" stroke="black" points="924.376,-107.361 913.883,-105.896 921.172,-113.585 924.376,-107.361"/>
</g>
<!-- Xd32ac -->
<g id="node25" class="node"><title>Xd32ac</title>
<g id="a_node25"><a xlink:href="http://sparql.cwrc.ca/ontologies/cwrc#judaism" xlink:title="Judaïsme" target="_parent">
<ellipse fill="none" stroke="black" cx="1006.94" cy="-90" rx="44.393" ry="18"/>
<text text-anchor="middle" x="1006.94" y="-86.3" font-family="Times,serif" font-size="14.00">Judaïsme</text>
</a>
</g>
</g>
<!-- Xd32ac&#45;&gt;Xb2336 -->
<g id="edge24" class="edge"><title>Xd32ac&#45;&gt;Xb2336</title>
<path fill="none" stroke="black" d="M1035.36,-75.9976C1057.99,-65.6448 1090.06,-50.9738 1115.99,-39.109"/>
<polygon fill="black" stroke="black" points="1117.6,-42.2211 1125.24,-34.8779 1114.69,-35.8557 1117.6,-42.2211"/>
</g>
<!-- X043aa -->
<g id="node26" class="node"><title>X043aa</title>
<g id="a_node26"><a xlink:href="http://sparql.cwrc.ca/ontologies/cwrc#unitarianism" xlink:title="unitarisme" target="_parent">
<ellipse fill="none" stroke="black" cx="796.942" cy="-306" rx="48.1917" ry="18"/>
<text text-anchor="middle" x="796.942" y="-302.3" font-family="Times,serif" font-size="14.00">unitarisme</text>
</a>
</g>
</g>
<!-- X043aa&#45;&gt;X156db -->
<g id="edge25" class="edge"><title>X043aa&#45;&gt;X156db</title>
<path fill="none" stroke="black" d="M767.223,-291.834C744.135,-281.605 711.696,-267.233 685.216,-255.501"/>
<polygon fill="black" stroke="black" points="686.319,-252.162 675.758,-251.311 683.483,-258.562 686.319,-252.162"/>
</g>
<!-- Xc1422 -->
<g id="node27" class="node"><title>Xc1422</title>
<g id="a_node27"><a xlink:href="http://sparql.cwrc.ca/ontologies/cwrc#islam" xlink:title="Religion Mahométane" target="_parent">
<ellipse fill="none" stroke="black" cx="1159.94" cy="-90" rx="90.1842" ry="18"/>
<text text-anchor="middle" x="1159.94" y="-86.3" font-family="Times,serif" font-size="14.00">Religion Mahométane</text>
</a>
</g>
</g>
<!-- Xc1422&#45;&gt;Xb2336 -->
<g id="edge26" class="edge"><title>Xc1422&#45;&gt;Xb2336</title>
<path fill="none" stroke="black" d="M1148.19,-72.055C1146.55,-64.3456 1146.06,-55.0269 1146.73,-46.3642"/>
<polygon fill="black" stroke="black" points="1150.22,-46.6584 1148.12,-36.2753 1143.29,-45.7065 1150.22,-46.6584"/>
</g>
<!-- Xc1422&#45;&gt;Xb2336 -->
<g id="edge27" class="edge"><title>Xc1422&#45;&gt;Xb2336</title>
<path fill="none" stroke="black" d="M1159.94,-71.6966C1159.94,-63.9827 1159.94,-54.7125 1159.94,-46.1124"/>
<polygon fill="black" stroke="black" points="1163.44,-46.1043 1159.94,-36.1043 1156.44,-46.1044 1163.44,-46.1043"/>
</g>
<!-- Xc1422&#45;&gt;Xb2336 -->
<g id="edge28" class="edge"><title>Xc1422&#45;&gt;Xb2336</title>
<path fill="none" stroke="black" d="M1171.7,-72.055C1173.33,-64.3456 1173.82,-55.0269 1173.15,-46.3642"/>
<polygon fill="black" stroke="black" points="1176.59,-45.7065 1171.77,-36.2753 1169.66,-46.6584 1176.59,-45.7065"/>
</g>
<!-- X6f203 -->
<g id="node28" class="node"><title>X6f203</title>
<g id="a_node28"><a xlink:href="http://sparql.cwrc.ca/ontologies/cwrc#christianScience" xlink:title="Science Chrétienne" target="_parent">
<ellipse fill="none" stroke="black" cx="1175.94" cy="-162" rx="79.0865" ry="18"/>
<text text-anchor="middle" x="1175.94" y="-158.3" font-family="Times,serif" font-size="14.00">Science Chrétienne</text>
</a>
</g>
</g>
<!-- X6f203&#45;&gt;Xadf16 -->
<g id="edge29" class="edge"><title>X6f203&#45;&gt;Xadf16</title>
<path fill="none" stroke="black" d="M1122.99,-148.471C1077.99,-137.799 1011.7,-122.011 953.942,-108 949.243,-106.86 944.366,-105.671 939.476,-104.475"/>
<polygon fill="black" stroke="black" points="940.017,-101.004 929.471,-102.021 938.35,-107.802 940.017,-101.004"/>
</g>
<!-- X2a5d0 -->
<g id="node29" class="node"><title>X2a5d0</title>
<g id="a_node29"><a xlink:href="http://sparql.cwrc.ca/ontologies/cwrc#churchOfIreland" xlink:title="Église d&#39;Irlande" target="_parent">
<ellipse fill="none" stroke="black" cx="933.942" cy="-306" rx="65.7887" ry="18"/>
<text text-anchor="middle" x="933.942" y="-302.3" font-family="Times,serif" font-size="14.00">Église d&#39;Irlande</text>
</a>
</g>
</g>
<!-- X2a5d0&#45;&gt;Xf6f10 -->
<g id="edge30" class="edge"><title>X2a5d0&#45;&gt;Xf6f10</title>
<path fill="none" stroke="black" d="M932.919,-287.715C931.226,-269.103 926.749,-239.065 914.942,-216 909.571,-205.509 901.583,-195.51 893.656,-187.081"/>
<polygon fill="black" stroke="black" points="895.991,-184.464 886.472,-179.813 891.012,-189.385 895.991,-184.464"/>
</g>
<!-- X1cc79 -->
<g id="node30" class="node"><title>X1cc79</title>
<g id="a_node30"><a xlink:href="http://sparql.cwrc.ca/ontologies/cwrc#lollardy" xlink:title="Lollardy" target="_parent">
<ellipse fill="none" stroke="black" cx="1107.94" cy="-306" rx="40.8928" ry="18"/>
<text text-anchor="middle" x="1107.94" y="-302.3" font-family="Times,serif" font-size="14.00">Lollardy</text>
</a>
</g>
</g>
<!-- X1cc79&#45;&gt;X32f53 -->
<g id="edge31" class="edge"><title>X1cc79&#45;&gt;X32f53</title>
<path fill="none" stroke="black" d="M1107.71,-287.976C1106.72,-269.051 1102.86,-238.228 1088.94,-216 1080.95,-203.24 1068.74,-192.325 1056.86,-183.775"/>
<polygon fill="black" stroke="black" points="1058.57,-180.706 1048.34,-177.975 1054.63,-186.494 1058.57,-180.706"/>
</g>
</g>
</svg>
