<?xml version="1.0" encoding="UTF-8" standalone="no"?>
<!DOCTYPE svg PUBLIC "-//W3C//DTD SVG 1.1//EN"
 "http://www.w3.org/Graphics/SVG/1.1/DTD/svg11.dtd">
<!-- Generated by graphviz version 2.38.0 (20140413.2041)
 -->
<!-- Title: ReligionGraph Pages: 1 -->
<svg width="1556pt" height="620pt"
 viewBox="0.00 0.00 1556.28 620.00" xmlns="http://www.w3.org/2000/svg" xmlns:xlink="http://www.w3.org/1999/xlink">
<g id="graph0" class="graph" transform="scale(1 1) rotate(0) translate(4 616)">
<title>ReligionGraph</title>
<polygon fill="white" stroke="none" points="-4,4 -4,-616 1552.28,-616 1552.28,4 -4,4"/>
<!-- X6f203 -->
<g id="node1" class="node"><title>X6f203</title>
<g id="a_node1"><a xlink:href="http://sparql.cwrc.ca/ontologies/cwrc#christianScience" xlink:title="Christian Science" target="_parent">
<ellipse fill="none" stroke="black" cx="72.7935" cy="-162" rx="72.5877" ry="18"/>
<text text-anchor="middle" x="72.7935" y="-158.3" font-family="Times,serif" font-size="14.00">Christian Science</text>
</a>
</g>
</g>
<!-- Xadf16 -->
<g id="node2" class="node"><title>Xadf16</title>
<g id="a_node2"><a xlink:href="http://sparql.cwrc.ca/ontologies/cwrc#christianity" xlink:title="Christianity" target="_parent">
<ellipse fill="none" stroke="black" cx="465.794" cy="-90" rx="51.9908" ry="18"/>
<text text-anchor="middle" x="465.794" y="-86.3" font-family="Times,serif" font-size="14.00">Christianity</text>
</a>
</g>
</g>
<!-- X6f203&#45;&gt;Xadf16 -->
<g id="edge1" class="edge"><title>X6f203&#45;&gt;Xadf16</title>
<path fill="none" stroke="black" d="M126.111,-149.659C135.65,-147.712 145.507,-145.753 154.794,-144 243.63,-127.227 347.2,-110.05 409.572,-99.9628"/>
<polygon fill="black" stroke="black" points="410.281,-103.394 419.596,-98.3453 409.166,-96.4831 410.281,-103.394"/>
</g>
<!-- Xb2336 -->
<g id="node3" class="node"><title>Xb2336</title>
<ellipse fill="none" stroke="black" cx="691.794" cy="-18" rx="38.9931" ry="18"/>
<text text-anchor="middle" x="691.794" y="-14.3" font-family="Times,serif" font-size="14.00">Xb2336</text>
</g>
<!-- Xadf16&#45;&gt;Xb2336 -->
<g id="edge2" class="edge"><title>Xadf16&#45;&gt;Xb2336</title>
<path fill="none" stroke="black" d="M503.113,-77.4409C543.736,-64.8585 608.51,-44.7957 650.597,-31.7599"/>
<polygon fill="black" stroke="black" points="651.741,-35.0698 660.258,-28.7677 649.67,-28.3832 651.741,-35.0698"/>
</g>
<!-- X1cc79 -->
<g id="node4" class="node"><title>X1cc79</title>
<g id="a_node4"><a xlink:href="http://sparql.cwrc.ca/ontologies/cwrc#lollardy" xlink:title="Lollardy" target="_parent">
<ellipse fill="none" stroke="black" cx="148.794" cy="-234" rx="40.8928" ry="18"/>
<text text-anchor="middle" x="148.794" y="-230.3" font-family="Times,serif" font-size="14.00">Lollardy</text>
</a>
</g>
</g>
<!-- X32f53 -->
<g id="node5" class="node"><title>X32f53</title>
<g id="a_node5"><a xlink:href="http://sparql.cwrc.ca/ontologies/cwrc#catholicism" xlink:title="Roman Catholicism" target="_parent">
<ellipse fill="none" stroke="black" cx="245.794" cy="-162" rx="81.7856" ry="18"/>
<text text-anchor="middle" x="245.794" y="-158.3" font-family="Times,serif" font-size="14.00">Roman Catholicism</text>
</a>
</g>
</g>
<!-- X1cc79&#45;&gt;X32f53 -->
<g id="edge3" class="edge"><title>X1cc79&#45;&gt;X32f53</title>
<path fill="none" stroke="black" d="M169.365,-218.155C182.474,-208.694 199.714,-196.253 214.502,-185.582"/>
<polygon fill="black" stroke="black" points="216.814,-188.229 222.875,-179.539 212.718,-182.553 216.814,-188.229"/>
</g>
<!-- X32f53&#45;&gt;Xadf16 -->
<g id="edge4" class="edge"><title>X32f53&#45;&gt;Xadf16</title>
<path fill="none" stroke="black" d="M290.314,-146.834C327.657,-134.953 380.83,-118.034 418.84,-105.94"/>
<polygon fill="black" stroke="black" points="420.177,-109.187 428.645,-102.82 418.054,-102.517 420.177,-109.187"/>
</g>
<!-- X253de -->
<g id="node6" class="node"><title>X253de</title>
<g id="a_node6"><a xlink:href="http://sparql.cwrc.ca/ontologies/cwrc#quakerism" xlink:title="Quakerism" target="_parent">
<ellipse fill="none" stroke="black" cx="492.794" cy="-306" rx="50.0912" ry="18"/>
<text text-anchor="middle" x="492.794" y="-302.3" font-family="Times,serif" font-size="14.00">Quakerism</text>
</a>
</g>
</g>
<!-- X4e4b1 -->
<g id="node7" class="node"><title>X4e4b1</title>
<g id="a_node7"><a xlink:href="http://sparql.cwrc.ca/ontologies/cwrc#protestantism" xlink:title="Protestantism" target="_parent">
<ellipse fill="none" stroke="black" cx="465.794" cy="-234" rx="59.2899" ry="18"/>
<text text-anchor="middle" x="465.794" y="-230.3" font-family="Times,serif" font-size="14.00">Protestantism</text>
</a>
</g>
</g>
<!-- X253de&#45;&gt;X4e4b1 -->
<g id="edge5" class="edge"><title>X253de&#45;&gt;X4e4b1</title>
<path fill="none" stroke="black" d="M486.258,-288.055C483.219,-280.176 479.531,-270.617 476.128,-261.794"/>
<polygon fill="black" stroke="black" points="479.321,-260.346 472.457,-252.275 472.79,-262.865 479.321,-260.346"/>
</g>
<!-- X156db -->
<g id="node8" class="node"><title>X156db</title>
<g id="a_node8"><a xlink:href="http://sparql.cwrc.ca/ontologies/cwrc#dissentProtestant" xlink:title="Dissent (Protestant)" target="_parent">
<ellipse fill="none" stroke="black" cx="784.794" cy="-234" rx="80.6858" ry="18"/>
<text text-anchor="middle" x="784.794" y="-230.3" font-family="Times,serif" font-size="14.00">Dissent (Protestant)</text>
</a>
</g>
</g>
<!-- X253de&#45;&gt;X156db -->
<g id="edge6" class="edge"><title>X253de&#45;&gt;X156db</title>
<path fill="none" stroke="black" d="M530.159,-293.887C537.321,-291.855 544.774,-289.808 551.794,-288 607.56,-273.636 671.357,-259.266 718.079,-249.12"/>
<polygon fill="black" stroke="black" points="719.044,-252.492 728.078,-246.956 717.564,-245.65 719.044,-252.492"/>
</g>
<!-- X4e4b1&#45;&gt;Xadf16 -->
<g id="edge7" class="edge"><title>X4e4b1&#45;&gt;Xadf16</title>
<path fill="none" stroke="black" d="M465.794,-215.871C465.794,-191.67 465.794,-147.211 465.794,-118.393"/>
<polygon fill="black" stroke="black" points="469.294,-118.189 465.794,-108.189 462.294,-118.189 469.294,-118.189"/>
</g>
<!-- Xf6f10 -->
<g id="node9" class="node"><title>Xf6f10</title>
<g id="a_node9"><a xlink:href="http://sparql.cwrc.ca/ontologies/cwrc#anglicanism" xlink:title="Anglicanism" target="_parent">
<ellipse fill="none" stroke="black" cx="784.794" cy="-162" rx="55.7903" ry="18"/>
<text text-anchor="middle" x="784.794" y="-158.3" font-family="Times,serif" font-size="14.00">Anglicanism</text>
</a>
</g>
</g>
<!-- X156db&#45;&gt;Xf6f10 -->
<g id="edge8" class="edge"><title>X156db&#45;&gt;Xf6f10</title>
<path fill="none" stroke="black" d="M784.794,-215.697C784.794,-207.983 784.794,-198.712 784.794,-190.112"/>
<polygon fill="black" stroke="black" points="788.294,-190.104 784.794,-180.104 781.294,-190.104 788.294,-190.104"/>
</g>
<!-- Xf6f10&#45;&gt;Xadf16 -->
<g id="edge16" class="edge"><title>Xf6f10&#45;&gt;Xadf16</title>
<path fill="none" stroke="black" d="M739.765,-151.119C681.523,-138.339 580.242,-116.114 518.486,-102.563"/>
<polygon fill="black" stroke="black" points="519.072,-99.108 508.554,-100.383 517.571,-105.945 519.072,-99.108"/>
</g>
<!-- Xd2614 -->
<g id="node10" class="node"><title>Xd2614</title>
<g id="a_node10"><a xlink:href="http://sparql.cwrc.ca/ontologies/cwrc#fifthMonarchists" xlink:title="Fifth Monarchists" target="_parent">
<ellipse fill="none" stroke="black" cx="1116.79" cy="-306" rx="74.187" ry="18"/>
<text text-anchor="middle" x="1116.79" y="-302.3" font-family="Times,serif" font-size="14.00">Fifth Monarchists</text>
</a>
</g>
</g>
<!-- Xd2614&#45;&gt;X156db -->
<g id="edge9" class="edge"><title>Xd2614&#45;&gt;X156db</title>
<path fill="none" stroke="black" d="M1062.71,-293.597C1005.01,-281.432 913.549,-262.147 851.441,-249.052"/>
<polygon fill="black" stroke="black" points="851.859,-245.563 841.352,-246.925 850.414,-252.413 851.859,-245.563"/>
</g>
<!-- Xb45be -->
<g id="node11" class="node"><title>Xb45be</title>
<g id="a_node11"><a xlink:href="http://sparql.cwrc.ca/ontologies/cwrc#millenarianism" xlink:title="Millenarianism" target="_parent">
<ellipse fill="none" stroke="black" cx="1116.79" cy="-234" rx="65.7887" ry="18"/>
<text text-anchor="middle" x="1116.79" y="-230.3" font-family="Times,serif" font-size="14.00">Millenarianism</text>
</a>
</g>
</g>
<!-- Xd2614&#45;&gt;Xb45be -->
<g id="edge10" class="edge"><title>Xd2614&#45;&gt;Xb45be</title>
<path fill="none" stroke="black" d="M1116.79,-287.697C1116.79,-279.983 1116.79,-270.712 1116.79,-262.112"/>
<polygon fill="black" stroke="black" points="1120.29,-262.104 1116.79,-252.104 1113.29,-262.104 1120.29,-262.104"/>
</g>
<!-- X9deb8 -->
<g id="node12" class="node"><title>X9deb8</title>
<g id="a_node12"><a xlink:href="http://sparql.cwrc.ca/ontologies/cwrc#dissentingChristianity" xlink:title="Dissenting Christianity" target="_parent">
<ellipse fill="none" stroke="black" cx="332.794" cy="-306" rx="92.0841" ry="18"/>
<text text-anchor="middle" x="332.794" y="-302.3" font-family="Times,serif" font-size="14.00">Dissenting Christianity</text>
</a>
</g>
</g>
<!-- X9deb8&#45;&gt;X4e4b1 -->
<g id="edge11" class="edge"><title>X9deb8&#45;&gt;X4e4b1</title>
<path fill="none" stroke="black" d="M363.306,-288.941C382.593,-278.79 407.659,-265.597 428.174,-254.8"/>
<polygon fill="black" stroke="black" points="430.024,-257.782 437.243,-250.027 426.763,-251.587 430.024,-257.782"/>
</g>
<!-- Xc7ed9 -->
<g id="node13" class="node"><title>Xc7ed9</title>
<g id="a_node13"><a xlink:href="http://sparql.cwrc.ca/ontologies/cwrc#hinduism" xlink:title="Hinduism" target="_parent">
<ellipse fill="none" stroke="black" cx="1450.79" cy="-594" rx="46.2923" ry="18"/>
<text text-anchor="middle" x="1450.79" y="-590.3" font-family="Times,serif" font-size="14.00">Hinduism</text>
</a>
</g>
</g>
<!-- X36b94 -->
<g id="node14" class="node"><title>X36b94</title>
<g id="a_node14"><a xlink:href="http://sparql.cwrc.ca/ontologies/cwrc#agnosticism" xlink:title="Agnosticism" target="_parent">
<ellipse fill="none" stroke="black" cx="1450.79" cy="-522" rx="55.7903" ry="18"/>
<text text-anchor="middle" x="1450.79" y="-518.3" font-family="Times,serif" font-size="14.00">Agnosticism</text>
</a>
</g>
</g>
<!-- Xc7ed9&#45;&gt;X36b94 -->
<!-- X37200 -->
<g id="node15" class="node"><title>X37200</title>
<g id="a_node15"><a xlink:href="http://sparql.cwrc.ca/ontologies/cwrc#paganism" xlink:title="Paganism" target="_parent">
<ellipse fill="none" stroke="black" cx="1450.79" cy="-450" rx="45.4919" ry="18"/>
<text text-anchor="middle" x="1450.79" y="-446.3" font-family="Times,serif" font-size="14.00">Paganism</text>
</a>
</g>
</g>
<!-- X36b94&#45;&gt;X37200 -->
<!-- X43c0c -->
<g id="node19" class="node"><title>X43c0c</title>
<g id="a_node19"><a xlink:href="http://sparql.cwrc.ca/ontologies/cwrc#occultism" xlink:title="Occultism/Theosophism" target="_parent">
<ellipse fill="none" stroke="black" cx="1450.79" cy="-378" rx="97.4827" ry="18"/>
<text text-anchor="middle" x="1450.79" y="-374.3" font-family="Times,serif" font-size="14.00">Occultism/Theosophism</text>
</a>
</g>
</g>
<!-- X37200&#45;&gt;X43c0c -->
<!-- X8fa8b -->
<g id="node16" class="node"><title>X8fa8b</title>
<g id="a_node16"><a xlink:href="http://sparql.cwrc.ca/ontologies/cwrc#plymouthBrethren" xlink:title="Plymouth Brethren" target="_parent">
<ellipse fill="none" stroke="black" cx="639.794" cy="-306" rx="78.7863" ry="18"/>
<text text-anchor="middle" x="639.794" y="-302.3" font-family="Times,serif" font-size="14.00">Plymouth Brethren</text>
</a>
</g>
</g>
<!-- X8fa8b&#45;&gt;X156db -->
<g id="edge14" class="edge"><title>X8fa8b&#45;&gt;X156db</title>
<path fill="none" stroke="black" d="M671.974,-289.465C693.02,-279.305 720.712,-265.936 743.394,-254.986"/>
<polygon fill="black" stroke="black" points="744.969,-258.112 752.453,-250.613 741.926,-251.808 744.969,-258.112"/>
</g>
<!-- X2a5d0 -->
<g id="node17" class="node"><title>X2a5d0</title>
<g id="a_node17"><a xlink:href="http://sparql.cwrc.ca/ontologies/cwrc#churchOfIreland" xlink:title="Church of Ireland" target="_parent">
<ellipse fill="none" stroke="black" cx="956.794" cy="-234" rx="73.387" ry="18"/>
<text text-anchor="middle" x="956.794" y="-230.3" font-family="Times,serif" font-size="14.00">Church of Ireland</text>
</a>
</g>
</g>
<!-- X2a5d0&#45;&gt;Xf6f10 -->
<g id="edge15" class="edge"><title>X2a5d0&#45;&gt;Xf6f10</title>
<path fill="none" stroke="black" d="M920.317,-218.155C893.118,-207.085 855.893,-191.936 827.339,-180.315"/>
<polygon fill="black" stroke="black" points="828.596,-177.048 818.014,-176.52 825.957,-183.531 828.596,-177.048"/>
</g>
<!-- X7477d -->
<g id="node18" class="node"><title>X7477d</title>
<g id="a_node18"><a xlink:href="http://sparql.cwrc.ca/ontologies/cwrc#congregationalism" xlink:title="Congregationalism" target="_parent">
<ellipse fill="none" stroke="black" cx="678.794" cy="-378" rx="77.9862" ry="18"/>
<text text-anchor="middle" x="678.794" y="-374.3" font-family="Times,serif" font-size="14.00">Congregationalism</text>
</a>
</g>
</g>
<!-- X7477d&#45;&gt;X156db -->
<g id="edge17" class="edge"><title>X7477d&#45;&gt;X156db</title>
<path fill="none" stroke="black" d="M695.938,-360.019C705.736,-349.942 717.986,-336.692 727.794,-324 743.462,-303.724 758.999,-279.083 769.885,-260.875"/>
<polygon fill="black" stroke="black" points="773.057,-262.386 775.129,-251.996 767.03,-258.826 773.057,-262.386"/>
</g>
<!-- X3b80a -->
<g id="node20" class="node"><title>X3b80a</title>
<g id="a_node20"><a xlink:href="http://sparql.cwrc.ca/ontologies/cwrc#buddhism" xlink:title="Buddhism" target="_parent">
<ellipse fill="none" stroke="black" cx="1450.79" cy="-306" rx="47.3916" ry="18"/>
<text text-anchor="middle" x="1450.79" y="-302.3" font-family="Times,serif" font-size="14.00">Buddhism</text>
</a>
</g>
</g>
<!-- X43c0c&#45;&gt;X3b80a -->
<!-- X52798 -->
<g id="node22" class="node"><title>X52798</title>
<g id="a_node22"><a xlink:href="http://sparql.cwrc.ca/ontologies/cwrc#pantheism" xlink:title="Pantheism" target="_parent">
<ellipse fill="none" stroke="black" cx="1450.79" cy="-234" rx="48.1917" ry="18"/>
<text text-anchor="middle" x="1450.79" y="-230.3" font-family="Times,serif" font-size="14.00">Pantheism</text>
</a>
</g>
</g>
<!-- X3b80a&#45;&gt;X52798 -->
<!-- Xd53bc -->
<g id="node21" class="node"><title>Xd53bc</title>
<g id="a_node21"><a xlink:href="http://sparql.cwrc.ca/ontologies/cwrc#baptistChristianity" xlink:title="Baptist Christianity" target="_parent">
<ellipse fill="none" stroke="black" cx="715.794" cy="-450" rx="79.0865" ry="18"/>
<text text-anchor="middle" x="715.794" y="-446.3" font-family="Times,serif" font-size="14.00">Baptist Christianity</text>
</a>
</g>
</g>
<!-- Xd53bc&#45;&gt;X156db -->
<g id="edge20" class="edge"><title>Xd53bc&#45;&gt;X156db</title>
<path fill="none" stroke="black" d="M736.671,-432.594C747.218,-423.091 759.157,-410.213 765.794,-396 786.015,-352.697 787.77,-296.005 786.659,-262.738"/>
<polygon fill="black" stroke="black" points="790.141,-262.24 786.195,-252.407 783.148,-262.554 790.141,-262.24"/>
</g>
<!-- X7152e -->
<g id="node25" class="node"><title>X7152e</title>
<g id="a_node25"><a xlink:href="http://sparql.cwrc.ca/ontologies/cwrc#atheism" xlink:title="Atheism" target="_parent">
<ellipse fill="none" stroke="black" cx="1450.79" cy="-162" rx="40.8928" ry="18"/>
<text text-anchor="middle" x="1450.79" y="-158.3" font-family="Times,serif" font-size="14.00">Atheism</text>
</a>
</g>
</g>
<!-- X52798&#45;&gt;X7152e -->
<!-- Xd32ac -->
<g id="node23" class="node"><title>Xd32ac</title>
<g id="a_node23"><a xlink:href="http://sparql.cwrc.ca/ontologies/cwrc#judaism" xlink:title="Judaism" target="_parent">
<ellipse fill="none" stroke="black" cx="691.794" cy="-90" rx="40.0939" ry="18"/>
<text text-anchor="middle" x="691.794" y="-86.3" font-family="Times,serif" font-size="14.00">Judaism</text>
</a>
</g>
</g>
<!-- Xd32ac&#45;&gt;Xb2336 -->
<g id="edge22" class="edge"><title>Xd32ac&#45;&gt;Xb2336</title>
<path fill="none" stroke="black" d="M691.794,-71.6966C691.794,-63.9827 691.794,-54.7125 691.794,-46.1124"/>
<polygon fill="black" stroke="black" points="695.294,-46.1043 691.794,-36.1043 688.294,-46.1044 695.294,-46.1043"/>
</g>
<!-- X043aa -->
<g id="node24" class="node"><title>X043aa</title>
<g id="a_node24"><a xlink:href="http://sparql.cwrc.ca/ontologies/cwrc#unitarianism" xlink:title="Unitarianism" target="_parent">
<ellipse fill="none" stroke="black" cx="775.794" cy="-522" rx="57.3905" ry="18"/>
<text text-anchor="middle" x="775.794" y="-518.3" font-family="Times,serif" font-size="14.00">Unitarianism</text>
</a>
</g>
</g>
<!-- X043aa&#45;&gt;X156db -->
<g id="edge23" class="edge"><title>X043aa&#45;&gt;X156db</title>
<path fill="none" stroke="black" d="M787.39,-504.197C793.588,-494.179 800.588,-480.929 803.794,-468 810.367,-441.486 820.319,-422.182 799.794,-288 798.492,-279.492 796.252,-270.416 793.894,-262.223"/>
<polygon fill="black" stroke="black" points="797.171,-260.969 790.905,-252.425 790.475,-263.011 797.171,-260.969"/>
</g>
<!-- Xd35c6 -->
<g id="node26" class="node"><title>Xd35c6</title>
<g id="a_node26"><a xlink:href="http://sparql.cwrc.ca/ontologies/cwrc#spiritualism" xlink:title="Spiritualism" target="_parent">
<ellipse fill="none" stroke="black" cx="1450.79" cy="-90" rx="53.8905" ry="18"/>
<text text-anchor="middle" x="1450.79" y="-86.3" font-family="Times,serif" font-size="14.00">Spiritualism</text>
</a>
</g>
</g>
<!-- X7152e&#45;&gt;Xd35c6 -->
<!-- Xe1e3e -->
<g id="node27" class="node"><title>Xe1e3e</title>
<g id="a_node27"><a xlink:href="http://sparql.cwrc.ca/ontologies/cwrc#methodism" xlink:title="Methodism" target="_parent">
<ellipse fill="none" stroke="black" cx="860.794" cy="-594" rx="51.9908" ry="18"/>
<text text-anchor="middle" x="860.794" y="-590.3" font-family="Times,serif" font-size="14.00">Methodism</text>
</a>
</g>
</g>
<!-- Xe1e3e&#45;&gt;X156db -->
<g id="edge26" class="edge"><title>Xe1e3e&#45;&gt;X156db</title>
<path fill="none" stroke="black" d="M860.794,-575.951C860.794,-549.292 860.794,-496.115 860.794,-451 860.794,-451 860.794,-451 860.794,-377 860.794,-331.388 829.935,-286.248 807.545,-259.498"/>
<polygon fill="black" stroke="black" points="810.093,-257.094 800.911,-251.807 804.792,-261.665 810.093,-257.094"/>
</g>
<!-- Xc1422 -->
<g id="node28" class="node"><title>Xc1422</title>
<g id="a_node28"><a xlink:href="http://sparql.cwrc.ca/ontologies/cwrc#islam" xlink:title="Islamism" target="_parent">
<ellipse fill="none" stroke="black" cx="902.794" cy="-162" rx="44.393" ry="18"/>
<text text-anchor="middle" x="902.794" y="-158.3" font-family="Times,serif" font-size="14.00">Islamism</text>
</a>
</g>
</g>
<!-- Xc1422&#45;&gt;Xb2336 -->
<g id="edge27" class="edge"><title>Xc1422&#45;&gt;Xb2336</title>
<path fill="none" stroke="black" d="M881.008,-146.338C842.885,-120.683 764.062,-67.6359 721.164,-38.7659"/>
<polygon fill="black" stroke="black" points="723.085,-35.8398 712.834,-33.1602 719.176,-41.6472 723.085,-35.8398"/>
</g>
<!-- X0e2fa -->
<g id="node29" class="node"><title>X0e2fa</title>
<g id="a_node29"><a xlink:href="http://sparql.cwrc.ca/ontologies/cwrc#presbyterianism" xlink:title="Presbyterianism" target="_parent">
<ellipse fill="none" stroke="black" cx="956.794" cy="-306" rx="67.6881" ry="18"/>
<text text-anchor="middle" x="956.794" y="-302.3" font-family="Times,serif" font-size="14.00">Presbyterianism</text>
</a>
</g>
</g>
<!-- X0e2fa&#45;&gt;X156db -->
<g id="edge28" class="edge"><title>X0e2fa&#45;&gt;X156db</title>
<path fill="none" stroke="black" d="M921.155,-290.496C895.076,-279.882 859.456,-265.386 831.162,-253.871"/>
<polygon fill="black" stroke="black" points="832.454,-250.618 821.872,-250.09 829.815,-257.101 832.454,-250.618"/>
</g>
<!-- Xb800b -->
<g id="node30" class="node"><title>Xb800b</title>
<g id="a_node30"><a xlink:href="http://sparql.cwrc.ca/ontologies/cwrc#tractarianMovement" xlink:title="Tractarian Movement" target="_parent">
<ellipse fill="none" stroke="black" cx="1296.79" cy="-306" rx="88.2844" ry="18"/>
<text text-anchor="middle" x="1296.79" y="-302.3" font-family="Times,serif" font-size="14.00">Tractarian Movement</text>
</a>
</g>
</g>
<!-- Xb800b&#45;&gt;Xf6f10 -->
<g id="edge29" class="edge"><title>Xb800b&#45;&gt;Xf6f10</title>
<path fill="none" stroke="black" d="M1282.83,-288.125C1264.39,-267.182 1229.81,-232.251 1191.79,-216 1051.26,-155.92 1000.15,-207.414 849.794,-180 845.024,-179.13 840.09,-178.095 835.171,-176.971"/>
<polygon fill="black" stroke="black" points="835.692,-173.496 825.151,-174.563 834.056,-180.303 835.692,-173.496"/>
</g>
<!-- Xe7b0a -->
<g id="node31" class="node"><title>Xe7b0a</title>
<g id="a_node31"><a xlink:href="http://sparql.cwrc.ca/ontologies/cwrc#neo-thomism" xlink:title="Neo&#45;thomism" target="_parent">
<ellipse fill="none" stroke="black" cx="162.794" cy="-306" rx="59.5901" ry="18"/>
<text text-anchor="middle" x="162.794" y="-302.3" font-family="Times,serif" font-size="14.00">Neo&#45;thomism</text>
</a>
</g>
</g>
<!-- Xe7b0a&#45;&gt;X32f53 -->
<g id="edge30" class="edge"><title>Xe7b0a&#45;&gt;X32f53</title>
<path fill="none" stroke="black" d="M174.957,-288.128C182.176,-277.867 191.343,-264.393 198.794,-252 211.175,-231.403 223.818,-207.25 232.868,-189.306"/>
<polygon fill="black" stroke="black" points="236.16,-190.548 237.502,-180.038 229.899,-187.417 236.16,-190.548"/>
</g>
</g>
</svg>
