<?xml version="1.0" encoding="UTF-8" standalone="no"?>
<!DOCTYPE svg PUBLIC "-//W3C//DTD SVG 1.1//EN"
 "http://www.w3.org/Graphics/SVG/1.1/DTD/svg11.dtd">
<!-- Generated by graphviz version 2.38.0 (20140413.2041)
 -->
<!-- Title: ReligionGraph Pages: 1 -->
<svg width="1239pt" height="620pt"
 viewBox="0.00 0.00 1238.84 620.00" xmlns="http://www.w3.org/2000/svg" xmlns:xlink="http://www.w3.org/1999/xlink">
<g id="graph0" class="graph" transform="scale(1 1) rotate(0) translate(4 616)">
<title>ReligionGraph</title>
<polygon fill="white" stroke="none" points="-4,4 -4,-616 1234.84,-616 1234.84,4 -4,4"/>
<!-- X43c0c -->
<g id="node1" class="node"><title>X43c0c</title>
<g id="a_node1"><a xlink:href="http://sparql.cwrc.ca/ontologies/cwrc#occultism" xlink:title="occultisme" target="_parent">
<ellipse fill="none" stroke="black" cx="57.1949" cy="-594" rx="49.2915" ry="18"/>
<text text-anchor="middle" x="57.1949" y="-590.3" font-family="Times,serif" font-size="14.00">occultisme</text>
</a>
</g>
</g>
<!-- X36b94 -->
<g id="node2" class="node"><title>X36b94</title>
<g id="a_node2"><a xlink:href="http://sparql.cwrc.ca/ontologies/cwrc#agnosticism" xlink:title="agnosticisme" target="_parent">
<ellipse fill="none" stroke="black" cx="57.1949" cy="-522" rx="57.3905" ry="18"/>
<text text-anchor="middle" x="57.1949" y="-518.3" font-family="Times,serif" font-size="14.00">agnosticisme</text>
</a>
</g>
</g>
<!-- X43c0c&#45;&gt;X36b94 -->
<!-- X3b80a -->
<g id="node3" class="node"><title>X3b80a</title>
<g id="a_node3"><a xlink:href="http://sparql.cwrc.ca/ontologies/cwrc#buddhism" xlink:title="Bouddhisme" target="_parent">
<ellipse fill="none" stroke="black" cx="57.1949" cy="-450" rx="55.7903" ry="18"/>
<text text-anchor="middle" x="57.1949" y="-446.3" font-family="Times,serif" font-size="14.00">Bouddhisme</text>
</a>
</g>
</g>
<!-- X36b94&#45;&gt;X3b80a -->
<!-- Xd35c6 -->
<g id="node4" class="node"><title>Xd35c6</title>
<g id="a_node4"><a xlink:href="http://sparql.cwrc.ca/ontologies/cwrc#spiritualism" xlink:title="Spritisme" target="_parent">
<ellipse fill="none" stroke="black" cx="57.1949" cy="-378" rx="44.6926" ry="18"/>
<text text-anchor="middle" x="57.1949" y="-374.3" font-family="Times,serif" font-size="14.00">Spritisme</text>
</a>
</g>
</g>
<!-- X3b80a&#45;&gt;Xd35c6 -->
<!-- X37200 -->
<g id="node5" class="node"><title>X37200</title>
<g id="a_node5"><a xlink:href="http://sparql.cwrc.ca/ontologies/cwrc#paganism" xlink:title="Paganisme" target="_parent">
<ellipse fill="none" stroke="black" cx="57.1949" cy="-306" rx="49.2915" ry="18"/>
<text text-anchor="middle" x="57.1949" y="-302.3" font-family="Times,serif" font-size="14.00">Paganisme</text>
</a>
</g>
</g>
<!-- Xd35c6&#45;&gt;X37200 -->
<!-- X52798 -->
<g id="node18" class="node"><title>X52798</title>
<g id="a_node18"><a xlink:href="http://sparql.cwrc.ca/ontologies/cwrc#pantheism" xlink:title="Panthéisme" target="_parent">
<ellipse fill="none" stroke="black" cx="57.1949" cy="-234" rx="51.9908" ry="18"/>
<text text-anchor="middle" x="57.1949" y="-230.3" font-family="Times,serif" font-size="14.00">Panthéisme</text>
</a>
</g>
</g>
<!-- X37200&#45;&gt;X52798 -->
<!-- X6f203 -->
<g id="node6" class="node"><title>X6f203</title>
<g id="a_node6"><a xlink:href="http://sparql.cwrc.ca/ontologies/cwrc#christianScience" xlink:title="Science Chrétienne" target="_parent">
<ellipse fill="none" stroke="black" cx="197.195" cy="-162" rx="79.0865" ry="18"/>
<text text-anchor="middle" x="197.195" y="-158.3" font-family="Times,serif" font-size="14.00">Science Chrétienne</text>
</a>
</g>
</g>
<!-- Xadf16 -->
<g id="node7" class="node"><title>Xadf16</title>
<g id="a_node7"><a xlink:href="http://sparql.cwrc.ca/ontologies/cwrc#christianity" xlink:title="Christianisme" target="_parent">
<ellipse fill="none" stroke="black" cx="436.195" cy="-90" rx="59.5901" ry="18"/>
<text text-anchor="middle" x="436.195" y="-86.3" font-family="Times,serif" font-size="14.00">Christianisme</text>
</a>
</g>
</g>
<!-- X6f203&#45;&gt;Xadf16 -->
<g id="edge5" class="edge"><title>X6f203&#45;&gt;Xadf16</title>
<path fill="none" stroke="black" d="M243.844,-147.337C284.466,-135.44 343.249,-118.223 385.124,-105.958"/>
<polygon fill="black" stroke="black" points="386.238,-109.279 394.851,-103.109 384.27,-102.561 386.238,-109.279"/>
</g>
<!-- Xb2336 -->
<g id="node8" class="node"><title>Xb2336</title>
<g id="a_node8"><a xlink:href="http://sparql.cwrc.ca/ontologies/cwrc#abrahamicReligions" xlink:title="Religions abrahamiques" target="_parent">
<ellipse fill="none" stroke="black" cx="683.195" cy="-18" rx="96.3833" ry="18"/>
<text text-anchor="middle" x="683.195" y="-14.3" font-family="Times,serif" font-size="14.00">Religions abrahamiques</text>
</a>
</g>
</g>
<!-- Xadf16&#45;&gt;Xb2336 -->
<g id="edge6" class="edge"><title>Xadf16&#45;&gt;Xb2336</title>
<path fill="none" stroke="black" d="M478.095,-77.1255C517.846,-65.8601 578.011,-48.8091 622.912,-36.0842"/>
<polygon fill="black" stroke="black" points="623.869,-39.451 632.535,-33.3569 621.96,-32.7163 623.869,-39.451"/>
</g>
<!-- X32f53 -->
<g id="node9" class="node"><title>X32f53</title>
<g id="a_node9"><a xlink:href="http://sparql.cwrc.ca/ontologies/cwrc#catholicism" xlink:title="Catholicisme" target="_parent">
<ellipse fill="none" stroke="black" cx="352.195" cy="-162" rx="57.6901" ry="18"/>
<text text-anchor="middle" x="352.195" y="-158.3" font-family="Times,serif" font-size="14.00">Catholicisme</text>
</a>
</g>
</g>
<!-- X32f53&#45;&gt;Xadf16 -->
<g id="edge7" class="edge"><title>X32f53&#45;&gt;Xadf16</title>
<path fill="none" stroke="black" d="M371.677,-144.765C382.809,-135.488 396.938,-123.714 409.134,-113.551"/>
<polygon fill="black" stroke="black" points="411.377,-116.238 416.818,-107.147 406.895,-110.86 411.377,-116.238"/>
</g>
<!-- X043aa -->
<g id="node10" class="node"><title>X043aa</title>
<g id="a_node10"><a xlink:href="http://sparql.cwrc.ca/ontologies/cwrc#unitarianism" xlink:title="unitarisme" target="_parent">
<ellipse fill="none" stroke="black" cx="567.195" cy="-306" rx="48.1917" ry="18"/>
<text text-anchor="middle" x="567.195" y="-302.3" font-family="Times,serif" font-size="14.00">unitarisme</text>
</a>
</g>
</g>
<!-- X156db -->
<g id="node11" class="node"><title>X156db</title>
<g id="a_node11"><a xlink:href="http://sparql.cwrc.ca/ontologies/cwrc#dissentProtestant" xlink:title="dissidents (ou non&#45;conformistes)" target="_parent">
<ellipse fill="none" stroke="black" cx="529.195" cy="-234" rx="126.978" ry="18"/>
<text text-anchor="middle" x="529.195" y="-230.3" font-family="Times,serif" font-size="14.00">dissidents (ou non&#45;conformistes)</text>
</a>
</g>
</g>
<!-- X043aa&#45;&gt;X156db -->
<g id="edge8" class="edge"><title>X043aa&#45;&gt;X156db</title>
<path fill="none" stroke="black" d="M557.996,-288.055C553.627,-280.007 548.306,-270.205 543.432,-261.226"/>
<polygon fill="black" stroke="black" points="546.42,-259.394 538.573,-252.275 540.268,-262.734 546.42,-259.394"/>
</g>
<!-- X4e4b1 -->
<g id="node12" class="node"><title>X4e4b1</title>
<g id="a_node12"><a xlink:href="http://sparql.cwrc.ca/ontologies/cwrc#protestantism" xlink:title="protestantisme" target="_parent">
<ellipse fill="none" stroke="black" cx="521.195" cy="-162" rx="62.2891" ry="18"/>
<text text-anchor="middle" x="521.195" y="-158.3" font-family="Times,serif" font-size="14.00">protestantisme</text>
</a>
</g>
</g>
<!-- X156db&#45;&gt;X4e4b1 -->
<g id="edge9" class="edge"><title>X156db&#45;&gt;X4e4b1</title>
<path fill="none" stroke="black" d="M527.217,-215.697C526.336,-207.983 525.276,-198.712 524.293,-190.112"/>
<polygon fill="black" stroke="black" points="527.763,-189.642 523.15,-180.104 520.808,-190.437 527.763,-189.642"/>
</g>
<!-- X4e4b1&#45;&gt;Xadf16 -->
<g id="edge23" class="edge"><title>X4e4b1&#45;&gt;Xadf16</title>
<path fill="none" stroke="black" d="M501.481,-144.765C490.216,-135.488 475.92,-123.714 463.578,-113.551"/>
<polygon fill="black" stroke="black" points="465.747,-110.803 455.802,-107.147 461.297,-116.206 465.747,-110.803"/>
</g>
<!-- Xb800b -->
<g id="node13" class="node"><title>Xb800b</title>
<g id="a_node13"><a xlink:href="http://sparql.cwrc.ca/ontologies/cwrc#tractarianMovement" xlink:title="tractarianisme" target="_parent">
<ellipse fill="none" stroke="black" cx="735.195" cy="-234" rx="61.1893" ry="18"/>
<text text-anchor="middle" x="735.195" y="-230.3" font-family="Times,serif" font-size="14.00">tractarianisme</text>
</a>
</g>
</g>
<!-- Xf6f10 -->
<g id="node14" class="node"><title>Xf6f10</title>
<g id="a_node14"><a xlink:href="http://sparql.cwrc.ca/ontologies/cwrc#anglicanism" xlink:title="Église d&#39;Angleterre" target="_parent">
<ellipse fill="none" stroke="black" cx="735.195" cy="-162" rx="78.7863" ry="18"/>
<text text-anchor="middle" x="735.195" y="-158.3" font-family="Times,serif" font-size="14.00">Église d&#39;Angleterre</text>
</a>
</g>
</g>
<!-- Xb800b&#45;&gt;Xf6f10 -->
<g id="edge10" class="edge"><title>Xb800b&#45;&gt;Xf6f10</title>
<path fill="none" stroke="black" d="M735.195,-215.697C735.195,-207.983 735.195,-198.712 735.195,-190.112"/>
<polygon fill="black" stroke="black" points="738.695,-190.104 735.195,-180.104 731.695,-190.104 738.695,-190.104"/>
</g>
<!-- Xf6f10&#45;&gt;Xadf16 -->
<g id="edge11" class="edge"><title>Xf6f10&#45;&gt;Xadf16</title>
<path fill="none" stroke="black" d="M681.234,-148.807C634.589,-138.21 565.384,-122.348 505.195,-108 500.492,-106.879 495.612,-105.703 490.719,-104.514"/>
<polygon fill="black" stroke="black" points="491.256,-101.043 480.712,-102.072 489.597,-107.843 491.256,-101.043"/>
</g>
<!-- X0e2fa -->
<g id="node15" class="node"><title>X0e2fa</title>
<g id="a_node15"><a xlink:href="http://sparql.cwrc.ca/ontologies/cwrc#presbyterianism" xlink:title="Presbytarianisme" target="_parent">
<ellipse fill="none" stroke="black" cx="643.195" cy="-378" rx="71.4873" ry="18"/>
<text text-anchor="middle" x="643.195" y="-374.3" font-family="Times,serif" font-size="14.00">Presbytarianisme</text>
</a>
</g>
</g>
<!-- X0e2fa&#45;&gt;X156db -->
<g id="edge12" class="edge"><title>X0e2fa&#45;&gt;X156db</title>
<path fill="none" stroke="black" d="M643.586,-359.904C643.179,-340.632 639.87,-309.225 624.195,-288 614.067,-274.287 599.271,-263.655 584.357,-255.636"/>
<polygon fill="black" stroke="black" points="585.602,-252.345 575.096,-250.977 582.456,-258.598 585.602,-252.345"/>
</g>
<!-- Xd32ac -->
<g id="node16" class="node"><title>Xd32ac</title>
<g id="a_node16"><a xlink:href="http://sparql.cwrc.ca/ontologies/cwrc#judaism" xlink:title="Judaïsme" target="_parent">
<ellipse fill="none" stroke="black" cx="558.195" cy="-90" rx="44.393" ry="18"/>
<text text-anchor="middle" x="558.195" y="-86.3" font-family="Times,serif" font-size="14.00">Judaïsme</text>
</a>
</g>
</g>
<!-- Xd32ac&#45;&gt;Xb2336 -->
<g id="edge13" class="edge"><title>Xd32ac&#45;&gt;Xb2336</title>
<path fill="none" stroke="black" d="M583.19,-75.0027C600.984,-65.0382 625.214,-51.4695 645.367,-40.1838"/>
<polygon fill="black" stroke="black" points="647.287,-43.1202 654.302,-35.1803 643.866,-37.0126 647.287,-43.1202"/>
</g>
<!-- X253de -->
<g id="node17" class="node"><title>X253de</title>
<g id="a_node17"><a xlink:href="http://sparql.cwrc.ca/ontologies/cwrc#quakerism" xlink:title="quaker" target="_parent">
<ellipse fill="none" stroke="black" cx="391.195" cy="-450" rx="34.394" ry="18"/>
<text text-anchor="middle" x="391.195" y="-446.3" font-family="Times,serif" font-size="14.00">quaker</text>
</a>
</g>
</g>
<!-- X253de&#45;&gt;X156db -->
<g id="edge14" class="edge"><title>X253de&#45;&gt;X156db</title>
<path fill="none" stroke="black" d="M392.244,-431.865C394.986,-400.254 404.766,-331.982 439.195,-288 449.654,-274.638 464.493,-263.963 479.111,-255.796"/>
<polygon fill="black" stroke="black" points="480.931,-258.794 488.144,-251.033 477.666,-252.602 480.931,-258.794"/>
</g>
<!-- X7152e -->
<g id="node22" class="node"><title>X7152e</title>
<g id="a_node22"><a xlink:href="http://sparql.cwrc.ca/ontologies/cwrc#atheism" xlink:title="athéisme" target="_parent">
<ellipse fill="none" stroke="black" cx="57.1949" cy="-162" rx="42.4939" ry="18"/>
<text text-anchor="middle" x="57.1949" y="-158.3" font-family="Times,serif" font-size="14.00">athéisme</text>
</a>
</g>
</g>
<!-- X52798&#45;&gt;X7152e -->
<!-- Xd2614 -->
<g id="node19" class="node"><title>Xd2614</title>
<g id="a_node19"><a xlink:href="http://sparql.cwrc.ca/ontologies/cwrc#fifthMonarchists" xlink:title="Cinquièmes Monarchistes" target="_parent">
<ellipse fill="none" stroke="black" cx="978.195" cy="-306" rx="103.182" ry="18"/>
<text text-anchor="middle" x="978.195" y="-302.3" font-family="Times,serif" font-size="14.00">Cinquièmes Monarchistes</text>
</a>
</g>
</g>
<!-- Xd2614&#45;&gt;X156db -->
<g id="edge16" class="edge"><title>Xd2614&#45;&gt;X156db</title>
<path fill="none" stroke="black" d="M904.052,-293.441C826.502,-281.351 704.654,-262.354 621.058,-249.322"/>
<polygon fill="black" stroke="black" points="621.479,-245.845 611.059,-247.763 620.4,-252.761 621.479,-245.845"/>
</g>
<!-- Xb45be -->
<g id="node20" class="node"><title>Xb45be</title>
<g id="a_node20"><a xlink:href="http://sparql.cwrc.ca/ontologies/cwrc#millenarianism" xlink:title="millénarisme, ou chiliasme" target="_parent">
<ellipse fill="none" stroke="black" cx="922.195" cy="-234" rx="107.781" ry="18"/>
<text text-anchor="middle" x="922.195" y="-230.3" font-family="Times,serif" font-size="14.00">millénarisme, ou chiliasme</text>
</a>
</g>
</g>
<!-- Xd2614&#45;&gt;Xb45be -->
<g id="edge17" class="edge"><title>Xd2614&#45;&gt;Xb45be</title>
<path fill="none" stroke="black" d="M964.639,-288.055C957.929,-279.668 949.696,-269.376 942.272,-260.096"/>
<polygon fill="black" stroke="black" points="944.995,-257.898 936.015,-252.275 939.529,-262.27 944.995,-257.898"/>
</g>
<!-- Xd53bc -->
<g id="node21" class="node"><title>Xd53bc</title>
<g id="a_node21"><a xlink:href="http://sparql.cwrc.ca/ontologies/cwrc#baptistChristianity" xlink:title="Baptisme" target="_parent">
<ellipse fill="none" stroke="black" cx="419.195" cy="-522" rx="44.393" ry="18"/>
<text text-anchor="middle" x="419.195" y="-518.3" font-family="Times,serif" font-size="14.00">Baptisme</text>
</a>
</g>
</g>
<!-- Xd53bc&#45;&gt;X156db -->
<g id="edge18" class="edge"><title>Xd53bc&#45;&gt;X156db</title>
<path fill="none" stroke="black" d="M424.239,-503.863C427.238,-493.509 431.057,-480.029 434.195,-468 454.954,-388.412 437.388,-359.977 477.195,-288 483.13,-277.269 491.835,-267.194 500.431,-258.77"/>
<polygon fill="black" stroke="black" points="502.96,-261.197 507.886,-251.817 498.186,-256.078 502.96,-261.197"/>
</g>
<!-- Xc7ed9 -->
<g id="node24" class="node"><title>Xc7ed9</title>
<g id="a_node24"><a xlink:href="http://sparql.cwrc.ca/ontologies/cwrc#hinduism" xlink:title="hindouisme" target="_parent">
<ellipse fill="none" stroke="black" cx="57.1949" cy="-90" rx="51.9908" ry="18"/>
<text text-anchor="middle" x="57.1949" y="-86.3" font-family="Times,serif" font-size="14.00">hindouisme</text>
</a>
</g>
</g>
<!-- X7152e&#45;&gt;Xc7ed9 -->
<!-- X1cc79 -->
<g id="node23" class="node"><title>X1cc79</title>
<g id="a_node23"><a xlink:href="http://sparql.cwrc.ca/ontologies/cwrc#lollardy" xlink:title="Lollardy" target="_parent">
<ellipse fill="none" stroke="black" cx="275.195" cy="-234" rx="40.8928" ry="18"/>
<text text-anchor="middle" x="275.195" y="-230.3" font-family="Times,serif" font-size="14.00">Lollardy</text>
</a>
</g>
</g>
<!-- X1cc79&#45;&gt;X32f53 -->
<g id="edge20" class="edge"><title>X1cc79&#45;&gt;X32f53</title>
<path fill="none" stroke="black" d="M292.284,-217.465C302.435,-208.236 315.499,-196.36 326.836,-186.054"/>
<polygon fill="black" stroke="black" points="329.306,-188.538 334.351,-179.222 324.597,-183.359 329.306,-188.538"/>
</g>
<!-- Xe7b0a -->
<g id="node25" class="node"><title>Xe7b0a</title>
<g id="a_node25"><a xlink:href="http://sparql.cwrc.ca/ontologies/cwrc#neo-thomism" xlink:title="néothomisme" target="_parent">
<ellipse fill="none" stroke="black" cx="328.195" cy="-306" rx="59.2899" ry="18"/>
<text text-anchor="middle" x="328.195" y="-302.3" font-family="Times,serif" font-size="14.00">néothomisme</text>
</a>
</g>
</g>
<!-- Xe7b0a&#45;&gt;X32f53 -->
<g id="edge22" class="edge"><title>Xe7b0a&#45;&gt;X32f53</title>
<path fill="none" stroke="black" d="M331.09,-287.871C335.18,-263.67 342.695,-219.211 347.565,-190.393"/>
<polygon fill="black" stroke="black" points="351.074,-190.633 349.29,-180.189 344.172,-189.466 351.074,-190.633"/>
</g>
<!-- Xe1e3e -->
<g id="node26" class="node"><title>Xe1e3e</title>
<g id="a_node26"><a xlink:href="http://sparql.cwrc.ca/ontologies/cwrc#methodism" xlink:title="Église méthodiste" target="_parent">
<ellipse fill="none" stroke="black" cx="491.195" cy="-594" rx="74.187" ry="18"/>
<text text-anchor="middle" x="491.195" y="-590.3" font-family="Times,serif" font-size="14.00">Église méthodiste</text>
</a>
</g>
</g>
<!-- Xe1e3e&#45;&gt;X156db -->
<g id="edge24" class="edge"><title>Xe1e3e&#45;&gt;X156db</title>
<path fill="none" stroke="black" d="M491.195,-575.951C491.195,-549.292 491.195,-496.115 491.195,-451 491.195,-451 491.195,-451 491.195,-377 491.195,-335.633 506.43,-289.722 517.607,-261.605"/>
<polygon fill="black" stroke="black" points="520.951,-262.673 521.505,-252.093 514.474,-260.019 520.951,-262.673"/>
</g>
<!-- X8fa8b -->
<g id="node27" class="node"><title>X8fa8b</title>
<g id="a_node27"><a xlink:href="http://sparql.cwrc.ca/ontologies/cwrc#plymouthBrethren" xlink:title="Frères de Schwarzenau" target="_parent">
<ellipse fill="none" stroke="black" cx="764.195" cy="-306" rx="92.8835" ry="18"/>
<text text-anchor="middle" x="764.195" y="-302.3" font-family="Times,serif" font-size="14.00">Frères de Schwarzenau</text>
</a>
</g>
</g>
<!-- X8fa8b&#45;&gt;X156db -->
<g id="edge25" class="edge"><title>X8fa8b&#45;&gt;X156db</title>
<path fill="none" stroke="black" d="M711.97,-291.087C674.653,-280.399 624.552,-265.53 586.203,-253.786"/>
<polygon fill="black" stroke="black" points="586.809,-250.311 576.222,-250.718 584.752,-257.002 586.809,-250.311"/>
</g>
<!-- X8fa8b&#45;&gt;X156db -->
<g id="edge26" class="edge"><title>X8fa8b&#45;&gt;X156db</title>
<path fill="none" stroke="black" d="M719.993,-290.155C684.883,-279.292 635.338,-264.499 595.499,-252.968"/>
<polygon fill="black" stroke="black" points="596.434,-249.595 585.855,-250.186 594.494,-256.321 596.434,-249.595"/>
</g>
<!-- X8fa8b&#45;&gt;Xb45be -->
<g id="edge27" class="edge"><title>X8fa8b&#45;&gt;Xb45be</title>
<path fill="none" stroke="black" d="M794.662,-288.941C816.449,-278.776 846.156,-265.561 871.459,-254.755"/>
<polygon fill="black" stroke="black" points="873.076,-257.871 880.915,-250.743 870.342,-251.427 873.076,-257.871"/>
</g>
<!-- X8fa8b&#45;&gt;Xb45be -->
<g id="edge28" class="edge"><title>X8fa8b&#45;&gt;Xb45be</title>
<path fill="none" stroke="black" d="M804.568,-289.638C828.387,-279.619 858.336,-266.425 882.101,-255.513"/>
<polygon fill="black" stroke="black" points="883.603,-258.675 891.21,-251.301 880.664,-252.322 883.603,-258.675"/>
</g>
<!-- X2a5d0 -->
<g id="node28" class="node"><title>X2a5d0</title>
<g id="a_node28"><a xlink:href="http://sparql.cwrc.ca/ontologies/cwrc#churchOfIreland" xlink:title="Église d&#39;Irlande" target="_parent">
<ellipse fill="none" stroke="black" cx="1165.19" cy="-306" rx="65.7887" ry="18"/>
<text text-anchor="middle" x="1165.19" y="-302.3" font-family="Times,serif" font-size="14.00">Église d&#39;Irlande</text>
</a>
</g>
</g>
<!-- X2a5d0&#45;&gt;Xf6f10 -->
<g id="edge29" class="edge"><title>X2a5d0&#45;&gt;Xf6f10</title>
<path fill="none" stroke="black" d="M1147.54,-288.606C1124.48,-268.172 1081.98,-233.777 1039.19,-216 969.133,-186.89 883.556,-173.767 821.071,-167.853"/>
<polygon fill="black" stroke="black" points="821.131,-164.344 810.856,-166.93 820.501,-171.315 821.131,-164.344"/>
</g>
<!-- Xc1422 -->
<g id="node29" class="node"><title>Xc1422</title>
<g id="a_node29"><a xlink:href="http://sparql.cwrc.ca/ontologies/cwrc#islam" xlink:title="Mahométisme" target="_parent">
<ellipse fill="none" stroke="black" cx="683.195" cy="-90" rx="62.2891" ry="18"/>
<text text-anchor="middle" x="683.195" y="-86.3" font-family="Times,serif" font-size="14.00">Mahométisme</text>
</a>
</g>
</g>
<!-- Xc1422&#45;&gt;Xb2336 -->
<g id="edge30" class="edge"><title>Xc1422&#45;&gt;Xb2336</title>
<path fill="none" stroke="black" d="M671.438,-72.055C669.802,-64.3456 669.318,-55.0269 669.985,-46.3642"/>
<polygon fill="black" stroke="black" points="673.477,-46.6584 671.369,-36.2753 666.542,-45.7065 673.477,-46.6584"/>
</g>
<!-- Xc1422&#45;&gt;Xb2336 -->
<g id="edge31" class="edge"><title>Xc1422&#45;&gt;Xb2336</title>
<path fill="none" stroke="black" d="M683.195,-71.6966C683.195,-63.9827 683.195,-54.7125 683.195,-46.1124"/>
<polygon fill="black" stroke="black" points="686.695,-46.1043 683.195,-36.1043 679.695,-46.1044 686.695,-46.1043"/>
</g>
<!-- Xc1422&#45;&gt;Xb2336 -->
<g id="edge32" class="edge"><title>Xc1422&#45;&gt;Xb2336</title>
<path fill="none" stroke="black" d="M694.951,-72.055C696.588,-64.3456 697.072,-55.0269 696.405,-46.3642"/>
<polygon fill="black" stroke="black" points="699.848,-45.7065 695.021,-36.2753 692.913,-46.6584 699.848,-45.7065"/>
</g>
</g>
</svg>
